<?xml version="1.0" encoding="UTF-8" standalone="no"?>
<!-- Created with Inkscape (http://www.inkscape.org/) -->

<svg
   width="1000"
   height="1000"
   viewBox="0 0 264.58333 264.58333"
   version="1.1"
   id="svg1"
   xmlns="http://www.w3.org/2000/svg"
   xmlns:svg="http://www.w3.org/2000/svg">
  <defs
     id="defs1">
    <rect
       x="256.66667"
       y="116.66667"
       width="508.33333"
       height="661.66667"
       id="rect3" />
  </defs>
  <text
     xml:space="preserve"
     transform="scale(0.26458333)"
     id="text3"
     style="fill:#000000;text-orientation:auto;stroke-width:19.52125984;text-align:start;writing-mode:lr-tb;direction:ltr;white-space:pre;shape-inside:url(#rect3)" />
  <path
     id="path6"
     style="fill:#000000;stroke-width:5.16501"
     d="m 159.59939,165.17341 2.95745,-0.23255 c -0.62598,-0.64621 -1.30889,-1.24281 -1.89084,-1.93011 -0.3944,-0.40618 -0.70195,-0.8756 -0.971,-1.37046 -0.32012,-0.58669 -0.74085,-1.10317 -1.18753,-1.59629 -0.4147,-0.45806 -0.85289,-0.89357 -1.28829,-1.3317 -0.40301,-0.35254 -0.73265,-0.75307 -1.02733,-1.19683 -0.35148,-0.55663 -0.81169,-1.01273 -1.28571,-1.46192 -0.83091,-0.85169 -1.66656,-1.69902 -2.49907,-2.5492 -0.91191,-0.8885 -1.8885,-1.70426 -2.83549,-2.55436 -0.71513,-0.67825 -1.51022,-1.26482 -2.2102,-1.95906 -0.50413,-0.59685 -1.1111,-1.08527 -1.7172,-1.57251 -0.75309,-0.51037 -1.46473,-1.07675 -2.19315,-1.62161 -0.87487,-0.56139 -1.70999,-1.18063 -2.56418,-1.77302 -0.64003,-0.38887 -1.30838,-0.72937 -1.97043,-1.079 -0.96321,-0.50468 -1.98461,-0.88701 -2.99361,-1.28829 -1.45496,-0.5749 -2.89039,-1.1977 -4.31705,-1.83917 -1.14677,-0.5897 -2.2822,-1.2 -3.44217,-1.76423 -0.59023,-0.26622 -1.18789,-0.51774 -1.77767,-0.78548 0.10885,-0.6114 0.20672,-1.22259 0.35244,-1.82832 0.25472,-0.97031 0.23596,-1.98042 0.38912,-2.96519 0.17073,-0.75025 0.31964,-1.50364 0.37362,-2.2717 0.0692,-0.93493 0.0554,-1.85915 -0.0806,-2.78587 -0.14379,-1.19572 -0.30656,-2.38564 -0.49506,-3.57549 -0.14979,-1.07092 -0.41761,-2.11888 -0.57205,-3.18947 -0.0203,-0.6294 -0.28591,-1.20339 -0.44545,-1.80196 -0.0904,-0.34731 -0.10979,-0.70449 -0.11731,-1.06143 -0.0133,-0.38996 0.033,-0.77796 -0.0543,-1.15962 -0.12275,-0.3124 -0.24717,-0.62101 -0.3328,-0.9462 -0.0104,-0.32152 -0.19944,-0.57558 -0.32194,-0.86093 -0.21764,-0.41825 -0.46283,-0.81926 -0.73122,-1.20664 -0.25719,-0.40691 -0.50032,-0.82576 -0.81856,-1.18804 -0.40034,-0.41136 -0.79633,-0.82675 -1.20509,-1.2299 -0.21646,-0.31517 -0.52509,-0.52452 -0.80667,-0.77153 l -0.14986,0.0134 c -0.15888,-0.18521 -0.31554,-0.37295 -0.47026,-0.56224 -0.56343,-0.68152 -1.13609,-1.35488 -1.71359,-2.02416 -0.44897,-0.49886 -0.87613,-1.01238 -1.36426,-1.47433 -0.79477,-0.64999 -1.67485,-1.18281 -2.5156,-1.7694 -0.62961,-0.35104 -1.20208,-0.7733 -1.76889,-1.2144 -0.48953,-0.32045 -0.98111,-0.63716 -1.46761,-0.96221 -1.44353,-0.63909 -2.90264,-1.25318 -4.35219,-1.88361 -1.02699,-0.4802 -2.01507,-1.04071 -3.06699,-1.46554 -1.86488,-0.71219 -3.73723,-1.40727 -5.613104,-2.09135 -1.98119,-0.74622 -4.03372,-1.34375 -5.94641,-2.26084 -1.65111,-0.77017 -3.41842,-1.2409 -5.16712,-1.73064 -1.35702,-0.44743 -2.79372,-0.62169 -4.1336,-1.1188 -0.48033,-0.24904 -0.97283,-0.36214 -1.50792,-0.40928 -1.5318,-0.0659 -3.06711,-0.03879 -4.59972,-0.03049 -0.46417,0.0031 -0.92798,0.0043 -1.39216,0.0052 -0.005,0 -0.0337,1e-5 -0.0403,0 -0.13212,2.5e-4 -0.26423,3e-4 -0.39636,5.2e-4 -0.0182,10e-6 -0.036,-1e-5 -0.0543,0 l 0.004,-5.2e-4 c -0.4663,-9e-5 -1.24711,-4.9e-4 -2.34353,-5.2e-4 0.7798,2e-4 1.5596,0.0015 2.3394,10e-4 l -2.93109,0.46457 c 1.36292,-0.001 0.18667,-5.8e-4 3.52795,-5.2e-4 0.79138,-2.7e-4 1.58262,-0.0015 2.37401,-0.0015 0.0682,1e-5 0.13642,-4e-5 0.20464,0 0.12259,0.0019 0.24539,0.0044 0.36794,0.0083 0.53149,0.0237 1.03071,0.04733 1.50327,0.32091 1.35909,0.53178 2.82181,0.69561 4.21266,1.13585 1.72535,0.48192 3.46409,0.94873 5.10201,1.68672 1.93914,0.94043 4.03411,1.52026 6.04718,2.27738 1.84233,0.67737 3.6699,1.39514 5.501474,2.09599 1.06523,0.42355 2.09012,0.93169 3.11196,1.45211 1.43197,0.61537 2.84587,1.27357 4.29896,1.83917 0.48747,0.31125 0.94452,0.67145 1.45417,0.94206 0.58287,0.43209 1.12569,0.90909 1.78853,1.22525 0.83353,0.57741 1.69464,1.11395 2.50113,1.72961 0.49701,0.44784 0.91649,0.95369 1.36736,1.44487 0.59656,0.64959 1.13899,1.3511 1.72445,2.01228 0.75646,0.91339 1.53541,1.80101 2.39675,2.61844 l 0.23771,-0.0186 c 0.33397,0.31052 0.55131,0.73454 0.78445,1.11983 0.2668,0.3632 0.49389,0.74516 0.72502,1.12965 0.10057,0.29704 0.30981,0.51607 0.31419,0.83199 0.0896,0.32396 0.18905,0.64341 0.34107,0.94412 0.11016,0.34795 0.0214,0.72852 0.0517,1.08934 0.01,0.37956 0.0228,0.76017 0.12299,1.12913 0.14576,0.59471 0.44489,1.14858 0.46509,1.77147 0.16523,1.0707 0.42895,2.12072 0.58549,3.19257 0.19392,1.18854 0.35657,2.3757 0.4837,3.57291 0.14215,0.90325 0.14331,1.80649 0.0718,2.71818 -0.0661,0.75906 -0.20574,1.50528 -0.36277,2.25051 -0.14382,0.97796 -0.13476,1.97881 -0.39429,2.93987 -0.025,0.10394 -0.0488,0.20786 -0.0713,0.31213 -0.57475,-0.36586 -1.10571,-0.79885 -1.6123,-1.25316 -0.61256,-0.57712 -1.34088,-0.99455 -2.05052,-1.4366 -0.74825,-0.47271 -1.55227,-0.84538 -2.31872,-1.28519 -0.50321,-0.2655 -1.03081,-0.48402 -1.5565,-0.70125 -0.66831,-0.32479 -1.40176,-0.44962 -2.1053,-0.66508 -0.55993,-0.28784 -1.17329,-0.37241 -1.78025,-0.50023 -0.71104,-0.22393 -1.44981,-0.31727 -2.18074,-0.447 -0.86734,-0.12983 -1.69342,-0.41935 -2.53628,-0.64699 -0.58162,-0.17049 -1.17601,-0.2311 -1.77871,-0.25218 -1.74728,-0.0262 -3.4946,-0.0128 -5.24205,-0.009 -0.549054,0.002 -1.098394,0.001 -1.647454,0.002 -0.35138,6.9e-4 -0.9271,10e-4 -1.36219,0.002 -1.46563,-0.0649 -2.95982,-0.21146 -4.33307,0.15813 -0.35237,0.17797 -0.7832,0.15308 -1.10846,0.37001 -0.50426,0.21758 -1.06193,0.27043 -1.60352,0.32246 -0.58943,0.26499 -1.15518,0.55389 -1.78749,0.6997 -0.7152,0.19752 -1.36303,0.54573 -2.0407,0.83199 -0.77411,0.32302 -1.2951,0.92839 -1.88102,1.49706 -0.96201,0.8773 -2.01103,1.63702 -3.0701,2.38901 -0.59504,0.41349 -1.1484,0.88007 -1.74769,1.28415 -0.55979,0.56863 -1.10799,1.15356 -1.60869,1.77509 -0.62794,0.62821 -1.0673,1.3983 -1.65106,2.06241 -0.51293,0.67771 -1.05512,1.3286 -1.5105,2.0469 -0.33937,0.5145 -0.68519,1.02 -1.00356,1.54771 -0.24451,0.38028 -0.29384,0.84433 -0.3235,1.28623 -0.0309,0.44906 0.022,0.8975 -0.0589,1.341 -0.18826,0.84179 -0.26522,1.70302 -0.32814,2.5616 -0.001,0.67071 -0.26064,1.29823 -0.37776,1.95182 -0.0959,0.47204 -0.10839,0.95237 -0.1235,1.43195 -0.006,0.42764 -0.003,0.85549 10e-4,1.28313 0.10757,0.62357 0.26436,1.23604 0.49196,1.82624 0.21227,0.46698 0.26849,0.97715 0.48989,1.43868 0.18136,0.41514 0.39893,0.70321 0.75965,0.98236 0.80683,0.57947 1.67621,1.06646 2.55333,1.53014 1.22411,0.49055 2.50847,0.82848 3.78168,1.16944 0.86994,0.24312 1.7619,0.36128 2.66134,0.41238 1.85352,0.0479 3.70843,0.0248 5.56245,0.0186 0.50364,-0.002 1.00789,-0.003 1.51153,-0.004 0.12678,-2.1e-4 0.25356,-3.1e-4 0.38034,-5.1e-4 0.30485,-1.4e-4 0.60931,-1.8e-4 0.91416,0 -4.3591,-0.003 -2.38834,0.002 -1.2945,5.1e-4 2.03016,0.56037 2.71798,-0.16225 4.26331,-0.38602 0.48083,-0.052 0.96441,-0.0559 1.44746,-0.0584 0.38057,-0.15314 0.75506,-0.29788 1.1529,-0.39895 0.22331,-0.0269 0.44762,-0.0363 0.67231,-0.0398 0.26031,1.1e-4 0.52052,2.9e-4 0.78083,5.2e-4 1.470224,10e-4 2.940884,-5.4e-4 4.411104,5.2e-4 0.45512,0.0405 0.84508,-0.0153 1.2702,-0.17002 0.56234,-0.24471 1.19121,-0.2299 1.79266,-0.25063 0.88952,0.009 1.75832,-0.21596 2.6293,-0.37 0.62011,-0.0579 1.22039,-0.10522 1.82779,-0.24908 0.79046,-0.13372 1.54233,-0.40277 2.33009,-0.55346 0.72696,-0.10278 1.45782,-0.24612 2.13321,-0.54208 0.56212,-0.23552 1.1132,-0.47226 1.67121,-0.72037 0.48137,-0.26991 0.92468,-0.58408 1.3994,-0.86403 0.37487,-0.46524 0.88865,-0.77359 1.28054,-1.22008 0.47168,-0.60146 0.97946,-1.17334 1.49707,-1.7353 0.41982,-0.40747 0.75805,-0.87667 1.09967,-1.34875 0.3822,-0.43993 0.51431,-0.99553 0.68833,-1.53376 0.34364,-0.57958 0.50605,-1.2482 0.81339,-1.8402 0.28375,-0.50944 0.38755,-1.08002 0.59221,-1.62057 0.18837,-0.53192 0.48018,-1.01216 0.65888,-1.55132 0.13122,-0.62142 0.34706,-1.21945 0.46457,-1.84692 0.0327,-0.55752 0.18742,-1.07844 0.31884,-1.61696 0.13709,-0.618 0.20219,-1.24649 0.22789,-1.87792 0.0199,-0.34828 0.009,-0.69868 0.007,-1.048 0.82593,0.41374 1.64057,0.84962 2.45153,1.29295 1.43398,0.65055 2.89421,1.24304 4.34754,1.84846 0.98914,0.39736 1.99483,0.77667 2.93832,1.27383 0.68192,0.29989 1.318,0.71287 1.99161,1.03301 0.86133,0.57834 1.67134,1.22745 2.55953,1.76268 0.73359,0.52955 1.41171,1.12904 2.17816,1.60972 0.59747,0.48596 1.22933,0.93452 1.71773,1.53841 0.69342,0.72007 1.50511,1.29889 2.24068,1.97404 0.93975,0.85159 1.89867,1.68051 2.83291,2.53731 0.8319,0.84419 1.65813,1.69362 2.46961,2.55747 0.44522,0.44878 0.93257,0.85204 1.26969,1.3994 0.30364,0.46084 0.60076,0.90196 1.03353,1.25677 0.43744,0.43364 0.87312,0.86936 1.29605,1.31723 0.4346,0.47346 0.85706,0.96087 1.1746,1.52342 0.27102,0.51199 0.55724,1.02149 0.98082,1.42627 0.55847,0.71772 1.2863,1.28625 1.89497,1.96061 z M 76.250476,91.44664 c -0.0731,-7e-5 -0.20632,-3.2e-4 -0.4439,-5.2e-4 l -0.003,5.2e-4 c 0.21731,4e-5 0.36611,0 0.44648,0 z m 10.13995,68.79735 c 0.0146,-0.002 0.0935,-0.004 0.2589,-0.006 -0.90185,-0.0309 -1.80018,-0.11663 -2.67581,-0.34778 -1.26637,-0.32457 -2.52595,-0.68333 -3.76256,-1.10691 -0.87489,-0.43803 -1.73259,-0.92384 -2.53266,-1.48725 -0.37211,-0.24866 -0.5618,-0.43955 -0.73794,-0.84646 -0.25466,-0.43845 -0.27895,-0.94653 -0.49868,-1.40405 -0.21703,-0.5575 -0.37493,-1.12774 -0.48472,-1.71721 0.002,-0.42512 -8.7e-4,-0.85027 0.004,-1.27537 0.007,-0.46372 0.029,-0.92729 0.11369,-1.38441 0.12729,-0.6613 0.37153,-1.30465 0.36587,-1.98593 0.056,-0.84997 0.14189,-1.70038 0.34055,-2.53059 0.0761,-0.45501 0.0486,-0.91037 0.0682,-1.37046 0.0316,-0.40179 0.0792,-0.80488 0.31368,-1.14618 0.31783,-0.52236 0.6612,-1.02853 0.99374,-1.54151 0.45054,-0.7039 0.98962,-1.34393 1.50016,-2.00453 0.57018,-0.67346 1.02643,-1.43407 1.64383,-2.06964 0.50274,-0.59737 1.03463,-1.18206 1.62367,-1.69499 0.57619,-0.42845 1.14771,-0.86165 1.726,-1.28726 1.06306,-0.76028 2.09708,-1.55724 3.06854,-2.43344 0.57515,-0.55484 1.14032,-1.09277 1.89704,-1.39165 0.65714,-0.30976 1.32312,-0.58957 2.02469,-0.78703 0.61164,-0.18805 1.17087,-0.51149 1.79472,-0.65371 0.55649,-0.072 1.11787,-0.16464 1.62522,-0.41754 0.36479,-0.0964 0.72459,-0.20585 1.08727,-0.30954 0.23981,-0.0475 0.39583,-0.0775 0.46923,-0.0956 1.74154,5.9e-4 3.482954,0.002 5.224484,0.004 0.3187,-3.1e-4 0.63784,-10e-4 0.95653,-0.002 l 0.0568,5.1e-4 c 0.59753,0.0109 1.19211,0.0248 1.77302,0.18604 0.85283,0.20002 1.66727,0.53549 2.53886,0.65939 0.71824,0.17132 1.46787,0.19367 2.17248,0.43356 0.58772,0.18166 1.22567,0.15198 1.77302,0.46923 0.6715,0.29919 1.45479,0.29235 2.10426,0.66714 0.5365,0.17522 1.02891,0.45043 1.55753,0.65009 0.76467,0.44732 1.56995,0.81484 2.32905,1.27279 0.69283,0.44282 1.42833,0.82433 2.02986,1.39371 0.57632,0.48111 1.1284,0.99939 1.77301,1.39371 0.63601,0.37202 1.20241,0.84502 1.84899,1.19941 0.19849,0.10022 0.39886,0.19669 0.60048,0.29043 -0.014,0.0731 -0.0282,0.14608 -0.0429,0.2191 -0.10004,0.69889 -0.029,1.40675 -0.0708,2.11099 -0.029,0.61076 -0.0835,1.2216 -0.22583,1.81797 -0.14152,0.54212 -0.28429,1.07214 -0.31988,1.63453 -0.12014,0.61355 -0.32561,1.20011 -0.47077,1.80661 -0.17994,0.53206 -0.48226,1.00667 -0.65164,1.54202 -0.19279,0.53436 -0.31612,1.09183 -0.59273,1.59319 -0.27709,0.62288 -0.49621,1.27237 -0.81338,1.87895 -0.17085,0.51163 -0.31563,1.02505 -0.6842,1.44022 -0.33917,0.45845 -0.68864,0.90923 -1.08882,1.31672 -0.5147,0.5649 -1.0104,1.14617 -1.50327,1.73013 -0.40749,0.39934 -0.85985,0.75698 -1.28054,1.14049 -0.45745,0.28725 -0.90616,0.59077 -1.3932,0.82734 -0.54858,0.25079 -1.1084,0.46729 -1.66191,0.70642 -0.6897,0.23591 -1.40078,0.37939 -2.11977,0.49351 -0.78202,0.17342 -1.54536,0.42068 -2.33629,0.55552 -0.60726,0.11923 -1.224,0.12586 -1.83245,0.23823 -0.86179,0.16125 -1.72415,0.34868 -2.60656,0.3328 -0.62443,0.0328 -1.24221,0.076 -1.82521,0.32297 -0.2086,0.0537 -0.41902,0.0742 -0.63045,0.0811 h -5.2e-4 c -0.29465,-2.3e-4 -0.58901,-5.1e-4 -0.88366,-0.001 -1.490834,-0.002 -2.981794,-0.0101 -4.472604,5.2e-4 -0.38693,0.007 -0.78055,0.008 -1.15497,0.11834 -0.37675,0.11502 -0.73647,0.30421 -1.13533,0.32298 -0.48528,0.009 -0.97191,0.0236 -1.45159,0.10438 -0.37157,0.0713 -0.85245,0.20857 -1.1777,0.33848 -0.41545,3e-5 -0.831,-3.6e-4 -1.24644,-0.002 -0.48229,5.2e-4 -0.96414,7.4e-4 -1.44642,0.002 -0.61501,5.2e-4 -1.23037,0.003 -1.84537,0.006 z m 15.656414,-0.88832 c -0.27416,1.3e-4 -0.54801,-3.1e-4 -0.82217,-5.1e-4 0.21599,-3e-5 0.46989,2e-5 0.74414,0 -0.001,3e-5 0.0219,4.6e-4 0.078,5.1e-4 z M 78.549566,91.90553 c -0.13452,-4e-5 -0.27384,5e-5 -0.41807,0 -0.0913,-5e-5 0.18258,-7.8e-4 0.27389,-5.2e-4 0.0481,8e-5 0.0961,3.2e-4 0.14418,5.2e-4 z" />
</svg>
