<?xml version="1.0" encoding="UTF-8" standalone="no"?>
<!-- Created with Inkscape (http://www.inkscape.org/) -->

<svg
   width="1000"
   height="1000"
   viewBox="60 0 164 264.58333"
   version="1.1"
   id="svg1"
   xmlns="http://www.w3.org/2000/svg"
   xmlns:svg="http://www.w3.org/2000/svg">
  <defs
     id="defs1" />
  <path
     style="fill:#000000;stroke-width:0.264583"
     id="path1"
     d="m 74.882385,112.30615 c 0.682974,-1.12734 1.459875,-2.18104 2.089483,-3.34302 0.590563,-1.07114 1.161656,-2.15259 1.735243,-3.23282 0.330081,-0.59583 0.809027,-1.05743 1.263163,-1.54819 0.08925,-0.10278 0.187328,-0.19852 0.267738,-0.30836 0.379439,-0.51829 0.703614,-1.07117 1.114001,-1.56925 0.326909,-0.39676 0.516163,-0.56276 0.88228,-0.92088 1.066705,-1.00104 1.933834,-2.18954 2.740263,-3.403401 1.253527,-2.09813 2.814439,-3.962953 4.441161,-5.776198 1.87234,-1.882111 3.833008,-3.685617 5.875435,-5.383033 2.57165,-2.151464 5.601558,-3.678631 8.649748,-5.034139 3.96712,-1.53325 8.01393,-2.84388 12.09238,-4.044715 5.22556,-1.481984 10.53971,-2.582839 15.91341,-3.35434 5.38831,-0.491535 10.79302,-0.776732 16.20368,-0.76673 0.77846,0.0071 1.5569,0.01505 2.33536,0.02133 1.59246,0.01283 3.73242,0.01119 5.31499,0.08065 2.7353,0.120065 5.46039,0.397491 8.18084,0.692716 3.39359,0.398603 6.80012,0.848945 10.1134,1.710187 1.78036,0.462783 2.8173,0.855433 4.54794,1.450028 1.69922,0.690407 2.36345,0.912662 3.9773,1.752248 0.58756,0.305676 2.30796,1.300732 1.72796,0.980922 -2.40527,-1.326266 -4.73817,-2.790164 -7.20389,-4.000344 -0.57957,-0.284454 1.02444,0.787069 1.51414,1.207802 0.49371,0.424185 0.95611,0.88352 1.43416,1.325279 3.03312,2.909369 5.52243,6.298139 7.61587,9.927971 1.93014,3.436763 2.79538,7.273192 3.50301,11.11015 0.45582,3.148397 0.78239,6.334197 0.82672,9.518297 0.0302,2.16839 -0.0427,2.96895 -0.14916,5.10781 -0.1672,4.60554 -0.76327,9.17869 -1.28616,13.75308 -0.29487,3.32603 -0.14833,2.03134 -0.58084,5.42162 -0.13145,1.03035 -0.24074,2.06395 -0.40198,3.09005 -0.50449,3.21058 -1.26187,6.37794 -1.99909,9.54037 -1.35037,5.19015 -2.78514,10.39802 -4.90508,15.337 -0.44885,1.04573 -0.94958,2.06842 -1.42436,3.10263 -2.08293,3.99197 -4.56136,7.86082 -7.79935,11.02843 -1.50306,1.4704 -3.18869,2.69121 -4.84946,3.96798 -4.2065,2.89805 -9.08248,4.49447 -14.05824,5.47068 -1.10693,0.21718 -2.22382,0.38009 -3.33573,0.57014 -6.18494,0.76219 -12.47768,0.86282 -18.66744,0.0682 -1.38327,-0.17757 -2.75383,-0.44307 -4.13075,-0.6646 -5.59784,-1.13112 -11.15698,-2.69346 -16.41113,-4.95919 -3.25622,-1.40417 -4.00017,-1.93596 -7.04554,-3.66818 2.02244,1.11181 3.94803,2.42167 6.06733,3.33544 1.03787,0.44749 -1.86974,-1.27061 -2.79239,-1.9234 -3.26112,-2.3073 -6.30829,-4.76832 -9.292354,-7.42042 -0.674195,-0.61795 -1.355415,-1.22833 -2.022586,-1.85387 -1.535806,-1.43995 -2.510253,-2.37581 -3.918156,-3.92458 -1.77219,-1.9495 -3.363468,-4.03738 -4.951976,-6.13553 -2.849349,-4.00675 -5.332011,-8.25849 -7.510582,-12.66219 -1.413391,-2.97237 -2.275652,-6.14612 -3.080726,-9.32305 -0.09325,-0.36918 -0.112027,-0.76569 -0.279741,-1.10754 -0.487617,-0.99389 -1.405007,-1.78181 -2.157209,-2.54515 0,0 -7.994153,-3.81319 -7.994153,-3.81319 v 0 c -0.284697,0.10118 -0.622062,0.11001 -0.854091,0.30354 -0.657915,0.54874 -0.14683,1.22306 0.04823,1.8188 1.021638,3.33059 2.071513,6.67033 3.607435,9.80714 0.329218,0.68738 0.635791,1.38607 0.987655,2.06214 1.97757,3.79965 4.420955,7.35019 6.75663,10.93106 0.518292,0.73123 1.018239,1.47582 1.554874,2.1937 2.741364,3.66725 5.95076,6.96432 9.373833,9.99544 1.308854,1.16493 3.123862,2.80999 4.487072,3.90223 0.801004,0.64179 1.631039,1.24664 2.456992,1.85598 5.639563,4.16056 11.450553,7.93192 17.739253,11.13772 2.87806,1.53702 3.90999,2.18117 6.9936,3.43149 5.20456,2.11033 10.71874,3.44015 16.20791,4.54709 1.41601,0.22382 2.82573,0.49192 4.24804,0.67146 6.33009,0.79904 12.73328,0.73665 19.05517,-0.0977 1.19457,-0.16342 2.39746,-0.27464 3.58372,-0.49027 3.95035,-0.71808 8.28204,-2.18473 11.76378,-4.20034 0.88204,-0.51063 1.69271,-1.13563 2.53906,-1.70345 0.75456,-0.67709 1.54164,-1.31961 2.26368,-2.03128 3.14142,-3.09625 5.9455,-6.91338 8.22905,-10.67797 0.60643,-0.99973 1.14055,-2.04158 1.71082,-3.06237 0.51835,-1.03504 1.07885,-2.05003 1.55506,-3.10513 2.2198,-4.9183 3.60357,-10.27689 4.94226,-15.4858 1.39203,-5.90576 2.73332,-11.82504 3.63646,-17.82931 0.60353,-4.62105 1.0715,-9.25719 1.15938,-13.9211 0.055,-2.62632 0.0443,-5.24817 0.0518,-7.87476 0.002,-0.83355 0.0504,-1.66743 0.0233,-2.50054 -0.0416,-1.27435 -0.28289,-3.06867 -0.43333,-4.3318 -0.15587,-0.97757 -0.47823,-3.09027 -0.69105,-4.06777 -0.55805,-2.563158 -1.50007,-5.037395 -2.65348,-7.387708 -0.33309,-0.564504 -0.6487,-1.1397 -0.99929,-1.693513 -1.94472,-3.072037 -4.26201,-5.892316 -6.69249,-8.587951 -0.58261,-0.57285 -2.23593,-2.259984 -2.93658,-2.702452 -5.27986,-3.334303 -10.19627,-6.669005 -16.04415,-8.655984 -0.71854,-0.21726 -1.43168,-0.453236 -2.15562,-0.651777 -4.01398,-1.100841 -8.15507,-1.689235 -12.29138,-2.081675 -5.30061,-0.463556 -10.62034,-0.837296 -15.94444,-0.736746 -5.19078,0.227552 -10.39075,0.635328 -15.53125,1.395426 -5.31906,0.872527 -10.59679,2.030089 -15.7547,3.605919 -1.82945,0.545105 -3.10658,0.934503 -4.93839,1.445839 -2.56543,0.716121 -5.15799,1.386821 -7.6139,2.436278 -3.126949,1.464538 -6.087682,3.226914 -8.988991,5.09687 -2.079805,1.702366 -4.006885,3.579392 -5.838997,5.54527 -0.777716,0.802565 -1.163524,1.167923 -1.865477,2.01391 -1.001453,1.206939 -1.907614,2.495859 -2.876457,3.72826 -0.84518,1.127897 -1.658874,2.275548 -2.530732,3.383301 -0.783619,0.922631 -1.492903,1.908286 -2.351458,2.763501 -0.495829,0.567174 -0.808442,1.230242 -1.16849,1.888602 -0.52152,1.10672 -1.004927,2.231 -1.537506,3.33268 -0.561817,1.14795 -1.140074,2.33001 -2.022859,3.26845 z" />
</svg>
