<?xml version="1.0" encoding="UTF-8" standalone="no"?>
<!-- Created with Inkscape (http://www.inkscape.org/) -->

<svg
   width="1000"
   height="1000"
   viewBox="0 0 264.58333 264.58333"
   version="1.1"
   id="svg1"
   xmlns="http://www.w3.org/2000/svg"
   xmlns:svg="http://www.w3.org/2000/svg">
  <defs
     id="defs1" />
  <path
     style="fill:#000000;stroke-width:26.4583"
     id="path4"
     d="m 161.90949,49.777919 c -1.76166,-0.245176 -3.53454,-0.410974 -5.30284,-0.607089 -2.29105,-0.225345 -4.58197,-0.452003 -6.87375,-0.669819 -0.80586,-0.161481 -1.66595,-0.01796 -2.45631,-0.241501 -1.1256,-0.516517 -2.43211,-0.384223 -3.64903,-0.430583 -2.26877,-0.162377 -4.54154,-0.266502 -6.80403,-0.504806 -4.55879,-0.681189 -8.89721,-0.362085 -13.62773,-0.348163 -1.41059,0.265554 -2.79183,0.677434 -4.19614,0.993484 -1.3612,0.220665 -2.70758,0.460335 -4.07943,0.604954 -1.1175,0.144621 -2.29414,0.08076 -3.39086,0.378772 -0.66263,0.180052 -1.29088,0.469233 -1.94302,0.684162 -1.8005,0.566333 -3.62087,1.06117 -5.42487,1.614586 -1.2744,0.269951 -2.54312,0.56539 -3.82857,0.782044 -0.927601,0.102177 -1.817749,0.465305 -2.58901,0.985751 -0.801449,0.382772 -1.673664,0.610565 -2.522082,0.879422 -0.580284,0.197998 -1.278938,0.423905 -1.759699,0.830387 -0.208425,0.331144 -0.558101,0.366813 -0.865378,0.53921 -0.320474,0.1798 -0.552926,0.430146 -0.891402,0.586176 -0.08345,0.03551 -0.177824,0.05209 -0.250362,0.106537 -0.08526,0.064 -0.131321,0.169622 -0.211373,0.240033 -0.37547,0.330253 -0.02588,-0.05492 -0.440627,0.185851 -0.174995,0.10159 -0.301191,0.270301 -0.452987,0.404098 -0.488376,0.439098 -0.763022,1.035495 -1.153195,1.557319 -0.539419,0.662829 -1.022879,1.333302 -1.409713,2.098099 -0.472392,0.47776 -0.663485,1.125717 -1.004745,1.680612 -0.390136,0.751723 -0.838049,1.465135 -1.187341,2.23856 -0.330621,0.698709 -0.514943,1.449639 -0.784424,2.170731 -0.33297,0.933977 -0.577122,1.901571 -0.649239,2.891108 -0.111141,1.189622 -0.265489,2.374085 -0.378831,3.563892 -0.135466,1.064453 0.02813,2.131515 0.210532,3.17967 0.0172,1.098119 0.215688,2.171205 0.380738,3.252319 0.225732,0.89942 0.603263,1.75817 1.028615,2.579156 0.376031,0.911164 0.84386,1.779513 1.256546,2.673014 0.296249,0.501764 0.598792,1.000757 0.902245,1.499931 0.409289,0.647951 0.997691,1.142981 1.512168,1.698847 0.428101,0.40092 0.847574,0.80599 1.301901,1.181719 0.749988,0.662191 1.569659,1.236419 2.356281,1.8538 0.68035,0.497097 1.38099,0.992103 2.150052,1.342179 1.004562,0.523481 2.069975,0.900509 3.131711,1.287388 0.803577,0.349626 1.6588,0.449898 2.509309,0.611669 1.4254,0.415388 2.87786,0.747697 4.2919,1.201156 0.83401,0.314089 1.68678,0.556003 2.55147,0.769083 0.84108,0.272441 1.67989,0.541699 2.54566,0.723897 1.19937,0.225401 2.35018,0.762817 3.51286,1.155785 1.08225,0.344077 2.10794,0.839972 3.19539,1.167466 1.68804,0.268943 3.30934,0.810998 4.98185,1.154905 1.39948,0.2735 2.79052,0.58643 4.1958,0.83023 0.83043,0.30918 1.69888,0.43354 2.56075,0.61579 1.26036,0.28431 2.51738,0.57511 3.79286,0.78383 1.73612,0.36354 3.45712,0.79947 5.17724,1.2322 0.99137,0.30671 1.98328,0.6172 3.01259,0.76645 0.9902,0.25511 1.90502,0.73664 2.85395,1.11974 1.73806,0.69126 3.47962,1.37389 5.16002,2.19781 0.93617,0.45453 1.86956,0.91425 2.79658,1.38661 0.60499,0.35776 1.16553,0.77538 1.67146,1.26246 0.69618,0.58699 1.31111,1.26046 1.95662,1.90063 0.53845,0.44955 1.00214,0.97921 1.49909,1.47288 0.75975,0.86355 1.60099,1.64928 2.40777,2.46748 0.64485,0.69281 1.24088,1.42857 1.87539,2.13263 0.98769,1.03027 1.7855,2.24381 2.51864,3.46533 1.07195,1.64906 2.07927,3.33997 2.90597,5.12725 0.48347,1.04865 0.98116,2.09827 1.21146,3.23554 0.33689,0.95187 0.59831,1.92423 0.80324,2.91298 0.40893,2.56123 0.50444,5.16437 0.64685,7.7516 0.0964,1.88458 0.034,3.76889 0.31927,5.63807 0.0223,0.67907 0.31764,1.27878 0.51747,1.91096 0.33594,1.08355 -0.0491,2.23125 -0.30891,3.29183 -0.40244,1.78967 -0.86653,3.56263 -1.44668,5.30304 -0.29552,1.2697 -0.67252,2.50695 -1.07346,3.74451 -0.32024,0.80918 -0.8822,1.46925 -1.29576,2.22712 -0.52721,0.85117 -1.1991,1.53251 -1.92565,2.21109 -0.89071,0.69316 -1.97747,1.03226 -3.03964,1.36903 -3.03221,0.86438 -6.13885,1.26738 -9.27037,1.5529 -4.23822,0.39977 -8.50268,0.21423 -12.74634,0.4488 -0.38051,0.0303 -0.76103,0.0606 -1.14155,0.0909 -0.29702,0.0283 -0.59375,0.0598 -0.89106,0.0848 -0.29411,0.0247 -1.17824,0.0629 -0.8831,0.0641 15.94449,0.0613 8.99782,0.11523 5.46549,-0.24129 -3.80956,-0.47737 -7.61799,-0.97911 -11.44943,-1.23928 -3.36499,-0.22293 -6.7398,-0.17182 -10.10353,-0.40368 -1.40763,-0.11228 -2.80977,-0.22254 -4.19614,-0.49397 -2.4935,-0.42327 -5.01048,-0.69424 -7.52377,-0.96926 -3.589,-0.326 -7.16227,-0.77321 -10.730512,-1.27196 -1.441609,-0.18605 -2.834241,-0.61559 -4.261387,-0.87181 -1.712254,-0.15248 -3.435652,-0.13915 -5.153631,-0.15439 -24.411281,-0.0116 -3.678645,0.005 -1.195697,-0.0173 0.208925,-0.002 -0.416174,-0.038 -0.62379,-0.0614 -0.505201,-0.057 -1.008332,-0.13319 -1.511043,-0.20853 -0.358344,-0.0255 -0.192313,-0.021 -0.497893,-0.0195 0,0 -9.819481,0.66895 -9.819481,0.66895 v 0 c 0.304644,0.69092 0.06742,0.47381 0.601972,0.75387 0.725792,0.0913 1.501407,0.28929 2.229249,0.30232 7.015361,0.12564 19.136424,0.10578 1.254125,0.0946 1.686857,-0.009 3.374303,-0.012 5.060225,0.0541 1.570959,0.0809 3.08364,0.62676 4.644313,0.80544 3.619895,0.43562 7.233844,0.91825 10.864033,1.26493 2.338467,0.28901 4.682867,0.5359 6.996977,0.97816 0.58933,0.10536 1.18363,0.28089 1.77534,0.36018 0.9083,0.12174 1.84122,0.072 2.74952,0.20012 3.4643,0.22931 6.93413,0.18483 10.40137,0.36039 3.76831,0.23754 7.52172,0.6347 11.25341,1.2158 5.2954,0.76636 10.68497,0.62234 16.00059,0.0762 4.1247,-0.23015 8.26364,-0.18927 12.3829,-0.54013 3.35309,-0.3303 6.70256,-0.75738 9.95158,-1.68622 1.14441,-0.43008 2.28075,-0.86846 3.14238,-1.77624 0.76289,-0.73876 1.40376,-1.56596 1.96189,-2.47083 0.51937,-0.78025 1.04649,-1.5727 1.33258,-2.47392 0.3352,-1.23716 0.52224,-2.5022 0.87654,-3.73419 0.52985,-1.77289 1.04114,-3.55057 1.43933,-5.35881 0.32979,-1.25846 0.8584,-2.52397 0.57887,-3.84034 -0.20245,-0.60945 -0.4825,-1.16702 -0.61767,-1.79593 -0.45806,-1.80522 -0.66618,-3.63917 -0.77402,-5.5001 -0.17684,-2.62198 -0.10491,-5.24746 -0.27226,-7.86738 -0.15474,-1.00081 -0.29372,-2.04275 -0.6479,-2.99186 -0.37444,-1.19327 -0.87578,-2.31942 -1.49262,-3.40953 -0.47307,-0.96635 -1.0159,-1.87389 -1.52775,-2.81745 -0.33241,-0.61276 -0.56677,-1.27575 -0.90396,-1.88589 -0.10066,-0.18215 -0.23924,-0.3406 -0.35886,-0.5109 -0.72595,-1.27345 -1.6043,-2.44568 -2.42551,-3.65845 -0.6336,-0.74026 -1.33638,-1.40741 -1.90061,-2.2088 -0.82111,-0.76426 -1.63221,-1.54203 -2.40209,-2.35798 -0.41404,-0.61958 -0.93658,-1.14581 -1.46749,-1.66795 -0.74164,-0.48359 -1.28978,-1.21711 -1.91126,-1.83938 -0.56473,-0.51592 -1.09044,-1.0768 -1.75889,-1.46377 -0.90453,-0.6254 -1.95688,-1.00485 -2.95174,-1.46395 -1.70512,-0.78991 -3.42689,-1.53634 -5.16613,-2.24599 -0.55737,-0.23933 -1.11946,-0.47827 -1.66678,-0.74018 -0.3278,-0.15686 -0.34451,-0.18886 -0.6529,-0.40561 -0.11565,-0.0579 -0.24656,-0.0782 -0.36984,-0.11729 -1.01371,-0.40255 -2.19197,-0.27152 -3.19967,-0.74847 -1.70907,-0.4865 -3.46837,-0.79085 -5.16949,-1.31307 -1.22535,-0.24831 -2.46485,-0.4207 -3.67117,-0.75673 -0.33519,-0.0825 -0.66373,-0.19422 -1.00318,-0.25691 -0.52253,-0.0965 -1.06164,-0.0525 -1.54269,-0.335912 -1.41803,-0.469069 -2.98354,-0.407967 -4.41416,-0.86569 -1.61812,-0.268132 -3.15746,-0.749898 -4.73604,-1.165802 -1.18125,-0.141542 -2.27231,-0.630428 -3.38013,-1.039855 -1.13759,-0.350745 -2.27698,-0.710073 -3.29391,-1.341578 -0.89917,-0.09372 -1.78359,-0.246112 -2.6341,-0.566785 -0.84582,-0.315804 -1.70681,-0.464558 -2.56364,-0.759021 -1.42786,-0.453167 -2.8941,-0.744545 -4.30681,-1.250254 -0.81923,-0.279828 -1.6375,-0.347675 -2.47341,-0.561491 -1.04432,-0.29532 -2.09315,-0.655883 -3.05684,-1.153551 -0.73468,-0.389419 -1.50599,-0.6906 -2.19787,-1.165879 -0.78929,-0.534458 -1.51348,-1.18151 -2.25459,-1.773957 -0.426702,-0.399738 -0.886767,-0.757348 -1.288598,-1.163666 -0.541274,-0.405347 -1.016021,-0.973495 -1.514618,-1.433145 -0.305384,-0.466939 -0.445058,-1.037312 -0.88552,-1.404099 -0.466442,-0.874726 -1.03123,-1.687676 -1.363234,-2.631016 -0.303186,-0.790065 -0.676556,-1.548948 -0.94818,-2.35044 -0.238635,-1.040812 -0.472106,-2.079908 -0.459136,-3.154899 -0.01619,-1.009941 -0.357077,-1.988254 -0.234874,-3.004074 0.102368,-1.19334 0.32466,-2.366902 0.45883,-3.553553 0.1187,-0.899395 0.271886,-1.794586 0.645806,-2.629738 0.27341,-0.694315 0.510699,-1.398831 0.796538,-2.086928 0.384022,-0.733203 0.792658,-1.452681 1.198653,-2.173846 0.31347,-0.590142 0.708374,-1.130686 1.020559,-1.721606 0.372165,-0.710944 0.927216,-1.303563 1.407199,-1.94246 0.343215,-0.476522 0.654701,-0.968822 1.172515,-1.277885 0.43511,-0.283699 0.87362,-0.550013 1.31594,-0.819472 0.56958,-0.4132 1.19682,-0.740201 1.78419,-1.124202 0.56209,-0.192188 1.07797,-0.503359 1.66512,-0.628594 0.86761,-0.306755 1.75991,-0.551482 2.54128,-1.056857 0.80499,-0.343599 1.63767,-0.56061 2.50479,-0.68516 1.26083,-0.273473 2.53164,-0.520919 3.76417,-0.905026 1.74637,-0.569094 3.51263,-1.076933 5.26383,-1.631055 1.76432,-0.518451 3.5542,-0.752412 5.38775,-0.874022 1.39811,-0.171887 2.79875,-0.366514 4.16653,-0.710631 1.39844,-0.355481 2.8078,-0.739947 4.25539,-0.814348 -17.16668,-0.06993 -9.35127,-0.258151 -5.47546,0.271722 2.27808,0.257535 4.56099,0.371118 6.84738,0.541192 0.82519,0.07719 1.62588,0.111728 2.45283,0.123602 0.1999,0.0029 0.39952,-0.06589 0.5982,-0.04352 0.0663,0.0075 0.11659,0.06495 0.17489,0.09743 0.2592,0.130403 0.58427,0.342239 0.86665,0.399791 0.62232,0.126836 1.30872,-0.04974 1.9312,0.09129 2.31604,0.157308 4.62329,0.390874 6.93068,0.636678 1.65497,0.16901 3.29783,0.418735 4.95478,0.567399 z" />
</svg>
