<?xml version="1.0" encoding="UTF-8" standalone="no"?>
<!-- Created with Inkscape (http://www.inkscape.org/) -->

<svg
   width="1000"
   height="1000"
   viewBox="0 0 264.58333 264.58333"
   version="1.1"
   id="svg1"
   xmlns="http://www.w3.org/2000/svg"
   xmlns:svg="http://www.w3.org/2000/svg">
  <defs
     id="defs1" />
  <path
     style="fill:#000000;stroke-width:0.237543"
     id="path4"
     d="m 101.32237,66.682291 c -0.44251,1.799109 -0.55801,3.663908 -0.84242,5.490798 -0.24411,1.568038 -0.671991,3.576419 -0.984698,5.115839 -1.167151,5.271406 -2.5931,10.483482 -3.683779,15.772783 -0.253041,1.227131 -0.471479,2.461435 -0.707218,3.692148 -0.55937,3.931371 -1.290849,7.839911 -1.773254,11.782971 -0.453811,3.70933 -0.732819,7.44837 -1.046192,11.17212 -0.197404,3.39412 -0.01309,6.79967 0.407518,10.16938 0.138805,1.11208 0.264978,2.22943 0.504157,3.32357 0.518737,2.37301 1.506096,5.12281 2.270945,7.41388 0.830312,2.25258 1.55044,4.44219 2.666726,6.57106 1.316311,2.51034 3.392605,5.3924 5.451245,7.33866 0.68952,0.65188 1.46676,1.19979 2.20014,1.79967 4.73743,2.94854 6.32021,4.00206 13.06057,7.26409 1.09813,0.53144 5.2939,1.44666 6.4741,1.60823 2.86469,0.39219 4.08128,0.23212 6.96808,0.14252 1.24141,-0.20261 2.51459,-0.25812 3.72421,-0.6078 1.50898,-0.43622 2.94083,-1.11643 4.38662,-1.73691 5.14104,-2.20639 10.19279,-4.8269 14.73508,-8.15565 1.65584,-1.21346 3.18504,-2.59767 4.77757,-3.89651 4.54964,-4.32946 4.77956,-4.28852 8.83171,-9.20861 1.34436,-1.6323 2.65997,-3.29334 3.8764,-5.0271 1.89509,-2.70105 4.51033,-7.14904 6.05973,-10.13403 0.76357,-1.47106 1.42449,-2.99531 2.13673,-4.49296 1.99308,-4.94477 3.31016,-10.17614 3.37465,-15.54396 0.0331,-2.76025 -0.15369,-3.55289 -0.48595,-6.23563 -0.49388,-2.597154 -1.11924,-5.189146 -2.11539,-7.639682 -0.46063,-1.133139 -1.51965,-3.276113 -2.13383,-4.357301 -0.38494,-0.677635 -0.81745,-1.325905 -1.22618,-1.98886 -0.45664,-0.627539 -0.87886,-1.282766 -1.36988,-1.882615 -1.41894,-1.733408 -3.29828,-3.564423 -5.20239,-4.731842 -11.04089,-6.76919 -7.87348,-5.292235 -14.00653,-7.938489 -3.86279,-1.263578 -7.91417,-1.970346 -11.97879,-1.882004 -0.77833,0.01692 -1.55417,0.09619 -2.33125,0.144285 -3.34151,0.369566 -6.6693,1.145788 -9.82164,2.35024 -1.74448,0.66654 -3.39921,1.516227 -5.07829,2.331618 -4.61115,2.494494 -9.13656,5.149823 -13.77731,7.586657 -2.99345,1.69435 -6.11241,3.205951 -8.90302,5.249967 -0.56285,0.41226 -1.08916,0.874172 -1.63373,1.311257 -0.29444,0.595 -0.58887,1.190001 -0.88331,1.784999 0,0 8.29943,5.31572 8.29943,5.31572 v 0 c 0.75207,-0.270595 1.50414,-0.541191 2.25622,-0.811786 1.16687,-0.747478 2.38546,-1.543979 3.57996,-2.245624 0.59898,-0.351839 1.21456,-0.67346 1.81693,-1.019211 1.75249,-1.005908 3.46553,-2.08132 5.21594,-3.090928 2.05009,-1.226811 4.11523,-2.429581 6.15757,-3.669679 2.36196,-1.434186 4.68189,-2.953195 7.1998,-4.099169 0.85307,-0.386208 1.69468,-0.799988 2.55922,-1.158623 3.93887,-1.633934 8.09071,-2.714999 12.34241,-2.972835 1.83993,-0.03896 2.72094,-0.09833 4.54351,0.01969 3.22186,0.208621 6.40065,0.868159 9.39827,2.109585 4.16008,2.001709 5.10033,2.532295 -5.56863,-3.579776 -0.67165,-0.384774 1.30657,0.835608 1.92692,1.3016 1.02838,0.772491 2.58767,2.162985 3.44945,3.120319 0.51304,0.56994 0.95218,1.204881 1.42828,1.807324 1.1263,1.696223 1.51342,2.201071 2.49973,4.007057 1.68097,3.077933 2.92555,6.378622 3.71756,9.809168 0.47963,2.51477 0.77574,3.646685 0.93251,6.246898 0.32313,5.35968 -0.61087,10.65915 -2.21119,15.75066 -1.49544,4.16529 -1.89395,5.72112 -4.03466,9.733 -3.95209,7.40658 -9.42311,13.81846 -15.57041,19.40373 -1.60924,1.25592 -3.16475,2.58706 -4.82771,3.76775 -4.59451,3.26205 -9.70011,5.97135 -15.05593,7.66964 -3.6183,1.14734 -5.05625,1.22296 -8.5628,1.71401 -1.13285,0.0244 -2.26638,0.11999 -3.39855,0.0732 -2.15339,-0.0891 -4.45161,-0.47123 -6.53966,-1.01901 -1.03354,-0.27113 -3.73847,-1.80245 -3.05961,-0.96178 1.25417,1.55312 3.37735,2.09093 4.9508,3.30376 0.76545,0.59002 -1.67686,-0.95096 -2.5153,-1.42644 -0.77942,-0.57337 -1.5984,-1.09446 -2.33824,-1.7201 -2.41032,-2.03831 -4.51929,-4.61033 -6.1427,-7.33495 -1.3669,-2.2941 -2.14438,-4.27654 -3.22252,-6.72879 -0.45864,-1.23879 -0.97208,-2.45786 -1.3759,-3.71639 -1.758436,-5.48018 -2.257324,-11.29134 -2.167656,-17.02759 0.05567,-2.79538 0.04953,-4.51125 0.277683,-7.33121 0.106946,-1.32207 0.270043,-2.63886 0.421314,-3.95642 0.450379,-3.92267 0.966399,-7.84435 1.809419,-11.70257 0.77279,-3.455852 1.56515,-6.900737 2.50933,-10.31306 0.39186,-1.41623 1.34889,-4.597359 1.7573,-6.056081 0.25455,-0.909147 0.49007,-1.823738 0.73511,-2.735608 0.12844,-0.473908 1.17035,-4.339013 1.34933,-4.921971 0.19959,-0.650129 0.44236,-1.285614 0.6609,-1.929358 0.263,-0.774744 0.48458,-1.537664 0.82422,-2.280134 0.0816,-0.178334 0.19222,-0.341237 0.28833,-0.511854 z" />
</svg>
