<?xml version="1.0" encoding="UTF-8" standalone="no"?>
<!-- Created with Inkscape (http://www.inkscape.org/) -->

<svg
   width="1000"
   height="1000"
   viewBox="60 0 164 264.58333"
   version="1.1"
   id="svg1"
   xmlns="http://www.w3.org/2000/svg"
   xmlns:svg="http://www.w3.org/2000/svg">
  <defs
     id="defs1" />
  <path
     style="fill:#000000;stroke-width:0.264583"
     id="path1"
     d="m 105.05153,74.724772 c 1.27354,-0.619021 2.63319,-1.046623 3.97209,-1.504706 1.77667,-0.667102 3.59738,-1.151308 5.47875,-1.39191 2.00036,-0.234106 4.00079,0.136068 5.9766,0.416203 2.60101,0.31941 5.22501,0.404969 7.84081,0.533419 2.85371,0.13599 5.70844,0.250341 8.5633,0.360669 2.76799,0.175265 5.52212,0.50568 8.28205,0.772607 2.79053,0.235337 5.5188,0.846191 8.18058,1.696694 0.48586,0.170376 0.97195,0.340114 1.45758,0.511127 1.14951,0.404791 1.82104,0.62279 2.93912,1.106935 1.3421,0.581152 2.64828,1.249614 3.98542,1.843701 0.47904,0.215643 0.96079,0.42535 1.43711,0.64693 0.48693,0.226518 0.97511,0.451133 1.45243,0.697262 0.477,0.245962 1.87594,1.043612 1.40937,0.778409 -14.94908,-8.497056 -10.14672,-6.187477 -7.14063,-3.795082 0.46229,0.367916 0.89716,0.769032 1.34574,1.153549 2.30062,2.182243 4.50373,4.466579 6.64495,6.804868 2.31967,2.738181 4.14438,5.843654 5.95762,8.927357 1.78474,2.978139 3.16715,6.145196 4.20155,9.452536 0.87733,3.13442 1.47785,6.28708 1.75545,9.52929 0.27657,3.53464 0.15257,7.07043 -0.27747,10.58468 -0.37115,3.32825 -0.83693,6.64287 -1.47791,9.9298 -0.86874,3.61171 -2.43974,6.9792 -3.95612,10.35054 -1.02511,2.39444 -2.24917,4.7038 -3.69243,6.87351 -0.51836,0.77928 -1.77869,2.4845 -2.32808,3.23556 -2.36339,3.28523 -5.11871,6.22907 -8.09137,8.96268 -2.45283,2.19104 -5.07488,4.12208 -7.92543,5.75741 -2.63355,1.54582 -5.5091,2.58684 -8.37042,3.61845 -3.07798,1.07595 -6.29423,1.63164 -9.50523,2.13062 -3.56542,0.44938 -7.12577,0.94203 -10.6826,1.45626 -4.10918,0.62055 -8.25836,0.92135 -12.41166,0.96069 -3.13193,0.0392 -6.25772,-0.3511 -9.27399,-1.20368 -1.665961,-0.4709 -2.359186,-0.80391 -3.939634,-1.44929 -6.576978,-3.69618 5.525654,3.25518 8.367944,4.73654 0.57462,0.29948 -1.03958,-0.77886 -1.50861,-1.22595 -1.09283,-1.04171 -1.85306,-2.09179 -2.58238,-3.42158 -0.37215,-0.67855 -0.65056,-1.40446 -0.97585,-2.1067 -1.397406,-3.61274 -1.924713,-7.50226 -1.768736,-11.36504 0.03197,-0.79187 0.122235,-1.58032 0.183351,-2.37048 0.518298,-4.99322 2.833985,-9.44388 5.331845,-13.70472 2.08853,-3.5331 4.64354,-6.70314 7.85015,-9.28526 0.58162,-0.46835 1.20143,-0.88718 1.80215,-1.33077 3.32417,-2.17717 7.00819,-3.2823 10.87042,-4.02746 1.95336,-0.34365 3.92939,-0.48599 5.90023,-0.67523 0.75936,-0.0729 1.5148,-0.18651 2.27541,-0.24505 1.79321,-0.13803 3.24679,-0.1313 5.04945,-0.15865 3.37032,-0.0126 6.75231,0.0884 10.05242,0.83333 2.063,0.46566 2.35231,0.63691 4.32558,1.3449 0.68182,0.30944 1.37256,0.59993 2.04546,0.92832 0.70037,0.34179 3.4662,1.8245 4.15315,2.18801 1.9703,1.04261 3.95141,2.06187 5.94011,3.06882 0.60868,0.28785 1.21644,0.57763 1.82602,0.86354 1.46094,0.68524 2.94369,1.34082 4.37653,2.08454 0.41443,0.21511 0.81772,0.45103 1.22658,0.67655 -3.59812,-2.06841 -7.19624,-4.13681 -10.79435,-6.20522 2.82911,1.65594 5.47315,3.59794 8.13936,5.49822 2.08554,1.55189 4.24746,3.00357 6.20914,4.71212 1.71533,1.61614 3.12765,3.50205 4.42012,5.46246 1.14212,1.89837 2.52013,3.61316 3.99355,5.2596 1.23294,1.45357 2.46115,2.91143 3.84143,4.22852 0.83794,0.70282 1.6014,1.48332 2.37285,2.25596 0.64012,0.59386 1.17714,1.26889 1.65614,1.99535 0.40404,0.60176 0.79444,1.21227 1.22233,1.80041 0.91866,0.91358 1.58403,1.99111 2.23851,3.09601 0.53405,0.95158 1.30403,1.74341 2.09357,2.48598 0.65789,0.75979 1.35711,1.48239 2.0374,2.22212 0,0 11.80801,5.256 11.80801,5.256 v 0 c -0.0353,-0.60611 -0.0439,-1.17605 -0.40198,-1.69925 -0.0714,-0.15561 -0.1236,-0.32153 -0.21411,-0.46685 -0.0789,-0.1267 -0.19304,-0.22772 -0.28945,-0.34167 -0.42734,-0.50503 -0.8559,-0.99651 -1.34409,-1.44485 -0.24389,-0.34535 -0.50371,-0.69658 -0.71294,-1.06465 -0.40646,-0.71501 -0.70494,-1.47775 -1.26526,-2.09573 -0.48636,-0.53084 -0.9256,-1.10772 -1.29874,-1.71612 -0.53879,-0.72241 -0.94105,-1.54187 -1.56948,-2.19677 -0.12558,-0.14018 -0.51207,-0.57682 -0.63719,-0.69338 -0.13366,-0.12452 -0.28927,-0.224 -0.42297,-0.34849 -0.50863,-0.47358 -0.93471,-1.03762 -1.50872,-1.44177 -1.51887,-1.24852 -2.94299,-2.59409 -4.16007,-4.14718 -1.37899,-1.65109 -2.96838,-3.13553 -4.00612,-5.05062 -1.34588,-2.08048 -2.82286,-4.06905 -4.54427,-5.85888 -0.30449,-0.33656 -0.59064,-0.69067 -0.91347,-1.00969 -0.75297,-0.74408 -1.07443,-0.90677 -1.9366,-1.51489 -1.13442,-0.80014 -2.26436,-1.60713 -3.37376,-2.44177 -2.72034,-1.89995 -5.40051,-3.85962 -8.19732,-5.64761 -4.53624,-2.61979 -9.05985,-5.26157 -13.60871,-7.85938 -1.69914,-0.97036 -3.57388,-1.65642 -5.34532,-2.47912 -0.57393,-0.26655 -1.14243,-0.54462 -1.71365,-0.81693 -1.94117,-0.97692 -3.86647,-1.98243 -5.79692,-2.98027 -1.12192,-0.5799 -3.11305,-1.62195 -4.25109,-2.12606 -0.70258,-0.31122 -1.42758,-0.56913 -2.14137,-0.85369 -1.94622,-0.57707 -2.34306,-0.75824 -4.35929,-1.0985 -3.31512,-0.55945 -6.68318,-0.54736 -10.03349,-0.53569 -4.61732,0.0298 -9.24628,0.18692 -13.80276,1.00021 -1.46599,0.33648 -2.32186,0.49909 -3.75843,0.96604 -2.59218,0.84257 -5.03006,2.13726 -7.23322,3.73459 -0.59409,0.4908 -1.20879,0.95767 -1.78227,1.47239 -1.904194,1.7091 -3.63082,3.65193 -5.275832,5.60661 -0.567076,0.67383 -1.154504,1.33382 -1.664634,2.05173 -0.441545,0.62138 -0.789112,1.30446 -1.183669,1.9567 -2.454365,4.48712 -4.678013,9.14916 -5.574218,14.22825 -0.08786,0.81646 -0.209087,1.63001 -0.263591,2.44937 -0.267719,4.02449 0.245306,8.04205 1.505839,11.87304 0.475469,1.19906 1.198245,3.16064 1.860113,4.28921 0.484741,0.82655 1.850808,2.59555 2.693726,3.12245 10.742726,6.71521 9.257626,5.94883 15.454486,8.843 0.62648,0.21343 1.24513,0.45143 1.87946,0.64029 3.70868,1.10414 7.60807,1.47119 11.46325,1.46166 1.36962,-0.0378 3.16146,-0.074 4.52798,-0.16514 2.66496,-0.17773 5.31085,-0.57872 7.95654,-0.92767 3.58406,-0.41127 7.1444,-0.97813 10.71459,-1.49328 3.20643,-0.56566 6.37204,-1.30418 9.40005,-2.53005 2.82702,-1.14118 5.5839,-2.45229 8.19618,-4.0309 0.43122,-0.2869 0.87494,-0.55583 1.29365,-0.86071 2.23318,-1.62607 4.19921,-3.5889 6.19474,-5.48675 1.02122,-1.0269 1.78961,-1.76986 2.7506,-2.85538 1.8264,-2.0631 3.50543,-4.2641 5.10645,-6.50383 2.31024,-3.26993 4.53934,-6.62884 6.15517,-10.30543 1.54856,-3.43915 2.90349,-6.95356 3.98008,-10.57134 0.18651,-0.59279 0.411,-1.17495 0.55955,-1.77838 0.20178,-0.81963 0.35886,-2.3389 0.45268,-3.17245 0.52699,-4.6819 -0.1832,1.44107 0.38736,-3.37386 0.068,-0.57359 0.13316,-1.14751 0.19974,-1.72127 0.38508,-3.59235 0.61578,-7.19667 0.32753,-10.80828 -0.0374,-0.59663 -0.17644,-2.95596 -0.25007,-3.56188 -0.25213,-2.07465 -0.77577,-4.11565 -1.25563,-6.1449 -0.37948,-1.23095 -0.54421,-1.85386 -1.02618,-3.0562 -0.94031,-2.34576 -2.20139,-4.54229 -3.36998,-6.776902 -1.76319,-3.068675 -3.45087,-6.209388 -5.60054,-9.029123 -2.1331,-2.465552 -4.50909,-4.705895 -6.80663,-7.01592 -0.52376,-0.489503 -2.05325,-1.969264 -2.67676,-2.352235 -5.18362,-3.18384 -10.18484,-6.37562 -15.73065,-8.763477 -2.69262,-1.2223 -5.42586,-2.331854 -8.26235,-3.183419 -1.04453,-0.303887 -1.83594,-0.555299 -2.89902,-0.781592 -1.78329,-0.379598 -3.61218,-0.515911 -5.41783,-0.740013 -2.74903,-0.292373 -5.49838,-0.590754 -8.26405,-0.675389 -2.80163,-0.125539 -5.60136,-0.232058 -8.40608,-0.255431 -2.6594,-0.129985 -5.30366,-0.386937 -7.94428,-0.72762 -2.05661,-0.259014 -4.14119,-0.48755 -6.20537,-0.163301 -1.86119,0.383688 -3.62756,1.058122 -5.441334,1.615877 -1.480542,0.443523 -2.977121,0.825918 -4.442275,1.319051 z" />
</svg>
