<?xml version="1.0" encoding="UTF-8" standalone="no"?>
<!-- Created with Inkscape (http://www.inkscape.org/) -->

<svg
   width="1000"
   height="1000"
   viewBox="0 0 264.58333 264.58333"
   version="1.1"
   id="svg1"
   xmlns="http://www.w3.org/2000/svg"
   xmlns:svg="http://www.w3.org/2000/svg">
  <defs
     id="defs1" />
  <path
     style="fill:#000000;stroke-width:26.4583"
     id="path3"
     d="m 159.82568,39.790732 c -4.27974,1.342313 -8.65902,2.356501 -13.037,3.321685 -2.95361,0.760119 -6.05379,1.083098 -8.86372,2.321303 -0.16641,0.108678 -0.34605,0.199382 -0.49923,0.326036 -1.36609,1.129593 0.5155,-0.193733 -1.13505,1.037502 -1.16162,0.866516 -2.43677,1.599626 -3.67025,2.355099 -2.47786,1.556149 -5.22174,2.667561 -7.65668,4.285959 -1.12589,0.704366 -2.08346,1.525638 -2.75053,2.676977 -1.02125,1.803749 -2.29002,3.454789 -3.51728,5.121466 -1.07225,1.487908 -2.04471,3.035167 -2.82374,4.69596 -0.58142,1.428453 -1.13523,2.855245 -1.87547,4.210264 -0.78402,1.521365 -1.56828,3.032202 -2.52609,4.452151 -1.46987,2.080147 -2.80238,4.252079 -4.27228,6.331691 -0.98532,1.607034 -1.94266,3.235362 -2.7975,4.915612 -1.22847,2.161807 -2.10726,4.481301 -3.10408,6.750291 -0.84167,1.723823 -1.360135,3.574309 -1.985128,5.380108 -0.504844,1.74597 -0.82691,3.537454 -1.227267,5.308734 -0.4719,1.92948 -1.001202,3.84253 -1.500992,5.76458 -0.34975,1.06695 -0.75661,2.10038 -0.834353,3.2267 -0.16302,1.18412 -0.473848,2.31005 -0.908664,3.41901 -0.367985,0.60497 -0.466352,1.30599 -0.698484,1.9563 -0.235606,0.50217 -0.328364,1.05008 -0.43339,1.59012 0.01826,0.52654 -0.09459,1.00131 -0.247512,1.50017 -0.07902,0.60358 -0.285076,1.16022 -0.457386,1.738 -0.194884,0.72629 -0.472995,1.40585 -0.59958,2.15316 -0.08017,0.69423 -0.346332,1.35087 -0.519007,2.02808 -0.115443,0.62473 -0.108243,1.26034 -0.129106,1.8924 -0.165168,0.79858 -0.277026,1.61235 -0.367855,2.42325 -0.07131,0.73409 -0.101269,1.47077 -0.107974,2.20805 0.0043,0.71884 0.007,1.43854 0.0136,2.15797 0.02987,0.99786 0.03456,1.99589 0.03237,2.99421 0.01349,0.86064 -0.03228,1.72038 -0.04155,2.58063 0.07398,0.87025 0.436404,1.67011 0.660239,2.50384 0.118525,0.89321 0.391745,1.74999 0.583356,2.62729 0.122854,0.53712 0.177974,1.08849 0.192484,1.6385 -0.02204,0.63432 0.214601,1.23041 0.343252,1.84165 0.07126,0.58789 0.363805,1.08686 0.643602,1.59467 0.288271,0.61224 0.623006,1.20868 0.811725,1.8618 0.04523,0.44385 0.199068,0.82489 0.399368,1.21322 0.310896,0.47373 0.517879,0.99714 0.741862,1.5155 0.199549,0.41185 0.335291,0.84749 0.526608,1.26231 0.217848,0.41107 0.385916,0.83886 0.635564,1.23432 0.369716,0.55546 0.670168,1.1471 1.024051,1.71432 0.472514,0.58286 0.7726,1.2507 1.069142,1.92988 0.216757,0.55701 0.618974,1.00034 0.985885,1.46215 0.39673,0.52746 0.80531,1.03302 1.25122,1.52468 0.69493,0.62262 1.12882,1.44106 1.61151,2.2227 0.2493,0.57666 0.54053,1.11669 0.86753,1.65138 0.6764,0.67529 1.24877,1.44337 1.84158,2.19046 0.41965,0.54484 0.86595,1.06576 1.30397,1.5937 0.36995,0.36246 0.65989,0.77628 0.97661,1.18801 0.35076,0.40634 0.77625,0.73782 1.10273,1.16331 0.45676,0.44899 0.84435,0.95676 1.22345,1.47345 0.37108,0.54924 0.86828,0.96293 1.35092,1.40445 0.52914,0.40492 1.01574,0.86323 1.46173,1.35852 0.52724,0.58648 1.178,1.05385 1.77919,1.564 0.52317,0.53233 1.09909,1.00458 1.65394,1.50086 1.12494,0.79891 2.30544,1.51028 3.51687,2.16864 1.5587,0.74771 3.0989,1.5375 4.67334,2.25186 1.31108,0.64092 2.74975,0.88864 4.16257,1.1974 2.95419,0.49938 5.92753,0.88723 8.90444,1.22548 1.70418,0.21161 3.41842,0.31715 5.1348,0.33275 4.64396,-0.0217 9.28788,-0.0162 13.93193,-0.0192 1.84268,-10e-4 3.64498,-0.0111 5.48336,-0.15222 3.57743,-0.41786 7.18241,-0.48605 10.76716,-0.79587 1.64843,-0.13315 3.3344,-0.30282 4.82167,-1.06166 2.04469,-1.14518 4.04706,-2.36847 6.00773,-3.65297 1.89203,-1.09646 3.44066,-2.62801 4.96906,-4.16727 1.00765,-0.77533 1.71226,-1.78553 2.42199,-2.814 0.67731,-1.07408 1.44878,-2.09448 2.13877,-3.16566 0.65877,-1.04142 1.27827,-2.11235 1.80877,-3.22566 0.62246,-1.16494 0.91268,-2.39338 1.17062,-3.6762 0.37569,-1.71254 1.03431,-3.34941 1.35535,-5.07284 0.302,-2.2045 0.67368,-4.39969 0.90485,-6.61351 0.12612,-2.03583 0.0797,-4.06772 0.31176,-6.0959 0.20978,-1.50496 0.29131,-3.02442 0.36782,-4.54094 0.0165,-1.1949 0.0969,-2.39667 0.008,-3.5897 -0.17429,-0.85014 -0.22795,-1.7231 -0.40623,-2.57052 -0.22454,-0.89656 -0.52512,-1.77166 -0.82096,-2.64675 -0.42971,-1.3442 -0.70671,-2.72655 -1.09918,-4.08066 -0.34041,-1.13761 -0.91259,-2.16494 -1.54319,-3.16188 -0.6779,-1.05188 -1.51964,-1.97617 -2.23702,-2.99971 -0.6461,-0.88081 -1.31853,-1.74236 -2.07286,-2.53328 -0.71442,-0.79752 -1.63516,-1.34646 -2.49873,-1.96132 -1.11205,-0.72671 -2.29824,-1.34123 -3.46065,-1.98545 -1.2929,-0.67279 -2.51443,-1.48537 -3.85273,-2.06635 -1.42749,-0.57206 -2.91753,-0.9442 -4.39857,-1.34409 -1.64679,-0.43802 -3.30484,-0.8316 -4.95543,-1.2554 -1.75985,-0.53681 -3.54966,-0.94761 -5.35657,-1.28856 -2.15965,-0.40253 -4.29576,-0.91832 -6.46351,-1.27725 -2.52645,-0.45513 -5.05966,-0.86774 -7.59124,-1.29294 -2.11418,-0.33684 -4.19916,-0.81057 -6.32493,-1.07242 -1.71838,-0.17937 -3.44949,-0.19624 -5.17565,-0.22879 -6.39145,-0.17491 -20.52368,0.14752 -1.77884,-0.0173 0.20466,-0.002 -0.40766,-0.0374 -0.61099,-0.0607 -0.35217,-0.0403 -0.7313,-0.0972 -1.08367,-0.14791 -0.79195,-0.12732 -1.58955,-0.20605 -2.39055,-0.24079 -3.85214,0.0337 -8.08408,-1.31961 -11.63036,0.25879 -0.76699,0.29618 -1.56497,0.47444 -2.37404,0.62841 -0.56589,0.13964 -1.21376,-0.0874 -1.69956,0.24121 -0.39044,0.20523 -0.86598,0.128 -1.27023,0.24633 -0.0519,0.0152 -0.56267,0.28457 -0.63262,0.3211 -0.47199,0.23023 -0.92182,0.22909 -1.42911,0.21946 -0.61408,-0.0902 -1.08866,0.30026 -1.67766,0.40876 -0.26526,0.088 -0.60026,-0.0198 -0.86172,0.0616 -0.37752,0.11751 -0.43866,0.26245 -0.90149,0.33095 -0.57462,0.17088 -1.20944,0.047 -1.74328,0.30976 -0.53421,0.21221 -1.10198,0.32081 -1.6751,0.32564 -0.60046,-0.0793 -1.02422,0.35167 -1.61449,0.39888 -0.38286,0.0326 -0.76682,0.0493 -1.15049,0.0689 0,0 9.72471,1.45661 9.72471,1.45661 v 0 c 0.40199,-0.0475 0.80625,-0.0907 1.19672,-0.20348 0.54692,-0.19737 1.0425,-0.26493 1.61899,-0.28942 0.56709,-0.12378 1.11353,-0.32454 1.68083,-0.44653 0.58514,-0.004 1.14704,-0.18 1.71307,-0.31642 0.601,-0.19997 1.20135,-0.21818 1.80786,-0.40559 0.55227,-0.19106 1.0669,-0.21992 1.64681,-0.2352 0.51856,-0.0903 0.98408,-0.31199 1.46716,-0.51594 0.62771,-0.17222 1.29021,-0.23016 1.91134,-0.4456 0.54211,0.11397 1.10706,-0.10109 1.63719,-0.20668 0.81581,-0.21315 1.61836,-0.46861 2.42868,-0.69931 3.43919,-0.58378 -14.1173,0.0913 -7.89084,0.003 0.81205,0.004 1.625,0.0207 2.43183,0.12298 0.56461,0.0747 1.18216,0.2372 1.74889,0.24735 3.41448,0.0611 6.84095,-0.17901 10.24461,0.0994 2.99582,0.24507 -6.01167,0.002 -9.0175,0.001 -0.19066,-7e-5 0.38132,-0.003 0.57197,-0.004 1.76091,-0.009 3.52431,-0.005 5.28178,0.11669 2.21429,0.19186 4.3782,0.64278 6.57217,0.98136 2.45332,0.3911 4.89035,0.85179 7.32828,1.32057 2.20452,0.40244 4.42947,0.69905 6.60851,1.23781 1.7217,0.34571 3.43584,0.71524 5.11221,1.2438 1.65593,0.49928 3.36921,0.78998 5.03987,1.236 1.42058,0.43816 2.88454,0.72192 4.25777,1.30228 1.4138,0.39493 2.65072,1.19626 3.92988,1.89829 1.12158,0.61959 2.18736,1.33712 3.34236,1.89732 0.82455,0.56153 1.68684,1.10237 2.41224,1.78606 0.76402,0.75429 1.54785,1.49484 2.19766,2.35413 0.68473,1.01459 1.38896,2.0241 2.16987,2.96669 0.59282,0.93607 1.18264,1.84835 1.54905,2.90526 0.44286,1.33298 0.80779,2.68205 1.09094,4.05927 0.20816,0.88273 0.50504,1.73295 0.72845,2.61046 0.23224,0.79671 0.22453,1.64728 0.45328,2.4483 0.19233,1.13341 0.0225,2.29951 0.0597,3.44368 -0.0243,1.49919 -0.11563,2.99317 -0.25018,4.48656 -0.13748,2.03066 -0.13619,4.06578 -0.2872,6.09572 -0.16932,2.18041 -0.43437,4.3484 -0.91858,6.48448 -0.46644,1.69223 -0.94469,3.38059 -1.40464,5.07431 -0.30246,1.195 -0.74168,2.33619 -1.28333,3.44404 -0.53884,1.05727 -1.08883,2.10565 -1.71968,3.11274 -0.71477,1.07808 -1.56072,2.05032 -2.25608,3.13757 -0.64804,0.95376 -1.33238,1.87133 -2.18621,2.65769 -1.46292,1.49606 -3.05674,2.84244 -4.82274,3.97231 -1.98936,1.27365 -4.01674,2.53665 -6.20739,3.43509 -1.47431,0.4156 -2.95338,0.75674 -4.49301,0.83176 -3.51139,0.29763 -7.03485,0.45229 -10.54237,0.80532 -2.65414,0.11263 -1.28127,0.0828 -3.81402,0.0842 -0.57957,2.6e-4 -2.31825,0.003 -1.73869,0.002 13.86699,-0.0117 7.7812,0.0153 4.66656,-0.0298 -1.76783,-0.022 -3.53702,-0.0474 -5.29822,-0.22041 -2.93047,-0.26567 -5.84648,-0.65469 -8.75161,-1.1191 -1.34506,-0.35163 -2.72036,-0.59027 -4.03138,-1.06386 -1.60083,-0.59153 -3.09093,-1.43098 -4.64811,-2.12511 -1.114,-0.68122 -2.33136,-1.21143 -3.34367,-2.04743 -0.61312,-0.4093 -1.13192,-0.94129 -1.68938,-1.428 -0.53982,-0.51837 -1.09536,-1.0326 -1.71664,-1.45188 -0.45992,-0.54142 -0.94162,-1.08688 -1.49092,-1.52694 -0.48419,-0.33777 -0.91095,-0.74395 -1.30353,-1.18989 -0.42647,-0.50092 -0.78698,-1.06239 -1.22294,-1.54137 -0.38783,-0.34294 -0.63287,-0.84915 -1.07134,-1.16147 -0.15734,-0.14755 -0.3736,-0.31151 -0.48876,-0.49482 -0.15553,-0.24755 -0.1835,-0.54418 -0.50538,-0.63857 -0.43414,-0.54814 -0.92888,-1.03191 -1.39059,-1.56037 -0.56376,-0.76394 -1.20465,-1.46797 -1.74883,-2.24884 -0.41407,-0.28399 -0.74814,-1.03504 -0.93353,-1.48584 -0.49808,-0.84754 -1.02309,-1.69464 -1.64765,-2.4559 -0.9938,-0.90257 0.34335,0.3479 -0.58533,-0.64192 -0.0549,-0.0585 -0.14546,-0.0774 -0.1956,-0.14001 -0.15808,-0.19721 -0.12763,-0.52893 -0.37904,-0.66751 -0.34963,-0.3938 -0.68656,-0.80274 -0.9985,-1.20608 -0.35444,-0.69066 -0.58398,-1.44947 -1.09995,-2.0515 -0.37006,-0.57444 -0.69011,-1.14723 -0.9793,-1.76567 -0.28159,-0.34371 -0.42649,-0.7151 -0.60442,-1.11117 -0.24125,-0.38551 -0.3118,-0.8234 -0.56501,-1.20565 -0.24955,-0.50411 -0.37458,-1.06233 -0.67916,-1.53401 -0.18518,-0.40759 -0.42609,-0.56504 -0.42966,-1.0566 -0.21174,-0.68365 -0.52491,-1.32448 -0.87037,-1.95144 -0.15486,-0.51346 -0.47411,-0.93016 -0.58501,-1.44013 -0.13525,-0.54453 -0.36161,-1.08389 -0.36373,-1.64544 -0.0184,-0.62913 -0.0332,-1.25365 -0.21431,-1.86385 -0.26298,-0.85799 -0.51035,-1.71559 -0.66919,-2.59867 -0.15707,-0.77567 -0.38045,-1.51322 -0.56318,-2.27958 -0.009,-0.86029 -0.055,-1.72008 -0.0417,-2.58078 -0.002,-0.99869 0.002,-1.99712 0.0296,-2.9954 0.005,-0.71629 0.002,-1.43255 0.0123,-2.14831 0.005,-0.70427 0.002,-1.40992 0.0664,-2.11204 0.0857,-0.84898 0.23693,-1.68004 0.421,-2.51212 -0.001,-0.56244 0.0209,-1.1306 0.13359,-1.68292 0.14284,-0.69213 0.39622,-1.35926 0.47404,-2.06508 0.15494,-0.69664 0.43442,-1.35112 0.6283,-2.03707 0.19766,-0.58003 0.33962,-1.16844 0.46655,-1.76681 0.14317,-0.53611 0.27487,-1.06125 0.28985,-1.61883 0.0595,-0.49912 0.21202,-0.97135 0.38751,-1.44123 0.18885,-0.64115 0.33521,-1.29438 0.57867,-1.91959 0.40559,-1.18885 0.72579,-2.40817 0.93004,-3.6484 0.18058,-1.05458 0.45811,-2.0848 0.73656,-3.11735 0.39965,-1.93049 0.83269,-3.85563 1.31326,-5.76744 0.42995,-1.75523 0.9917,-3.47474 1.41808,-5.231171 0.51642,-1.789004 1.01516,-3.585204 1.76971,-5.294362 0.95185,-2.283862 1.87008,-4.577943 3.22779,-6.663928 0.89704,-1.611924 1.77591,-3.234711 2.71823,-4.82082 1.36798,-2.135386 2.70674,-4.289589 4.22845,-6.3217 0.14947,-0.210383 1.22271,-1.71297 1.3804,-1.96502 0.51337,-0.820587 0.83338,-1.761273 1.36972,-2.570988 0.75608,-1.3501 1.10664,-2.858818 1.76756,-4.255064 0.84001,-1.56976 1.79906,-3.06006 2.77029,-4.551106 1.20862,-1.756333 2.49175,-3.454728 3.77747,-5.154858 0.66078,-0.922213 1.53391,-1.637258 2.4577,-2.288654 2.3912,-1.529326 4.93069,-2.811108 7.36169,-4.274616 1.96163,-1.123273 3.85473,-2.348839 5.75735,-3.555172 2.54662,-1.122609 5.34629,-1.515975 8.01354,-2.249601 4.66205,-1.101479 9.30468,-2.321544 14.02281,-3.161239 z" />
</svg>
