<?xml version="1.0" encoding="UTF-8" standalone="no"?>
<!-- Created with Inkscape (http://www.inkscape.org/) -->

<svg
   width="1000"
   height="1000"
   viewBox="0 0 264.58333 264.58333"
   version="1.1"
   id="svg1"
   xmlns="http://www.w3.org/2000/svg"
   xmlns:svg="http://www.w3.org/2000/svg">
  <defs
     id="defs1">
    <rect
       x="256.66667"
       y="116.66667"
       width="508.33333"
       height="661.66667"
       id="rect3" />
  </defs>
  <text
     xml:space="preserve"
     transform="scale(0.26458333)"
     id="text3"
     style="text-align:start;writing-mode:lr-tb;direction:ltr;white-space:pre;shape-inside:url(#rect3);display:inline;fill:#000000;stroke-width:19.5213" />
  <path
     style="fill:#000000;stroke-width:5.16501"
     id="path9"
     d="m 77.007121,62.052599 c 0.01984,0.903602 0.0054,1.807424 0.0011,2.711098 -0.0044,0.556178 -0.0044,1.112406 -0.0021,1.6686 -5.29e-4,0.600578 5.29e-4,1.201153 7.93e-4,1.80173 -0.007,0.527672 -0.0021,1.055354 5.3e-4,1.583037 -0.02069,0.946917 0.008,1.882685 0.136099,2.820924 0.225668,1.324073 0.433728,2.652765 0.668726,3.975703 0.316923,1.849242 0.94279,3.640534 1.584486,5.399884 0.620874,1.73687 1.151195,3.504213 1.805237,5.229677 0.466172,1.058897 0.731117,2.192986 1.2114,3.244355 0.378558,0.852909 0.845288,1.660491 1.284131,2.482832 0.435465,0.826434 1.049308,1.542232 1.594644,2.296848 0.60202,0.817623 1.414587,1.396918 2.239745,1.9661 0.896065,0.609589 1.820921,1.191667 2.802263,1.654103 1.041816,0.430607 2.095257,0.83488 3.142726,1.25331 0.894276,0.34973 1.852481,0.44301 2.772643,0.6932 0.906119,0.24607 1.84681,0.31089 2.771825,0.4604 1.397121,0.20934 2.809721,0.28086 4.220051,0.33009 2.65587,0.094 5.31064,-0.0126 7.96105,-0.17963 2.00284,-0.12131 4.00887,-0.18256 6.01485,-0.22021 1.06832,-0.0364 2.11962,-0.33953 3.16912,-0.54186 1.78286,-0.37581 3.54324,-0.823588 5.29651,-1.31557 0.81985,-0.284875 1.56187,-0.649216 2.2813,-1.12453 0.68019,-0.51172 1.34948,-1.032713 2.02609,-1.549445 0.63927,-0.549277 1.26047,-1.135819 1.81612,-1.771221 0.50999,-0.456483 0.9869,-0.953072 1.43186,-1.471591 0.39611,-0.514295 0.83817,-0.989013 1.28377,-1.460072 0.48951,-0.526261 0.95805,-1.077108 1.33323,-1.692926 0.32378,-0.66835 0.69731,-1.315648 1.11136,-1.931556 0.45755,-0.516088 0.81017,-1.106043 1.20741,-1.666758 0.36447,-0.635114 0.65017,-1.308413 0.92336,-1.986622 0.7634,-1.628798 1.53855,-3.252848 2.33334,-4.866579 0.62457,-1.215633 1.2002,-2.461789 1.70499,-3.732294 0.16503,-0.535303 0.36595,-1.037699 0.59766,-1.546474 0.25854,-0.592185 0.42982,-1.213617 0.57389,-1.841772 0.047,-0.444985 0.38861,-0.757031 0.57904,-1.1479 0.20844,-0.529511 0.54686,-0.984774 0.91111,-1.415699 0.37293,-0.345455 0.59772,-0.67061 0.71287,-1.163378 0.24733,-0.264022 0.29352,-0.639648 0.48105,-0.93096 0.22821,-0.239421 0.36022,-0.466574 0.41698,-0.79379 0.22282,-0.294793 0.33053,-0.630237 0.41027,-0.986485 0.0695,-0.327446 0.0749,-0.664192 0.0803,-0.997612 0.007,-0.01971 0.061,-0.229603 0.12471,-0.237543 0.0329,-0.0041 0.10117,0.07092 0.068,0.07267 -0.94962,0.05009 -1.90309,0.01 -2.85186,0.07416 -0.0396,0.0027 0.0208,0.07777 0.0193,0.117398 -0.002,0.05533 -0.0202,0.108895 -0.0303,0.163341 -0.16901,0.521369 -0.19286,1.070449 -0.31717,1.600176 -0.18688,0.545235 -0.23277,1.12495 -0.51614,1.630767 -0.26834,0.477793 -0.2239,1.044345 -0.39041,1.549533 -0.15831,0.535508 -0.4516,1.010393 -0.63179,1.538388 -0.28265,0.590084 -0.48622,1.217885 -0.82771,1.777261 -0.28299,0.534313 -0.57271,1.058149 -0.85721,1.591482 -0.36633,0.477372 -0.59349,1.074836 -0.85193,1.624045 -0.2643,0.420872 -0.51584,0.832516 -0.68794,1.299821 -0.21626,0.362511 -0.36075,0.761246 -0.45535,1.17098 -0.25394,0.323476 -0.30083,0.745616 -0.48826,1.102934 -0.26954,0.298219 -0.28756,0.717113 -0.47191,1.050253 -0.15315,0.306199 -0.41205,0.520398 -0.5885,0.805558 -0.23249,0.312915 -0.39714,0.689546 -0.64701,0.983903 -0.23258,0.37119 -0.51291,0.686808 -0.79482,1.021845 -0.24554,0.339434 -0.56683,0.624946 -0.76977,0.99151 -0.33386,0.405757 -0.5783,0.888413 -0.82997,1.352288 -0.21195,0.439378 -0.57267,0.734121 -0.88186,1.093309 -0.29684,0.245726 -0.1972,0.67736 -0.37871,0.968385 -0.1594,0.408398 -0.38911,0.772343 -0.54643,1.181368 -0.25747,0.580196 -0.54538,1.135504 -0.8839,1.672513 -0.30709,0.542004 -0.63972,1.095761 -0.86448,1.678284 -0.43818,0.72935 -0.62825,1.567587 -0.84535,2.381186 -0.25439,0.943232 -0.59223,1.856883 -0.88342,2.788153 -0.22563,0.531564 -0.23155,1.117235 -0.38214,1.664255 -0.19357,0.808811 -0.28261,1.637471 -0.34642,2.465171 -0.0394,0.77149 -0.25036,1.52227 -0.3693,2.28459 -0.0794,0.84636 -0.10066,1.68399 -0.23836,2.52393 -0.18923,1.0087 -0.24625,2.03238 -0.28597,3.05564 -0.0271,1.0334 -0.25644,2.04661 -0.34796,3.07585 -0.0389,1.57046 -0.37227,3.10763 -0.55656,4.66407 -0.24245,1.74087 -0.26326,3.50522 -0.47415,5.24796 -0.12923,0.91516 -0.29123,1.82588 -0.37705,2.74656 -0.17441,1.13993 -0.30281,2.28579 -0.39963,3.43478 -0.0663,0.85172 -0.0737,1.70625 -0.0892,2.55994 0.0556,0.65049 -0.0785,1.2722 -0.19381,1.90728 -0.20573,1.15529 -0.1886,2.3397 -0.21085,3.50961 -0.0257,1.09011 -0.0299,2.18059 -0.0274,3.27095 0.0474,1.15027 -0.13125,2.29025 -0.25853,3.43024 -0.12102,1.10275 -0.156,2.20959 -0.16987,3.31778 -0.0101,1.11976 -0.0117,2.23949 -0.0106,3.35929 -0.005,0.77685 -0.0569,1.54398 0.11747,2.30487 0.1294,0.46799 0.23866,0.93619 0.28306,1.41989 -0.003,0.51238 0.18165,0.99482 0.30046,1.48733 0.12099,0.46884 0.40772,0.77032 0.79223,1.03424 0.21788,0.18294 0.23665,0.42445 0.25434,0.69151 0.0136,0.34961 0.0102,0.69981 0.005,1.04959 -10e-4,0.31971 -0.004,0.63936 -0.002,0.95908 0.002,0.40646 0.002,0.81299 -10e-4,1.21944 -0.003,0.29751 10e-4,0.59502 -7.9e-4,0.89255 -0.0419,0.39644 0.0465,0.73692 0.20307,1.09645 0.13255,0.27794 0.19357,0.57328 0.22409,0.87726 0.0194,0.31342 0.0192,0.62773 0.0182,0.94164 -0.0508,0.41302 0.10333,0.76661 0.2637,1.13554 0.13212,0.24576 0.13489,0.52612 0.22151,0.78558 0,0 2.98425,-0.12163 2.98425,-0.12163 v 0 c -0.14367,-0.23034 -0.0558,-0.55819 -0.22214,-0.79064 -0.15606,-0.3323 -0.31654,-0.63012 -0.26266,-1.00839 -1e-5,-0.32277 0.008,-0.64603 -0.0167,-0.96822 -0.0255,-0.33386 -0.0873,-0.6634 -0.22932,-0.96902 -0.13321,-0.33306 -0.25976,-0.60397 -0.19634,-0.97858 -0.002,-0.29752 0.002,-0.59503 -7.9e-4,-0.89254 -0.004,-0.40633 -0.004,-0.81273 -8e-4,-1.21905 0.003,-0.31906 0.002,-0.63812 0.005,-0.95717 -2.6e-4,-0.35705 0.005,-0.71413 -0.007,-1.07111 -0.0206,-0.32828 -0.0357,-0.65597 -0.26331,-0.91496 -0.2606,-0.31015 -0.71364,-0.38242 -0.79515,-0.86003 -0.10966,-0.48138 -0.29479,-0.9479 -0.29405,-1.44656 -0.0472,-0.49959 -0.1453,-0.98222 -0.29124,-1.46323 -0.19018,-0.73309 -0.12539,-1.48176 -0.1379,-2.2341 -7.9e-4,-1.11822 -0.006,-2.23653 0.006,-3.35468 0.0187,-1.09818 0.0569,-2.19682 0.16829,-3.29011 0.12283,-1.1516 0.3178,-2.30085 0.26787,-3.46242 0.001,-1.08838 -0.004,-2.1768 0.007,-3.26516 0.0224,-1.15522 0.0278,-2.32127 0.23993,-3.46079 0.12392,-0.65192 0.26325,-1.29089 0.2028,-1.95962 -0.003,-0.84659 0.0111,-1.6936 0.069,-2.53847 0.0871,-1.14991 0.20875,-2.2967 0.41813,-3.43162 0.08,-0.91737 0.2193,-1.82741 0.34802,-2.73891 0.19852,-1.74213 0.16642,-3.5077 0.42777,-5.24565 0.21275,-1.55813 0.57323,-3.09524 0.61009,-4.67253 0.10671,-1.03277 0.32735,-2.05383 0.35098,-3.09273 0.0386,-1.01106 0.10387,-2.02194 0.29126,-3.01823 0.14179,-0.8398 0.16064,-1.68104 0.24914,-2.52681 0.11985,-0.76991 0.32741,-1.52887 0.36647,-2.30817 0.0597,-0.81115 0.14006,-1.62491 0.35636,-2.41183 0.13481,-0.546307 0.16319,-1.11776 0.36645,-1.649723 0.29521,-0.933551 0.61631,-1.857319 0.87751,-2.801752 0.21261,-0.806731 0.44321,-1.611935 0.86184,-2.340187 0.25382,-0.558064 0.53594,-1.110247 0.85902,-1.630794 0.33946,-0.553288 0.63018,-1.12795 0.89315,-1.721379 0.17484,-0.395168 0.39121,-0.769792 0.55578,-1.170247 0.11017,-0.306803 0.11117,-0.644607 0.37056,-0.880623 0.32766,-0.363701 0.66127,-0.712311 0.87941,-1.160007 0.25181,-0.460291 0.51066,-0.921137 0.83482,-1.334291 0.23534,-0.327816 0.51136,-0.62628 0.76038,-0.943846 0.30143,-0.329263 0.5375,-0.690536 0.80305,-1.046845 0.21535,-0.330536 0.42894,-0.661548 0.64946,-0.989018 0.22347,-0.268412 0.4324,-0.544573 0.58955,-0.858869 0.14519,-0.356095 0.24468,-0.72653 0.46983,-1.047395 0.17187,-0.386284 0.28396,-0.797097 0.49357,-1.167419 0.0961,-0.399605 0.2667,-0.770279 0.45645,-1.133978 0.16996,-0.455038 0.44705,-0.848272 0.67393,-1.275717 0.25616,-0.550241 0.49956,-1.115687 0.85583,-1.608648 0.28052,-0.5289 0.56119,-1.056108 0.84749,-1.581746 0.32236,-0.589409 0.56632,-1.216382 0.83645,-1.830839 0.19553,-0.526034 0.48738,-1.01023 0.6344,-1.554592 0.13304,-0.497834 0.12949,-1.034505 0.39147,-1.494162 0.25431,-0.541518 0.32808,-1.136053 0.50732,-1.704581 0.12131,-0.538777 0.17289,-1.090959 0.33127,-1.622634 0.23717,-1.868512 -3.14504,-1.723316 -3.29833,-0.238686 -0.004,0.312385 -0.0103,0.627478 -0.0767,0.934011 -0.0855,0.358063 -0.26176,0.661574 -0.41299,0.993388 -0.0699,0.277382 -0.26471,0.464098 -0.41039,0.70603 -0.15974,0.337574 -0.31016,0.676556 -0.48341,1.007314 -0.11229,0.427853 -0.40704,0.705334 -0.69648,1.030626 -0.36629,0.453793 -0.6923,0.936067 -0.91803,1.477 -0.22532,0.396959 -0.55134,0.751035 -0.58897,1.227531 -0.12588,0.609931 -0.29494,1.210117 -0.55983,1.776056 -0.2431,0.508217 -0.42319,1.026236 -0.5873,1.564981 -0.49381,1.259612 -1.03396,2.5038 -1.64468,3.711202 -0.79622,1.626534 -1.60475,3.247046 -2.38697,4.880184 -0.29265,0.652343 -0.55617,1.319667 -0.94183,1.924558 -0.38834,0.567767 -0.76124,1.144018 -1.19868,1.67649 -0.39739,0.629467 -0.7829,1.266737 -1.11255,1.934969 -0.38805,0.586137 -0.84645,1.123601 -1.32617,1.636303 -0.44864,0.474411 -0.8885,0.956156 -1.29454,1.467974 -0.46524,0.500864 -0.91947,1.009536 -1.42548,1.470422 -0.56558,0.607287 -1.14996,1.206913 -1.80615,1.716508 -0.67511,0.511453 -1.33293,1.045903 -2.02901,1.52895 -0.69701,0.457558 -1.4636,0.758696 -2.248,1.037791 -1.73638,0.503659 -3.49017,0.930577 -5.26198,1.29327 -1.05624,0.19553 -2.1103,0.48662 -3.1897,0.48999 -1.99067,0.0487 -3.98129,0.11792 -5.96897,0.23938 -0.3956,0.0247 -0.7912,0.0496 -1.18682,0.0741 -0.37877,0.0234 -1.51222,0.0172 -1.13634,0.0694 0.63924,0.0887 1.29055,0.0232 1.93566,0.0416 1.82954,0.052 -3.5902,-0.041 -1.80875,-0.0217 -1.40565,-0.0398 -2.81373,-0.0999 -4.20795,-0.29386 -0.91724,-0.14659 -1.83994,-0.24241 -2.748933,-0.42956 -0.920295,-0.26542 -1.870239,-0.36528 -2.784502,-0.661688 -1.049901,-0.404431 -2.090618,-0.836512 -3.139249,-1.241068 -0.995013,-0.41117 -1.901328,-1.019706 -2.805523,-1.598004 -0.798787,-0.552714 -1.603989,-1.090183 -2.210377,-1.865254 -0.528814,-0.755819 -1.162071,-1.443794 -1.600977,-2.258473 -0.435928,-0.818822 -0.898258,-1.620898 -1.279848,-2.467554 -0.498523,-1.040416 -0.775489,-2.172335 -1.254956,-3.222548 -0.677862,-1.71591 -1.161121,-3.497988 -1.80816,-5.22486 -0.646927,-1.737442 -1.259898,-3.514153 -1.563391,-5.34698 -0.219313,-1.321319 -0.440698,-2.642566 -0.649668,-3.965046 -0.121341,-0.926602 -0.151308,-1.847096 -0.11502,-2.781697 0.0027,-0.527682 0.0076,-1.055364 5.29e-4,-1.583036 2.65e-4,-0.600578 0.0013,-1.201153 7.94e-4,-1.80173 0.0021,-0.556194 0.0021,-1.112423 -0.0021,-1.668601 -0.0043,-0.903673 -0.01868,-1.807495 0.0011,-2.711098 z" />
</svg>
