<?xml version="1.0" encoding="UTF-8" standalone="no"?>
<!-- Created with Inkscape (http://www.inkscape.org/) -->

<svg
   width="1000"
   height="1000"
   viewBox="0 0 264.58333 264.58333"
   version="1.1"
   id="svg1"
   xmlns="http://www.w3.org/2000/svg"
   xmlns:svg="http://www.w3.org/2000/svg">
  <defs
     id="defs1" />
  <path
     style="fill:#000000;stroke-width:20.0394"
     id="path4"
     d="m 160.35599,149.86844 c 1.88747,-0.76589 3.83414,-1.41965 5.77934,-2.06507 1.15672,-0.49999 2.38449,-0.87447 3.53206,-1.387 2.64772,-0.92685 5.12555,-2.1703 7.57946,-3.43199 1.59604,-0.81453 3.06424,-1.7823 4.51876,-2.7704 0.52629,-0.30999 0.96327,-0.6935 1.3217,-1.14531 0.91262,-0.83874 1.62114,-1.83547 2.42112,-2.75826 0.46853,-0.66387 1.21333,-1.17501 1.57562,-1.89096 0.4377,-0.63575 0.74271,-1.31959 1.08835,-1.99466 0.48536,-1.04281 1.08065,-2.04065 1.56516,-3.08398 0.2088,-0.52445 0.49203,-1.00892 0.57943,-1.56607 0.0867,-1.05809 0.24499,-2.1114 0.46062,-3.155 0.25328,-1.03532 0.59045,-2.05066 0.91347,-3.07018 0.35555,-1.1305 0.5014,-2.28583 0.5557,-3.45322 0.0878,-1.27814 0.0179,-2.55625 8.9e-4,-3.83455 0.0475,-2.58959 0.13149,-5.17836 0.18255,-7.76792 0.0241,-2.63365 0.0532,-5.26741 0.0852,-7.901371 -0.0455,-1.45736 0.12374,-2.91631 -0.006,-4.37227 -0.0718,-0.80453 -0.19382,-1.60506 -0.2785,-2.40863 -0.10039,-1.72256 -0.38757,-3.42829 -0.54174,-5.14683 -0.18288,-1.24584 -0.59946,-2.44868 -0.92647,-3.66759 -0.45047,-1.55972 -1.0661,-3.07644 -1.57565,-4.62207 -0.40125,-1.1405 -0.82462,-2.2773 -1.32621,-3.38727 -0.3197,-0.74533 -0.72299,-1.46315 -1.12093,-2.17867 -0.35963,-0.72429 -0.73683,-1.44216 -1.21942,-2.11007 -0.45709,-0.59417 -0.96659,-1.15068 -1.52061,-1.676626 -1.09909,-0.91686 -2.253,-1.78272 -3.37002,-2.6862 -2.47246,-1.93536 -5.09557,-3.71951 -7.71008,-5.50384 -0.47329,-0.31516 -0.92374,-0.6586 -1.41987,-0.94547 -0.6415,-0.3709 -1.31928,-0.69131 -1.98716,-1.02447 -2.68594,-1.33981 -5.46376,-2.48294 -8.31772,-3.51523 -4.38124,-1.50413 -8.84507,-2.80878 -13.29746,-4.13822 -4.11919,-1.11394 -8.33215,-1.93891 -12.57677,-2.58527 -2.57997,-0.44994 -5.18288,-0.7329 -7.80828,-0.84569 -5.39262,-0.13288 -10.79179,-0.0418 -16.18458,-0.009 -3.63754,0.30986 -7.26522,0.72243 -10.87809,1.20595 -1.860025,0.21162 -3.570275,0.7516 -5.225215,1.50282 -1.29263,0.65398 -2.58628,1.31401 -3.84852,2.01293 -0.84753,0.46459 -1.58171,1.04791 -2.29244,1.65843 -1.29388,1.37231 -2.76414,2.61022 -4.17564,3.88848 -2.26056,1.89338 -4.53096,3.77505 -6.68445,5.76335 -1.42112,1.32295 -2.52657,2.86708 -3.68062,4.36779 -1.17183,1.762306 -2.47548,3.444986 -3.61804,5.222606 -1.06872,1.57205 -1.42991,3.38473 -1.92602,5.13613 -0.68764,2.09715 -1.08628,4.24871 -1.48344,6.39821 -0.31767,1.83568 -0.72092,3.66055 -0.90649,5.51117 -0.21555,2.12794 -0.0603,4.25526 0.22522,6.37045 0.24898,1.883 0.76814,3.724221 1.06499,5.600931 0.3259,1.8206 0.65265,3.63495 1.11669,5.43322 0.36888,1.67659 0.82983,3.33693 1.19221,5.01457 0.0225,0.11076 0.11662,0.6265 0.17932,0.74589 0.22143,0.42165 0.54902,0.69983 0.88723,1.05487 0.66998,0.7033 0.5905,0.62401 1.27479,1.36974 2.05636,2.31664 3.84768,4.80835 5.53529,7.34078 1.52088,2.23885 2.61935,4.66646 4.00593,6.96622 0.52826,0.89407 1.15956,1.698 2.04402,2.34048 1.6827,1.11121 3.37025,2.21032 5.0069,3.37494 2.4562,1.71892 4.94452,3.40216 7.41915,5.10052 1.09861,0.73024 2.12276,1.55814 3.28761,2.20941 0.15092,0.0542 0.240375,0.18867 0.381595,0.25406 0.40529,0.18768 0.98023,0.35638 1.39444,0.49999 0.5145,0.17838 1.37593,0.49507 1.88128,0.67943 1.72975,0.5763 3.44855,1.17306 5.12577,1.85911 0.74727,0.34434 1.49823,0.61859 2.33723,0.70921 4.03648,0.10965 8.077,0.0325 12.11548,0.0394 0.18397,1.2e-4 0.36794,1.8e-4 0.55192,3.7e-4 0,0 -7.76011,-1.07513 -7.76011,-1.07513 v 0 c -0.17128,0.002 -0.34254,0.003 -0.51382,0.005 -2.64666,0.0232 -6.67632,0.0133 5.50019,0.0103 0.25011,-6e-5 -0.73194,-0.002 -1.4966,-0.008 -0.1945,-0.002 -0.389,-0.004 -0.58351,-0.006 -0.85293,-0.0161 -1.63778,-0.10701 -2.41325,-0.46261 -1.74755,-0.64233 -3.49689,-1.27973 -5.27341,-1.86021 -1.75229,-0.6318 -0.13752,-0.0309 -1.78097,-0.69431 -0.41081,-0.16583 -0.94142,-0.28377 -1.33612,-0.48775 -0.0832,-0.043 -0.15572,-0.10032 -0.23358,-0.15048 -0.70015,-0.41431 0.10829,0.0433 -0.72291,-0.35408 -1.057,-0.50537 -2.01787,-1.16151 -2.99192,-1.77537 -2.5333,-1.61754 -5.078715,-3.2301 -7.401175,-5.08112 -0.95976,-0.67232 -1.85531,-1.40301 -2.80791,-2.08156 -0.43505,-0.3099 -0.90678,-0.57892 -1.33942,-0.8914 -0.17366,-0.12544 -0.33291,-0.26547 -0.49937,-0.39821 -0.80181,-0.66672 -1.70878,-1.22146 -2.23693,-2.11204 -1.64037,-2.23472 -2.96585,-4.62886 -4.45964,-6.93883 -1.61503,-2.5311 -3.26462,-5.04823 -5.12296,-7.44982 -1.87067,-2.24916 0.53333,0.63618 -1.16263,-1.38457 -0.40731,-0.48531 -0.84676,-0.90569 -0.95976,-1.51902 -0.59326,-1.63839 -1.14382,-3.28851 -1.53085,-4.97567 -0.3674,-1.79679 -0.50381,-3.62137 -0.92808,-5.41058 -0.39728,-1.85724 -0.89353,-3.699621 -1.15843,-5.576761 -0.32447,-2.05417 -0.50579,-4.14593 -0.20624,-6.2117 0.28087,-1.83109 0.57846,-3.66074 0.89749,-5.48683 0.32611,-2.13049 0.70787,-4.26345 1.41576,-6.32603 0.54046,-1.70119 1.09976,-3.41346 2.06379,-4.97488 1.04979,-1.80965 2.24761,-3.55414 3.66427,-5.163636 1.05244,-1.47603 2.11776,-2.94996 3.42363,-4.2678 2.09468,-2.02735 4.37693,-3.88678 6.67293,-5.73675 1.53096,-1.27927 3.05531,-2.56452 4.58622,-3.84381 0.69476,-0.55644 1.41937,-1.08585 2.21353,-1.53126 1.226735,-0.68384 2.458995,-1.36697 3.752855,-1.94958 1.58439,-0.65399 3.25385,-1.07646 4.98212,-1.32928 3.53636,-0.54099 7.10753,-0.96712 10.69271,-1.14201 -12.38789,-0.0665 -1.28439,-0.0357 1.47698,0.0262 2.70529,0.0897 5.3981,0.3145 8.06511,0.73599 4.28308,0.55998 8.51556,1.3636 12.66044,2.47263 4.50447,1.28032 9.00582,2.57501 13.42228,4.07678 3.98064,1.49158 8.02069,3.00321 11.46627,5.34586 2.55839,1.70608 5.04297,3.48572 7.34028,5.46013 1.02375,0.89847 2.0525,1.79239 3.1033,2.664316 0.53831,0.5079 1.06964,1.02355 1.52599,1.59139 0.55432,0.58139 0.84399,1.3057 1.2072,1.98415 0.37557,0.7153 0.81141,1.40463 1.14926,2.13502 0.51278,1.10986 1.11101,2.18738 1.55979,3.32058 0.54453,1.51697 0.96553,3.054 1.42162,4.59138 0.35222,1.19097 0.72331,2.37136 0.91722,3.59164 0.3587,1.69684 0.60162,3.40702 0.8347,5.12021 0.25459,2.23225 0.2967,4.47486 0.29261,6.71735 0.0278,2.630571 0.0527,5.260711 -0.005,7.890911 -0.0479,2.58591 -0.11458,5.17407 -0.40266,7.74974 -0.14101,1.27565 -0.15563,2.54865 -0.17115,3.82948 -0.0752,1.10972 -0.19277,2.2232 -0.54631,3.29574 -0.35349,1.0408 -0.72546,2.07213 -0.94329,3.14486 -0.19494,1.0486 -0.28495,2.11478 -0.5968,3.14311 -0.14249,0.49446 -0.3748,0.95986 -0.51654,1.45471 -0.37388,1.04914 -0.91734,2.04017 -1.48193,3.01939 -0.38428,0.67007 -0.82606,1.31079 -1.23285,1.97018 -0.42617,0.61068 -0.93114,1.18096 -1.36762,1.78629 -0.78633,0.95649 -1.59273,1.89174 -2.58134,2.6979 -0.42132,0.34729 -0.81602,0.71708 -1.2662,1.03944 -1.23753,1.00545 -2.58088,1.90138 -4.00059,2.70136 -2.55188,1.3387 -5.20793,2.48021 -8.02837,3.32079 -1.13097,0.4146 -2.20409,0.92871 -3.3212,1.36966 -2.01074,0.72575 -4.03556,1.41833 -6.08622,2.05323 z" />
</svg>
