<?xml version="1.0" encoding="UTF-8" standalone="no"?>
<!-- Created with Inkscape (http://www.inkscape.org/) -->

<svg
   width="1000"
   height="1000"
   viewBox="0 0 264.58333 264.58333"
   version="1.1"
   id="svg1"
   xmlns="http://www.w3.org/2000/svg"
   xmlns:svg="http://www.w3.org/2000/svg">
  <defs
     id="defs1" />
  <path
     id="path6"
     style="fill:#000000;stroke-width:24.8776"
     d="M 128.05781 17.538981 C 127.81121 18.267494 127.40579 18.911772 127.0925 19.610689 C 126.78655 20.434344 126.43232 21.160031 125.89309 21.845695 C 125.28999 22.6691 124.5794 23.394936 123.87616 24.128759 C 122.64677 25.597975 121.62642 27.234084 120.47998 28.77292 C 118.29728 31.656952 115.6272 34.061977 113.14916 36.652026 C 110.45952 39.517487 108.12058 42.700349 105.79147 45.881437 C 103.75565 48.820993 101.53689 51.626064 99.617174 54.65041 C 98.31254 56.454158 97.508294 58.518639 96.666967 60.577697 C 95.532612 62.956439 94.596289 65.425893 93.505402 67.8248 C 92.27387 70.155244 91.474439 72.666815 90.593952 75.153035 C 89.648001 77.867145 88.31934 80.401756 87.087706 82.977363 C 86.194057 84.730813 85.519844 86.607066 85.100748 88.541881 C 84.379545 92.2405 83.412909 95.878499 82.510725 99.531908 C 81.478664 103.71233 80.491981 107.90108 79.851456 112.16835 C 79.549477 115.55577 79.349115 118.95353 79.120234 122.34757 C 78.898098 123.91481 79.040342 125.16344 79.283532 126.71319 C 79.507424 128.22845 79.714562 129.74144 80.022505 131.24108 C 80.118025 131.99192 80.398094 132.63469 80.771813 133.27352 C 81.231884 134.03603 81.586516 134.85622 81.909728 135.68887 C 82.197543 136.41246 82.560561 137.10443 82.999584 137.73991 C 83.55702 138.50509 83.952394 139.37131 84.466678 140.16767 C 84.817635 140.77591 85.246037 141.31222 85.742569 141.79496 C 86.412828 142.63927 86.983914 143.56124 87.645812 144.41341 C 88.151573 145.02352 88.702263 145.59008 89.284988 146.11976 C 89.837429 146.50169 90.298339 146.98957 90.867837 147.34604 C 91.4644 147.73687 92.079823 148.08684 92.701834 148.42918 C 95.269258 150.00265 98.090866 151.0712 100.80987 152.32817 C 103.3899 153.41349 105.85904 154.86255 108.58924 155.50472 L 117.34322 154.19989 C 114.38451 153.94885 111.68235 152.39895 108.93702 151.3489 C 106.46378 150.19729 103.83464 149.18151 101.69663 147.40754 C 101.06939 147.06486 100.47713 146.70718 99.841967 146.37711 C 99.628286 146.24553 99.385156 146.16832 99.178441 146.02519 C 98.872447 145.81332 98.676623 145.42748 98.364021 145.21852 C 97.707122 144.82085 97.148942 144.31896 96.610122 143.76487 C 95.934903 142.9421 95.278159 142.09312 94.784911 141.13557 C 94.406299 140.55568 93.793572 140.20116 93.473363 139.57029 C 92.884404 138.81388 92.474414 137.98442 92.036242 137.12961 C 91.601857 136.56591 91.219689 135.94367 90.926749 135.292 C 90.52411 134.45884 90.272348 133.55538 89.800719 132.75314 C 89.466675 132.19737 89.170482 131.6282 89.031774 130.98218 C 88.54348 129.5593 88.316815 128.07401 88.094363 126.58452 C 87.937258 125.18255 88.031503 123.76884 87.888174 122.36204 C 87.763061 119.00185 87.776467 115.63343 88.233373 112.29599 C 88.79573 108.04025 89.728458 103.87382 90.864737 99.744298 C 91.723379 96.044814 92.762245 92.40706 93.82993 88.768224 C 94.341577 86.896878 95.086886 85.128605 95.89337 83.375788 C 96.969443 80.758582 98.00601 78.124128 99.044599 75.490482 C 100.06504 73.061986 101.17227 70.677151 102.13227 68.221675 C 103.21975 65.818831 104.25831 63.396687 105.26541 60.956485 C 106.17288 58.965174 107.26749 57.08638 108.28486 55.155289 C 110.01344 52.092802 112.03313 49.212771 114.15789 46.437475 C 116.40067 43.18825 118.89523 40.118676 121.67423 37.350691 C 124.17081 34.758883 126.57454 32.080675 128.98696 29.404406 C 129.36885 28.983852 129.76128 28.573163 130.13262 28.142468 C 131.04613 27.082925 131.751 25.840047 132.75882 24.868249 C 133.52721 24.107446 134.3052 23.366717 134.90236 22.445141 C 135.39177 21.688629 135.77236 20.885601 136.12347 20.050972 C 136.48127 19.366844 136.79736 18.660386 137.15907 17.978747 L 128.05781 17.538981 z M 93.82993 88.768224 L 101.62429 89.643106 C 104.16844 88.060904 106.64321 86.372303 109.11634 84.669766 C 110.45737 83.724609 111.83322 82.843302 113.31505 82.160359 C 115.94226 80.849677 118.59448 79.593773 121.23704 78.318733 C 122.81678 77.578691 124.41289 76.901173 126.12718 76.599458 C 128.58961 76.143791 131.07435 75.838469 133.56446 75.606754 C 135.72957 75.425038 137.89604 75.222545 140.06587 75.104975 C 141.78568 75.254375 143.50381 75.498224 145.08468 76.281131 C 148.86039 78.059917 152.39383 80.380549 155.82253 82.806314 C 158.15197 84.567235 160.423 86.354051 162.55855 88.376517 C 164.46311 90.180218 163.9389 89.785005 165.69893 91.601126 C 166.13016 92.046095 166.57709 92.473795 167.01616 92.91009 C 170.31577 96.353309 173.89855 99.490406 176.99333 103.14771 C 177.78649 104.14502 178.41117 104.85165 179.06142 105.93048 C 180.02778 107.53377 180.67609 109.33337 181.50106 111.01493 C 183.25468 115.11876 184.93482 119.33799 185.52872 123.82965 C 185.57722 124.36576 185.65021 124.9004 185.67445 125.43834 C 185.77135 127.5895 185.45765 129.74051 185.24761 131.87257 C 184.77596 134.97914 184.21892 138.21664 182.655 140.94023 C 181.96395 141.96092 181.17715 142.89584 180.2939 143.73748 C 179.00016 144.93891 177.53937 145.77611 175.8766 146.28874 C 170.9101 147.91803 165.7882 148.84877 160.66616 149.75313 C 157.81042 150.30546 154.89455 150.82448 152.11526 151.74422 C 151.64778 151.89892 151.4503 152.02883 151.04814 152.25375 L 159.27916 153.15396 C 159.39485 153.09056 159.50397 153.01088 159.62643 152.96379 C 159.80424 152.89539 159.9936 152.86714 160.17472 152.80928 C 161.72355 152.31417 163.24824 151.78534 164.82921 151.40161 C 165.77211 151.17277 166.724 150.98784 167.67142 150.78098 C 172.98391 149.82788 178.27994 148.81023 183.48647 147.33261 C 184.49929 146.96223 185.59302 146.66523 186.52453 146.07687 C 187.19719 145.65202 187.76138 145.00935 188.32494 144.44441 C 189.2341 143.50511 190.18354 142.60979 190.79714 141.42031 C 190.90447 141.10332 191.03075 140.79294 191.11908 140.46946 C 191.25 139.99003 191.78979 137.48973 191.87201 137.13891 C 192.27125 135.43539 192.64882 133.74045 192.98822 132.02191 C 193.29276 130.37442 193.60414 128.68798 193.56079 126.99845 C 193.54179 126.2586 193.33007 124.46182 193.25177 123.74387 C 192.30661 119.24462 190.60177 114.98432 189.0391 110.69867 C 188.57363 109.29811 188.04287 107.92114 187.45109 106.57489 C 187.2973 106.22504 187.17521 105.85457 186.97205 105.53413 C 186.38369 104.60608 185.20445 103.34729 184.51638 102.56893 C 181.18712 99.133856 177.78222 95.780779 174.50873 92.285839 C 171.05749 88.376123 166.96659 85.212871 162.88101 82.096797 C 159.617 79.797695 156.38852 77.421735 152.98446 75.355606 C 151.27285 74.309493 149.3358 74.028115 147.40185 73.838386 C 140.33826 73.281219 133.29424 73.914204 126.25844 74.442484 C 123.5452 74.690872 120.83477 74.937804 118.14886 75.408833 C 117.28261 75.691265 116.3509 75.81208 115.52731 76.235139 C 114.82989 76.593386 114.16534 77.019849 113.47111 77.38494 C 110.86041 78.767297 108.1635 79.948607 105.50312 81.215713 C 104.47704 81.716384 103.37656 82.129827 102.44336 82.81975 C 101.99974 83.147722 101.58643 83.51873 101.15817 83.868781 C 98.880853 85.770323 96.375659 87.313115 93.82993 88.768224 z " />
</svg>
