<?xml version="1.0" encoding="UTF-8" standalone="no"?>
<!-- Created with Inkscape (http://www.inkscape.org/) -->

<svg
   width="1000"
   height="1000"
   viewBox="0 0 264.58333 264.58333"
   version="1.1"
   id="svg1"
   xmlns="http://www.w3.org/2000/svg"
   xmlns:svg="http://www.w3.org/2000/svg">
  <defs
     id="defs1">
    <rect
       x="256.66667"
       y="116.66667"
       width="508.33333"
       height="661.66667"
       id="rect3" />
  </defs>
  <text
     xml:space="preserve"
     transform="scale(0.26458333)"
     id="text3"
     style="text-align:start;writing-mode:lr-tb;direction:ltr;white-space:pre;shape-inside:url(#rect3);display:inline;fill:#000000;stroke-width:19.5213" />
  <path
     style="fill:#000000;stroke-width:5.16501"
     id="path9"
     d="m 83.451405,48.409846 c 0.752703,0.590476 1.37405,1.319205 2.065055,1.973702 0.409964,0.331065 0.83463,0.641879 1.235794,0.984043 0.354306,0.304102 0.687197,0.631952 1.01631,0.962819 0.258225,0.422415 0.61242,0.751414 0.978664,1.078632 0.286542,0.230437 0.528815,0.505894 0.772639,0.779315 0.238123,0.331983 0.484444,0.663628 0.768882,0.957593 0.430326,0.388115 0.822783,0.808786 1.201526,1.246717 0.301712,0.340299 0.526881,0.739362 0.80664,1.096092 0.268389,0.327522 0.510861,0.672835 0.789634,0.992264 0.302207,0.350149 0.641818,0.665046 0.938768,1.019461 0.358269,0.499157 0.590928,1.073943 0.892222,1.606597 0.319903,0.403916 0.656135,0.767527 0.934212,1.205873 0.252622,0.337738 0.42976,0.690713 0.508799,1.104157 0.06064,0.534656 0.05528,1.074547 0.05229,1.611902 -0.0021,0.404119 -0.0042,0.808265 -0.0096,1.212358 0.0075,0.35827 -0.03346,0.715928 0.05383,1.064842 0.171111,0.367014 0.281,0.747898 0.339979,1.14735 0.147756,0.499414 0.319627,0.987292 0.414192,1.500738 0.04994,0.545801 0.09084,1.078288 0.210698,1.614537 0.124243,0.490159 0.230965,0.983203 0.280569,1.486689 0.135245,0.587912 0.307695,1.163455 0.394089,1.761625 0.07179,0.589383 0.07242,1.184171 0.07871,1.776973 -0.02278,0.594445 -0.01042,1.167707 0.12568,1.747099 0.160205,0.606394 0.239876,1.22605 0.284517,1.850184 0.03281,0.680384 0.03721,1.36198 0.03541,2.043054 0.0021,0.816766 0.0028,1.633506 -0.0041,2.450256 0.06002,0.997273 -0.08717,1.979417 -0.18387,2.968911 -0.114146,1.411171 -0.400978,2.799461 -0.548933,4.207073 -0.169175,1.385525 -0.36077,2.762205 -0.447188,4.157716 -0.103058,2.16086 -0.09404,4.325952 -0.112927,6.488922 -0.0078,2.13757 0.004,4.27507 -2.65e-4,6.41268 0.01881,2.80171 -0.01434,5.60382 0.08948,8.40383 0.17975,3.89103 0.287732,7.78438 0.341294,11.67903 -0.03271,3.58963 -0.4235,7.16494 -0.757433,10.73598 -0.343712,3.95238 -0.379315,7.91345 -0.298916,11.87637 0.06451,1.95156 0.04367,3.90417 0.276376,5.84441 0.177946,1.83702 0.466929,3.65902 0.780854,5.47709 0.503746,2.64497 1.075373,5.28025 1.749047,7.88758 0.601357,2.05835 1.279627,4.10495 2.104707,6.08496 0.85705,1.78773 1.95571,3.44106 3.09474,5.05772 0.72977,0.98342 1.38252,2.01989 2.10901,3.00562 0.80915,1.02371 1.56815,2.09602 2.48561,3.0264 0.96421,0.87941 1.93894,1.75275 3.02321,2.48251 0.73257,0.42212 1.53549,0.60832 2.36735,0.68726 2.33161,0.77019 2.71188,-0.0974 4.31759,-0.37968 0.42278,7.9e-4 0.76041,-0.13376 1.13243,-0.3208 0.41634,-0.0728 0.76479,-0.25578 1.14844,-0.42402 1.4888,-0.51635 3.06493,-0.66955 4.62283,-0.82992 1.71673,-0.14868 3.38465,-0.56404 5.06796,-0.90351 0.73964,-0.0848 1.36301,-0.49478 2.01884,-0.81062 0.66189,-0.33665 1.32933,-0.66709 2.0062,-0.98656 0.74641,-0.3791 1.45769,-0.83853 2.15462,-1.30415 0.88966,-0.49768 1.6171,-1.20747 2.39656,-1.85149 1.09124,-0.94101 2.16499,-1.90361 3.24261,-2.86174 1.09384,-0.79988 2.03737,-1.76909 3.09116,-2.61611 1.05381,-0.8255 2.10947,-1.63104 3.08901,-2.5408 0.6186,-0.48311 1.0358,-1.14643 1.60709,-1.67246 0.55624,-0.58011 0.887,-1.31324 1.30864,-1.98581 0.65453,-1.04529 1.2244,-2.13948 1.67376,-3.28854 0.51632,-0.97591 0.66262,-2.05315 0.8959,-3.11292 0.23443,-1.07979 0.42219,-2.17036 0.37726,-3.27718 -0.0499,-0.9938 -0.21199,-1.95934 -0.48469,-2.91389 -0.1408,-0.83969 -0.67003,-1.49747 -1.07257,-2.22013 -0.44857,-0.84203 -0.88901,-1.68722 -1.41434,-2.48493 -0.66396,-0.86261 -1.25328,-1.77734 -1.88989,-2.65967 -0.39232,-0.69345 -0.88207,-1.31397 -1.39208,-1.92349 -0.52959,-0.60034 -1.08705,-1.18528 -1.70257,-1.69906 -1.28121,-0.93317 -2.50616,-1.93978 -3.76859,-2.89751 -1.49023,-1.15436 -3.16982,-1.98207 -4.84352,-2.82827 -1.42204,-0.76861 -2.87693,-1.47419 -4.26843,-2.29805 -0.54359,-0.32491 -1.1277,-0.56665 -1.70049,-0.832 -0.50942,-0.34295 -1.07784,-0.54283 -1.6574,-0.73346 -0.99725,-0.38525 -2.00446,-0.73933 -3.04455,-0.98914 -1.08835,-0.38758 -2.22359,-0.60355 -3.34462,-0.87923 -2.70221,-0.6147 -5.41707,-1.18177 -8.15362,-1.62165 -2.26139,-0.2681 -4.54285,-0.29573 -6.81737,-0.32292 -2.47447,-0.0117 -4.94725,-0.0935 -7.41118,0.14315 0,0 2.89371,0.4312 2.89371,0.4312 v 0 c 0.82961,-0.0726 1.64715,-0.11756 2.48003,-0.11877 0.24902,-2.6e-4 0.99607,3e-5 0.74705,-2.6e-4 -0.5314,-8e-4 -3.75953,-0.003 -1.59421,-0.001 2.27741,0.0149 4.5605,0.0383 6.82734,0.27875 2.73688,0.41066 5.45083,0.96303 8.14474,1.59572 1.10239,0.28421 2.23308,0.46576 3.29011,0.89407 1.04648,0.21992 2.06756,0.53961 3.05196,0.9597 0.56245,0.1837 1.14302,0.33802 1.62879,0.68746 0.54598,0.31812 1.17423,0.48315 1.71595,0.81615 1.41945,0.82201 2.89731,1.52931 4.3404,2.308 1.6557,0.84277 3.31659,1.66721 4.8129,2.78046 1.25993,0.93636 2.45428,1.95616 3.71409,2.89303 0.6274,0.48317 1.17072,1.06302 1.70941,1.63994 0.50721,0.60394 1.00385,1.21525 1.39127,1.90421 0.64805,0.87074 1.22915,1.78676 1.88776,2.64979 0.54668,0.77296 0.9641,1.62286 1.41037,2.4554 0.37957,0.71393 0.92807,1.33668 1.06342,2.15855 0.28774,0.92763 0.45616,1.86649 0.50146,2.83954 0.0405,1.08132 -0.14759,2.14837 -0.37866,3.20252 -0.22435,1.04609 -0.39368,2.10012 -0.89012,3.06559 -0.4485,1.13249 -1.01867,2.20826 -1.67603,3.23357 -0.41331,0.6571 -0.75584,1.36664 -1.32416,1.91122 -0.54642,0.54031 -0.97184,1.19366 -1.58564,1.6709 -0.96697,0.90829 -2.03541,1.69114 -3.07042,2.52029 -1.05443,0.8455 -1.99889,1.81662 -3.08014,2.63188 -1.08259,0.9628 -2.17229,1.91739 -3.28067,2.85014 -0.76426,0.65267 -1.51162,1.32508 -2.39689,1.81572 -0.69889,0.44588 -1.38813,0.91809 -2.14457,1.26178 -0.68613,0.30996 -1.33749,0.67664 -2.01974,0.99177 -0.63761,0.31728 -1.26453,0.65515 -1.98538,0.74019 -1.66038,0.35634 -3.31561,0.73398 -5.0124,0.88212 -1.59123,0.17435 -3.21238,0.3339 -4.71938,0.90886 -0.37816,0.16753 -0.76809,0.27794 -1.15211,0.42915 -0.36387,0.15365 -0.7392,0.18538 -1.12386,0.26077 -1.15687,0.33811 -3.20966,0.71465 1.57871,0.33495 -0.82274,-0.0442 -1.62199,-0.16897 -2.37124,-0.538 -1.10593,-0.68149 -2.05866,-1.56194 -3.02765,-2.42115 -0.93292,-0.89432 -1.68117,-1.95852 -2.4615,-2.98491 -0.75151,-0.97395 -1.41048,-2.01252 -2.15088,-2.99456 -1.14172,-1.59448 -2.24228,-3.22612 -3.10287,-4.99404 -0.84382,-1.95865 -1.50015,-4.00164 -2.11248,-6.04317 -0.69744,-2.593 -1.29767,-5.2162 -1.76727,-7.85977 -0.28349,-1.81664 -0.5424,-3.63667 -0.726579,-5.46573 -0.238781,-1.93103 -0.269335,-3.87407 -0.358642,-5.81677 -0.139288,-3.95115 -0.111737,-7.90325 0.284159,-11.84175 0.340992,-3.5807 0.717602,-7.16762 0.749892,-10.76729 -0.0732,-3.89539 -0.17646,-7.7898 -0.33618,-11.68272 -0.06,-2.7985 -0.0255,-5.59677 -0.0197,-8.39572 -0.007,-2.13714 -0.001,-4.27416 7.9e-4,-6.4113 -0.001,-2.15728 0.003,-4.316049 0.12871,-6.47045 0.10153,-1.390915 0.31448,-2.762422 0.46799,-4.146394 0.14966,-1.407081 0.41554,-2.797905 0.54361,-4.20705 0.11414,-0.998058 0.27096,-1.991357 0.21682,-2.999652 -0.005,-0.816906 -0.003,-1.633778 8e-4,-2.450679 -0.003,-0.688012 0.0113,-1.376458 -0.0278,-2.06379 -0.0443,-0.640178 -0.12726,-1.275419 -0.28664,-1.898206 -0.13251,-0.55812 -0.14456,-1.106815 -0.12323,-1.680503 -0.003,-0.605462 -0.0131,-1.213287 -0.0797,-1.815404 -0.0783,-0.594281 -0.24176,-1.165794 -0.38865,-1.745658 -0.0361,-0.518914 -0.16058,-1.023874 -0.29037,-1.52654 -0.11673,-0.533461 -0.15196,-1.061466 -0.19999,-1.604602 -0.0951,-0.508463 -0.242045,-0.998829 -0.41304,-1.486654 -0.0526,-0.412475 -0.142946,-0.822749 -0.337259,-1.194049 -0.117914,-0.305144 -0.02347,-0.654738 -0.04949,-0.976424 -0.0024,-0.404463 2.24e-4,-0.80895 2.09e-4,-1.213421 -0.0029,-0.555821 -4.3e-5,-1.112555 -0.04746,-1.666867 -0.08198,-0.451085 -0.22786,-0.856225 -0.520259,-1.217988 C 98.542365,61.705357 98.277377,61.289408 97.88614,60.945987 97.549657,60.424633 97.346044,59.823243 96.995288,59.308901 96.7307,58.919776 96.367562,58.618238 96.056986,58.265525 95.773051,57.949522 95.516175,57.615068 95.270049,57.2689 c -0.334195,-0.306763 -0.496237,-0.762674 -0.811848,-1.088577 -0.38618,-0.443693 -0.7689,-0.88518 -1.202565,-1.280444 -0.307737,-0.245964 -0.524084,-0.594574 -0.757362,-0.900771 -0.203356,-0.322739 -0.506465,-0.585028 -0.785466,-0.842222 -0.365019,-0.316994 -0.768765,-0.607655 -0.968618,-1.061899 -0.338471,-0.33073 -0.673407,-0.665208 -1.022379,-0.984949 -0.402717,-0.342207 -0.80834,-0.680603 -1.246587,-0.977302 -0.735217,-0.606163 -1.327269,-1.382027 -2.06569,-1.98855 z" />
</svg>
