<?xml version="1.0" encoding="UTF-8" standalone="no"?>
<!-- Created with Inkscape (http://www.inkscape.org/) -->

<svg
   width="1000"
   height="1000"
   viewBox="0 0 264.58333 264.58333"
   version="1.1"
   id="svg1"
   xmlns="http://www.w3.org/2000/svg"
   xmlns:svg="http://www.w3.org/2000/svg">
  <defs
     id="defs1" />
  <path
     style="fill:#000000;stroke-width:26.4583"
     id="path1"
     d="m 165.29432,45.794054 c -3.07884,-0.353074 -6.14941,-0.770872 -9.21822,-1.206686 -1.83466,-0.332904 -3.71321,-0.410334 -5.5451,-0.753541 -0.74629,-0.214995 -1.49943,-0.367525 -2.27198,-0.443984 -4.49115,-0.266808 -9.09229,-0.06291 -13.5189,-0.06234 -4.25146,0.03973 -10.77636,0.02146 8.58736,0.0087 -1.82625,-0.285571 -3.65803,-0.338942 -5.50481,-0.367999 -2.96974,-0.02506 -5.93933,-0.06299 -8.90903,-0.09149 -4.44738,-0.05535 -6.06722,-0.07852 -12.86784,-0.01738 -0.11107,0.0011 -0.84256,0.208367 -0.98103,0.237956 -0.12966,0.02771 -0.74988,0.123073 -0.88837,0.144767 -0.13778,0.01447 -0.27799,0.01384 -0.41332,0.04344 -1.41715,0.309989 0.58274,-0.0041 -0.99655,0.253762 -0.6357,0.103801 -1.28072,0.153025 -1.92169,0.210833 -1.07058,0.08184 -2.14519,0.07829 -3.21816,0.07648 -0.70428,0.338363 -1.41739,0.39618 -2.18183,0.452171 -0.11331,0.0069 -0.22948,-0.0055 -0.33992,0.02072 -0.25242,0.05991 -0.48029,0.199294 -0.72968,0.27075 -0.34832,0.0998 -0.71058,0.132445 -1.06826,0.180568 -0.63605,-0.122933 -1.00666,0.416734 -1.59537,0.50052 -0.0845,0.0016 -0.1748,-0.02604 -0.25365,0.0045 -0.19243,0.07457 -0.3184,0.268129 -0.50206,0.362236 -0.18286,0.0937 -0.4285,0.135684 -0.62618,0.194511 -0.414841,-0.14769 -0.529057,0.138862 -0.858169,0.305684 -0.128619,0.06519 -0.277117,0.07988 -0.415351,0.120925 -0.115972,0.203684 -0.480034,-0.03851 -0.604655,0.03263 -0.147085,0.08396 -0.239832,0.241085 -0.376253,0.34145 -0.45365,0.0901 -0.916594,0.110106 -1.378196,0.114194 -0.07571,-0.0031 -0.154938,-0.0324 -0.227116,-0.0093 -0.198525,0.06341 -0.353179,0.227947 -0.549124,0.298929 -0.291333,0.10554 -0.614143,0.110723 -0.91889,0.132495 -0.615466,0.09706 -1.267772,-0.08828 -1.821355,0.209616 -0.43946,0.247055 -0.916567,0.354275 -1.41397,0.323864 -0.07885,2.54e-4 -0.162177,-0.02543 -0.236548,7.93e-4 -0.190376,0.06706 -0.331452,0.237091 -0.518721,0.312394 -0.309023,0.124262 -0.476589,0.115327 -0.756976,0.324427 -0.409218,0.110929 -0.612801,0.456131 -0.940763,0.682908 -0.459335,0.317616 0.07005,-0.269571 -0.402386,0.333277 -0.603041,0.03661 -1.011341,0.510614 -1.555271,0.67406 -0.122772,0.255593 -0.480658,0.379931 -0.654857,0.522894 -0.257969,0.211714 -0.363921,0.490117 -0.653651,0.684831 -0.421211,0.329999 -0.872159,0.821526 -1.191156,1.25526 -0.157589,0.264237 -0.361794,0.4723 -0.577522,0.686197 -0.17702,0.313775 -0.166156,0.584811 -0.392563,0.868053 -0.127105,0.48005 -0.450789,0.710015 -0.607393,1.204783 -0.157104,0.416385 -0.227198,0.861052 -0.234532,1.305034 0.0098,0.512241 0.006,1.024128 0.02376,1.536316 0.0052,0.845793 0.03888,1.679649 0.170608,2.515547 0.260157,0.771133 0.533654,1.525868 0.766284,2.305516 0.296471,0.861306 0.416975,1.766268 0.643297,2.646799 0.376373,1.008033 0.57762,2.063541 0.912358,3.08366 0.233513,0.974545 0.483989,1.945669 0.698693,2.925048 0.10228,0.788001 0.464097,1.512909 0.838459,2.204461 0.568402,0.815097 1.0756,1.670854 1.630296,2.494648 0.33423,0.516993 0.777013,0.882766 1.255612,1.234471 0.125503,0.09159 0.281271,0.43492 0.458645,0.467924 0.03665,0.0068 0.05509,-0.08364 0.08888,-0.06789 0.127135,0.05926 0.183386,0.212762 0.283904,0.310587 0.356076,0.296857 0.745397,0.550375 1.133268,0.809683 0.34425,-0.02654 0.578607,0.289129 0.87838,0.40762 0.274251,0.03903 0.146092,0.0013 0.386133,0.107299 0.542015,0.451265 1.241205,0.636981 1.85217,0.963625 0.511773,0.164264 0.838481,0.51149 1.226717,0.862997 1.041583,0.381516 2.072592,0.79502 3.041904,1.336434 0.7543,0.311531 1.4494,0.764583 2.20994,1.059106 0.26833,0.01445 0.69695,0.622536 0.91359,0.605595 0.0462,-0.0036 0.0618,-0.0691 0.0926,-0.103646 0.49837,0.516922 1.21626,0.689436 1.84999,0.991738 0.55661,0.344448 1.19998,0.468815 1.78339,0.744244 0.40913,0.3585 0.85122,0.4103 1.35702,0.53463 0.69311,0.111945 1.29511,0.478637 1.96802,0.660289 1.25281,0.551027 2.5462,1.023133 3.83562,1.488593 1.5539,0.500862 3.03902,1.184461 4.5764,1.728539 1.01253,0.476568 1.86253,0.740056 2.96595,0.963626 1.86529,0.528846 3.6718,1.241597 5.52863,1.80317 0.83273,0.234675 1.67235,0.364672 2.458,0.730295 0.55274,0.278857 1.16647,0.220731 1.74558,0.385273 0.56332,0.246988 1.15579,0.31796 1.72587,0.551838 0.77422,0.304136 1.50335,0.700096 2.24844,1.0696 0.63573,0.163719 1.11444,0.596421 1.68182,0.890778 0.48859,0.155313 1.00901,0.315457 1.40478,0.647078 0.56268,0.333809 1.09669,0.743262 1.68205,1.062191 0.4459,0.345837 0.9421,0.556353 1.39216,0.88151 0.45898,0.149862 0.6604,0.510008 0.99648,0.814782 0.82701,0.87531 1.83587,1.56573 2.70537,2.41057 0.645,0.66218 1.30202,1.30946 1.96307,1.95513 0.5317,0.49233 1.04316,1.00687 1.55837,1.51776 0.56087,0.50199 1.19685,0.92428 1.6956,1.49031 0.45126,0.45831 0.89708,0.91817 1.31282,1.41363 0.3804,0.5183 0.84026,0.99922 1.11694,1.58351 0.49597,0.99974 1.08609,1.94044 1.53676,2.96378 0.34826,0.90338 0.7464,1.78596 1.12596,2.67643 0.23314,0.49041 0.3855,1.00958 0.43061,1.55028 0.0421,0.62497 0.0728,1.25208 0.062,1.87876 0.002,0.74338 0.008,1.48661 -0.0215,2.22952 -0.0298,0.64471 -0.0249,1.27359 0.13552,1.90166 0.15092,0.47268 0.24117,0.95423 0.29884,1.44563 0.06,0.47965 0.0225,0.92496 -0.08,1.39108 -0.19781,0.73814 -0.27457,1.50314 -0.29888,2.26543 0.007,0.76013 -0.21121,1.50481 -0.41573,2.23206 -0.10032,0.45223 -0.058,0.90476 -0.27484,1.31689 -0.15794,0.44448 -0.23689,0.90011 -0.44522,1.32219 -0.18063,0.50407 -0.54703,0.92016 -0.70261,1.44788 -0.0497,0.0962 -0.36922,0.73603 -0.45946,0.77606 -0.0384,0.017 -0.0734,-0.041 -0.11004,-0.0615 -0.0407,-0.003 -0.0925,-0.0376 -0.12209,-0.009 -0.0655,0.0624 -0.0613,0.1755 -0.12218,0.24238 -0.10803,0.11854 -0.20662,-0.0281 -0.32579,0.0339 -0.2771,0.28143 -0.12308,0.17558 -0.45272,0.33073 -0.56254,0.21187 -0.73496,0.63573 -1.37179,0.59695 -0.5905,0.34418 -1.26377,0.51032 -1.94255,0.54361 -0.21317,0.22826 -0.91104,0.32942 -1.12742,0.45314 -0.29939,0.29149 -0.13876,0.18019 -0.4701,0.35029 -0.55349,0.29705 -1.00229,0.0424 -1.58143,0.31651 -0.7265,0.27854 -1.48758,0.29504 -2.2543,0.29955 -1.00916,0.0246 -2.01878,0.0252 -3.02809,0.0116 19.84388,0.0564 14.19069,0.005 9.95889,-0.006 -24.00527,-3.83103 -7.75969,-0.89607 -12.56879,0.38173 -0.34984,0.093 -0.49037,0.0654 -0.78341,0.3022 -0.52988,0.27922 -1.12999,0.26981 -1.71209,0.29583 -0.52448,0.32888 -1.08612,0.46032 -1.6961,0.46992 -0.56955,0.32445 -1.19556,0.42998 -1.83614,0.49383 -0.0888,5.3e-4 -0.18106,-0.0229 -0.26645,0.002 -0.21239,0.0608 -0.38638,0.219 -0.59471,0.29252 -0.26679,0.0941 -0.55332,0.1405 -0.83326,0.165 -0.22895,0.10205 -0.527,-0.0544 -0.75378,0.0273 -0.27437,0.0989 -0.45692,0.30419 -0.75378,0.38497 -0.7069,0.0859 -1.41977,0.0801 -2.13074,0.0826 -4.46172,0.017 -12.11082,0.005 7.9096,0.003 -0.74428,7.9e-4 -1.48845,-0.0129 -2.23271,-0.0147 -0.12554,7.9e-4 -0.25109,0.001 -0.37663,0.003 -4.04135,0.0438 -8.08313,0.059 -12.12404,0.13262 -0.17414,0.003 -0.34121,0.0708 -0.51329,0.0977 -0.63203,0.0986 -1.27334,0.13372 -1.91049,0.18165 -1.0017,0.069 -2.00581,0.0779 -3.00942,0.0779 -6.90621,-0.007 15.16604,-0.009 9.00419,-0.002 -1.20865,0.001 -2.41724,0.007 -3.62588,0.004 -1.03162,0.0669 -2.03159,-0.0529 -3.04686,-0.21415 -0.96998,-0.15807 -1.95223,-0.23298 -2.93434,-0.24455 -0.79326,-0.0964 -1.57184,-0.27785 -2.36118,-0.40048 -0.58084,-0.10409 -1.17168,-0.10808 -1.75968,-0.11803 -0.9481,0.0443 -1.88982,-0.19998 -2.82784,-0.32901 -0.92244,-0.13381 -1.85395,-0.0947 -2.77649,-0.20694 -3.552913,-0.64962 -7.114633,-1.22337 -10.685423,-1.76488 -2.010432,-0.30786 -4.012372,-0.6726 -6.027894,-0.9468 -1.241981,-0.16151 -2.49687,-0.10617 -3.745447,-0.1931 -1.339352,-0.13265 -2.656774,-0.42104 -3.976439,-0.6772 -0.336142,-0.10388 -0.535776,-0.1036 -0.841176,0.0125 0,0 -11.864491,1.14336 -11.864491,1.14336 v 0 c 0.344247,0.48795 0.455639,0.49636 1.053616,0.5113 1.422268,0.15763 2.828634,0.43959 4.231243,0.7175 1.184812,0.11718 2.354522,0.23743 3.546785,0.20827 2.256401,0.13814 4.494828,0.47867 6.732865,0.78422 3.356954,0.49276 6.712921,0.95644 10.010465,1.77838 0.232439,0.0769 0.816734,0.2854 1.089803,0.32514 0.524229,0.0763 1.080971,-0.0552 1.606896,0.0333 0.930106,0.0592 1.885847,0.14005 2.767889,0.45389 0.579993,-0.005 1.159997,-0.0164 1.739945,-0.008 0.827862,0.06 1.651723,0.14539 2.457503,0.35622 0.96083,0.25023 1.9678,0.0868 2.94856,0.24032 1.05201,0.12557 2.0589,0.46026 3.1257,0.36573 1.18144,-0.002 2.36281,0.003 3.54423,0.008 4.75193,0.0168 9.50422,0.0424 14.2559,-0.008 0.97141,-0.0253 1.94152,-0.0848 2.90824,-0.18525 0.6621,-0.0706 1.32045,-0.15722 1.98077,-0.24148 0.17931,-0.0229 0.7196,-0.0603 0.53884,-0.061 -23.8542,-0.0969 -14.53758,-0.0129 -10.85001,0.0208 0.79464,-5.3e-4 1.58925,-0.0111 2.3839,-0.009 5.07493,-1.2e-4 10.1575,0.05 15.23437,-0.0309 0.78994,-0.0362 1.58919,-0.0902 2.32294,-0.41478 0.48565,-0.19682 0.98817,-0.0695 1.48145,-0.28266 0.56126,-0.19464 1.10364,-0.37888 1.69664,-0.41329 0.60348,-0.16048 1.18263,-0.44485 1.814,-0.46515 0.56061,-0.1569 1.09801,-0.45781 1.69142,-0.43148 0.6222,-0.12286 1.19921,-0.35666 1.77361,-0.62129 0.45121,0.01 0.83765,-0.26768 1.29148,-0.27618 -3.81605,0.0198 -7.63209,0.0395 -11.44814,0.0593 4.48566,0.005 8.97124,-0.0113 13.45706,-3e-5 0.97007,-0.02 1.94063,-0.0351 2.90931,-0.0947 0.82592,-0.0815 1.60957,-0.27654 2.40638,-0.5039 0.62183,-0.0171 1.13578,-0.25789 1.65023,-0.59554 0.43596,-0.23833 1.03838,-0.37666 1.53729,-0.4449 0.65616,-0.20531 1.27839,-0.50192 1.94101,-0.68141 0.48271,-0.28954 0.93269,-0.61088 1.43033,-0.87542 0.0864,-0.061 0.17275,-0.122 0.25912,-0.183 0.0708,-0.024 0.15013,-0.0307 0.21227,-0.0722 0.0897,-0.0599 0.15502,-0.14996 0.23253,-0.22494 0.0553,-0.0665 0.0957,-0.14907 0.16595,-0.19957 0.0289,-0.0208 0.0711,0.002 0.10668,0.004 0.044,-0.0611 0.0879,-0.12216 0.13192,-0.18324 0.19056,-0.41943 0.45246,-0.79532 0.56932,-1.24378 0.25334,-0.45481 0.4878,-0.92063 0.68584,-1.40196 0.17004,-0.45034 0.28732,-0.91583 0.45898,-1.36477 0.14956,-0.49485 0.1845,-0.99357 0.25687,-1.50275 0.12034,-0.80483 0.3301,-1.59935 0.35198,-2.41615 0.0585,-0.69268 0.13646,-1.38421 0.33246,-2.05349 0.15206,-0.58974 0.20597,-1.1701 0.12487,-1.7767 -0.0383,-0.56077 -0.13448,-1.1217 -0.32717,-1.65107 -0.15113,-0.52437 -0.14931,-1.03784 -0.13683,-1.58778 -0.0269,-0.74252 -0.0176,-1.4852 -0.0102,-2.22806 -0.008,-0.67064 0.0505,-1.34007 0.005,-2.01047 -0.087,-0.67385 -0.22036,-1.32876 -0.52335,-1.94482 -0.45747,-0.86703 -0.82418,-1.78044 -1.25758,-2.65757 -0.47079,-0.9766 -0.90036,-1.97397 -1.35594,-2.95542 -0.30005,-0.70816 -0.67974,-1.33098 -1.19629,-1.90249 -0.42642,-0.52085 -0.77045,-1.0949 -1.2725,-1.53085 -0.64655,-0.55173 0.22199,0.22101 -0.48592,-0.54012 -0.36471,-0.39214 -0.85559,-0.66306 -1.24295,-1.03074 -0.58705,-0.42778 -1.07159,-0.98097 -1.55749,-1.52438 -0.32456,-0.23236 -0.55117,-0.52619 -0.85626,-0.77922 -0.42797,-0.35493 -0.89477,-0.66601 -1.25565,-1.10283 -0.82481,-0.76161 -1.62637,-1.55973 -2.47759,-2.275743 -0.67011,-1.035384 0.21823,0.251711 -0.33293,-0.352671 -0.24722,-0.27109 -0.27758,-0.719744 -0.68095,-0.842148 -0.0282,-0.01564 -0.39837,-0.21966 -0.41705,-0.235566 -0.0851,-0.07249 -0.13254,-0.185291 -0.22383,-0.249862 -0.23872,-0.168849 -0.62985,-0.108347 -0.81316,-0.387252 -0.28737,-0.211323 -0.60742,-0.328428 -0.89648,-0.528791 -0.10258,-0.07111 -0.17435,-0.183539 -0.28262,-0.245629 -0.0743,-0.04258 -0.17947,-0.01085 -0.24978,-0.05967 -0.0885,-0.06149 -0.13401,-0.16892 -0.20101,-0.253383 -0.30437,-0.116158 -0.39954,-0.353809 -0.66799,-0.517202 -0.23132,-0.140793 -0.58242,-0.147881 -0.77392,-0.385543 -0.17056,-0.03058 -0.34672,-0.03575 -0.51281,-0.08514 -0.47296,-0.140655 -0.72626,-0.676154 -1.25093,-0.711727 -0.78426,-0.280183 -1.47406,-0.748429 -2.23781,-1.054581 -0.55309,-0.265671 -1.02107,-0.629256 -1.65419,-0.656614 -0.63029,-0.259141 -1.05826,-0.478473 -1.76495,-0.423741 -0.51229,-0.08006 -0.89855,-0.385056 -1.39455,-0.514114 -0.19906,-0.05179 -0.40713,-0.05921 -0.60989,-0.0938 -0.24678,-0.04211 -0.49239,-0.09085 -0.73858,-0.136284 -1.87806,-0.438896 -3.72231,-1.016495 -5.47706,-1.825742 -0.97842,-0.299458 -1.98969,-0.370969 -2.91676,-0.845904 -1.57793,-0.602922 -3.19287,-1.116177 -4.77014,-1.728156 -1.19519,-0.393173 -2.34025,-0.905425 -3.47049,-1.443807 -0.33785,-0.200401 -0.62114,-0.238985 -0.98353,-0.370038 -1.13948,-0.412068 0.55441,0.155715 -0.65621,-0.364337 -0.10541,-0.04528 -0.22473,-0.04632 -0.3371,-0.06948 -0.2017,-0.06968 -0.38414,-0.197252 -0.59291,-0.241514 -0.23177,-0.04914 -0.48674,0.156554 -0.69468,-0.07285 -0.62518,-0.349436 -1.19641,-0.601075 -1.88919,-0.791544 -0.56621,-0.247171 -1.09376,-0.563274 -1.67019,-0.704897 -0.0464,-0.09763 -0.0656,-0.213649 -0.13906,-0.292891 -0.0331,-0.03563 -1.04604,-0.143592 -0.96894,-0.401683 -0.66691,-0.491953 -1.59224,-0.743696 -2.33459,-1.100759 -1.38452,-0.627116 0.46749,0.242623 -0.96891,-0.541303 -0.6146,-0.335423 -1.3011,-0.539512 -1.91401,-0.8807 -0.61039,0.06343 -0.76474,-0.615376 -1.2918,-0.786752 -0.44051,-0.211437 -0.2236,-0.08485 -0.64666,-0.386659 -0.34807,-0.17063 -0.77104,-0.24501 -1.1214,-0.424236 -0.14542,-0.132519 -0.25791,-0.310084 -0.43144,-0.402783 -0.0667,-0.03562 -0.15263,-0.0036 -0.22559,-0.02342 -0.2514,-0.06826 -0.47994,-0.210185 -0.64179,-0.412033 -0.40921,0.0082 -0.75405,-0.203943 -1.06453,-0.431464 -0.084,-0.04684 -0.20284,-0.04904 -0.25918,-0.127026 -0.27316,-0.378071 -0.0315,-0.29259 -0.57918,-0.421198 -0.037,-0.04559 -0.34116,-0.423453 -0.36538,-0.441738 -0.30695,-0.231672 -0.77308,-0.241612 -0.96597,-0.66104 -0.658061,-0.6867 -1.144114,-1.51655 -1.633472,-2.32885 -0.375679,-0.567825 -0.652909,-1.196303 -0.83975,-1.840301 -0.241128,-1.000556 -0.575657,-1.977308 -0.745641,-2.995261 -0.270296,-1.018452 -0.625118,-2.01595 -0.883465,-3.040022 -0.228102,-0.90265 -0.385347,-1.816622 -0.616807,-2.719136 -0.254333,-0.728965 -0.332901,-1.506154 -0.763056,-2.168742 -0.184949,-0.756674 -0.142446,-1.515814 -0.109363,-2.289943 0.01416,-0.490185 1.8e-4,-0.98113 0.03543,-1.470218 0.031,-0.300103 0.05293,-0.595876 0.198107,-0.86919 0.250701,-0.334349 0.424477,-0.690026 0.626764,-1.049259 0.138377,-0.274677 0.168171,-0.563798 0.396441,-0.65805 0.18806,-0.239998 0.34948,-0.49684 0.537416,-0.736653 0.349155,-0.373285 0.711782,-0.725707 1.117211,-1.041561 0.372465,-0.372568 0.81348,-0.725583 1.307971,-0.908781 0.528801,-0.346905 1.162364,-0.506404 1.601954,-0.988607 0.44156,-0.194786 0.80454,-0.555816 1.29468,-0.67581 0.33354,-0.05499 0.65597,-0.266993 0.99165,-0.273502 0.0857,-0.0016 0.16943,0.03417 0.2551,0.03206 0.0804,-0.0019 0.1582,-0.02945 0.2373,-0.04418 0.46526,-0.139948 0.91092,-0.377327 1.39983,-0.419298 0.59587,0.08946 1.19929,-0.0605 1.78659,-0.162708 0.59178,-0.151294 1.14065,-0.392652 1.75599,-0.339267 0.50294,-0.101513 1.00063,-0.252233 1.43909,-0.525394 0.55228,-0.123846 -0.21148,0.01543 0.35619,0.02109 0.21597,0.0021 0.38851,-0.26942 0.60554,-0.291587 0.14283,-0.0671 0.27526,-0.157199 0.42307,-0.212489 0.28347,-0.106037 0.62113,0.06871 0.86507,-0.217646 0.2592,-0.125918 0.52929,-0.336736 0.81639,-0.381299 0.0807,-0.01254 0.16547,0.0097 0.2449,-0.0094 0.10015,-0.02405 0.19039,-0.07868 0.28558,-0.118023 0.50777,-0.259271 0.97173,-0.236344 1.52251,-0.340876 0.70022,-0.162415 1.37964,-0.390821 2.10506,-0.399251 0.71117,-0.113228 1.39457,-0.406598 2.12153,-0.336664 1.05675,-0.02469 2.11547,-0.05785 3.16373,-0.204684 1.15067,-0.15584 2.28808,-0.377441 3.43336,-0.561076 0.42824,-0.0792 0.86095,-0.186936 1.29762,-0.206271 0.15041,-0.0067 0.60221,0.0054 0.45165,0.0053 -11.67511,-0.0035 -14.46951,0.02874 -10.00806,-0.01754 3.06801,-0.02008 6.13662,-0.0365 9.20429,0.02318 1.67859,0.0425 3.36286,0.03157 5.01543,0.369498 4.87917,0.04285 9.75795,0.104066 14.63715,0.116504 -19.92382,0.0013 -14.11731,0.01638 -9.86291,-0.0091 0.77604,0.01548 1.5611,0.0089 2.31127,0.239345 2.03177,0.537945 4.16616,0.410562 6.23392,0.762669 2.81925,0.360487 5.62266,0.828818 8.43183,1.244571 z" />
</svg>
