<?xml version="1.0" encoding="UTF-8" standalone="no"?>
<!-- Created with Inkscape (http://www.inkscape.org/) -->

<svg
   width="1000"
   height="1000"
   viewBox="0 0 264.58333 264.58333"
   version="1.1"
   id="svg1"
   xmlns="http://www.w3.org/2000/svg"
   xmlns:svg="http://www.w3.org/2000/svg">
  <defs
     id="defs1" />
  <path
     style="fill:#000000;stroke-width:0.197788"
     id="path3"
     d="m 156.0548,80.122944 c -0.0792,-0.169125 -0.14261,-0.348558 -0.23773,-0.507377 -0.73734,-1.231091 -2.21602,-2.436712 -3.235,-3.393522 -3.61516,-3.576813 -7.94495,-6.072392 -12.25924,-8.493433 -1.31723,-0.781747 -2.77275,-1.084174 -4.22074,-1.407567 -1.57453,-0.35166 -0.8436,-0.220314 -2.45953,-0.424827 -0.42887,-0.0114 -0.85827,-0.06059 -1.28661,-0.03418 -0.89403,0.05512 -2.05167,0.338156 -2.91597,0.530805 -0.52465,0.116942 -1.05357,0.213744 -1.57265,0.357828 -1.09235,0.303207 -2.22979,0.754477 -3.29443,1.15191 -3.57241,1.481313 -6.95178,3.435092 -10.22516,5.586653 -0.60218,0.43075 -1.21258,0.847796 -1.80655,1.292248 -0.6359,0.475825 -1.25368,0.980583 -1.88232,1.468036 -1.84802,1.432943 -3.74049,2.826099 -5.43738,4.480316 -0.57375,0.559323 -1.10571,1.168908 -1.65857,1.75336 -1.64541,1.78775 -3.29705,3.584983 -4.797681,5.525614 -0.509739,0.659197 -0.980829,1.353741 -1.475421,2.02688 -1.260668,1.715775 -1.498433,2.017881 -2.748463,3.668527 -2.209676,2.722779 -3.878529,5.885329 -5.474512,9.068635 -1.023605,1.9824 -1.712689,4.13887 -2.416874,6.275 -0.918294,2.78566 -0.358595,1.03377 -1.240078,3.85287 -0.170451,0.73173 -0.849821,3.56951 -0.95339,4.3264 -0.108744,0.79473 -0.136751,1.60083 -0.175719,2.40344 -0.0821,1.69088 -0.07765,2.84141 0.04717,4.52064 0.05046,0.67881 0.142659,1.35305 0.213988,2.02958 0.367692,2.5478 0.902042,5.12427 2.033353,7.40667 0.187455,0.37819 0.407499,0.73551 0.611247,1.10326 1.507227,2.26604 3.615858,3.9059 5.803993,5.28825 2.928204,1.84986 5.8732,3.66708 8.809807,5.50063 2.42817,1.2541 4.94588,2.30474 7.56691,2.94783 1.99722,0.49003 2.88999,0.56964 4.95489,0.87516 5.22385,0.70685 10.51777,0.60008 15.7418,-0.057 1.09879,-0.1382 2.1907,-0.33645 3.28605,-0.50467 2.63619,-0.60133 3.81576,-0.80329 6.39126,-1.65633 1.00694,-0.3335 2.02103,-0.65914 2.98747,-1.1161 3.06511,-1.4493 5.73005,-3.67706 8.38391,-5.85571 3.05454,-2.72283 6.09994,-5.58533 8.42301,-9.11631 1.54909,-2.35457 1.79765,-3.12084 3.03307,-5.73156 1.34542,-3.04788 2.43159,-6.21487 3.111,-9.52533 0.46997,-2.28999 0.57071,-3.57001 0.83621,-5.86155 0,0 -7.53537,-4.33718 -7.53537,-4.33718 v 0 c -0.0451,0.94682 -0.0536,1.89664 -0.13535,2.84046 -0.37672,4.35056 -1.45876,8.55501 -3.24597,12.45803 -1.34393,2.56018 -1.56245,3.14343 -3.12882,5.49038 -2.2871,3.42684 -5.03354,6.44143 -8.00784,9.13696 -2.10495,1.77261 -2.99316,2.65453 -5.33104,4.07801 -3.73369,2.27337 -7.88448,3.50678 -12.05904,4.30584 -2.69606,0.43993 -3.75421,0.67202 -6.48854,0.87649 -4.17216,0.31199 -8.36704,0.10338 -12.49959,-0.5976 -2.15058,-0.42363 -3.06948,-0.54917 -5.13825,-1.16101 -2.66148,-0.78713 -5.227992,-1.92541 -7.687222,-3.29086 1.870184,1.21907 3.742828,2.43355 5.610552,3.65722 0.4855,0.31807 -0.98461,-0.61092 -1.463815,-0.94043 -1.177649,-0.80977 -2.31944,-1.72758 -3.301115,-2.81588 -0.271812,-0.30133 -0.514891,-0.63272 -0.772336,-0.94909 -0.224917,-0.34351 -0.465823,-0.67492 -0.674755,-1.03054 -1.30201,-2.21619 -2.032823,-4.77771 -2.579033,-7.32732 -0.276904,-1.71385 -0.440163,-2.41648 -0.517083,-4.18182 -0.12956,-2.97349 0.312952,-5.89183 1.2131,-8.69323 0.201996,-0.63651 0.390424,-1.27848 0.605984,-1.90953 0.928115,-2.7171 2.148415,-5.29859 3.194498,-7.95995 1.486005,-3.1817 3.192965,-6.22881 5.078965,-9.141379 1.06137,-1.634501 1.37729,-2.167455 2.54873,-3.770737 1.9239,-2.633113 4.01642,-5.105254 6.23944,-7.432252 1.23002,-1.212158 2.06364,-2.070574 3.35013,-3.196176 2.35256,-2.058344 4.87289,-3.865061 7.4679,-5.524841 3.34632,-1.964797 6.69885,-3.989056 10.31081,-5.302061 0.55089,-0.187627 1.0964,-0.395765 1.65268,-0.562878 2.4179,-0.726364 4.95431,-1.175249 7.4588,-0.881967 2.2589,0.412784 4.5232,0.915422 6.55364,2.143115 3.06372,1.797179 1.43975,0.860441 -5.80235,-3.78881 -0.27587,-0.177102 0.55339,0.351792 0.82072,0.544218 0.65623,0.472352 1.01091,0.803115 1.628,1.35076 0.28751,0.255166 0.57292,0.513214 0.85939,0.76982 1.53265,1.340017 0.22541,0.184066 1.69637,1.52063 0.73148,0.664652 1.49024,1.296472 2.09694,2.109196 z" />
  <path
     style="fill:#000000;stroke-width:0.221045"
     id="path4"
     d="m 159.26572,122.18285 c 0.26709,-0.59733 0.52927,-1.19279 0.76834,-1.80253 0.16566,-0.42254 0.3752,-1.21112 0.84529,-1.44913 0.37831,-0.19154 0.83099,-0.15998 1.24648,-0.23998 0.23219,-0.17873 0.51548,-0.30465 0.69655,-0.53621 0.16634,-0.21275 0.20409,-0.5019 0.31006,-0.75116 0.11104,-0.26118 0.23085,-0.51848 0.34093,-0.78006 0.37819,-0.89866 0.67928,-1.66358 1.13736,-2.53294 0.14731,-0.25988 0.31374,-0.50956 0.44193,-0.77963 0.01,-0.0204 0.59445,-1.54077 0.61456,-1.59065 0.27693,-0.68656 0.5883,-1.31318 0.97576,-1.9411 0.36322,-0.83287 0.4382,-1.74645 0.63118,-2.62513 0.33238,-1.51346 -0.009,0.34038 0.26631,-1.23541 0.0563,-1.86169 -0.25152,-3.7171 -0.60496,-5.53794 -0.70288,-2.773008 -1.40362,-5.545963 -2.20917,-8.290406 -0.66046,-2.156436 -1.33885,-4.308802 -2.14435,-6.414598 -0.71603,-1.794987 -1.55394,-3.542523 -2.66174,-5.123063 -0.95691,-1.260216 -2.15605,-2.284876 -3.34994,-3.30248 -0.76538,-0.64049 -1.4936,-1.32809 -2.29267,-1.926194 -0.28778,-0.153057 -0.57556,-0.306115 -0.86336,-0.459171 0,0 -8.62,-3.458275 -8.62,-3.458275 v 0 c -0.10328,-0.01693 -0.20656,-0.03385 -0.30983,-0.05078 0.7702,0.639517 -0.1371,-0.09145 0.72551,0.529114 0.62979,0.45308 1.2038,0.981738 1.80719,1.468695 1.24959,1.012049 2.54526,1.982652 3.62751,3.184919 1.29186,1.454243 2.2771,3.171738 3.0281,4.970978 0.92231,2.182603 1.8637,4.356619 2.67161,6.586917 0.94091,2.683892 1.72153,5.425281 2.29598,8.214706 0.11823,0.56169 0.33385,1.537 0.417,2.11695 0.15116,1.05421 0.0872,2.114368 0.17388,3.173228 0.0618,0.51945 0.11296,0.77732 0.0934,1.30367 -0.0331,0.8893 -0.30922,1.74701 -0.34408,2.63565 -0.007,0.24003 0.007,0.4816 -0.0206,0.72009 -0.16251,1.40213 -0.95049,2.67041 -1.01032,4.09572 -0.0624,0.31646 -0.0995,0.63915 -0.18718,0.94941 -0.0659,0.23326 -0.58381,1.51214 -0.66053,1.75328 -0.0905,0.28448 -0.15306,0.57738 -0.22278,0.8678 -0.0655,0.27292 -0.18617,0.54115 -0.1829,0.822 0.004,0.35179 0.13635,0.68995 0.20452,1.03492 0.24827,0.44801 0.58472,0.85652 0.7448,1.34402 0.21987,0.66958 -0.0613,1.15988 -0.27476,1.75056 -0.21599,0.59764 -0.38308,1.23366 -0.73809,1.76591 z" />
  <path
     style="fill:#000000;stroke-width:0.189502"
     id="path5"
     d="m 168.6153,147.77329 c 0.52853,-1.12903 -0.44102,0.85978 0.4982,-0.64979 0.10497,-0.16871 0.15534,-0.39447 0.22913,-0.59476 0.10514,-0.28541 0.239,-0.55436 0.30762,-0.86213 0.12032,-0.53971 0.17801,-1.83139 0.21129,-2.36201 0.0223,-0.44228 0.04,-0.88507 0.0667,-1.32683 0.0425,-0.70176 0.14224,-1.85252 0.17327,-2.55612 0.0618,-1.40096 0.0542,-2.81204 0.0839,-4.215 0.0381,-3.16108 0.25354,-6.31103 0.41615,-9.46231 0.19221,-3.6976 0.59397,-7.36119 0.86731,-11.04697 0.26455,-3.43227 0.63923,-6.84283 0.8216,-10.2875 0.0221,-0.59344 0.0547,-1.18624 0.0664,-1.78031 0.0264,-1.35187 0.004,-2.705024 0.0273,-4.057016 0.0373,-2.1935 0.11324,-4.385607 0.19564,-6.57628 0.11513,-4.627271 0.5209,-9.216866 1.13849,-13.755918 0.60406,-4.636144 0.95691,-9.33019 1.43649,-13.99443 0.49167,-3.828911 0.73491,-7.710918 1.18294,-11.548722 0.40777,-3.081951 0.75525,-6.179718 1.22714,-9.243176 0.42773,-2.728977 0.84146,-5.459881 1.32397,-8.169702 0.34497,-1.876523 0.77721,-3.71527 1.18467,-5.564372 0.24506,-1.188005 0.40344,-2.407886 0.61652,-3.607728 0.1762,-1.185422 0.45556,-2.310105 0.88199,-3.353609 0.18147,-0.443114 0.33938,-0.893501 0.46832,-1.372848 0.13539,-0.517604 0.26745,-1.035923 0.41392,-1.547907 0.22596,-0.757712 0.4945,-1.494884 0.7956,-2.196019 0.25911,-0.476383 0.42783,-1.090135 0.74846,-1.492647 0.15299,-0.241898 0.29785,-0.496582 0.46225,-0.722617 0.0901,-0.240617 0.11836,-0.504936 0.27028,-0.672414 0.0717,-0.04762 0.0433,0.03081 0.0201,0.09172 -0.15221,0.388043 0.13522,-0.352781 0.14739,-0.381436 0.0136,-0.03194 0.0961,-0.09951 0.11929,-0.124641 0.18775,-0.481504 0.3492,-0.980122 0.55541,-1.448991 0.0975,-0.174905 0.17298,-0.373705 0.26913,-0.547832 -0.051,0.187307 0.11308,-0.272036 0.15298,-0.390634 0.009,-0.02602 0.0334,-0.105147 0.0262,-0.07806 -0.09,0.345888 -0.0219,0.07921 0.11035,-0.0093 0.0955,-0.01328 0.37473,-0.858841 0.22949,-0.39496 0.26116,-0.556779 0.0709,-0.265399 -0.6271,-0.965696 0,0 -4.75318,-4.0666783 -4.75318,-4.0666783 v 0 c -0.82767,-0.6354283 -0.5294,-0.7414123 -0.84106,-0.5762658 -0.18266,0.3760265 -0.0617,0.2127705 -0.17689,0.3233021 -0.15959,0.1985564 -0.26037,0.2357483 -0.35498,0.5930277 -0.0328,0.1572321 -0.0473,0.088192 -0.14112,0.3137428 -0.0497,0.1970743 -0.093,0.401242 -0.15239,0.5955462 -0.13198,0.4011464 -0.2835,0.7967643 -0.49572,1.1165456 -0.0195,0.030694 -0.27206,0.5146587 -0.21526,0.3334015 0.0225,-0.071714 0.0571,-0.1360065 0.0731,-0.2112767 0.009,-0.041937 -0.0342,0.072485 -0.0513,0.1087327 -0.0476,0.10313 -0.095,0.2023229 -0.13723,0.3100825 -0.0863,0.1959257 -0.20349,0.4481014 -0.22598,0.6562357 -0.13809,0.259577 -0.28243,0.510524 -0.4193,0.771469 -0.28489,0.539032 -0.42965,1.198373 -0.71864,1.737859 -0.29997,0.751687 -0.58097,1.516089 -0.85245,2.290056 -0.17521,0.531239 -0.37274,1.04626 -0.52091,1.59473 -0.0745,0.46502 -0.24065,0.884513 -0.31628,1.350757 -0.28527,1.1914 -0.57502,2.379396 -0.87055,3.564112 -0.22217,1.207803 -0.32474,2.452561 -0.53776,3.66464 -0.28996,1.936139 -0.61503,3.857483 -0.93795,5.782841 -0.43151,2.756684 -0.77603,5.537215 -1.19474,8.297716 -0.14346,1.003168 -0.30423,2.001384 -0.43315,3.00867 -0.27331,2.13551 -0.39895,4.299792 -0.58672,6.452182 -0.39012,3.89757 -0.79923,7.792438 -0.98134,11.726161 -0.37633,4.679661 -0.82773,9.346313 -1.39329,13.986596 -0.24766,2.313349 -0.54733,4.624434 -0.75462,6.946015 -0.1649,1.846821 -0.18264,2.744931 -0.26558,4.601409 -0.0348,0.778511 -0.0702,1.556964 -0.10527,2.335447 -0.026,0.762141 -0.052,1.524291 -0.078,2.286432 -0.0323,0.741265 -0.0707,1.482013 -0.0969,2.223775 -0.0915,2.585984 -0.0874,5.18011 -0.2631,7.759352 -0.2266,3.45069 -0.40233,6.9084 -0.71227,10.34677 -0.28654,3.69189 -0.57759,7.38294 -0.85971,11.0751 -0.21365,3.14819 -0.46011,6.29298 -0.51223,9.45908 -1.5e-4,1.40611 -0.0383,2.80854 -0.0487,4.21415 -0.009,1.20862 0.0208,1.46017 -6e-4,2.66971 -0.008,0.44764 -0.0283,0.89463 -0.0425,1.34196 -0.0202,0.83714 -0.0684,1.68766 0.0179,2.52326 0.0422,0.40821 0.1408,0.80012 0.20224,1.20317 0.0413,0.27117 0.0504,0.55304 0.10599,0.81881 0.0557,0.26643 0.17078,0.50179 0.22615,0.76838 0.0318,0.15297 0.0216,0.31791 0.0325,0.47686 z" />
</svg>
