<?xml version="1.0" encoding="UTF-8" standalone="no"?>
<!-- Created with Inkscape (http://www.inkscape.org/) -->

<svg
   width="1000"
   height="1000"
   viewBox="0 0 264.58333 264.58333"
   version="1.1"
   id="svg1"
   xmlns="http://www.w3.org/2000/svg"
   xmlns:svg="http://www.w3.org/2000/svg">
  <defs
     id="defs1" />
  <path
     style="fill:#000000;stroke-width:0.209551"
     id="path1"
     d="m 143.60821,66.204452 c -0.62945,-0.04003 -1.24771,0.09221 -1.87237,0.140874 -0.32658,0.02544 -0.65544,0.02529 -0.98086,0.06189 -0.74259,0.0835 -1.47515,0.234522 -2.21262,0.352312 -2.70349,0.275549 -5.37849,0.85331 -7.92504,1.771173 -0.65933,0.237648 -1.30184,0.515852 -1.95277,0.773779 -2.83628,1.161852 -5.69228,2.35342 -8.34818,3.867017 -1.20396,0.686135 -2.85699,1.780799 -4.01933,2.534197 -2.33472,1.626608 -1.45155,0.937487 -3.67341,2.790637 -1.55991,1.301057 -2.08661,1.724359 -3.53462,3.143457 -0.69926,0.6853 -2.59731,2.681894 -3.2824,3.398476 -2.72272,2.848442 -5.11262,5.957692 -7.294361,9.197236 -1.968354,3.02016 -2.846594,6.48076 -3.944293,9.83842 -0.786973,3.47867 -2.003341,6.88469 -2.474217,10.42541 -0.09994,0.75146 -0.14338,1.50879 -0.21507,2.26319 -0.421477,3.6613 -0.335124,7.34187 0.0997,10.99501 0.248668,1.70451 0.553251,3.42373 1.16312,5.05057 0.358306,0.95579 0.604885,1.36972 1.073689,2.28134 1.576936,2.72767 3.92215,4.96051 6.106382,7.2466 2.0585,2.10019 4.37379,3.98275 6.89322,5.56401 0.53606,0.33644 1.09545,0.63771 1.64317,0.95656 4.45323,2.50243 8.85766,5.17557 13.74593,6.83502 0.64665,0.21952 1.29526,0.43993 1.96118,0.59843 1.54118,0.36679 3.17946,0.52042 4.74802,0.71256 3.37468,0.27367 6.81229,0.35543 10.1681,-0.17534 1.54505,-0.24438 3.81739,-0.82645 5.32452,-1.19063 2.79639,-0.68651 5.48147,-1.69684 8.1366,-2.76544 0.89914,-0.36187 1.8102,-0.7001 2.68713,-1.10867 1.8309,-0.85305 3.26172,-1.74512 4.99072,-2.75847 2.80664,-1.72604 5.47621,-3.69245 7.68972,-6.09263 1.44693,-1.56896 1.6167,-1.92236 2.85466,-3.65495 0.45196,-0.78765 2.13681,-3.69384 2.52352,-4.49061 0.43457,-0.89539 0.78878,-1.82439 1.17984,-2.7379 0.92919,-2.17055 1.49765,-3.41272 2.2458,-5.64961 0.32784,-0.98025 0.59364,-1.97844 0.89046,-2.96764 1.12342,-4.25239 2.2774,-8.57505 2.40007,-12.9864 0.0206,-0.74075 -0.0306,-1.48176 -0.0459,-2.22264 -0.20649,-2.04 -0.50308,-4.08022 -1.11432,-6.05052 -0.56262,-1.81361 -1.33055,-3.579543 -2.07741,-5.328704 -1.50577,-3.093849 -3.1487,-6.133185 -4.99331,-9.05558 -1.37224,-2.029406 -2.78091,-4.07876 -4.48466,-5.875271 -0.31344,-0.330505 -0.65187,-0.638575 -0.97782,-0.957862 -0.36467,-0.301744 -0.71754,-0.617021 -1.09403,-0.905233 -0.59037,-0.451951 -1.64209,-1.164259 -2.30593,-1.535528 -4.39788,-2.459644 -8.77136,-5.007039 -13.30029,-7.257736 -2.03359,-0.992414 -4.26921,-1.482199 -6.48111,-1.959918 -0.90724,-0.167356 -1.82207,-0.287271 -2.74194,-0.367953 -0.27085,-0.02376 -0.54142,-0.06811 -0.81336,-0.06257 -0.66725,0.01358 -1.21557,0.161735 -1.86367,0.297678 -1.0807,0.397379 -0.51692,0.249687 -1.6941,0.433222 0,0 9.4667,6.316943 9.4667,6.316943 v 0 c 1.18835,-0.240384 0.53808,-0.162123 1.95746,-0.17728 0.32592,-0.01153 0.65167,-0.03922 0.97778,-0.03461 1.43114,0.02022 2.85817,0.273486 4.25715,0.533847 2.10029,0.457011 4.17702,1.024699 6.07232,2.031275 3.56453,1.819469 9.32639,5.116132 -6.62073,-3.736481 -0.40528,-0.224976 0.81979,0.434999 1.21926,0.669257 1.1714,0.686952 1.2365,0.775736 2.31994,1.566358 0.33866,0.292537 0.69117,0.571073 1.01596,0.877608 1.84399,1.740376 3.33115,3.797894 4.82119,5.810566 1.91551,2.912614 3.65538,5.923526 5.23477,9.015169 0.70991,1.346631 1.11737,2.056029 1.72029,3.46145 1.08271,2.523811 1.81545,5.170473 2.23127,7.867453 0.10514,0.75072 0.24639,1.49764 0.31543,2.25217 0.40234,4.39745 -0.37245,8.95925 -1.36398,13.23796 -0.2867,0.97397 -0.54114,1.95712 -0.86007,2.9219 -1.457,4.40749 -3.63739,8.56244 -6.27721,12.42811 -1.17731,1.6127 -1.43097,2.05661 -2.78414,3.53032 -2.1328,2.32277 -4.62204,4.31031 -7.26897,6.07597 -0.76985,0.47009 -1.52053,0.97012 -2.30954,1.41028 -4.13825,2.30865 -8.70539,3.80663 -13.31022,5.00582 -0.89693,0.19876 -1.78736,0.42647 -2.6908,0.59627 -4.16581,0.78297 -8.45485,0.93712 -12.66759,0.44263 -0.83066,-0.13354 -1.66844,-0.23164 -2.492,-0.40062 -2.13228,-0.43753 -4.18618,-1.14653 -6.17905,-1.98273 -0.62999,-0.26434 -2.44871,-1.19042 -1.87027,-0.83452 2.12726,1.30888 4.35216,2.46701 6.52824,3.70051 -0.5554,-0.29642 -1.12427,-0.57091 -1.6662,-0.88927 -0.96161,-0.56492 -2.1409,-1.40441 -3.0395,-2.05605 -1.41143,-1.02354 -2.77703,-2.10193 -3.98415,-3.34686 -2.16433,-2.15728 -4.32955,-4.37016 -5.98971,-6.91441 -0.51742,-0.93324 -0.68299,-1.17976 -1.10758,-2.15085 -0.70033,-1.60175 -1.14694,-3.29227 -1.47207,-4.99648 -0.651544,-3.6475 -1.083706,-7.33726 -0.694655,-11.03971 0.08765,-0.72626 0.157245,-1.45473 0.262955,-2.1788 0.50865,-3.48415 1.41165,-6.90532 2.57787,-10.23938 1.02855,-3.29098 2.19873,-6.56494 3.93132,-9.587425 0.29264,-0.485599 0.57302,-0.978125 0.8779,-1.456805 1.75321,-2.75257 3.86285,-5.289817 5.94497,-7.817044 1.58703,-1.70621 3.17419,-3.398084 4.9334,-4.947233 1.44873,-1.275742 2.11374,-1.757483 3.66507,-2.916932 0.58628,-0.438174 1.17814,-0.869486 1.76721,-1.304229 0.63742,-0.42328 1.26055,-0.866908 1.91227,-1.269838 3.25687,-2.013561 6.7982,-3.601121 10.42546,-4.897626 1.53108,-0.487826 2.32962,-0.768462 3.85551,-1.160147 1.97095,-0.505933 3.98954,-0.805357 5.98624,-1.198869 1.50914,-0.221706 3.08244,-0.348658 4.4666,-1.015454 z" />
</svg>
