<?xml version="1.0" encoding="UTF-8" standalone="no"?>
<!-- Created with Inkscape (http://www.inkscape.org/) -->

<svg
   width="1000"
   height="1000"
   viewBox="0 0 264.58333 264.58333"
   version="1.1"
   id="svg1"
   xmlns="http://www.w3.org/2000/svg"
   xmlns:svg="http://www.w3.org/2000/svg">
  <defs
     id="defs1">
    <rect
       x="256.66667"
       y="116.66667"
       width="508.33333"
       height="661.66667"
       id="rect3" />
  </defs>
  <text
     xml:space="preserve"
     transform="scale(0.26458333)"
     id="text3"
     style="text-align:start;writing-mode:lr-tb;direction:ltr;white-space:pre;shape-inside:url(#rect3);display:inline;fill:#000000;stroke-width:19.5213" />
  <path
     id="path10"
     style="fill:#000000;stroke-width:5.16501"
     d="M 138.81581 68.818538 C 138.31669 68.81698 137.84771 68.880977 137.47584 69.048498 C 137.12096 69.208368 136.82191 69.471447 136.49761 69.686702 C 135.22683 70.53018 135.21853 70.549371 133.90965 71.468505 C 131.06581 73.477528 128.33256 75.640117 125.42025 77.551854 C 122.77244 79.321686 120.17576 81.168582 117.42177 82.775825 C 111.77304 86.327988 106.04332 89.751272 100.4595 93.4067 C 94.73148 97.049277 89.006731 100.7114 83.530301 104.72694 C 81.189074 106.47094 78.874683 108.25643 76.451663 109.88631 L 79.403421 110.17777 C 81.745479 108.49843 84.015826 106.72162 86.316177 104.98584 C 91.720649 100.93694 97.402435 97.27829 103.10843 93.673868 C 108.72019 90.032953 114.44936 86.579634 120.13168 83.05126 C 122.92417 81.423509 125.62739 79.655981 128.29501 77.833491 C 131.16663 75.884888 133.89234 73.735766 136.73015 71.739289 C 138.05522 70.819209 138.04969 70.804485 139.3331 69.97919 C 139.46921 70.155001 139.713 70.436797 140.0576 70.898514 C 141.69979 73.897638 142.69539 77.194031 143.584 80.479841 C 145.14708 86.165618 146.97554 91.771064 148.72322 97.401289 C 150.08946 102.06083 151.41291 106.73243 152.72401 111.40767 C 152.77631 111.59408 154.51221 117.7829 154.68048 118.30906 C 154.99722 119.29951 155.37774 120.26823 155.72641 121.24789 C 157.50172 125.54866 159.66987 129.68234 161.99269 133.7107 C 162.48693 134.54869 163.0147 135.37284 163.42568 136.2568 C 163.57971 136.85447 163.69386 137.46042 163.7807 138.07116 C 163.8244 138.63675 164.01854 139.16852 164.3233 139.64212 C 164.83762 140.40698 165.34437 141.1702 165.73872 142.00528 C 165.92822 142.52406 166.18313 143.01488 166.35263 143.54111 C 166.42289 143.72999 166.49835 143.91659 166.57639 144.10231 L 166.29889 144.12092 C 166.52175 144.39289 166.7377 144.67314 166.9402 144.96324 C 167.02081 145.16158 167.09748 145.36213 167.16602 145.56579 C 167.27578 145.97427 167.22826 145.77598 167.31072 146.16007 L 167.64971 146.15283 C 167.86328 146.52143 168.09653 146.8804 168.21402 147.29282 C 168.25382 147.77292 168.36939 148.23181 168.49307 148.69686 C 168.62588 149.19155 168.68443 149.69941 168.71218 150.20943 C 168.81309 150.652 169.00426 151.05744 169.08942 151.50445 C 169.17092 152.01946 169.37964 152.50084 169.49043 153.01185 C 169.63091 153.57128 169.76703 154.15011 169.98342 154.68668 C 170.14772 155.12295 170.40249 155.50616 170.6423 155.90108 C 170.78813 156.26081 170.95155 156.60057 171.1849 156.9129 C 171.30192 157.09515 171.43247 157.26756 171.54767 157.45085 L 174.52733 157.28807 C 174.40902 157.08699 174.26479 156.91356 174.16714 156.70878 C 173.91093 156.42172 173.73769 156.11483 173.61886 155.74915 C 173.41129 155.34663 173.10417 154.99964 172.95688 154.56162 C 172.70745 154.06537 172.62213 153.48067 172.46544 152.95087 C 172.36285 152.43908 172.15953 151.95783 172.06908 151.44915 C 171.98808 151.01097 171.84286 150.60907 171.69236 150.19186 C 171.65876 149.66176 171.60208 149.13417 171.46653 148.61883 C 171.33955 148.15302 171.22623 147.69639 171.19782 147.21323 C 171.08376 146.7809 170.88009 146.38562 170.62059 146.02054 C 170.41524 145.56532 170.14401 145.14076 169.85371 144.72967 C 169.68018 144.30184 169.49443 143.87959 169.32816 143.44964 C 169.15649 142.9062 168.9069 142.4028 168.69926 141.87403 C 168.29833 141.03252 167.7975 140.25559 167.29728 139.47159 C 167.0128 139.02877 166.77368 138.5722 166.75158 138.02775 C 166.65458 137.38905 166.52368 136.75728 166.41051 136.12192 C 165.96083 135.23057 165.40167 134.39767 164.86797 133.55619 C 162.4393 129.58117 160.19946 125.47251 158.43942 121.15436 C 155.61216 113.36025 153.63076 105.28469 151.3334 97.325324 C 149.69517 91.685 147.91759 86.085393 146.41328 80.406461 C 145.54724 77.083334 144.51203 73.778866 142.91944 70.723331 C 142.64665 70.308541 142.55915 69.669928 142.10089 69.478962 C 141.92692 69.406465 141.65594 69.312316 141.32574 69.217996 C 141.31845 69.224625 141.30199 69.233306 141.27458 69.243318 C 140.66756 69.465033 140.2 69.558572 139.86433 69.60712 C 140.01921 69.500791 140.17883 69.403784 140.35371 69.337886 C 140.55229 69.263047 141.0504 69.196248 141.24771 69.196292 C 140.56242 69.005901 139.64769 68.821133 138.81581 68.818538 z M 141.24771 69.196292 C 141.27403 69.203606 141.30011 69.210676 141.32574 69.217996 C 141.32757 69.216329 141.32919 69.214811 141.32987 69.213345 L 141.32987 69.212829 L 141.32987 69.212312 L 141.33039 69.211795 L 141.33039 69.211278 C 141.33037 69.211089 141.33043 69.209913 141.33039 69.209728 L 141.32987 69.209211 L 141.32987 69.208695 L 141.32936 69.208178 L 141.32936 69.207661 C 141.32265 69.200054 141.29256 69.196302 141.24771 69.196292 z " />
</svg>
