<?xml version="1.0" encoding="UTF-8" standalone="no"?>
<!-- Created with Inkscape (http://www.inkscape.org/) -->

<svg
   width="1000"
   height="1000"
   viewBox="0 0 264.58333 264.58333"
   version="1.1"
   id="svg1"
   xmlns="http://www.w3.org/2000/svg"
   xmlns:svg="http://www.w3.org/2000/svg">
  <defs
     id="defs1">
    <rect
       x="256.66667"
       y="116.66667"
       width="508.33333"
       height="661.66667"
       id="rect3" />
  </defs>
  <text
     xml:space="preserve"
     transform="scale(0.26458333)"
     id="text3"
     style="text-align:start;writing-mode:lr-tb;direction:ltr;white-space:pre;shape-inside:url(#rect3);display:inline;fill:#000000;stroke-width:19.5213" />
  <path
     style="fill:#000000;stroke-width:5.16501"
     id="path1"
     d="m 85.426118,61.559489 c 0.60697,-0.0047 1.213953,-5.29e-4 1.820926,-5.29e-4 0.59169,-0.05193 1.17176,-0.280006 1.757307,-0.421076 0.490915,0.06573 0.780415,-0.253564 1.202594,-0.393017 0.436682,-0.102463 0.877552,-0.139042 1.324076,-0.157012 2.287405,-0.0021 7.157812,-0.0019 -2.811399,-5.29e-4 0.689856,0.0024 1.379701,0.0059 2.069552,0.0094 0.462733,0.0033 0.925484,7.94e-4 1.388213,-0.0019 2.9821,-0.02331 5.981438,0.366638 8.897723,-0.277638 2.00318,-0.199472 4.0299,-0.244089 6.04309,-0.365797 2.27073,-0.136962 4.54308,-0.247581 6.81721,-0.306636 2.22534,-0.04404 7.67562,-0.02793 -1.7853,-0.02696 1.99616,-7.93e-4 3.99234,-0.0021 5.9885,0.0024 1.58667,0.01193 3.17351,-0.01561 4.75924,0.04086 2.68616,0.221486 5.36341,0.517745 8.0532,0.708173 1.56806,0.09675 3.1373,0.179832 4.70787,0.222113 1.4166,0.03798 2.82289,0.230711 4.23747,0.326075 1.9245,0.06775 3.84279,0.171595 5.76139,0.338378 1.71399,0.116687 3.42021,0.255331 5.12023,0.504905 2.32647,0.344577 4.58719,1.009972 6.82482,1.717577 1.73715,0.557098 3.55998,0.930613 5.21777,1.71084 0.78289,0.333285 1.37631,0.86156 1.92001,1.504154 0.88981,1.088737 1.64717,2.27629 2.4953,3.396967 0.54024,0.78486 1.18518,1.486593 1.65604,2.317848 0.29803,0.434168 0.57692,0.875413 0.81724,1.343911 0.27456,0.387482 0.39755,0.846741 0.59844,1.271627 0.27076,0.730218 0.48588,1.487541 0.67087,2.245498 0.15231,0.629552 0.18247,1.275551 0.20578,1.919793 -5.3e-4,0.591013 0.007,1.182161 -7.9e-4,1.773131 0.008,0.600454 -0.005,1.200838 -0.003,1.801268 -0.0446,0.475922 0.0733,0.977823 -0.0605,1.44041 -0.21298,0.471903 -0.2795,0.986933 -0.41853,1.480981 -0.21522,0.580213 -0.3325,1.186696 -0.43933,1.794008 -0.20007,0.554926 -0.36753,1.11661 -0.56806,1.672497 -0.34949,0.629372 -0.73172,1.247897 -1.00814,1.914485 -0.20002,0.582028 -0.40674,1.161883 -0.72408,1.693916 -0.32431,0.667572 -0.8762,1.155266 -1.39894,1.671978 -0.7136,0.608812 -1.30021,1.341581 -1.95829,2.002441 -0.49024,0.569619 -1.02077,1.103622 -1.58155,1.603478 -0.62121,0.572228 -1.23192,1.1556 -1.85363,1.72729 -0.54082,0.461443 -1.08686,0.891213 -1.56491,1.424123 -0.46812,0.5065 -1.00863,0.9331 -1.55476,1.35693 -0.63021,0.60405 -1.33103,1.08707 -2.09417,1.50757 -0.95963,0.66504 -1.94676,1.29041 -2.99785,1.79993 -0.82353,0.45584 -1.66837,0.90704 -2.45763,1.42379 -0.77356,0.63439 -1.68001,1.06452 -2.51339,1.6074 -0.82764,0.47522 -1.62078,0.98325 -2.52716,1.29436 -0.92075,0.39615 -1.83304,0.79246 -2.75127,1.19494 -0.72191,0.34438 -1.3605,0.8314 -2.0519,1.22613 -0.8589,0.46233 -1.75851,0.86678 -2.61253,1.34565 -1.21883,0.49123 -2.40695,1.04788 -3.57061,1.66007 -1.08468,0.59676 -2.18272,1.16677 -3.31248,1.67315 -0.99563,0.54748 -1.99571,1.07814 -3.00545,1.59738 -0.80072,0.41135 -1.50859,0.97115 -2.29746,1.40267 -1.45073,0.58449 -2.91761,1.10827 -4.31877,1.80918 -1.9944,0.8797 -3.9344,1.87489 -5.89731,2.82167 -2.56964,1.12042 -5.09971,2.33535 -7.59449,3.61362 -2.40264,1.12094 -4.69642,2.45118 -6.98497,3.78508 -1.660563,0.95229 -3.3125,1.91447 -4.966214,2.87867 -1.32978,0.72556 -2.560283,1.59014 -3.81176,2.43714 -0.943189,0.68868 -1.833398,1.46606 -2.576123,2.36926 -0.53775,0.63141 -1.204188,1.12467 -1.798603,1.6916 -0.567749,0.36769 -0.808821,1.04896 -1.278038,1.4885 -0.318442,0.46335 -0.585547,0.94097 -0.974376,1.34834 -0.255093,0.51536 -0.59776,0.96859 -0.849056,1.4872 -0.108712,0.49467 -0.344908,0.93625 -0.513347,1.41117 -0.172289,0.60817 -0.381183,1.20337 -0.530027,1.82009 -0.104259,0.53689 -0.347244,1.03349 -0.492307,1.56496 -0.114208,0.54529 -0.122296,1.10307 -0.127249,1.65787 -0.0019,0.58356 0.0021,1.16722 -0.005,1.75075 0.01836,0.55749 -0.03961,1.11209 0.06349,1.66151 0.138081,0.49298 0.282482,0.98371 0.504272,1.44584 0.201949,0.39525 0.382138,0.79807 0.588719,1.19159 0.225631,0.53108 0.52006,1.02971 0.779468,1.54483 0.411393,0.63898 0.706474,1.33318 0.994439,2.03355 0.234963,0.60628 0.553175,1.18205 0.912537,1.7233 0.327044,0.57222 0.623745,1.16285 1.023551,1.68809 0.62029,0.69587 1.22981,1.40056 1.848692,2.09743 0.795001,0.82341 1.672389,1.54272 2.634914,2.1591 1.155737,0.7103 2.396487,1.2461 3.668662,1.70519 1.648889,0.5765 3.390254,0.86108 5.101186,1.19892 1.21084,0.23379 2.43301,0.40201 3.66393,0.47562 1.85254,0.075 3.66809,0.46427 5.4877,0.78644 2.32966,0.33897 4.66734,0.64805 7.00933,0.89328 1.8413,0.10554 3.67134,0.32059 5.50378,0.52143 1.25993,0.17086 2.52771,0.20308 3.79695,0.2115 3.9402,0.0103 7.88043,0.007 11.82065,0.01 2.10371,1.6e-4 4.20739,-0.0121 6.31111,-0.0121 2.405,0.0101 10.27427,0.0157 -0.32045,0.0119 1.52533,-0.002 3.05065,-0.002 4.57597,5.3e-4 1.64175,-0.0483 3.27593,0.12069 4.90899,0.26258 1.43544,0.13142 2.85278,0.40066 4.28233,0.5785 1.6474,0.15824 3.29393,0.3215 4.94396,0.45054 1.46018,0.11342 2.92543,0.13363 4.38925,0.15157 2.82677,0.0265 5.65372,0.006 8.48057,0.008 1.05932,-0.22312 2.14062,-0.3306 3.21794,-0.42625 0.62064,-0.26195 1.22646,-0.44809 1.89834,-0.48912 0.67057,-0.0493 1.34326,-0.0531 2.01528,-0.0528 0.59206,-0.34292 1.20858,-0.37056 1.87374,-0.42129 0.82987,0.0265 1.59581,-0.1045 2.38101,-0.35599 0.49303,-0.10919 0.59578,-0.41837 0.65072,-0.88472 0,0 -5.94284,-0.12307 -5.94284,-0.12307 v 0 c -0.10867,0.21832 -0.36677,0.14146 -0.58241,0.24523 -0.76451,0.19288 -1.54578,0.18259 -2.32766,0.25506 -0.65334,0.0786 -1.25712,0.31524 -1.90442,0.36258 -0.66938,0.0106 -1.33987,0.0378 -2.00427,0.12449 -0.64089,0.11855 -1.23212,0.39327 -1.87939,0.47729 -1.07716,0.12167 -2.14965,0.30454 -3.23175,0.36538 -0.49483,0.002 -0.23883,0.001 -0.77099,0.002 -0.13743,1.9e-4 -0.54973,5.3e-4 -0.4123,5.3e-4 9.67847,0.004 6.38865,-8e-5 4.30869,0.003 -1.48087,-0.005 -2.9628,-0.0147 -4.44137,-0.10593 -1.62263,-0.1062 -3.23967,-0.26389 -4.85453,-0.44299 -1.46536,-0.13329 -2.91556,-0.38682 -4.37375,-0.57907 -1.62292,-0.12935 -3.24256,-0.35521 -4.87238,-0.31697 -1.52787,0.003 -3.05574,0.003 -4.58361,5.3e-4 -3.67262,-10e-4 -7.34506,-0.002 -11.01762,0.0123 -2.14464,5.3e-4 -4.28927,-0.0116 -6.43389,-0.007 -0.27705,8e-4 -0.55409,0.001 -0.83114,0.002 -4.07853,0.0132 7.16869,0.0125 2.58363,0.006 -0.38491,-5.3e-4 -0.76981,-0.003 -1.15472,-0.004 -0.33621,-0.002 -0.67243,-0.003 -1.00864,-0.005 -1.25236,-0.0146 -2.50628,-0.0242 -3.75274,-0.16345 -1.86058,-0.17998 -3.71148,-0.4468 -5.58157,-0.51268 -2.34472,-0.21542 -4.67892,-0.53869 -7.01208,-0.84907 -1.77521,-0.30901 -3.53331,-0.72129 -5.33142,-0.88599 -1.26554,-0.034 -2.52615,-0.15583 -3.77388,-0.37492 -1.6736,-0.30304 -3.36152,-0.60953 -4.98617,-1.11397 -1.24516,-0.48084 -2.554751,-0.82532 -3.66971,-1.5974 -0.965764,-0.53959 -1.801511,-1.24279 -2.615015,-1.9874 -0.622448,-0.6751 -1.184441,-1.40589 -1.786686,-2.10041 -0.465773,-0.41984 -0.717307,-1.0468 -1.00978,-1.58954 -0.322688,-0.53245 -0.696711,-1.03654 -0.930939,-1.6217 -0.295579,-0.70055 -0.526296,-1.44287 -0.986901,-2.05813 -0.22765,-0.52786 -0.511286,-1.02275 -0.751096,-1.54232 -0.169574,-0.41871 -0.409729,-0.81068 -0.587502,-1.22406 -0.234744,-0.40439 -0.346623,-0.84383 -0.508746,-1.28074 -0.121301,-0.49947 -0.02956,-1.03068 -0.05562,-1.54088 -0.01019,-0.57964 -0.0118,-1.15971 -0.0035,-1.73935 0.0123,-0.5058 0.0164,-1.01671 0.136525,-1.51134 0.142182,-0.53511 0.40142,-1.03426 0.479412,-1.58598 0.133696,-0.59985 0.3546,-1.16871 0.542634,-1.75228 0.16103,-0.45049 0.372925,-0.88193 0.51209,-1.33996 0.238445,-0.46469 0.526934,-0.91446 0.826588,-1.33985 0.345363,-0.43967 0.632248,-0.92164 0.983387,-1.3569 0.356933,-0.51934 0.744725,-1.00077 1.23095,-1.41015 0.636008,-0.5454 1.249725,-1.11464 1.776767,-1.76918 0.756822,-0.85307 1.623737,-1.58431 2.568591,-2.22266 1.182719,-0.87249 2.408451,-1.66904 3.686321,-2.3975 1.63628,-0.94327 3.27031,-1.88082 4.86662,-2.89183 2.2733,-1.3402 4.61243,-2.55545 6.96147,-3.75673 2.51861,-1.30498 5.10072,-2.46939 7.70692,-3.5879 1.95838,-0.96035 3.89658,-1.96307 5.90635,-2.8145 1.4697,-0.65708 2.99643,-1.16698 4.45597,-1.84617 0.7555,-0.4731 1.49676,-0.96921 2.28952,-1.37988 0.97637,-0.54183 1.967,-1.06019 2.95986,-1.5702 1.1177,-0.54085 2.22987,-1.09287 3.31653,-1.69434 1.17528,-0.58419 2.36621,-1.12928 3.56196,-1.66867 0.90027,-0.4464 1.81434,-0.86168 2.68067,-1.37385 0.66113,-0.42561 1.33658,-0.82617 2.05197,-1.15536 0.88704,-0.4186 1.79533,-0.78423 2.69793,-1.1678 0.89382,-0.3851 1.72194,-0.88239 2.54245,-1.40459 0.86267,-0.51979 1.73275,-1.02678 2.56335,-1.59783 0.80332,-0.4647 1.56028,-1.00967 2.41325,-1.38463 1.02043,-0.56441 1.99141,-1.20367 2.97597,-1.82748 0.77772,-0.46425 1.49688,-0.98357 2.17123,-1.58904 0.54696,-0.44619 1.08609,-0.9038 1.55254,-1.43657 0.50388,-0.48983 1.07304,-0.90416 1.57432,-1.39704 0.59748,-0.59185 1.21572,-1.162202 1.8498,-1.714676 0.55072,-0.514167 1.04834,-1.085527 1.54963,-1.647258 0.62908,-0.689245 1.29399,-1.338128 1.96515,-1.986278 0.55492,-0.556238 1.10632,-1.118978 1.44822,-1.837322 0.28732,-0.560745 0.50315,-1.14962 0.70946,-1.743755 0.3186,-0.659527 0.70045,-1.287433 1.01326,-1.950262 0.2298,-0.589473 0.40897,-1.193819 0.60398,-1.795169 0.0737,-0.585991 0.21381,-1.157658 0.41409,-1.713878 0.15371,-0.503126 0.25175,-1.02208 0.43528,-1.517343 0.0999,-0.518523 0.0507,-1.046377 0.0551,-1.573149 0.003,-0.599945 -0.009,-1.199888 0.003,-1.799823 -0.004,-0.597061 0.0118,-1.194345 -0.0113,-1.791248 -0.0131,-0.685553 -0.0518,-1.377029 -0.22518,-2.043448 -0.19189,-0.800605 -0.45972,-1.580745 -0.63612,-2.384864 -0.23761,-0.432176 -0.34133,-0.906606 -0.59256,-1.332368 -0.33324,-0.379571 -0.43801,-0.975217 -0.8594,-1.309753 -0.49363,-0.859756 -1.12066,-1.609096 -1.71317,-2.399366 -0.88559,-1.100498 -1.67422,-2.268763 -2.5203,-3.398491 -0.25096,-0.341397 -0.45109,-0.721466 -0.72894,-1.041361 -0.27804,-0.320106 -0.82253,-0.506732 -1.16592,-0.729464 -1.70801,-0.853927 -3.62018,-1.199848 -5.43261,-1.768379 -2.21494,-0.714841 -4.44446,-1.439572 -6.74676,-1.813423 -1.70262,-0.30485 -3.41181,-0.46641 -5.13964,-0.545875 -1.91269,-0.162822 -3.82002,-0.335224 -5.74121,-0.354685 -1.37793,-0.08097 -2.74766,-0.238545 -4.11536,-0.372607 -1.65121,-0.0097 -3.30184,-0.06609 -4.95062,-0.155673 -2.66324,-0.162716 -5.31031,-0.441965 -7.96139,-0.727832 -1.57928,-0.122084 -3.16017,-0.07414 -4.74344,-0.07562 -1.99322,0.0029 -3.98646,-7.93e-4 -5.97968,-0.004 -3.22119,1.95e-4 -6.45138,-0.05365 -9.67342,0.03677 -2.19462,0.09275 -4.38712,0.227171 -6.57977,0.357301 -2.119227,0.119811 -4.264556,0.07459 -6.362168,0.402804 -0.447622,0.08402 -0.883615,0.151241 -1.340368,0.162338 -0.191143,0.0046 -0.764792,-2.9e-5 -0.573596,-5.3e-5 5.372002,-7.94e-4 6.956852,0.0117 4.695809,-0.0042 -0.452024,-0.0028 -0.904062,-0.0049 -1.356098,-0.0027 -0.717857,0.0019 -1.435716,0.0029 -2.153578,0.0037 -2.942315,-9.6e-5 -5.915144,-0.05049 -8.863664,0.0337 -0.45757,0.05898 -0.913333,0.154427 -1.336712,0.343374 -0.380918,0.191595 -0.779338,0.186325 -1.187518,0.305853 -0.56982,0.151767 -1.131851,0.334105 -1.730513,0.276151 -0.609621,10e-6 -1.21925,0.004 -1.828866,-5.29e-4 z" />
</svg>
