<?xml version="1.0" encoding="UTF-8" standalone="no"?>
<!-- Created with Inkscape (http://www.inkscape.org/) -->

<svg
   width="1000"
   height="1000"
   viewBox="0 0 264.58333 264.58333"
   version="1.1"
   id="svg1"
   xmlns="http://www.w3.org/2000/svg"
   xmlns:svg="http://www.w3.org/2000/svg">
  <defs
     id="defs1" />
  <path
     style="fill:#000000;stroke-width:0.264583"
     id="path3"
     d="m 173.05874,80.837253 c -0.11143,-0.215225 -0.20053,-0.443568 -0.33428,-0.645678 -1.03682,-1.566659 -3.1161,-3.100906 -4.54896,-4.318522 -5.08354,-4.551775 -11.17195,-7.727595 -17.23858,-10.808559 -1.85225,-0.994834 -3.89896,-1.379697 -5.93507,-1.79124 -2.21406,-0.447514 -1.18625,-0.280366 -3.45853,-0.540626 -0.60306,-0.0145 -1.20688,-0.0771 -1.80919,-0.0435 -1.25715,0.07014 -2.88499,0.430329 -4.10035,0.675491 -0.73774,0.148818 -1.48149,0.272005 -2.21141,0.455364 -1.53603,0.385855 -3.13547,0.960131 -4.63252,1.465895 -5.02343,1.885088 -9.7754,4.371425 -14.37832,7.109455 -0.84677,0.548163 -1.7051,1.078886 -2.54032,1.644486 -0.89418,0.605525 -1.76287,1.24787 -2.64685,1.868191 -2.59861,1.823532 -5.25973,3.596433 -7.64583,5.701554 -0.80679,0.711782 -1.55481,1.487527 -2.332212,2.231289 -2.313725,2.275052 -4.636193,4.562171 -6.746337,7.031776 -0.716781,0.83888 -1.379213,1.722741 -2.074694,2.579364 -1.772713,2.183458 -2.107051,2.567911 -3.864805,4.668489 -3.10718,3.464948 -5.453872,7.489538 -7.698095,11.540528 -1.439362,2.52276 -2.408332,5.26704 -3.398536,7.98544 -1.291277,3.54496 -0.504245,1.31554 -1.74376,4.90307 -0.239683,0.93118 -1.194993,4.54249 -1.340628,5.50569 -0.152913,1.01135 -0.192296,2.03718 -0.247091,3.05855 -0.115446,2.15179 -0.109186,3.61592 0.06633,5.75288 0.07095,0.86384 0.200602,1.72186 0.300903,2.5828 0.517038,3.24227 1.268425,6.52103 2.859241,9.42557 0.263593,0.48127 0.573013,0.93599 0.859517,1.40399 2.119418,2.88371 5.084511,4.97056 8.161401,6.7297 4.117552,2.3541 8.258717,4.66666 12.388075,6.99999 3.414401,1.59594 6.954701,2.93295 10.640301,3.75134 2.80841,0.62361 4.06379,0.72491 6.96739,1.11371 7.34563,0.89952 14.78977,0.76364 22.13565,-0.0725 1.54508,-0.17588 3.0805,-0.42816 4.62075,-0.64224 3.70692,-0.76523 5.3656,-1.02225 8.98719,-2.1078 1.41593,-0.42441 2.84191,-0.83881 4.20089,-1.42033 4.31007,-1.84434 8.05742,-4.67935 11.78921,-7.45184 4.2952,-3.46503 8.57755,-7.10778 11.84418,-11.60123 2.17828,-2.99637 2.5278,-3.97151 4.26501,-7.29385 1.89188,-3.87868 3.41923,-7.90892 4.37459,-12.12173 0.66087,-2.9142 0.80251,-4.54312 1.17585,-7.45929 0,0 -10.596,-5.5194 -10.596,-5.5194 v 0 c -0.0634,1.2049 -0.0754,2.41362 -0.19033,3.61471 -0.52973,5.53643 -2.05127,10.88692 -4.56439,15.85382 -1.88979,3.25802 -2.19707,4.00025 -4.39965,6.98693 -3.21605,4.36093 -7.07801,8.19723 -11.26038,11.62751 -2.95992,2.25578 -4.2089,3.37809 -7.49635,5.18958 -5.25021,2.89304 -11.08693,4.46266 -16.95706,5.47952 -3.79112,0.55984 -5.27906,0.8552 -9.12399,1.1154 -5.86677,0.39703 -11.76548,0.13157 -17.57652,-0.76049 -3.02406,-0.5391 -4.31618,-0.69887 -7.225198,-1.47748 -3.742471,-1.00168 -7.35143,-2.45023 -10.809526,-4.18787 2.629797,1.55136 5.263052,3.09688 7.889391,4.65409 0.682683,0.40478 -1.38453,-0.77743 -2.058374,-1.19676 -1.655974,-1.0305 -3.261526,-2.19849 -4.641929,-3.58343 -0.382214,-0.38347 -0.724024,-0.80519 -1.086035,-1.20779 -0.316272,-0.43715 -0.655026,-0.85889 -0.94882,-1.31145 -1.830848,-2.82028 -2.858495,-6.08 -3.626559,-9.32459 -0.389374,-2.18101 -0.618945,-3.07515 -0.727107,-5.32169 -0.182184,-3.784 0.440063,-7.49782 1.705825,-11.06281 0.284041,-0.81001 0.549002,-1.62697 0.852117,-2.43004 1.305086,-3.45771 3.021036,-6.74287 4.492006,-10.12965 2.089576,-4.04897 4.489852,-7.92664 7.141871,-11.63311 1.492459,-2.08003 1.936702,-2.75826 3.583938,-4.798556 2.70531,-3.350842 5.64773,-6.496836 8.77365,-9.458124 1.72961,-1.542566 2.90182,-2.634967 4.71084,-4.067384 3.3081,-2.619404 6.85212,-4.918593 10.50114,-7.030794 4.70549,-2.500357 9.41973,-5.076386 14.49875,-6.747288 0.77465,-0.23877 1.54173,-0.503642 2.32395,-0.716306 3.39998,-0.924356 6.96661,-1.495597 10.48834,-1.122373 3.1764,0.525301 6.36039,1.164947 9.21553,2.727283 4.30811,2.28705 2.02454,1.094978 -8.15909,-4.821558 -0.38792,-0.225377 0.77816,0.447683 1.15408,0.69256 0.92277,0.601104 1.42151,1.022027 2.28924,1.718948 0.40429,0.324718 0.80563,0.653105 1.20845,0.979656 2.15517,1.705277 0.31697,0.234239 2.38538,1.935121 1.02859,0.845822 2.09554,1.649862 2.94865,2.684118 z" />
  <path
     style="fill:#000000;stroke-width:0.264583"
     id="path4"
     d="m 178.13061,136.67648 c 0.32176,-0.7104 0.63761,-1.41857 0.92561,-2.14374 0.19957,-0.50252 0.452,-1.44037 1.01831,-1.72344 0.45574,-0.2278 1.00108,-0.19026 1.50162,-0.2854 0.27971,-0.21257 0.62099,-0.36232 0.83912,-0.63772 0.20039,-0.25302 0.24586,-0.5969 0.37353,-0.89335 0.13376,-0.31061 0.27809,-0.61662 0.41071,-0.92772 0.4556,-1.06877 0.81832,-1.97848 1.37016,-3.01241 0.17746,-0.30907 0.37796,-0.60601 0.53238,-0.92721 0.0117,-0.0243 0.71613,-1.83243 0.74036,-1.89175 0.33361,-0.81652 0.70871,-1.56175 1.17548,-2.30854 0.43757,-0.99052 0.5279,-2.07704 0.76037,-3.12205 0.40042,-1.79995 -0.0114,0.40482 0.32082,-1.46926 0.0678,-2.2141 -0.303,-4.42072 -0.72878,-6.58622 -0.84675,-3.29792 -1.69092,-6.59578 -2.66136,-9.85973 -0.79564,-2.564636 -1.61289,-5.124433 -2.58327,-7.628843 -0.86258,-2.134767 -1.87201,-4.213101 -3.20656,-6.092828 -1.15277,-1.498767 -2.59736,-2.71739 -4.03562,-3.92762 -0.92204,-0.761731 -1.79932,-1.579489 -2.76194,-2.290811 -0.34669,-0.18203 -0.69338,-0.364061 -1.04008,-0.546089 0,0 -10.38439,-4.112906 -10.38439,-4.112906 v 0 c -0.12442,-0.02013 -0.24884,-0.04026 -0.37325,-0.06039 0.92785,0.760574 -0.16516,-0.108765 0.87401,0.629272 0.7587,0.538845 1.4502,1.167575 2.1771,1.74671 1.50536,1.203624 3.06623,2.357957 4.37,3.787805 1.55629,1.729523 2.74319,3.77213 3.64792,5.911955 1.11109,2.595756 2.24517,5.181301 3.21845,7.833781 1.1335,3.191936 2.0739,6.452254 2.76593,9.769704 0.14243,0.66801 0.40218,1.82794 0.50235,2.51767 0.1821,1.25377 0.10501,2.51461 0.20947,3.77389 0.0745,0.61778 0.13609,0.92446 0.11246,1.55044 -0.0399,1.05764 -0.37251,2.0777 -0.41451,3.13456 -0.008,0.28547 0.008,0.57276 -0.0248,0.8564 -0.19577,1.66754 -1.14504,3.1759 -1.21712,4.87101 -0.0752,0.37637 -0.11987,0.76014 -0.22549,1.12913 -0.0794,0.27742 -0.70331,1.79838 -0.79573,2.08517 -0.10903,0.33833 -0.18439,0.68667 -0.26839,1.03207 -0.0789,0.32458 -0.22427,0.64358 -0.22033,0.9776 0.005,0.41838 0.16426,0.82055 0.24638,1.23082 0.29909,0.53281 0.7044,1.01865 0.89725,1.59843 0.26487,0.79633 -0.0738,1.37944 -0.331,2.08194 -0.2602,0.71077 -0.46149,1.46718 -0.88916,2.10018 z" />
  <path
     style="fill:#000000;stroke-width:0.264583"
     id="path5"
     d="m 189.9132,166.49992 c 0.88734,-1.31095 -0.74041,0.99832 0.83642,-0.75448 0.17623,-0.1959 0.26078,-0.45804 0.38466,-0.6906 0.17653,-0.33139 0.40127,-0.64368 0.51647,-1.00105 0.20201,-0.62666 0.29886,-2.12647 0.35473,-2.74258 0.0373,-0.51354 0.0671,-1.02768 0.11198,-1.54061 0.0713,-0.81484 0.2388,-2.15102 0.2909,-2.96799 0.10373,-1.62669 0.091,-3.26513 0.14094,-4.89414 0.064,-3.67042 0.42566,-7.3279 0.69867,-10.98694 0.32269,-4.29338 0.9972,-8.54727 1.4561,-12.82692 0.44414,-3.9853 1.07318,-7.94539 1.37935,-11.94509 0.0371,-0.68905 0.0919,-1.37737 0.1114,-2.06715 0.0443,-1.56968 0.007,-3.14086 0.0459,-4.71069 0.0627,-2.54694 0.19013,-5.09225 0.32846,-7.6359 0.19328,-5.372843 0.87452,-10.701938 1.91137,-15.97235 1.01414,-5.383147 1.60654,-10.833526 2.41168,-16.249296 0.82545,-4.445849 1.23383,-8.953349 1.986,-13.409522 0.6846,-3.578534 1.26797,-7.175431 2.06022,-10.732492 0.7181,-3.168687 1.41271,-6.33961 2.22277,-9.486053 0.57916,-2.178881 1.30484,-4.313897 1.9889,-6.460937 0.41143,-1.379424 0.67734,-2.79586 1.03506,-4.189027 0.29582,-1.376425 0.76483,-2.682323 1.48076,-3.893963 0.30466,-0.514512 0.56977,-1.037468 0.78624,-1.594049 0.2273,-0.601004 0.44901,-1.202838 0.69492,-1.797316 0.37935,-0.879799 0.83019,-1.735749 1.33572,-2.549855 0.435,-0.553141 0.71825,-1.265784 1.25656,-1.733151 0.25685,-0.280874 0.50004,-0.576594 0.77606,-0.839049 0.1513,-0.279387 0.19871,-0.586295 0.45376,-0.780757 0.12033,-0.05529 0.0727,0.03578 0.0337,0.106501 -0.25554,0.450567 0.22702,-0.409623 0.24745,-0.442896 0.0228,-0.03709 0.16135,-0.115548 0.20028,-0.144723 0.31521,-0.559087 0.58626,-1.138045 0.93246,-1.6824608 0.16361,-0.203086 0.29041,-0.4339182 0.45184,-0.6361017 -0.0856,0.2174872 0.18983,-0.3158675 0.25683,-0.4535747 0.0147,-0.030212 0.056,-0.1220888 0.0441,-0.090638 -0.15117,0.4016184 -0.0368,0.091977 0.18526,-0.010708 0.1604,-0.015415 0.62913,-0.9972223 0.38529,-0.4585978 0.43845,-0.6464903 0.11901,-0.3081629 -1.05281,-1.1212949 0,0 -7.97999,-4.7219264 -7.97999,-4.7219264 v 0 c -1.38955,-0.7378123 -0.88878,-0.8608728 -1.41201,-0.6691164 -0.30667,0.4366138 -0.10359,0.247053 -0.29699,0.3753946 -0.26794,0.2305484 -0.43713,0.2737328 -0.59597,0.6885794 -0.0551,0.1825667 -0.0795,0.1024072 -0.23691,0.364295 -0.0835,0.2288278 -0.15607,0.4658921 -0.25584,0.6915041 -0.22159,0.4657815 -0.47596,0.9251434 -0.83226,1.2964504 -0.0328,0.035644 -0.45676,0.5975834 -0.36139,0.3871206 0.0377,-0.083274 0.0958,-0.15792 0.12267,-0.2453182 0.0149,-0.048696 -0.0574,0.084168 -0.0861,0.126252 -0.08,0.119747 -0.1595,0.234923 -0.2304,0.3600448 -0.14494,0.2274943 -0.34163,0.5203023 -0.37939,0.7619727 -0.23183,0.3014014 -0.47416,0.5927831 -0.70394,0.8957725 -0.4783,0.6258835 -0.72134,1.3914609 -1.20652,2.0178723 -0.5036,0.8728025 -0.97535,1.7603695 -1.43114,2.6590425 -0.29416,0.616835 -0.62579,1.214839 -0.87455,1.851683 -0.12505,0.539946 -0.40402,1.027031 -0.53098,1.568398 -0.47893,1.383366 -0.96538,2.762778 -1.46155,4.138384 -0.37299,1.402411 -0.54518,2.847732 -0.90283,4.255108 -0.4868,2.248102 -1.03256,4.479024 -1.57469,6.714608 -0.72445,3.200858 -1.30286,6.429404 -2.00583,9.634693 -0.24084,1.164805 -0.51075,2.32386 -0.72718,3.493445 -0.45886,2.479596 -0.6698,4.9926 -0.98504,7.491796 -0.65496,4.525571 -1.3418,9.048004 -1.64754,13.615551 -0.63181,5.433676 -1.38965,10.852248 -2.33914,16.240201 -0.41579,2.68609 -0.9189,5.36955 -1.26692,8.065199 -0.27685,2.144389 -0.30663,3.187205 -0.44589,5.342808 -0.0584,0.903949 -0.11781,1.807831 -0.17672,2.711749 -0.0437,0.884946 -0.0873,1.769893 -0.13099,2.654839 -0.0543,0.860699 -0.11873,1.720809 -0.16278,2.582089 -0.15357,3.00265 -0.14675,6.01475 -0.4417,9.00958 -0.38043,4.00667 -0.67546,8.0215 -1.19581,12.01389 -0.48107,4.28674 -0.9697,8.57252 -1.44335,12.85958 -0.35868,3.65545 -0.77247,7.30695 -0.85996,10.98318 -2.6e-4,1.63267 -0.0644,3.26107 -0.0818,4.89317 -0.015,1.40335 0.035,1.69543 -0.001,3.09986 -0.0133,0.51977 -0.0476,1.03879 -0.0713,1.55819 -0.034,0.97203 -0.11486,1.95959 0.03,2.92983 0.0708,0.47398 0.23639,0.92903 0.33954,1.39703 0.0694,0.31486 0.0846,0.64214 0.17793,0.95074 0.0936,0.30936 0.28673,0.58264 0.37969,0.89218 0.0533,0.17762 0.0363,0.36913 0.0545,0.5537 z" />
</svg>
