<?xml version="1.0" encoding="UTF-8" standalone="no"?>
<!-- Created with Inkscape (http://www.inkscape.org/) -->

<svg
   width="1000"
   height="1000"
   viewBox="60 0 164 264.58333"
   version="1.1"
   id="svg1"
   xmlns="http://www.w3.org/2000/svg"
   xmlns:svg="http://www.w3.org/2000/svg">
  <defs
     id="defs1" />
  <path
     style="fill:#000000;stroke-width:0.264583"
     id="path1"
     d="m 107.08274,157.28864 c -1.33387,-0.11562 -2.60101,-0.63518 -3.83673,-1.12645 -2.58865,-1.21613 -5.141348,-2.51258 -7.650521,-3.88534 -4.837266,-2.83476 2.242352,1.31947 7.386041,4.22286 0.42804,0.24161 -0.83848,-0.51363 -1.24731,-0.7865 -1.38934,-0.92731 -2.471259,-1.92178 -3.65469,-3.09462 -2.719327,-2.85586 -4.851117,-6.17428 -6.853621,-9.55106 -1.734408,-2.87963 -2.850862,-6.04575 -3.914857,-9.21591 -0.849768,-2.63117 -1.370444,-5.34543 -1.909154,-8.05175 -0.640305,-3.04892 -0.706919,-6.19828 -0.763773,-9.30546 -0.03812,-3.07217 0.57408,-6.09367 1.356902,-9.04846 1.218756,-3.89549 3.678391,-7.21912 6.09137,-10.45245 2.578508,-3.301595 5.607844,-6.21442 8.582943,-9.152271 1.73023,-1.812364 3.70034,-3.365217 5.54412,-5.054182 1.28528,-1.183788 2.72026,-2.182823 4.24976,-3.023034 2.79279,-1.340138 5.62163,-2.585257 8.53985,-3.625739 0.56429,-0.183533 1.12834,-0.367773 1.69285,-0.5506 1.44783,-0.468911 1.96219,-0.664038 3.44626,-1.011629 1.71273,-0.40114 3.45371,-0.612614 5.19466,-0.844458 2.18436,-0.224514 4.37777,-0.459025 6.57724,-0.434628 0.94375,0.01048 2.48336,0.114226 3.4285,0.170937 4.0373,0.107444 8.04988,0.511574 12.04067,1.114298 4.85065,0.92638 9.45551,2.773624 13.94258,4.787087 0.68163,0.330468 1.37258,0.642388 2.04491,0.991402 0.63383,0.329033 2.49086,1.398326 1.872,1.041932 -2.82683,-1.627936 -5.64526,-3.271084 -8.49607,-4.856655 -0.52627,-0.292698 1.02349,0.635601 1.51983,0.976591 1.29721,0.891198 1.58474,1.181637 2.7969,2.196679 2.82657,2.407592 5.0798,5.352433 7.34338,8.268478 1.93345,2.715858 3.8524,5.486357 5.29576,8.503271 0.29366,0.61381 0.54496,1.247 0.81744,1.870499 0.97336,2.445282 1.61898,4.998652 1.86212,7.620702 0.15027,1.62057 0.0999,2.10953 0.0773,3.7385 -0.10255,3.47557 -0.86313,6.90773 -2.20976,10.11335 -0.24342,0.57944 -0.53108,1.13929 -0.79661,1.70893 -1.40263,2.96809 -3.29959,5.65082 -5.19275,8.31727 -1.80121,2.6223 -3.64571,5.20291 -5.63955,7.68235 -1.80389,2.1982 -3.80762,4.21308 -5.88062,6.15417 -1.81236,1.63883 -3.84875,3.00118 -5.73268,4.55233 -1.08841,0.90106 -2.09002,1.90898 -2.98333,3.00344 -0.51497,0.66478 -0.93741,1.39044 -1.45773,2.05176 -0.49685,0.64682 -0.95804,1.31802 -1.52955,1.90552 -0.55556,0.50312 -0.66616,1.1674 -0.89263,1.83641 -0.16361,0.24817 -0.23868,0.63929 -0.50039,0.81497 -0.0981,-0.0838 -0.21847,0.36703 -0.24364,0.55226 0.0407,-0.032 -0.0575,0.19647 -0.0307,0.15217 0.0688,-0.11355 0.13768,-0.2271 0.20652,-0.34065 -0.007,0.007 -0.0137,0.0134 -0.0205,0.0201 0.0797,-0.34339 -0.56988,1.12918 -0.35894,0.78825 0.55723,-0.90068 0.32423,-0.61512 0.19453,-0.3703 -0.18508,0.24429 -0.23837,0.51998 -0.24278,0.82136 0.27258,0.64668 0.77694,0.95488 1.02645,1.64704 0,0 10.3982,5.06412 10.3982,5.06412 v 0 c 0.007,-0.0751 -0.0451,-0.19125 0.0222,-0.22541 0.22081,-0.11203 0.66024,0.19355 0.84136,-0.14355 0.0429,-0.35607 -0.14484,0.16608 0.0179,-0.20326 0.50582,-0.80193 0.5056,-0.90008 0.0186,-0.213 0.15783,-0.19478 0.44305,-0.40935 0.33206,-0.66674 -0.0577,-0.23061 -0.33425,0.57162 -0.13501,0.11901 0.12188,-0.39161 0.3695,-0.73654 0.48972,-1.1301 0.20205,-0.4882 0.29468,-1.00896 0.64132,-1.42255 0.51808,-0.65854 1.02381,-1.32372 1.53724,-1.98559 0.52296,-0.66943 0.9561,-1.39006 1.41174,-2.10469 0.74376,-1.07203 1.61997,-2.03894 2.56411,-2.93797 1.77044,-1.6541 3.66419,-3.16823 5.48478,-4.76573 2.09545,-2.0025 4.10008,-4.08532 5.85749,-6.39727 1.92572,-2.55567 3.86167,-5.10547 5.66011,-7.7536 1.87655,-2.78016 3.84675,-5.53018 5.05794,-8.6858 0.52001,-1.30899 1.00245,-2.46367 1.43674,-3.80905 0.88932,-2.75496 1.40984,-5.60529 1.70542,-8.48146 0.0227,-0.65879 0.0767,-1.31725 0.0681,-1.97638 -0.0442,-3.4011 -0.76208,-6.7945 -1.99484,-9.95496 -0.71794,-1.77222 -0.80228,-2.10787 -1.68627,-3.790567 -1.26703,-2.411814 -2.8648,-4.62009 -4.37443,-6.880526 -2.15004,-3.028098 -4.4334,-5.975406 -7.18941,-8.485383 -1.3905,-1.264074 -2.7925,-2.495079 -4.42164,-3.453247 -5.16722,-3.03907 -10.24711,-6.308719 -15.75023,-8.723534 -4.54951,-1.911496 -9.19298,-3.672819 -14.07763,-4.512202 -4.13472,-0.644094 -8.29515,-1.10776 -12.47842,-1.284309 -3.38535,-0.117014 -6.78388,-0.133535 -10.13299,0.460473 -1.07808,0.175292 -2.36686,0.373023 -3.43308,0.595517 -2.37683,0.495982 -4.69238,1.234143 -6.97542,2.052944 -3.01393,1.109395 -6.06968,2.126475 -8.95561,3.551198 -1.030109,0.523581 -2.122712,1.023218 -3.083501,1.671894 -0.606105,0.409212 -1.083929,0.994095 -1.586063,1.514702 -1.690079,1.780231 -3.33738,3.596373 -4.944835,5.452359 -2.885027,3.067518 -5.761559,6.146533 -8.385765,9.444262 -2.54368,3.325339 -5.220412,6.627606 -6.697102,10.598669 -0.445682,1.38091 -0.586094,1.69291 -0.885848,3.09009 -0.440381,2.05263 -0.578017,4.17285 -0.664488,6.26432 0.02476,3.14516 0.179792,6.29725 0.497054,9.42648 0.574543,2.79911 1.172162,5.59494 2.077654,8.31014 1.173567,3.3189 2.450433,6.61016 4.267573,9.64045 2.008391,3.37379 4.100113,6.7191 6.634313,9.72954 0.891508,1.02786 1.220983,1.48015 2.22713,2.36845 0.813496,0.71822 1.536825,1.22092 2.471362,1.77083 9.624756,5.66342 7.769788,4.62148 12.676836,7.34638 2.51386,1.31354 5.02464,2.65472 7.66542,3.69922 1.3043,0.46165 2.51357,0.74703 3.89088,0.85343 z" />
</svg>
