<?xml version="1.0" encoding="UTF-8" standalone="no"?>
<!-- Created with Inkscape (http://www.inkscape.org/) -->

<svg
   width="1000"
   height="1000"
   viewBox="0 0 264.58333 264.58333"
   version="1.1"
   id="svg1"
   xmlns="http://www.w3.org/2000/svg"
   xmlns:svg="http://www.w3.org/2000/svg">
  <defs
     id="defs1" />
  <path
     style="fill:#000000;stroke-width:26.4583"
     id="path7"
     d="m 75.980916,49.229105 c 2.284783,-0.254043 4.585372,-0.251675 6.875531,-0.422003 3.220239,-0.228362 6.43804,-0.500382 9.636326,-0.942107 1.879367,-0.190309 3.732229,-0.561702 5.609143,-0.769715 1.742758,-0.105445 3.472724,-0.305888 5.215224,-0.425731 2.74746,-0.163753 5.5001,-0.196575 8.25152,-0.227279 3.9335,-0.01188 7.86272,-0.02652 11.79322,-0.184611 3.15335,-0.234831 6.30383,-0.508529 9.46121,-0.684977 1.83202,-0.08543 3.66642,-0.08883 5.50001,-0.08524 4.39567,-0.02932 -4.70019,-0.02992 -7.04951,0.01947 -0.48879,0.01027 0.97556,0.06679 1.46253,0.110109 1.36673,0.121592 2.72965,0.292129 4.09271,0.448336 1.08625,0.224115 2.23326,0.15652 3.31491,0.384228 1.39004,0.434186 2.61299,1.356183 3.84442,2.130258 2.02349,1.295416 4.04447,2.597931 6.13079,3.790588 1.52486,0.737962 2.67089,1.927129 3.81056,3.148324 1.21986,1.416204 2.51109,2.768246 3.70828,4.204121 0.63482,0.632772 0.88086,1.358805 1.01929,2.216124 0.14382,1.262903 -0.28336,2.494851 -0.84443,3.608903 -0.36153,0.825296 -0.8423,1.573474 -1.43846,2.24546 -0.6882,0.800939 -1.4643,1.519653 -2.20945,2.266331 -0.90997,1.049227 -2.06396,1.780593 -3.20886,2.541582 -1.4454,0.909098 -2.92375,1.763671 -4.38003,2.655348 -1.87618,1.095587 -3.78702,2.150142 -5.7822,3.014239 -0.27563,0.109196 -0.55395,0.211818 -0.82688,0.327592 -1.43755,0.609798 -0.006,0.05642 -1.31845,0.568809 -0.45825,0.17885 -0.89477,0.278696 -1.32209,0.521202 -1.00896,0.534416 -2.06182,0.968852 -3.14967,1.312291 -1.12843,0.472731 -2.31396,0.772745 -3.47451,1.150782 -1.46225,0.614293 -3.01146,0.948878 -4.55595,1.287523 -1.94993,0.343995 -3.89291,0.732033 -5.82065,1.184159 -3.09475,0.820946 -6.22301,1.508813 -9.33577,2.257104 -2.99066,0.726581 -6.02719,1.314183 -8.91591,2.397604 -1.19138,0.449014 -2.37534,0.914273 -3.57146,1.350685 -0.732766,0.395248 -1.570416,0.517589 -2.342282,0.794747 -0.585732,0.282509 -0.289216,0.164619 -0.887923,0.35773 -1.004208,0.402913 -1.863024,1.060466 -2.758615,1.652845 -1.045329,0.700815 -2.122897,1.345657 -3.149976,2.075277 -0.649872,0.455528 -1.186045,1.041078 -1.83285,1.496137 -0.853721,0.468694 -1.718387,0.990619 -2.460556,1.631088 -0.750306,0.502599 -1.465533,1.051597 -2.033932,1.756512 -0.669999,0.7799 -1.389771,1.521 -1.988362,2.36361 -0.521883,0.82353 -0.974101,1.67945 -1.386232,2.56528 -0.520985,0.8357 -1.279821,1.47545 -1.875546,2.25057 -0.796541,0.8135 -1.054926,1.83309 -1.255755,2.92062 -0.253495,1.25717 -0.385477,2.53788 -0.513792,3.81323 -0.08127,0.72649 -0.138393,1.45726 -0.143081,2.18854 -0.06148,0.62553 0.153173,1.22314 0.293272,1.82391 0.250862,1.00147 0.827693,1.89477 1.334564,2.78414 0.637331,1.05454 1.215321,2.14247 1.840182,3.20426 0.437568,0.77667 0.918752,1.50264 1.568685,2.117 1.195033,0.93187 2.51895,1.70095 3.856303,2.41046 1.436803,0.7279 2.818685,1.5386 4.285006,2.20736 3.433506,1.51442 7.063359,2.49271 10.668288,3.49966 4.102002,1.18138 8.299062,1.91988 12.521782,2.49884 2.09488,0.24058 4.19514,0.45001 6.29793,0.60917 4.21367,0.29245 8.44113,0.15218 12.66318,0.0886 0.59483,-0.009 1.18443,-0.11332 1.77739,-0.16118 1.79779,-0.1451 2.84202,-0.19955 4.66617,-0.31113 4.39801,-0.25656 8.80283,-0.34423 13.20715,-0.39844 -2.23228,0.0125 -4.4658,-0.038 -6.69683,0.0375 -0.80609,0.0273 1.61224,0.0575 2.41724,0.10736 3.28211,0.20338 6.55593,0.56243 9.83377,0.82385 3.6388,0.25288 7.28267,0.38408 10.92003,0.66057 4.10368,0.41645 7.98998,0.0592 12.25493,-0.0147 0,0 -9.62142,-1.33551 -9.62142,-1.33551 v 0 c 16.32737,0.13843 10.16433,0.21706 6.63915,-0.0527 -3.76841,-0.23712 -7.5372,-0.41243 -11.30843,-0.59606 -7.79055,-0.55721 -15.52923,-1.62605 -23.37574,-1.03515 -4.36678,0.0475 -8.73121,0.18204 -13.09012,0.4594 -1.63181,0.0921 -3.26272,0.20149 -4.89535,0.2778 -0.70738,0.0331 -2.83121,0.0624 -2.12316,0.0748 15.11473,0.26487 9.46033,0.0927 6.15954,-0.0511 -2.17174,-0.13665 -4.32989,-0.40922 -6.50248,-0.53338 -4.30998,-0.42938 -8.60323,-1.06471 -12.75989,-2.32366 -3.46177,-0.9498 -6.93563,-1.9446 -10.231355,-3.38201 -0.563276,-0.29413 -1.143365,-0.55683 -1.695889,-0.8707 -0.798041,-0.45333 -1.52359,-1.03313 -2.406475,-1.33401 -1.280152,-0.64289 -2.544609,-1.32096 -3.693816,-2.18258 -0.646034,-0.53395 -1.175078,-1.11251 -1.572877,-1.8643 -0.743844,-0.97944 -1.258247,-2.11733 -1.918192,-3.15328 -0.491167,-0.77616 -0.913246,-1.63491 -1.139629,-2.528 -0.163936,-0.50684 -0.325038,-1.01358 -0.292949,-1.55135 0.003,-0.70524 -0.01947,-1.41063 0.01378,-2.11572 0.07409,-1.25206 0.20306,-2.49743 0.548542,-3.70877 0.183899,-0.95079 0.543164,-1.72983 1.232612,-2.43031 0.686943,-0.77582 1.406991,-1.53501 1.876346,-2.47166 0.432377,-0.81201 0.863841,-1.62463 1.38031,-2.38799 0.629589,-0.78874 1.334534,-1.50938 2.007174,-2.26093 0.63342,-0.57991 1.337127,-1.07163 2.012799,-1.599966 0.819163,-0.566981 1.682557,-1.064485 2.495624,-1.635006 0.578191,-0.508842 1.184881,-0.984941 1.793645,-1.456804 0.98552,-0.727223 2.04007,-1.353037 3.0617,-2.027195 0.89774,-0.554374 1.80607,-1.104051 2.8176,-1.427985 1.04424,-0.415103 2.12441,-0.740842 3.16441,-1.169837 1.14923,-0.43406 2.29661,-0.864246 3.41717,-1.369711 2.76302,-1.015204 5.63513,-1.671545 8.49832,-2.336093 3.22983,-0.762024 6.47872,-1.440228 9.7109,-2.192137 1.95507,-0.410911 3.9147,-0.797248 5.87445,-1.18432 1.60145,-0.386715 3.19248,-0.794017 4.74498,-1.350849 1.13757,-0.374816 2.27532,-0.744108 3.39313,-1.177446 1.11987,-0.420645 2.22066,-0.878985 3.2999,-1.395653 1.10076,-0.387924 2.11947,-0.978373 3.18561,-1.447834 1.96834,-0.976667 3.92875,-1.981505 5.81193,-3.114977 1.49087,-0.884592 3.03806,-1.68117 4.4492,-2.693503 1.19801,-0.805363 2.38214,-1.645047 3.36124,-2.717038 0.78374,-0.775555 1.54607,-1.572294 2.29724,-2.379417 0.54251,-0.776282 0.97019,-1.609383 1.31164,-2.494068 0.51927,-1.312127 1.02719,-2.67177 0.9279,-4.107593 -0.0425,-1.050088 -0.33981,-2.096616 -1.13647,-2.830488 -1.31665,-1.381715 -2.63941,-2.756363 -3.8734,-4.212693 -1.16399,-1.248098 -2.11881,-2.774588 -3.74235,-3.46184 -2.16712,-1.135925 -4.32933,-2.282397 -6.33823,-3.690726 -0.81743,-0.565102 -1.70128,-1.114264 -2.46936,-1.748914 -0.093,-0.07684 -0.49118,-0.51761 -0.65808,-0.609 -0.0882,-0.0483 -0.1935,-0.05487 -0.29025,-0.0823 -0.0741,-0.0315 -0.64467,-0.276098 -0.68682,-0.284822 -0.99013,-0.204901 -2.06974,-0.01053 -3.05975,-0.242152 -1.39488,-0.136443 -2.78769,-0.285104 -4.18007,-0.445235 -0.47441,-0.05456 -0.94557,-0.155607 -1.423,-0.165574 -3.56934,-0.07451 -7.13998,-0.05914 -10.70998,-0.08769 -0.36626,-0.0029 -0.73252,-0.0045 -1.09878,-0.0068 -1.80603,0.01839 -3.61331,0.03777 -5.41588,0.161322 -3.01082,0.250182 -6.01644,0.57214 -9.03479,0.722878 -4.00593,0.159314 -8.0126,0.1284 -12.02108,0.120912 -2.768713,0.02408 -5.536379,0.105315 -8.30042,0.274003 -1.82018,0.119192 -3.645921,0.220263 -5.455952,0.448233 -1.809316,0.263202 -3.612385,0.568116 -5.425035,0.809276 -3.162916,0.460121 -6.351929,0.723926 -9.543714,0.882494 -2.441252,0.130326 -4.889225,0.163113 -7.3216,0.431871 z" />
</svg>
