<?xml version="1.0" encoding="UTF-8" standalone="no"?>
<!-- Created with Inkscape (http://www.inkscape.org/) -->

<svg
   width="1000"
   height="1000"
   viewBox="0 0 264.58333 264.58333"
   version="1.1"
   id="svg1"
   xmlns="http://www.w3.org/2000/svg"
   xmlns:svg="http://www.w3.org/2000/svg">
  <defs
     id="defs1" />
  <path
     style="fill:#000000;stroke-width:32.8811"
     id="path1"
     d="m 63.41356,27.463636 c 3.512416,-0.02728 -5.5797,-0.03415 -8.369385,-0.0066 -0.170976,0.0017 0.338704,0.05285 0.507261,0.08481 0.553356,0.104919 1.09686,0.227593 1.653791,0.312587 0.974796,0.10804 1.900358,0.480457 2.858705,0.684731 1.190509,0.209029 2.35868,0.569004 3.532793,0.872961 1.105659,0.203043 2.178447,0.549555 3.267091,0.832952 1.047273,0.214202 2.062845,0.577857 3.109823,0.79363 0.700745,0.312924 1.424016,0.53757 2.140026,0.797818 1.110298,0.309637 2.145438,0.84025 3.189035,1.347776 0.517079,0.370418 1.166928,0.323344 1.686135,0.584255 0.884847,0.326675 1.779646,0.62391 2.639389,1.030457 0.616931,0.259936 1.209512,0.679739 1.880776,0.717422 1.124548,0.450692 2.301671,0.727753 3.471316,0.992272 0.792383,0.20798 1.600653,0.215563 2.361959,0.536428 0.507812,0.213995 1.02123,0.386241 1.560331,0.46259 0.503444,0.09671 0.99524,-0.02096 1.486825,0.102493 0.754111,0.144449 1.44993,0.389947 2.143476,0.741754 0.724553,0.288172 1.427001,0.653002 2.10956,1.049271 0.745126,0.425131 1.401813,1.026007 2.146102,1.448249 0.751933,0.572207 1.561427,1.030789 2.283671,1.650754 0.760789,0.621103 1.49159,1.287668 2.18229,2.003148 0.69837,0.637567 1.43324,1.22948 2.15291,1.84044 0.73688,0.722266 1.47953,1.434026 2.18926,2.188956 0.56578,0.533242 1.15948,1.028404 1.71254,1.580267 0.61238,0.64625 1.14335,1.375349 1.64295,2.130275 0.3722,0.698112 0.91461,1.240813 1.42806,1.8048 0.55491,0.591132 1.08123,1.223085 1.57462,1.878875 0.59219,0.594243 1.10165,1.272904 1.64883,1.917286 0.5705,0.795459 1.23704,1.491398 1.84269,2.251043 0.50525,0.530914 0.95943,1.112984 1.4349,1.676502 0.6114,0.788251 1.23828,1.558753 1.70628,2.465263 0.41165,0.915679 1.03214,1.672992 1.53602,2.520289 0.61861,1.161406 1.22543,2.334677 1.81228,3.518153 0.87959,1.722125 1.52166,3.547332 2.15806,5.392405 0.80054,2.614589 1.37346,5.306033 2.07595,7.953025 0.31964,1.098778 0.62762,2.201385 0.74524,3.352146 0.41259,1.751335 0.54169,3.559741 0.62366,5.361325 0.0686,1.932693 0.0861,3.868444 0.0848,5.802666 -0.023,1.748823 0.0602,3.48743 -0.18554,5.21963 -0.18989,1.18785 -0.35709,2.37552 -0.41556,3.58074 -0.0241,0.94602 -0.0483,1.87191 -0.19527,2.80489 -0.17767,1.18503 -0.24917,2.3662 -0.52809,3.52732 -0.25171,0.93421 -0.36149,1.88469 -0.42547,2.85228 -0.18978,0.76257 -0.38316,1.5185 -0.51815,2.29653 -0.11928,1.04192 -0.32951,2.06982 -0.4767,3.11327 -0.23368,1.0906 -0.49008,2.17238 -0.62993,3.28484 -0.29762,0.73158 -0.46284,1.49215 -0.58735,2.27846 0.0106,0.89048 -0.17086,1.71647 -0.34167,2.57703 -0.24174,0.84152 -0.28138,1.70627 -0.27869,2.58245 -0.0924,1.05739 -0.34525,2.07091 -0.64992,3.07083 -0.40928,1.03757 -0.93001,2.00736 -1.41698,3.00477 -0.56265,1.05935 -1.24079,2.02223 -1.87497,3.02714 -0.59682,1.02886 -1.43823,1.80357 -2.20135,2.66134 -0.81118,0.7463 -1.5607,1.58051 -2.44344,2.22899 -1.39245,0.80549 -2.71817,1.73949 -4.121,2.53072 -1.28155,0.72168 -2.65119,1.24039 -3.93232,1.95796 -0.94921,0.7036 -1.97464,1.24936 -2.997,1.80588 -1.05262,0.45642 -2.04934,1.05252 -3.0945,1.5275 -0.878515,0.20492 -1.617188,0.86675 -2.48886,1.0788 -0.59107,0.13838 -1.175922,-0.0929 -1.717626,0.23452 -0.436661,0.31545 -0.921968,0.4355 -1.432701,0.42506 -0.500441,0.0228 -1.001305,0.008 -1.501969,0.003 -3.375228,-0.0554 13.414356,0.0205 7.290136,-0.001 -0.582215,-0.003 -1.164452,-0.005 -1.746666,-0.004 -0.753829,0.0947 -1.44423,-0.077 -2.172799,-0.26705 -0.645193,-0.20102 -1.306967,-0.28835 -1.973404,-0.33638 -0.73733,7e-4 -1.455441,-0.31152 -2.180583,-0.46782 -0.60811,-0.062 -1.173295,-0.36208 -1.741402,-0.59779 -0.579493,-0.18891 -1.187486,-0.20528 -1.786716,-0.22358 -0.823968,0.0871 -1.600335,-0.23577 -2.406415,-0.38517 -0.719642,-0.11633 -1.440438,-0.0994 -2.108901,-0.44389 -0.487745,-0.24499 -1.015306,-0.3508 -1.544221,-0.40735 -3.800436,-0.13288 -7.605843,-0.0243 -11.408712,-0.0256 -3.179488,-0.009 -7.013442,0.0801 8.326582,0.0488 0.331971,-6.9e-4 -0.449813,-0.11934 -0.744796,-0.23841 -0.629459,-0.31894 -1.312719,-0.35115 -1.971432,-0.57517 -0.887567,-0.45733 -1.837378,-0.70426 -2.738141,-1.12315 -0.803934,-0.31947 -1.598491,-0.68678 -2.41715,-0.96026 -0.835817,-0.36747 -1.590755,-0.91593 -2.42832,-1.27942 -0.982094,-0.58947 -1.934463,-1.23213 -2.907381,-1.84137 -1.127703,-0.82106 -2.267654,-1.62202 -3.364861,-2.49359 -1.19637,-1.00178 -2.248902,-2.18167 -3.258706,-3.40637 -0.84442,-0.98314 -1.664366,-1.99274 -2.511497,-2.97278 -0.491302,-0.67431 -0.993877,-1.34485 -1.45782,-2.04461 -0.441849,-0.65686 -0.867122,-1.31848 -1.264801,-2.00969 -0.348242,-0.76441 -0.584645,-1.59251 -0.789046,-2.41786 -0.285792,-0.98127 -0.609725,-1.9402 -0.771523,-2.95789 -0.199476,-0.7772 -0.419453,-1.54128 -0.564374,-2.33468 -0.02468,-0.63048 -0.171034,-1.22141 -0.360829,-1.81274 -0.187486,-0.59515 -0.265545,-1.20924 -0.290188,-1.83638 -0.0062,-0.59808 -0.01941,-1.19601 3.11e-4,-1.79392 -0.01698,-0.6181 0.0268,-0.48517 0.256473,-0.958 0.06318,-0.62847 0.471379,-0.89768 0.770526,-1.37773 0.478786,-0.40981 0.665692,-1.0162 1.238388,-1.27097 0.198077,-0.16611 0.235934,-0.23361 0.48999,-0.29597 1.336689,-0.32809 2.683367,-0.59402 4.017026,-0.95195 3.087329,-0.63588 6.19397,-1.15916 9.310837,-1.58051 2.646198,-0.37682 5.285403,-0.66844 7.95243,-0.79897 2.374937,-0.0989 4.751548,-0.12613 7.127931,-0.12152 3.195547,0.007 7.805908,-10e-4 -7.154898,0.003 -0.201155,5e-5 0.402309,0.002 0.603464,0.001 1.202741,-0.002 0.465762,-0.0191 1.700106,0.0309 3.389159,0.14698 6.72812,0.70741 10.055561,1.4004 5.391216,1.25717 10.724598,2.79989 16.054367,4.34267 2.43849,0.82514 4.87226,1.64611 7.34203,2.34641 2.8474,0.85404 5.70635,1.64398 8.58253,2.37681 2.33702,0.45073 4.55617,1.31027 6.76383,2.23801 2.59586,0.86696 5.13372,1.91511 7.65832,3.00914 2.45637,1.01697 4.8989,2.07142 7.36318,3.0647 2.13192,0.85663 4.23619,1.79374 6.38846,2.58637 1.14272,0.40083 2.25008,0.91009 3.36959,1.38115 1.09673,0.52314 2.21985,0.98349 3.30113,1.54526 0.60622,0.4217 1.31776,0.56266 1.95873,0.87557 0.92588,0.35305 1.80011,0.84534 2.7052,1.25922 1.00711,0.48901 2.07948,0.77176 3.06889,1.30352 1.81324,0.69859 3.69196,1.19933 5.52289,1.85498 1.20704,0.41146 2.39364,0.90822 3.63185,1.19345 2.10273,0.53409 4.10897,1.43252 6.08661,2.37422 1.5699,0.70604 3.07331,1.5831 4.64409,2.28423 1.17317,0.41593 2.31203,0.93847 3.47391,1.38913 0.75718,0.24492 1.53279,0.43839 2.25839,0.79072 0.73106,0.38824 1.49359,0.70121 2.24976,1.02693 0,0 9.22377,-1.2851 9.22377,-1.2851 v 0 c -0.76834,-0.24964 -1.47418,-0.64122 -2.23997,-0.88792 -0.7153,-0.44114 -1.48173,-0.8137 -2.28946,-0.96496 -1.21409,-0.33954 -2.35383,-0.91082 -3.55877,-1.28324 -1.62053,-0.72021 -3.21633,-1.49237 -4.83254,-2.22572 -1.89929,-0.95209 -3.84571,-1.87139 -5.82896,-2.55336 -1.24864,-0.49301 -2.6319,-0.55508 -3.86974,-1.12413 -1.74688,-0.61048 -3.4868,-1.25183 -5.24956,-1.7859 -0.44223,-0.19212 -0.84885,-0.48749 -1.29597,-0.66109 -0.61155,-0.23744 -1.27595,-0.33081 -1.86771,-0.64418 -0.8762,-0.41881 -1.71406,-0.91293 -2.59037,-1.27918 -0.4026,-0.17423 -0.21038,-0.0635 -0.57559,-0.33466 -0.45337,-0.22218 -1.02868,-0.15178 -1.44801,-0.49643 -1.10324,-0.54597 -2.20921,-1.06777 -3.32905,-1.57432 -1.12817,-0.57581 -2.29928,-1.0122 -3.47091,-1.47258 -2.20261,-0.67527 -4.34191,-1.56121 -6.45588,-2.52349 -2.48453,-0.99166 -4.9884,-1.91774 -7.43538,-3.02676 -2.50025,-1.09906 -5.01857,-2.15976 -7.59178,-3.0286 -2.34582,-1.00003 -4.52254,-1.96353 -7.06168,-2.33699 -2.7764,-0.68442 -5.51556,-1.49173 -8.23203,-2.41422 -2.6565,-0.67482 -5.29036,-1.44133 -7.91572,-2.25535 -5.29646,-1.38529 -10.53951,-2.99041 -15.824884,-4.42393 -3.21393,-0.74085 -6.440472,-1.31813 -9.719054,-1.5702 -0.755017,-0.10374 -1.471857,-0.12542 -2.230784,-0.12554 -3.670097,-6.9e-4 -7.341059,-0.0187 -11.011432,0.006 -2.255587,0.0404 -4.510845,0.11416 -6.764556,0.22418 -2.729951,0.14576 -5.435392,0.44591 -8.143578,0.85454 -3.0972,0.50747 -6.195911,1.02133 -9.270868,1.67737 -1.65618,0.39269 -3.508875,0.5264 -4.946477,1.58596 -0.441948,0.4902 -0.77119,1.10035 -1.229228,1.57742 -0.383119,0.46609 -0.621112,0.99088 -0.818104,1.57644 -0.206088,0.46701 -0.325724,0.92384 -0.263016,1.45102 0.01795,0.61609 6.23e-4,1.23319 0.0416,1.84834 0.03659,0.71537 0.03628,1.43387 0.286713,2.1077 0.147449,0.56295 0.334757,1.08332 0.353056,1.68053 0.122758,0.79067 0.347136,1.56702 0.606153,2.31445 0.151109,1.05969 0.45797,2.04043 0.803488,3.03855 0.185218,0.91252 0.395468,1.83962 0.751492,2.68865 0.331419,0.76138 0.761989,1.46304 1.287356,2.07484 0.419687,0.82878 1.007217,1.47394 1.487843,2.25448 0.871952,0.97539 1.757291,1.93573 2.595895,2.94771 1.05732,1.21065 2.072495,2.46841 3.222223,3.57343 1.063004,0.96698 2.30545,1.63956 3.375895,2.59881 0.930237,0.69119 1.95006,1.20793 2.875964,1.90203 0.741409,0.58032 1.696392,0.75562 2.418779,1.40611 0.758069,0.41166 1.616421,0.61864 2.407025,0.9479 0.911374,0.40663 1.802176,0.79221 2.744089,1.08946 0.614054,0.40316 1.192658,0.64664 1.908919,0.63149 3.39215,1.58392 7.222107,0.56969 10.870718,0.56387 4.899699,-0.0243 -12.159924,0.0165 -6.991397,-0.007 0.504618,-0.0105 1.004567,0.003 1.505045,0.085 0.751093,0.229 1.386182,0.79787 2.224334,0.65739 0.44506,0.0488 0.926274,0.0696 1.359727,0.20504 0.237885,0.0744 0.442518,0.25723 0.682853,0.32102 0.09709,0.0258 0.199628,-0.001 0.299442,-0.001 0.583359,-0.005 1.166576,-0.007 1.749772,0.008 0.630328,0.0476 1.22341,0.35081 1.780835,0.66319 0.743677,0.0951 1.51411,0.18566 2.182478,0.58882 0.660915,0.007 1.331415,-0.007 1.980624,0.14859 0.737647,0.16639 1.416179,0.52528 2.16525,0.4931 0.590716,0.001 1.181433,-3.6e-4 1.772137,-0.001 3.704149,-10e-4 7.408416,0.0678 11.112573,0.005 0.50577,-0.0105 1.01303,-0.0298 1.51085,-0.14002 0.48798,-0.15081 0.93797,-0.4369 1.43709,-0.53577 0.59533,0.0548 1.18843,-0.0559 1.73065,-0.34097 0.78489,-0.43948 1.59504,-0.80575 2.41436,-1.15714 1.02534,-0.5323 2.05608,-1.05083 3.08575,-1.57246 1.02223,-0.55628 1.9883,-1.22649 3.00728,-1.78939 1.27361,-0.62086 2.5222,-1.31084 3.75793,-2.01904 1.44918,-0.85617 2.93129,-1.66245 4.30516,-2.66324 0.85066,-0.75041 1.67536,-1.53066 2.44628,-2.38272 0.82374,-0.88026 1.62917,-1.79206 2.25954,-2.85907 0.61536,-1.04514 1.3042,-2.03928 1.84858,-3.1352 0.50201,-1.04949 1.09262,-2.04924 1.45653,-3.1753 0.33228,-1.09447 0.49696,-2.22875 0.64161,-3.3718 0.0544,-0.80093 0.12493,-1.59879 0.29888,-2.38086 0.19425,-0.8734 0.32954,-1.74084 0.3757,-2.64043 0.11529,-0.79301 0.39865,-1.52815 0.55381,-2.31082 0.13544,-1.10875 0.36815,-2.19179 0.60478,-3.27867 0.12309,-1.04175 0.38899,-2.04371 0.54639,-3.07783 0.11884,-0.81473 0.36638,-1.5947 0.48446,-2.40976 0.05,-0.90208 0.18885,-1.79389 0.39127,-2.66924 0.25031,-1.18484 0.2976,-2.39802 0.52522,-3.58845 0.17618,-0.97612 0.22349,-1.9411 0.20879,-2.93741 0.0651,-1.17406 0.18042,-2.34304 0.32482,-3.50827 0.16565,-1.78159 0.1924,-3.564055 0.1414,-5.354549 -0.0118,-1.953044 -0.009,-3.90595 -0.10681,-5.857007 -0.1021,-1.821463 -0.19882,-3.643006 -0.42904,-5.451388 -0.18523,-1.213733 -0.48452,-2.396286 -0.93902,-3.522766 -0.83366,-2.621378 -1.54744,-5.290391 -2.26505,-7.953409 -0.29762,-1.181389 -0.53956,-2.512222 -0.96079,-3.653388 -0.24651,-0.667801 -0.77339,-1.21635 -0.97174,-1.916995 -0.55583,-1.216944 -1.13597,-2.415361 -1.7029,-3.62446 -0.49466,-0.833604 -1.06025,-1.601892 -1.52943,-2.454113 -0.49356,-0.963489 -1.09054,-1.824493 -1.69543,-2.695287 -0.45986,-0.57514 -0.88303,-1.220626 -1.45011,-1.664635 -0.61771,-0.759332 -1.26724,-1.457881 -1.85813,-2.239815 -0.10351,-0.140205 -0.20716,-0.280408 -0.31073,-0.420617 -0.10528,-0.105208 -0.22097,-0.198691 -0.31568,-0.315636 -0.33375,-0.412047 -0.52621,-0.95233 -0.98535,-1.233773 -0.58458,-0.56566 -1.03223,-1.300699 -1.5757,-1.915292 -0.48467,-0.506839 -0.97086,-1.014848 -1.42354,-1.557262 -0.43434,-0.86151 -1.06752,-1.627387 -1.69002,-2.322571 -0.48395,-0.663689 -1.08778,-1.225611 -1.6979,-1.720952 -0.81177,-0.605219 -1.45842,-1.473587 -2.21982,-2.155465 -0.63734,-0.68748 -1.36493,-1.291989 -2.12001,-1.809083 -0.71907,-0.73008 -1.44032,-1.456171 -2.22147,-2.104863 -0.73414,-0.592743 -1.41519,-1.242466 -2.23215,-1.699313 -0.63557,-0.601196 -1.49216,-0.940085 -2.17734,-1.485111 -0.65508,-0.538979 -1.38693,-0.857721 -2.10014,-1.280652 -0.75609,-0.211277 -1.36528,-0.7998 -2.167708,-0.83144 -0.115877,-0.03755 -0.231719,-0.07508 -0.347573,-0.112631 -0.09221,-0.0661 -0.173887,-0.155292 -0.27647,-0.19831 -0.245015,-0.102742 -0.58935,0.09487 -0.843433,0.01298 -0.529363,-0.0056 -1.056017,0.0045 -1.561968,-0.201728 -0.346926,-0.106297 -0.644687,-0.352689 -0.979248,-0.45851 -0.47922,-0.15158 -1.037375,-0.0031 -1.513533,-0.198073 -1.12307,-0.207918 -2.222565,-0.478358 -3.314617,-0.826779 -0.559709,-0.42186 -1.361867,-0.224293 -1.949145,-0.678412 -0.850781,-0.381248 -1.685689,-0.846097 -2.580372,-1.076365 -1.000904,-0.312846 0.493387,0.205495 -0.496648,-0.325627 -0.341156,-0.183021 -0.921651,0.06399 -1.245625,-0.248864 -1.096598,-0.380944 -2.088105,-1.042327 -3.189984,-1.407847 -0.716022,-0.231865 -1.423669,-0.484573 -2.12289,-0.77694 -0.98301,-0.513773 -2.161522,-0.445583 -3.172866,-0.919775 -1.128823,-0.193385 -2.181225,-0.671944 -3.321596,-0.803488 -1.166342,-0.257761 -2.322402,-0.594942 -3.459663,-0.973059 -1.002103,-0.06531 -1.951755,-0.404785 -2.917086,-0.69355 -0.394214,-0.03525 -0.739523,-0.05511 -1.12742,-0.128827 -0.324922,-0.06174 -0.636117,-0.228193 -0.965632,-0.237245 -3.207132,-0.08809 -6.415535,-0.103909 -9.62332,-0.154333 -0.130601,-0.0021 -0.261218,-0.0021 -0.391827,-0.0031 z" />
</svg>
