<?xml version="1.0" encoding="UTF-8" standalone="no"?>
<!-- Created with Inkscape (http://www.inkscape.org/) -->

<svg
   width="1000"
   height="1000"
   viewBox="0 0 264.58333 264.58333"
   version="1.1"
   id="svg1"
   xmlns="http://www.w3.org/2000/svg"
   xmlns:svg="http://www.w3.org/2000/svg">
  <defs
     id="defs1" />
  <path
     style="fill:#000000;stroke-width:26.4583"
     id="path5"
     d="m 57.099141,70.666096 c 2.950125,-2.165567 6.233597,-3.791699 9.477571,-5.46164 7.385163,-3.79144 15.089425,-6.909536 22.599882,-10.439112 2.676208,-1.12327 5.177052,-2.591221 7.587091,-4.196072 1.274033,-0.848381 2.38487,-1.69736 3.436775,-2.800477 0.83608,-0.979924 1.53631,-2.060898 2.35761,-3.053045 0.36632,-0.208881 0.56661,-0.598218 0.87919,-0.863976 0.0749,-0.06365 0.34843,-0.157877 0.25018,-0.15598 -10.1003,0.194961 -12.33682,-0.587116 -8.679143,0.552185 3.98826,2.991279 7.335113,6.727892 10.770553,10.314398 2.5274,2.712212 4.86804,5.585772 7.33655,8.35007 1.82799,2.081712 3.67207,4.147587 5.45477,6.268267 3.32974,4.096605 6.37932,8.400526 9.46333,12.680892 4.84021,6.149668 9.65802,12.318129 14.80831,18.213254 4.00172,4.31802 7.94851,8.68534 11.98137,12.97464 2.80199,3.05224 5.62323,6.10555 8.24989,9.31313 0.54592,0.66665 1.06582,1.35418 1.59873,2.03128 0.56024,0.684 1.12049,1.36801 1.68073,2.05201 2.53825,3.2759 5.13728,6.50667 7.51687,9.90166 0.7354,1.02568 1.49407,2.0333 2.29836,3.00559 0.18826,0.16951 0.34093,0.37005 0.49049,0.57272 0,0 9.88526,-0.63889 9.88526,-0.63889 v 0 c -0.18332,-0.23945 -0.36911,-0.47698 -0.56103,-0.70965 -1.0277,-0.81287 -1.78652,-1.96033 -2.75353,-2.84343 -2.72442,-3.26446 -5.42065,-6.54962 -8.04708,-9.89352 -3.73102,-4.5837 -7.75656,-8.91864 -11.55766,-13.44428 -3.9779,-4.46945 -8.35904,-8.54476 -12.4278,-12.930764 -5.23004,-5.746424 -10.08241,-11.831706 -14.63474,-18.128363 -1.79973,-2.60681 -3.60376,-5.209821 -5.33746,-7.861353 -0.34436,-0.526677 -1.90185,-2.983524 -2.36656,-3.647625 -0.30665,-0.438229 -0.64334,-0.854657 -0.965,-1.281986 -1.71361,-2.206712 -3.54181,-4.313581 -5.49634,-6.311191 -2.54864,-2.855383 -5.14233,-5.656662 -7.87235,-8.343373 -3.35539,-3.477816 -6.74603,-6.92963 -9.89899,-10.592816 -0.19682,-0.21405 -0.29992,-0.630131 -0.59046,-0.642149 -8.188476,-0.338719 -8.372015,-2.080321 -11.245673,1.409721 -0.723641,0.977093 -1.35023,2.021819 -2.091248,2.986384 -2.704685,2.95333 -6.222693,4.985488 -9.762689,6.782768 -7.537143,3.690443 -15.319044,6.853762 -22.91639,10.418316 -3.593222,1.752507 -7.190758,3.503353 -10.748216,5.319739 z" />
  <path
     style="fill:#000000;stroke-width:26.4583"
     id="path6"
     d="m 113.59961,114.53966 c 3.91516,-5.69668 9.08774,-10.38844 14.29373,-14.873951 7.4226,-6.264028 15.6983,-11.467613 24.36555,-15.828314 1.50436,-0.75688 3.0391,-1.451811 4.55865,-2.177716 3.14828,-1.416966 6.28671,-2.859141 9.46914,-4.198872 1.37284,-0.57794 2.72592,-1.111559 4.04573,-1.801278 1.28656,-0.954005 2.43228,-2.070877 3.56294,-3.199463 0.10003,-0.09971 0.20007,-0.199427 0.30009,-0.299141 0,0 -9.79875,-0.734933 -9.79875,-0.734933 v 0 c -0.0828,0.09707 -0.16556,0.19413 -0.24835,0.291193 -0.99151,1.101473 -2.05038,2.166398 -3.33775,2.921664 -3.83156,2.233776 -7.90314,4.041238 -11.80128,6.151501 -3.25184,1.689182 -5.93494,3.042439 -9.13827,4.885608 -6.90503,3.973092 -13.49997,8.476816 -19.83139,13.306063 -1.26897,1.055799 -2.56094,2.084549 -3.80691,3.167399 -4.26499,3.70658 -8.31391,7.66649 -12.20422,11.76177 z" />
</svg>
