<?xml version="1.0" encoding="UTF-8" standalone="no"?>
<!-- Created with Inkscape (http://www.inkscape.org/) -->

<svg
   width="1000"
   height="1000"
   viewBox="0 0 264.58333 264.58333"
   version="1.1"
   id="svg1"
   xmlns="http://www.w3.org/2000/svg"
   xmlns:svg="http://www.w3.org/2000/svg">
  <defs
     id="defs1" />
  <path
     style="fill:#000000;stroke-width:26.4583"
     id="path6"
     d="m 113.28644,32.713115 c -0.26767,0.759187 -0.70778,1.430472 -1.04782,2.158817 -0.33209,0.858335 -0.71677,1.614604 -1.30206,2.329138 -0.65461,0.858075 -1.42578,1.614286 -2.18907,2.379006 -1.33441,1.531078 -2.44183,3.236315 -3.68619,4.839944 -2.36913,3.005465 -5.267461,5.511649 -7.95717,8.210753 -2.919378,2.986111 -5.45773,6.302764 -7.985768,9.617792 -2.209713,3.063327 -4.618199,5.986566 -6.701896,9.138253 -1.416068,1.879695 -2.288973,4.031136 -3.202162,6.176891 -1.231246,2.4789 -2.247249,5.052277 -3.431315,7.55219 -1.336722,2.428568 -2.204807,5.045988 -3.160501,7.636891 -1.02675,2.828388 -2.468969,5.469787 -3.805803,8.15384 -0.969979,1.82728 -1.701417,3.78259 -2.156309,5.79887 -0.782805,3.85435 -1.832168,7.6453 -2.811413,11.45254 -1.120214,4.35644 -2.191268,8.72196 -2.886503,13.16891 -0.327774,3.53005 -0.545354,7.07074 -0.793785,10.60768 -0.241109,1.63323 -0.08632,2.93419 0.177639,4.54918 0.243017,1.57907 0.467619,3.15618 0.801865,4.71897 0.103687,0.78244 0.407799,1.45189 0.81344,2.11762 0.499367,0.79462 0.884066,1.64975 1.234885,2.51746 0.312398,0.75406 0.706575,1.47504 1.183097,2.13728 0.605049,0.7974 1.033905,1.70016 1.592117,2.53004 0.380934,0.63386 0.84618,1.19265 1.385123,1.69572 0.727509,0.87986 1.347338,1.84044 2.065771,2.72849 0.548961,0.6358 1.146794,1.22647 1.779292,1.77846 0.599627,0.39801 1.100084,0.90627 1.718227,1.27775 0.647518,0.40729 1.315027,0.77192 1.990167,1.12868 2.786721,1.63972 5.849639,2.75347 8.800886,4.06336 2.8004,1.13102 5.480439,2.64077 8.443849,3.30998 0,0 9.501787,-1.35948 9.501787,-1.35948 v 0 c -3.211435,-0.26161 -6.144386,-1.87676 -9.1242,-2.97102 -2.684495,-1.20009 -5.538375,-2.25876 -7.858999,-4.10743 -0.680817,-0.35711 -1.323668,-0.73002 -2.013087,-1.074 -0.231931,-0.13711 -0.49598,-0.21746 -0.720352,-0.36662 -0.332131,-0.22079 -0.544282,-0.62261 -0.883584,-0.84038 -0.713007,-0.41441 -1.319374,-0.93763 -1.904217,-1.51505 -0.732893,-0.85742 -1.445712,-1.74207 -1.981091,-2.73993 -0.410951,-0.60432 -1.075592,-0.9736 -1.423152,-1.63104 -0.639265,-0.78826 -1.084273,-1.65309 -1.559872,-2.54389 -0.471487,-0.58744 -0.886589,-1.23576 -1.20455,-1.91487 -0.437031,-0.86824 -0.710438,-1.80974 -1.222351,-2.64575 -0.362577,-0.57917 -0.683919,-1.17234 -0.834475,-1.84556 -0.530002,-1.48279 -0.776139,-3.03042 -1.017592,-4.58263 -0.170524,-1.461 -0.06803,-2.93413 -0.223605,-4.40017 -0.1358,-3.50167 -0.120997,-7.01203 0.374938,-10.48999 0.610391,-4.43493 1.622433,-8.77664 2.855767,-13.08003 0.931982,-3.85525 2.059877,-7.64639 3.218757,-11.43844 0.55535,-1.95014 1.364297,-3.79299 2.239666,-5.61961 1.167985,-2.727403 2.29294,-5.472704 3.42024,-8.21724 1.107609,-2.530748 2.309119,-5.016151 3.351117,-7.575016 1.180364,-2.504016 2.307799,-5.028009 3.400917,-7.570956 0.984983,-2.075156 2.173401,-4.03316 3.277672,-6.04556 1.876229,-3.191433 4.068005,-6.192427 6.374259,-9.084577 2.434334,-3.386034 5.142344,-6.584855 8.158704,-9.469387 2.70983,-2.700936 5.31869,-5.492068 7.93715,-8.281022 0.41452,-0.438261 0.84051,-0.865952 1.24357,-1.314781 0.99154,-1.104156 1.75646,-2.399567 2.85038,-3.412283 0.83401,-0.792837 1.67881,-1.564571 2.32698,-2.524951 0.53122,-0.788365 0.9439,-1.625272 1.325,-2.495044 0.38836,-0.712933 0.7318,-1.449102 1.1244,-2.159442 z" />
  <path
     style="fill:#000000;stroke-width:26.4583"
     id="path7"
     d="m 149.02644,175.44027 c 0.13779,-0.0714 0.26752,-0.16116 0.41337,-0.2142 0.21178,-0.077 0.43764,-0.10855 0.65336,-0.17376 1.84466,-0.5577 3.6604,-1.15331 5.54335,-1.58554 1.12299,-0.25778 2.25678,-0.46603 3.38517,-0.69904 6.32721,-1.07358 12.63467,-2.22004 18.83569,-3.88446 1.20627,-0.4172 2.50893,-0.75167 3.61837,-1.4144 0.80114,-0.47856 1.47289,-1.20233 2.1441,-1.83869 1.08281,-1.05804 2.21366,-2.06691 2.94446,-3.40676 0.12784,-0.35706 0.27831,-0.70681 0.38351,-1.07119 0.15593,-0.54003 0.79905,-3.35605 0.89697,-3.75122 0.4755,-1.91888 0.92477,-3.828 1.329,-5.76379 0.3627,-1.85576 0.73384,-3.75581 0.68221,-5.65893 -0.0226,-0.83338 -0.27495,-2.85704 -0.36821,-3.66575 -1.12569,-5.06804 -3.15604,-9.86678 -5.01719,-14.69422 -0.55438,-1.57761 -1.18666,-3.12878 -1.89148,-4.64522 -0.18316,-0.39407 -0.32809,-0.81146 -0.57005,-1.17241 -0.70074,-1.04537 -2.10551,-2.46313 -2.92501,-3.33989 -3.96517,-3.86933 -8.02022,-7.64658 -11.91897,-11.58334 -4.11045,-4.40397 -8.983,-7.966869 -13.84895,-11.476868 -3.88746,-2.589747 -7.7327,-5.265952 -11.78696,-7.593275 -2.03853,-1.178359 -4.34569,-1.495292 -6.64904,-1.709007 -8.41278,-0.627602 -16.80216,0.0854 -25.18185,0.680469 -3.23148,0.279789 -6.45937,0.557995 -9.65831,1.08857 -1.03171,0.318137 -2.14128,0.453818 -3.12218,0.930359 -0.830625,0.403535 -1.622216,0.883809 -2.449052,1.295054 -3.10936,1.55711 -6.32174,2.887871 -9.490274,4.315161 -1.222068,0.563964 -2.532403,1.029533 -3.643849,1.806675 -0.528352,0.369433 -1.020744,0.787797 -1.530803,1.1821 -2.712294,2.141929 -5.695756,3.879532 -8.727736,5.518592 0,0 9.283062,0.98541 9.283062,0.98541 v 0 c 3.030109,-1.78222 5.977353,-3.68399 8.922872,-5.601757 1.597173,-1.064641 3.235756,-2.057421 5.00062,-2.826699 3.129034,-1.476375 6.28828,-2.891444 9.43558,-4.327671 1.88149,-0.833596 3.78247,-1.596316 5.82421,-1.936173 2.93277,-0.513271 5.89158,-0.857232 8.85732,-1.11824 2.95179,-0.234305 5.9059,-0.499322 8.86545,-0.616361 1.03431,-0.0409 4.13949,-0.04671 3.1046,-0.06815 -2.17721,-0.0451 -4.35565,-0.03902 -6.53303,-0.0029 -0.59682,0.0099 1.19256,0.05442 1.78884,0.08163 2.21998,0.166928 4.45342,0.409011 6.49483,1.365168 4.49689,2.003655 8.70539,4.617937 12.789,7.35036 2.77438,1.983531 5.47935,3.995803 8.0228,6.273943 2.26834,2.03172 1.6441,1.58666 3.74031,3.63237 0.51359,0.50122 1.04589,0.9829 1.56883,1.47435 3.92985,3.8785 8.19649,7.41261 11.8824,11.53225 0.94466,1.12339 1.68875,1.91918 2.4632,3.13439 1.15094,1.80598 1.92345,3.83302 2.906,5.72715 2.08857,4.62263 4.08968,9.37547 4.79701,14.43495 0.0578,0.60388 0.14442,1.20568 0.17328,1.81163 0.11545,2.4231 -0.25786,4.84616 -0.50802,7.24774 -0.56174,3.4993 -1.22529,7.14622 -3.08793,10.21412 -0.82305,1.14972 -1.76028,2.20295 -2.81223,3.15099 -1.54086,1.35331 -3.2806,2.29595 -5.26097,2.87339 -5.91513,1.83526 -12.01554,2.88384 -18.11592,3.90253 -3.40121,0.62215 -6.87418,1.20697 -10.18434,2.24298 -0.55676,0.17425 -0.79166,0.32051 -1.27063,0.57386 z" />
</svg>
