<?xml version="1.0" encoding="UTF-8" standalone="no"?>
<!-- Created with Inkscape (http://www.inkscape.org/) -->

<svg
   width="1000"
   height="1000"
   viewBox="0 0 264.58333 264.58333"
   version="1.1"
   id="svg1"
   xmlns="http://www.w3.org/2000/svg"
   xmlns:svg="http://www.w3.org/2000/svg">
  <defs
     id="defs1" />
  <path
     style="fill:#000000;stroke-width:26.4583"
     id="path3"
     d="m 62.878956,52.665778 c 0.105315,1.08114 0.0957,2.173538 0.06151,3.258544 -0.01053,0.864053 -0.0214,1.728071 -0.02941,2.592073 -0.01416,0.619908 -0.06618,1.237311 0.04619,1.848236 0.185663,0.69206 0.302233,1.395164 0.373152,2.106983 0.05146,0.764294 0.07604,1.529818 0.08644,2.295951 0.05534,1.070845 -0.04801,2.148017 0.05464,3.215045 0.168555,0.814551 0.248896,1.645089 0.415602,2.459016 0.180594,0.6859 0.321593,1.379686 0.406829,2.083662 0.02426,0.830509 0.195757,1.638999 0.35456,2.452061 0.126203,0.83393 0.389482,1.639856 0.530659,2.470142 0.07535,0.81625 0.429717,1.56029 0.66693,2.333924 0.310837,0.912013 0.595082,1.832597 0.939247,2.73272 0.246052,0.706927 0.636828,1.34774 1.064664,1.957387 0.596951,0.828247 1.241589,1.615324 1.818532,2.459382 0.488373,0.680079 0.988317,1.352399 1.422958,2.068607 0.470215,0.706755 1.117301,1.290037 1.747356,1.85319 1.169067,1.249251 2.522569,2.30832 3.81259,3.428002 2.341386,1.958456 4.794726,3.774638 7.232494,5.61005 2.545615,1.841207 5.053999,3.725887 7.631488,5.522597 1.039691,0.76073 2.143051,1.40545 3.326141,1.9101 3.035112,0.93862 6.139012,1.66934 9.210652,2.48946 2.61444,0.62031 5.21213,1.32663 7.85003,1.84368 3.78354,0.40857 7.5966,0.6155 11.39936,0.79769 5.77505,0.26914 11.55328,0.20051 17.33387,0.18526 0.90737,-0.002 1.8153,-0.004 2.72177,-0.0443 1.4138,-0.0635 3.27213,-0.26833 4.69684,-0.4116 2.09012,-0.40309 4.32287,-0.49228 6.26523,-1.43319 0.70756,-0.63024 1.59121,-0.97771 2.38609,-1.47466 0.14465,-0.0871 0.29813,-0.1609 0.43395,-0.26119 0.50573,-0.37346 0.9114,-0.89121 1.38959,-1.29798 0.38808,-0.33011 0.80416,-0.62582 1.2056,-0.93955 1.07815,-1.13975 2.36458,-2.06436 3.41019,-3.2323 0.83088,-1.00329 1.83909,-1.85569 2.62113,-2.89762 0.85994,-1.410727 1.84893,-2.731855 2.77077,-4.103206 0.61783,-1.107829 1.35836,-2.133672 2.06457,-3.181763 0.46273,-0.84985 0.89927,-1.698567 1.33193,-2.561722 0.85256,-1.629402 1.53879,-3.331909 2.40545,-4.956776 0.92193,-1.590371 1.83001,-3.18512 2.75962,-4.770522 0.50069,-0.864841 0.77221,-1.801283 0.91831,-2.782253 0.0191,-0.681159 0.17095,-1.312161 0.31729,-1.97142 0.0488,-1.114425 0.1954,-2.212444 0.45105,-3.29745 0.27665,-0.838697 0.34448,-1.794494 0.84297,-2.539423 0.26723,-0.693967 0.49577,-1.412618 0.65326,-2.141331 0.25657,-0.92747 0.53305,-1.832964 0.93246,-2.710349 0.42602,-0.976408 0.83701,-1.958867 1.33147,-2.903024 0.30177,-0.586052 0.68698,-1.182307 0.82376,-1.835238 0.053,-0.449262 0.22136,-0.84351 0.34453,-1.290584 0.0488,-0.574522 0.33322,-1.063416 0.45817,-1.619811 0.11242,-0.870371 0.29477,-1.728303 0.44719,-2.591649 0.0432,-0.720741 0.41183,-1.360244 0.58491,-2.049119 0.059,-0.495186 0.10836,-0.907179 0.27802,-1.358313 0.0287,-0.06703 0.0633,-0.131828 0.086,-0.201104 0.006,-0.01815 0.11871,-0.474498 0.13282,-0.510971 0.0132,-0.0341 0.0548,-0.125074 0.0634,-0.08952 0.0434,0.180507 0.2339,0.546772 0.0484,0.554831 -3.25421,0.141412 -6.51397,-0.08823 -9.77095,-0.132336 0.36236,-0.432933 0.34216,1.349864 0.33394,1.491699 -0.12686,0.846479 -0.2097,1.703274 -0.48701,2.516042 -0.23454,0.538014 -0.3619,1.11242 -0.40822,1.695614 -0.14761,0.648417 -0.32331,1.278001 -0.532,1.90853 -0.21686,0.643398 -0.375,1.299265 -0.63159,1.929971 -0.14491,0.66185 -0.42061,1.263113 -0.56006,1.929863 -0.2386,0.734055 -0.4795,1.468776 -0.60368,2.232038 -0.051,0.582864 -0.25689,1.119926 -0.42116,1.682681 -0.26795,0.925735 -0.49078,1.860024 -0.75648,2.789539 -0.26784,0.836803 -0.19152,1.731169 -0.38855,2.577428 -0.14587,0.731391 -0.40778,1.426538 -0.59524,2.146517 -0.0997,0.867879 -0.41243,1.68174 -0.59323,2.531317 -0.0564,0.752914 -0.48269,1.380027 -0.77402,2.052814 -0.30426,0.787697 -0.34763,1.640883 -0.63072,2.441237 -0.2068,0.823663 -0.70378,1.513228 -0.95564,2.316517 -0.13893,0.752207 -0.35295,1.485058 -0.55137,2.222743 -0.0911,0.709684 -0.23253,1.401329 -0.39505,2.097889 -0.41296,0.584391 -0.47349,1.286492 -0.70577,1.933623 -0.20018,0.65332 -0.4009,1.299837 -0.6211,1.944949 -0.18379,1.195599 -0.59272,2.323166 -0.93671,3.475469 -0.44704,0.873638 -0.59561,1.82871 -0.82651,2.76802 -0.26323,1.153126 -0.65527,2.268603 -1.01808,3.392723 -0.39386,1.96227 -0.9644,3.87282 -1.58222,5.77424 -0.84986,2.84677 -1.83977,5.64853 -2.72445,8.48391 -0.64499,2.18092 -0.92003,4.45159 -1.31992,6.68748 -0.31103,1.75333 -0.46762,3.52297 -0.5586,5.29921 -0.0748,0.94994 -0.0847,1.90202 -0.0715,2.85395 0.0586,1.19959 0.047,2.40044 0.0364,3.60091 0.0217,1.21612 -0.005,2.43228 0.002,3.64826 -0.0326,1.43961 0.0385,2.86712 0.1945,4.29711 0.21333,2.33775 0.4115,4.67456 0.70453,7.00452 0.45907,2.98528 0.80896,5.97301 1.00874,8.98727 0.23103,2.71232 0.48894,5.42208 0.73085,8.1334 0.36046,2.94485 0.82579,5.87102 1.10154,8.82605 0.136,2.45308 0.40381,4.88998 0.72577,7.32402 0.13472,0.77967 0.10783,1.64857 0.54144,2.34336 0.15459,0.37983 0.42908,0.68593 0.61584,1.0435 0.12151,0.10561 0.18231,0.35585 0.32972,0.43844 0.0202,0.0113 0.0502,-0.0374 0.0664,-0.0207 0.10178,0.10467 0.15111,0.25081 0.24205,0.36502 0.66534,0.44991 0.99721,1.33738 1.32486,2.04189 0.52677,1.06084 0.7433,2.22533 1.09409,3.3463 0.17785,0.65431 0.43039,1.2803 0.66871,1.91367 0.41153,1.05353 0.66147,2.16182 1.00696,3.23716 0.49276,1.17145 0.8413,2.39417 1.32698,3.5684 0.27932,0.80526 0.65807,1.56672 0.9998,2.3454 0.0887,0.25867 0.16202,0.52187 0.24362,0.78285 0,0 9.87997,-0.39468 9.87997,-0.39468 v 0 c -0.15453,-0.24092 -0.15201,-0.50614 -0.27243,-0.76613 -0.30615,-0.81407 -0.83306,-1.52182 -1.11706,-2.34823 -0.47528,-1.15706 -0.91997,-2.32488 -1.30683,-3.51507 -0.39738,-1.046 -0.67488,-2.13429 -0.89417,-3.22903 -0.2021,-0.66559 -0.5705,-1.26067 -0.72542,-1.94299 -0.4826,-1.10985 -0.71069,-2.30865 -1.23161,-3.40542 -0.19079,-0.44276 -0.59884,-1.83879 -0.85666,-2.1331 -0.0337,-0.0384 -0.10326,-0.0333 -0.13424,-0.0739 -0.054,-0.0708 -0.0723,-0.16284 -0.10847,-0.24425 -0.0678,-0.0396 -0.17345,-0.0292 -0.21515,-0.0957 -0.18894,-0.30134 -0.0665,-0.29667 -0.43073,-0.5086 -0.17413,-0.11527 -0.44042,-0.67921 -0.60106,-0.89165 -0.10373,-0.21843 -0.2519,-0.32159 -0.37175,-0.53042 -0.2651,-0.46193 -0.28726,-1.00167 -0.43245,-1.5047 -0.5782,-2.37248 -0.91289,-4.79303 -1.01662,-7.23408 -0.28602,-2.94957 -0.71321,-5.88216 -1.06478,-8.82441 -0.26192,-2.70517 -0.37319,-5.42129 -0.74125,-8.11648 -0.25193,-3.01626 -0.62978,-6.02142 -0.99097,-9.02614 -0.24889,-2.32277 -0.33909,-4.65333 -0.47216,-6.98465 -0.10705,-1.40299 -0.11351,-2.80156 -0.0793,-4.20795 0.007,-1.21623 -0.0195,-2.43261 8e-4,-3.64899 -0.0124,-1.20132 -0.0264,-2.40291 0.0242,-3.60364 0.006,-0.94046 -0.0138,-1.87996 -0.0373,-2.82034 0.0182,-1.72958 0.10727,-3.46094 0.35626,-5.17424 0.3329,-2.2102 0.82008,-4.392 1.29135,-6.57583 0.76059,-2.85443 1.59604,-5.68432 2.66944,-8.43943 0.69233,-1.9161 1.38253,-3.82838 1.90731,-5.79753 0.33024,-1.15493 0.78636,-2.272011 1.06138,-3.443393 0.22996,-0.923872 0.45823,-1.841653 0.81036,-2.7296 0.32105,-1.141934 0.58197,-2.308649 1.02047,-3.410741 0.24556,-0.647976 0.37162,-1.326714 0.60278,-1.980269 0.19983,-0.686821 0.47135,-1.34075 0.70207,-2.016538 0.15737,-0.694132 0.33383,-1.375471 0.41759,-2.083853 0.15676,-0.715796 0.37814,-1.416095 0.54102,-2.129533 0.30406,-0.775814 0.68477,-1.521058 0.89547,-2.332442 0.24364,-0.776217 0.38016,-1.583452 0.68848,-2.336975 0.34172,-0.721622 0.66386,-1.453417 0.76148,-2.255004 0.19366,-0.825886 0.42352,-1.642978 0.58766,-2.475426 0.22858,-0.737904 0.48348,-1.46536 0.6082,-2.231355 0.13551,-0.832194 0.10535,-1.690132 0.35037,-2.507028 0.23011,-0.916657 0.47642,-1.833047 0.78125,-2.727314 0.22534,-0.596374 0.44663,-1.190924 0.46289,-1.836857 0.13032,-0.738145 0.33523,-1.45493 0.58364,-2.162315 0.17483,-0.613476 0.42935,-1.201039 0.58064,-1.822254 0.20697,-0.648547 0.41008,-1.29522 0.60092,-1.948376 0.2465,-0.69828 0.40785,-1.419082 0.5959,-2.134616 0.0642,-0.515961 0.18306,-1.016418 0.33913,-1.512909 0.22612,-0.896305 0.34683,-1.807368 0.46236,-2.72406 0.0759,-0.883295 -0.0164,-1.800653 -0.24169,-2.658329 -12.81656,-0.302538 -8.80634,-3.155657 -10.34075,1.12128 -0.17441,0.474652 -0.16875,0.962943 -0.27186,1.45279 -0.20077,0.703413 -0.41497,1.409023 -0.49545,2.138378 -0.14277,0.84028 -0.34191,1.665949 -0.51701,2.498331 -0.17737,0.532985 -0.39685,1.050851 -0.47628,1.611432 -0.12492,0.438539 -0.33746,0.848884 -0.37249,1.311314 -0.19182,0.559271 -0.39629,1.110835 -0.68798,1.628553 -0.47129,0.97364 -0.84871,1.984912 -1.31556,2.960267 -0.38735,0.942951 -0.73044,1.893088 -0.99332,2.879463 -0.17376,0.659897 -0.40268,1.304171 -0.69956,1.919428 -0.331,0.892347 -0.42637,1.84536 -0.69864,2.75596 -0.27917,1.09124 -0.38126,2.196659 -0.57766,3.3005 -0.17522,0.67832 -0.27735,1.353688 -0.29177,2.055855 -0.13374,0.871209 -0.40762,1.692455 -0.85283,2.458942 -0.74375,1.620835 -1.54266,3.218842 -2.40747,4.778375 -0.89634,1.667452 -1.87104,3.290483 -2.76919,4.957146 -0.42993,0.823968 -0.86482,1.646462 -1.3284,2.451949 -0.67918,1.043316 -1.30695,2.1188 -1.93826,3.191463 -0.89498,1.384879 -1.84372,2.740938 -2.89464,4.012229 -0.8025,0.959712 -1.62993,1.902252 -2.50086,2.800252 -1.12832,1.0421 -2.19951,2.14757 -3.39669,3.11241 -1.01507,0.81186 -1.97315,1.71312 -3.11587,2.34752 -0.81958,0.43379 -1.59164,0.94321 -2.41252,1.36804 -1.74932,0.69029 -3.65442,0.91891 -5.49387,1.23395 -1.75689,0.18083 -2.65227,0.29856 -4.45828,0.37109 -0.87902,0.0353 -3.51838,0.0271 -2.63882,0.0442 12.77564,0.24778 2.64717,-0.0947 0.0583,-0.15781 -3.53125,-0.17737 -7.05317,-0.4306 -10.56783,-0.81754 -2.82229,-0.36186 -5.60219,-1.00914 -8.36388,-1.68137 -2.88572,-0.73898 -5.76812,-1.53166 -8.59544,-2.46606 -1.25017,-0.41348 -2.40072,-1.02966 -3.54264,-1.68033 -2.735741,-1.64956 -5.360424,-3.48174 -7.883377,-5.440384 -2.400691,-1.739714 -4.677418,-3.637804 -6.933559,-5.559131 -1.232059,-1.085969 -2.473783,-2.16921 -3.601419,-3.363066 -0.49603,-0.596992 -1.071234,-1.129106 -1.623734,-1.663626 -0.484307,-0.729702 -0.955368,-1.450842 -1.540735,-2.108742 -0.594487,-0.818473 -1.127205,-1.680964 -1.723057,-2.49042 -0.419822,-0.528322 -0.81366,-1.101079 -1.058166,-1.728097 -0.403051,-0.833871 -0.660403,-1.726411 -1.012638,-2.582611 -0.168499,-0.768331 -0.41013,-1.504018 -0.583226,-2.262597 -0.162695,-0.834398 -0.454996,-1.634742 -0.530032,-2.483977 -0.156358,-0.782828 -0.396988,-1.551798 -0.335351,-2.361497 -0.0657,-0.7489 -0.253074,-1.470115 -0.446532,-2.19507 -0.187169,-0.780172 -0.183129,-1.597277 -0.436211,-2.364976 -0.158403,-1.022942 -0.04,-2.067774 -0.05615,-3.098776 0.0068,-0.795909 0.04736,-1.595763 -0.02819,-2.38887 -0.07,-0.738402 -0.203009,-1.465696 -0.365638,-2.188694 -0.09753,-0.55019 -0.02442,-1.115356 -0.0689,-1.671161 -0.008,-0.864002 -0.01887,-1.72802 -0.02941,-2.592073 -0.03419,-1.085006 -0.04381,-2.177404 0.06151,-3.258545 z" />
</svg>
