<?xml version="1.0" encoding="UTF-8" standalone="no"?>
<!-- Created with Inkscape (http://www.inkscape.org/) -->

<svg
   width="1000"
   height="1000"
   viewBox="0 0 264.58333 264.58333"
   version="1.1"
   id="svg1"
   xmlns="http://www.w3.org/2000/svg"
   xmlns:svg="http://www.w3.org/2000/svg">
  <defs
     id="defs1" />
  <g
     id="layer1"
     transform="matrix(0.75515151,0,0,0.74722862,34.075126,6.1833794)">
    <path
       id="path8"
       style="fill:#000000;stroke:none;stroke-width:5.16501"
       d="m 39.687499,39.687499 0.42323,56.960347 a 99.21875,90.3993 0 0 0 -7.037813,33.438784 99.21875,90.3993 0 0 0 99.218744,90.39965 99.21875,90.3993 0 0 0 99.21875,-90.39965 99.21875,90.3993 0 0 0 -99.21875,-90.399131 99.21875,90.3993 0 0 0 -79.374994,36.15955 v -36.15955 z m 92.604161,9.394776 a 85.989578,80.74826 0 0 1 85.98959,80.748045 85.989578,80.74826 0 0 1 -85.98959,80.74856 85.989578,80.74826 0 0 1 -85.989577,-80.74856 85.989578,80.74826 0 0 1 85.989577,-80.748045 z" />
  </g>
</svg>
