<?xml version="1.0" encoding="UTF-8" standalone="no"?>
<!-- Created with Inkscape (http://www.inkscape.org/) -->

<svg
   width="1000"
   height="1000"
   viewBox="0 0 264.58333 264.58333"
   version="1.1"
   id="svg1"
   xmlns="http://www.w3.org/2000/svg"
   xmlns:svg="http://www.w3.org/2000/svg">
  <defs
     id="defs1" />
  <path
     style="fill:#000000;stroke-width:0.264583"
     id="path4"
     d="m 78.196206,67.316381 c -0.498038,1.983129 -0.628044,4.038666 -0.94815,6.052418 -0.274749,1.728422 -0.75633,3.942228 -1.108281,5.639104 -1.313646,5.810586 -2.918561,11.555772 -4.14613,17.386083 -0.2848,1.352645 -0.530653,2.713199 -0.79598,4.069794 -0.629576,4.3335 -1.452862,8.64181 -1.995813,12.98818 -0.510768,4.08874 -0.824794,8.21022 -1.177499,12.31486 -0.222179,3.74128 -0.01474,7.49516 0.458666,11.20954 0.156226,1.22582 0.298235,2.45746 0.567433,3.66351 0.583843,2.61573 1.695125,5.64679 2.555968,8.1722 0.934524,2.48298 1.745035,4.89655 3.00142,7.24317 1.481518,2.76711 3.818416,5.94395 6.135441,8.08929 0.776052,0.71855 1.650841,1.3225 2.476262,1.98375 5.332029,3.25012 7.11346,4.4114 14.699792,8.00708 1.235951,0.5858 5.958325,1.59463 7.286655,1.77273 3.22424,0.4323 4.59352,0.25586 7.84264,0.15709 1.39721,-0.22333 2.83019,-0.28452 4.19162,-0.66997 1.69838,-0.48084 3.30994,-1.23061 4.93718,-1.91456 5.78629,-2.43207 11.47208,-5.32062 16.58446,-8.98984 1.86367,-1.33758 3.5848,-2.86337 5.3772,-4.29506 5.12066,-4.77229 5.37944,-4.72717 9.94017,-10.1505 1.51309,-1.79926 2.99382,-3.63019 4.36292,-5.54129 2.13294,-2.97733 5.07642,-7.88027 6.82028,-11.17058 0.8594,-1.62152 1.60327,-3.30168 2.40491,-4.95251 2.24322,-5.45055 3.72561,-11.217 3.79819,-17.13385 0.0373,-3.04259 -0.17297,-3.91629 -0.54694,-6.87345 -0.55586,-2.8628 -1.25971,-5.71991 -2.38089,-8.421097 -0.51844,-1.24904 -1.71037,-3.611205 -2.40164,-4.802981 -0.43325,-0.746946 -0.92005,-1.461524 -1.38008,-2.192288 -0.51394,-0.691726 -0.98916,-1.413973 -1.54181,-2.075177 -1.59702,-1.910707 -3.71224,-3.929004 -5.85534,-5.215832 -12.42661,-7.461567 -8.86166,-5.833543 -15.76447,-8.750466 -4.3476,-1.392822 -8.90746,-2.17188 -13.48223,-2.074503 -0.87602,0.01865 -1.74923,0.106029 -2.62384,0.159044 -3.7609,0.407366 -7.50636,1.262983 -11.05434,2.59063 -1.96343,0.734717 -3.82585,1.671313 -5.71566,2.570105 -5.18989,2.74964 -10.283286,5.676566 -15.506481,8.362648 -3.369164,1.867654 -6.879566,3.533868 -10.020432,5.786953 -0.633484,0.454428 -1.225857,0.963586 -1.838783,1.445377 -0.331388,0.65586 -0.662775,1.311719 -0.994163,1.967576 0,0 9.341077,5.859431 9.341077,5.859431 v 0 c 0.846463,-0.298273 1.692926,-0.596545 2.539386,-0.894818 1.313336,-0.823934 2.684867,-1.701903 4.029289,-2.475315 0.674156,-0.387826 1.366994,-0.742344 2.044965,-1.12346 1.972442,-1.108795 3.900482,-2.294205 5.870582,-3.40708 2.3074,-1.352293 4.63174,-2.678086 6.9304,-4.045026 2.65842,-1.58088 5.26952,-3.255259 8.10344,-4.518448 0.96014,-0.42571 1.90738,-0.881814 2.88043,-1.277131 4.43323,-1.801058 9.10617,-2.992699 13.89149,-3.276907 2.07086,-0.04295 3.06244,-0.108389 5.11376,0.0217 3.62624,0.22996 7.20399,0.956958 10.57784,2.325362 4.6822,2.20645 5.74046,2.791307 -6.26755,-3.94593 -0.75594,-0.424129 1.47056,0.921078 2.16877,1.434733 1.15745,0.851505 2.91245,2.384223 3.88238,3.439477 0.57744,0.628235 1.0717,1.328121 1.60755,1.992183 1.26766,1.86972 1.70336,2.426205 2.81347,4.416914 1.89194,3.392755 3.29273,7.031051 4.18414,10.812486 0.53983,2.77199 0.87311,4.01968 1.04955,6.88587 0.36368,5.90789 -0.68754,11.74941 -2.48871,17.36169 -1.68313,4.59134 -2.13166,6.30631 -4.54105,10.72853 -4.44812,8.16415 -10.60579,15.23187 -17.52463,21.38841 -1.81122,1.38438 -3.56196,2.85168 -5.43364,4.15314 -5.17115,3.5957 -10.91755,6.58212 -16.94557,8.45412 -4.07243,1.26469 -5.69086,1.34805 -9.63751,1.88932 -1.27503,0.0269 -2.55083,0.13226 -3.8251,0.0806 -2.423663,-0.0982 -5.010333,-0.51943 -7.360446,-1.12323 -1.163257,-0.29887 -4.207682,-1.98682 -3.443619,-1.06016 1.411582,1.71198 3.801248,2.30479 5.572173,3.64168 0.861518,0.65037 -1.887329,-1.04823 -2.830991,-1.57234 -0.87724,-0.63202 -1.799019,-1.20641 -2.631718,-1.89605 -2.712834,-2.24678 -5.086496,-5.08188 -6.913661,-8.08518 -1.538454,-2.52876 -2.413523,-4.71397 -3.626974,-7.41704 -0.516197,-1.36551 -1.094079,-2.70926 -1.548588,-4.09652 -1.979133,-6.04071 -2.540635,-12.44626 -2.439707,-18.76923 0.06266,-3.08131 0.05577,-4.97268 0.312526,-8.08108 0.120375,-1.4573 0.303938,-2.90877 0.474197,-4.36109 0.506899,-4.3239 1.087694,-8.64671 2.036514,-12.89957 0.869788,-3.80933 1.761596,-7.60657 2.824273,-11.367918 0.441047,-1.561087 1.51819,-5.067594 1.977864,-6.67552 0.286491,-1.002138 0.551577,-2.010277 0.827365,-3.015416 0.144566,-0.52238 1.317249,-4.782823 1.518682,-5.425408 0.224645,-0.716627 0.497877,-1.417111 0.743847,-2.1267 0.296024,-0.853988 0.545409,-1.694942 0.927671,-2.513354 0.09181,-0.196575 0.216348,-0.37614 0.324523,-0.564208 z" />
  <path
     style="fill:#000000;stroke-width:0.264583"
     id="path5"
     d="m 83.384572,81.999234 c 0.03596,-0.691507 0.342696,-1.322414 0.51971,-1.981046 0.05389,-0.200515 0.222401,-1.052732 0.259069,-1.234297 0.06856,-0.602327 0.400151,-1.119328 0.592096,-1.676607 0.173651,-0.504171 0.227131,-1.06281 0.358282,-1.580163 0.148011,-0.69923 0.290071,-1.400056 0.417579,-2.103366 0.0285,-0.157226 0.02759,-0.322469 0.08409,-0.471937 0.04545,-0.120229 0.143488,-0.213294 0.215233,-0.319942 0.129617,-0.484815 0.21631,-0.973114 0.351454,-1.456981 0.06516,-0.469093 0.271671,-0.899853 0.428273,-1.342173 0.199385,-0.404998 0.104508,-0.956744 0.458293,-1.271305 0.235968,-0.228727 0.302781,-0.543313 0.400608,-0.845886 0.04284,-0.08572 -0.01125,-0.302688 0.09932,-0.35103 0.141044,-0.06168 0.03606,0.03053 0.100909,-0.03214 0.118422,-0.03874 0.141867,0.06682 0.206489,-0.06585 0,0 -9.12536,-4.366882 -9.12536,-4.366882 v 0 c 0.0614,-0.119624 0.122404,-0.05255 0.210873,0.01545 0.112696,0.160271 0.197969,0.257624 0.181078,0.473037 0.04816,0.199859 0.03236,0.398495 0.01852,0.602192 -0.168252,0.481735 -0.335783,0.956297 -0.448612,1.454854 -0.189084,0.476496 -0.370343,0.968333 -0.472861,1.469086 -0.0865,0.586515 -0.29101,1.144899 -0.109873,1.737907 0.0559,0.168609 0.136072,0.331031 0.167709,0.505825 0.142256,0.785985 -0.06458,1.882635 -0.11897,2.680534 -0.133766,1.196242 -0.09635,2.399826 -0.33944,3.581146 -0.06604,0.42677 -0.170484,0.848439 -0.209158,1.278556 -0.0649,0.721768 -0.0055,1.460776 -0.168865,2.176174 z" />
</svg>
