<?xml version="1.0" encoding="UTF-8" standalone="no"?>
<!-- Created with Inkscape (http://www.inkscape.org/) -->

<svg
   width="1000"
   height="1000"
   viewBox="0 0 264.58333 264.58333"
   version="1.1"
   id="svg1"
   xmlns="http://www.w3.org/2000/svg"
   xmlns:svg="http://www.w3.org/2000/svg">
  <defs
     id="defs1">
    <rect
       x="256.66667"
       y="116.66667"
       width="508.33333"
       height="661.66667"
       id="rect3" />
  </defs>
  <text
     xml:space="preserve"
     transform="scale(0.26458333)"
     id="text3"
     style="text-align:start;writing-mode:lr-tb;direction:ltr;white-space:pre;shape-inside:url(#rect3);display:inline;fill:#000000;stroke-width:19.5213" />
  <path
     id="path12"
     style="fill:#000000;stroke-width:5.16501"
     d="M 108.32052 63.871036 C 107.13272 63.807068 105.75184 65.497974 105.09126 66.255387 C 104.37639 67.022392 103.69309 67.816342 102.98596 68.589611 C 101.93328 69.602158 101.05241 70.763889 100.05074 71.825072 C 97.947962 74.163758 95.885673 76.536507 94.135338 79.158475 C 92.300259 81.605112 90.315576 83.752303 87.514554 85.116251 C 82.716489 87.606377 77.601533 89.395747 72.586266 91.389253 C 69.101002 92.729367 65.619601 94.162864 61.957458 94.953376 L 64.89888 95.335782 C 68.483497 94.522434 71.876638 93.052381 75.286876 91.714814 C 80.32019 89.67635 85.491091 87.927874 90.320067 85.423725 C 93.216278 84.002743 95.117421 81.884406 96.990978 79.340893 C 98.719379 76.706145 100.79077 74.34404 102.9255 72.037979 C 103.93881 70.971819 104.85405 69.82999 105.93513 68.830423 C 106.40545 68.288012 106.87566 67.74608 107.35469 67.211917 C 109.04296 72.522766 110.48755 77.90843 112.10427 83.241946 C 115.67489 94.450291 119.75628 105.50342 124.23479 116.38101 C 125.48274 119.41208 126.79102 122.41782 128.06918 125.43627 C 131.09844 132.56348 134.26241 139.63411 137.54457 146.64944 C 134.05632 149.53548 130.63308 152.49836 127.31677 155.58585 C 123.43331 159.16879 119.54893 162.75014 115.64255 166.30716 L 118.59999 166.54022 C 122.32867 162.92338 126.10912 159.35647 129.8944 155.79772 C 132.62784 153.21079 135.44495 150.72006 138.31714 148.29431 C 140.73136 153.41945 143.20817 158.51498 145.74097 163.58174 C 147.69334 167.48736 152.39654 176.52816 154.47016 180.52851 C 160.12757 191.3491 165.96049 202.07818 171.3084 213.05728 C 172.55777 215.15078 173.13829 217.60054 174.38522 219.69046 C 175.28263 220.98451 175.04099 220.56052 177.12665 220.25839 C 177.92337 220.34356 178.09672 220.40533 177.9018 220.16589 C 177.91157 220.16495 177.92142 220.16423 177.93126 220.1633 C 177.93073 220.0946 177.93019 220.02581 177.92919 219.95711 L 177.71835 219.95711 C 177.61793 219.84474 177.4916 219.70204 177.34525 219.522 C 175.97249 217.52433 175.30349 214.96241 173.98059 212.93274 C 168.32686 202.02636 162.38847 191.27127 156.62196 180.42464 C 150.8203 169.40256 145.11406 158.32114 139.78733 147.06182 C 144.80183 142.89017 149.9688 138.89909 155.14298 134.92871 C 160.5332 130.75025 166.04201 126.71466 171.07844 122.10624 C 172.66704 120.61249 174.3244 119.19455 175.89055 117.67705 C 176.55833 116.98515 177.27926 116.39148 178.08267 115.86373 C 180.75274 114.0707 183.70047 112.75898 186.52918 111.24437 C 187.91851 110.48899 189.35379 109.8185 190.68242 108.95717 C 190.76492 108.91687 190.84747 108.87657 190.92995 108.83625 L 187.97147 108.51741 C 187.89007 108.56591 187.80893 108.61463 187.72756 108.66313 C 186.43553 109.51065 185.04083 110.18311 183.69473 110.93793 C 180.84921 112.47551 177.88383 113.80183 175.17173 115.57486 C 174.35516 116.11452 173.61771 116.72502 172.95068 117.44399 C 171.43655 118.97154 169.80462 120.3741 168.26363 121.87421 C 163.35753 126.50134 157.96224 130.55395 152.6527 134.7003 C 148.0725 138.22991 143.49889 141.77552 139.02097 145.43557 C 135.91455 138.81305 132.94362 132.12691 130.1657 125.35359 C 124.51311 111.47435 118.94968 97.529565 114.61781 83.169599 C 112.91241 77.232749 111.36855 71.254697 109.7349 65.298339 C 109.36054 64.291711 108.86043 63.900112 108.32052 63.871036 z " />
</svg>
