<?xml version="1.0" encoding="UTF-8" standalone="no"?>
<!-- Created with Inkscape (http://www.inkscape.org/) -->

<svg
   width="1000"
   height="1000"
   viewBox="0 0 264.58333 264.58333"
   version="1.1"
   id="svg1"
   xmlns="http://www.w3.org/2000/svg"
   xmlns:svg="http://www.w3.org/2000/svg">
  <defs
     id="defs1" />
  <path
     style="fill:#000000;stroke-width:0.264583"
     id="path1"
     d="m 169.61505,154.74137 c -0.083,-1.82095 0.36599,-3.56391 0.84516,-5.30173 0.0561,-0.52129 0.12604,-1.04127 0.16841,-1.56385 0.1449,-1.78737 0.21092,-3.58216 0.40637,-5.36619 0.68952,-6.29389 -0.15492,2.56154 0.44991,-4.0023 0.25747,-4.44318 0.41803,-8.88724 0.52838,-13.3359 5.3e-4,-3.10087 0.21946,-6.19657 0.30058,-9.29466 0.0558,-2.12944 0.008,-2.71281 -0.0535,-4.87311 -0.14682,-5.32838 -0.4919,-10.64898 -0.65235,-15.976487 -0.0184,-0.807204 -0.0219,-1.61489 -0.0553,-2.421615 -0.26938,-6.514854 -0.0613,1.090554 -0.25789,-5.354121 -0.0644,-2.110285 -0.0316,-4.217252 -0.0674,-6.327601 -0.029,-1.310513 -0.12115,-2.620679 -0.10064,-3.932211 0.0128,-0.821184 0.10367,-1.637241 0.14549,-2.456944 0.0728,-1.015976 0.23792,-2.024706 0.49604,-3.009384 0.19844,-0.637995 0.17037,-0.291809 -0.28035,-0.787567 0,0 -10.37527,-5.431367 -10.37527,-5.431367 v 0 c -0.58055,-0.02957 -0.43238,-0.336621 -0.41962,0.408287 0.006,1.099105 -0.12405,2.187792 -0.21847,3.282095 -0.008,2.304243 0.23697,4.60017 0.60987,6.872314 0.0815,0.518329 0.59985,3.79312 0.63872,4.133204 0.39126,3.422904 0.24978,6.873526 0.51179,10.304151 0.33788,5.361948 0.64011,10.725736 0.9358,16.090156 0.0642,4.7267 -0.0332,9.44996 -0.12963,14.17547 -0.056,2.28179 -0.22253,4.55004 -0.31339,6.8293 -0.0521,1.30606 -0.0344,3.03105 -0.0517,4.33336 -0.01,0.73585 -0.0305,1.47152 -0.0457,2.20728 -0.008,1.40014 0.0433,2.80106 -0.002,4.2005 -0.0757,2.34373 -0.48659,4.67259 -0.46006,7.02202 0.30346,2.23837 0.44622,4.55695 1.23424,6.68737 z" />
  <path
     style="fill:#000000;stroke-width:0.264583"
     id="path2"
     d="m 105.01646,108.4349 c 0.85881,0.28587 1.66371,0.70598 2.50487,1.03678 0.32318,0.1271 0.65792,0.22337 0.98118,0.35027 1.87744,0.73707 0.63054,0.37116 2.16406,0.76533 1.30778,0.29113 2.61829,0.61035 3.96114,0.68068 0.86565,0.0453 1.73314,0.0469 2.59903,0.0872 2.12895,0.18875 4.25522,-0.007 6.34331,-0.42824 0.65282,-0.13162 1.31383,-0.23354 1.95342,-0.41908 0.6711,-0.19468 1.3128,-0.47922 1.96921,-0.71883 2.33712,-1.18699 4.66393,-2.42838 6.83208,-3.90919 2.49254,-1.70238 4.78001,-3.68741 7.06528,-5.65048 0.77103,-0.694772 1.55372,-1.376817 2.31309,-2.084305 0.75324,-0.701765 1.50762,-1.403623 2.2241,-2.142871 1.51288,-1.560949 2.92527,-3.283548 4.34943,-4.922539 1.76879,-2.035603 2.51814,-2.861053 4.30517,-4.861845 2.47895,-2.581852 4.71239,-5.385168 7.12218,-8.028056 0.90607,-0.993709 2.00981,-2.091431 2.95832,-3.050577 0.56387,-0.624668 2.10876,-2.030667 2.01243,-3.102502 -0.0852,-0.947759 -0.74232,-1.75242 -1.11348,-2.628633 0,0 -3.90898,-2.382549 -3.90898,-2.382549 v 0 c -1.15605,-0.05275 -2.32594,-0.344246 -3.46815,-0.15825 -1.29718,0.211233 -2.3435,1.561793 -3.16411,2.41132 -1.46126,1.672341 -2.894,3.365278 -4.2628,5.115018 -1.09923,1.405154 -2.05005,2.739808 -3.16286,4.139615 -0.62272,0.783323 -1.27018,1.546656 -1.90527,2.319983 -4.10631,4.851421 -8.18611,9.767448 -12.97157,13.976218 -4.14186,3.621862 -8.4708,7.161543 -13.58504,9.323533 -0.83871,0.309 -2.60587,0.98593 -3.51261,1.22575 -0.5189,0.13724 -1.05367,0.2054 -1.57931,0.314 -1.22823,0.25376 -2.45399,0.48176 -3.69555,0.66382 -1.94455,0.11278 -3.89355,-0.0432 -5.80635,-0.41381 -0.22863,-0.0318 -0.45587,-0.11465 -0.68587,-0.0953 -0.12335,0.0104 -0.20382,0.15327 -0.3246,0.18041 -0.15844,0.0356 -0.3253,-0.011 -0.48717,0.002 -0.12283,0.01 -0.24042,0.0645 -0.36363,0.0666 -0.28302,0.005 -0.55122,-0.0861 -0.81944,-0.15773 z" />
</svg>
