<?xml version="1.0" encoding="UTF-8" standalone="no"?>
<!-- Created with Inkscape (http://www.inkscape.org/) -->

<svg
   width="1000"
   height="1000"
   viewBox="0 0 264.58333 264.58333"
   version="1.1"
   id="svg1"
   xmlns="http://www.w3.org/2000/svg"
   xmlns:svg="http://www.w3.org/2000/svg">
  <defs
     id="defs1" />
  <g
     id="layer1"
     transform="matrix(0.64864863,0,0,0.67044623,20.022525,13.079164)">
    <path
       id="path8"
       style="fill:#000000;stroke:none;stroke-width:5.16501"
       d="m 132.29166,39.687499 a 99.21875,90.3993 0 0 0 -99.218744,90.399131 99.21875,90.3993 0 0 0 99.218744,90.39965 99.21875,90.3993 0 0 0 99.21875,-90.39965 99.21875,90.3993 0 0 0 -99.21875,-90.399131 z m 0,9.394776 a 85.989578,80.74826 0 0 1 85.98959,80.748045 85.989578,80.74826 0 0 1 -85.98959,80.74856 85.989578,80.74826 0 0 1 -85.989577,-80.74856 85.989578,80.74826 0 0 1 85.989577,-80.748045 z" />
  </g>
  <path
     style="fill:#000000;stroke-width:5.89765"
     d="m 160.68074,92.331851 2.00225,38.181539"
     id="path1" />
  <path
     style="fill:#000000;stroke-width:5.89765"
     d="m 161.68187,111.42262 0.50056,34.28575"
     id="path2" />
  <path
     style="fill:#000000;stroke-width:5.89765"
     d="m 163.18355,176.09837 1.00114,15.19498"
     id="path3" />
  <path
     style="fill:#000000;stroke-width:5.89765"
     d="m 163.68411,221.68332 h 21.52422"
     id="path4" />
  <path
     style="fill:#000000;stroke-width:5.89765"
     d="m 175.69763,176.09837 -5.5062,-30.39"
     id="path5" />
  <path
     style="fill:#000000;stroke-width:5.89765"
     d="M 170.19143,115.3184 V 84.928428"
     id="path6" />
  <path
     style="fill:#000000;stroke-width:4.94195"
     d="m 162.68299,92.331851 v 57.818569 l 3.0482,38.54574 1.66267,38.54571 3.60241,19.27285 h 8.31327 l -3.60242,-19.27285 -1.38554,-19.27285 -3.32531,-57.8186 V 92.331851 Z"
     id="path7" />
</svg>
