<?xml version="1.0" encoding="UTF-8" standalone="no"?>
<!-- Created with Inkscape (http://www.inkscape.org/) -->

<svg
   width="1000"
   height="1000"
   viewBox="0 0 264.58333 264.58333"
   version="1.1"
   id="svg1"
   xmlns="http://www.w3.org/2000/svg"
   xmlns:svg="http://www.w3.org/2000/svg">
  <defs
     id="defs1">
    <rect
       x="256.66667"
       y="116.66667"
       width="508.33333"
       height="661.66667"
       id="rect3" />
  </defs>
  <text
     xml:space="preserve"
     transform="scale(0.26458333)"
     id="text3"
     style="text-align:start;writing-mode:lr-tb;direction:ltr;white-space:pre;shape-inside:url(#rect3);display:inline;fill:#000000;stroke-width:19.5213" />
  <path
     id="path8"
     style="fill:#000000;stroke-width:5.16501"
     d="M 172.1838 47.77176 C 171.44139 47.778504 170.69405 47.83219 169.9488 47.833772 C 168.21184 47.838972 166.47472 47.841674 164.73775 47.843074 C 161.882 47.844174 159.02656 47.845272 156.17083 47.833772 C 157.52707 47.833702 158.32703 47.833753 158.74896 47.833772 C 158.35481 47.833692 157.74837 47.833203 157.3351 47.832739 C 156.854 47.832573 156.37287 47.831355 155.89177 47.830155 C 153.85626 47.825555 151.82061 47.819033 149.78517 47.838423 C 148.70952 47.860803 147.60707 47.835767 146.56935 48.159334 C 146.02757 48.367055 145.49399 48.596123 144.94826 48.79082 L 144.94774 48.79082 L 144.56172 48.760331 C 144.48682 48.838315 144.41077 48.91526 144.33382 48.990807 C 144.19806 49.030212 144.06136 49.066151 143.923 49.098294 L 144.18758 49.131367 C 142.58187 50.652873 140.57103 51.691015 138.66854 52.793159 C 137.01379 53.773186 135.32654 54.686416 133.70915 55.725797 C 132.75651 56.349235 131.8991 57.100082 130.9951 57.787686 C 130.35887 58.260801 129.75251 58.76927 129.17558 59.312658 C 128.61593 59.781722 128.16301 60.35161 127.66249 60.875353 C 127.2894 61.258956 127.10324 61.763434 126.7628 62.16468 C 126.50967 62.543129 126.16217 62.829212 125.89567 63.207511 C 125.46936 63.578308 125.20311 64.08851 124.84768 64.517508 C 124.56453 64.967877 124.2649 65.406672 123.92163 65.813553 C 123.58671 66.297307 123.21129 66.753256 122.91498 67.265661 C 122.53121 67.779416 122.2658 68.342415 122.00909 68.931192 C 121.67181 69.515339 121.42378 70.142356 121.08201 70.723331 C 120.65738 71.308878 120.32393 71.951379 120.01076 72.601769 C 119.63623 73.412609 119.13176 74.153079 118.68681 74.924625 C 118.35749 75.716261 117.86856 76.423799 117.53133 77.209757 C 117.13529 78.00764 116.74902 78.80649 116.40013 79.626146 C 116.01179 80.454154 115.61133 81.281058 115.28392 82.135554 C 114.99619 82.852165 114.72716 83.575013 114.44883 84.296146 C 113.73565 85.813402 113.20303 87.405836 112.54093 88.944441 C 111.73744 91.150701 110.96478 93.371911 110.37001 95.64429 C 109.7996 97.968097 109.21914 100.28904 108.60836 102.60252 C 108.02152 104.85401 107.71629 107.16379 107.32575 109.45378 C 106.92918 112.16221 106.685 114.89235 106.45655 117.61969 C 106.2631 120.4378 106.20663 123.26235 106.15734 126.08584 C 106.14004 128.23684 106.13596 130.38813 106.13926 132.5392 C 106.10956 134.39074 106.12338 136.2345 106.26741 138.08046 C 106.40207 139.87897 106.48705 141.67708 106.67617 143.47083 C 106.84481 145.14835 107.09237 146.81813 107.43168 148.46949 C 107.65728 149.72643 108.00294 150.95796 108.31018 152.19639 C 108.78288 153.8404 109.20697 155.49422 109.56799 157.16663 C 109.87655 158.94868 110.50916 160.63813 111.15704 162.31877 C 111.64731 163.76454 112.33194 165.12953 112.93212 166.52937 C 113.37182 167.59031 113.95418 168.58201 114.47363 169.6036 C 115.00174 170.37737 115.46137 171.19258 115.98258 171.9709 C 117.00128 173.43369 118.22629 174.75041 119.44439 176.04868 C 121.10904 177.88512 122.81684 179.67706 124.60118 181.39719 C 126.03436 182.84577 127.4761 184.27842 128.96835 185.66567 C 129.87388 186.55315 130.89955 187.282 131.95732 187.97405 C 133.87751 189.22338 136.06798 189.98037 138.20448 190.7682 C 142.53991 192.27172 147.09261 193.01357 151.60987 193.73649 C 155.6091 194.35099 159.59238 195.00627 163.63032 195.30074 C 167.3027 195.48952 170.97099 195.74467 174.64515 195.90018 C 177.38057 195.95448 180.18162 196.29535 182.85602 195.59994 C 184.0239 195.12293 185.05603 194.39066 186.1106 193.7091 C 187.43175 192.86308 188.71847 192.1572 189.66387 190.8793 C 190.50869 189.58851 191.06003 188.14403 191.7454 186.76844 C 192.60539 185.09997 193.53969 183.4593 194.3039 181.74343 C 194.82769 180.14113 195.03205 178.44849 195.24544 176.78094 C 195.46638 174.73507 195.73257 172.67049 195.64645 170.60716 C 195.61565 169.86981 195.5216 169.13645 195.45938 168.40109 C 194.99087 163.69483 193.73208 159.12582 192.57016 154.55697 C 192.02914 152.98404 191.82841 151.18633 190.90927 149.7583 C 190.74741 149.50682 190.55037 149.27967 190.37081 149.04051 C 187.86012 146.47777 184.87942 144.41921 182.00026 142.29571 C 178.48728 139.62804 174.77845 137.23831 171.01695 134.94008 C 167.67877 133.03908 164.35821 131.0883 160.83463 129.54661 C 158.98744 128.68827 157.08479 128.00273 155.13316 127.43046 C 153.11054 126.89251 151.0735 126.41647 149.00434 126.09824 C 147.95732 125.92368 146.89855 125.8862 145.83968 125.87707 C 142.55182 125.87207 139.26405 125.88777 135.97619 125.88947 C 134.45931 125.88926 132.94245 125.88751 131.42557 125.8874 C 131.38274 125.88763 131.34428 125.88806 131.31395 125.88844 C 130.08077 125.90634 128.84808 125.93048 127.61495 125.95148 C 126.21558 126.01548 124.84816 126.29602 123.4798 126.57315 C 122.94866 126.62105 122.51267 126.80484 122.04216 127.0279 C 121.72341 127.28974 121.39543 127.48219 121.00605 127.61185 C 120.63809 127.64575 120.35298 127.85743 119.99009 127.96686 C 119.54132 128.06136 119.15535 128.34113 118.70438 128.45004 C 118.03601 128.54314 117.37395 128.69766 116.70915 128.82779 C 116.11404 128.94155 115.56657 129.20547 114.96559 129.32027 C 114.45521 129.49602 114.02204 129.81946 113.5388 130.04529 C 113.07226 130.19324 112.75904 130.53481 112.40812 130.83904 C 112.14076 131.05182 111.95555 131.3083 111.6831 131.52014 C 111.40777 131.74429 111.14165 131.96076 110.84233 132.15162 C 110.43633 132.42677 110.14917 132.84663 109.76901 133.14278 C 109.53669 133.43763 109.27516 133.68754 109.0414 133.97942 C 109.03975 133.49949 109.04185 133.01927 109.04657 132.53868 C 109.04557 130.38884 109.03267 128.23928 109.04967 126.08946 C 109.06557 123.27267 109.11487 120.45394 109.32614 117.64398 C 109.55413 114.92426 109.80513 112.20101 110.21549 109.50236 C 110.60737 107.22004 110.91277 104.91695 111.51102 102.6759 C 112.0979 100.35755 112.68211 98.038895 113.25975 95.718187 C 113.84907 93.455336 114.6176 91.241529 115.4622 89.061746 C 116.11392 87.513021 116.65308 85.916821 117.39903 84.408283 C 117.6938 83.692003 117.96744 82.967423 118.24549 82.245108 C 118.57782 81.396753 118.96803 80.570917 119.35189 79.745002 C 119.70254 78.926307 120.11266 78.137965 120.49239 77.332746 C 120.84066 76.56524 121.30199 75.854049 121.64115 75.080688 C 122.09737 74.307596 122.59291 73.553612 122.97079 72.737161 C 123.29385 72.094676 123.63927 71.466851 124.05341 70.877327 C 124.38287 70.281137 124.64244 69.650239 124.97222 69.053665 C 125.22709 68.477992 125.53061 67.948198 125.88172 67.427408 C 126.19266 66.938731 126.54673 66.481621 126.89251 66.017675 C 127.22519 65.600675 127.51232 65.152452 127.81494 64.713879 C 128.14931 64.260579 128.47625 63.803224 128.86758 63.395096 C 129.14134 63.033644 129.50422 62.754845 129.73885 62.362601 C 130.0408 61.945541 130.25259 61.466015 130.62252 61.096528 C 131.10198 60.560095 131.59155 60.036062 132.12992 59.556571 C 132.71063 59.02887 133.31487 58.529376 133.94118 58.056404 C 134.82061 57.354838 135.68933 56.635478 136.63145 56.017769 C 138.22563 54.978729 139.90112 54.078204 141.52883 53.092883 C 143.43599 51.987388 145.41756 50.920066 147.05252 49.425923 C 147.904 49.212536 148.68509 48.802819 149.51387 48.521585 C 150.55452 48.284958 151.63221 48.308958 152.69352 48.293692 C 152.74265 48.293387 152.79167 48.293018 152.8408 48.292659 C 153.00085 48.291489 153.16081 48.290247 153.32087 48.289558 C 153.54118 48.288458 153.7615 48.288308 153.98181 48.288008 C 156.52434 48.28643 150.0983 48.27829 152.8408 48.292659 C 152.87869 48.292857 152.91821 48.292969 152.95965 48.293176 C 153.43702 48.296876 153.91474 48.297443 154.39212 48.298343 C 155.96323 48.298301 157.53441 48.298414 159.10553 48.298343 C 161.92076 48.286593 164.73576 48.287615 167.55101 48.288525 C 168.81973 48.289454 170.08827 48.291449 171.35698 48.294209 C 171.10419 48.294855 170.8873 48.295812 170.75288 48.297827 C 170.72556 48.298237 170.71039 48.299412 170.70637 48.300927 L 170.70586 48.301444 L 170.70586 48.301961 L 170.70637 48.302477 L 170.70689 48.302994 C 170.73574 48.316665 171.25441 48.354872 171.44586 48.391361 L 172.14918 48.295759 C 172.392 48.29638 172.635 48.297115 172.87782 48.297827 C 173.86655 48.298511 173.07572 48.294462 172.16675 48.293692 L 174.38935 47.991385 C 173.66377 47.80528 172.92621 47.765017 172.1838 47.77176 z M 131.42557 125.8874 C 131.47045 125.88717 131.52035 125.88699 131.57233 125.88689 C 130.93999 125.88646 130.30763 125.88693 129.67529 125.88689 C 129.52271 125.88689 129.98057 125.88724 130.13314 125.8874 C 130.71004 125.88801 130.69015 125.88766 131.28552 125.8874 C 131.33219 125.8874 131.3789 125.8874 131.42557 125.8874 z M 143.11271 126.33441 C 143.524 126.33449 144.75751 126.33485 144.34623 126.33544 C 143.87381 126.33613 143.40168 126.33602 142.92926 126.33596 C 143.99076 126.34096 145.05406 126.35453 146.10633 126.51372 C 148.18574 126.80403 150.22976 127.26886 152.25995 127.8015 C 154.20997 128.37349 156.11928 129.03225 157.96968 129.88199 C 161.5367 131.37244 164.89903 133.29412 168.24244 135.22482 C 172.00011 137.51179 175.69723 139.90384 179.2087 142.5577 C 182.0536 144.65102 184.97733 146.70126 187.45677 149.2312 C 187.63219 149.45544 187.82429 149.66757 187.98284 149.90403 C 188.92007 151.30177 189.16958 153.08186 189.73777 154.62932 C 190.97261 159.1659 192.25133 163.71808 192.66111 168.42176 C 192.70991 169.14838 192.78798 169.874 192.80735 170.60199 C 192.86215 172.66198 192.54264 174.70349 192.32056 176.74373 C 192.11069 178.38322 191.91605 180.05139 191.38108 181.62095 C 190.61827 183.33333 189.70212 184.9757 188.82671 186.63202 C 188.14066 187.98931 187.60032 189.42477 186.73589 190.685 C 185.77288 191.86114 184.47714 192.6069 183.20742 193.41817 C 182.1624 194.08825 181.11314 194.79853 179.9332 195.20875 C 179.4315 195.32576 179.24722 195.38285 178.71002 195.44233 C 178.50929 195.46458 178.00038 195.47354 177.8863 195.48574 C 177.55912 195.47791 177.32281 195.47108 177.31269 195.46714 L 177.31269 195.46662 L 177.31321 195.46662 C 177.31815 195.465 177.36818 195.4638 177.47547 195.46352 C 173.78307 195.31872 170.09708 195.06805 166.40689 194.88113 C 162.35888 194.59626 158.36617 193.95167 154.35647 193.3453 C 149.86163 192.64281 145.33861 191.89781 141.02085 190.42352 C 138.92534 189.6486 136.78065 188.88458 134.88582 187.68105 C 133.82608 187.00655 132.80353 186.28974 131.88962 185.42434 C 130.38733 184.03605 128.89601 182.64143 127.47542 181.16723 C 125.71377 179.42907 123.95719 177.685 122.3145 175.83216 C 121.12225 174.54723 119.93462 173.23665 118.93744 171.79365 C 118.40941 171.0315 117.97527 170.21461 117.43004 169.46459 C 116.91409 168.44516 116.30619 167.47025 115.8689 166.41103 C 115.27739 165.00822 114.55899 163.65842 114.07262 162.21077 C 113.42567 160.54715 112.79316 158.86931 112.48306 157.10462 C 112.12599 155.43037 111.7076 153.77539 111.25109 152.12611 C 110.95476 150.88755 110.59365 149.66242 110.36587 148.40851 C 110.01158 146.76914 109.75756 145.11004 109.59383 143.44034 C 109.40853 141.64944 109.31923 139.85351 109.17731 138.05875 C 109.13086 137.39863 109.09851 136.73866 109.07706 136.07851 L 110.60358 136.1798 C 110.65808 136.1053 110.71244 136.0311 110.76688 135.95656 C 110.97581 135.64552 111.2572 135.38281 111.41542 135.0424 C 111.56402 134.76442 111.8216 134.55919 111.95027 134.2657 C 112.1932 133.95611 112.48009 133.68566 112.7404 133.39134 C 113.074 133.04634 113.41995 132.72506 113.80804 132.43894 C 114.09575 132.22398 114.39176 132.02085 114.65967 131.78059 C 114.90874 131.55692 115.11421 131.29233 115.37952 131.08554 C 115.70253 130.77146 116.08686 130.55433 116.4978 130.37085 C 116.95184 130.11622 117.40546 129.85472 117.91373 129.72076 C 118.49673 129.56985 119.05037 129.32068 119.64903 129.23449 C 120.32007 129.09928 120.99775 128.98587 121.66234 128.82676 C 122.09027 128.66113 122.49848 128.44285 122.94805 128.3379 C 123.29292 128.21159 123.60918 128.04042 123.97176 127.96945 C 124.3413 127.80574 124.64991 127.55404 125.0058 127.36587 C 125.45467 127.16069 125.9235 127.06626 126.40882 126.97674 C 127.76344 126.69677 129.12295 126.44982 130.50883 126.39022 C 129.81081 126.37602 129.11223 126.36874 128.41438 126.34784 C 128.18033 126.34084 128.88302 126.34888 129.11718 126.34888 C 130.81063 126.34967 132.50405 126.34939 134.19749 126.34836 C 135.73752 126.34757 137.27734 126.34357 138.81736 126.33957 C 140.2491 126.33657 141.68096 126.33441 143.11271 126.33441 z " />
</svg>
