<?xml version="1.0" encoding="UTF-8" standalone="no"?>
<!-- Created with Inkscape (http://www.inkscape.org/) -->

<svg
   width="1000"
   height="1000"
   viewBox="0 0 264.58333 264.58333"
   version="1.1"
   id="svg1"
   xmlns="http://www.w3.org/2000/svg"
   xmlns:svg="http://www.w3.org/2000/svg">
  <defs
     id="defs1" />
  <path
     style="fill:#000000;stroke-width:26.4583"
     id="path4"
     d="m 92.65019,55.430911 c -0.215683,1.434066 -0.692399,2.818763 -1.194822,4.175464 -1.075938,2.723581 -2.23965,5.415457 -3.646593,7.985596 -0.886253,1.759164 -1.756569,3.524991 -2.596795,5.306568 -1.153935,2.280473 -2.255928,4.582991 -3.45667,6.840214 -2.89374,4.836282 -5.289675,9.950977 -7.870449,14.958862 -1.997388,3.919897 -3.837337,7.915235 -5.67272,11.912335 -0.672925,1.70126 -1.481947,3.34339 -2.285466,4.98604 -0.957013,2.1594 -1.776706,4.37637 -2.724933,6.53886 -0.798547,1.78876 -1.477044,3.6314 -2.298689,5.40959 -0.718841,1.46809 -1.656898,2.83236 -2.553327,4.20002 -1.127503,1.87772 -2.211848,3.77826 -3.455188,5.58366 -0.500158,0.98595 -1.33318,1.78341 -1.834206,2.76097 -0.331578,0.64249 -0.615773,1.30601 -0.938649,1.9549 -0.990478,2.14595 -2.03591,4.26436 -3.237995,6.30064 -0.775618,1.16574 -1.30099,2.46294 -1.966674,3.68691 -0.481354,0.58808 -0.534535,1.37371 -0.867574,2.02751 -0.221252,0.50812 -0.411943,1.01131 -0.646795,1.51944 -0.179403,0.49149 -0.248827,1.00824 -0.327702,1.52257 -0.280636,0.31901 -0.341591,0.95357 -0.374539,1.36751 -0.05828,0.58683 -0.272307,1.15146 -0.449855,1.71328 0.01736,0.43665 -0.219949,0.73319 -0.349197,1.11341 -0.125709,0.53268 -0.22465,1.07508 -0.252196,1.62243 -0.248838,0.3633 -0.341905,0.84614 -0.405321,1.27785 -0.07651,0.37876 -0.347014,0.68785 -0.444915,1.08403 -0.15708,0.30087 -0.233913,0.89002 -0.525198,1.06215 -0.248179,0.47461 -0.532148,0.89715 -0.707268,1.40519 -0.181824,0.46786 -0.531336,0.84604 -0.674378,1.34116 -0.111461,0.0927 -0.22144,0.18628 -0.336161,0.27488 0,0 9.905677,0.71803 9.905677,0.71803 v 0 c 0.131604,-0.20068 0.259292,-0.40247 0.333864,-0.63332 0.23671,-0.41963 0.470348,-0.84385 0.633974,-1.29793 0.234841,-0.41445 0.462616,-0.83242 0.733324,-1.22538 0.186592,-0.44007 0.407456,-0.86538 0.548373,-1.32296 0.199136,-0.38429 0.382953,-0.79031 0.425066,-1.225 0.11293,-0.4753 0.327131,-0.91387 0.416542,-1.39424 0.0364,-0.43873 0.05398,-0.88877 0.245393,-1.29437 0.209074,-0.39464 0.278281,-0.81001 0.347702,-1.24521 0.135972,-0.61224 0.364916,-1.20547 0.418423,-1.83375 0.112797,-0.48465 0.304699,-0.93254 0.444039,-1.4073 0.01714,-0.41728 0.0877,-0.82938 0.265647,-1.21098 0.21897,-0.51663 0.433343,-1.03357 0.648042,-1.55199 0.224348,-0.66234 0.375597,-1.34582 0.753496,-1.94997 0.577175,-1.22667 1.087673,-2.48637 1.753738,-3.67059 1.048512,-2.13374 2.058331,-4.30236 3.400684,-6.27156 0.399404,-0.6325 0.767638,-1.28404 1.082762,-1.9633 0.533363,-0.89429 1.037336,-1.80487 1.562029,-2.70399 1.138523,-1.87379 2.169935,-3.81005 3.468862,-5.58243 0.911042,-1.42187 1.971582,-2.77073 2.595279,-4.34987 0.761323,-1.78614 1.358741,-3.64281 2.115931,-5.43251 0.897255,-2.18741 1.789481,-4.37628 2.889978,-6.4711 0.834662,-1.62727 1.537242,-3.32025 2.092637,-5.06368 1.477486,-4.01605 2.827621,-8.084133 4.83594,-11.882827 1.44784,-2.97642 2.913997,-5.954345 4.620988,-8.794255 0.787252,-1.309743 2.045033,-3.115231 2.886107,-4.473747 0.32893,-0.531294 0.633068,-1.077542 0.949602,-1.61631 1.356982,-2.254594 2.729577,-4.507159 3.867997,-6.881628 0.862862,-1.740712 1.656342,-3.516384 2.428833,-5.299061 1.238165,-2.687373 2.483979,-5.369444 3.719676,-8.057613 0.62202,-1.401212 1.144,-2.837006 1.59881,-4.300739 z" />
  <path
     style="fill:#000000;stroke-width:26.4583"
     id="path5"
     d="m 97.460796,56.393034 c -0.15009,0.651317 -0.267697,1.306381 -0.360082,1.968241 0.03521,0.659574 -0.119946,1.262242 -0.258093,1.897965 -0.14896,0.716282 -0.221633,1.442929 -0.253352,2.173025 -0.03974,0.731361 0.0053,1.46449 0.0013,2.196497 0.09862,1.262441 -0.06832,2.521601 -0.234735,3.770773 -0.127532,1.084508 -0.341342,2.143254 -0.485831,3.224614 0.02812,1.393188 0.128056,2.78315 0.194958,4.174639 0.02832,0.735001 0.01172,1.470316 0.01863,2.205426 0.251058,1.19938 0.435221,2.402197 0.492146,3.626559 0.05146,0.884137 -0.0034,1.768816 -0.0063,2.653125 0.186457,0.929944 0.507685,1.818085 0.701355,2.751828 0.187489,1.043504 0.252217,2.104337 0.25445,3.163165 -0.07001,0.648539 0.290732,1.155843 0.588671,1.689698 0.25822,0.722212 0.482769,1.463657 0.67459,2.207692 0.09894,0.63478 0.339344,1.235072 0.585292,1.824701 0.581361,0.809477 1.259215,1.541873 1.845435,2.350347 0.62363,0.818438 1.0771,1.754111 1.81437,2.478701 0.77993,0.6184 1.66382,1.07856 2.48404,1.64115 1.16814,0.79201 2.42982,1.40742 3.70919,1.99191 0.723,0.34328 1.45305,0.61639 2.24379,0.73139 4.30025,0.13954 8.60573,0.0466 12.90729,0.0511 3.47588,-0.0105 1.14004,-0.003 -9.15369,-0.0395 -0.0634,-2.3e-4 0.12811,-0.008 0.19027,0.005 0.18042,0.037 0.36995,0.13766 0.54133,0.20646 0.36173,0.22228 0.78031,0.26712 1.19452,0.29479 3.57045,0.10013 7.17308,0.0167 10.72042,0.0156 0.42771,-1.3e-4 0.22741,0.0135 0.74329,-0.12473 1.44169,-0.1435 2.8637,-0.37976 4.29283,-0.61985 0.52796,-0.20868 1.16906,-0.0658 1.70026,-0.23073 0.19899,-0.0618 0.36588,-0.19949 0.54884,-0.29919 0.35653,-0.23563 0.79003,-0.20995 1.20058,-0.19231 0.35683,-0.32581 0.80852,-0.43959 1.27215,-0.48993 0.18029,-0.32883 0.62031,-0.25271 0.87008,-0.4297 0.5205,-0.36884 -0.11653,-0.14662 0.43765,-0.29808 0.82354,-0.73387 1.77538,-1.29673 2.66789,-1.94277 0.81708,-0.37079 1.44904,-0.99179 2.17433,-1.495019 0.37348,-0.475086 0.51805,-0.86488 1.07189,-1.130377 0.475,-0.327178 0.81017,-0.773131 1.13627,-1.243576 0.34773,-0.437771 0.7383,-0.788199 1.10373,-1.221583 0.63917,-0.520473 1.21983,-1.207826 1.71097,-1.880757 0.56289,-0.453861 0.9194,-1.067411 1.34599,-1.635633 0.41312,-0.323373 0.70799,-0.765905 0.98403,-1.23663 0.38678,-0.643964 0.74943,-1.286733 1.20716,-1.886495 0.47349,-0.644065 0.99949,-1.294366 1.35527,-2.014387 0.3777,-0.656265 0.62584,-1.377852 0.87286,-2.091026 0.29799,-0.826886 0.73852,-1.582875 1.16555,-2.345833 0.44795,-0.574863 0.55905,-1.281144 0.8321,-1.9353 0.1267,-0.605208 0.40199,-1.139603 0.57516,-1.726282 0.17715,-0.524372 0.24135,-1.051245 0.4165,-1.571027 0.25599,-0.557458 0.22023,-1.18718 0.37773,-1.768062 0.15123,-0.75583 0.22932,-1.525545 0.53668,-2.237094 0.22584,-0.549699 0.3218,-1.125776 0.39073,-1.711466 0.0535,-0.462425 0.25875,-0.904964 0.37871,-1.36585 0.14034,-0.164947 0.0254,-0.859121 0.19705,-0.909159 0.28161,-0.234606 0.15263,-0.823931 0.42145,-1.026705 0.22645,-0.422132 0.37269,-0.847939 0.42649,-1.324107 0.0842,-0.113022 -0.0249,-0.293232 0.0476,-0.410287 0.014,-0.02259 0.0443,0.05989 0.0661,0.04466 0.12126,-0.08476 0.19936,-0.428175 0.23118,-0.544266 0.92478,-4.140309 -9.64343,-4.37569 -10.10014,-0.392192 -0.0462,0.874916 -0.0632,1.747398 -0.16711,2.617959 -0.18357,1.107231 -0.6303,2.137487 -0.92914,3.209185 -0.21524,0.724722 -0.30305,1.462881 -0.55107,2.172758 -0.21465,0.510598 -0.30746,1.062463 -0.34425,1.612445 -0.0291,0.696425 0.004,1.392449 0.002,2.088666 -0.1573,1.548907 -0.39448,3.08657 -0.53519,4.637238 -0.21857,1.796563 -0.2711,3.6015 -0.3323,5.406948 -0.0522,1.619533 0.0137,3.238526 0.008,4.858107 0.0113,2.171131 0.10535,4.328877 0.26824,6.493499 0.12042,1.943478 0.36644,3.884008 0.68652,5.805008 0.22336,1.36059 0.32666,2.73332 0.55912,4.09232 0.39821,2.02848 1.00354,4.00558 1.511,6.00734 0.50544,1.9037 0.98549,3.8159 1.61171,5.68411 0.40495,1.10089 0.81624,2.19988 1.22577,3.29945 0.5397,1.5915 1.07771,3.18263 1.67263,4.75477 0.57997,1.59635 1.07946,3.22052 1.65726,4.8174 0.35819,1.10482 0.75785,2.19842 1.06202,3.31992 0.52479,1.84216 1.53656,3.48276 2.32804,5.21546 1.34746,2.8072 2.41193,5.73391 3.5956,8.61042 0.86753,1.80737 1.87141,3.54832 2.86154,5.29119 0.65736,1.30419 1.24296,2.63909 2.04532,3.86378 0.40753,0.63557 0.7834,1.28804 1.31105,1.83393 0.33933,0.44072 0.67759,0.88574 0.95278,1.37022 0.26496,0.36306 0.64445,0.61757 0.9465,0.94918 0.0509,0.0363 0.10172,0.0726 0.15258,0.10892 0,0 9.85833,-1.20902 9.85833,-1.20902 v 0 c -0.0485,-2e-5 -0.097,-3e-5 -0.14546,-5e-5 -0.35767,0.0772 -0.60797,-0.43113 -0.93442,-0.54466 -0.24863,-0.14411 -0.26974,-0.38097 -0.43354,-0.6087 -0.18867,-0.26231 -0.48466,-0.41884 -0.55864,-0.76562 -0.45549,-0.58697 -1.07086,-1.04147 -1.39801,-1.73957 -0.90238,-1.15629 -1.60387,-2.43611 -2.26141,-3.7449 -0.95715,-1.74019 -1.93774,-3.4665 -2.8578,-5.22621 -1.48261,-2.76287 -2.69109,-5.66338 -3.9019,-8.55316 -0.63632,-1.69292 -1.19181,-3.40716 -1.76881,-5.11214 -0.31746,-1.15696 -0.8065,-2.26417 -1.19534,-3.39696 -0.58998,-1.6041 -1.17572,-3.20871 -1.72529,-4.82676 -0.59172,-1.56126 -1.07769,-3.14317 -1.56186,-4.73883 -0.37874,-1.12057 -0.73125,-2.2526 -1.20654,-3.33743 -0.82595,-1.76871 -1.42727,-3.64687 -1.87494,-5.54436 -0.4755,-1.96631 -0.94451,-3.93349 -1.26135,-5.9331 -0.20809,-1.3712 -0.35025,-2.75044 -0.64187,-4.10853 -0.3659,-1.88688 -0.6242,-3.78755 -0.78002,-5.70481 -0.16003,-2.138132 -0.32471,-4.27813 -0.17494,-6.423263 -0.01,-1.614128 0.0443,-3.227687 0.0248,-4.841931 -0.005,-1.773293 0.0606,-3.550165 0.21455,-5.317069 0.20866,-1.596567 0.5499,-3.159241 0.82559,-4.742497 -0.003,-0.667131 0.0168,-1.336405 0.0612,-2.001928 0.0535,-0.473813 0.14349,-0.936014 0.31319,-1.384112 0.22615,-0.721582 0.24491,-1.47964 0.46119,-2.205302 0.35058,-1.105453 0.67188,-2.217883 0.90849,-3.354324 0.13757,-0.844875 0.19792,-1.682991 0.29925,-2.529305 1.80169,-2.912938 -0.0442,0.14818 -9.75694,-0.041 -0.14141,-0.0028 0.14643,-0.394169 0.12362,-0.311875 -0.0147,0.05285 -0.0372,0.103198 -0.0558,0.154797 -0.21338,0.348094 -0.34613,0.701678 -0.34471,1.116505 -0.0857,0.361825 -0.2421,0.696211 -0.42322,1.021209 -0.12447,0.384953 -0.25559,0.762389 -0.43671,1.123868 -0.0814,0.339529 -0.0974,0.683736 -0.17374,1.025467 -0.12611,0.505243 -0.37253,0.982665 -0.38191,1.51284 -0.0422,0.505632 -0.16557,0.996058 -0.34353,1.471295 -0.23247,0.770456 -0.30892,1.568508 -0.53846,2.340216 -0.12866,0.56252 -0.16805,1.143296 -0.39361,1.68181 -0.17642,0.514165 -0.23611,1.053219 -0.40584,1.569726 -0.22231,0.55514 -0.39537,1.118457 -0.57004,1.689824 -0.2177,0.615532 -0.42373,1.232467 -0.75881,1.797897 -0.44916,0.804781 -0.90653,1.620824 -1.20697,2.493624 -0.26709,0.663289 -0.50194,1.343475 -0.89966,1.943841 -0.40602,0.638873 -0.7925,1.291344 -1.26781,1.882574 -0.46177,0.622607 -0.86971,1.279178 -1.29747,1.925208 -0.33763,0.413642 -0.69795,0.78431 -1.00327,1.220963 -0.3744,0.560974 -0.78988,1.078867 -1.24048,1.582785 -0.56807,0.641268 -1.1789,1.238099 -1.79579,1.827522 -0.3889,0.422254 -0.79856,0.816311 -1.12205,1.295458 -0.324,0.386651 -0.7124,0.687581 -1.12903,0.969891 -0.3548,0.36862 -0.5935,0.85067 -1.02982,1.135875 -0.65887,0.547195 -1.36841,1.007496 -2.08809,1.471631 -0.89336,0.62149 -1.75377,1.32356 -2.74948,1.77319 -0.37035,0.24818 -0.87616,0.44005 -1.32169,0.50588 -0.39505,0.14539 -0.81033,0.44695 -1.24013,0.3595 -0.43426,0.0991 -0.82047,0.28459 -1.22254,0.46729 -0.66892,0.15382 -1.38201,0.15726 -2.04869,0.35363 -1.44567,0.25998 -2.90291,0.40244 -4.36292,0.55835 -5.17746,-0.052 12.88179,-0.0404 8.01522,8e-5 -0.37692,0.005 -0.75265,0.0225 -1.12871,0.0332 -0.12172,-0.0438 -0.76649,-0.36199 -0.80093,-0.363 -6.2964,-0.18466 -6.81318,-0.17773 -10.35693,-0.14746 -3.42111,0.0408 -0.142,2.6e-4 8.85571,0.007 1.65066,0.001 -4.02937,0.0236 -2.36089,-7.9e-4 -0.77928,0.0448 -1.50552,-0.10479 -2.23737,-0.38605 -1.27488,-0.5195 -2.5867,-1.00254 -3.70788,-1.81947 -0.80678,-0.51124 -1.52658,-1.13593 -2.38267,-1.566617 -0.86803,-0.503267 -1.29975,-1.394156 -1.90519,-2.162281 -0.49139,-0.80849 -1.05425,-1.592334 -1.66308,-2.308418 -0.33119,-0.322348 -0.50896,-1.090179 -0.6395,-1.528429 -0.18035,-0.810218 -0.49608,-1.579465 -0.65461,-2.395728 -0.17618,-0.46898 -0.52746,-0.826321 -0.58107,-1.323438 -0.11196,-1.097738 -0.26363,-2.190737 -0.41573,-3.28371 -0.13347,-0.864081 -0.2077,-1.770208 -0.52086,-2.58831 -0.0197,-0.903687 -0.13594,-1.801048 -0.18236,-2.703436 -0.0916,-1.197176 -0.1163,-2.392325 -0.2998,-3.579214 -0.0116,-0.753002 -0.0776,-1.504437 -0.14643,-2.254015 -0.1016,-1.323953 -0.29851,-2.653376 -0.20502,-3.981862 0.15095,-1.085517 0.47138,-2.144263 0.46263,-3.250369 0.1115,-1.294321 0.34307,-2.576801 0.33941,-3.877755 -0.005,-0.717232 0.0288,-1.434261 0.0373,-2.151205 0.0314,-0.668465 0.0747,-1.338736 0.23699,-1.990955 0.16723,-0.663597 0.27842,-1.323653 0.29224,-2.009884 0.0572,-0.625382 0.17884,-1.244227 0.37871,-1.84041 z" />
</svg>
