<?xml version="1.0" encoding="UTF-8" standalone="no"?>
<!-- Created with Inkscape (http://www.inkscape.org/) -->

<svg
   width="1000"
   height="1000"
   viewBox="0 0 264.58333 264.58333"
   version="1.1"
   id="svg1"
   xmlns="http://www.w3.org/2000/svg"
   xmlns:svg="http://www.w3.org/2000/svg">
  <defs
     id="defs1" />
  <path
     style="fill:#000000;stroke-width:0.264583"
     id="path2"
     d="m 164.90397,3.057707 c -0.18083,0.034873 -0.3669,0.049045 -0.54248,0.1046184 -0.43596,0.13799 -0.84101,0.3593446 -1.26022,0.541996 -0.87432,0.3809431 -1.72368,0.7667008 -2.56248,1.22125 -0.29819,0.1742532 -0.60201,0.3392045 -0.89457,0.52276 -0.31839,0.1997625 -0.61939,0.4263393 -0.93742,0.6266704 -1.32909,0.8372086 -2.73424,1.5467912 -4.08473,2.3475704 -2.31634,1.3900422 -4.55309,2.9137348 -6.71098,4.5379428 -0.37163,0.28941 -0.75052,0.569726 -1.11489,0.86823 -2.19123,1.79516 -0.0155,0.113453 -2.21851,1.874799 -1.14579,0.916094 -2.34792,1.762227 -3.51519,2.650539 -2.46476,1.786252 -4.75969,3.794173 -6.81172,6.040753 -1.99614,2.058516 -3.91419,4.188974 -5.7558,6.386222 -2.28671,3.048244 -4.71434,5.983589 -7.15574,8.907688 -0.43102,0.542933 -0.86303,1.085088 -1.29308,1.628796 -0.75224,0.951055 -1.63531,2.030026 -2.29463,3.054075 -1.12382,1.745472 -2.04017,3.646392 -3.03441,5.466506 -1.25357,2.093785 -2.26495,4.315542 -3.36518,6.489226 -1.24921,2.468031 -2.58429,4.89413 -3.91039,7.321277 -1.8374,3.836633 -4.1658,7.405659 -6.16868,11.152076 -0.40524,0.758 -0.78387,1.529927 -1.1758,2.294888 -2.406787,4.690274 -4.223176,9.652796 -6.065377,14.584127 -1.238136,3.447494 -2.57633,6.862561 -3.578601,10.389783 -0.482012,1.69632 -0.883398,3.44571 -1.29441,5.16055 -1.053206,4.8853 -1.55448,9.86574 -1.965661,14.83934 -0.27427,3.88458 -0.411136,7.79892 -0.05102,11.68368 0.07566,0.81618 0.193607,1.62788 0.29041,2.44182 0.147539,0.86305 0.256452,1.73359 0.442616,2.58914 0.310885,1.42874 1.170953,4.42834 1.608047,5.8246 0.388313,1.24042 1.387415,4.18043 1.885837,5.42284 0.345535,0.86132 0.747117,1.69907 1.120677,2.54861 0.788339,1.61018 1.411692,3.02266 2.409682,4.51769 1.352661,2.02634 3.113259,4.05144 4.902993,5.70718 0.584327,0.54058 1.214217,1.02973 1.821327,1.54459 0.6838,0.47636 1.35265,0.97494 2.05141,1.42908 0.69524,0.45185 1.40857,0.87593 2.1284,1.28747 4.28016,2.447 8.53468,4.94129 12.87078,7.28772 0.77041,0.41689 1.61663,0.67556 2.43282,0.99363 2.6284,1.02427 2.25204,0.85128 4.94869,1.64612 2.42215,0.73174 4.92981,1.05425 7.43259,1.35426 1.33039,0.15948 3.52477,0.4191 4.87156,0.48919 0.86128,0.0448 1.72455,0.035 2.58682,0.0524 3.53951,0.0422 7.09384,-0.18274 10.60587,-0.6316 1.89858,-0.24266 3.41084,-0.54331 5.29266,-0.88553 3.89976,-0.83421 7.70336,-2.14448 11.19784,-4.0862 2.32522,-1.29202 3.6026,-2.29252 5.76816,-3.83347 0.90612,-0.7363 1.84104,-1.43851 2.71835,-2.20891 0.93324,-0.81952 1.81851,-1.69238 2.70957,-2.55757 2.05547,-1.99574 3.52685,-3.47516 5.3781,-5.67281 2.18001,-2.58794 3.11381,-3.99551 5.10051,-6.75218 3.47453,-4.92151 6.06844,-10.41185 7.97139,-16.11635 0.46832,-1.40389 0.9359,-2.81131 1.29027,-4.24819 0.3587,-1.45444 0.56398,-2.94247 0.84597,-4.41371 0.8879,-5.30016 1.14743,-10.70943 0.14864,-16.01421 -0.62269,-3.30721 -1.0033,-4.01292 -2.11051,-7.17581 -1.90402,-5.379978 -5.29728,-9.961955 -9.40096,-13.874023 -0.77704,-0.74076 -1.60742,-1.423467 -2.41114,-2.135201 -2.12752,-1.558211 -2.98909,-2.279576 -5.24721,-3.589049 -4.79621,-2.781303 -9.59469,-5.560375 -14.44998,-8.237225 -0.91601,-0.505024 -1.89641,-0.883693 -2.85458,-1.303259 -2.73571,-1.197922 -2.82808,-1.18515 -5.59313,-2.201185 -4.02168,-1.254138 -8.07434,-2.500503 -12.23538,-3.21424 -2.433,-0.417327 -3.49191,-0.435168 -5.92879,-0.610825 -3.89422,0.02674 -7.79236,0.485492 -11.59867,1.307949 -1.5583,0.336714 -4.01764,0.99178 -5.56783,1.394201 -4.72963,1.09873 -9.05942,3.151177 -13.25694,5.534358 -1.98486,1.301427 -1.5987,1.03037 -3.5258,2.363682 -0.52949,0.366339 -1.09644,0.685035 -1.58356,1.106075 -0.81246,0.702235 -1.30658,1.497663 -1.91363,2.355511 0,0 11.23667,7.146052 11.23667,7.146052 v 0 c 1.20229,-0.44789 2.25604,-0.774348 3.3581,-1.465628 0.52211,-0.327501 0.96339,-0.769443 1.45921,-1.135523 1.4198,-1.048276 1.92159,-1.335206 3.41552,-2.293824 1.54078,-0.920895 2.10484,-1.300607 3.73823,-2.099241 2.85221,-1.394563 5.867,-2.440307 8.89325,-3.38156 5.49446,-1.481727 11.10429,-2.639716 16.83174,-2.356403 0.91751,0.0698 1.83812,0.10667 2.75253,0.209397 5.17771,0.581673 10.19951,2.129168 15.08782,3.872415 2.39359,0.897527 2.96387,1.067379 5.32407,2.134936 0.92243,0.417227 3.59385,1.854211 2.74018,1.30996 -2.98075,-1.900367 -6.09159,-3.588536 -9.13494,-5.386927 -0.9164,-0.54152 1.85301,1.04961 2.75405,1.616308 0.93251,0.586486 1.82941,1.227777 2.74411,1.841669 0.85021,0.695169 1.72721,1.35881 2.55063,2.085509 4.51285,3.982755 8.00548,8.354949 10.6306,13.79274 1.11825,2.921271 1.62791,3.937981 2.31784,7.006251 1.17247,5.21424 1.1467,10.59659 0.47123,15.87445 -0.6902,3.75017 -0.78081,4.90751 -1.94074,8.55071 -1.79659,5.64288 -4.55387,10.9031 -7.96094,15.7354 -0.8543,1.12926 -1.67718,2.283 -2.56291,3.38778 -3.96834,4.94976 -8.53733,9.36187 -13.59455,13.19033 -0.93424,0.64274 -1.83776,1.33258 -2.80272,1.92822 -4.35352,2.68726 -9.236,4.36104 -14.25027,5.27941 -5.1652,0.91866 -10.40241,1.51516 -15.65825,1.34251 -4.92747,-0.3212 -9.88914,-0.71127 -14.64933,-2.11518 -2.20908,-0.69636 -2.59849,-0.76356 -4.74997,-1.66772 -0.81274,-0.34155 -3.15047,-1.56841 -2.40906,-1.09142 2.77931,1.78806 5.70364,3.34014 8.54022,5.03589 0.71257,0.42599 -1.45551,-0.79983 -2.16778,-1.22634 -0.70492,-0.4221 -1.38833,-0.87914 -2.0825,-1.31872 -0.64445,-0.49365 -1.30854,-0.96267 -1.93335,-1.48095 -1.94958,-1.61719 -3.79677,-3.50065 -5.30844,-5.53695 -1.13688,-1.53143 -1.78242,-2.82969 -2.70729,-4.49735 -0.41295,-0.84268 -0.84772,-1.67501 -1.23883,-2.52803 -1.98867,-4.33738 -3.464657,-8.92837 -4.204189,-13.64613 -0.674293,-4.72271 -1.129879,-9.36751 -0.778618,-14.14696 0.27057,-4.98341 0.751318,-9.95234 1.579988,-14.87678 0.146561,-0.84749 0.2721,-1.69889 0.439685,-2.54248 0.891495,-4.48759 2.269064,-8.86455 3.836674,-13.157021 1.77266,-4.915847 3.69443,-9.780241 6.00054,-14.474184 2.37277,-4.525016 4.95041,-8.940684 7.23911,-13.510856 1.19876,-2.482278 2.39299,-4.976153 3.78272,-7.359673 0.27758,-0.476078 2.36508,-3.775808 2.7259,-4.389935 0.36079,-0.614074 0.68865,-1.246915 1.03297,-1.870372 1.9609,-3.463038 4.03941,-6.87366 6.54922,-9.97291 1.42452,-1.739715 1.23007,-1.543341 2.74801,-3.229824 1.22513,-1.361168 1.46009,-1.540648 2.6034,-2.904519 0.36267,-0.432628 0.69824,-0.887447 1.0596,-1.321163 0.34776,-0.417385 0.71158,-0.821118 1.06737,-1.231677 1.89309,-2.126041 3.79902,-4.242033 5.71677,-6.34519 2.1004,-2.088682 4.11171,-4.299751 6.59926,-5.946888 2.40954,-1.657822 4.61493,-3.558906 6.89052,-5.390804 2.14778,-1.616483 4.40172,-3.065251 6.71047,-4.441344 1.82161,-1.252709 3.52351,-2.674811 5.43353,-3.800767 1.10366,-0.8118771 2.03912,-1.7103938 3.33559,-2.2253712 z" />
</svg>
