<?xml version="1.0" encoding="UTF-8" standalone="no"?>
<!-- Created with Inkscape (http://www.inkscape.org/) -->

<svg
   width="1000"
   height="1000"
   viewBox="0 0 264.58333 264.58333"
   version="1.1"
   id="svg1"
   xmlns="http://www.w3.org/2000/svg"
   xmlns:svg="http://www.w3.org/2000/svg">
  <defs
     id="defs1" />
  <path
     style="fill:#000000;stroke-width:26.4583"
     id="path4"
     d="m 45.751683,9.2199014 c 0.538356,0.4787649 1.065753,0.9679266 1.459148,1.5748996 0.316045,0.46697 0.697664,0.891763 1.064948,1.321805 0.546537,0.602626 1.090163,1.209539 1.566693,1.869752 0.592646,0.846499 1.191223,1.691458 1.804175,2.524089 0.367769,0.585053 0.727192,1.174209 1.093156,1.760829 0.412046,0.819138 0.840179,1.628976 1.268497,2.439912 0.257733,0.680203 0.655108,1.294159 0.955511,1.952763 0.198667,0.533976 0.401195,1.063867 0.677645,1.563077 0.449842,0.705294 0.781421,1.472744 1.188604,2.202092 0.372568,0.695405 0.645641,1.418281 1.092806,2.072042 1.013222,1.455891 1.856248,3.021399 2.661417,4.599229 0.81275,1.638215 1.618398,3.283241 2.315504,4.974677 0.319047,0.831736 0.604033,1.675254 0.913175,2.50975 0.569388,1.344038 1.184767,2.665598 1.714494,4.026911 0.446225,1.323221 0.864963,2.653686 1.273022,3.989027 0.555045,2.233343 0.926653,4.50505 1.29576,6.774749 0.42306,3.078181 0.917781,6.145011 1.491652,9.198568 0.613973,2.43696 1.279038,4.864269 1.914387,7.297732 0.491472,1.970479 0.7376,3.987263 1.201285,5.963335 0.20933,0.789913 0.31196,1.587648 0.364157,2.401414 0.209634,1.452112 0.276267,2.920365 0.471104,4.373276 0.15999,0.941179 0.272425,1.890895 0.452979,2.828386 0.217805,0.818356 0.36566,1.653529 0.417383,2.498738 -0.02175,0.57962 0.21862,1.116026 0.363821,1.665639 0.107923,0.496089 0.170571,0.995056 0.29977,1.488707 0.220369,0.959343 0.476525,1.906289 0.634476,2.87977 0.121095,0.83933 0.35219,1.663806 0.604139,2.47278 0.23336,0.632773 0.430755,1.270865 0.498568,1.94316 0.02611,0.61029 0.0038,1.20919 0.163441,1.80292 0.245189,0.50771 0.287986,1.0614 0.330086,1.61416 0.01992,0.61887 0.04616,1.23643 0.02058,1.85543 -0.06667,0.66008 0.08901,1.29022 0.237659,1.92816 0.18787,0.7822 0.231675,1.58475 0.26833,2.38533 0.02545,0.82696 -0.0013,1.65443 -0.0082,2.48147 0.160314,0.85253 0.320466,1.70905 0.503608,2.55893 0.200303,0.99115 0.333428,1.9961 0.418775,3.00345 0.02598,0.79517 0.277759,1.56103 0.39144,2.3463 0.141203,0.83482 0.368221,1.64889 0.493049,2.48816 0.07983,0.60474 0.0833,1.21392 0.09766,1.82232 0.116509,0.67019 0.321794,1.31857 0.405566,1.99491 0.268023,0.97422 0.415042,1.97711 0.491855,2.9832 0.05128,0.5321 0.05135,1.06689 0.06963,1.6007 -0.03644,0.62643 0.0024,1.22522 0.150633,1.83471 0.130022,0.51842 0.237389,1.04327 0.281342,1.57645 0.0075,0.48829 0.05169,0.95926 0.181372,1.43102 0.177805,0.50139 0.26376,1.02198 0.449601,1.52066 0.155493,0.52427 0.48554,0.92368 0.797637,1.3554 0.311983,0.59408 0.602281,1.19769 0.856975,1.81845 0.216019,0.54267 0.535143,1.04351 0.85612,1.53046 0.189722,0.50702 0.497964,0.91935 0.838115,1.32755 0.246486,0.30659 0.471982,0.63172 0.658466,0.98129 0.139173,0.14635 0.283107,0.88501 0.540483,0.86179 0.221319,0.42198 0.573876,0.74357 0.92637,1.06938 0.575209,0.50608 1.191289,0.97288 1.725914,1.52293 0.339828,0.35958 0.770461,0.71734 1.235911,0.89776 0.667012,0.45725 1.4005,0.80191 2.130123,1.1492 0.677355,0.25985 1.30996,0.6254 1.990767,0.87517 0.621935,0.36056 1.30705,0.57493 1.976319,0.82718 0.707924,0.32605 1.441524,0.5963 2.193927,0.79932 0.580041,0.16477 1.189554,0.15729 1.787417,0.16191 4.29449,0.10918 8.58848,-0.0131 12.88265,-0.0186 1.07709,-0.003 2.15415,0.007 3.23122,0.0102 0.9151,-0.3764 1.90704,-0.38747 2.88018,-0.43631 1.27505,-0.0576 2.55173,-0.0573 3.82779,-0.0551 -0.42521,-0.003 1.29606,0.005 0.97205,0.005 -3.09994,0.002 -12.38175,0.33482 -9.2998,0.001 4.48749,-0.48558 7.88064,0.46818 11.83951,-0.36778 2.39253,-0.28927 4.77245,-0.64161 7.14623,-1.05521 1.94578,-0.46718 3.93077,-0.73739 5.88218,-1.17264 1.16036,-0.35597 2.40276,-0.36317 3.57592,-0.64037 0.0127,-0.003 1.44512,-0.46965 1.47588,-0.47967 1.02358,-0.39788 1.83403,-0.75623 2.51091,-1.63066 0.66974,-0.72768 1.34964,-1.46811 2.09902,-2.1203 0.61864,-0.72752 1.24469,-1.4476 1.80212,-2.22593 0.43239,-0.67161 1.06434,-1.18448 1.49461,-1.85209 0.39895,-0.67862 0.86712,-1.30698 1.21601,-2.01699 0.51053,-0.97665 1.02673,-1.94358 1.51163,-2.93491 0.32454,-0.87441 0.6833,-1.72987 0.91185,-2.63721 0.18087,-0.92241 0.17816,-1.86505 0.31847,-2.79282 0.1426,-1.0476 0.27457,-2.09989 0.34968,-3.15507 0.098,-0.68379 0.26507,-1.36015 0.39094,-2.04325 0.13127,-0.89511 0.0723,-1.80245 0.10615,-2.70597 0.0262,-0.86227 -0.005,-1.72495 0.0163,-2.58716 -0.15212,-1.05951 -0.32969,-2.11611 -0.58211,-3.15663 -0.19907,-0.93541 -0.29973,-1.88676 -0.35887,-2.84002 -0.003,-1.22106 -0.16998,-2.43442 -0.39895,-3.63117 -0.24344,-1.92805 -0.74935,-3.78578 -1.28793,-5.64692 -0.49688,-1.43181 -0.99642,-2.87868 -1.68239,-4.23334 -0.54862,-0.97977 -1.11717,-1.944182 -1.8209,-2.82095 -1.02226,-1.249071 -2.22342,-2.335644 -3.34026,-3.497683 -1.92299,-1.917044 -3.90151,-3.778549 -5.85954,-5.660099 -1.15744,-1.162658 -2.37778,-2.21755 -3.75359,-3.108164 -1.10662,-0.728644 -2.33886,-1.24529 -3.56536,-1.735965 -1.82066,-0.633601 -3.61582,-1.331722 -5.39962,-2.061705 -2.29455,-0.929251 -4.66176,-1.648076 -6.98183,-2.506406 -1.21342,-0.487082 -2.46748,-0.855911 -3.70359,-1.274802 -0.95578,-0.259718 -1.92048,-0.484426 -2.8828,-0.723426 -0.80149,-0.181721 -1.62057,-0.25376 -2.43972,-0.290291 -3.85081,-0.1003 -7.70442,-0.05279 -11.55629,-0.01598 -1.01303,-0.08251 -1.978776,0.122846 -2.966624,0.307737 -0.759556,0.138326 -1.530102,0.168182 -2.299865,0.182133 -0.602985,0.02109 -1.204711,-0.09258 -1.7707,0.132692 -0.820401,0.136019 -1.565941,0.422764 -2.358215,0.656468 -0.993913,0.31197 -2.013143,0.525817 -3.050315,0.617709 -0.132853,0.0093 -0.269616,-0.0054 -0.39856,0.0279 -0.223891,0.05785 -0.413671,0.210814 -0.633291,0.283204 -0.334217,0.11016 -0.564724,0.132826 -0.870683,0.322276 -0.523402,0.358243 -1.175838,0.279863 -1.752013,0.484113 -0.496451,0.124029 -0.996963,0.230625 -1.498012,0.334106 0,0 9.788244,1.324358 9.788244,1.324358 v 0 c 0.483719,-0.123867 0.968253,-0.244536 1.454272,-0.359111 0.646133,-0.09971 1.221377,-0.339492 1.806175,-0.624535 0.608156,-0.126254 1.175176,-0.392534 1.807975,-0.391039 1.050192,-0.196141 2.078352,-0.485769 3.105202,-0.778385 0.76088,-0.257212 1.55744,-0.372639 2.34656,-0.512683 0.58961,0.03801 1.18004,0.01696 1.76956,-0.02035 0.75716,-0.0585 1.50798,-0.16714 2.25339,-0.313013 0.99791,-0.158726 1.99685,-0.158342 3.00592,-0.133834 4.69053,0.01625 -13.222325,0.01818 -7.90338,-0.0071 0.82292,7.94e-4 1.64914,0.0081 2.4657,0.12187 0.97008,0.126709 1.87058,0.519356 2.84891,0.604403 1.3383,0.41596 2.69549,0.764823 4.03032,1.203796 2.31992,0.8104 4.64311,1.611125 6.94263,2.478074 1.73826,0.675744 3.4302,1.467909 5.17682,2.123239 1.23579,0.394483 2.4166,0.909201 3.56341,1.512245 0.5693,0.366024 1.19652,0.677582 1.74707,1.068665 0.79249,0.562933 1.49009,1.26682 2.26138,1.856325 2.03743,1.762331 3.89225,3.719769 5.82816,5.591164 1.04615,1.129072 2.01278,2.306301 3.01983,3.462906 0.70762,0.810371 1.35553,1.670267 1.85709,2.626288 0.74994,1.27091 1.30166,2.65426 1.83308,4.02748 0.56662,1.8084 1.03799,3.63481 1.2264,5.52667 0.16775,1.17833 0.23341,2.34349 0.21982,3.53088 0.0603,1.00515 0.22908,1.99386 0.44575,2.97712 0.16672,0.98678 0.37225,1.96368 0.48333,2.96121 0.0243,0.858 -0.002,1.71651 0.0119,2.57474 0.0132,0.85547 -0.0233,1.70692 -0.15115,2.55348 -0.1082,0.72206 -0.37885,1.41965 -0.36882,2.15422 -0.0358,1.02409 -0.0886,2.04774 -0.2795,3.05734 -0.14304,0.89915 -0.23304,1.79658 -0.386,2.69306 -0.22559,0.8366 -0.54237,1.64621 -0.85342,2.45379 -0.45675,0.99074 -1.00117,1.93695 -1.56239,2.87184 -0.39802,0.6395 -0.77778,1.29284 -1.23128,1.89551 -0.50966,0.60639 -1.0225,1.21111 -1.47799,1.86019 -0.5142,0.72036 -1.10454,1.39768 -1.71334,2.03784 -0.73383,0.73468 -1.5022,1.43422 -2.21543,2.18918 -0.63838,0.57165 -1.47231,0.85642 -2.27227,1.12936 -1.6051,0.45577 -3.27242,0.65355 -4.89342,1.04837 -1.95634,0.35959 -3.90588,0.73575 -5.85141,1.15236 -2.41563,0.43306 -4.84961,0.71328 -7.2826,1.02887 -0.27374,0.0349 -0.54683,0.0755 -0.82123,0.10483 -0.26835,0.0287 -1.07653,0.0667 -0.80667,0.0691 19.00062,0.17287 4.39746,-0.17373 -1.97926,0.0142 -1.2626,0.0156 -2.52672,0.0274 -3.78633,0.12317 -1.00627,0.0851 -1.99452,0.31871 -2.99642,0.35144 -1.02994,0.004 -2.05985,0.0143 -3.08981,0.0131 -3.814456,0.003 -10.703827,-0.0562 6.42902,-0.007 -0.5754,0.004 -1.15073,0.0141 -1.72602,0.0191 -0.76474,-0.0956 -1.50604,-0.27003 -2.22911,-0.54282 -0.61332,-0.35584 -1.25867,-0.57498 -1.92899,-0.79024 -0.61804,-0.42611 -1.40036,-0.5921 -2.06016,-0.94579 -0.42137,-0.16356 -1.07971,-0.40201 -1.45403,-0.64315 -0.10657,-0.0686 -0.18887,-0.17286 -0.30021,-0.23346 -0.0827,-0.045 -0.18104,-0.0518 -0.27156,-0.0777 -0.326587,-0.33064 -0.810804,-0.51867 -1.233682,-0.7269 -0.562237,-0.55566 -1.173737,-1.02717 -1.728012,-1.58689 -0.134401,-0.11343 -0.426548,-0.27691 -0.528786,-0.41037 -0.134797,-0.17597 -0.07024,-0.30363 -0.313611,-0.32261 -0.123161,-0.42693 -0.492569,-0.41511 -0.562546,-0.85817 -0.22629,-0.40638 -0.441047,-0.78475 -0.690065,-1.16215 -0.305052,-0.38188 -0.683758,-0.63594 -0.837266,-1.12603 -0.216575,-0.4973 -0.586142,-0.92448 -0.854522,-1.39174 -0.219988,-0.69883 -0.67042,-1.29476 -0.899642,-1.98823 -0.231862,-0.51142 -0.52429,-0.77421 -0.749424,-1.25781 -0.238644,-0.45285 -0.288335,-0.94638 -0.44491,-1.43156 -0.169469,-0.40004 -0.123712,-0.79048 -0.161499,-1.21729 -0.07334,-0.57233 -0.186288,-1.13816 -0.341585,-1.69459 -0.116946,-0.53925 -0.143204,-1.06553 -0.119484,-1.61931 0.0097,-0.5762 -0.01913,-1.15045 -0.107423,-1.72077 -0.183195,-0.99291 -0.363839,-1.98886 -0.470228,-2.9931 -0.09909,-0.63232 -0.211408,-1.25739 -0.384162,-1.87462 -0.0083,-0.65246 -0.06295,-1.30531 -0.169037,-1.94926 -0.125198,-0.84324 -0.333277,-1.66654 -0.460221,-2.50784 -0.144349,-0.75478 -0.341215,-1.50068 -0.419415,-2.26495 -0.08863,-1.0433 -0.335587,-2.05363 -0.497462,-3.08658 -0.100843,-0.80044 -0.13861,-1.62171 -0.393928,-2.39189 -0.0055,-0.83795 -0.03193,-1.67553 -0.04624,-2.51334 -0.01558,-0.85732 -0.03157,-1.72928 -0.22492,-2.5676 -0.118782,-0.57159 -0.245134,-1.12587 -0.192614,-1.71546 -0.027,-0.64047 0.0063,-1.28175 -0.04614,-1.92104 -0.03802,-0.64181 -0.07229,-1.30512 -0.287237,-1.91535 -0.285901,-0.45379 -0.114975,-1.02286 -0.224867,-1.53423 -0.07516,-0.747517 -0.170294,-1.47256 -0.515617,-2.154724 -0.263904,-0.763308 -0.475846,-1.558288 -0.643269,-2.346958 -0.21277,-0.972243 -0.393234,-1.948526 -0.574659,-2.926487 -0.112027,-0.519899 -0.141052,-1.033756 -0.230851,-1.557332 -0.170628,-0.475769 -0.384011,-0.949037 -0.440997,-1.451555 -0.09944,-0.886232 -0.210791,-1.766226 -0.434158,-2.631871 -0.243337,-0.897882 -0.270425,-1.859529 -0.569158,-2.751878 -0.229106,-1.40657 -0.296781,-2.836196 -0.445813,-4.253135 0.01553,-0.921734 0.08968,-1.806673 -0.339849,-2.653837 -0.667176,-1.937353 -1.174313,-3.907409 -1.613074,-5.911331 -0.547926,-2.436305 -0.999075,-4.903269 -1.800757,-7.273227 -0.715378,-3.011006 -1.367377,-6.043599 -1.610712,-9.136583 -0.30148,-2.299293 -0.501097,-4.613609 -0.935987,-6.893492 -0.329775,-1.398542 -0.873946,-2.726187 -1.345462,-4.079763 -0.487434,-1.345131 -1.054516,-2.6597 -1.517515,-4.01428 -0.29482,-0.8836 -0.64924,-1.729946 -1.02598,-2.579677 C 71.810827,35.97634 70.874443,34.350119 70.084439,32.652557 69.290057,31.086729 68.538976,29.500626 67.738871,27.938256 67.335403,27.275047 66.901526,26.659327 66.6305,25.917553 66.210148,25.207392 65.889513,24.460126 65.483222,23.745133 65.230507,23.250447 64.981349,22.777951 64.836911,22.2362 64.517069,21.550675 64.077594,20.940921 63.759511,20.251981 63.356212,19.427815 62.939999,18.611416 62.561068,17.775438 62.236273,17.115557 61.816472,16.516696 61.429278,15.896734 60.839262,15.067822 60.161481,14.299665 59.638424,13.42105 59.204687,12.690866 58.64313,12.057914 58.11031,11.404719 57.756533,11.016407 57.462687,10.54895 57.07078,10.21794 56.639348,9.5766698 56.173962,8.9817968 55.616331,8.4435444 Z" />
</svg>
