<?xml version="1.0" encoding="UTF-8" standalone="no"?>
<!-- Created with Inkscape (http://www.inkscape.org/) -->

<svg
   width="1000"
   height="1000"
   viewBox="0 0 264.58333 264.58333"
   version="1.1"
   id="svg1"
   xmlns="http://www.w3.org/2000/svg"
   xmlns:svg="http://www.w3.org/2000/svg">
  <defs
     id="defs1" />
  <path
     style="fill:#000000;stroke-width:0.264583"
     id="path6"
     d="m 163.05831,64.766475 c -0.9478,0.02043 -1.8991,0.01654 -2.84704,-0.01714 -1.17859,-0.06637 -2.3602,-0.02968 -3.54017,-0.04267 -1.74502,-0.09577 -3.47515,0.169241 -5.20707,0.342763 -2.29661,0.237492 -4.60242,0.26843 -6.90858,0.265726 -2.69234,-0.02516 -5.37819,0.137946 -8.06175,0.331586 -3.46093,0.340098 -6.87824,0.974418 -10.2941,1.609201 -0.62651,0.151903 -1.26274,0.268172 -1.87951,0.455706 -0.70816,0.21532 -1.39385,0.498599 -2.08961,0.751125 -3.07619,1.116505 -6.1105,2.303217 -9.09259,3.651311 -2.92474,1.313712 -5.73148,2.901048 -8.34401,4.761891 -1.52862,1.0888 -1.86738,1.418641 -3.28521,2.606461 -1.36029,1.313958 -2.771357,2.588398 -4.021826,4.011446 -1.180711,1.343662 -2.226399,2.800003 -3.254086,4.260614 -1.035132,1.582529 -1.945172,3.304426 -2.404996,5.153041 -0.230654,0.927285 -0.231246,1.361668 -0.309896,2.295866 -0.04755,2.261137 0.876593,4.335468 1.850496,6.322278 0.670528,1.21957 1.400291,2.42643 2.370272,3.43522 0.66244,0.68895 0.880375,0.81229 1.652659,1.41498 5.157257,3.29407 10.208017,7.21839 16.150627,8.85594 1.14961,0.31679 2.41679,0.51196 3.58776,0.71896 3.58286,0.53241 7.1987,0.21877 10.79888,0.13303 1.76259,-0.0677 3.53393,-0.093 5.2934,-0.22762 1.82023,-0.13926 3.63403,-0.37637 5.45484,-0.52108 3.15298,-0.15704 6.32861,0.0566 9.43089,0.63426 2.63294,0.6175 5.21429,1.43777 7.80635,2.2063 1.26927,0.41685 2.57684,0.73031 3.83442,1.18365 0.41823,0.15076 0.82202,0.33909 1.2368,0.49908 1.08076,0.41688 1.2345,0.44882 2.34368,0.80583 1.57582,0.58144 3.13633,1.26353 4.60938,2.07617 0.34088,0.18806 1.3371,0.79809 0.99901,0.60506 -3.58489,-2.04676 -7.15979,-4.11095 -10.73969,-6.16642 1.4063,0.83508 2.57794,1.93416 3.61733,3.18391 1.31579,1.52384 2.27817,3.29592 3.16314,5.0924 0.88729,1.76133 1.46405,3.65459 2.03832,5.53485 0.58771,2.20663 0.7237,4.48611 0.61976,6.75723 -0.0699,1.2073 -0.20903,2.45432 -0.66282,3.58847 -0.26295,0.65717 -0.43588,0.85625 -0.82236,1.44588 -1.42968,1.94308 -3.06088,3.7289 -4.87854,5.31226 -2.29249,2.11033 -5.22139,3.20192 -8.08747,4.28249 -0.55615,0.16209 -1.10707,0.34334 -1.66845,0.48627 -1.11428,0.28372 -2.47891,0.51218 -3.59657,0.76444 -2.08293,0.47011 -4.15108,0.97006 -6.24424,1.39747 -4.18351,1.02399 -8.45854,1.51036 -12.75212,1.71892 -3.86539,0.12861 -7.71827,-0.11258 -11.56889,-0.41064 -3.03705,-0.30128 -6.04708,-0.83058 -9.05133,-1.35983 -2.10031,-0.31349 -4.12605,-0.95813 -6.19003,-1.43333 -0.21401,-0.0408 -0.43061,-0.0699 -0.64202,-0.12248 -0.34294,-0.0853 -0.66474,-0.23953 -1.01258,-0.30871 -0.521117,-0.10363 -1.053276,-0.094 -1.577836,-0.19444 -0.765691,-0.15628 -1.533951,-0.34106 -2.317536,-0.37175 -0.09766,-0.106 -0.30122,0.064 -0.406696,-0.0215 -0.04853,-0.0393 -0.01394,-0.13116 -0.05333,-0.17963 -0.118189,-0.14543 -0.512701,-0.0728 -0.67642,-0.0908 -0.363239,-0.0232 -0.729589,-0.0174 -1.091171,-0.062 -0.149021,2.6e-4 -0.122859,-0.0147 0.04184,0.14181 0,0 12.376469,9.05957 12.376469,9.05957 v 0 c 0.0984,0.0745 0.13996,0.14195 0.24689,0.15356 0.31949,-5.3e-4 0.63769,0.10592 0.94387,0.18189 0.82734,0.24614 -0.3738,-0.12977 0.45033,0.19183 0.27404,0.10694 0.49874,-0.14083 0.77855,-0.0202 0.68931,0.1185 1.38395,0.2072 2.07428,0.32031 1.04222,0.15205 2.0488,0.46526 3.09231,0.61771 1.93203,0.40468 3.86976,0.77785 5.8259,1.05005 3.01661,0.43843 6.02246,1.04425 9.07226,1.18011 3.75858,0.10854 7.52442,0.19751 11.28104,-0.0103 2.20385,-0.17801 4.40706,-0.32466 6.59335,-0.66842 2.10011,-0.33021 2.02075,-0.36691 4.05251,-0.84421 0.69277,-0.16274 1.38668,-0.32059 2.08002,-0.48089 1.80968,-0.41014 2.38585,-0.55326 4.21885,-0.91738 2.54329,-0.50521 5.12477,-0.91152 7.57526,-1.78934 0.55494,-0.20786 1.11879,-0.3933 1.66481,-0.62358 2.40737,-1.01527 4.55749,-2.51197 6.53979,-4.19767 0.54024,-0.48261 1.55732,-1.37425 2.06467,-1.89485 0.28656,-0.29406 0.54143,-0.61746 0.81648,-0.92231 0.80663,-0.89404 1.65963,-1.74601 2.42508,-2.67674 0.56678,-0.85442 1.08031,-1.70989 1.34187,-2.71597 0.25863,-0.99481 0.22468,-2.05161 0.36596,-3.0626 0.13646,-2.39416 -0.17293,-4.78039 -0.48952,-7.15126 -0.0638,-0.34925 -0.11054,-0.70205 -0.19135,-1.04776 -0.18162,-0.77705 -0.32977,-1.0534 -0.60933,-1.80183 -0.37792,-1.01172 -0.70379,-2.04623 -1.19834,-3.01037 -0.9356,-1.88674 -1.84933,-3.79613 -3.18854,-5.44043 -0.97142,-1.23502 -1.62908,-2.1453 -2.8967,-3.1164 -0.25544,-0.1957 -0.51114,-0.39107 -0.76671,-0.5866 -5.88915,-3.41879 -11.56994,-7.46398 -18.09681,-9.60352 -2.31854,-0.79305 -4.66651,-1.47643 -7.02871,-2.12984 -2.56292,-0.73666 -5.10357,-1.59136 -7.75453,-1.96359 -3.11205,-0.40456 -6.26189,-0.56648 -9.38987,-0.22238 -3.55567,0.36666 -7.12073,0.62441 -10.69565,0.69885 -3.52105,0.15015 -7.07554,0.27448 -10.5667,-0.3088 -1.58608,-0.34612 -2.00157,-0.38683 -3.54229,-0.92458 -0.53125,-0.18541 -2.04395,-0.9256 -1.56762,-0.62608 3.0084,1.89173 6.12664,3.60292 9.18359,5.41514 0.40362,0.23927 -0.82521,-0.44798 -1.22339,-0.69618 -0.35159,-0.21916 -0.68258,-0.46973 -1.02386,-0.7046 -1.73267,-1.10419 -3.21503,-2.46604 -4.23176,-4.2799 -0.97223,-1.78706 -1.92263,-3.6619 -2.09914,-5.71994 -0.008,-0.33661 -0.0379,-0.67346 -0.023,-1.00982 0.095,-2.149218 0.9571,-4.186513 2.00728,-6.028962 1.97595,-2.973809 4.3118,-5.682271 6.93365,-8.109358 1.37875,-1.226971 1.58097,-1.456415 3.08165,-2.585071 2.48626,-1.869911 5.20007,-3.411355 8.03297,-4.691783 4.28643,-1.829159 8.6688,-3.518606 13.26519,-4.383235 3.47365,-0.631349 6.9659,-1.169654 10.49991,-1.306984 2.65347,-0.224395 5.30977,-0.330422 7.97329,-0.304651 2.29669,-0.09312 4.59755,-0.178719 6.88515,-0.407909 1.71009,-0.176495 3.42363,-0.243654 5.1428,-0.234632 1.14075,-0.01294 2.28363,0.02558 3.42272,-0.04266 0.9321,-0.03671 1.86772,-0.0359 2.79986,-0.01714 z" />
</svg>
