<?xml version="1.0" encoding="UTF-8" standalone="no"?>
<!-- Created with Inkscape (http://www.inkscape.org/) -->

<svg
   width="1000"
   height="1000"
   viewBox="0 0 264.58333 264.58333"
   version="1.1"
   id="svg1"
   xmlns="http://www.w3.org/2000/svg"
   xmlns:svg="http://www.w3.org/2000/svg">
  <defs
     id="defs1">
    <rect
       x="256.66667"
       y="116.66667"
       width="508.33333"
       height="661.66667"
       id="rect3" />
  </defs>
  <text
     xml:space="preserve"
     transform="scale(0.26458333)"
     id="text3"
     style="text-align:start;writing-mode:lr-tb;direction:ltr;white-space:pre;shape-inside:url(#rect3);display:inline;fill:#000000;stroke-width:19.5213" />
  <path
     id="rect1"
     style="fill:#000000;stroke-width:4.17237"
     d="M 136.5379 -13.181552 L 136.53782 87.577307 L 142.68866 87.577317 L 142.68889 -5.3271319 C 142.78928 -5.0605896 142.9109 -4.8065739 143.03575 -4.556018 C 143.24552 -4.1609584 143.48686 -3.7878832 143.71694 -3.4074941 C 143.92782 -3.027666 144.14729 -2.6544295 144.3766 -2.2883409 C 144.63441 -1.8806206 144.86187 -1.4505897 145.11166 -1.0368231 C 145.32679 -0.67033676 145.53933 -0.30147623 145.76003 0.06085317 C 145.94341 0.51045813 146.25462 0.77469295 146.68535 0.97673512 C 147.23389 1.1054066 147.60502 1.4725781 148.04577 1.7510271 C 148.42772 1.9195475 148.76039 2.1403239 149.03507 2.4380919 C 149.35725 2.7818895 149.76535 3.0368414 150.12335 3.3445847 C 150.38802 3.5905636 150.59559 3.8902871 150.78738 4.2000216 C 151.06545 4.6365775 151.62919 4.7904672 152.07667 5.0342494 C 152.50537 5.2634473 152.82877 5.6088378 153.12135 5.982451 C 153.32087 6.3316391 153.72123 6.4695405 154.03628 6.6944957 C 154.30605 6.8855134 154.45784 7.185553 154.70135 7.4019741 C 155.02922 7.5765794 155.33618 7.7822015 155.69659 7.9069497 C 156.09164 8.1047958 156.52025 8.2505259 156.91036 8.4553825 C 157.20161 8.6517673 157.41948 8.9175601 157.74377 9.0718327 C 158.24968 9.1980743 158.72576 9.3675284 159.19463 9.5619233 C 159.60909 9.7577931 159.99044 9.9713804 160.45423 10.085385 C 160.86997 10.2055 161.34275 10.166923 161.78262 10.213725 C 162.15588 10.279188 162.53812 10.33124 162.88005 10.459092 C 163.34153 10.573713 163.85477 10.503324 164.35362 10.486654 C 164.93128 10.452966 165.49366 10.476237 166.07456 10.4344 C 166.75161 10.398077 167.44193 10.254453 168.13063 10.142036 C 169.25724 9.939116 170.38845 9.6814526 171.52048 9.3789046 C 172.30872 9.1719875 173.09427 9.0089101 173.88224 8.7447539 C 174.63275 8.5515552 175.38072 8.3550598 176.1287 8.0804342 C 176.71354 7.9386506 177.2947 7.6868428 177.87646 7.5160195 C 178.50156 7.3920935 179.10189 7.0539977 179.6879 6.705767 C 182.07412 5.1135806 184.40019 3.2523629 186.67852 1.5535044 C 187.09206 0.88793504 187.69061 0.385407 188.28296 -0.12583378 C 188.92438 -0.58820773 189.42455 -1.04534 189.8251 -1.7161633 C 189.95903 -1.9812789 190.28268 -2.1136557 190.45525 -2.3349611 C 190.51696 -2.4141258 190.55207 -2.5059228 190.60034 -2.5914867 C 190.66687 -2.6752526 190.73332 -2.7594062 190.79982 -2.8431511 C 191.38195 -3.3588836 191.7509 -4.0099816 192.22979 -4.6056981 C 192.57045 -5.1828856 192.82794 -5.7871309 193.03376 -6.3919054 C 193.27806 -6.8771296 193.47435 -7.3588502 193.741 -7.8420776 C 193.89509 -8.3260718 194.137 -8.709411 194.49291 -9.1093684 C 194.58611 -9.5568779 194.70212 -10.026773 195.0377 -10.43496 C 195.28565 -11.038804 195.59539 -11.297668 195.677 -11.92589 C 195.92257 -12.194006 195.83601 -12.430245 195.92084 -12.716596 C 195.9819 -12.922682 196.09433 -13.124029 196.17557 -13.328557 C 196.45656 -13.982322 196.8414 -14.63035 197.04972 -15.293008 C 197.30714 -15.927296 197.25439 -16.517223 197.32824 -17.130697 C 197.48327 -17.692379 197.49296 -18.223388 197.55606 -18.772476 C 197.62674 -19.332418 197.54987 -19.850756 197.53345 -20.386775 C 197.47117 -21.027397 197.32814 -21.651949 197.34329 -22.316559 C 197.34791 -22.398358 197.35155 -22.47966 197.3537 -22.560627 C 197.47298 -22.447334 197.59631 -22.337538 197.72304 -22.230025 C 198.17295 -21.842698 198.53409 -21.369346 198.85872 -20.868436 C 199.17574 -20.394231 199.45205 -19.889192 199.74382 -19.3959 C 200.10675 -18.819796 200.66535 -18.42103 201.10635 -17.911955 C 201.48939 -17.408543 202.03667 -17.0726 202.49093 -16.639374 C 202.91291 -16.135294 203.28601 -15.604041 203.75547 -15.143315 C 204.34245 -14.465547 205.03438 -13.896024 205.68231 -13.279237 C 206.40921 -12.365701 207.38487 -11.702255 208.32603 -11.014831 C 209.37755 -10.201518 210.47635 -9.4435917 211.56767 -8.6776506 C 212.34281 -8.1090769 213.19934 -7.645569 213.94073 -7.0364923 C 215.56159 -6.0430872 217.34772 -5.285943 219.04117 -4.3943968 C 221.30586 -3.1262207 223.53404 -1.8095334 225.74848 -0.47354877 C 227.39323 0.48018308 228.96669 1.5276249 230.54577 2.5665075 C 232.04073 3.4562049 233.75671 4.0061259 235.37503 4.7070617 C 236.2902 5.0151626 237.12552 5.4511961 238.01342 5.8025273 C 238.46838 6.0659095 238.97832 6.2243748 239.53568 6.2991682 C 239.90022 6.3732032 240.23506 6.4901075 240.60005 6.5640103 C 241.0898 6.6171549 241.5133 6.7888808 241.94276 6.9582322 C 242.32914 7.1192288 242.6316 7.386245 242.90459 7.6813044 L 248.43625 3.4668688 C 248.14732 3.1127462 247.75589 2.8422435 247.35096 2.6208242 C 246.93203 2.4020917 246.49001 2.1993143 245.98788 2.1308229 C 245.60256 2.0296511 245.22023 2.0259835 244.87525 1.8243495 C 244.33914 1.7947037 243.80156 1.7435305 243.39869 1.4546102 C 242.49689 1.0961662 241.58225 0.75606992 240.6371 0.46883483 C 239.01561 -0.18783483 237.34599 -0.75629605 235.85428 -1.6155012 C 234.25303 -2.6540442 232.60339 -3.6293333 230.92998 -4.5723514 C 228.70664 -5.9174082 226.44399 -7.2015261 224.16659 -8.4738046 C 222.54211 -9.3662438 220.91278 -10.249868 219.38457 -11.271115 C 218.62559 -11.884803 217.71902 -12.311851 216.91928 -12.876275 C 215.83052 -13.645145 214.71123 -14.375388 213.67323 -15.204418 C 212.73953 -15.868571 211.82297 -16.552334 211.12688 -17.467832 C 210.4993 -18.105831 209.73278 -18.603097 209.21413 -19.349314 C 208.73545 -19.797555 208.39137 -20.354991 207.97179 -20.858478 C 207.53145 -21.296734 206.97901 -21.612758 206.58344 -22.091455 C 206.15027 -22.570554 205.65172 -22.995026 205.28785 -23.529286 C 204.9942 -24.03098 204.68653 -24.522281 204.37911 -25.013529 C 204.02019 -25.533583 203.66709 -26.058175 203.18635 -26.468238 C 202.75986 -26.837275 202.36182 -27.207962 202.05405 -27.690906 C 201.67195 -28.135232 201.22841 -28.513253 200.80253 -28.912651 C 200.53873 -29.368399 200.27128 -29.821261 200.00094 -30.272095 C 199.70687 -30.770574 199.39747 -31.257679 199.1233 -31.770896 C 198.86142 -32.296373 198.62625 -32.840498 198.47372 -33.431708 C 198.28773 -34.087936 198.09196 -34.727783 197.7267 -35.272835 C 197.48915 -35.771029 197.2679 -36.282535 197.21641 -36.880545 C 197.11291 -37.465248 196.83347 -37.930776 196.62499 -38.458229 C 196.35776 -39.19167 196.20726 -39.994646 195.85084 -40.672976 C 195.59343 -41.23468 195.34266 -41.803454 195.31575 -42.482981 C 195.18308 -42.96166 194.85876 -43.315345 194.64604 -43.745279 C 194.34083 -44.337494 194.03966 -44.93664 193.87797 -45.616136 C 193.72262 -46.246463 193.53078 -46.844501 193.16045 -47.340123 C 192.98386 -47.651453 192.84495 -47.908672 192.72388 -48.111043 C 192.63168 -48.289382 192.51626 -48.453077 192.44532 -48.641579 C 192.41712 -48.621149 192.38894 -48.600604 192.36099 -48.580422 C 191.93409 -48.903068 191.45019 -48.297406 189.60035 -46.699004 C 187.51749 -45.365464 186.81672 -45.099241 186.92152 -44.51522 C 186.89497 -44.494767 186.86833 -44.474439 186.8415 -44.453831 C 186.99599 -44.281472 187.09097 -44.044383 187.21153 -43.837985 C 187.4267 -43.417824 187.59468 -42.967841 187.70717 -42.487286 C 187.86825 -41.844808 188.07298 -41.240867 188.43267 -40.72152 C 188.68995 -40.208847 188.94075 -39.68671 189.03013 -39.078198 C 189.18038 -38.326105 189.41648 -37.625762 189.60263 -36.892473 C 189.73883 -36.283395 189.99431 -35.747048 190.13158 -35.138836 C 190.27702 -34.31145 190.33446 -33.449953 190.43092 -32.603388 C 190.52709 -31.673603 190.73655 -30.787484 190.81896 -29.851771 C 190.95727 -28.804542 191.15486 -27.780713 191.18965 -26.693373 C 191.26945 -25.78559 191.43599 -24.909338 191.46201 -23.981993 C 191.58412 -23.016606 191.55803 -22.002024 191.62265 -21.016542 C 191.70386 -20.157974 191.73211 -19.288459 191.70672 -18.397617 C 191.74723 -17.745446 191.81888 -17.104059 191.87327 -16.457125 C 191.87149 -15.936287 191.97019 -15.445294 191.87007 -14.899479 C 191.81819 -14.350056 191.71586 -13.800306 191.63734 -13.247143 C 191.59869 -12.686068 191.57063 -12.139124 191.2956 -11.560099 C 190.99154 -10.914495 190.72073 -10.26019 190.43912 -9.6105423 C 190.24476 -9.1044045 190.10064 -8.6003726 189.93318 -8.0965857 C 189.76735 -7.66045 189.42037 -7.238624 189.22754 -6.8040023 C 189.04163 -6.3951228 188.94497 -5.8791382 188.6351 -5.533149 C 188.34941 -5.0880321 188.18672 -4.6176485 187.94518 -4.158563 C 187.7149 -3.6578595 187.45268 -3.1662401 187.27913 -2.6551601 C 187.0452 -2.1017951 186.80818 -1.5429329 186.39523 -1.0514144 C 185.94635 -0.44282685 185.47961 0.13596134 184.96443 0.69910739 C 184.64616 1.0988178 184.23783 1.4318239 183.9877 1.8816373 C 183.63741 2.3099672 183.19056 2.6300368 182.77002 2.983949 C 182.27845 3.1216407 181.80138 3.3237187 181.29852 3.458509 C 180.56727 3.6710749 179.83784 4.0054385 179.10396 4.1364447 C 178.30168 4.2708194 177.47605 4.7308699 176.66771 4.8083216 C 175.55548 5.1473241 174.44498 5.3993695 173.34005 5.5871693 C 172.66967 5.7301648 172.00063 5.822924 171.34417 5.8812279 C 171.04789 5.9262081 170.72232 5.9957685 170.43596 5.9903851 C 170.42139 5.990124 169.92228 5.9161733 169.88313 5.9184927 C 169.81505 5.9225294 169.74389 5.9576411 169.67411 5.9771864 C 169.20266 5.9488014 168.73394 6.0636707 168.26196 6.0182431 C 167.88726 6.0249368 167.56448 5.7364105 167.15717 5.7651374 C 166.70721 5.650673 166.23122 5.7736348 165.79636 5.6172746 C 165.29685 5.6506911 165.00302 5.3603769 164.59294 5.2054332 C 164.13637 5.0288262 163.72389 4.7354509 163.18488 4.7288543 C 162.88315 4.5657975 162.62769 4.3717202 162.35733 4.1494333 C 161.9754 3.8872535 161.50957 3.7711713 161.11183 3.5366858 C 160.79268 3.3920678 160.47366 3.2692229 160.17193 3.0853161 C 159.8511 3.0377677 159.83528 2.497934 159.51836 2.4031901 C 159.2342 2.1919084 158.86989 2.0776879 158.65608 1.7956197 C 158.33802 1.3698255 157.94168 1.0147151 157.49224 0.72583668 C 157.10365 0.51673188 156.63893 0.35132083 156.34971 0.035158681 C 156.13039 -0.2985162 155.90305 -0.62977795 155.61166 -0.8996236 C 155.27522 -1.2159801 154.84726 -1.4381948 154.55397 -1.7955805 C 154.24215 -2.1045094 153.92305 -2.4141492 153.483 -2.5643351 C 152.99636 -2.8032339 152.66229 -3.2571233 152.09057 -3.3739731 C 151.70734 -3.5158487 151.48068 -3.7062172 151.31493 -4.0812221 C 151.10355 -4.4504999 150.88381 -4.8134102 150.6668 -5.1784993 C 150.42443 -5.5979468 150.16037 -6.0009667 149.9257 -6.426091 C 149.71377 -6.805414 149.49083 -7.176732 149.25929 -7.541357 C 149.03982 -7.9197593 148.82109 -8.2981328 148.61113 -8.6834646 C 148.42738 -9.0269419 148.24708 -9.3845135 148.19564 -9.8029962 C 148.14407 -10.292432 148.09979 -10.767383 147.79655 -11.119898 C 147.57169 -11.514259 147.3522 -11.91912 147.24103 -12.384549 C 147.13815 -12.881837 147.12384 -13.435527 146.84547 -13.835749 C 146.51667 -14.348378 146.20352 -14.873442 145.91783 -15.418011 L 142.68891 -13.010331 L 142.68874 -13.181542 L 136.5379 -13.181552 z "
     transform="matrix(0.74219135,0.67018803,-0.43839241,0.89878368,0,0)" />
</svg>
