<?xml version="1.0" encoding="UTF-8" standalone="no"?>
<!-- Created with Inkscape (http://www.inkscape.org/) -->

<svg
   width="1000"
   height="1000"
   viewBox="0 0 264.58333 264.58333"
   version="1.1"
   id="svg1"
   xmlns="http://www.w3.org/2000/svg"
   xmlns:svg="http://www.w3.org/2000/svg">
  <defs
     id="defs1">
    <rect
       x="256.66667"
       y="116.66667"
       width="508.33333"
       height="661.66667"
       id="rect3" />
  </defs>
  <text
     xml:space="preserve"
     transform="scale(0.26458333)"
     id="text3"
     style="text-align:start;writing-mode:lr-tb;direction:ltr;white-space:pre;shape-inside:url(#rect3);display:inline;fill:#000000;stroke-width:19.5213" />
  <path
     style="fill:#000000;stroke-width:5.16501"
     id="path10"
     d="m 162.54699,64.590464 c -2.2958,-0.153496 -4.54275,0.258265 -6.82213,0.372104 -1.63441,0.05514 -3.26986,0.0693 -4.90509,0.07292 0.40575,0.0013 -1.04819,-5.29e-4 -0.78614,-7.93e-4 5.98907,-0.0024 -0.0379,-0.05674 -1.93142,0.141102 -3.20537,0.239972 -6.42309,0.25038 -9.63568,0.282101 -2.43114,0.02257 -4.86236,0.01961 -7.29356,0.02127 0.68752,-1.09e-4 1.37505,-5.29e-4 2.06258,-2.65e-4 0.33112,1.17e-4 -0.66223,5.29e-4 -0.99335,7.94e-4 -1.4919,0.0011 -2.98381,2.65e-4 -4.47571,-0.0013 -2.38644,0.03784 -4.79021,-0.153109 -7.15657,0.21707 -0.75274,0.126269 -1.51261,0.186192 -2.27468,0.209423 -0.64272,0.105777 -1.24606,0.328133 -1.85269,0.549883 -0.59254,0.160906 -1.15975,0.350065 -1.73538,0.566738 -0.8351,0.29547 -1.61598,0.76182 -2.40912,1.165606 -1.09037,0.491865 -2.18459,0.979185 -3.24914,1.52483 -0.74093,0.312002 -1.4723,0.630055 -2.166,1.03727 -0.53202,0.378129 -1.06119,0.747744 -1.58595,1.135666 -0.54244,0.356169 -1.09919,0.684032 -1.6228,1.071544 -0.61914,0.253106 -1.12878,0.693687 -1.70521,1.02558 -0.47825,0.296156 -0.91757,0.639715 -1.32811,1.022901 -0.42611,0.307946 -0.904826,0.58834 -1.250745,0.988592 -0.410181,0.514096 -0.886444,0.962469 -1.314357,1.463333 -0.384045,0.452798 -0.711941,0.947576 -1.060974,1.428983 -0.292912,0.506801 -0.693642,0.945449 -0.919469,1.491234 -0.322136,0.46782 -0.599432,0.967269 -0.798611,1.500166 -0.314264,0.772213 -0.662548,1.527151 -1.042201,2.269615 -0.539097,0.883435 -0.91339,1.829345 -1.255983,2.800368 -0.234307,0.761196 -0.557067,1.488273 -0.822169,2.238341 -0.145767,0.619416 -0.334351,1.227232 -0.530455,1.83244 -0.247809,0.755185 -0.395319,1.535235 -0.638043,2.291488 -0.205644,0.610288 -0.302064,1.241806 -0.348781,1.8816 -0.03618,0.527008 -0.02988,1.055598 -0.02651,1.583454 -0.05657,0.749041 0.06769,1.467467 0.20751,2.198699 0.08636,0.758568 0.205121,1.495269 0.423167,2.227099 0.214257,0.57747 0.519996,1.10809 0.805265,1.65072 0.163274,0.46215 0.443296,0.8522 0.715412,1.25317 0.558408,0.66025 1.119478,1.32066 1.679715,1.98061 0.491434,0.53569 1.030941,1.02571 1.523547,1.55944 0.265835,0.32748 0.61594,0.56824 0.900772,0.87736 0.401722,0.44441 0.850886,0.84606 1.293055,1.25014 0.376061,0.36721 0.723519,0.76276 1.096278,1.13301 0.528277,0.54052 1.114127,1.0124 1.698367,1.48941 0.74593,0.51118 1.41381,1.10887 2.08756,1.70885 0.52258,0.50018 1.12821,0.90124 1.68414,1.36049 0.46527,0.38239 0.93048,0.76368 1.37968,1.16506 0.40784,0.42348 0.93148,0.69455 1.42117,1.00721 0.68811,0.39435 1.36701,0.79388 2.0325,1.22797 0.87592,0.48987 1.74021,1.00025 2.57367,1.5594 0.72089,0.52743 1.53045,0.90986 2.29375,1.368 1.06115,0.55116 2.0942,1.15421 3.13623,1.74057 1.03113,0.60085 2.03143,1.24279 3.08555,1.80376 1.60778,0.79199 3.21021,1.58848 4.89529,2.2025 1.42304,0.51661 2.86861,0.95894 4.28636,1.49011 0.70311,0.2223 1.3552,0.57543 2.01053,0.90821 1.22356,0.5941 2.44715,1.19594 3.71237,1.69752 0.62535,0.30525 1.27921,0.55083 1.89628,0.87222 0.48802,0.20323 0.93333,0.47131 1.37839,0.75333 0.70726,0.35398 1.42622,0.67104 2.12133,1.04867 0.45325,0.20866 0.88925,0.44268 1.30359,0.72068 0.81744,0.73057 1.7204,1.34994 2.63106,1.95676 1.26353,0.74408 2.44586,1.60964 3.64691,2.44785 0.66012,0.38384 1.0874,1.00454 1.60875,1.54021 0.89817,0.89986 1.66758,1.90498 2.24391,3.03753 0.28249,0.60225 0.59271,1.18577 0.74424,1.83694 0.16434,0.94133 0.3433,1.8756 0.44313,2.82737 0.0954,1.12821 0.10979,2.26141 0.11008,3.39305 -1.1e-4,0.81741 0.005,1.63487 2.7e-4,2.45228 2.2e-4,0.82527 0.002,1.65056 -0.005,2.47582 0.0531,0.72445 -0.12914,1.421 -0.31318,2.11473 -0.21586,0.99428 -0.49723,1.9653 -0.89811,2.90081 -0.29954,0.76035 -0.5666,1.53081 -0.91059,2.27252 -0.34845,0.78452 -0.71605,1.56033 -1.07543,2.3406 -0.4853,0.85613 -1.01208,1.68535 -1.53041,2.52033 -0.28953,0.4228 -0.59671,0.84282 -0.92069,1.24368 -0.39308,0.37089 -0.86789,0.64417 -1.23215,1.04725 -0.54111,0.53009 -1.18187,0.92422 -1.85013,1.27173 -0.76753,0.44325 -1.58506,0.78714 -2.38114,1.17552 -1.23383,0.51984 -2.55222,0.76539 -3.85802,1.03565 -1.80479,0.3285 -3.56792,0.84247 -5.34459,1.29219 -1.48612,0.34871 -2.97933,0.66658 -4.48366,0.92804 -1.64779,0.2623 -3.28593,0.52855 -4.90635,0.9285 -1.5863,0.36872 -3.1883,0.63749 -4.80393,0.84134 -1.67033,0.19603 -3.35065,0.29178 -5.03135,0.33284 -0.66515,-0.10427 -1.23842,0.16942 -1.86565,0.30725 -0.45034,0.10286 -0.9136,0.12046 -1.37354,0.13509 -0.0649,5.3e-4 -0.12976,0.001 -0.19464,0.002 -0.24657,0.002 -0.9863,0.001 -0.73972,0.001 2.78276,-2.4e-4 3.50042,5.3e-4 2.31033,-5.3e-4 -0.54041,-0.001 -1.08081,-0.003 -1.62122,-0.002 -0.82332,-2.6e-4 -1.64663,0.001 -2.46994,0.001 -2.05332,-0.002 -4.10663,7.9e-4 -6.15994,1.4e-4 -1.32394,7.9e-4 -2.64788,0.002 -3.971818,5.3e-4 -0.171995,-2.7e-4 -0.34399,-8e-4 -0.515988,-8e-4 -2.446737,-2.6e-4 3.539706,0.16657 1.053354,-0.0396 -0.235558,-0.0195 -0.470604,-0.0449 -0.705683,-0.0695 -0.218739,-0.0229 -0.437163,-0.0488 -0.655746,-0.0731 -0.878867,-0.13494 -1.77319,-0.13503 -2.640746,-0.33492 -0.564314,-0.16604 -1.144603,-0.2664 -1.728763,-0.32801 -0.50319,-0.006 -0.981329,-0.0622 -1.464548,-0.20128 -0.384099,-0.11882 -0.767747,-0.21802 -1.168393,-0.2547 -0.413263,0.027 -0.77121,-0.11451 -1.152112,-0.24855 -0.633044,-0.13102 -1.255546,-0.30937 -1.840129,-0.58691 -0.125315,-0.18971 -0.734992,-0.20494 -0.787535,-0.39866 0.0016,-0.0203 0.0033,-0.0406 0.005,-0.0609 0,0 -2.992652,-0.0147 -2.992652,-0.0147 v 0 c -0.0013,0.0398 -0.0026,0.0796 -0.0038,0.11947 0.05952,0.54463 0.418764,0.42224 0.824037,0.68308 0.573714,0.30192 1.195046,0.54955 1.839028,0.63745 0.398593,0.10253 0.738995,0.35386 1.159373,0.31626 0.400322,0.0177 0.785288,0.0551 1.166421,0.1929 0.492093,0.13513 0.946218,0.31169 1.468755,0.25653 0.583657,0.042 1.172294,0.10922 1.733523,0.2806 0.877898,0.2347 1.772658,0.25853 2.673768,0.36961 0.650568,0.074 1.329939,0.20597 1.984844,0.21622 1.55123,0.0243 3.103848,-0.005 4.65553,7e-5 1.32601,-0.001 2.65202,-2.7e-4 3.97803,5.3e-4 1.17782,-2.7e-4 5.46244,0.001 0.33101,1e-4 0.81601,2.7e-4 1.63202,0.002 2.44803,0.002 0.54107,0.001 1.08215,7.9e-4 1.62322,0.002 1.50275,0.003 3.00635,0.0265 4.50861,-0.0133 0.4626,-0.0276 0.92552,-0.0717 1.37419,-0.19447 0.60548,-0.16707 1.19156,-0.30093 1.82961,-0.24833 1.66487,-0.0558 3.32885,-0.16498 4.98256,-0.36962 1.63296,-0.21617 3.26048,-0.47925 4.86264,-0.86668 1.6094,-0.39791 3.243,-0.64313 4.87783,-0.91282 1.50733,-0.27438 3.00971,-0.58106 4.49723,-0.94851 1.761,-0.45979 3.51582,-0.95446 5.30764,-1.28299 1.3315,-0.27363 2.68724,-0.52221 3.92717,-1.10225 0.79592,-0.39681 1.62335,-0.7287 2.38815,-1.18587 0.67401,-0.37822 1.32203,-0.8033 1.86586,-1.35845 0.40478,-0.37076 0.87813,-0.66371 1.24256,-1.08082 0.31559,-0.41487 0.63571,-0.83142 0.90596,-1.27667 0.52474,-0.84048 1.03542,-1.69037 1.51623,-2.5569 0.3667,-0.77961 0.75439,-1.54923 1.09064,-2.34269 0.33301,-0.74861 0.61459,-1.51667 0.90607,-2.2821 0.38613,-0.95368 0.66973,-1.93637 0.90044,-2.9387 0.20079,-0.71638 0.37511,-1.44357 0.3238,-2.19348 -0.006,-0.82514 -0.004,-1.65031 -0.001,-2.47546 -0.002,-0.81858 0.008,-1.63713 -7.9e-4,-2.4557 -0.0226,-1.14074 -0.0466,-2.28202 -0.12187,-3.42076 -0.0998,-0.96183 -0.27438,-1.90778 -0.42206,-2.86137 -0.14368,-0.68236 -0.45398,-1.29177 -0.76559,-1.91175 -0.59127,-1.15271 -1.35345,-2.19188 -2.25131,-3.1281 -0.54076,-0.53712 -0.93332,-1.20485 -1.60786,-1.59706 -1.22376,-0.81873 -2.40534,-1.69863 -3.67581,-2.44581 -0.88879,-0.61594 -1.82864,-1.18811 -2.5862,-1.96708 -0.42787,-0.26962 -0.82558,-0.57789 -1.3096,-0.74995 -0.70744,-0.34671 -1.38972,-0.7335 -2.12052,-1.03555 -0.46878,-0.24015 -0.8572,-0.61719 -1.37618,-0.76779 -0.63344,-0.31919 -1.28358,-0.59096 -1.92489,-0.90176 -1.26992,-0.46246 -2.48335,-1.06612 -3.69504,-1.66079 -0.64356,-0.36537 -1.32127,-0.70883 -2.02096,-0.94851 -1.43814,-0.52499 -2.89572,-0.9787 -4.33982,-1.48691 -1.68109,-0.58724 -3.26071,-1.38988 -4.8632,-2.16235 -1.04613,-0.565 -2.04961,-1.18581 -3.06763,-1.79912 -1.03587,-0.5877 -2.06798,-1.18447 -3.12647,-1.72939 -0.74929,-0.48026 -1.56587,-0.84196 -2.29413,-1.3561 -0.82912,-0.5669 -1.68499,-1.09648 -2.57271,-1.56699 -0.66604,-0.41954 -1.30023,-0.88407 -2.01577,-1.21738 -0.45594,-0.34747 -1.01088,-0.55683 -1.4195,-0.96927 -0.44056,-0.40899 -0.89662,-0.80116 -1.37503,-1.1655 -0.51463,-0.51078 -1.19129,-0.84339 -1.70467,-1.36174 -0.67517,-0.60395 -1.31497,-1.23695 -2.08826,-1.71915 -0.57079,-0.4833 -1.17871,-0.92276 -1.67315,-1.4851 -0.41992,-0.31198 -0.72427,-0.77316 -1.10479,-1.13204 -0.45231,-0.37407 -0.86833,-0.79735 -1.280733,-1.21126 -0.2775,-0.33011 -0.605015,-0.58226 -0.905161,-0.8819 -0.485785,-0.54339 -1.036925,-1.024 -1.543751,-1.54866 -0.553815,-0.647 -1.077685,-1.31929 -1.658585,-1.94183 -0.246486,-0.40468 -0.566687,-0.76156 -0.713809,-1.22282 -0.262059,-0.53647 -0.591651,-1.03824 -0.804455,-1.60046 -0.230373,-0.71909 -0.358608,-1.442224 -0.430953,-2.194736 -0.139814,-0.71216 -0.260094,-1.412353 -0.199192,-2.142315 0.0021,-0.520359 -5.29e-4,-1.041186 0.02811,-1.560936 0.04707,-0.616635 0.140874,-1.225166 0.340079,-1.813406 0.233249,-0.757447 0.381347,-1.535592 0.634572,-2.287503 0.201842,-0.60252 0.38944,-1.209712 0.539268,-1.827133 0.257392,-0.749708 0.574916,-1.477225 0.804278,-2.236957 0.343614,-0.956826 0.72521,-1.88586 1.251754,-2.760792 0.390676,-0.750118 0.740807,-1.51814 1.063866,-2.299676 0.214498,-0.525505 0.516289,-0.999096 0.805291,-1.485739 0.248005,-0.511492 0.61218,-0.949412 0.909881,-1.431176 0.34013,-0.478248 0.67619,-0.961094 1.06176,-1.404308 0.42194,-0.497385 0.89315,-0.946777 1.31686,-1.442371 0.39519,-0.34817 0.8281,-0.649414 1.24479,-0.970362 0.4126,-0.358407 0.84844,-0.687033 1.31999,-0.965287 0.56935,-0.351531 1.1072,-0.752086 1.70742,-1.053036 0.52688,-0.379119 1.09833,-0.68625 1.62067,-1.0711 0.52317,-0.373578 1.03776,-0.75978 1.58077,-1.104349 0.69495,-0.390793 1.43634,-0.678434 2.1549,-1.021708 1.06828,-0.525359 2.14054,-1.041143 3.2274,-1.527299 0.80324,-0.398407 1.58885,-0.849746 2.44393,-1.130067 0.57046,-0.21445 1.15687,-0.360564 1.73022,-0.565052 0.59303,-0.21894 1.20521,-0.402929 1.83772,-0.458203 0.76011,-0.03658 1.51621,-0.118023 2.26702,-0.243988 1.1668,-0.172328 2.60254,-0.07056 -1.18762,-0.179358 -0.25018,-0.0072 0.50055,-1.8e-4 0.75082,-2.65e-4 1.80302,-0.0016 -0.22438,-5.29e-4 1.79859,-0.0013 3.05449,-0.0013 6.10897,0.0064 9.16345,0.004 2.39374,5.29e-4 4.7874,-0.02275 7.18104,-0.04189 3.25523,-0.0337 6.51615,-0.03731 9.76363,-0.28906 1.54321,-0.152561 0.9078,-0.06224 -1.70581,-0.107611 -0.12532,-0.0021 0.25069,5.29e-4 0.37603,7.94e-4 1.35352,5.29e-4 2.70708,0.005 4.0606,-0.0028 1.62831,-0.01289 3.25684,-0.03029 4.88421,-0.09059 1.18948,-0.06789 6.56273,-0.504584 0.99094,-0.350004 z" />
</svg>
