<?xml version="1.0" encoding="UTF-8" standalone="no"?>
<!-- Created with Inkscape (http://www.inkscape.org/) -->

<svg
   width="1000"
   height="1000"
   viewBox="0 0 264.58333 264.58333"
   version="1.1"
   id="svg1"
   xmlns="http://www.w3.org/2000/svg"
   xmlns:svg="http://www.w3.org/2000/svg">
  <defs
     id="defs1">
    <rect
       x="256.66667"
       y="116.66667"
       width="508.33333"
       height="661.66667"
       id="rect3" />
  </defs>
  <text
     xml:space="preserve"
     transform="scale(0.26458333)"
     id="text3"
     style="text-align:start;writing-mode:lr-tb;direction:ltr;white-space:pre;shape-inside:url(#rect3);display:inline;fill:#000000;stroke-width:19.5213" />
  <path
     style="fill:#000000;stroke-width:5.16501"
     id="path7"
     d="m 109.08846,50.090763 c 0.84769,0.139655 1.69698,0.250081 2.53225,0.45281 1.2551,0.286242 2.50862,0.584139 3.74237,0.952201 1.56468,0.593966 3.20685,0.946103 4.79352,1.465665 0.58347,0.177321 1.12187,0.45108 1.6628,0.724926 0.42213,0.213387 0.82696,0.460653 1.2338,0.702326 0.87614,0.435131 1.60735,1.093457 2.37607,1.686322 0.58334,0.392099 1.1131,0.861896 1.69934,1.248839 0.3348,0.221456 0.64799,0.479171 0.94926,0.744791 0.42446,0.454978 0.8311,0.926166 1.25178,1.384811 0.39078,0.454893 0.65785,0.993558 1.01373,1.47253 0.22637,0.374912 0.48753,0.731219 0.7027,1.112825 0.1192,0.34839 0.26586,0.683135 0.39792,1.027239 0.2759,0.529222 0.44656,1.096767 0.64669,1.655292 0.2307,0.50247 0.36559,1.027586 0.43197,1.574022 0.14477,0.454144 0.31076,0.899189 0.40835,1.367107 0.0592,0.399092 0.29592,0.731925 0.39889,1.120632 0.0435,0.442722 0.15747,0.84927 0.31824,1.26228 0.16902,0.49313 0.40797,0.954069 0.54923,1.457343 0.10058,0.377846 0.12405,0.766863 0.13247,1.155737 0.003,0.338595 -10e-4,0.677122 0.001,1.01572 8e-5,0.450037 -0.002,0.900078 -8e-4,1.350116 -0.0544,0.466968 0.063,0.88888 0.20102,1.328935 0.16103,0.471914 0.20294,0.966367 0.22853,1.460514 0.0194,0.511175 0.0127,1.02271 0.0148,1.534104 -0.001,0.386879 -0.007,0.773766 -0.006,1.160643 1.7e-4,0.385635 -2.5e-4,0.771284 0.002,1.156919 2.6e-4,0.436798 -0.001,0.873604 5.3e-4,1.310399 -0.002,0.483434 5.3e-4,0.966854 0.003,1.45028 -1.4e-4,0.663336 0.004,1.326708 0.001,1.990042 -0.001,0.62244 0.001,1.244896 -0.002,1.867331 -1.5e-4,0.678064 0.006,1.356109 0.003,2.03417 -0.002,0.707858 0.002,1.415708 2.6e-4,2.123556 -2.6e-4,0.600258 -0.005,1.200483 -0.003,1.800744 -7e-5,0.521295 -0.005,1.042611 2.3e-4,1.563886 0.005,0.572791 -0.003,1.145577 -0.002,1.718373 8e-4,0.504944 0.002,1.009912 -7.9e-4,1.514853 -0.002,0.389877 -0.003,0.779794 -7.9e-4,1.169674 0.002,0.42596 0.002,0.85199 -0.002,1.27794 -6e-5,0.37531 0.003,0.75062 0.002,1.12593 0.004,0.40914 -0.002,0.8183 -2.5e-4,1.22743 -5.3e-4,0.31414 -0.004,0.62829 -0.002,0.94242 -0.002,0.34246 0.003,0.68485 8e-4,1.02732 0.003,0.37668 -0.002,0.75338 1.8e-4,1.13005 -0.0473,0.34496 -0.21431,0.68692 -0.31868,1.03213 -0.0124,0.38885 -0.18252,0.69928 -0.31895,1.04893 -0.10282,0.33776 -0.1935,0.62486 -0.42986,0.89146 -0.24268,0.19403 -0.13225,0.55856 -0.29648,0.78445 -0.1076,0.33751 -0.34499,0.53428 -0.55059,0.80379 -0.21147,0.24912 -0.50091,0.43077 -0.79128,0.59887 -0.3038,0.26158 -0.64227,0.4301 -0.92505,0.71045 -0.4401,0.20917 -0.90599,0.3743 -1.38212,0.50763 -0.59586,0.0784 -1.13,0.35577 -1.70019,0.52273 -0.47936,0.13578 -0.98595,0.13268 -1.48058,0.14067 -0.52757,0.18668 -1.0638,0.30935 -1.61705,0.38434 -0.41144,0.0554 -0.82765,0.0561 -1.24206,0.0582 -1.03908,-0.003 -2.45757,-2.6e-4 2.45389,-0.001 0.0552,-1e-5 -0.11047,-0.002 -0.16568,-2.1e-4 -3.23278,0.0856 -2.15248,-0.21318 -3.41756,0.16502 -0.48507,0.10318 -0.88492,0.38913 -1.34102,0.56989 -0.3841,0.0118 -0.60107,0.35824 -0.92921,0.48123 -0.13949,0.13084 -0.37739,0.031 -0.52615,0.10129 -0.10364,0.049 -0.18038,0.1436 -0.28159,0.19741 -0.33122,0.21805 -0.75037,0.12474 -1.07422,0.33421 -0.13761,0.12218 -0.36457,0.21538 -0.55151,0.22464 -0.0654,0.003 -0.25764,-0.0393 -0.19218,-0.0405 3.25994,-0.0584 3.70158,-0.11232 2.72441,0.001 0.0718,0.0242 0.28973,-0.19006 0.45019,-0.20882 0.32533,-0.006 0.53067,-0.27656 0.82898,-0.36914 0.38726,-0.0747 0.67662,-0.35508 1.05165,-0.48258 0.12001,-0.21564 0.40564,-0.24447 0.56744,-0.4054 0.49454,-0.49186 -0.25266,0.13294 0.23475,-0.26117 0.20541,-0.21078 0.40191,-0.25639 0.67917,-0.29008 1.17198,1.8e-4 3.56443,-8e-4 -1.52945,5.3e-4 0.65834,-0.0452 1.29499,0.051 1.9385,0.17514 0.62022,0.13257 1.25065,0.20329 1.88257,0.24796 0.40531,-0.0327 0.73476,0.0938 1.09752,0.24755 0.54551,0.20306 1.08372,0.41364 1.65269,0.54246 0.33996,0.0823 0.68635,0.10892 1.03472,0.11755 1.79764,0.14734 6.58955,-0.1408 0.60845,1.5e-4 -0.11441,0.003 0.2122,0.086 0.31644,0.13323 0.31744,0.15165 0.65849,0.23157 1.00542,0.27641 0.33514,-0.0163 0.5973,0.1657 0.89216,0.29404 0.34079,0.14052 0.50909,0.48356 0.68843,0.78097 0.20104,0.34358 0.47189,0.62581 0.73535,0.9192 0.1799,0.34443 0.29116,0.72994 0.4217,1.09889 0.19212,0.59521 0.2141,1.22397 0.23487,1.84375 0.0172,0.74349 0.0185,1.4875 0.0143,2.23119 0.002,0.69271 -0.001,1.38545 -0.007,2.07813 -4e-5,0.60665 0.005,1.21324 -5.3e-4,1.81988 0.0125,0.88686 0.012,1.77401 0.006,2.66095 -0.006,0.74489 0.001,1.48978 -0.002,2.23467 -0.003,0.74929 8e-4,1.49853 0.002,2.24782 -5.2e-4,0.84035 -0.001,1.68065 0.001,2.521 0.0676,0.94502 -0.0432,1.8637 -0.19972,2.79182 -0.11889,0.70539 -0.20257,1.41501 -0.23316,2.12961 -0.0148,0.63669 -0.0193,1.27365 -0.0187,1.91051 -0.004,0.49666 0.002,0.99331 0.001,1.48997 -0.002,0.54219 0.001,1.08431 0.005,1.62648 0.003,0.82584 0.007,1.65171 0.002,2.47754 -2.3e-4,0.73319 -0.001,1.46637 -0.002,2.19955 0.0143,0.60872 0.0186,1.1954 -0.12637,1.78785 -0.14055,0.47206 -0.25102,0.95157 -0.29075,1.44264 -0.0918,0.42855 0.0851,0.93917 -0.0864,1.34503 -0.20432,0.3921 -0.27015,0.82647 -0.38285,1.24811 -0.13105,0.55996 -0.35076,1.07301 -0.59211,1.59135 -0.17445,0.44602 -0.21203,0.91471 -0.4042,1.35312 -0.10685,0.40291 -0.26861,0.75878 -0.50229,1.10143 -0.26639,0.28754 -0.40788,0.65667 -0.62503,0.97887 -0.28491,0.30309 -0.56601,0.61764 -0.845,0.93503 -0.42456,0.34869 -0.89081,0.61635 -1.36215,0.8897 -0.45577,0.24804 -0.91176,0.50831 -1.3962,0.69766 -0.43955,0.17627 -0.91506,0.20914 -1.38333,0.22455 -0.55382,-0.0146 -0.92759,-0.0262 -1.44113,0.17821 -0.38328,0.17568 -0.80484,0.22376 -1.22121,0.24818 -0.37596,0.0226 -0.75276,0.0184 -1.12919,0.0174 5.13535,0.003 2.83669,5.3e-4 1.67174,-0.002 -1.90349,-0.35483 -2.65896,-0.0823 -4.04362,0.3666 -0.37087,0.0713 -0.74914,0.0714 -1.12528,0.0764 -0.46202,0.0503 -0.88664,0.2727 -1.35688,0.34834 -0.50883,0.004 -0.95329,0.19213 -1.43124,0.33359 -0.49098,0.11724 -0.99349,0.1744 -1.49724,0.1937 -0.67844,0.11358 -1.35607,0.2643 -2.04799,0.346 -0.28551,0.0251 -0.50326,0.0463 -0.78656,0.0637 -0.11651,0.007 -0.46649,0.0178 -0.34976,0.0172 4.27046,-0.022 3.16315,0.10139 2.04526,-0.14895 -0.66052,-0.12847 -1.25993,-0.44572 -1.86984,-0.71594 -0.48677,-0.3111 -1.02259,-0.53091 -1.51307,-0.83396 -0.35539,-0.18382 -0.6671,-0.4317 -0.99417,-0.6582 -0.37028,-0.20354 -0.71661,-0.44348 -1.10302,-0.61581 -0.46045,-0.20447 -0.88208,-0.48139 -1.33503,-0.69962 -0.35687,-0.10783 -0.64839,-0.33583 -0.95478,-0.53845 -0.2325,-0.29443 -0.54304,-0.46382 -0.87031,-0.6317 -0.42651,-0.28532 -0.92353,-0.46768 -1.32544,-0.78751 -0.24328,-0.28336 -0.59944,-0.39804 -0.89759,-0.60857 -0.42984,-0.22323 -0.84082,-0.45379 -1.24233,-0.72929 -0.35257,-0.20535 -0.69804,-0.417 -1.0235,-0.66347 -0.27978,-0.16248 -0.51421,-0.38178 -0.79717,-0.53987 -0.25199,-0.18437 -0.508122,-0.37692 -0.752605,-0.57567 -0.34498,-0.28416 -0.738892,-0.40456 -1.174327,-0.45814 -0.47629,0.0192 -0.904139,-0.11654 -1.348594,-0.26247 -0.568161,-0.18674 -1.172099,-0.16179 -1.758781,-0.23512 -0.466593,-0.0984 -0.934757,-0.32751 -1.218057,-0.71975 -0.166283,-0.44336 -0.360519,-0.88085 -0.507526,-1.33279 -0.0706,-0.41101 -0.205293,-0.78591 -0.429401,-1.13743 -0.114755,-0.25583 -0.219726,-0.50701 -0.374195,-0.7446 -0.109659,-0.26057 -0.268808,-0.48935 -0.420121,-0.72692 0,0 -2.979904,0.16681 -2.979904,0.16681 v 0 c 0.153353,0.24925 0.338672,0.45298 0.417796,0.73925 0.1706,0.23647 0.300746,0.46324 0.372747,0.74913 0.247547,0.31409 0.379389,0.64588 0.436351,1.04279 0.140626,0.4801 0.368258,0.9262 0.510035,1.40432 0.249634,0.48648 0.734253,0.80412 1.249386,0.96824 0.571683,0.14743 1.16704,0.0694 1.744316,0.20156 0.454911,0.13999 0.873479,0.37007 1.362297,0.32724 0.412393,0.0201 0.785432,0.0542 1.145434,0.27883 0.252109,0.21559 0.549908,0.38866 0.755216,0.64529 0.300027,0.13148 0.525129,0.32621 0.792015,0.48322 0.329745,0.25433 0.660646,0.50643 1.038487,0.68615 0.409577,0.2463 0.747323,0.60016 1.229351,0.71002 0.29701,0.23283 0.62118,0.35542 0.89923,0.58349 0.39247,0.38021 0.8954,0.54319 1.33597,0.8636 0.29834,0.14733 0.65888,0.26836 0.8558,0.54731 0.234,0.28026 0.64781,0.49695 0.97316,0.64367 0.47742,0.16798 0.869,0.48215 1.33047,0.68008 0.36415,0.20081 0.75944,0.34606 1.09747,0.60394 0.36895,0.14957 0.62125,0.50046 0.99974,0.64584 0.50724,0.29913 1.03829,0.53689 1.52648,0.87216 0.62049,0.26535 1.21735,0.60643 1.87271,0.77155 1.62487,0.37515 3.31762,0.2748 4.96734,0.0952 0.69224,-0.0939 1.3681,-0.27845 2.06455,-0.32455 0.50739,-0.0445 1.01388,-0.11445 1.50223,-0.26469 0.46813,-0.1524 0.94006,-0.23388 1.42698,-0.30361 0.45149,-0.10964 0.88182,-0.32206 1.35585,-0.29608 0.38476,-0.0146 0.77425,-0.0339 1.14045,-0.16483 0.18366,-0.0647 0.36399,-0.13831 0.54719,-0.20381 0.0569,-0.0203 0.23346,-0.0528 0.17303,-0.0544 -0.52615,-0.0137 -3.82995,-0.0128 -2.58408,-0.013 1.4068,10e-4 2.81358,0.012 4.22039,0.003 0.37709,-0.002 0.75474,-0.005 1.13015,-0.0451 0.42401,-0.0544 0.8357,-0.1516 1.23101,-0.31853 0.46423,-0.13495 0.95116,-0.0527 1.42881,-0.098 0.47945,-0.0412 0.95484,-0.11862 1.39351,-0.3284 0.47442,-0.22642 0.94791,-0.45636 1.39782,-0.72917 0.49545,-0.2744 0.96359,-0.60176 1.37838,-0.98858 0.28414,-0.32529 0.59671,-0.62854 0.84708,-0.97938 0.20325,-0.33121 0.38368,-0.67459 0.62948,-0.97785 0.22287,-0.3642 0.37253,-0.74847 0.4999,-1.1554 0.17264,-0.43967 0.21991,-0.90536 0.40148,-1.34219 0.24061,-0.53315 0.45037,-1.06927 0.58827,-1.63986 0.11715,-0.41842 0.20776,-0.84222 0.39492,-1.2379 0.11157,-0.45869 0.0225,-0.94027 0.0823,-1.40812 0.0468,-0.47523 0.15327,-0.94008 0.28302,-1.39945 0.14367,-0.61462 0.14629,-1.2281 0.12476,-1.8576 -0.001,-0.73319 -0.002,-1.46636 -0.002,-2.19955 -0.005,-0.82584 -8e-4,-1.65171 0.002,-2.47755 0.004,-0.54226 0.006,-1.08447 0.004,-1.62675 -0.002,-0.49666 0.002,-0.99333 -0.004,-1.48998 -7.9e-4,-0.63231 -0.008,-1.26487 0.0161,-1.8969 0.0329,-0.7017 0.10205,-1.40079 0.22025,-2.09369 0.15799,-0.94482 0.25631,-1.88021 0.19967,-2.84106 0.002,-0.84035 0.002,-1.68065 0.001,-2.521 0.002,-0.74929 0.005,-1.49853 0.002,-2.24782 -0.003,-0.74489 0.004,-1.48978 -0.002,-2.23467 -0.006,-0.88694 -0.006,-1.77409 0.006,-2.66094 -0.005,-0.60656 -5.3e-4,-1.21307 1.3e-4,-1.81964 -0.004,-0.69264 -0.005,-1.38534 -0.001,-2.07798 -0.002,-0.7475 0.004,-1.49497 -0.0141,-2.24237 -0.0254,-0.64946 -0.0372,-1.3064 -0.22669,-1.93405 -0.13978,-0.39661 -0.2681,-0.79625 -0.4186,-1.18459 -0.2028,-0.33291 -0.56948,-0.54264 -0.73923,-0.90612 -0.23447,-0.32128 -0.3706,-0.70993 -0.69691,-0.95992 -0.31026,-0.11853 -0.59208,-0.32779 -0.90358,-0.3798 -0.33905,-0.0231 -0.67163,-0.0599 -0.99479,-0.17388 -1.17424,-0.5824 -0.70474,-0.1758 -3.41224,-0.26251 -1.35574,-0.0434 3.80138,2.1e-4 2.47006,0.002 -0.34574,-2e-5 -0.69316,0.007 -1.03401,-0.0615 -0.57088,-0.1006 -1.12278,-0.25889 -1.64616,-0.51374 -0.39201,-0.0711 -0.68094,-0.40408 -1.11013,-0.3185 -0.63349,-0.0254 -1.26794,-0.0811 -1.89005,-0.20688 -0.64475,-0.12161 -1.26993,-0.29637 -1.93318,-0.23208 -1.37638,-6e-5 -2.94961,-0.10058 -4.37509,0.0589 -0.27382,0.0826 -0.48456,0.25254 -0.69051,0.44805 -0.22726,0.22942 -0.51111,0.40652 -0.79247,0.56091 -0.35205,0.1641 -0.66617,0.40216 -1.05223,0.49161 -0.26961,0.15155 -0.53352,0.28057 -0.83149,0.36565 -0.29818,0.21208 -0.5521,0.46769 -0.45935,0.86705 0.87232,0.98526 2.84315,0.38997 3.96046,-0.15077 0.37313,-0.0799 0.74928,-0.1461 1.07756,-0.35594 0.25595,-0.13456 0.56666,-0.12425 0.80977,-0.30293 0.28688,-0.2046 0.58161,-0.34645 0.91974,-0.45218 0.43767,-0.19751 0.85302,-0.44214 1.33215,-0.53256 1.14542,-0.29872 0.34942,-0.0672 -2.4829,-0.0841 -0.0546,-2.6e-4 0.10913,8e-4 0.1637,8e-4 1.14839,2.6e-4 2.29798,0.0102 3.44678,-0.003 0.41454,-0.0101 0.82979,-0.0279 1.23903,-0.10024 0.54329,-0.0935 1.06336,-0.27887 1.60966,-0.34792 0.50543,-0.0199 1.01605,-0.048 1.49558,-0.22512 0.55711,-0.20094 1.11433,-0.38741 1.69287,-0.51864 0.48596,-0.16347 1.01154,-0.30105 1.40939,-0.63683 0.28838,-0.24047 0.62098,-0.4293 0.92119,-0.65532 0.29615,-0.19609 0.58859,-0.41346 0.80003,-0.7027 0.22075,-0.27179 0.43287,-0.53229 0.55567,-0.86776 0.0918,-0.25004 0.0894,-0.52446 0.29384,-0.72043 0.21091,-0.29914 0.31089,-0.63011 0.42821,-0.97304 0.15599,-0.352 0.27948,-0.69365 0.32168,-1.07955 0.10989,-0.37158 0.31079,-0.73036 0.32045,-1.11882 0.002,-0.37668 -0.003,-0.75337 1.8e-4,-1.13005 -0.002,-0.34247 0.003,-0.68486 8e-4,-1.02732 0.002,-0.31413 -8e-4,-0.62829 -0.002,-0.94242 0.002,-0.40914 -0.004,-0.81829 -2.5e-4,-1.22743 -0.001,-0.37532 0.002,-0.75062 0.002,-1.12594 -0.004,-0.42595 -0.004,-0.85197 -0.002,-1.27793 0.002,-0.389885 0.002,-0.779802 -7.9e-4,-1.169678 -0.003,-0.504942 -0.002,-1.00991 -7.9e-4,-1.514854 7.9e-4,-0.572796 -0.008,-1.145582 -0.002,-1.718373 0.005,-0.521274 2.7e-4,-1.042591 2.3e-4,-1.563886 0.002,-0.60026 -0.003,-1.200486 -0.003,-1.800744 -0.002,-0.707847 0.002,-1.415698 2.6e-4,-2.123556 -0.003,-0.678061 0.003,-1.356106 0.003,-2.03417 -0.003,-0.622434 -2.6e-4,-1.244891 -0.002,-1.867331 -0.003,-0.663334 0.001,-1.326705 0.001,-1.990042 0.003,-0.483428 0.006,-0.966848 0.003,-1.450282 0.002,-0.43679 1.3e-4,-0.873591 5.2e-4,-1.310381 0.002,-0.385508 0.002,-0.771024 0.002,-1.156533 0.002,-0.386892 -0.002,-0.773814 -0.001,-1.160714 0.003,-0.516046 -0.002,-1.032213 -0.0201,-1.547982 -0.0206,-0.518829 -0.0568,-1.039487 -0.22493,-1.535345 -0.12397,-0.415584 -0.2544,-0.797642 -0.19811,-1.240404 0.002,-0.44973 1.8e-4,-0.899464 0.003,-1.349189 0.005,-0.34135 0.008,-0.682829 8e-4,-1.02416 -0.0114,-0.412504 -0.0299,-0.825437 -0.14005,-1.225997 -0.13204,-0.519145 -0.37769,-0.987264 -0.54596,-1.492343 -0.1625,-0.401521 -0.28494,-0.783966 -0.31944,-1.219737 -0.0866,-0.397222 -0.29329,-0.727805 -0.3964,-1.108646 -0.0865,-0.461844 -0.23447,-0.911046 -0.41256,-1.345473 -0.0708,-0.567878 -0.18571,-1.1225 -0.43782,-1.641927 -0.20752,-0.553191 -0.34982,-1.130975 -0.64046,-1.65235 -0.11991,-0.365098 -0.29118,-0.694512 -0.39544,-1.064881 -0.1894,-0.415621 -0.51087,-0.75854 -0.71108,-1.171403 -0.38671,-0.467683 -0.64858,-1.01532 -1.02016,-1.496907 -0.42694,-0.455671 -0.84167,-0.922171 -1.24677,-1.397386 -0.28777,-0.318066 -0.64133,-0.537149 -0.95446,-0.828194 -0.63989,-0.279437 -1.115,-0.867502 -1.72606,-1.202814 -0.77753,-0.576535 -1.48725,-1.280827 -2.35326,-1.719948 -0.40911,-0.249788 -0.82088,-0.490048 -1.23411,-0.727927 -0.56049,-0.266832 -1.08773,-0.590375 -1.69351,-0.75861 -1.57854,-0.569042 -3.26877,-0.817748 -4.82429,-1.470412 -1.21495,-0.395808 -2.46258,-0.687279 -3.70648,-0.976159 -0.83556,-0.201639 -1.67072,-0.357589 -2.52446,-0.475533 z" />
</svg>
