<?xml version="1.0" encoding="UTF-8" standalone="no"?>
<!-- Created with Inkscape (http://www.inkscape.org/) -->

<svg
   width="1000"
   height="1000"
   viewBox="0 0 264.58333 264.58333"
   version="1.1"
   id="svg1"
   xmlns="http://www.w3.org/2000/svg"
   xmlns:svg="http://www.w3.org/2000/svg">
  <defs
     id="defs1" />
  <g
     id="layer1"
     transform="matrix(0,-0.55151515,0.68337059,0,60.471757,247.06478)">
    <path
       id="path8"
       style="fill:#000000;stroke:none;stroke-width:5.16501"
       d="m 132.29166,39.687499 a 99.21875,90.3993 0 0 0 -99.218744,90.399131 99.21875,90.3993 0 0 0 99.218744,90.39965 99.21875,90.3993 0 0 0 99.21875,-90.39965 99.21875,90.3993 0 0 0 -99.21875,-90.399131 z m 0,9.394776 a 85.989578,80.74826 0 0 1 85.98959,80.748045 85.989578,80.74826 0 0 1 -85.98959,80.74856 85.989578,80.74826 0 0 1 -85.989577,-80.74856 85.989578,80.74826 0 0 1 85.989577,-80.748045 z" />
  </g>
  <rect
     style="fill:#ffffff;stroke:none;stroke-width:2.78953"
     id="rect1"
     width="10.944127"
     height="42.446907"
     x="-228.82457"
     y="127.9707"
     transform="rotate(-90)" />
  <path
     style="fill:#000000;stroke-width:5.16501"
     id="path1"
     d="m 149.73628,33.813996 c -0.92226,1.234749 -1.91653,2.405652 -2.91394,3.579812 -0.77493,0.843285 -1.46928,1.751081 -2.27178,2.567141 -0.62545,0.633603 -1.28762,1.229312 -1.92637,1.849086 -0.58679,0.690104 -1.04348,1.535419 -1.44158,2.358948 -0.69298,1.413674 -1.51599,2.757829 -2.36495,4.082039 -1.14152,1.528188 -2.2549,3.071662 -3.3072,4.663361 -0.98383,1.27423 -1.70611,2.717715 -2.57979,4.060446 -1.2705,2.07281 -2.79849,3.975788 -4.28989,5.892935 -1.98159,2.6074 -3.77975,5.339228 -5.59289,8.064058 -2.14588,3.315195 -4.35247,6.595211 -6.43018,9.953845 -2.41444,4.115567 -4.81037,8.243249 -7.16989,12.390646 -1.81125,3.252375 -3.30503,6.663952 -5.00787,9.971177 -1.4116,2.77706 -2.91504,5.50387 -4.38586,8.24958 -1.270824,2.57214 -2.701958,5.05809 -4.075273,7.5754 -0.97528,1.62004 -1.642946,3.38488 -2.45746,5.08315 -0.544021,1.18898 -1.06077,2.39406 -1.638861,3.56786 -0.53367,1.03416 -0.928185,2.12769 -1.397323,3.19264 -0.472236,1.15129 -0.928039,2.30806 -1.290762,3.499 -0.138274,0.74694 -0.512889,1.40711 -0.63365,2.15549 -0.222012,1.64671 -0.313944,3.3022 -0.626637,4.93622 -0.247674,1.30606 -0.538776,2.60201 -0.769366,3.91131 -0.03726,0.89654 -0.220382,1.75793 -0.390467,2.63281 -0.178958,0.74941 -0.219786,1.51417 -0.249499,2.28023 -0.06132,0.87765 0.0834,1.7696 -0.07289,2.63779 -0.166325,0.50524 -0.31554,1.01207 -0.380775,1.54078 -0.05453,0.47699 -0.0579,0.95858 -0.05652,1.43822 0.01016,0.51933 -0.0024,1.03874 2.64e-4,1.55806 0.0016,0.54267 0.0064,1.08533 0.0087,1.62803 -0.0019,0.44599 -0.01445,0.89204 -0.01085,1.33802 0.007,0.43473 -0.0013,0.86945 0.0029,1.30421 -0.0019,0.44278 0.0043,0.88551 -0.0031,1.32826 0.03285,0.48174 0.01553,0.9215 -0.128183,1.37892 -0.244888,0.6273 -0.269984,1.30844 -0.302646,1.97301 -0.039,0.70286 -0.03487,1.40714 -0.04424,2.11078 -0.0081,0.4099 -0.0059,0.81989 -0.008,1.22983 0.0089,0.40602 -7.94e-4,0.81214 0.003,1.21816 -5.29e-4,0.38564 7.93e-4,0.77127 -0.0016,1.15691 0.0013,0.37208 0.0035,0.74429 -0.0026,1.11635 0.0019,0.39594 0.0072,0.79189 0.0053,1.18784 -0.03849,0.48033 0.0259,0.90977 0.218062,1.35082 0.168137,0.30933 0.21165,0.65544 0.24529,0.9999 -7.94e-4,0.43346 0.234926,0.81032 0.368892,1.20965 0.107368,0.31863 0.119727,0.65529 0.125418,0.98831 0.0063,0.33691 0.0069,0.67414 5.29e-4,1.01109 0.03697,0.34604 0.28852,0.60271 0.394605,0.92386 0.05121,0.22746 0.08166,0.45051 0.142886,0.67643 0,0 5.960422,-0.19395 5.960422,-0.19395 v 0 c -0.09889,-0.20852 -0.06919,-0.43111 -0.133498,-0.65174 -0.04591,-0.1752 -0.182872,-0.76156 -0.389427,-0.75221 -0.0038,-0.34407 0.0013,-0.6881 -0.0044,-1.03218 -0.0173,-0.38653 -0.01672,-0.78247 -0.132432,-1.15501 -0.112519,-0.36437 -0.324696,-0.6962 -0.366337,-1.07156 -0.02695,-0.41979 -0.09494,-0.83836 -0.249346,-1.23156 -0.209386,-0.35124 -0.264178,-0.65703 -0.217635,-1.07185 -0.0019,-0.39595 0.0035,-0.7919 0.0053,-1.18783 -0.006,-0.37207 -0.0039,-0.74427 -0.0026,-1.11635 -0.0024,-0.38567 -0.0011,-0.77132 -0.0016,-1.15699 0.0036,-0.40639 -0.0061,-0.81286 0.0016,-1.21927 -0.0037,-0.40941 -0.0046,-0.81885 -0.01344,-1.22821 -0.0083,-0.69257 -0.0036,-1.38534 0.02482,-2.07746 0.04062,-0.62281 0.09639,-1.24436 0.323289,-1.83219 0.149571,-0.51306 0.161618,-1.02131 0.145764,-1.5535 -0.0074,-0.44275 -0.0013,-0.88548 -0.0031,-1.32826 0.0044,-0.43476 -0.004,-0.86947 0.003,-1.3042 0.0036,-0.44601 -0.009,-0.8921 -0.01093,-1.33812 0.0021,-0.54304 0.007,-1.08607 0.0067,-1.62909 7.94e-4,-0.51799 -0.0154,-1.03605 -0.0039,-1.55407 0.0057,-0.45349 0.0024,-0.90837 0.05725,-1.35943 0.08082,-0.52172 0.245298,-1.021 0.352399,-1.53726 0.103872,-0.89499 0.02469,-1.8017 0.07492,-2.70133 0.02492,-0.73211 0.08974,-1.46307 0.242398,-2.18085 0.194122,-0.88105 0.312312,-1.75894 0.37216,-2.65979 0.189863,-1.31235 0.500166,-2.59969 0.72929,-3.90464 0.25528,-1.63943 0.332039,-3.30307 0.69674,-4.92399 0.164103,-0.71102 0.479118,-1.37876 0.609621,-2.09985 0.328938,-1.1705 0.789628,-2.29822 1.245942,-3.42364 0.469913,-1.06359 0.920094,-2.13593 1.438688,-3.17671 0.532275,-1.18703 1.044551,-2.38277 1.572043,-3.57186 0.776175,-1.69979 1.489255,-3.42494 2.409105,-5.05636 1.30802,-2.54157 2.71226,-5.03195 4.00897,-7.57913 1.44169,-2.75993 2.98539,-5.46626 4.36532,-8.25895 1.67016,-3.30028 3.0897,-6.723304 4.90074,-9.95325 2.32088,-4.163055 4.68233,-8.309761 7.18767,-12.364265 2.10825,-3.345495 4.30759,-6.635404 6.4908,-9.931866 1.83073,-2.708198 3.63636,-5.432933 5.637,-8.020899 1.51831,-1.949775 3.09119,-3.869954 4.43795,-5.943748 0.81905,-1.36411 1.58717,-2.760734 2.53473,-4.044072 1.07449,-1.579208 2.16844,-3.140265 3.30311,-4.676806 0.85873,-1.3506 1.72959,-2.697131 2.43286,-4.13775 0.40474,-0.767416 0.8545,-1.542198 1.47303,-2.15836 0.63992,-0.616445 1.26977,-1.243544 1.89568,-1.874165 0.78097,-0.835536 1.48234,-1.742035 2.23089,-2.606395 1.00121,-1.185823 1.96553,-2.40039 2.97205,-3.580437 z" />
</svg>
