<?xml version="1.0" encoding="UTF-8" standalone="no"?>
<!-- Created with Inkscape (http://www.inkscape.org/) -->

<svg
   width="1000"
   height="1000"
   viewBox="0 0 264.58333 264.58333"
   version="1.1"
   id="svg1"
   xmlns="http://www.w3.org/2000/svg"
   xmlns:svg="http://www.w3.org/2000/svg">
  <defs
     id="defs1" />
  <path
     style="fill:#000000;stroke-width:0.188005"
     id="path1"
     d="m 93.283001,99.855451 c 0.48583,-0.800189 1.038475,-1.548108 1.486343,-2.372883 0.420094,-0.760298 0.826338,-1.527914 1.234356,-2.294663 0.234802,-0.422921 0.575498,-0.750566 0.898546,-1.098909 0.06349,-0.07295 0.133254,-0.140909 0.190454,-0.218875 0.269911,-0.367883 0.500512,-0.760318 0.792438,-1.113857 0.232545,-0.281621 0.367168,-0.399449 0.62761,-0.653642 0.758795,-0.710541 1.375622,-1.554141 1.949262,-2.415742 0.8917,-1.489258 2.00204,-2.812913 3.15921,-4.099959 1.33187,-1.335926 2.72658,-2.616059 4.17946,-3.820888 1.82933,-1.527114 3.98463,-2.611101 6.15295,-3.573244 2.82199,-1.088304 5.70066,-2.018593 8.60185,-2.870948 3.71717,-1.051916 7.49736,-1.833304 11.31992,-2.380918 3.83295,-0.348892 7.67757,-0.551326 11.52641,-0.544226 0.55375,0.005 1.10749,0.01069 1.66125,0.01514 1.13278,0.0091 2.65503,0.0079 3.78078,0.05725 1.94575,0.08522 3.88422,0.28214 5.8194,0.491692 2.41402,0.282929 4.83723,0.602582 7.19412,1.213893 1.26645,0.328485 2.00408,0.607189 3.23515,1.029234 1.20873,0.490053 1.68123,0.64781 2.82924,1.243749 0.41796,0.21697 1.64175,0.923263 1.22917,0.696261 -1.71097,-0.941386 -3.37047,-1.980464 -5.12444,-2.839452 -0.41228,-0.201907 0.72872,0.558663 1.07707,0.857299 0.3512,0.301088 0.68012,0.627125 1.02018,0.940687 2.15759,2.065076 3.92835,4.470433 5.41751,7.046897 1.373,2.439421 1.98848,5.162527 2.49186,7.886009 0.32424,2.234739 0.55654,4.496027 0.58808,6.756108 0.0215,1.539128 -0.0304,2.107368 -0.10611,3.625536 -0.11893,3.26903 -0.54294,6.51506 -0.9149,9.76196 -0.20976,2.36083 -0.10552,1.44186 -0.41318,3.84828 -0.0935,0.73135 -0.17125,1.465 -0.28595,2.19333 -0.35886,2.27888 -0.89762,4.52708 -1.42204,6.77177 -0.96058,3.68399 -1.9812,7.38055 -3.48921,10.88625 -0.31928,0.74226 -0.67547,1.46816 -1.0132,2.20225 -1.48169,2.83351 -3.2447,5.57963 -5.54803,7.82801 -1.0692,1.04369 -2.26826,1.91022 -3.44964,2.81647 -2.99227,2.05705 -6.46078,3.19019 -10.00026,3.8831 -0.78741,0.15416 -1.5819,0.26979 -2.37286,0.4047 -4.39962,0.54099 -8.87593,0.61243 -13.27898,0.0484 -0.98399,-0.12604 -1.95893,-0.31449 -2.9384,-0.47173 -3.98199,-0.80288 -7.93645,-1.91182 -11.67396,-3.52005 -2.3163,-0.99668 -2.8455,-1.37415 -5.01181,-2.60368 1.43865,0.78916 2.80841,1.7189 4.31597,2.3675 0.73827,0.31763 -1.33004,-0.90188 -1.98636,-1.36523 -2.31978,-1.63773 -4.48737,-3.38456 -6.61007,-5.26703 -0.47958,-0.43863 -0.96416,-0.87188 -1.43876,-1.31588 -1.09248,-1.02208 -1.78565,-1.68636 -2.78715,-2.78568 -1.26065,-1.38375 -2.39259,-2.86574 -3.52257,-4.35501 -2.02687,-2.844 -3.792902,-5.8619 -5.342614,-8.98765 -1.005409,-2.10979 -1.618774,-4.36253 -2.191459,-6.61752 -0.06634,-0.26205 -0.07969,-0.54349 -0.198993,-0.78614 -0.346864,-0.70546 -0.999444,-1.26473 -1.53452,-1.80656 0,0 -5.686601,-2.7066 -5.686601,-2.7066 v 0 c -0.202517,0.0718 -0.4425,0.0781 -0.607553,0.21545 -0.468004,0.38949 -0.104446,0.86813 0.03431,1.29099 0.726738,2.36406 1.473561,4.73462 2.566131,6.96112 0.234187,0.48791 0.452267,0.98384 0.702564,1.46372 1.406734,2.697 3.144824,5.21718 4.806294,7.75889 0.368685,0.51903 0.72432,1.04754 1.106052,1.5571 1.950053,2.60301 4.233039,4.94329 6.668029,7.09479 0.93105,0.82686 2.22214,1.99453 3.19186,2.76981 0.56979,0.45553 1.16023,0.88486 1.74776,1.31737 4.01168,2.95317 8.1453,5.63009 12.61874,7.90558 2.04728,1.09099 2.78134,1.5482 4.97485,2.43568 3.70224,1.49792 7.62472,2.44182 11.52941,3.22754 1.00728,0.15886 2.01008,0.34916 3.02183,0.4766 4.50288,0.56716 9.05775,0.52288 13.5548,-0.0693 0.84975,-0.11601 1.70541,-0.19495 2.54925,-0.348 2.81007,-0.50969 5.89139,-1.55073 8.36812,-2.98142 0.62743,-0.36244 1.2041,-0.80607 1.80614,-1.2091 0.53675,-0.48061 1.09664,-0.93667 1.61026,-1.44182 2.23463,-2.19772 4.2293,-4.90713 5.85369,-7.57924 0.43138,-0.70961 0.81133,-1.44912 1.21698,-2.17368 0.36873,-0.73467 0.76744,-1.45511 1.10619,-2.20402 1.57904,-3.49102 2.56338,-7.29457 3.51565,-10.99187 0.99021,-4.19191 1.94433,-8.39343 2.58678,-12.65528 0.42931,-3.28003 0.7622,-6.57077 0.82472,-9.88122 0.0391,-1.86417 0.0315,-3.72517 0.0368,-5.589529 0.001,-0.591656 0.0359,-1.183546 0.0166,-1.77489 -0.0295,-0.904536 -0.20123,-2.178149 -0.30824,-3.074721 -0.11088,-0.693882 -0.34018,-2.193481 -0.49158,-2.887312 -0.39696,-1.819336 -1.06707,-3.575555 -1.88754,-5.243813 -0.23694,-0.400685 -0.46144,-0.808961 -0.71083,-1.202059 -1.38337,-2.180538 -3.03177,-4.182379 -4.76068,-6.095747 -0.41443,-0.40661 -1.59052,-1.604142 -2.08892,-1.918206 -3.7558,-2.366696 -7.25306,-4.733675 -11.41292,-6.144038 -0.51113,-0.154211 -1.01842,-0.321707 -1.53339,-0.462633 -2.85533,-0.781379 -5.80107,-1.199022 -8.74341,-1.477577 -3.77056,-0.329033 -7.55472,-0.594315 -11.342,-0.522944 -3.69243,0.161517 -7.3914,0.450958 -11.04808,0.990477 -3.78369,0.619322 -7.53796,1.440961 -11.20702,2.559489 -1.30137,0.386917 -2.20985,0.663313 -3.5129,1.02626 -1.8249,0.508304 -3.6691,0.984369 -5.41611,1.729276 -2.22433,1.039532 -4.33043,2.29047 -6.39427,3.61777 -1.47945,1.208342 -2.85027,2.54066 -4.153537,3.936045 -0.553225,0.569663 -0.827667,0.828994 -1.326999,1.429478 -0.712377,0.856687 -1.356971,1.771566 -2.046153,2.646327 -0.601214,0.800584 -1.180031,1.615189 -1.800224,2.401475 -0.557423,0.654885 -1.061968,1.354505 -1.672697,1.961539 -0.352705,0.402582 -0.575081,0.873228 -0.831199,1.340534 -0.37098,0.785553 -0.714851,1.583569 -1.093698,2.365544 -0.399646,0.814817 -0.810986,1.653846 -1.43895,2.319953 z" />
</svg>
