<?xml version="1.0" encoding="UTF-8" standalone="no"?>
<!-- Created with Inkscape (http://www.inkscape.org/) -->

<svg
   width="1000"
   height="1000"
   viewBox="60 0 164 264.58333"
   version="1.1"
   id="svg1"
   xmlns="http://www.w3.org/2000/svg"
   xmlns:svg="http://www.w3.org/2000/svg">
  <defs
     id="defs1" />
  <path
     style="fill:#000000;stroke-width:0.264583"
     id="path1"
     d="m 139.15559,65.791267 c -0.77665,-0.05172 -1.53949,0.119139 -2.31024,0.182017 -0.40295,0.03287 -0.80872,0.03268 -1.21024,0.07997 -0.91625,0.107891 -1.82012,0.303016 -2.73006,0.455207 -3.33572,0.356024 -6.6363,1.102522 -9.77838,2.28845 -0.81352,0.307054 -1.60629,0.666509 -2.40944,0.999765 -3.49957,1.501175 -7.02347,3.040745 -10.30048,4.996395 -1.48551,0.886523 -3.52512,2.300888 -4.95928,3.274319 -2.88071,2.101665 -1.79101,1.211284 -4.53247,3.605654 -1.924702,1.681036 -2.574575,2.227964 -4.361219,4.061516 -0.86279,0.885444 -3.20471,3.465152 -4.050022,4.391014 -3.359454,3.680341 -6.308254,7.69766 -9.000209,11.883326 -2.428671,3.90221 -3.512296,8.37348 -4.866701,12.71176 -0.971013,4.49463 -2.47184,8.89539 -3.052834,13.47019 -0.123306,0.97093 -0.176911,1.94944 -0.265366,2.92417 -0.520044,4.73059 -0.413496,9.48609 0.123018,14.20615 0.306821,2.20232 0.682633,4.42364 1.435126,6.52561 0.442098,1.23493 0.746342,1.76975 1.32478,2.94761 1.945716,3.5243 4.839379,6.40925 7.53442,9.363 2.539891,2.71355 5.396629,5.14593 8.505251,7.189 0.661426,0.4347 1.351632,0.82395 2.027446,1.23593 5.49465,3.23327 10.92909,6.68711 16.96053,8.83121 0.79787,0.28363 1.59817,0.56842 2.41982,0.7732 1.9016,0.47392 3.923,0.67241 5.85838,0.92067 4.16388,0.3536 8.40541,0.45924 12.546,-0.22655 1.90638,-0.31575 4.71012,-1.06782 6.56971,-1.53835 3.45035,-0.88702 6.76336,-2.19242 10.03942,-3.5731 1.10941,-0.46756 2.23353,-0.90457 3.31553,-1.43247 2.25907,-1.10218 4.0245,-2.25479 6.15785,-3.56409 3.463,-2.23013 6.75687,-4.77084 9.48802,-7.87201 1.78531,-2.02718 1.99478,-2.48379 3.52225,-4.72239 0.55766,-1.01768 2.63653,-4.77264 3.11367,-5.80211 0.5362,-1.15689 0.97324,-2.35721 1.45575,-3.53751 1.14649,-2.80447 1.84789,-4.40942 2.771,-7.29961 0.40452,-1.26653 0.73247,-2.55624 1.09871,-3.83435 1.38614,-5.49431 2.80999,-11.07942 2.96135,-16.77912 0.0254,-0.9571 -0.0377,-1.91452 -0.0566,-2.87178 -0.25478,-2.63578 -0.62073,-5.27186 -1.37491,-7.8176 -0.6942,-2.34327 -1.64171,-4.62495 -2.56324,-6.88496 -1.8579,-3.99742 -3.88505,-7.924406 -6.16103,-11.700298 -1.69315,-2.622103 -3.43125,-5.269979 -5.53344,-7.591168 -0.38674,-0.42703 -0.80432,-0.825074 -1.20649,-1.23761 -0.44996,-0.389869 -0.88535,-0.797224 -1.34988,-1.169609 -0.72844,-0.583946 -2.02611,-1.504286 -2.8452,-1.983986 -5.42636,-3.177993 -10.82262,-6.469364 -16.41068,-9.377386 -2.50916,-1.282253 -5.2676,-1.915081 -7.99677,-2.53232 -1.11941,-0.216233 -2.24818,-0.37117 -3.38316,-0.475416 -0.3342,-0.0307 -0.66804,-0.088 -1.00358,-0.08085 -0.82329,0.01754 -1.49984,0.208971 -2.2995,0.384617 -1.33343,0.513435 -0.63781,0.322609 -2.09028,0.559745 0,0 11.68057,8.161832 11.68057,8.161832 v 0 c 1.46625,-0.310589 0.66391,-0.209471 2.41523,-0.229055 0.40214,-0.0149 0.80406,-0.05067 1.20644,-0.04472 1.76582,0.02612 3.52658,0.353359 5.25272,0.689759 2.59146,0.590483 5.15385,1.323967 7.49239,2.624518 4.39812,2.350852 11.50744,6.610318 -8.16905,-4.827736 -0.50006,-0.290681 1.01151,0.562042 1.5044,0.864717 1.44534,0.887579 1.52566,1.002292 2.86248,2.023819 0.41785,0.377973 0.8528,0.737857 1.25354,1.133917 2.27523,2.248659 4.11018,4.907084 5.94867,7.507565 2.36347,3.763254 4.51023,7.653515 6.45897,11.648085 0.87593,1.73992 1.37868,2.6565 2.1226,4.47238 1.33591,3.2609 2.24,6.68053 2.75307,10.16517 0.12973,0.96998 0.30401,1.93503 0.38919,2.90993 0.49643,5.68174 -0.45955,11.57584 -1.68296,17.10416 -0.35374,1.25842 -0.66768,2.5287 -1.0612,3.77525 -1.79773,5.69472 -4.48803,11.06314 -7.74519,16.05779 -1.45263,2.08369 -1.76562,2.65725 -3.43524,4.56136 -2.63157,3.00115 -5.70294,5.56916 -8.96888,7.85048 -0.94988,0.60739 -1.87612,1.25345 -2.84964,1.82217 -5.10602,2.9829 -10.74123,4.91837 -16.42294,6.46778 -1.10668,0.25681 -2.20535,0.55103 -3.32006,0.77042 -5.14002,1.01163 -10.4321,1.21081 -15.63002,0.5719 -1.02492,-0.17254 -2.05862,-0.29929 -3.07478,-0.51762 -2.63093,-0.56531 -5.16515,-1.48138 -7.62407,-2.5618 -0.77732,-0.34154 -3.021363,-1.53809 -2.307642,-1.07824 2.624732,1.69114 5.369952,3.18751 8.054912,4.78126 -0.68528,-0.383 -1.38719,-0.73765 -2.05584,-1.14899 -1.1865,-0.7299 -2.64157,-1.81457 -3.75032,-2.65653 -1.741506,-1.32246 -3.426465,-2.7158 -4.915884,-4.32432 -2.670476,-2.78732 -5.342043,-5.64648 -7.39045,-8.93379 -0.638429,-1.2058 -0.842719,-1.52431 -1.366597,-2.77902 -0.864105,-2.06955 -1.415161,-4.25379 -1.81633,-6.45572 -0.803912,-4.71276 -1.337138,-9.48013 -0.857104,-14.2639 0.108148,-0.93837 0.194021,-1.87959 0.324448,-2.81513 0.627605,-4.50171 1.741781,-8.92204 3.180728,-13.22983 1.26909,-4.25212 2.712921,-8.48225 4.850701,-12.38747 0.361067,-0.62742 0.707015,-1.26379 1.083199,-1.88227 2.163207,-3.55647 4.76621,-6.83473 7.335259,-10.100043 1.95817,-2.204516 3.91649,-4.390509 6.08711,-6.392093 1.78753,-1.648327 2.60805,-2.270762 4.52218,-3.768833 0.72338,-0.566145 1.45365,-1.123423 2.18048,-1.685134 0.78649,-0.546901 1.55534,-1.120092 2.35948,-1.6407 4.01851,-2.601629 8.38801,-4.652843 12.86354,-6.327997 1.88914,-0.630298 2.87442,-0.992894 4.75715,-1.498973 2.43188,-0.653693 4.92253,-1.040564 7.38618,-1.549003 1.86206,-0.286456 3.80329,-0.450485 5.51115,-1.312021 z" />
</svg>
