<?xml version="1.0" encoding="UTF-8" standalone="no"?>
<!-- Created with Inkscape (http://www.inkscape.org/) -->

<svg
   width="1000"
   height="1000"
   viewBox="0 0 264.58333 264.58333"
   version="1.1"
   id="svg1"
   xmlns="http://www.w3.org/2000/svg"
   xmlns:svg="http://www.w3.org/2000/svg">
  <defs
     id="defs1">
    <rect
       x="256.66667"
       y="116.66667"
       width="508.33333"
       height="661.66667"
       id="rect3" />
  </defs>
  <text
     xml:space="preserve"
     transform="scale(0.26458333)"
     id="text3"
     style="text-align:start;writing-mode:lr-tb;direction:ltr;white-space:pre;shape-inside:url(#rect3);display:inline;fill:#000000;stroke-width:19.5213" />
  <path
     style="fill:#000000;stroke-width:5.16501"
     id="path9"
     d="m 93.323091,84.983152 c 0.01699,0.889826 0.0057,1.779746 0.0019,2.669606 -0.0056,0.551559 -0.0021,1.103149 -0.0051,1.654723 0.05441,0.660805 -0.04687,1.292233 -0.194852,1.933461 -0.114036,0.514345 -0.198808,1.03523 -0.233276,1.561111 -0.01876,0.48229 -0.01749,0.965001 -0.01437,1.447546 -0.01929,0.608766 -0.209134,1.203552 -0.315364,1.803421 -0.298458,0.608981 -0.398582,1.262642 -0.477258,1.928196 -0.02394,0.881753 -0.207143,1.743736 -0.348409,2.611324 -0.242091,0.86812 -0.424212,1.73882 -0.527963,2.63383 -0.107095,1.0375 -0.377338,2.03177 -0.648197,3.03375 -0.157316,0.73891 -0.270732,1.48582 -0.314225,2.24007 -0.186325,0.69838 -0.300855,1.40764 -0.370448,2.12623 -0.07448,1.09009 -0.06313,2.18434 -0.07101,3.27649 -0.0092,0.75173 -0.01172,1.50347 -0.0093,2.25524 0.13842,0.76185 0.293553,1.51327 0.36744,2.2858 0.168815,0.96769 0.34966,1.93105 0.442796,2.9095 0.01389,0.83381 0.322432,1.60784 0.598533,2.38105 0.430249,0.93374 0.719542,1.917 1.033621,2.89263 0.421447,1.25261 1.017725,2.42434 1.617324,3.59687 0.531215,1.017 1.164257,1.97427 1.774656,2.94394 0.524859,0.77849 1.012978,1.57979 1.559816,2.34284 0.363403,0.44593 0.72685,0.88585 1.142704,1.28401 0.465145,0.40382 0.976275,0.74307 1.505627,1.0555 1.425994,0.80822 3.123884,0.99495 4.706064,1.34231 1.6824,0.3961 3.38253,0.66379 5.10615,0.77581 2.19049,0.097 4.38591,0.0609 6.57746,0.0597 1.19346,-0.005 2.38693,-0.007 3.5804,-0.008 0.92012,0.0322 1.84182,-0.11224 2.72787,-0.35507 1.39573,-0.22429 2.71061,-0.74811 4.02757,-1.23677 1.63071,-0.62575 3.15311,-1.47201 4.67203,-2.32544 1.09707,-0.5408 2.06278,-1.24581 2.97507,-2.04562 0.36905,-0.3607 0.85414,-0.63743 1.12481,-1.08416 0.6382,-0.84359 1.16063,-1.76571 1.75623,-2.64016 0.63275,-1.08316 1.28848,-2.15159 1.95227,-3.21629 0.82942,-1.0922 1.59868,-2.22562 2.37213,-3.3573 0.40573,-0.69216 0.70049,-1.42848 1.09442,-2.12807 0.40916,-0.90242 0.9706,-1.72287 1.39892,-2.61357 0.33062,-0.87885 0.76434,-1.70227 1.07184,-2.59135 0.37474,-1.76946 0.99008,-3.47148 1.47883,-5.21021 0.26199,-0.99715 0.40604,-2.01472 0.74142,-2.99129 0.21867,-0.5922 0.22045,-1.21699 0.23601,-1.83933 0.0122,-0.79726 0.0133,-1.5946 0.011,-2.39193 0.002,-0.64072 0.004,-1.2814 -0.003,-1.9221 0.0601,-0.92656 0.37753,-1.80029 0.62436,-2.687948 0.16168,-0.618945 0.22068,-1.256286 0.26062,-1.892609 0.0185,-0.494155 0.007,-0.988732 0.003,-1.483045 0.0564,-0.493734 -0.10096,-1.039527 0.0542,-1.516947 0.17444,-0.471992 0.27856,-0.964266 0.33672,-1.462966 0.0557,-0.635497 0.0426,-1.275521 0.0504,-1.913106 0.002,-0.439158 0.005,-0.878274 0.003,-1.317432 0.005,-0.6232 -0.0123,-1.246307 -0.021,-1.869419 -0.0615,-1.219599 0.0184,-2.416982 0.20593,-3.620201 0.10654,-0.340765 0.19673,-0.688221 0.36968,-1.003131 0.0297,-0.05401 0.0518,-0.116879 0.0996,-0.15572 0.0197,-0.01601 0.10028,0.01312 0.0749,0.01402 -0.96261,0.03361 -1.92557,0.05616 -2.88836,0.08424 0.17057,0.664295 0.11381,1.407091 0.16534,2.092336 0.16519,2.02974 0.45813,4.045415 0.63627,6.074603 0.12853,1.516615 0.14876,3.03916 0.15642,4.560271 0.003,0.965319 0,1.93059 -0.005,2.895888 -0.003,0.684779 -0.008,1.369546 -0.008,2.054336 0.0266,0.55293 -0.0229,1.08589 -0.12094,1.62906 -0.11773,0.64596 -0.22267,1.29293 -0.29568,1.94545 0.0287,0.5136 -0.11211,0.98514 -0.22595,1.47888 -0.1319,0.66548 -0.19421,1.34242 -0.22586,2.01936 -0.14547,0.61664 -0.28752,1.22938 -0.37753,1.85692 -0.21554,0.69416 -0.27079,1.43284 -0.49068,2.12245 -0.24183,0.58483 -0.3522,1.19305 -0.42185,1.81802 -0.0962,0.65829 0.0459,1.34474 -0.10455,1.99285 -0.16116,0.46184 -0.28423,0.92644 -0.33607,1.4131 -0.0433,0.55166 -0.0471,1.10506 -0.0525,1.65804 0.0232,0.50109 0.006,0.97773 -0.12064,1.46304 -0.11425,1.12421 -0.27379,2.23652 -0.47426,3.34851 -0.18539,0.71485 -0.23199,1.38711 -0.0713,2.10372 0.12082,0.43192 0.17866,0.87484 0.2095,1.321 0.0249,0.4561 0.0193,0.91288 0.0202,1.36941 0.006,0.60192 0.004,1.20396 4e-5,1.80591 -0.002,0.58932 0.005,1.17855 2.7e-4,1.76787 -0.004,0.45515 -0.002,0.91027 -0.003,1.36542 -0.002,0.39738 -0.002,0.79479 -2e-4,1.19218 -0.0166,0.40946 0.20619,0.77385 0.31916,1.15859 0.0991,0.40417 0.11222,0.82171 0.12074,1.23571 0.0196,0.52525 0.21533,1.02944 0.32495,1.54271 0.087,0.47692 0.10381,0.96182 0.11613,1.44518 -0.0377,0.58287 0.0447,1.13143 0.20534,1.68887 0.16984,0.50512 0.19966,1.03735 0.22571,1.5651 0.0213,0.59421 0.0173,1.18894 0.0172,1.78342 -0.008,0.49328 -0.002,0.98659 -0.004,1.4799 1.6e-4,0.45933 5.3e-4,0.91865 -0.006,1.37794 0.002,0.32613 -0.001,0.65227 0.001,0.97839 0.004,0.40079 -2.6e-4,0.80159 0.002,1.20239 -0.0152,0.37986 -0.0251,0.72951 0.12557,1.08285 0.17447,0.32635 0.24128,0.6851 0.28514,1.04809 0.0324,0.33095 0.0297,0.66391 0.0324,0.99603 -2.6e-4,0.36877 -0.001,0.73753 -0.003,1.10629 0.001,0.26032 0.001,0.13197 2.6e-4,0.38503 0,0 2.98379,2.7e-4 2.98379,2.7e-4 v 0 c -5.3e-4,-0.25291 -7.9e-4,-0.12466 10e-4,-0.38475 -5.3e-4,-0.36906 0.001,-0.7381 0.002,-1.10715 0.002,-0.34471 -5.3e-4,-0.68958 -0.0309,-1.03326 -0.0511,-0.38754 -0.10406,-0.78372 -0.28863,-1.13425 -0.14306,-0.31418 -0.14375,-0.6091 -0.12555,-0.95915 0.002,-0.4008 -0.002,-0.8016 0.002,-1.20239 0.002,-0.32611 -10e-4,-0.65224 7.9e-4,-0.97836 -0.006,-0.45922 -0.006,-0.91846 -0.005,-1.37771 -8e-4,-0.4933 0.007,-0.98658 0.001,-1.47988 0.001,-0.59929 0.001,-1.19869 -0.0174,-1.79775 -0.0249,-0.54942 -0.0491,-1.10873 -0.2243,-1.63474 -0.15525,-0.53597 -0.25693,-1.0479 -0.19902,-1.61223 -0.011,-0.50143 -0.0436,-1.00318 -0.12169,-1.49902 -0.10028,-0.49719 -0.29441,-0.98454 -0.31944,-1.48901 -0.0121,-0.43956 -0.0246,-0.88118 -0.1205,-1.31235 -0.10253,-0.36098 -0.30422,-0.70323 -0.31997,-1.07477 0.002,-0.39738 0.002,-0.79479 -2.1e-4,-1.19218 -0.001,-0.45513 0.001,-0.91026 -0.003,-1.36539 -0.005,-0.58925 0.002,-1.17839 0.001,-1.76764 -0.003,-0.60203 -0.003,-1.20415 0.004,-1.80614 7.9e-4,-0.46281 7e-5,-0.92617 -0.0208,-1.38852 -0.0274,-0.46209 -0.0851,-0.92285 -0.21402,-1.36885 -0.15806,-0.67679 -0.12433,-1.30368 0.046,-1.98518 0.19156,-1.1065 0.33668,-2.21589 0.49705,-3.32618 0.12596,-0.51059 0.15395,-1.01018 0.12652,-1.53567 -5.3e-4,-0.54191 0.003,-1.08487 0.0506,-1.62505 0.0599,-0.4765 0.19629,-0.92995 0.33446,-1.38889 0.11472,-0.66492 0.0147,-1.34877 0.1025,-2.01909 0.0646,-0.60759 0.19684,-1.19278 0.41711,-1.76453 0.19796,-0.71281 0.28604,-1.45499 0.49555,-2.1668 0.0871,-0.6371 0.2507,-1.25509 0.3781,-1.88449 0.0305,-0.65841 0.0789,-1.31863 0.2226,-1.96359 0.12454,-0.50446 0.25798,-0.99316 0.23672,-1.51857 0.0576,-0.645 0.15835,-1.28455 0.27805,-1.92085 0.10734,-0.56094 0.1719,-1.11114 0.13053,-1.68342 1e-5,-0.68462 -0.003,-1.369239 -0.003,-2.053862 -0.001,-0.966583 0.004,-1.933196 -0.007,-2.899735 -0.0257,-1.529337 -0.0745,-3.059245 -0.1844,-4.585025 -0.2108,-2.021285 -0.49478,-4.03583 -0.63453,-6.063068 -0.0274,-0.742381 0.0564,-1.519062 -0.10797,-2.245799 -3.2041,-0.209783 -3.0031,-0.97954 -3.59146,1.186119 -0.17892,1.217843 -0.23947,2.43282 -0.1934,3.664614 -0.009,0.623293 -0.026,1.246624 -0.019,1.869999 -10e-4,0.438607 0.007,0.877133 0.006,1.315738 0.003,0.626137 0.006,1.254152 -0.0547,1.877999 -0.0623,0.486183 -0.17095,0.961885 -0.33983,1.423054 -0.11327,0.52116 -0.0171,1.063763 -0.0444,1.593935 -10e-4,0.488873 2.3e-4,0.977926 -0.0127,1.466646 -0.0254,0.615786 -0.0859,1.231466 -0.24195,1.829578 -0.24243,0.915157 -0.56426,1.814537 -0.62828,2.766677 -0.006,0.64086 -0.003,1.28167 0.003,1.92252 8e-4,0.7942 0.009,1.58854 -0.009,2.38262 -0.0201,0.59405 -0.04,1.18875 -0.24277,1.75475 -0.30255,0.98708 -0.44468,2.00443 -0.69181,3.0057 -0.47335,1.73812 -1.0755,3.43716 -1.50459,5.18744 -0.32463,0.87085 -0.74935,1.69155 -1.08282,2.55832 -0.43771,0.87882 -0.96552,1.71098 -1.39464,2.59529 -0.39629,0.68916 -0.67732,1.42562 -1.08753,2.10619 -0.757,1.14111 -1.53773,2.26439 -2.35043,3.36679 -0.67895,1.05517 -1.32275,2.13099 -1.96765,3.20694 -0.58967,0.88267 -1.1251,1.80374 -1.79342,2.63102 -0.3262,0.37845 -0.73916,0.6725 -1.09834,1.0179 -0.88364,0.79219 -1.87327,1.42853 -2.92134,1.98763 -1.51998,0.85221 -3.05525,1.67095 -4.69328,2.27805 -1.31548,0.49865 -2.64582,0.96429 -4.03836,1.20085 -0.89414,0.19736 -1.80101,0.32717 -2.71928,0.28433 -1.18978,0.004 -2.37956,0.007 -3.56934,0.01 5.1354,0.002 0.3892,0.0221 -0.76811,-0.0412 -1.73493,-0.0923 -3.44972,-0.32887 -5.14368,-0.72446 -1.54722,-0.33673 -3.20135,-0.53466 -4.62077,-1.26084 -0.52092,-0.29804 -1.0217,-0.61896 -1.48657,-0.99954 -0.44071,-0.35082 -0.76102,-0.80744 -1.14688,-1.21494 -0.542388,-0.763 -1.06408,-1.53771 -1.575017,-2.32393 -0.601861,-0.96747 -1.247314,-1.90927 -1.781169,-2.91801 -0.592281,-1.15982 -1.207151,-2.30555 -1.611493,-3.55031 -0.318646,-0.9745 -0.581194,-1.96939 -1.016328,-2.90169 -0.267422,-0.75163 -0.58751,-1.49705 -0.602514,-2.3087 -0.100164,-0.97752 -0.274209,-1.93997 -0.442953,-2.90768 -0.06858,-0.76374 -0.195037,-1.51068 -0.357227,-2.25888 2.65e-4,-0.75122 -0.0064,-1.50238 -0.01117,-2.25359 0.0011,-1.08305 -0.0011,-2.1679 0.08489,-3.24829 0.07416,-0.72377 0.210206,-1.43223 0.382452,-2.13876 0.04104,-0.73307 0.129059,-1.4635 0.297387,-2.17923 0.27188,-1.01631 0.515985,-2.03193 0.65033,-3.07796 0.09929,-0.89051 0.301722,-1.75405 0.528783,-2.6201 0.138699,-0.872054 0.320561,-1.738654 0.351641,-2.623548 0.07903,-0.663025 0.228669,-1.292603 0.485241,-1.91066 0.111218,-0.616812 0.30353,-1.229468 0.318876,-1.856284 0.0021,-0.475658 -0.0028,-0.951704 0.02048,-1.426938 0.03623,-0.510336 0.1051,-1.017249 0.220143,-1.516301 0.142309,-0.661455 0.251524,-1.318699 0.204537,-1.998577 -0.0031,-0.551575 5.29e-4,-1.103165 -0.0051,-1.654723 -0.004,-0.88986 -0.01524,-1.779781 0.0019,-2.669606 z" />
</svg>
