<?xml version="1.0" encoding="UTF-8" standalone="no"?>
<!-- Created with Inkscape (http://www.inkscape.org/) -->

<svg
   width="1000"
   height="1000"
   viewBox="0 0 264.58333 264.58333"
   version="1.1"
   id="svg1"
   xmlns="http://www.w3.org/2000/svg"
   xmlns:svg="http://www.w3.org/2000/svg">
  <defs
     id="defs1">
    <rect
       x="256.66667"
       y="116.66667"
       width="508.33333"
       height="661.66667"
       id="rect3" />
  </defs>
  <text
     xml:space="preserve"
     transform="scale(0.26458333)"
     id="text3"
     style="text-align:start;writing-mode:lr-tb;direction:ltr;white-space:pre;shape-inside:url(#rect3);display:inline;fill:#000000;stroke-width:19.5213" />
  <path
     id="path9"
     style="fill:#000000;stroke-width:5.16501"
     d="M 161.51882 75.653779 C 161.10366 76.636507 160.61669 77.592562 160.24086 78.592618 C 159.99663 79.253608 159.79576 79.937625 159.53651 80.591979 C 159.27422 81.405104 159.10754 82.242934 158.8301 83.05126 C 158.24431 84.808742 157.52162 86.513141 156.84417 88.235957 C 156.14436 90.038333 155.58199 91.887345 155.0324 93.739497 C 154.5049 95.26985 153.88596 96.765855 153.31881 98.281338 C 152.88917 99.240096 152.49035 100.21054 152.18968 101.21759 C 151.77136 102.49601 151.32747 103.76187 150.95926 105.05767 C 150.48793 106.56173 149.97536 108.06872 149.26014 109.47652 C 148.84012 110.3674 148.37366 111.23064 147.92792 112.1084 C 147.28539 113.22423 146.77263 114.40928 146.24585 115.58261 C 145.78487 116.42251 145.36424 117.28067 144.91208 118.12354 C 144.54854 118.70538 144.22659 119.29622 143.97726 119.9379 C 143.70895 120.66325 143.35574 121.34893 143.0445 122.05456 C 142.7453 122.63819 142.41667 123.19657 142.16031 123.80019 C 141.79119 124.75835 141.20071 125.60382 140.70304 126.49512 C 140.32083 127.35665 139.70279 128.04262 139.13879 128.78128 C 138.59014 129.46405 138.17386 130.23865 137.73423 130.99252 C 137.36977 131.73152 137.08705 132.51566 136.83557 133.30039 C 136.72559 133.7927 136.37311 134.15841 136.22062 134.63519 C 136.11308 135.00306 136.09753 135.38929 136.0873 135.77001 C 136.0813 136.09964 136.08829 136.42891 136.08782 136.75858 C 135.89684 137.14662 135.79988 137.56237 135.73383 137.98796 C 135.66943 138.52094 135.65995 139.058 135.65115 139.59406 C 135.50179 139.90823 135.44356 140.29283 135.23722 140.5723 C 135.03147 140.89876 134.90176 141.24334 134.81451 141.61668 C 134.72611 141.98291 134.54781 142.32544 134.44606 142.69775 C 134.19423 143.04711 134.05569 143.47469 133.96753 143.89302 C 133.90183 144.18234 133.94794 144.47006 133.75773 144.70486 C 133.59209 144.89285 133.504 145.17272 133.46989 145.42058 C 133.26417 145.63916 132.96204 145.72619 132.69939 145.88722 C 132.39133 146.10146 132.0222 146.12941 131.65915 146.1518 C 131.34951 146.10466 131.05203 145.99333 130.75894 145.87326 C 130.70804 145.84096 130.65742 145.80883 130.6065 145.77663 L 129.81946 145.85053 C 129.83 145.58239 129.8536 145.31387 129.93367 145.05626 C 130.07537 144.58403 130.30456 144.13216 130.33054 143.63206 C 130.41754 143.04872 130.5977 142.48794 130.69331 141.90658 C 130.69531 141.35425 130.69218 140.80217 130.68918 140.24984 C 130.69118 139.65787 130.69693 139.0657 130.69693 138.47372 C 130.69893 138.03484 130.70411 137.59545 130.68091 137.157 C 130.65761 136.72643 130.58496 136.30106 130.45147 135.88989 C 130.30375 135.35845 130.19954 134.84729 130.25561 134.29103 C 130.26061 133.79219 130.25094 133.29322 130.22564 132.79499 C 130.18594 132.33321 130.10875 131.87322 129.93729 131.44004 C 129.79807 131.00986 129.79262 130.59209 129.81275 130.13934 C 129.81375 129.66164 129.81173 129.18405 129.81326 128.70635 C 129.80526 128.0436 129.80603 127.38064 129.80603 126.71785 C 129.80403 125.8523 129.80293 124.98665 129.80293 124.1211 C 129.80493 123.35216 129.81106 122.5832 129.80706 121.81427 C 129.80714 120.91736 129.80203 120.02039 129.80603 119.12348 C 129.80703 118.44947 129.81406 117.77244 129.73006 117.10241 C 129.65366 116.51725 129.49907 115.95175 129.36781 115.37745 C 129.36755 114.70739 129.36706 114.03729 129.36885 113.36724 C 129.36685 112.82205 129.37205 112.27684 129.37505 111.73168 C 129.37705 111.41462 129.3759 111.09738 129.37711 110.78032 C 129.37411 110.44815 129.37513 110.11617 129.3766 109.784 C 129.37607 109.4886 129.37729 109.19315 129.37608 108.89774 C 129.37529 108.57593 129.37658 108.25423 129.37505 107.93243 C 129.37425 107.58182 129.3782 107.2309 129.37505 106.8803 C 129.37705 106.53872 129.37501 106.19766 129.37556 105.85607 C 129.37256 105.45796 129.375 105.05942 129.37453 104.66131 C 129.37653 104.29965 129.37397 103.93828 129.37556 103.57662 C 129.37356 103.20807 129.3735 102.83931 129.3735 102.47075 C 129.3755 102.12964 129.3706 101.78862 129.3766 101.44755 C 129.38349 101.1011 129.39488 100.75203 129.45876 100.41092 C 129.49083 100.31343 129.5235 100.216 129.55643 100.11792 C 129.58522 100.03021 129.61193 99.94168 129.63653 99.852302 C 129.72411 99.63285 129.8094 99.413055 129.81481 99.177408 C 129.81743 98.951784 129.82067 98.724852 129.84169 98.49993 C 129.91235 98.145342 130.06875 97.809417 130.19929 97.469502 C 130.35948 97.01273 130.49131 96.545746 130.58118 96.070621 C 130.68426 95.811433 130.7235 95.548182 130.7915 95.282555 C 130.83515 95.190074 130.87788 95.09744 130.91759 95.003502 C 131.03229 94.820951 131.16011 94.641208 131.146 94.419042 C 131.14505 94.378782 131.14076 94.33988 131.1336 94.302253 C 131.1426 94.011687 130.90497 93.803454 130.5605 93.680586 C 129.64747 93.27176 127.9967 93.541948 128.08055 94.492422 C 128.05185 94.589968 128.01578 94.684806 127.9772 94.778193 C 127.92231 94.865903 127.86853 94.957448 127.83561 95.057246 C 127.82581 95.094827 127.81662 95.13225 127.80822 95.169384 C 127.75952 95.285989 127.71547 95.40428 127.68316 95.527501 C 127.66877 95.641797 127.65183 95.755571 127.63303 95.869082 C 127.6199 95.902721 127.60552 95.93628 127.58963 95.969851 C 127.41712 96.277085 127.34214 96.624364 127.29765 96.970307 C 127.13575 97.328039 126.98771 97.693142 126.90801 98.078767 C 126.88301 98.212278 126.86672 98.347213 126.8553 98.48236 C 126.83097 98.614955 126.81757 98.749559 126.81965 98.887503 C 126.79577 99.13628 126.75792 99.384069 126.69924 99.626993 C 126.63209 99.805724 126.55653 99.984296 126.51166 100.17218 C 126.49949 100.22488 126.48869 100.27775 126.4791 100.33083 C 126.34534 100.75156 126.23854 101.17466 126.15819 101.61292 C 126.00326 102.15393 125.89914 102.69513 125.83521 103.25364 C 125.69011 103.83789 125.39191 104.36219 125.2399 104.9445 C 124.93544 105.8096 124.54928 106.64131 124.21309 107.49421 C 123.98742 108.03789 123.70533 108.55577 123.49479 109.10548 C 122.98045 110.16915 122.32009 111.15726 121.75742 112.19522 C 120.91225 113.55832 120.02688 114.89862 119.26042 116.30814 C 118.95606 116.91083 118.6658 117.51835 118.28477 118.07961 C 117.62659 119.04781 116.99063 120.03036 116.26009 120.94714 C 115.78327 121.56957 115.28242 122.17815 114.70307 122.70879 C 114.01826 123.33975 113.29307 123.91896 112.49029 124.39602 C 111.68959 124.98612 110.899 125.57995 109.97882 125.97732 C 108.9685 126.44649 107.94748 126.88677 106.88133 127.21652 C 106.31351 127.44599 105.72049 127.62148 105.114 127.7121 C 104.2206 127.799 103.33572 127.94569 102.44491 128.05368 C 101.30906 128.13308 100.16859 128.07537 99.030647 128.09657 C 98.665878 128.09712 98.281521 128.09771 97.904617 128.09812 C 97.733919 128.09831 97.564621 128.09864 97.399738 128.09864 C 97.111226 128.09883 96.245648 128.09853 96.534158 128.09864 C 99.95935 128.10023 98.946541 128.09977 97.904617 128.09812 C 97.633249 128.09769 97.359924 128.09715 97.162544 128.09657 C 96.141824 128.09057 95.116705 128.09964 94.101232 127.98133 C 93.177294 127.85112 92.273607 127.63967 91.366515 127.43356 C 90.568238 127.23572 89.774993 127.06679 88.955809 126.97933 C 88.361772 126.85271 87.802198 126.62408 87.207079 126.50132 C 86.866523 126.332 86.539415 126.17682 86.194221 126.00213 C 85.733425 125.64201 85.168077 125.51307 84.731261 125.12001 C 84.315897 124.82101 83.85138 124.59741 83.466739 124.26011 C 83.084461 123.94992 82.656642 123.68638 82.341743 123.30358 C 81.812462 122.84076 81.402612 122.24354 80.817288 121.83959 C 80.425586 121.56482 80.093554 121.27344 79.854556 120.84585 C 79.519165 120.32953 79.254004 119.76733 78.836531 119.30693 C 78.377945 118.83129 78.163292 118.21112 77.843826 117.64243 C 77.492126 116.9483 77.244712 116.20754 76.921402 115.49993 C 76.684033 114.73992 76.488702 113.97379 76.198449 113.23081 C 76.030827 112.34365 75.883827 111.4622 75.824828 110.55966 C 75.706078 109.7212 75.511587 108.88765 75.589184 108.03682 C 75.636994 106.94565 75.732647 105.858 75.915262 104.78017 C 76.133486 103.27848 76.214552 101.76611 76.398437 100.26003 C 76.508755 99.286991 76.501446 98.301575 76.690925 97.337727 C 76.852474 96.590581 76.937401 95.852441 76.891946 95.085668 C 76.897646 94.495965 76.905244 93.905281 76.968944 93.318334 C 77.056224 92.559954 77.205062 91.813693 77.328612 91.061107 C 77.340012 90.29581 77.364635 89.528837 77.496044 88.772875 C 77.684578 87.724109 77.963321 86.701295 78.279459 85.684175 C 78.473838 85.028588 78.629527 84.357132 78.791572 83.694115 C 78.931518 83.038372 79.143999 82.40541 79.339859 81.765034 C 79.514714 81.280341 79.600806 80.812297 79.589456 80.292772 C 79.666666 79.507951 79.779049 78.726992 79.92742 77.952347 L 76.954992 77.903254 C 76.833831 78.688553 76.696598 79.472082 76.614961 80.2628 C 76.644401 80.767702 76.519737 81.198828 76.360196 81.664265 C 76.183616 82.322429 75.958428 82.964161 75.820177 83.63262 C 75.646804 84.283529 75.513474 84.95207 75.313748 85.596841 C 75.0128 86.628102 74.741294 87.662728 74.538602 88.718098 C 74.39904 89.490054 74.371415 90.274152 74.358768 91.056456 C 74.227561 91.79766 74.08578 92.535959 73.9991 93.284227 C 73.9249 93.881035 73.922165 94.482694 73.918485 95.083084 C 73.980815 95.831998 73.881465 96.546324 73.721081 97.273648 C 73.551737 98.250447 73.543202 99.244561 73.457014 100.23006 C 73.290985 101.73359 73.20689 103.24071 72.97694 104.73624 C 72.780961 105.82267 72.685253 106.92104 72.629674 108.02235 C 72.531654 108.89407 72.747244 109.74248 72.866352 110.60048 C 72.927552 111.50698 73.068906 112.39415 73.237906 113.28559 C 73.498791 114.04784 73.718857 114.82061 73.959826 115.58933 C 74.268746 116.31907 74.533616 117.06807 74.8838 117.77937 C 75.194635 118.37473 75.451223 118.98652 75.867203 119.51828 C 76.285986 119.96167 76.566704 120.49866 76.883161 121.01277 C 77.137558 121.44815 77.449854 121.82043 77.854162 122.12019 C 78.437375 122.51057 78.888698 123.05098 79.377066 123.54543 C 79.701466 123.92663 80.108414 124.21578 80.496378 124.52573 C 80.877529 124.87678 81.340329 125.11366 81.764517 125.40475 C 82.189173 125.80095 82.752709 125.96557 83.226443 126.28221 C 83.529639 126.52848 83.904949 126.64134 84.241369 126.82533 C 84.814602 127.05332 85.419926 127.21389 86.016971 127.37362 C 86.823006 127.51697 87.627801 127.6329 88.424059 127.82682 C 89.337284 128.03154 90.245844 128.249 91.170145 128.39991 C 92.191005 128.55132 93.225315 128.54595 94.254711 128.55443 C 96.81034 128.56143 99.366306 128.55549 101.92194 128.55443 C 103.06824 128.52293 104.22094 128.62485 105.36101 128.48725 C 106.25473 128.35513 107.1474 128.21957 108.0487 128.15135 C 108.66647 128.01645 109.24842 127.80176 109.83154 127.56896 C 110.89988 127.25089 111.90515 126.77455 112.91662 126.31374 C 113.84783 125.91211 114.60803 125.25968 115.42189 124.67301 C 116.25289 124.21683 116.96867 123.60095 117.6507 122.95063 C 118.24415 122.41349 118.73738 121.78515 119.20099 121.13472 C 119.92506 120.20788 120.56007 119.21856 121.23756 118.25841 C 121.62982 117.68778 121.90475 117.05734 122.22923 116.45077 C 122.95038 115.036 123.82039 113.70246 124.66267 112.35748 C 125.21299 111.35105 125.86729 110.40245 126.38867 109.38092 C 126.38879 109.51532 126.38888 109.6496 126.38867 109.784 C 126.38967 110.11617 126.39068 110.44815 126.38815 110.78032 C 126.38915 111.09738 126.38769 111.41462 126.39022 111.73168 C 126.39322 112.27684 126.3979 112.82205 126.3959 113.36724 C 126.3979 114.03729 126.39793 114.70688 126.39693 115.37694 C 126.49879 115.97013 126.67195 116.54587 126.75712 117.14272 C 126.83662 117.80041 126.83515 118.46417 126.84445 119.12554 C 126.85345 120.02173 126.84417 120.91755 126.84239 121.81375 C 126.83539 122.58277 126.84163 123.35206 126.84342 124.1211 C 126.84344 124.98667 126.84303 125.85228 126.84083 126.71785 C 126.84058 127.38064 126.84078 128.04309 126.8336 128.70584 C 126.8356 129.18354 126.83279 129.66164 126.83412 130.13934 C 126.81382 130.61833 126.81816 131.07154 126.96021 131.53099 C 127.12251 131.94598 127.20266 132.38059 127.24598 132.82187 C 127.28278 133.31076 127.27345 133.80126 127.27905 134.29103 C 127.22465 134.87088 127.33093 135.41198 127.47801 135.96844 C 127.60011 136.36172 127.67068 136.76632 127.70073 137.17612 C 127.72043 137.6083 127.71813 138.04069 127.71933 138.4732 C 127.71633 139.06521 127.72092 139.6573 127.72192 140.24932 C 127.71792 140.8017 127.71427 141.35418 127.71727 141.90658 C 127.60228 142.47043 127.43488 143.01801 127.3576 143.58968 C 127.3235 144.07466 127.0893 144.50922 126.95194 144.96944 C 126.85534 145.28463 126.83983 145.61678 126.82947 145.94406 C 126.82647 146.22987 126.82743 146.51555 126.82843 146.80137 L 129.8143 146.80034 C 129.81391 146.74616 129.81307 146.69174 129.81275 146.63756 C 130.01147 146.63819 130.21038 146.63919 130.40909 146.64014 C 131.75274 146.64021 133.12524 146.6975 134.47499 146.5988 C 134.90431 146.5482 135.30753 146.45217 135.6651 146.19521 C 135.99572 146.00491 136.34772 145.87581 136.45937 145.47071 C 136.50757 145.25102 136.60092 145.0514 136.74101 144.87436 C 136.89476 144.58412 136.89434 144.27783 136.94875 143.95917 C 137.05059 143.54111 137.22204 143.15587 137.42727 142.77888 C 137.5333 142.40562 137.73038 142.06621 137.80141 141.68541 C 137.88221 141.34186 138.02876 141.03049 138.21688 140.73146 C 138.39477 140.37247 138.53904 139.98713 138.6303 139.59716 C 138.6333 139.07617 138.64291 138.5538 138.71091 138.03653 C 138.78781 137.59319 138.93941 137.18291 139.07471 136.75703 C 139.07071 136.43027 139.07065 136.1035 139.07265 135.77672 C 139.07965 135.42692 139.09345 135.07173 139.20132 134.73596 C 139.38075 134.27785 139.71085 133.88892 139.79922 133.39341 C 140.04992 132.62945 140.31645 131.86017 140.69167 131.14807 C 141.12378 130.40345 141.54467 129.64572 142.09107 128.97662 C 142.67456 128.23643 143.25294 127.50875 143.65325 126.64601 C 144.15966 125.74603 144.73908 124.88228 145.12861 123.92112 C 145.38997 123.32399 145.73313 122.76849 146.01279 122.17962 C 146.3343 121.47454 146.65263 120.77131 146.93883 120.05055 C 147.19647 119.42394 147.54495 118.8568 147.87831 118.26978 C 148.33141 117.42578 148.72054 116.54947 149.17642 115.70611 C 149.70363 114.53465 150.23904 113.36348 150.88019 112.24896 C 151.33598 111.37573 151.78469 110.50105 152.20466 109.60985 C 152.87966 108.16878 153.40601 106.65754 153.87949 105.13983 C 154.26008 103.84845 154.73576 102.59182 155.1342 101.30699 C 155.45895 100.31235 155.85047 99.345617 156.26281 98.384174 C 156.80681 96.857409 157.42009 95.356047 157.94953 93.823729 C 158.49896 91.982051 159.04493 90.138345 159.74115 88.344994 C 160.42896 86.615002 161.15627 84.901459 161.7834 83.147895 C 162.05408 82.339805 162.23349 81.506572 162.50481 80.698949 C 162.74456 80.035676 162.97425 79.367631 163.19882 78.699071 C 163.57267 77.707968 164.03095 76.747058 164.48401 75.791238 L 161.51882 75.653779 z " />
</svg>
