<?xml version="1.0" encoding="UTF-8" standalone="no"?>
<!-- Created with Inkscape (http://www.inkscape.org/) -->

<svg
   width="1000"
   height="1000"
   viewBox="0 0 264.58333 264.58333"
   version="1.1"
   id="svg1"
   xmlns="http://www.w3.org/2000/svg"
   xmlns:svg="http://www.w3.org/2000/svg">
  <defs
     id="defs1" />
  <path
     style="fill:#000000;stroke-width:0.211884"
     id="path2"
     d="m 160.75051,2.5419552 c -0.15044,0.02688 -0.30524,0.03781 -0.45131,0.08065 -0.36269,0.1063721 -0.69967,0.2770078 -1.04843,0.4178078 -0.72738,0.2936565 -1.434,0.5910244 -2.13184,0.9414219 -0.24808,0.1343255 -0.50084,0.2614813 -0.74423,0.4029781 -0.26488,0.1539899 -0.5153,0.3286503 -0.77988,0.4830792 -1.10573,0.645377 -2.27473,1.19237 -3.39826,1.8096651 -1.92707,1.0715372 -3.78792,2.246101 -5.58316,3.4981478 -0.30918,0.223098 -0.62439,0.439185 -0.92753,0.669293 -1.82298,1.383826 -0.0129,0.08746 -1.84567,1.445217 -0.95323,0.706188 -1.95334,1.358442 -2.92444,2.043214 -2.05054,1.376964 -3.95979,2.924801 -5.66697,4.656616 -1.66067,1.586837 -3.25641,3.229138 -4.78853,4.922923 -1.90241,2.349789 -3.92206,4.612548 -5.95317,6.866638 -0.35858,0.418525 -0.71799,0.836456 -1.07577,1.255582 -0.62582,0.733136 -1.36048,1.564878 -1.909,2.354283 -0.93495,1.345526 -1.6973,2.810879 -2.52446,4.213944 -1.0429,1.614029 -1.88431,3.326705 -2.79964,5.002325 -1.03927,1.902521 -2.14998,3.77272 -3.25322,5.643724 -1.52861,2.957532 -3.46571,5.708771 -5.13199,8.596758 -0.33713,0.584315 -0.65213,1.179369 -0.9782,1.769045 -2.00231,3.61558 -3.51344,7.441018 -5.04605,11.242409 -1.03006,2.657562 -2.143355,5.290112 -2.977192,8.009134 -0.401007,1.307637 -0.734937,2.656183 -1.076876,3.97809 -0.876208,3.765917 -1.293239,7.605162 -1.635319,11.439142 -0.228177,2.994491 -0.342041,6.011908 -0.04245,9.006538 0.06294,0.62916 0.16107,1.25489 0.241604,1.88232 0.122745,0.6653 0.213354,1.33637 0.368232,1.99588 0.258639,1.10138 0.974167,3.41363 1.337804,4.48996 0.323055,0.9562 1.154251,3.22257 1.568914,4.1803 0.287465,0.66396 0.621553,1.30976 0.932333,1.96464 0.65586,1.24124 1.17445,2.33008 2.00472,3.48251 1.12534,1.56204 2.59006,3.12312 4.07902,4.39948 0.48612,0.41672 1.01016,0.79379 1.51524,1.19068 0.56888,0.36721 1.12533,0.75155 1.70665,1.10163 0.57841,0.34832 1.17186,0.67521 1.77071,0.99245 3.56085,1.88631 7.10037,3.80905 10.70776,5.61784 0.64094,0.32137 1.34495,0.52077 2.02397,0.76596 2.18668,0.78958 1.87357,0.65622 4.11703,1.26894 2.01509,0.56408 4.10136,0.81267 6.18353,1.04394 1.10681,0.12293 2.93241,0.32307 4.05286,0.3771 0.71654,0.0345 1.43473,0.027 2.15209,0.0404 2.94467,0.0325 5.90167,-0.14087 8.82348,-0.48688 1.57951,-0.18706 2.83762,-0.41882 4.4032,-0.68265 3.24438,-0.64305 6.40876,-1.65311 9.31596,-3.14992 1.93445,-0.99598 2.99716,-1.7672 4.79878,-2.95507 0.75384,-0.56759 1.53165,-1.1089 2.26151,-1.70277 0.7764,-0.63175 1.5129,-1.3046 2.25421,-1.97155 1.71004,-1.53847 2.93414,-2.6789 4.47428,-4.37301 1.81364,-1.99496 2.59051,-3.07997 4.24333,-5.205 2.89061,-3.79383 5.0486,-8.02616 6.63175,-12.42354 0.38961,-1.08222 0.77861,-2.16715 1.07343,-3.2748 0.29842,-1.12118 0.4692,-2.268242 0.7038,-3.402378 0.73868,-4.085709 0.95459,-8.255535 0.12366,-12.344801 -0.51804,-2.549421 -0.83469,-3.093427 -1.75583,-5.531589 -1.58403,-4.147236 -4.40703,-7.679322 -7.82106,-10.694996 -0.64646,-0.57103 -1.33729,-1.097304 -2.00594,-1.645954 -1.76997,-1.201175 -2.48675,-1.757241 -4.36538,-2.766668 -3.99017,-2.144009 -7.98224,-4.286297 -12.02156,-6.349782 -0.76207,-0.389306 -1.57771,-0.681208 -2.37485,-1.004636 -2.27596,-0.923436 -2.35281,-0.91359 -4.65317,-1.696814 -3.34581,-0.966768 -6.7174,-1.927545 -10.17915,-2.477738 -2.02411,-0.321702 -2.90506,-0.335451 -4.93241,-0.470858 -3.23976,0.02061 -6.4828,0.374255 -9.64946,1.008262 -1.29642,0.259564 -3.34245,0.764532 -4.63212,1.074745 -3.93478,0.846976 -7.53693,2.429143 -11.02902,4.266257 -1.6513,1.003227 -1.33003,0.79428 -2.93327,1.822078 -0.44051,0.282397 -0.91218,0.528076 -1.31743,0.852637 -0.67592,0.54133 -1.087,1.154497 -1.59204,1.815784 0,0 9.34828,5.508646 9.34828,5.508646 v 0 c 1.00024,-0.345272 1.8769,-0.596922 2.79375,-1.12981 0.43436,-0.25246 0.80148,-0.59314 1.21398,-0.875336 1.18119,-0.808083 1.59865,-1.029272 2.84152,-1.76823 1.28184,-0.709887 1.75111,-1.002597 3.10999,-1.618238 2.37288,-1.075029 4.88105,-1.881157 7.39871,-2.606735 4.57108,-1.142222 9.23815,-2.034875 14.00306,-1.81649 0.76332,0.0538 1.52921,0.0822 2.28995,0.161418 4.30756,0.448386 8.48542,1.641298 12.55221,2.985097 1.99133,0.691877 2.46577,0.822807 4.42933,1.645751 0.76741,0.321619 2.98988,1.429343 2.27967,1.009794 -2.47981,-1.464923 -5.06786,-2.766263 -7.59975,-4.152587 -0.76239,-0.417439 1.5416,0.809104 2.29121,1.245954 0.7758,0.452105 1.52197,0.946454 2.28295,1.419681 0.70732,0.535878 1.43694,1.047457 2.12198,1.607643 3.75443,3.070169 6.6601,6.440545 8.84406,10.632347 0.93032,2.2519 1.35432,3.035649 1.92831,5.400871 0.97543,4.019483 0.95399,8.16855 0.39203,12.237068 -0.5742,2.890881 -0.64959,3.783038 -1.61458,6.591427 -1.49466,4.34992 -3.78855,8.40483 -6.62305,12.12991 -0.71073,0.87051 -1.39532,1.7599 -2.1322,2.61153 -3.30143,3.81561 -7.10258,7.21673 -11.3099,10.16796 -0.77723,0.49548 -1.52891,1.02725 -2.3317,1.48641 -3.62188,2.07153 -7.68383,3.36182 -11.85542,4.06975 -4.29715,0.70816 -8.65422,1.16796 -13.02682,1.03486 -4.09936,-0.24755 -8.22719,-0.54824 -12.1874,-1.63047 -1.83783,-0.5368 -2.1618,-0.5886 -3.95171,-1.28559 -0.67615,-0.26329 -2.62101,-1.20904 -2.0042,-0.84134 2.31223,1.37836 4.74511,2.57481 7.10498,3.88198 0.59282,0.32838 -1.2109,-0.61654 -1.80347,-0.94532 -0.58645,-0.32538 -1.15501,-0.6777 -1.73252,-1.01656 -0.53615,-0.38054 -1.08863,-0.74208 -1.60844,-1.14162 -1.62194,-1.24664 -3.1587,-2.69854 -4.41632,-4.26825 -0.94582,-1.18052 -1.48288,-2.1813 -2.25232,-3.46684 -0.34355,-0.6496 -0.70525,-1.29117 -1.03063,-1.94874 -1.65446,-3.34355 -2.8824,-6.8826 -3.49765,-10.51937 -0.56097,-3.64056 -0.93999,-7.22109 -0.64777,-10.905389 0.2251,-3.841537 0.62506,-7.671916 1.31446,-11.468002 0.12194,-0.653299 0.22638,-1.309616 0.3658,-1.959915 0.74167,-3.459329 1.88773,-6.833378 3.19189,-10.142297 1.47476,-3.78946 3.07356,-7.53925 4.99211,-11.15766 1.97401,-3.48818 4.11847,-6.892063 6.02253,-10.415053 0.9973,-1.913503 1.99084,-3.835947 3.14701,-5.673322 0.23093,-0.366993 1.96762,-2.910644 2.2678,-3.384052 0.30015,-0.473369 0.57292,-0.961206 0.85937,-1.441807 1.63136,-2.66954 3.36056,-5.298674 5.44858,-7.687782 1.18515,-1.341087 1.02338,-1.189708 2.28622,-2.489763 1.01924,-1.049277 1.21471,-1.187632 2.16588,-2.238995 0.30172,-0.333496 0.5809,-0.684101 0.88153,-1.018439 0.28932,-0.321749 0.59199,-0.632972 0.88799,-0.949459 1.57494,-1.638894 3.16057,-3.270038 4.75603,-4.891293 1.74741,-1.610094 3.42071,-3.314533 5.49021,-4.584257 2.0046,-1.27796 3.83936,-2.743444 5.73252,-4.15559 1.78684,-1.246093 3.66199,-2.3629 5.58274,-3.423688 1.51547,-0.965672 2.93136,-2.0619214 4.52038,-2.9298842 0.91819,-0.6258488 1.69644,-1.3184851 2.77502,-1.7154648 z" />
</svg>
