<?xml version="1.0" encoding="UTF-8" standalone="no"?>
<!-- Created with Inkscape (http://www.inkscape.org/) -->

<svg
   width="1000"
   height="1000"
   viewBox="0 0 264.58333 264.58333"
   version="1.1"
   id="svg1"
   xmlns="http://www.w3.org/2000/svg"
   xmlns:svg="http://www.w3.org/2000/svg">
  <defs
     id="defs1" />
  <path
     style="fill:#000000;stroke-width:0.201483"
     id="path1"
     d="m 123.18396,136.92596 c -0.96045,-0.0931 -1.87284,-0.51156 -2.76262,-0.90721 -1.86395,-0.97942 -3.70202,-2.02354 -5.50874,-3.12911 -3.48306,-2.28302 1.6146,1.06265 5.3183,3.40094 0.30821,0.19458 -0.60374,-0.41366 -0.89812,-0.63342 -1.00039,-0.74682 -1.77942,-1.54773 -2.63155,-2.4923 -1.95805,-2.3 -3.49304,-4.97254 -4.93493,-7.69208 -1.24886,-2.31915 -2.05276,-4.86903 -2.81889,-7.42217 -0.61187,-2.11905 -0.98678,-4.30502 -1.37468,-6.48459 -0.46105,-2.45549 -0.50901,-4.99188 -0.54995,-7.49429 -0.0275,-2.47422 0.41337,-4.907624 0.97704,-7.287294 0.87756,-3.13729 2.64861,-5.814024 4.38607,-8.418033 1.85665,-2.658987 4.03791,-5.004873 6.18012,-7.370914 1.24585,-1.459614 2.66442,-2.710227 3.99203,-4.070459 0.92546,-0.953381 1.95872,-1.757969 3.06003,-2.434645 2.01093,-1.0793 4.04782,-2.082074 6.14906,-2.920042 0.40631,-0.14781 0.81246,-0.296191 1.21893,-0.443433 1.0425,-0.377645 1.41286,-0.534793 2.48145,-0.81473 1.23324,-0.323064 2.48682,-0.493378 3.74038,-0.680097 1.57284,-0.180816 3.15219,-0.369682 4.7359,-0.350034 0.67954,0.0084 1.78813,0.09199 2.46867,0.137667 2.90703,0.08653 5.79626,0.412003 8.6698,0.897416 3.49268,0.746073 6.80837,2.233778 10.03926,3.85535 0.4908,0.266147 0.98832,0.517356 1.47242,0.79844 0.45639,0.264991 1.79353,1.126162 1.34792,0.839135 -2.03544,-1.311082 -4.06483,-2.634415 -6.11753,-3.911378 -0.37894,-0.235728 0.73695,0.511891 1.09434,0.786512 0.93405,0.717739 1.14108,0.951649 2.01389,1.769127 2.03525,1.93899 3.65767,4.31066 5.28755,6.65914 1.39217,2.187255 2.77389,4.418517 3.81317,6.848232 0.21145,0.494341 0.3924,1.00429 0.5886,1.506434 0.70086,1.969344 1.16573,4.025737 1.3408,6.137443 0.1082,1.30515 0.0719,1.698941 0.0557,3.010852 -0.0738,2.799091 -0.62149,5.563231 -1.59112,8.144921 -0.17527,0.46666 -0.3824,0.91754 -0.57359,1.37631 -1.00996,2.3904 -2.37585,4.55097 -3.73901,6.69844 -1.29695,2.1119 -2.62507,4.19024 -4.06072,6.18709 -1.29888,1.77035 -2.74165,3.39306 -4.2343,4.95635 -1.30498,1.31986 -2.77126,2.41704 -4.12778,3.66628 -0.7837,0.72569 -1.5049,1.53743 -2.14812,2.41887 -0.3708,0.53539 -0.67498,1.11981 -1.04963,1.65241 -0.35775,0.52093 -0.68983,1.06149 -1.10134,1.53464 -0.40003,0.4052 -0.47967,0.94018 -0.64273,1.47898 -0.11781,0.19987 -0.17186,0.51486 -0.36031,0.65635 -0.0706,-0.0675 -0.1573,0.29559 -0.17543,0.44477 0.0293,-0.0258 -0.0414,0.15823 -0.0221,0.12255 0.0495,-0.0915 0.0991,-0.1829 0.1487,-0.27434 -0.005,0.006 -0.01,0.0108 -0.0148,0.0162 0.0574,-0.27655 -0.41034,0.9094 -0.25845,0.63483 0.40123,-0.72537 0.23346,-0.49539 0.14007,-0.29822 -0.13327,0.19674 -0.17164,0.41877 -0.17482,0.66149 0.19627,0.52081 0.55944,0.76903 0.73909,1.32647 0,0 7.48716,4.07846 7.48716,4.07846 v 0 c 0.005,-0.0605 -0.0325,-0.15403 0.016,-0.18154 0.15899,-0.0902 0.4754,0.15588 0.60582,-0.11561 0.0309,-0.28676 -0.10429,0.13376 0.0129,-0.1637 0.36421,-0.64584 0.36405,-0.72489 0.0134,-0.17154 0.11364,-0.15687 0.31901,-0.32967 0.2391,-0.53697 -0.0416,-0.18572 -0.24068,0.46036 -0.0972,0.0959 0.0878,-0.31539 0.26606,-0.59318 0.35262,-0.91014 0.14549,-0.39318 0.21218,-0.81258 0.46178,-1.14567 0.37304,-0.53037 0.73719,-1.06608 1.10688,-1.59913 0.37655,-0.53913 0.68843,-1.1195 1.01651,-1.69504 0.53554,-0.86338 1.16645,-1.64209 1.84627,-2.36614 1.2748,-1.33215 2.63838,-2.55158 3.94928,-3.83815 1.50882,-1.61274 2.95224,-3.29017 4.21765,-5.15213 1.3866,-2.05825 2.78057,-4.11177 4.07552,-6.24448 1.3512,-2.23904 2.76983,-4.45381 3.64194,-6.99523 0.37443,-1.05422 0.7218,-1.98416 1.03451,-3.06768 0.64035,-2.21874 1.01515,-4.5143 1.22798,-6.83066 0.0163,-0.53057 0.0552,-1.06087 0.049,-1.59171 -0.0318,-2.739121 -0.54873,-5.472034 -1.43637,-8.017357 -0.51695,-1.427283 -0.57768,-1.697604 -1.21419,-3.052788 -0.91231,-1.94239 -2.06278,-3.720857 -3.14977,-5.541332 -1.54813,-2.438723 -3.19224,-4.81238 -5.17669,-6.833826 -1.00122,-1.018041 -2.01072,-2.009449 -3.18377,-2.781123 -3.72062,-2.447559 -7.37836,-5.080819 -11.34085,-7.025625 -3.27584,-1.539451 -6.61934,-2.957958 -10.1365,-3.633968 -2.97718,-0.51873 -5.97287,-0.89215 -8.985,-1.034337 -2.4376,-0.09424 -4.88469,-0.107544 -7.29619,0.370849 -0.77626,0.141174 -1.70424,0.30042 -2.47197,0.479608 -1.71142,0.399447 -3.37871,0.993935 -5.02261,1.653369 -2.17017,0.893467 -4.37045,1.712587 -6.44846,2.860009 -0.74173,0.421673 -1.52845,0.824063 -2.22026,1.346484 -0.43643,0.329565 -0.78049,0.800609 -1.14205,1.219887 -1.21693,1.433735 -2.40307,2.896391 -3.56051,4.391137 -2.07736,2.47047 -4.14859,4.950199 -6.03815,7.606073 -1.83157,2.678111 -3.75894,5.337639 -4.82223,8.535793 -0.32091,1.112136 -0.42201,1.363409 -0.637846,2.488649 -0.317093,1.653115 -0.416197,3.36066 -0.47846,5.045051 0.01783,2.532997 0.129458,5.071577 0.3579,7.591747 0.413696,2.2543 0.844006,4.50597 1.496006,6.69269 0.84502,2.67293 1.76443,5.32359 3.07285,7.76408 1.44614,2.71713 2.95228,5.41132 4.77702,7.83583 0.64193,0.8278 0.87917,1.19206 1.60364,1.90746 0.58576,0.57843 1.10659,0.98329 1.7795,1.42617 6.93028,4.56111 5.59461,3.72197 9.12792,5.91651 1.8101,1.05788 3.61798,2.13802 5.51946,2.97922 0.93915,0.3718 1.80988,0.60163 2.8016,0.68732 z" />
</svg>
