<?xml version="1.0" encoding="UTF-8" standalone="no"?>
<!-- Created with Inkscape (http://www.inkscape.org/) -->

<svg
   width="1000"
   height="1000"
   viewBox="0 0 264.58333 264.58333"
   version="1.1"
   id="svg1"
   xmlns="http://www.w3.org/2000/svg"
   xmlns:svg="http://www.w3.org/2000/svg">
  <defs
     id="defs1" />
  <path
     style="fill:#000000;stroke-width:26.4583"
     id="path4"
     d="m 73.041792,53.268067 c 0.181608,0.643917 0.416669,1.338038 0.328774,2.014694 -0.108286,0.574667 -0.254307,1.123606 -0.443166,1.673714 -0.200219,0.467614 -0.356886,0.956739 -0.405334,1.464675 -0.06682,0.168143 0.01148,0.385379 -0.03519,0.552908 -0.01373,0.04926 -0.110324,0.02647 -0.136205,0.07057 -0.0372,0.06338 -0.05124,0.137766 -0.07686,0.20665 -0.202642,0.595564 -0.190307,1.233802 -0.333404,1.848451 -0.169707,0.727651 -0.311143,1.457505 -0.352306,2.204185 -0.09144,0.699836 0.0044,1.336662 0.189129,2.009106 0.156774,0.620696 0.213561,1.259702 0.248761,1.896946 0.0092,0.601715 0.0226,1.203079 0.0062,1.804762 0.06445,0.542388 0.294626,1.039704 0.386622,1.578232 0.09315,0.572524 0.09451,1.155689 0.111077,1.734373 -0.0021,0.556368 -0.01381,1.112388 -0.03122,1.668372 -0.0036,0.67268 0.05184,1.343131 0.0507,2.016075 0.04478,1.111803 0.02806,2.223924 0.01127,3.336063 -0.01487,0.741505 -0.02482,1.483476 -0.05074,2.22469 -2.64e-4,0.878462 0.06367,1.752807 0.08352,2.632022 0.03801,1.355318 0.0051,2.710156 -0.01601,4.065569 -0.01796,0.811136 -0.03384,1.622724 -0.06505,2.433474 -0.01222,0.666882 0.02846,1.332457 0.01971,1.999199 -0.01336,0.651246 0.0036,1.302933 -0.02596,1.953784 0.0055,0.585586 0.01937,1.170787 0.0051,1.756365 0.02156,0.777449 0.0345,1.553401 0.03121,2.331241 0.02302,0.620842 0.24085,1.204989 0.364442,1.807653 0.0885,0.59896 0.0589,1.20175 0.157872,1.79813 0.19499,0.67481 0.260519,1.37666 0.416636,2.05809 0.203103,0.48415 0.332873,0.98934 0.485347,1.48983 0.289261,0.68871 0.58819,1.37036 0.849625,2.07176 0.327861,0.73439 0.591978,1.49527 0.908441,2.23384 0.415179,0.94079 0.868699,1.86082 1.345835,2.77159 0.290896,0.64295 0.667509,1.23072 1.048038,1.82076 0.522455,0.52424 0.983168,1.10159 1.447313,1.67742 0.457063,0.6381 1.013916,1.18753 1.554189,1.75277 0.352145,0.32091 0.704062,0.583 1.055839,0.90102 0.517779,0.32704 1.074338,0.60756 1.599409,0.93892 0.767482,0.50313 1.521862,1.02531 2.308129,1.49902 0.4821,0.10835 0.771594,0.59572 1.260044,0.65522 0.596172,0.39595 1.223132,0.68771 1.883619,0.97396 0.602795,0.27289 1.230196,0.45422 1.799654,0.79578 0.508044,0.16335 0.92266,0.51854 1.446,0.63627 0.563682,0.36883 1.206058,0.49106 1.835621,0.68322 0.643149,0.17047 1.257224,0.36391 1.862032,0.64177 0.718412,0.28482 1.493229,0.27041 2.233141,0.47006 1.225323,0.28114 2.435524,0.62159 3.654934,0.92814 1.28654,0.38714 2.57663,0.76446 3.89235,1.03911 0.93436,0.23246 1.90711,0.21113 2.84836,0.37727 1.25163,0.31164 2.54606,0.34518 3.8283,0.39323 4.34543,0.12075 8.69895,0.0537 13.04272,0.0544 1.22491,-0.24093 2.41773,-0.59745 3.63441,-0.87454 3.88189,-0.92697 7.84727,-1.43199 11.76291,-2.1844 1.49386,-0.46382 3.1947,-0.37899 4.58621,-1.13351 0.55469,-0.32837 1.20411,-0.45823 1.78247,-0.72693 0.39246,-0.18234 0.7584,-0.4179 1.14818,-0.60593 1.87555,-0.91692 3.73347,-1.86517 5.66206,-2.66764 1.2827,-0.55481 2.43608,-1.34375 3.61246,-2.07839 0.51988,-0.48886 0.96339,-1.04963 1.43553,-1.58315 0.50675,-0.64541 1.05312,-1.24946 1.57557,-1.88752 1.32489,-1.77118 2.7858,-3.44351 4.23225,-5.11841 0.81573,-0.91938 1.80006,-1.76964 2.44672,-2.83038 0.237,-0.38875 0.49657,-1.09182 0.66419,-1.5129 0.41206,-1.38663 0.90256,-2.76469 1.24694,-4.17249 0.35079,-1.2733 0.56533,-2.59398 1.03166,-3.832007 0.53838,-1.63077 1.21534,-3.196117 1.75902,-4.824074 0.51605,-1.199317 0.69926,-2.494934 1.03617,-3.743701 0.29958,-0.771265 0.39953,-1.595159 0.45561,-2.4145 0.0563,-1.187749 0.33427,-2.318536 0.66027,-3.452177 0.25086,-0.661845 0.25967,-1.374357 0.37187,-2.063922 0.19853,-0.735526 0.30337,-1.490628 0.40307,-2.244305 0.0393,-0.61346 0.0628,-1.228822 0.0608,-1.843656 -0.019,-0.680749 -0.0275,-1.361567 -0.009,-2.042366 0.0304,-0.684983 -0.0242,-1.370013 -0.0356,-2.055239 0.003,-0.884906 -0.0102,-1.769245 0.0219,-2.654006 -0.0202,-0.84083 -0.0125,-1.681408 -0.009,-2.522363 -0.0519,-0.983422 0.0994,-1.869038 0.45793,-2.787105 0.44479,-1.583848 1.4736,-2.917618 2.0405,-4.445478 0.22968,-0.889387 0.46837,-1.775498 0.70113,-2.663955 0.15261,-0.515088 0.19882,-1.054285 0.2051,-1.589355 0.0155,-0.455398 -0.003,-0.910783 0.0133,-1.366213 0.0279,-0.365403 -0.0873,-0.774165 0.0243,-1.130728 -12.05243,-0.225963 -9.60717,-2.603223 -9.92428,2.971265 -0.15563,1.596279 -0.26198,3.195923 -0.37728,4.795181 -0.0407,1.489329 0.009,2.974062 -0.0946,4.461592 -0.15458,1.553477 -0.25867,3.111151 -0.51139,4.652404 -0.23568,1.449994 -0.27099,2.938831 -0.34409,4.408276 -0.0858,2.096249 -0.21498,4.194577 -0.46676,6.277555 -0.32477,2.060323 -0.33898,4.130812 -0.54333,6.20164 -0.1573,1.595236 -0.36563,3.182487 -0.56768,4.771112 -0.20942,1.462945 -0.29456,2.926752 -0.33339,4.401793 -0.0531,1.079977 -0.0862,2.161265 -0.10614,3.242302 -0.0221,0.6475 -0.0252,1.29605 -0.0147,1.9439 0.0292,0.78478 0.0343,1.57219 -0.003,2.35694 -0.0122,0.59938 0.007,1.19893 -0.004,1.79821 -0.22813,1.18252 -0.23943,2.3892 -0.25982,3.58931 0.11729,2.37223 0.39515,4.73075 0.59748,7.09647 0.11011,1.21491 0.15565,2.43308 0.19602,3.65157 0.12565,1.6273 0.0267,3.2548 0.11833,4.88421 0.0824,0.96994 0.17095,1.93924 0.26023,2.90848 -0.0171,0.59275 0.0968,1.13367 0.26706,1.6967 0.2522,0.72434 0.2764,1.49058 0.28325,2.24986 0.0937,0.75847 0.26658,1.5033 0.38123,2.25874 0.0107,0.6131 0.2232,1.18794 0.38169,1.77225 0.12611,0.56631 0.1583,1.14658 0.1863,1.72433 0.008,0.88124 0.025,1.7504 0.16132,2.62197 0.17765,0.76177 0.25452,1.53552 0.29909,2.31428 0.008,0.5401 -0.0525,1.07277 0.13978,1.58687 0.181,0.3501 0.26224,0.71831 0.31334,1.10544 0.17918,0.76239 0.36675,1.51806 0.60078,2.26508 0.25691,0.85966 0.48098,1.72732 0.65339,2.60821 0.0708,0.77376 0.35982,1.49875 0.5621,2.24159 0.10198,0.41323 0.12744,0.83032 0.28133,1.23043 0.21948,0.50232 0.27875,1.04381 0.3243,1.58365 0.006,0.62487 0.0207,1.23376 0.16542,1.84321 0.0797,0.23735 0.13813,0.47981 0.18522,0.72529 0,0 9.92441,-0.36781 9.92441,-0.36781 v 0 c -0.14359,-0.1872 -0.16609,-0.41762 -0.23499,-0.63975 -0.19866,-0.53181 -0.13131,-1.07278 -0.17293,-1.63196 -0.0387,-0.63244 -0.11179,-1.26179 -0.3005,-1.86905 -0.0359,-0.0976 -0.1164,-0.17725 -0.14105,-0.27828 -0.0697,-0.28553 0.007,-0.61552 -0.14448,-0.88751 -0.23643,-0.71122 -0.59299,-1.38191 -0.69639,-2.13322 -0.17019,-0.9196 -0.28382,-1.85139 -0.58119,-2.74099 -0.23577,-0.66409 -0.39467,-1.35192 -0.52857,-2.04282 -0.0315,-0.47439 -0.0918,-0.97117 -0.30723,-1.3998 -0.0324,-0.0689 -0.11578,-0.10964 -0.13717,-0.18274 -0.0976,-0.3337 0.0426,-0.73991 -0.0655,-1.07647 -0.0539,-0.81825 -0.1368,-1.63889 -0.32205,-2.43904 -0.18851,-0.81368 -0.13947,-1.63129 -0.12773,-2.4621 -0.003,-0.6458 -0.0276,-1.29283 -0.18159,-1.92349 -0.11388,-0.57169 -0.34964,-1.10371 -0.37084,-1.69185 -0.1039,-0.72478 -0.32058,-1.42485 -0.44248,-2.14655 -0.0472,-0.84453 0.007,-1.70795 -0.20716,-2.52871 -0.17247,-0.49272 -0.30258,-0.95782 -0.28249,-1.49007 -0.11471,-0.96449 -0.391,-1.90251 -0.47123,-2.87266 -0.13982,-1.60241 -0.0562,-3.23151 -0.0165,-4.83805 -0.0163,-1.2592 -0.12404,-2.50813 -0.3532,-3.74824 -0.37513,-2.29102 -0.74516,-4.59857 -0.59144,-6.92978 0.10214,-1.22588 0.2576,-2.43626 0.52795,-3.63699 -0.0109,-0.5993 0.008,-1.19888 -0.004,-1.79828 -0.0373,-0.78509 -0.0322,-1.57281 -0.004,-2.35798 0.009,-0.64765 0.003,-1.29597 -0.0214,-1.94317 -0.0207,-1.070814 -0.0486,-2.141538 -0.0441,-3.212822 0.0487,-1.433619 0.14294,-2.871465 0.35334,-4.290931 0.26115,-1.596503 0.2483,-3.210845 0.39881,-4.820115 0.19173,-2.062486 0.36221,-4.12378 0.52811,-6.188038 0.21195,-2.11813 0.40054,-4.235969 0.65858,-6.349696 0.0243,-1.439495 0.0897,-2.875039 0.34948,-4.294214 0.2204,-1.567688 0.25778,-3.143094 0.38308,-4.720711 0.1404,-1.500318 0.27527,-2.994123 0.24836,-4.50383 0.002,-1.585585 0.0953,-3.169979 0.24857,-4.748028 0.65247,-5.614371 1.11925,-3.302071 -9.64988,-3.051942 0.11475,0.355947 -0.003,0.767218 0.0294,1.132628 0.0204,0.444191 0.009,0.888395 0.008,1.332836 -0.023,0.468141 -0.0492,0.935318 -0.149,1.395214 -0.16898,0.852864 -0.40694,1.691841 -0.6107,2.535722 -0.57788,1.507514 -1.28319,2.959447 -1.92977,4.437893 -0.40359,1.033746 -0.78976,2.019012 -0.64076,3.146116 0.003,0.840951 0.0109,1.681527 -0.009,2.522355 0.0321,0.884793 0.0193,1.769165 0.022,2.654106 -0.0113,0.685636 -0.0661,1.371233 -0.0336,2.056577 0.0205,0.679191 0.0155,1.35857 -0.004,2.037795 -0.006,0.581829 0.0124,1.164775 -0.0464,1.744871 -0.0535,0.731618 -0.18944,1.449631 -0.3675,2.160945 -0.1404,0.661855 -0.16068,1.342446 -0.34527,1.997599 -0.27876,1.174554 -0.40429,2.364541 -0.60833,3.552597 -0.18676,0.775462 -0.27326,1.571048 -0.50332,2.338523 -0.25332,1.220787 -0.35745,2.475806 -0.81716,3.650117 -0.58264,1.60858 -1.31589,3.159842 -1.8087,4.803238 -0.46767,1.283274 -0.86797,2.583585 -1.1091,3.931085 -0.36093,1.35455 -0.74109,2.70562 -1.19807,4.03077 -0.68741,1.54435 -1.78964,2.80439 -2.90458,4.06043 -1.45431,1.73812 -2.94878,3.43899 -4.51198,5.08023 -0.57566,0.60366 -1.11283,1.23282 -1.65313,1.86682 -0.44158,0.47193 -0.84521,0.99561 -1.39341,1.35051 -1.03487,0.75007 -2.14553,1.40123 -3.30721,1.93409 -1.95374,0.88791 -3.88128,1.83309 -5.85331,2.67966 -0.98326,0.46458 -2.01439,0.81506 -3.00022,1.27518 -1.3533,0.37806 -2.73754,0.65068 -4.0973,1.00526 -3.99562,0.82685 -8.0252,1.48129 -12.04566,2.17377 -1.24543,0.28894 -2.51525,0.6136 -3.79874,0.62882 17.03806,0.003 10.02142,0.0215 6.19795,-0.007 -1.22032,-0.0249 -2.45754,-0.0166 -3.66108,-0.23709 -0.28049,-0.0713 -0.55051,-0.18687 -0.83599,-0.23443 -0.69704,-0.11614 -1.44095,0.0124 -2.13478,-0.16451 -1.33433,-0.18676 -2.62258,-0.55669 -3.91099,-0.94413 -1.15601,-0.34326 -2.33233,-0.61398 -3.48487,-0.96871 -0.73438,-0.17565 -1.41786,-0.46429 -2.19346,-0.39686 -0.67422,-0.14683 -1.21623,-0.59004 -1.90954,-0.6709 -0.24129,-0.0717 -0.46612,-0.19387 -0.70904,-0.25982 -0.34146,-0.0927 -0.7274,-0.0315 -1.04024,-0.25473 -0.43143,-0.34257 -1.04104,-0.30942 -1.45901,-0.70372 -0.65593,-0.16417 -1.175379,-0.70331 -1.873093,-0.77806 -0.270351,-0.11959 -0.52941,-0.26621 -0.807149,-0.36747 -0.198813,-0.0725 -0.436104,-0.0452 -0.614656,-0.15876 -0.147209,-0.0936 -0.193603,-0.30438 -0.365442,-0.37469 -0.35837,-0.33167 -1.00125,-0.25297 -1.31549,-0.73229 -0.882147,-0.24508 -1.612585,-0.83221 -2.367936,-1.32438 -0.483381,-0.3356 -0.939409,-0.73361 -1.455542,-0.97739 -0.09949,-0.0349 -0.217704,-0.0323 -0.301067,-0.0969 -0.280233,-0.21694 -0.381362,-0.55858 -0.800134,-0.59639 -0.5652,-0.49843 -1.171183,-1.00367 -1.565537,-1.6497 -0.486526,-0.54692 -0.905214,-1.15502 -1.403985,-1.68186 -0.487982,-0.38716 -0.804399,-1.11618 -1.15276,-1.62334 -0.513443,-0.85973 -0.918073,-1.76875 -1.283621,-2.70051 -0.361315,-0.71091 -0.586494,-1.4792 -0.896461,-2.21183 -0.328523,-0.62763 -0.462325,-1.3523 -0.811652,-1.97815 -0.176935,-0.49206 -0.209113,-1.03498 -0.480314,-1.49785 -0.310502,-0.56261 -0.184407,-1.31855 -0.436211,-1.9164 -0.121848,-0.58286 -0.02204,-1.19033 -0.135585,-1.77727 -0.0717,-0.572599 -0.269542,-1.098334 -0.423313,-1.650813 -0.0033,-0.777841 0.0096,-1.553792 0.03121,-2.331242 -0.01429,-0.585578 -2.65e-4,-1.170778 0.0051,-1.756365 -0.02954,-0.650851 -0.01259,-1.302538 -0.02596,-1.953783 -0.0088,-0.666742 0.03193,-1.332318 0.01971,-1.9992 -0.03122,-0.810749 -0.0471,-1.622338 -0.06505,-2.433473 -0.02114,-1.355413 -0.05401,-2.710252 -0.01601,-4.065572 0.01984,-0.879216 0.08381,-1.753563 0.08352,-2.632022 -0.02593,-0.74122 -0.03589,-1.483188 -0.05078,-2.224693 -0.01683,-1.112084 -0.03358,-2.224151 0.01143,-3.335891 -7.94e-4,-0.672237 0.05417,-1.341903 0.05353,-2.013847 -0.01482,-0.559445 -0.02268,-1.118931 -0.03021,-1.678606 0.0078,-0.635649 0.0078,-1.272329 -0.06634,-1.904717 -0.09048,-0.4713 -0.158412,-0.97635 -0.395796,-1.399051 -0.01548,-0.617027 0.0034,-1.234834 -0.03322,-1.851186 -0.02658,-0.705281 -0.09699,-1.398553 -0.25219,-2.088473 -0.124957,-0.574497 -0.295111,-1.104582 -0.182822,-1.704594 0.05779,-0.690004 0.142063,-1.378148 0.310118,-2.051306 0.122865,-0.54772 0.188273,-1.122021 0.427768,-1.632077 0.215696,-0.346242 0.242014,-0.743831 0.25427,-1.141788 0.07473,-0.430377 0.183306,-0.848009 0.339526,-1.257525 0.223759,-0.625634 0.365223,-1.272522 0.454941,-1.930842 0.03849,-0.784381 -0.181189,-1.55788 -0.294931,-2.332323 z" />
</svg>
