<?xml version="1.0" encoding="UTF-8" standalone="no"?>
<!-- Created with Inkscape (http://www.inkscape.org/) -->

<svg
   width="1000"
   height="1000"
   viewBox="0 0 264.58333 264.58333"
   version="1.1"
   id="svg1"
   xmlns="http://www.w3.org/2000/svg"
   xmlns:svg="http://www.w3.org/2000/svg">
  <defs
     id="defs1" />
  <path
     style="fill:#000000;stroke-width:26.4583"
     id="path3"
     d="m 51.3335,64.692294 c -0.128844,0.608401 -0.269592,1.213442 -0.380894,1.82617 -0.06962,0.644623 -0.140494,1.280554 -0.278353,1.917263 -0.233166,0.61531 -0.03567,1.416968 -0.337547,1.998477 -0.202647,0.548926 -0.326149,1.125308 -0.385649,1.70678 -0.142586,0.262422 0.101939,0.933122 -0.127584,1.114967 -0.271693,0.477502 -0.295077,1.098704 -0.342959,1.63971 -0.140059,0.586224 0.144902,1.341348 -0.125301,1.887506 -0.245205,0.47398 -0.315979,0.96914 -0.360823,1.496274 -0.127198,0.834877 -0.282702,1.664002 -0.382722,2.504419 -0.241766,1.017048 -0.2506,2.103856 -0.699622,3.058644 -0.33524,0.689235 -0.364575,1.389756 -0.323416,2.141877 -0.07932,1.305276 -0.29949,2.595528 -0.435269,3.895642 -0.07963,0.710552 -0.152334,1.426091 -0.130252,2.14167 0.04252,0.995543 0.07511,1.971051 -0.08117,2.959016 -0.196114,1.285131 -0.271499,2.594922 -0.282138,3.89491 -0.02765,1.428811 7.94e-4,2.846381 -0.171849,4.267341 -0.137764,0.89469 -0.323036,1.78374 -0.396741,2.68689 -0.236841,0.70089 -0.365281,1.41996 -0.389347,2.15926 -0.03681,0.97903 -0.08757,1.95756 -0.107408,2.93719 -0.01183,0.64298 -0.01148,1.28635 -0.029,1.92919 0.01603,0.55734 -2.65e-4,1.11469 0.0051,1.67205 -0.007,0.45106 -0.0084,0.902 -0.01783,1.35296 0.0075,0.39493 -0.008,0.78921 0.004,1.18417 0.0043,0.45268 -0.0013,0.90554 0.0078,1.3582 -0.0191,0.41481 -0.0034,0.82968 -0.0091,1.2446 0.03817,0.74411 0.302591,1.46749 0.540653,2.16852 0.195357,0.61514 0.341339,1.24986 0.392316,1.89406 0.04583,0.58086 0.32058,1.11383 0.55095,1.64074 0.214312,0.55699 0.540252,1.05392 0.837811,1.56717 0.266213,0.40995 0.51435,0.82618 0.746355,1.25679 0.293058,0.4341 0.571127,0.88168 0.909881,1.27954 0.458856,0.47267 0.943348,0.92132 1.426051,1.36985 0.331912,0.39269 0.721455,0.7013 1.092253,1.0376 0.344046,0.33826 0.782963,0.45743 1.201441,0.66634 0.595246,0.27176 1.190006,0.5556 1.772499,0.86525 0.50782,0.24098 1.009603,0.50884 1.579809,0.52497 0.582329,0.17586 1.149945,0.368 1.753036,0.46606 0.640284,0.086 1.244071,0.0414 1.866644,0.22118 0.783677,0.11532 1.537277,0.29541 2.297319,0.51384 0.498517,0.22266 1.043784,0.19619 1.559353,0.30593 0.54687,0.20374 1.113084,0.34947 1.689272,0.43891 3.663545,0.23815 8.285176,2.16087 11.062576,-0.40941 0.04921,-0.007 0.109381,0.0121 0.147635,-0.0196 0.07208,-0.0596 0.07669,-0.18477 0.157128,-0.23253 0.10074,-0.0598 0.232804,-0.0329 0.345268,-0.0658 0.50532,-0.1475 0.997296,-0.32298 1.508889,-0.45652 0.692976,-0.14975 1.400228,-0.22965 2.109251,-0.21679 0.354608,-0.31188 0.775221,-0.4416 1.229362,-0.48886 0.06601,0.004 0.137541,0.0374 0.19803,0.0107 0.08758,-0.0386 0.133975,-0.13872 0.213416,-0.19211 0.224539,-0.15091 0.555771,-0.26578 0.82224,-0.28016 0.06271,-0.007 0.135941,0.0159 0.188124,-0.0195 0.07961,-0.054 0.106281,-0.16266 0.176914,-0.22794 0.12601,-0.11645 0.397253,-0.13916 0.502846,-0.26988 0.06295,-0.0779 0.08657,-0.1807 0.129852,-0.27105 0.346668,-0.13993 0.531323,-0.51525 0.89022,-0.59567 0.407059,-0.0831 0.69102,-0.38815 1.017881,-0.62898 0.03333,-0.025 0.06666,-0.0499 0.09999,-0.0749 0.03519,0.0249 0.06876,0.0969 0.105579,0.0745 0.128585,-0.0781 0.122931,-0.29344 0.24791,-0.37722 0.03705,-0.0249 0.08903,-0.006 0.133543,-0.009 0.06353,-0.049 0.127055,-0.098 0.190582,-0.14693 0.537699,-0.17593 0.934879,-0.55518 1.432256,-0.82677 0.0657,-0.20613 0.358282,0.0239 0.460512,-0.0558 0.07368,-0.0575 0.08469,-0.1698 0.149246,-0.2374 0.103093,-0.10794 0.26447,-0.13848 0.396047,-0.20895 0.342771,-0.2648 0.810927,-0.24787 1.18682,-0.42721 0.181216,-0.0865 0.334434,-0.22232 0.503659,-0.33038 0.466524,-0.1734 0.841983,-0.36351 1.217157,-0.71958 0.536705,-0.23592 0.993624,-0.60382 1.475272,-0.93262 0.345625,-0.32729 0.683413,-0.65976 1.007488,-1.00866 0.188756,-0.10732 0.303168,-0.40155 0.505365,-0.48872 0.04525,-0.0195 0.106061,0.0342 0.14764,0.008 0.131358,-0.0836 0.192154,-0.24508 0.291565,-0.36491 0.140563,-0.11828 0.215776,-0.3403 0.373804,-0.43846 0.04784,-0.0297 0.119909,-0.003 0.164965,-0.0365 0.141182,-0.10588 0.222909,-0.2737 0.337653,-0.40778 0.319006,-0.30923 0.519261,-0.64141 0.694915,-1.04382 0.09529,-0.16259 0.216265,-0.5103 0.39801,-0.60335 0.373012,-0.19097 -0.183274,0.43637 0.279104,-0.18164 0.357904,-0.34407 0.520377,-0.80358 0.784569,-1.21208 0.412305,-0.41469 0.829553,-0.81546 1.203628,-1.26985 0.22706,-0.35782 0.59954,-0.6076 0.84734,-0.94469 0.40207,-0.54693 -0.052,-0.0967 0.34657,-0.4622 0.2914,-0.16651 0.30049,-0.46953 0.43176,-0.73956 0.11543,-0.23743 0.27715,-0.47369 0.39826,-0.71602 0.23082,-0.50436 0.65202,-0.86783 0.91336,-1.34048 0.45742,-0.32247 0.54707,-0.90705 0.80092,-1.36996 0.26453,-0.35335 0.37889,-0.77318 0.50685,-1.18918 0.006,-0.07 -0.008,-0.14505 0.0194,-0.20986 0.033,-0.0788 0.20781,-0.0156 0.23766,-0.0956 0.0834,-0.44688 0.0236,-0.24475 0.16328,-0.61095 0.17453,-0.5976 0.4895,-1.13506 0.71321,-1.71074 0.0658,-0.5873 0.39277,-1.08293 0.52389,-1.64081 0.31767,-0.56734 0.54367,-1.18281 0.66285,-1.8216 0.13187,-0.42284 0.34002,-0.81491 0.46762,-1.25944 0.25566,-0.36001 0.3958,-0.75396 0.53221,-1.16932 0.0558,-0.50053 0.11258,-1.04616 0.40514,-1.47018 0.26815,-0.6527 0.57852,-1.28381 0.84032,-1.94021 0.42502,-0.46439 0.26933,-1.31753 0.71448,-1.734344 0.26866,-0.394068 0.36854,-0.858441 0.5185,-1.304349 0.26359,-0.39906 0.22358,-0.944118 0.48759,-1.331753 0.26401,-0.437007 0.36418,-0.995447 0.42459,-1.501341 -0.003,-0.414917 0.11362,-0.685819 0.27287,-1.049243 0.19801,-0.46754 0.43175,-0.9174 0.58867,-1.419415 2.0504,-2.721438 0.34422,-0.403225 -9.79421,0.03672 -0.099,0.0043 0.0477,0.192775 0.0608,0.290996 0.065,0.486694 0.0512,0.96428 0.0171,1.451949 -0.14119,0.856094 -0.28929,1.710833 -0.44562,2.564297 -0.0647,0.616955 0.13659,1.234712 0.28471,1.83039 0.0795,0.339532 0.0908,0.685723 0.11452,1.031393 0.0338,0.65591 0.051,1.31272 0.0618,1.96964 0.0245,0.73286 -0.0329,1.46498 -0.0398,2.19723 -0.0256,0.4447 -0.0132,0.89007 -0.003,1.33516 0.005,0.58023 0.007,1.15932 0.0144,1.73975 0.0673,0.60804 0.25234,1.1918 0.38009,1.78767 0.10631,0.56915 0.088,1.15015 0.0969,1.72622 0.0217,0.59203 0.007,1.1844 -0.0121,1.77621 -0.0452,0.60547 0.13127,1.17759 0.29924,1.75028 0.12818,0.56947 0.17128,1.14065 0.33332,1.70305 0.18578,0.60111 0.26285,1.22531 0.31825,1.84953 0.0793,0.51668 0.25555,1.01162 0.41233,1.50883 0.053,0.63333 0.12013,1.2494 0.25032,1.87293 0.14463,0.61616 0.24931,1.2419 0.28537,1.87401 -0.0272,0.52847 0.1253,1.00201 0.3285,1.48073 0.1459,0.52808 0.15665,1.07643 0.17951,1.61968 -0.01,0.48107 -0.0482,0.94932 0.13209,1.40456 0.21089,0.41762 0.27628,0.8806 0.32763,1.33973 0.0209,0.51315 -0.006,1.02203 0.0782,1.52959 0.15992,0.46255 0.29757,0.93297 0.36372,1.41869 0.0414,0.58648 0.19157,1.15499 0.35963,1.71627 0.11215,0.60403 0.27035,1.19528 0.41751,1.79154 0.10696,0.69966 0.36526,1.35817 0.53996,2.04015 0.12907,0.50459 0.17389,1.02596 0.18099,1.54536 0.003,0.60315 0.26626,1.15513 0.37165,1.74292 0.0664,0.65975 0.15115,1.29956 0.34523,1.93577 0.19225,0.6151 0.20771,1.26282 0.3144,1.89362 0.13583,0.52242 0.27874,1.04133 0.34943,1.57719 0.0456,0.2713 0.0392,0.54719 0.0585,0.82132 0.0438,0.59387 0.0182,1.18927 0.0206,1.78393 0.0904,0.62253 0.28857,1.22252 0.3847,1.8455 0.009,0.49736 0.18129,0.9381 0.36505,1.39094 0.17396,0.47828 0.27434,0.98483 0.42392,1.47593 0.14701,0.41692 0.18183,0.85821 0.28383,1.28541 0,0 9.89977,-0.37439 9.89977,-0.37439 v 0 c -0.27932,-0.27265 -0.109,-0.88476 -0.31173,-1.2265 -0.18978,-0.52978 -0.31259,-1.0382 -0.38061,-1.59636 -0.20492,-0.37894 -0.40122,-0.68474 -0.3928,-1.129 -0.11172,-0.5613 -0.2408,-1.12245 -0.40102,-1.67004 0.004,-0.59679 -0.0178,-1.19428 0.0258,-1.79025 0.0191,-0.33924 -0.005,-0.67112 -0.0505,-1.00842 -0.13632,-0.53384 -0.2581,-1.07036 -0.42367,-1.59599 -0.18553,-0.63301 -0.0711,-1.33353 -0.30053,-1.96665 -0.17458,-0.60856 -0.35136,-1.18852 -0.34811,-1.8342 -0.10423,-0.53797 -0.26063,-1.07123 -0.33763,-1.59777 -0.0354,-0.59552 -0.0746,-1.19024 -0.22214,-1.77138 -0.19641,-0.67841 -0.44929,-1.33127 -0.5501,-2.03138 -0.16865,-0.59854 -0.27245,-1.19634 -0.3837,-1.80455 -0.13788,-0.53357 -0.38136,-1.02955 -0.33314,-1.59805 -0.0852,-0.51684 -0.20423,-1.02662 -0.3697,-1.5243 -0.22115,-0.35675 0.0322,-0.95067 -0.10541,-1.35092 -0.0271,-0.56782 -0.11222,-1.12409 -0.29368,-1.66481 -0.0239,-0.0503 -0.0346,-0.10943 -0.0717,-0.15099 -0.0133,-0.0149 -0.0534,0.0228 -0.0596,0.004 -0.0883,-0.26843 0.0605,-0.61514 -0.0271,-0.88881 -0.015,-0.61649 -0.0682,-1.23443 -0.18475,-1.84035 -0.0797,-0.47613 -0.36626,-0.81736 -0.31725,-1.3115 -0.0747,-0.67448 -0.17568,-1.34263 -0.33816,-2.00259 -0.14042,-0.60644 -0.13615,-1.21689 -0.19601,-1.83443 -0.0495,-0.49628 -0.25873,-0.94186 -0.43983,-1.40312 -0.0361,-0.69357 -0.15691,-1.37281 -0.32565,-2.04645 -0.14746,-0.56203 -0.19805,-1.1229 -0.31028,-1.6922 -0.11997,-0.50453 -0.35913,-0.96259 -0.27746,-1.49381 -0.0166,-0.59584 -0.027,-1.192 -0.0111,-1.78804 -0.003,-0.63187 -0.0328,-1.26411 -0.0815,-1.89398 -0.086,-0.55245 -0.29982,-1.06395 -0.40766,-1.61027 0.008,-0.58043 0.01,-1.15951 0.0143,-1.73975 0.01,-0.44493 0.0222,-0.89013 -0.003,-1.33469 -0.006,-0.73201 -0.0624,-1.46396 -0.0361,-2.19655 0.0126,-0.66845 0.0387,-1.33595 0.0539,-2.0042 -0.002,-0.410088 -0.054,-0.82024 -0.15282,-1.218237 -0.10248,-0.492432 -0.34532,-0.977185 -0.29088,-1.48682 0.0575,-0.870622 0.20504,-1.73077 0.31337,-2.59587 0.56785,-4.953923 -1.17018,-2.662036 -9.88793,-2.350968 -0.0117,0.05711 -0.0234,0.114212 -0.0351,0.17132 -0.15601,0.467249 -0.44723,0.871231 -0.59682,1.342253 -0.16189,0.421399 -0.27748,0.83544 -0.27101,1.291597 -0.0793,0.438166 -0.19244,0.844778 -0.4211,1.231689 -0.15964,0.463507 -0.25836,0.946438 -0.47265,1.39225 -0.16034,0.401336 -0.28288,0.811795 -0.522615,1.178526 -0.210666,0.624946 -0.357777,1.26826 -0.687612,1.8491 -0.237035,0.63769 -0.554323,1.24376 -0.842936,1.85914 -0.196588,0.52544 -0.356111,1.0609 -0.469895,1.60977 -0.125468,0.41477 -0.387675,0.77017 -0.51141,1.18817 -0.139094,0.44966 -0.41602,0.8543 -0.43829,1.33854 -0.148254,0.59969 -0.401167,1.15296 -0.649497,1.71688 -0.235715,0.50292 -0.34975,1.03049 -0.524677,1.55322 -0.266887,0.55956 -0.464941,1.14243 -0.716282,1.70817 -0.167479,0.35307 -0.466942,0.60356 -0.496443,1.04852 -0.08681,0.36205 -0.27364,0.67173 -0.4395,1.00287 -0.212333,0.46111 -0.472844,0.85534 -0.800949,1.24404 -0.373848,0.43821 -0.615439,0.97205 -0.913315,1.46189 -0.224412,0.4432 -0.45942,0.86812 -0.812369,1.22083 -0.352819,0.50513 -0.798742,0.93689 -1.202065,1.40174 -0.412229,0.45865 -0.852408,0.89759 -1.197417,1.41319 -0.229344,0.36889 -0.483005,0.7035 -0.807112,0.99662 -0.351541,0.24159 -0.491953,0.72999 -0.699272,1.0894 -0.176776,0.28074 -0.462587,0.49014 -0.667269,0.75477 -0.307335,0.27787 -0.612068,0.54522 -0.892048,0.85835 -0.08276,0.0629 -0.192198,0.0865 -0.271237,0.15401 -0.232101,0.19837 -0.3731,0.51787 -0.633408,0.69272 -0.326247,0.29718 -0.643596,0.61423 -1.022707,0.844 -0.465222,0.34229 -0.976164,0.60219 -1.444569,0.93919 -0.411343,0.20078 -0.841002,0.32469 -1.212131,0.60256 -0.556175,0.24996 -1.158523,0.40488 -1.670341,0.75826 -0.159906,0.0885 -0.290388,0.25005 -0.470389,0.28176 -0.04284,0.008 -0.06946,-0.0693 -0.112792,-0.0656 -0.188007,0.0161 -0.29546,0.27159 -0.467085,0.32924 -0.466574,0.3174 -0.941639,0.58182 -1.424024,0.87164 -0.504341,0.29593 0.03931,-0.0541 -0.38054,0.31162 -0.339632,0.29583 0.142642,-0.18535 -0.219043,0.0135 -0.09478,0.0521 -0.110884,0.19893 -0.223136,0.2356 -0.316421,0.22129 -0.672632,0.32619 -0.977943,0.56169 -0.305474,0.29373 -0.667747,0.51396 -0.937937,0.84498 -0.240829,-0.0663 -0.374341,0.2175 -0.600864,0.25875 -0.04815,0.009 -0.09048,-0.0505 -0.139266,-0.0465 -0.06679,0.005 -0.124878,0.0486 -0.187317,0.073 -0.405037,0.21547 -0.797131,0.36092 -1.237332,0.40471 -0.373544,0.14304 -0.767087,0.43631 -1.177964,0.31725 -0.68711,0.0941 -1.366443,0.23656 -2.025653,0.45557 -0.806495,0.26899 -1.639991,0.571 -2.341504,1.00297 -3.874722,0.77988 13.343533,-0.084 8.585904,-0.0372 -0.556932,0.002 -1.115624,-0.0521 -1.654345,-0.19959 -0.187767,-0.0847 -0.356139,-0.21694 -0.554281,-0.27328 -0.32195,-0.0915 -0.728699,0.0672 -1.045241,-0.10058 -0.7873,-0.1768 -1.515454,-0.50718 -2.325206,-0.55483 -0.38857,-0.0436 -0.587359,-0.22494 -0.947621,-0.31462 -0.277469,-0.0691 -0.601478,0.0551 -0.882703,-0.005 -0.590722,-0.0377 -1.194361,-0.0262 -1.732585,-0.30978 -0.492365,-0.25975 -1.093364,-0.0908 -1.601353,-0.37722 -0.60044,-0.21131 -1.107599,-0.62307 -1.699101,-0.81495 -0.410348,-0.21791 -0.761839,-0.39696 -1.192128,-0.53976 -0.706504,-0.31856 0.434681,0.22856 -0.348086,-0.28342 -0.04637,-0.0303 -0.115956,0.009 -0.165534,-0.0153 -0.241811,-0.12075 -0.386993,-0.43495 -0.61649,-0.5728 -0.452731,-0.45543 -0.920961,-0.89564 -1.393298,-1.33048 -0.349554,-0.31745 -0.550921,-0.69989 -0.8728,-1.05583 -0.271915,-0.42468 -0.451194,-0.88732 -0.764362,-1.28063 -0.314757,-0.46355 -0.61594,-0.9511 -0.854451,-1.44889 -0.214082,-0.42509 -0.414663,-0.89132 -0.49503,-1.3402 -0.127262,-0.70072 -0.291545,-1.38793 -0.496792,-2.07067 -0.186979,-0.60371 -0.418309,-1.22607 -0.430525,-1.86073 -0.0057,-0.41491 0.01,-0.82979 -0.0091,-1.24459 0.009,-0.45267 0.0034,-0.90552 0.0078,-1.3582 0.01193,-0.39495 -0.0035,-0.78923 0.004,-1.18416 -0.0094,-0.45105 -0.01077,-0.90209 -0.01799,-1.35324 0.0052,-0.55797 -0.0117,-1.11591 0.0024,-1.67389 -0.02016,-0.63998 -0.02408,-1.28066 -0.03143,-1.92086 -0.0074,-0.95102 -0.03197,-1.90544 0.06555,-2.85315 0.11955,-0.737 0.298559,-1.45265 0.466043,-2.17897 0.05387,-0.88491 0.126587,-1.76782 0.223816,-2.64926 0.14908,-1.44601 0.164629,-2.89163 0.171014,-4.344581 0.07152,-1.269116 0.113313,-2.538494 0.340976,-3.792966 0.120748,-1.026046 0.192635,-2.051148 0.19031,-3.084539 0.0324,-0.688321 -0.0013,-1.378754 0.04034,-2.067306 0.08261,-1.31813 0.222486,-2.631191 0.413438,-3.938307 0.09232,-0.628658 0.180404,-1.250561 0.42087,-1.84419 0.282673,-1.056685 0.31835,-2.155585 0.571937,-3.220001 0.207187,-0.847764 0.402312,-1.709467 0.542189,-2.568151 0.07087,-0.477203 0.237699,-0.915612 0.373626,-1.378178 0.0917,-0.667282 0.0098,-1.344641 0.102386,-2.014188 0.0626,-0.505481 0.1675,-0.977516 0.390642,-1.437759 0.08822,-0.430332 0.06124,-0.863574 0.09664,-1.301702 0.07534,-0.529882 0.19508,-1.045988 0.388294,-1.5469 0.131551,-0.687165 0.0996,-1.395471 0.271145,-2.078464 0.125709,-0.651645 0.305986,-1.292891 0.33572,-1.959139 0.09097,-0.670472 0.283683,-1.318032 0.406857,-1.98248 z" />
  <path
     style="fill:#000000;stroke-width:26.4583"
     id="path4"
     d="m 129.21416,149.69722 c 1.02792,-1.52894 2.51823,-2.63732 3.70198,-4.0336 1.08756,-1.31844 2.18857,-2.62607 3.36102,-3.87019 0.6361,-0.91799 1.19192,-1.89297 1.78579,-2.84097 0.74979,-1.38871 1.65373,-2.68828 2.56623,-3.97374 0.93273,-1.30139 1.92687,-2.5363 2.6664,-3.9636 0.83843,-1.47937 1.60915,-2.99261 2.40065,-4.49862 0.90699,-1.90284 1.99104,-3.70751 2.99891,-5.55571 1.25508,-2.1997 2.80721,-4.20004 4.24969,-6.27393 1.11448,-1.30025 1.99473,-2.76637 2.92256,-4.19963 0.97522,-1.44146 1.95121,-2.8818 2.93281,-4.31876 0.57687,-0.89315 1.15099,-1.78033 1.71874,-2.67883 0.52575,-0.79472 0.963,-1.62994 1.45573,-2.44796 0.55062,-0.86622 1.11698,-1.7205 1.64173,-2.602817 0.70512,-1.045837 1.14269,-2.236452 1.66089,-3.379737 0.56175,-1.285388 1.08004,-2.616126 1.85095,-3.793911 0.4262,-0.521417 0.58473,-1.183235 0.90215,-1.754052 0.26473,-0.6267 0.55822,-1.253477 0.92816,-1.827372 0.85797,-1.837486 1.53077,-3.748264 2.35529,-5.602224 1.17053,-2.685669 2.53425,-5.279416 3.90826,-7.864702 0.72633,-1.371031 1.37618,-2.77073 1.9089,-4.22729 0.39317,-1.016691 0.8294,-2.014366 1.20286,-3.0382 0.35738,-0.484598 0.35287,-1.226637 0.72566,-1.681663 0.36482,-0.391339 0.3448,-0.988705 0.50601,-1.474591 0.34518,-0.411636 0.18037,-1.094679 0.49351,-1.487943 0.18849,-0.09637 0.17957,-0.259482 0.29081,-0.406791 0.0236,-0.03124 0.0742,-0.0249 0.11135,-0.03735 0.0409,-0.07424 0.0819,-0.148479 0.12278,-0.222719 0,0 -9.88699,-0.610293 -9.88699,-0.610293 v 0 c -0.24117,0.249322 -0.39965,0.571543 -0.52733,0.892334 -0.14324,0.529773 -0.25628,1.064083 -0.46625,1.575104 -0.13784,0.463966 -0.25321,0.909333 -0.52607,1.315784 -0.21781,0.610552 -0.41793,1.22665 -0.67049,1.824365 -0.2985,1.015474 -0.72772,1.987026 -1.03503,3.0001 -0.55951,1.409777 -1.23234,2.762038 -1.82193,4.158533 -1.09136,2.676385 -2.36731,5.271434 -3.61343,7.877836 -0.91253,1.847144 -1.82092,3.695952 -2.87593,5.466863 -0.37433,0.628132 -0.69915,1.283994 -1.01295,1.944336 -0.22908,0.573902 -0.4647,1.144013 -0.77691,1.680723 -0.61409,1.273911 -1.16592,2.577981 -1.74361,3.868661 -0.55024,1.129472 -1.08931,2.25661 -1.80531,3.293578 -0.49324,0.894742 -1.09528,1.723639 -1.61985,2.599688 -0.45667,0.82029 -0.98471,1.59388 -1.46826,2.39812 -0.58166,0.87272 -1.02703,1.81853 -1.61979,2.68502 -0.89381,1.45995 -1.83762,2.89049 -2.78724,4.31455 -0.96614,1.40788 -2.00738,2.75985 -2.93895,4.19169 -1.3771,2.09174 -2.72122,4.20069 -4.03134,6.33654 -1.18922,1.8017 -2.3412,3.6384 -3.27723,5.58478 -0.82551,1.4806 -1.50709,3.04069 -2.42638,4.46909 -0.84554,1.30948 -1.66842,2.63098 -2.60013,3.88316 -0.92513,1.32696 -1.91154,2.6185 -2.72372,4.01894 -0.56487,0.91271 -1.12345,1.83429 -1.7765,2.68729 -1.03515,1.30148 -2.06122,2.61153 -3.15313,3.86635 -1.33088,1.38142 -2.7444,2.68247 -4.04086,4.09867 z" />
</svg>
