<?xml version="1.0" encoding="UTF-8" standalone="no"?>
<!-- Created with Inkscape (http://www.inkscape.org/) -->

<svg
   width="1000"
   height="1000"
   viewBox="0 0 264.58333 264.58333"
   version="1.1"
   id="svg1"
   xmlns="http://www.w3.org/2000/svg"
   xmlns:svg="http://www.w3.org/2000/svg">
  <defs
     id="defs1" />
  <path
     style="fill:#000000;stroke-width:0.264583"
     id="path1"
     d="m 171.33804,188.35232 c -0.0993,-1.49488 -0.20336,-2.99226 -0.36708,-4.48227 -0.17953,-1.76019 -0.51514,-3.49717 -0.74047,-5.25111 -0.27237,-2.76175 -0.25709,-5.53626 -0.3364,-8.3068 -0.003,-0.7498 -0.0182,-1.49966 -0.008,-2.24938 0.0331,-2.3606 0.17448,-4.72044 0.23657,-7.08032 0.0681,-2.58689 0.0496,-3.04861 0.0499,-5.7203 0.13834,-6.70862 0.10888,-13.41916 0.384,-20.12425 0.35099,-6.15786 0.39051,-12.32785 0.54878,-18.49252 0.26685,-4.42989 0.50861,-8.85664 0.64249,-13.29277 0.21113,-3.425567 0.60627,-6.835776 0.84754,-10.259466 0.10381,-2.380311 0.21876,-4.756571 0.17853,-7.139371 -0.0828,-1.580473 -0.24783,-3.154217 -0.30985,-4.736386 -0.0929,-1.226574 -0.14285,-2.456275 -0.0882,-3.685555 0.0638,-0.975294 0.23048,-1.938505 0.33541,-2.908954 0.0341,-0.522335 0.23052,-1.009253 0.34627,-1.515525 0.1584,-1.075791 -0.23451,-0.871255 -1.40241,-1.725906 0,0 -8.84143,-4.301615 -8.84143,-4.301615 v 0 c -1.17728,-0.584411 -1.39786,-1.079367 -1.43242,-0.138192 -0.0241,0.567439 -0.16748,1.123265 -0.26714,1.680298 -0.017,1.003146 -0.0588,2.003803 -0.16862,3.00188 -0.0897,1.27689 -0.0318,2.561603 0.005,3.840141 0.18706,1.626151 0.42963,3.244906 0.65243,4.866352 0.19305,2.393132 0.23708,4.793837 0.168,7.194119 -0.0287,3.513103 -0.13053,7.025322 -0.32342,10.533459 -0.18589,4.524961 -0.14197,9.053151 -0.14595,13.581101 0.0482,6.31936 0.19273,12.63358 0.3686,18.9507 0.0297,6.72125 -0.22483,13.44109 -0.29806,20.16179 -0.13089,2.71312 -0.27019,5.42511 -0.30049,8.14178 -0.018,1.61166 0.0233,3.03109 -0.0251,4.63968 -0.022,0.72992 -0.0733,1.45867 -0.10991,2.188 -0.21685,2.73066 -0.3125,5.47558 -0.12418,8.21148 0.11201,1.79296 0.41082,3.54982 0.77474,5.3082 0.23785,1.59363 0.67801,3.14181 0.89914,4.73932 z" />
  <circle
     id="path2"
     style="fill:#000000;stroke:#000000;stroke-width:0.264583"
     cx="86.567238"
     cy="78.431221"
     r="0.21674353" />
  <path
     style="fill:#000000;stroke-width:0.264583"
     id="path7"
     d="m 100.82965,83.870566 c 2.11609,-1.626206 4.65327,-2.493999 7.08932,-3.516326 2.00323,-0.861837 4.04427,-1.634643 6.03026,-2.537036 1.36942,-0.622234 3.03411,-1.488191 4.42729,-2.060991 0.75629,-0.310941 1.53446,-0.565729 2.30169,-0.848595 2.64235,-0.624774 2.23207,-0.622136 4.92468,-0.885214 1.91785,-0.18738 2.56712,-0.265274 4.46567,0.102735 1.51093,0.292875 2.14633,0.627999 3.51248,1.193231 4.37854,2.894656 -1.28125,-0.89649 -6.71528,-3.572025 -0.3974,-0.19567 0.64072,0.613399 0.93338,0.945922 1.05556,1.199369 1.39505,2.081731 1.94381,3.559064 1.00311,4.173527 -0.37054,7.496003 -2.02519,11.264775 -1.26592,2.677076 -2.86807,5.18626 -4.69963,7.510857 -0.87343,1.108554 -1.80167,2.172811 -2.69802,3.262916 -1.571,2.093441 -3.22296,4.172181 -4.2495,6.604011 -0.65902,1.56118 -0.65362,1.88068 -1.01833,3.51722 -0.34572,4.41407 1.00497,7.09925 3.36567,10.67319 0.37272,0.47845 0.73248,0.96728 1.11813,1.43536 0.21794,0.26451 2.1575,2.47402 2.41585,2.76572 0.9653,1.08992 1.37521,1.58476 2.4597,2.57829 0.45066,0.41286 0.93035,0.79286 1.39553,1.18929 0.47316,0.35607 0.93298,0.73059 1.41948,1.06819 0.54102,0.37544 1.09169,0.73862 1.66105,1.06952 5.20566,3.02544 9.89771,6.33783 15.53826,8.19227 0.66591,0.21893 1.3457,0.39316 2.01856,0.58974 2.65348,0.74377 5.18864,1.82475 7.81602,2.64473 0,0 -8.43463,-6.61224 -8.43463,-6.61224 v 0 c -2.79004,-1.21196 -5.62284,-2.3022 -8.55723,-3.12122 -1.64764,-0.51937 -2.22878,-0.65644 -3.82622,-1.34807 -0.63968,-0.27696 -2.48014,-1.2673 -1.88727,-0.9007 2.64091,1.63295 5.35608,3.14265 8.03947,4.70481 0.54707,0.31848 -1.09728,-0.63244 -1.63042,-0.97373 -0.5088,-0.32572 -0.99588,-0.68419 -1.49382,-1.02629 -1.38344,-1.0659 -1.58824,-1.16818 -2.86289,-2.37411 -1.83156,-1.73281 -3.4419,-3.68406 -5.14867,-5.53509 -0.39037,-0.49399 -0.80598,-0.96905 -1.17111,-1.48198 -1.86615,-2.62155 -2.82442,-5.16483 -2.64623,-8.4093 0.0986,-0.55321 0.15638,-1.11529 0.2959,-1.65963 0.78081,-3.04649 2.65327,-5.65534 4.49759,-8.13848 2.77026,-3.51622 5.54301,-6.979539 7.37565,-11.107661 1.13373,-2.579581 2.46969,-5.326255 2.77767,-8.160564 0.16317,-1.501659 0.0289,-2.143509 -0.11131,-3.619519 -0.30964,-1.27164 -0.32577,-1.726237 -0.95469,-2.861297 -0.19832,-0.357941 -1.37486,-2.002618 -1.70805,-2.223288 -8.03374,-5.320665 -6.91079,-4.732729 -11.53271,-6.904942 -0.48973,-0.126836 -0.96916,-0.303721 -1.46919,-0.380506 -1.29789,-0.199305 -2.08886,-0.08808 -3.38636,0.133046 -2.13452,0.363778 -4.14628,1.037021 -6.04957,2.08361 -4.00413,1.891958 -7.98517,3.832892 -11.75924,6.160592 -1.66431,0.955427 -1.19514,0.680006 -2.831367,1.643216 -0.428159,0.25205 -0.841833,0.530223 -1.283362,0.758042 -0.928642,0.479161 -1.93672,0.766575 -2.87179,1.228916 z" />
  <path
     style="fill:#000000;stroke-width:0.264583"
     id="path8"
     d="m 143.19506,134.61334 c 0.56891,0.52835 1.26809,0.92515 1.94017,1.31138 1.30891,0.75219 2.61989,1.50077 3.92984,2.25116 1.10187,0.59978 2.21176,1.18176 3.27774,1.84491 0.95862,0.64597 2.05822,1.03388 3.1186,1.47905 1.01178,0.61195 2.18015,0.79796 3.20169,1.37694 0.59756,0.2219 1.1628,0.55961 1.79708,0.66288 0.0426,0.0446 0.0682,0.11737 0.12765,0.13389 0.0754,0.021 0.15502,-0.046 0.23232,-0.0338 0.27315,0.0431 0.57089,0.30588 0.87952,0.37296 0.13254,0.20722 0.42745,0.15084 0.60052,0.27843 0.0636,0.0469 0.2131,0.22719 0.14434,0.18819 -9.27282,-5.25904 -10.94915,-6.0492 -8.06498,-4.68612 0.018,0.05 0.11691,0.0192 0.13606,0.0658 0.0247,0.0602 -0.0336,0.16117 0.0227,0.19389 0.92112,0.53585 5.50649,4.5384 8.82255,4.85645 0.0918,-0.004 0.17487,-0.32079 0.22037,-0.42469 0,0 -8.21277,-5.17076 -8.21277,-5.17076 v 0 c 0.081,-0.19163 0.15054,-0.25039 0.0637,-0.43222 -2.64593,-1.83037 -6.26652,-3.87588 8.33167,4.71469 0.0469,0.0276 -0.066,0.10051 -0.11927,0.11154 -0.0725,0.015 0.0317,-0.28073 -0.10914,-0.19328 -2.46666,-2.58131 -5.85276,-4.55551 -9.33018,-5.22986 -0.16575,-0.0512 -0.33427,0.0466 -0.49135,-0.003 -0.0454,-0.0143 -0.0614,-0.0812 -0.10712,-0.0946 -0.0628,-0.0185 -0.13097,0.004 -0.19646,0.005 -0.43084,-0.13026 -0.86208,-0.2439 -1.27391,-0.43893 -0.67374,-0.0345 -1.31885,-0.23087 -1.96959,-0.39469 -0.73578,-0.22088 -1.44399,-0.48899 -2.14056,-0.81147 -0.71063,-0.26011 -1.42474,-0.53048 -2.08987,-0.89181 6.05854,3.53304 1.71,1.02361 0.32712,0.15829 z" />
</svg>
