<?xml version="1.0" encoding="UTF-8" standalone="no"?>
<!-- Created with Inkscape (http://www.inkscape.org/) -->

<svg
   width="1000"
   height="1000"
   viewBox="0 0 264.58333 264.58333"
   version="1.1"
   id="svg1"
   xmlns="http://www.w3.org/2000/svg"
   xmlns:svg="http://www.w3.org/2000/svg">
  <defs
     id="defs1" />
  <path
     id="path1"
     style="fill:#000000;stroke-width:26.4583"
     d="M 99.401683 31.45286 C 100.94254 31.446317 102.49308 31.478589 104.04171 31.47198 L 104.13938 31.456477 C 106.20455 31.447112 102.80205 31.449117 99.401683 31.45286 z M 99.401683 31.45286 C 98.441812 31.453917 97.524503 31.455146 96.797191 31.455961 C 96.856723 31.456154 96.916459 31.456612 96.975992 31.456994 C 97.416349 31.455429 97.856484 31.455555 98.296841 31.455444 C 98.66464 31.455443 99.033081 31.454425 99.401683 31.45286 z M 104.13938 31.456477 C 104.04567 31.456902 104.47339 31.455998 104.35435 31.456477 C 104.28325 31.456327 104.21252 31.456226 104.14145 31.455961 L 104.13938 31.456477 z M 104.04171 31.47198 L 94.355997 33.005737 C 94.428977 33.005587 94.502128 33.005485 94.575105 33.00522 C 96.756479 33.014556 98.937967 33.013985 101.11941 33.011421 C 101.31222 33.027501 101.50454 33.055373 101.69663 33.103405 C 101.72853 33.114095 102.1659 33.25943 102.19738 33.277038 C 102.27758 33.321898 102.32883 33.41213 102.41339 33.448087 C 102.57403 33.516387 102.79896 33.347166 102.95651 33.461006 C 103.24312 33.516126 103.52012 33.547584 103.75181 33.750911 C 103.82821 33.817951 103.86665 33.924396 103.94973 33.982938 C 104.01193 34.026728 104.09571 34.024647 104.16883 34.045467 C 104.44673 34.121147 104.5823 34.292745 104.83391 34.405135 C 104.96653 34.464375 105.12594 34.425353 105.26489 34.467663 C 105.34759 34.492823 105.42196 34.53925 105.50054 34.57515 C 106.04247 34.830061 106.62641 35.063267 107.08959 35.440214 C 107.31143 35.473064 107.5651 35.536792 107.75414 35.668107 C 107.83124 35.721637 107.8725 35.822629 107.95723 35.862927 C 108.06633 35.914817 108.21979 35.774013 108.31587 35.914603 C 108.40781 35.941051 108.46853 35.981944 108.51741 36.029325 L 106.44053 36.259802 C 107.17059 36.58134 107.86184 36.981022 108.56495 37.356376 C 109.03406 37.61726 109.53509 37.691119 109.99018 37.987862 C 110.31355 38.18723 110.63414 38.399062 110.9462 38.621931 C 111.06442 38.810645 111.18338 38.998865 111.31155 39.18107 L 111.65313 39.154199 C 112.0149 39.423813 112.40093 39.662586 112.79363 39.892655 C 113.05585 40.285895 113.49695 40.523591 113.7791 40.871923 C 114.07466 41.160647 114.4077 41.423304 114.66897 41.749389 C 114.97503 42.069112 115.28446 42.398133 115.5516 42.753979 C 115.65483 42.870774 115.78859 43.20428 115.96915 43.254207 C 116.0735 43.283057 116.05559 43.163078 116.1712 43.277978 C 116.2079 43.363628 116.22705 43.459004 116.28127 43.53481 C 116.30347 43.56592 116.35548 43.557648 116.38669 43.579768 C 116.58796 43.722344 116.64403 43.924299 116.73344 44.147692 C 116.93838 44.3963 117.09267 44.65601 117.2409 44.94661 C 117.46761 45.327776 117.72578 45.687484 117.96076 46.065921 C 118.15128 46.376216 118.22422 46.736915 118.41913 47.052425 C 118.5897 47.413084 118.64304 47.819255 118.65839 48.214627 C 118.70369 48.617302 118.96151 48.926935 119.078 49.307067 C 119.1303 49.729686 119.16435 50.149683 119.38134 50.526114 C 119.5524 50.845374 119.60139 51.196687 119.6852 51.54414 C 119.9035 51.989127 120.02001 52.4518 120.08724 52.939404 C 120.09894 53.481379 120.35125 53.968464 120.48877 54.484529 C 120.55317 55.084681 120.66002 55.660657 120.835 56.238944 C 121.09906 56.884353 121.07435 57.536396 121.00088 58.216084 C 120.86888 59.324771 120.76495 60.434464 120.69806 61.549214 C 120.66586 62.609458 120.67219 63.669653 120.66809 64.730415 C 120.64119 65.709371 120.65222 66.687749 120.67842 67.66667 C 120.71002 69.166395 120.73133 70.665496 120.74353 72.16562 C 120.73853 73.389694 120.68095 74.612345 120.64845 75.83568 C 120.66755 76.625102 120.62886 77.414022 120.63346 78.203494 C 120.60976 78.758045 120.61033 79.313068 120.61693 79.867992 C 120.66923 80.541643 120.61994 81.216587 120.61641 81.890608 C 120.60281 82.417753 120.62327 82.945098 120.61227 83.472423 C 120.60927 83.974406 120.61711 84.476355 120.60711 84.978274 C 120.61311 85.409768 120.59231 85.840238 120.60401 86.271736 C 120.60701 86.726526 120.60121 87.181742 120.61021 87.63651 C 120.56111 88.183388 120.6526 88.698222 120.82363 89.215742 C 120.98678 89.565365 121.04676 89.944041 121.06909 90.325752 C 121.10859 90.760531 121.07935 91.196795 121.08615 91.632132 C 121.08215 92.020808 121.08388 92.409316 121.07788 92.797952 C 121.08688 93.189183 121.07208 93.579723 121.08408 93.971007 C 121.13308 94.450969 121.38504 94.854983 121.47837 95.323896 C 121.57287 95.770145 121.57992 96.230205 121.56674 96.684537 C 121.58124 97.09189 121.55544 97.499522 121.56364 97.906684 C 121.56164 98.288403 121.56447 98.670144 121.55847 99.051834 C 121.55347 99.427497 121.55677 99.803683 121.56777 100.17941 C 121.57887 100.64256 121.57814 101.10752 121.55744 101.57054 C 121.63524 101.87678 121.44758 101.73582 121.34091 101.92711 C 121.27401 102.047 121.25371 102.18745 121.20759 102.31675 C 121.08163 102.70445 121.08398 103.13046 121.08666 103.5358 C 121.06496 103.94142 121.08343 104.34701 121.07943 104.75278 C 121.14183 105.20009 120.95925 105.26174 120.78952 105.64213 C 120.65481 106.11556 120.6375 106.6044 120.61072 107.09217 C 120.64362 107.4741 120.4486 107.67416 120.30842 108.01925 C 120.25202 108.53649 120.15543 108.99447 119.91723 109.4574 C 119.89153 109.5437 119.88233 109.63667 119.84023 109.7163 C 119.81593 109.7624 119.75455 109.77882 119.72499 109.82172 C 119.51688 110.12343 119.42836 110.48785 119.2723 110.81442 C 118.97977 111.06686 118.95248 111.65197 118.76381 111.9265 C 118.74641 111.9519 118.70284 111.93355 118.67234 111.93735 C 118.59704 112.35146 118.33855 112.22722 118.2026 112.36368 C 118.04704 112.51985 118.03123 112.57019 118.04344 112.58537 C 118.0437 112.58565 118.04471 112.58668 118.04499 112.58692 C 118.05335 112.59318 118.06923 112.5904 118.07289 112.59054 L 118.07289 112.59106 L 118.07289 112.59158 L 118.07238 112.59158 C 118.06645 112.59537 118.0296 112.6109 117.91683 112.66806 C 117.41921 112.67006 117.09155 112.96116 116.70192 113.22254 C 116.48952 113.77361 116.11652 113.70183 115.62653 113.74138 C 115.54173 113.74059 115.45285 113.71303 115.37228 113.73983 C 115.35707 113.7448 115.26132 113.80916 115.15834 113.87884 C 113.74576 113.94271 112.34207 114.095 110.9679 114.33255 C 110.55168 114.45426 110.16555 114.67332 109.74214 114.76147 C 109.33733 114.65668 108.91984 114.83405 108.59027 115.07308 C 108.29228 115.31993 108.08268 115.66855 107.70712 115.81825 C 107.50721 115.88765 107.61214 115.87353 107.39344 115.85443 C 107.25145 115.90222 107.15614 116.00975 107.06478 116.12004 C 107.35114 116.12068 107.65812 116.12152 107.98617 116.12211 C 107.98567 116.12248 107.98513 116.12277 107.98462 116.12314 C 107.67134 116.15815 107.35464 116.1688 107.03843 116.1526 C 107.01654 116.17912 106.99433 116.20521 106.97176 116.23063 C 106.27 116.24734 105.56859 116.26543 104.86802 116.28437 C 104.66225 116.29037 104.35361 116.51359 104.13266 116.55878 C 103.82523 116.71437 103.45569 116.55622 103.14667 116.65903 C 101.9047 116.7107 100.68344 116.76823 99.508137 116.79907 C 99.315328 116.80403 99.099386 116.88527 98.889053 116.9417 C 98.551131 116.85113 98.216581 116.74871 97.871027 116.68642 C 97.582374 116.66572 97.230643 116.48179 97.069009 116.7629 L 94.165827 117.08898 C 93.231887 117.08894 92.297871 117.08898 91.363931 117.08898 C 90.816135 117.08896 91.233477 117.08994 90.711775 117.08794 C 90.594371 117.08874 90.242454 117.09001 90.359858 117.09001 C 91.658457 117.09335 92.834666 117.1044 93.889358 117.11998 L 87.188475 117.87342 C 87.454947 118.34207 87.58056 118.09043 88.072142 118.13387 C 88.606146 118.15017 89.127004 118.19375 89.632771 118.38709 C 89.753233 118.42259 89.868956 118.49062 89.994506 118.49354 C 93.356194 118.57164 96.718927 118.58557 100.08123 118.62997 C 100.11425 118.63038 100.14429 118.63073 100.17218 118.631 C 97.348155 118.63085 94.524368 118.63048 91.700345 118.63048 C 92.168819 118.63248 92.636951 118.63617 93.105427 118.63617 C 93.518629 118.63417 93.931934 118.6341 94.345144 118.6341 C 97.856358 118.62325 101.36856 118.68637 104.87939 118.63307 C 108.19799 118.93229 112.36357 120.60823 114.83278 118.61188 C 115.28165 118.59739 115.73031 118.58218 116.17895 118.5664 C 117.0129 118.4769 117.8183 118.28215 118.61446 118.0145 C 118.98282 117.90814 119.35723 117.78832 119.73326 117.70806 C 119.80327 117.84229 119.86796 117.97877 119.93273 118.11217 C 120.04968 118.52588 120.25111 118.9101 120.46861 119.27954 C 120.55521 119.66283 120.67496 120.02189 120.83655 120.38025 C 120.98633 120.79257 121.04575 121.2284 121.06806 121.66441 C 121.04396 122.16198 121.3217 122.57675 121.44271 123.03797 C 121.55608 123.51032 121.55978 123.99943 121.58172 124.48232 C 121.55542 125.10507 121.59881 125.68766 121.7874 126.28325 C 121.97822 126.76367 122.04021 127.27821 122.18789 127.77411 C 122.38872 128.29795 122.46849 128.84615 122.51758 129.40089 C 122.56588 130.01793 122.53521 130.6358 122.56461 131.25349 C 122.53601 132.30622 122.76914 133.33784 122.89741 134.37939 C 122.98681 135.43218 123.27118 136.45294 123.40073 137.50065 C 123.45853 138.38908 123.56692 139.25426 123.77849 140.12013 C 123.99061 141.38814 124.02849 142.67962 124.06168 143.96279 C 124.10318 145.28852 124.06952 146.61499 124.05082 147.94084 C 124.14032 149.01696 124.3457 150.07768 124.44046 151.15356 C 124.51346 152.23096 124.52381 153.31026 124.51591 154.38954 C 124.54811 155.42497 124.52004 156.46063 124.50144 157.49581 C 124.45054 158.20278 124.49517 158.90976 124.48387 159.61713 C 124.35311 160.38484 124.22909 161.15968 124.04721 161.91828 C 123.8301 162.81084 123.66263 163.71645 123.58367 164.63181 C 123.62557 165.31917 123.34775 165.93099 123.224 166.59396 C 123.07117 167.15017 123.06073 167.72442 123.01575 168.29515 C 123.00055 168.78039 123.04427 169.27133 122.97337 169.75243 C 122.79646 170.34634 122.65186 170.94061 122.60078 171.55904 C 122.50062 172.11575 122.34327 172.68525 122.15223 173.22198 C 121.88609 173.81575 121.71116 174.44591 121.63237 175.09112 C 121.63537 175.75708 121.5543 176.37308 121.36882 177.01348 C 121.17431 177.76242 120.79113 178.44856 120.50479 179.17149 C 120.25979 179.91064 119.88159 180.58831 119.54516 181.28661 C 119.34571 181.78207 119.10951 182.22234 118.71833 182.59144 C 117.70652 183.44208 116.52946 184.06668 115.34283 184.63472 C 114.17252 185.27519 112.88056 185.68762 111.71514 186.32454 C 110.84234 186.6638 110.04524 187.13423 109.2016 187.53429 C 108.23354 187.81661 107.25191 188.03711 106.24623 188.16887 C 105.5049 188.31171 104.4427 188.42125 103.72235 188.76832 C 104.16822 188.83506 104.60058 188.98657 105.01426 189.25098 C 104.71011 189.25014 104.4052 189.25296 104.11302 189.26028 C 103.73507 189.21381 103.35778 189.16004 102.98079 189.10628 C 102.4267 189.26021 101.84034 189.21545 101.25222 189.23496 C 101.06443 189.23977 100.87675 189.24422 100.68894 189.24788 C 101.02596 189.12809 101.36052 189.0209 101.69198 188.93524 C 101.48822 188.91202 101.28418 188.89097 101.07962 188.87426 C 100.53396 188.78226 100.02516 188.56485 99.498318 188.40659 C 98.998044 188.28577 98.48056 188.28944 97.969213 188.28101 C 96.50175 188.21268 95.034906 188.19571 93.567931 188.20195 C 93.427301 188.16685 93.275184 188.12746 93.216531 188.11255 C 92.602274 187.93724 91.963378 187.87621 91.328791 187.82678 C 90.785758 187.81878 90.61859 187.91036 90.110778 187.68983 C 89.846149 187.58812 89.529536 187.38632 89.232795 187.402 C 88.983068 187.41519 89.08015 187.47039 89.090685 187.47589 C 89.083868 187.4726 89.035155 187.45029 88.866926 187.39269 C 88.542185 187.25283 88.249298 187.07229 87.912979 186.95861 C 87.499871 186.75205 87.053274 186.90883 86.631404 186.89763 C 86.373647 186.70412 86.031661 186.66603 85.750837 186.53745 C 85.498687 186.35057 85.321577 186.21682 85.024783 186.13282 C 84.901172 185.94868 84.971635 186.06618 84.835131 185.76954 L 74.935477 186.40981 C 75.116084 186.47711 75.028879 186.41362 75.120995 186.67594 C 75.182315 186.85265 75.319905 187.23628 75.4972 187.35032 C 75.53402 187.37402 75.579483 187.30061 75.622257 187.31001 C 75.729482 187.33331 75.767013 187.50225 75.878572 187.5162 C 75.991673 187.6127 76.074114 187.74411 76.194831 187.83091 C 76.367077 187.95476 76.670771 187.80235 76.784976 188.05002 C 77.255529 188.40984 77.470604 188.46111 78.057767 188.327 C 78.402168 188.3478 78.730108 188.33711 79.027733 188.53629 C 79.177736 188.61699 79.279488 188.7733 79.431843 188.84945 C 79.654035 188.96051 80.030265 188.77389 80.266934 188.87839 C 80.756503 189.04564 81.015256 189.42483 81.555744 189.33831 C 82.182682 189.33531 82.808637 189.36884 83.433149 189.42254 C 83.668435 189.47824 84.199312 189.68789 84.4057 189.69281 C 88.089687 189.78051 91.758708 189.83988 95.436551 189.81994 C 96.732499 189.81612 98.30962 189.83076 99.145368 189.84681 C 99.555864 189.68213 99.967179 189.51507 100.37578 189.36208 C 102.54122 189.41646 104.1449 189.44489 105.30055 189.4551 C 105.70336 189.77193 106.08723 190.20624 106.44725 190.78577 C 107.91614 190.77397 109.38571 190.77572 110.85318 190.70102 C 111.73299 190.63242 112.51894 190.45691 113.30264 190.0468 C 114.17136 189.90669 115.00931 189.59688 115.89422 189.53675 C 116.93596 189.33167 118.00683 189.11649 118.95243 188.61794 C 119.76798 188.18619 120.61733 187.8346 121.43445 187.40613 C 122.62471 186.8725 123.77266 186.2515 124.95465 185.69977 C 126.21432 185.03205 127.47197 184.33359 128.48673 183.31181 C 128.89547 182.81544 129.20821 182.33819 129.39107 181.71397 C 129.71116 180.98967 130.05471 180.27856 130.32331 179.53167 C 130.60723 178.7651 131.07371 178.07119 131.22248 177.25791 C 131.36927 176.58653 131.4843 175.91683 131.5129 175.22858 C 131.6064 174.64906 131.76919 174.09206 131.99091 173.54754 C 132.19413 172.93578 132.42584 172.31252 132.4684 171.66549 C 132.5499 171.07683 132.69288 170.50264 132.83065 169.92503 C 132.93308 169.39539 132.90202 168.87313 132.91902 168.33494 C 132.91823 167.82022 132.97694 167.30988 133.07353 166.80429 C 133.24587 166.11338 133.44648 165.44217 133.40684 164.71863 C 133.48494 163.8528 133.60127 162.99092 133.86004 162.15754 C 134.07202 161.32481 134.17842 160.46407 134.32617 159.61765 C 134.31557 158.9106 134.3605 158.20408 134.3117 157.49736 C 134.2955 156.4599 134.27176 155.42259 134.29826 154.38489 C 134.27776 153.28159 134.27395 152.17741 134.19646 151.07605 C 134.12036 150.02248 133.97083 148.98494 133.80372 147.94239 C 133.78652 146.60944 133.75628 145.27626 133.75928 143.94315 C 133.73848 142.61318 133.68993 141.28681 133.54689 139.96303 C 133.46609 139.08924 133.20916 138.23862 133.20789 137.34975 C 133.0162 136.32034 132.77293 135.29844 132.64513 134.26002 C 132.52102 133.26257 132.33899 132.26319 132.40484 131.254 C 132.43524 130.61225 132.41158 129.96805 132.38778 129.32699 C 132.34688 128.69107 132.26543 128.06023 132.05447 127.45578 C 131.86053 126.94686 131.84246 126.41533 131.69015 125.89412 C 131.43548 125.4385 131.41158 124.98623 131.45502 124.46527 C 131.45902 123.90621 131.43215 123.34852 131.33617 122.79664 C 131.27637 122.54599 131.24839 122.26279 131.13101 122.03028 C 131.09451 121.95798 131.00018 121.91642 130.98425 121.83701 C 130.96835 121.75781 130.98112 121.67538 130.98012 121.59464 C 130.93432 121.07629 130.86772 120.55668 130.71708 120.05675 C 130.61006 119.64864 130.43136 119.36044 130.3786 118.93331 C 130.26248 118.49499 129.96262 118.16662 129.81378 117.76129 C 129.65225 117.22303 129.35045 116.76539 129.11667 116.26474 C 128.79061 115.72203 128.53456 115.74893 128.12344 115.39967 C 128.06324 115.32467 128.0242 115.22521 127.94258 115.17436 C 127.77059 115.06724 126.9813 115.29971 126.78554 115.16455 C 126.37233 115.12276 125.96224 115.06327 125.55409 114.99246 C 125.95863 114.78234 126.08681 114.48296 126.44448 114.2385 C 126.47788 114.2156 126.52504 114.23032 126.5654 114.22662 C 126.98114 113.99016 127.47044 113.91784 127.78858 113.52123 C 128.0685 113.19408 128.39852 112.9289 128.58078 112.50889 C 128.73293 112.07485 128.92377 111.66338 129.13113 111.25161 C 129.3521 110.78156 129.63252 110.34474 129.81068 109.85583 C 129.97905 109.37811 130.07071 108.88722 130.22047 108.40837 C 130.39326 107.99827 130.57221 107.59743 130.51555 107.13558 C 130.52625 106.77599 130.54153 106.39449 130.70675 106.06794 C 130.90584 105.64382 131.04461 105.23286 130.992 104.75071 C 130.986 104.35415 130.99928 103.9577 130.99149 103.56112 C 131.00899 103.27045 131.00301 102.97296 131.1336 102.70587 C 131.31349 102.34681 131.53025 102.00754 131.48086 101.57106 C 131.46016 101.10805 131.45953 100.64308 131.47053 100.17993 C 131.48143 99.804339 131.48516 99.427871 131.48086 99.052351 C 131.47586 98.671396 131.47979 98.290764 131.47879 97.909785 C 131.48899 97.497281 131.46753 97.084333 131.47673 96.671617 C 131.44823 96.150031 131.45391 95.625618 131.38681 95.106855 C 131.29291 94.722359 131.27038 94.271226 130.99304 93.972041 C 131.00494 93.581217 130.99027 93.19078 131.00027 92.800019 C 130.99527 92.411383 130.99917 92.022861 130.99717 91.634199 C 131.00517 91.175242 130.97868 90.716058 130.97598 90.257022 C 130.93688 89.770948 130.90016 89.28466 130.72639 88.823518 C 130.51454 88.43254 130.46362 88.085331 130.50469 87.637027 C 130.51369 87.182258 130.50738 86.727558 130.51038 86.272769 C 130.52158 85.84127 130.50179 85.410284 130.50779 84.978791 C 130.49759 84.476871 130.50563 83.974924 130.50263 83.47294 C 130.49133 82.945615 130.51249 82.41827 130.49849 81.891124 C 130.49549 81.217104 130.44571 80.542159 130.49798 79.868509 C 130.50498 79.313585 130.50524 78.758561 130.48144 78.204011 C 130.48644 77.414544 130.44735 76.625615 130.46645 75.836197 C 130.43385 74.612848 130.37657 73.390224 130.37137 72.166137 C 130.38347 70.665843 130.40463 69.166585 130.43493 67.66667 C 130.45993 66.688175 130.46782 65.710407 130.44062 64.731965 C 130.43862 63.686479 130.44277 62.640216 130.48557 61.595723 C 130.52297 60.505459 130.60124 59.415653 130.77444 58.337524 C 130.88437 57.546597 131.01409 56.682505 130.71605 55.916483 C 130.51109 55.374852 130.3871 54.854451 130.36878 54.269555 C 130.27508 53.767792 130.06982 53.307507 129.96364 52.828299 C 129.91134 52.267086 129.83036 51.706826 129.59157 51.19119 C 129.35523 50.941495 129.56146 50.376081 129.28771 50.099784 C 129.26711 50.045134 129.06109 49.764389 129.05775 49.752001 C 129.00345 49.550534 129.06352 49.304675 128.98282 49.104496 C 128.95072 48.887945 128.8359 48.072686 128.58388 48.135046 C 128.52428 47.628089 128.45625 47.126888 128.31671 46.633845 C 128.18122 46.245432 127.91016 45.929798 127.86248 45.498514 C 127.60173 45.108058 127.30336 44.79502 127.15399 44.354915 C 126.90106 44.152395 126.92868 43.709159 126.63723 43.555997 C 126.41504 43.486077 126.34472 42.490768 126.11168 42.771549 C 125.94706 42.375913 125.94164 42.100977 125.45074 42.120943 C 125.14541 41.707187 124.81188 41.387329 124.53917 40.958223 C 124.4202 40.879363 124.38523 40.860128 124.38 40.85487 L 124.38 40.854353 L 124.38 40.853837 L 124.38 40.85332 L 124.38052 40.85332 L 124.38104 40.85332 C 124.38368 40.8527 124.39054 40.851942 124.39447 40.847635 C 124.39466 40.847398 124.39534 40.846346 124.39551 40.846085 C 124.4037 40.830934 124.38899 40.780047 124.24048 40.601139 C 124.16318 40.508009 124.01234 40.497754 123.9361 40.403735 C 123.8767 40.330525 123.86442 40.226035 123.80536 40.152587 C 123.76926 40.107637 123.70825 40.091027 123.65963 40.060087 C 123.55231 39.995872 123.52039 39.979417 123.51649 39.975337 L 123.51649 39.97482 L 123.51701 39.97482 L 123.51752 39.974304 C 123.52082 39.973733 123.53142 39.974384 123.53716 39.968103 C 123.54873 39.953231 123.53671 39.90195 123.38265 39.72419 C 123.17631 39.48611 122.72842 39.477423 122.63334 39.110274 C 122.28106 38.627989 122.15788 38.714426 121.76311 38.40489 C 121.37085 38.097312 121.75715 38.243666 121.3466 38.129972 C 121.01725 37.8839 120.67667 37.650859 120.34924 37.404435 C 120.20704 37.183825 120.07108 36.958758 119.92601 36.74246 C 119.62897 36.425613 119.50247 36.013291 119.1736 35.726501 C 118.87862 35.395264 118.48219 35.247489 118.17676 34.941019 C 117.78625 34.64271 117.34127 34.479541 116.90604 34.235119 C 116.35788 34.047564 115.82968 33.745873 115.30821 33.478059 C 114.90368 33.182826 114.41953 33.128269 113.99252 32.888948 C 113.53565 32.791998 113.20098 32.467106 112.7895 32.250227 C 112.37479 32.021604 111.94744 32.032216 111.50637 31.879191 C 111.00438 31.676245 110.48184 31.548589 109.94419 31.495752 C 107.98018 31.423367 106.01169 31.463573 104.04171 31.47198 z M 99.145368 189.84681 C 99.118265 189.85768 99.091336 189.86852 99.064236 189.87936 C 100.02797 189.87468 99.850327 189.86034 99.145368 189.84681 z M 99.064236 189.87936 C 97.943996 189.88481 95.281913 189.87732 90.113878 189.84009 C 90.535371 189.90307 90.936442 190.05421 91.346361 190.19562 C 92.318229 190.54073 93.403516 190.3874 94.401472 190.66588 C 95.838658 191.1213 97.447112 190.5267 99.064236 189.87936 z M 90.113878 189.84009 C 89.977351 189.81969 89.838715 189.80865 89.696849 189.81012 C 89.198565 189.81232 88.699799 189.82062 88.201334 189.82562 C 88.873925 189.8308 89.511014 189.83575 90.113878 189.84009 z M 101.69198 188.93524 C 102.12254 188.98429 102.55168 189.0451 102.98079 189.10628 C 103.1622 189.05589 103.34025 188.98412 103.51358 188.88201 C 103.57919 188.84142 103.64894 188.80369 103.72235 188.76832 C 103.07052 188.67076 102.38904 188.75508 101.69198 188.93524 z M 107.03843 116.1526 C 107.04732 116.14182 107.05586 116.13082 107.06478 116.12004 C 106.13635 116.11799 105.422 116.11593 104.88714 116.11384 C 105.49618 116.12015 106.23453 116.13027 106.92991 116.14588 C 106.96598 116.14843 107.00234 116.15075 107.03843 116.1526 z M 100.19027 32.993335 C 100.44313 32.991195 100.69375 32.987719 100.94319 33.000052 C 98.151088 33.000366 96.885329 33.000859 96.54656 33.001086 C 96.97165 33.00071 98.716514 32.998946 100.19027 32.993335 z M 118.93072 116.874 C 119.03579 116.92571 119.14138 116.97548 119.24647 117.0156 C 119.29617 117.06287 119.34262 117.11333 119.38651 117.16597 C 118.84223 117.16367 118.33047 117.16169 117.84965 117.15977 C 117.85278 117.15712 117.85584 117.15419 117.85895 117.1515 C 118.20581 117.00247 118.58448 117.12811 118.91625 116.87969 C 118.92101 116.87772 118.92597 116.87597 118.93072 116.874 z M 100.75612 118.63048 C 100.87048 118.63031 101.21361 118.631 101.09925 118.631 C 100.94455 118.63099 100.78991 118.63101 100.6352 118.631 C 100.67105 118.63088 100.71068 118.63052 100.75612 118.63048 z " />
</svg>
