<?xml version="1.0" encoding="UTF-8" standalone="no"?>
<!-- Created with Inkscape (http://www.inkscape.org/) -->

<svg
   width="1000"
   height="1000"
   viewBox="0 0 264.58333 264.58333"
   version="1.1"
   id="svg1"
   xmlns="http://www.w3.org/2000/svg"
   xmlns:svg="http://www.w3.org/2000/svg">
  <defs
     id="defs1" />
  <path
     style="fill:#000000;stroke-width:26.4583"
     id="path4"
     d="m 74.021169,71.819301 c 2.51561,-2.727958 5.652132,-4.783815 8.714758,-6.837852 3.336475,-2.2172 6.572927,-4.599186 9.688777,-7.117882 0.501028,-0.370136 1.005898,-0.735131 1.503082,-1.110414 1.429504,-1.079015 1.934752,-1.552051 3.467603,-2.537536 2.157997,-1.387393 4.455671,-2.559442 6.730741,-3.737253 0.84223,-0.414451 1.67844,-0.841357 2.52669,-1.243359 2.51867,-1.193655 2.48941,-1.074476 4.95901,-2.305611 2.07787,-1.03586 4.10641,-2.175902 6.12726,-3.317547 1.79528,-1.079569 3.5338,-2.275895 5.04554,-3.7323 0.43315,-0.251489 0.72481,-1.083593 1.25685,-1.171786 0.0747,-0.01238 0.2899,0.0729 0.21424,0.07533 -3.10838,0.100116 -6.21829,0.14546 -9.32744,0.218191 2.59213,2.561482 4.55648,5.710648 6.5467,8.746001 0.43946,0.626321 0.86896,1.259755 1.31839,1.878962 1.70534,2.349558 1.39582,1.767663 3.059,4.17526 1.25481,1.816441 2.38842,3.69411 3.47845,5.61181 0.9346,1.59572 1.60438,3.326984 2.4731,4.954516 0.8517,1.319167 2.02955,2.397315 3.07181,3.565707 1.55995,1.751298 2.88594,3.677417 4.15069,5.646507 0.79068,1.186379 1.35588,2.504117 2.11737,3.707461 0.46614,0.736621 1.20943,1.755439 1.70007,2.443686 1.98802,2.94862 3.82839,5.984047 5.60614,9.062376 1.25645,2.098554 2.2179,4.338482 3.25836,6.544413 0.25584,0.699474 0.66489,1.312252 1.01721,1.960499 0.72266,1.171596 1.34862,2.410124 1.99309,3.62919 0.49977,0.82776 0.94372,1.68761 1.42532,2.5248 0.17376,0.41963 0.49781,0.68074 0.79147,0.9995 0.21152,0.24856 0.46431,0.42769 0.68269,0.69014 0.37098,0.37471 0.71302,0.77803 1.02402,1.20369 0,0 9.84093,-0.613 9.84093,-0.613 v 0 c -0.31389,-0.44516 -0.64191,-0.86214 -0.9634,-1.2952 -0.17127,-0.19075 -0.48521,-0.7588 -0.67852,-0.70188 -0.1129,-0.13316 -0.26227,-0.3962 -0.40348,-0.48744 -0.0414,-0.0267 -0.10489,0.0211 -0.14772,-0.003 -0.13369,-0.0759 -0.16137,-0.28151 -0.29312,-0.35615 -0.57515,-0.79052 -1.04922,-1.65378 -1.64434,-2.43136 -0.64803,-1.218599 -1.3095,-2.438257 -1.76697,-3.744079 -0.31318,-0.352155 -0.012,0.02381 -0.29573,-0.49585 -0.26009,-0.476383 -0.74156,-0.829662 -0.90726,-1.374767 -1.37619,-2.100303 -2.35581,-4.428411 -3.72456,-6.536521 -1.80844,-3.062184 -3.57837,-6.140548 -5.51961,-9.121629 -1.25183,-2.025592 -2.41104,-4.099751 -3.65786,-6.128446 -1.20333,-2.024806 -2.64375,-3.900609 -4.01252,-5.814838 -0.97684,-1.131252 -2.02405,-2.197391 -2.92445,-3.386987 -1.03696,-1.636135 -1.94685,-3.353929 -3.05184,-4.949618 -2.62652,-3.920324 -5.25431,-7.83862 -7.99401,-11.681635 -1.96828,-3.004478 -3.8884,-6.039638 -5.86105,-9.041696 -11.88496,-0.667954 -7.90407,-2.821255 -11.58597,0.921576 -1.34119,1.336566 -2.78949,2.556327 -4.40272,3.558799 -4.2733,2.597118 -8.77078,4.742124 -13.299645,6.853772 -4.219657,2.192292 -8.381589,4.49213 -12.074728,7.520133 -3.115011,2.40652 -6.180161,4.886669 -9.454973,7.076606 -3.219005,2.240331 -6.489388,4.413504 -9.565933,6.848906 z" />
</svg>
