<?xml version="1.0" encoding="UTF-8" standalone="no"?>
<!-- Created with Inkscape (http://www.inkscape.org/) -->

<svg
   width="1000"
   height="1000"
   viewBox="60 0 164 264.58333"
   version="1.1"
   id="svg1"
   xmlns="http://www.w3.org/2000/svg"
   xmlns:svg="http://www.w3.org/2000/svg">
  <defs
     id="defs1" />
  <path
     style="fill:#000000;stroke-width:0.264583"
     id="path1"
     d="m 153.02557,70.408783 c -0.009,1.453737 -0.13841,2.897884 -0.0982,4.353116 0.10748,1.602412 -0.0641,3.204823 -0.0433,4.80682 0.0154,1.186587 0.086,2.37182 0.12488,3.557873 0.13791,4.014597 -0.0261,8.032898 -0.0601,12.048935 0.0906,3.594547 0.40687,7.171693 0.35343,10.769353 -0.10499,3.52986 0.30765,7.04131 0.37212,10.56716 0.0517,3.2473 0.1856,6.49492 0.0528,9.7414 -0.19911,2.87833 -0.49003,5.74853 -0.80126,8.61654 -0.19021,2.73199 -1.06724,5.29743 -2.04209,7.83037 -0.50894,1.2692 -1.00354,2.56463 -1.74144,3.72476 -0.69106,1.08649 -1.56642,1.98745 -2.49251,2.86853 -1.9875,1.95821 -4.21947,3.61076 -6.5253,5.16772 -1.77634,1.07208 -3.6579,2.02634 -5.5857,2.80308 -1.20018,0.48358 -1.81821,0.63532 -3.06881,1.00869 -3.96655,1.04712 -8.06996,1.41416 -12.15893,1.50416 -3.18675,0.0637 -6.37992,-0.0551 -9.54475,-0.44517 -1.93325,-0.23827 -3.37036,-0.49815 -5.28959,-0.81754 -3.01168,-0.61203 -6.065874,-1.11701 -9.002453,-2.04814 -1.798537,-0.57027 -2.083072,-0.75573 -3.783261,-1.51917 -8.219614,-4.69312 16.195384,9.48771 7.563879,4.2209 -1.164386,-0.71049 -2.337424,-1.4067 -3.506136,-2.11006 0,0 -8.04993,-3.33504 -8.04993,-3.33504 v 0 c -0.869839,0.38638 -1.731647,0.39892 -0.18102,1.34505 11.180546,6.82195 9.342173,5.90602 15.421461,8.74561 1.70644,0.64558 2.03501,0.81625 3.82782,1.30034 2.82061,0.76162 5.73144,1.10144 8.60665,1.58143 5.00405,0.74732 10.04444,1.42366 15.11788,1.13407 4.12228,-0.25308 8.23779,-0.68711 12.20516,-1.89997 0.56666,-0.17847 1.14258,-0.32985 1.69998,-0.53541 2.45781,-0.90639 4.61888,-2.40641 6.74556,-3.90053 2.33921,-1.63713 4.62191,-3.37944 6.59993,-5.44899 0.28823,-0.33967 0.59298,-0.66598 0.86468,-1.01901 1.44024,-1.87125 2.37761,-4.04208 3.25917,-6.21482 0.40804,-1.07526 0.60063,-1.49889 0.896,-2.61352 0.49067,-1.85157 0.71943,-3.77459 0.97713,-5.66745 0.10518,-0.94185 0.23285,-1.88128 0.32433,-2.82455 0.1932,-1.99218 0.19225,-4.00038 0.29686,-5.99775 0.0222,-1.65325 0.083,-3.30528 0.0555,-4.95881 -0.0292,-1.76063 -0.0441,-1.40709 -0.14152,-3.18789 -0.032,-0.58533 -0.0582,-1.17097 -0.0874,-1.75645 -0.2754,-3.53416 -0.42836,-7.07872 -0.55318,-10.62105 -0.19237,-3.62019 -0.2903,-7.244 -0.53498,-10.86164 -0.19283,-4.030606 -0.35602,-8.067203 -0.0703,-12.098943 0.0517,-2.690672 0.25608,-5.370602 0.44549,-8.05407 0.11082,-1.360188 0.10143,-2.743575 0.4016,-4.079335 z" />
</svg>
