<?xml version="1.0" encoding="UTF-8" standalone="no"?>
<!-- Created with Inkscape (http://www.inkscape.org/) -->

<svg
   width="1000"
   height="1000"
   viewBox="0 0 264.58333 264.58333"
   version="1.1"
   id="svg1"
   xmlns="http://www.w3.org/2000/svg"
   xmlns:svg="http://www.w3.org/2000/svg">
  <defs
     id="defs1" />
  <path
     style="fill:#000000;stroke-width:26.4583"
     id="path4"
     d="m 73.797534,7.1032346 c 0.538356,0.4787649 1.065753,0.9679266 1.459148,1.5748993 0.316045,0.4669697 0.697664,0.8917624 1.064948,1.3218044 0.546537,0.6026257 1.090163,1.2095387 1.566693,1.8697517 0.592646,0.846499 1.191223,1.691458 1.804175,2.524089 0.367769,0.585053 0.727192,1.174209 1.093156,1.760829 0.412046,0.819138 0.840179,1.628976 1.268497,2.439912 0.257733,0.680203 0.655108,1.294159 0.955511,1.952763 0.198667,0.533976 0.401195,1.063867 0.677645,1.563077 0.449842,0.705294 0.781421,1.472744 1.188604,2.202092 0.372568,0.695405 0.645641,1.418281 1.092806,2.072042 1.013222,1.455891 1.856248,3.021399 2.661417,4.599229 0.81275,1.638215 1.618398,3.283241 2.315504,4.974677 0.319047,0.831736 0.604033,1.675254 0.913175,2.50975 0.569388,1.344038 1.184767,2.665598 1.714494,4.026911 0.446225,1.323221 0.864963,2.653686 1.273022,3.989027 0.555045,2.233343 0.926653,4.50505 1.29576,6.774749 0.42306,3.078181 0.917781,6.145011 1.491652,9.198568 0.613973,2.43696 1.279038,4.864269 1.914387,7.297732 0.491472,1.970479 0.737602,3.987263 1.201292,5.963335 0.20933,0.789913 0.31196,1.587648 0.36416,2.401414 0.20963,1.452112 0.27626,2.920365 0.4711,4.373276 0.15999,0.941179 0.27243,1.890895 0.45298,2.828386 0.21781,0.818356 0.36566,1.653529 0.41739,2.498738 -0.0217,0.57962 0.21862,1.116026 0.36382,1.665639 0.10792,0.496089 0.17057,0.995056 0.29977,1.488707 0.22037,0.959343 0.47653,1.906289 0.63448,2.87977 0.1211,0.83933 0.35219,1.663806 0.60415,2.47278 0.23336,0.632773 0.43075,1.270865 0.49857,1.94316 0.0261,0.610287 0.004,1.209181 0.16344,1.802908 0.24519,0.50771 0.28799,1.0614 0.33009,1.61416 0.0199,0.61887 0.0462,1.23643 0.0206,1.85543 -0.0667,0.66008 0.089,1.29022 0.23766,1.92816 0.18787,0.7822 0.23167,1.58475 0.26833,2.38533 0.0255,0.82696 -0.001,1.65443 -0.008,2.48147 0.16031,0.85253 0.32046,1.70905 0.50361,2.55893 0.2003,0.99115 0.33343,1.9961 0.41877,3.00345 0.026,0.79517 0.27777,1.56103 0.39145,2.3463 0.1412,0.83482 0.36822,1.64889 0.49305,2.48816 0.0798,0.60474 0.0833,1.21392 0.0977,1.82232 0.11651,0.67019 0.3218,1.31857 0.40557,1.99491 0.26802,0.97422 0.41504,1.97711 0.49186,2.9832 0.0513,0.5321 0.0513,1.06689 0.0696,1.6007 -0.0364,0.62643 0.002,1.22522 0.15063,1.83471 0.13002,0.51842 0.23739,1.04327 0.28134,1.57645 0.007,0.48829 0.0517,0.95926 0.18138,1.43102 0.1778,0.50139 0.26376,1.02198 0.4496,1.52066 0.15549,0.52427 0.48554,0.92368 0.79764,1.3554 0.31199,0.59408 0.60229,1.19769 0.85698,1.81845 0.21602,0.54267 0.53515,1.04351 0.85613,1.53046 0.18972,0.50702 0.49796,0.91935 0.83812,1.32755 0.24648,0.30659 0.47198,0.63172 0.65847,0.98129 0.13917,0.14635 0.2831,0.88501 0.54048,0.86179 0.22132,0.42198 0.57388,0.74357 0.92638,1.06938 0.57521,0.50608 1.19129,0.97288 1.72592,1.52293 0.33983,0.35958 0.77047,0.71734 1.23592,0.89776 0.66701,0.45725 1.40051,0.80191 2.13013,1.1492 0.67736,0.25985 1.30997,0.6254 1.99078,0.87517 0.62194,0.36056 1.30706,0.57493 1.97633,0.82718 0.70793,0.32605 1.44153,0.5963 2.19394,0.79932 0.58005,0.16477 1.18956,0.15729 1.78743,0.16191 4.29449,0.10918 8.58848,-0.0131 12.88265,-0.0186 1.07709,-0.003 2.15415,0.007 3.23122,0.0102 0.9151,-0.3764 1.90704,-0.38747 2.88018,-0.43631 1.27505,-0.0576 2.55173,-0.0573 3.82779,-0.0551 -0.42521,-0.003 1.29606,0.005 0.97205,0.005 -3.09994,0.002 -12.38175,0.33482 -9.2998,0.001 4.48749,-0.48558 7.88064,0.46818 11.83951,-0.36778 2.39253,-0.28927 4.77245,-0.64161 7.14623,-1.05521 1.94578,-0.46718 3.93077,-0.73739 5.88218,-1.17264 1.16036,-0.35597 2.40276,-0.36317 3.57592,-0.64037 0.0127,-0.003 1.44512,-0.46965 1.47588,-0.47967 1.02358,-0.39788 1.83403,-0.75623 2.51091,-1.63066 0.66974,-0.72768 1.34964,-1.46811 2.09902,-2.1203 0.61864,-0.72752 1.24469,-1.4476 1.80212,-2.22593 0.43239,-0.67161 1.06434,-1.18448 1.49461,-1.85209 0.39895,-0.67862 0.86712,-1.30698 1.21601,-2.01699 0.51053,-0.97665 1.02673,-1.94358 1.51163,-2.93491 0.32454,-0.87441 0.6833,-1.72987 0.91185,-2.63721 0.18087,-0.92241 0.17816,-1.86505 0.31847,-2.79282 0.1426,-1.0476 0.27457,-2.09989 0.34968,-3.15507 0.098,-0.68379 0.26507,-1.36015 0.39094,-2.04325 0.13127,-0.89511 0.0723,-1.80245 0.10615,-2.70597 0.0262,-0.86227 -0.005,-1.72495 0.0163,-2.58716 -0.15212,-1.05951 -0.32969,-2.11611 -0.58211,-3.15663 -0.19907,-0.93541 -0.29973,-1.88676 -0.35887,-2.84002 -0.003,-1.22106 -0.16998,-2.43442 -0.39895,-3.63117 -0.24344,-1.92805 -0.74935,-3.78578 -1.28793,-5.64692 -0.49688,-1.43181 -0.99642,-2.878677 -1.68239,-4.233328 -0.54862,-0.97977 -1.11717,-1.944182 -1.8209,-2.82095 -1.02226,-1.249071 -2.22342,-2.335644 -3.34026,-3.497683 -1.92299,-1.917044 -3.90151,-3.778549 -5.85954,-5.660099 -1.15744,-1.162658 -2.37778,-2.21755 -3.75359,-3.108164 -1.10662,-0.728644 -2.33886,-1.24529 -3.56536,-1.735965 -1.82066,-0.633601 -3.61582,-1.331722 -5.39962,-2.061705 -2.29455,-0.929251 -4.66176,-1.648076 -6.98183,-2.506406 -1.21342,-0.487082 -2.46748,-0.855911 -3.70359,-1.274802 -0.95578,-0.259718 -1.92048,-0.484426 -2.8828,-0.723426 -0.80149,-0.181721 -1.62057,-0.25376 -2.43972,-0.290291 -3.85081,-0.1003 -7.70442,-0.05279 -11.55629,-0.01598 -1.01303,-0.08251 -1.97878,0.122846 -2.96663,0.307737 -0.75956,0.138326 -1.53011,0.168182 -2.29988,0.182133 -0.60299,0.02109 -1.20472,-0.09258 -1.77071,0.132692 -0.82041,0.136019 -1.56595,0.422764 -2.35823,0.656468 -0.99392,0.31197 -2.01315,0.525817 -3.05033,0.617709 -0.13286,0.0093 -0.26962,-0.0054 -0.39856,0.0279 -0.2239,0.05785 -0.41368,0.210814 -0.6333,0.283204 -0.33422,0.11016 -0.56473,0.132826 -0.87069,0.322276 -0.5234,0.358243 -1.17584,0.279863 -1.75202,0.484113 -0.49645,0.124029 -0.99697,0.230625 -1.49802,0.334106 0,0 9.7883,1.324358 9.7883,1.324358 v 0 c 0.48372,-0.123867 0.96826,-0.244536 1.45428,-0.359111 0.64614,-0.09971 1.22138,-0.339492 1.80618,-0.624535 0.60816,-0.126254 1.17519,-0.392534 1.80799,-0.391039 1.0502,-0.196141 2.07836,-0.485769 3.10521,-0.778385 0.76088,-0.257212 1.55744,-0.372639 2.34656,-0.512683 0.58961,0.03801 1.18004,0.01696 1.76956,-0.02035 0.75716,-0.0585 1.50798,-0.16714 2.25339,-0.313013 0.99791,-0.158726 1.99685,-0.158342 3.00592,-0.133834 4.69053,0.01625 -13.22234,0.01818 -7.90338,-0.0071 0.82292,7.94e-4 1.64914,0.0081 2.4657,0.12187 0.97008,0.126709 1.87058,0.519356 2.84891,0.604403 1.3383,0.41596 2.69549,0.764823 4.03032,1.203796 2.31992,0.8104 4.64311,1.611125 6.94263,2.478074 1.73826,0.675744 3.4302,1.467909 5.17682,2.123239 1.23579,0.394483 2.4166,0.909201 3.56341,1.512245 0.5693,0.366024 1.19652,0.677582 1.74707,1.068665 0.79249,0.562933 1.49009,1.26682 2.26138,1.856325 2.03743,1.762331 3.89225,3.719769 5.82816,5.591164 1.04615,1.129072 2.01278,2.306301 3.01983,3.462906 0.70762,0.810371 1.35553,1.670267 1.85709,2.626285 0.74994,1.270901 1.30166,2.654251 1.83308,4.027471 0.56662,1.8084 1.03799,3.63481 1.2264,5.52667 0.16775,1.17833 0.23341,2.34349 0.21982,3.53088 0.0603,1.00515 0.22908,1.99386 0.44575,2.97712 0.16672,0.98678 0.37225,1.96368 0.48333,2.96121 0.0243,0.858 -0.002,1.71651 0.0119,2.57474 0.0132,0.85547 -0.0233,1.70692 -0.15115,2.55348 -0.1082,0.72206 -0.37885,1.41965 -0.36882,2.15422 -0.0358,1.02409 -0.0886,2.04774 -0.2795,3.05734 -0.14304,0.89915 -0.23304,1.79658 -0.386,2.69306 -0.22559,0.8366 -0.54237,1.64621 -0.85342,2.45379 -0.45675,0.99074 -1.00117,1.93695 -1.56239,2.87184 -0.39802,0.6395 -0.77778,1.29284 -1.23128,1.89551 -0.50966,0.60639 -1.0225,1.21111 -1.47799,1.86019 -0.5142,0.72036 -1.10454,1.39768 -1.71334,2.03784 -0.73383,0.73468 -1.5022,1.43422 -2.21543,2.18918 -0.63838,0.57165 -1.47231,0.85642 -2.27227,1.12936 -1.6051,0.45577 -3.27242,0.65355 -4.89342,1.04837 -1.95634,0.35959 -3.90588,0.73575 -5.85141,1.15236 -2.41563,0.43306 -4.84961,0.71328 -7.2826,1.02887 -0.27374,0.0349 -0.54683,0.0755 -0.82123,0.10483 -0.26835,0.0287 -1.07653,0.0667 -0.80667,0.0691 19.00062,0.17287 4.39746,-0.17373 -1.97926,0.0142 -1.2626,0.0156 -2.52672,0.0274 -3.78633,0.12317 -1.00627,0.0851 -1.99452,0.31871 -2.99642,0.35144 -1.02994,0.004 -2.05985,0.0143 -3.08981,0.0131 -3.81446,0.003 -10.70387,-0.0562 6.42902,-0.007 -0.5754,0.004 -1.15073,0.0141 -1.72602,0.0191 -0.76474,-0.0956 -1.50604,-0.27003 -2.22911,-0.54282 -0.61332,-0.35584 -1.25867,-0.57498 -1.92899,-0.79024 -0.61804,-0.42611 -1.40036,-0.5921 -2.06016,-0.94579 -0.42137,-0.16356 -1.07971,-0.40201 -1.45403,-0.64315 -0.10657,-0.0686 -0.18887,-0.17286 -0.30021,-0.23346 -0.0827,-0.045 -0.18104,-0.0518 -0.27156,-0.0777 -0.32659,-0.33064 -0.81081,-0.51867 -1.23369,-0.7269 -0.56224,-0.55566 -1.17374,-1.02717 -1.72802,-1.58689 -0.1344,-0.11343 -0.42655,-0.27691 -0.52879,-0.41037 -0.1348,-0.17597 -0.0702,-0.30363 -0.31362,-0.32261 -0.12316,-0.42693 -0.49257,-0.41511 -0.56254,-0.85817 -0.22629,-0.40638 -0.44105,-0.78475 -0.69007,-1.16215 -0.30506,-0.38188 -0.68376,-0.63594 -0.83727,-1.12603 -0.21658,-0.4973 -0.58615,-0.92448 -0.85453,-1.39174 -0.21999,-0.69883 -0.67042,-1.29476 -0.89965,-1.98823 -0.23186,-0.51142 -0.52429,-0.77421 -0.74942,-1.25781 -0.23865,-0.45285 -0.28834,-0.94638 -0.44492,-1.43156 -0.16947,-0.40004 -0.12371,-0.79048 -0.1615,-1.21729 -0.0733,-0.57233 -0.18629,-1.13816 -0.34158,-1.69459 -0.11695,-0.53925 -0.14321,-1.06553 -0.11949,-1.61931 0.01,-0.5762 -0.0191,-1.15045 -0.10742,-1.72077 -0.1832,-0.99291 -0.36384,-1.98886 -0.47023,-2.9931 -0.0991,-0.63232 -0.21141,-1.25739 -0.38417,-1.87462 -0.008,-0.65246 -0.063,-1.30531 -0.16903,-1.94926 -0.12521,-0.84324 -0.33328,-1.66654 -0.46023,-2.50784 -0.14435,-0.75478 -0.34122,-1.50068 -0.41942,-2.26495 -0.0886,-1.0433 -0.33559,-2.05363 -0.49746,-3.08658 -0.10084,-0.80044 -0.13861,-1.62171 -0.39393,-2.39189 -0.005,-0.83795 -0.0319,-1.67553 -0.0462,-2.51334 -0.0156,-0.85732 -0.0316,-1.72928 -0.22492,-2.5676 -0.11879,-0.57159 -0.24514,-1.12587 -0.19262,-1.71546 -0.027,-0.64047 0.006,-1.28175 -0.0461,-1.92104 -0.038,-0.64181 -0.0723,-1.30512 -0.28724,-1.915347 -0.2859,-0.453787 -0.11497,-1.022854 -0.22487,-1.534221 -0.0752,-0.747517 -0.17029,-1.47256 -0.51562,-2.154724 -0.2639,-0.763308 -0.47585,-1.558288 -0.64327,-2.346958 -0.21277,-0.972243 -0.39324,-1.948526 -0.57466,-2.926487 -0.11207,-0.519899 -0.14109,-1.033756 -0.23089,-1.557332 -0.17063,-0.475769 -0.38402,-0.949037 -0.441,-1.451555 -0.0994,-0.886232 -0.2108,-1.766226 -0.43416,-2.631871 -0.24334,-0.897882 -0.27043,-1.859529 -0.56916,-2.751878 -0.22911,-1.40657 -0.29679,-2.836196 -0.44582,-4.253135 0.0155,-0.921734 0.0897,-1.806673 -0.33985,-2.653837 -0.66718,-1.937353 -1.17432,-3.907409 -1.61308,-5.911331 -0.54793,-2.436305 -0.99909,-4.903269 -1.80077,-7.273227 -0.71538,-3.011006 -1.36739,-6.043599 -1.61072,-9.136583 -0.30148,-2.299293 -0.5011,-4.613609 -0.93599,-6.893492 -0.32978,-1.398542 -0.87396,-2.726187 -1.34547,-4.079763 -0.48744,-1.345131 -1.05452,-2.6597 -1.51753,-4.01428 -0.29482,-0.8836 -0.64924,-1.729946 -1.02598,-2.579677 -0.792782,-1.69545 -1.729166,-3.321671 -2.51917,-5.019233 -0.794382,-1.565828 -1.545463,-3.151931 -2.345568,-4.714301 -0.403468,-0.663209 -0.837345,-1.278929 -1.108371,-2.020703 -0.420352,-0.710161 -0.740987,-1.457427 -1.147278,-2.17242 C 93.276358,21.133779 93.0272,20.661283 92.882762,20.119532 92.56292,19.434007 92.123445,18.824253 91.805362,18.135313 91.402063,17.311147 90.98585,16.494748 90.606919,15.65877 90.282124,14.998889 89.862323,14.400028 89.475129,13.780066 88.885113,12.951154 88.207332,12.182997 87.684275,11.304382 87.250538,10.574198 86.688981,9.9412463 86.156161,9.2880516 85.802384,8.8997399 85.508538,8.4322829 85.116631,8.1012732 84.685199,7.460003 84.219813,6.86513 83.662182,6.3268776 Z" />
</svg>
