<?xml version="1.0" encoding="UTF-8" standalone="no"?>
<!-- Created with Inkscape (http://www.inkscape.org/) -->

<svg
   width="1000"
   height="1000"
   viewBox="0 0 264.58333 264.58333"
   version="1.1"
   id="svg1"
   xmlns="http://www.w3.org/2000/svg"
   xmlns:svg="http://www.w3.org/2000/svg">
  <defs
     id="defs1" />
  <path
     style="fill:#000000;stroke-width:0.209636"
     id="path1"
     d="m 101.87324,72.376335 c 1.05901,-0.467335 2.18962,-0.790156 3.30297,-1.13599 1.47738,-0.503634 2.99138,-0.86919 4.55583,-1.050834 1.66338,-0.17674 3.32683,0.102726 4.9698,0.314216 2.16286,0.241141 4.34483,0.305735 6.51999,0.402709 2.37298,0.102667 4.74682,0.188997 7.12076,0.27229 2.30171,0.132318 4.59189,0.381767 6.88689,0.583286 2.32045,0.17767 4.58913,0.638839 6.80252,1.280933 0.40401,0.128627 0.80822,0.256772 1.21204,0.38588 0.95587,0.3056 1.51427,0.47018 2.44401,0.83569 1.11601,0.438745 2.20216,0.943406 3.31405,1.391917 0.39834,0.162801 0.79894,0.321121 1.19502,0.488405 0.4049,0.171012 0.81085,0.340587 1.20776,0.526404 0.39665,0.185691 1.55993,0.787883 1.17195,0.587666 -12.43082,-6.414923 -8.43744,-4.671287 -5.93775,-2.865128 0.38442,0.277761 0.74603,0.580587 1.11905,0.870881 1.91306,1.647502 3.74505,3.372081 5.52557,5.137391 1.92891,2.067213 3.44623,4.411715 4.95402,6.739783 1.48409,2.24837 2.63363,4.639366 3.49378,7.13627 0.72954,2.366356 1.2289,4.746483 1.45973,7.194216 0.22998,2.66851 0.12687,5.33788 -0.23073,7.99099 -0.30862,2.51269 -0.69594,5.01509 -1.22894,7.49659 -0.7224,2.72669 -2.02876,5.269 -3.28969,7.81422 -0.85243,1.80771 -1.87029,3.55118 -3.07042,5.18922 -0.43104,0.58832 -1.47906,1.87569 -1.9359,2.44271 -1.96527,2.48021 -4.25644,4.70269 -6.72834,6.76645 -2.03963,1.65414 -4.21999,3.112 -6.59034,4.3466 -2.18992,1.16703 -4.58106,1.95296 -6.96038,2.73178 -2.55948,0.8123 -5.23393,1.23182 -7.90402,1.60853 -2.9648,0.33926 -5.92539,0.71119 -8.88305,1.09942 -3.41697,0.46849 -6.8672,0.69558 -10.32085,0.72528 -2.60434,0.0296 -5.20357,-0.26507 -7.711734,-0.90873 -1.385321,-0.35551 -1.961768,-0.60692 -3.27598,-1.09415 -5.469049,-2.79047 4.594826,2.45752 6.958314,3.57589 0.47782,0.22609 -0.86445,-0.58801 -1.25447,-0.92555 -0.908741,-0.78644 -1.540906,-1.57921 -2.147368,-2.58315 -0.309459,-0.51227 -0.540969,-1.0603 -0.811462,-1.59047 -1.162005,-2.72746 -1.600484,-5.66389 -1.470782,-8.58013 0.02658,-0.59783 0.101643,-1.19307 0.152464,-1.78961 0.430988,-3.76967 2.356584,-7.12974 4.433668,-10.34649 1.7367,-2.66735 3.86131,-5.06059 6.52775,-7.00999 0.48364,-0.35358 0.99904,-0.66978 1.49856,-1.00467 2.7642,-1.64367 5.82762,-2.478 9.03924,-3.04057 1.6243,-0.25944 3.26746,-0.3669 4.9063,-0.50977 0.63144,-0.055 1.25963,-0.1408 1.89211,-0.185 1.49113,-0.10421 2.69985,-0.0991 4.19884,-0.11977 2.80257,-0.01 5.61484,0.0667 8.35903,0.62913 1.71548,0.35155 1.95605,0.48084 3.59691,1.01534 0.56697,0.23361 1.14135,0.45292 1.70089,0.70084 0.58239,0.25804 2.8823,1.37742 3.45353,1.65186 1.63839,0.78713 3.28577,1.55662 4.93947,2.31683 0.50614,0.21731 1.01152,0.43609 1.51841,0.65194 1.21484,0.51732 2.44781,1.01226 3.63928,1.57374 0.34462,0.1624 0.67997,0.34051 1.01996,0.51076 -2.992,-1.56156 -5.984,-3.12312 -8.97598,-4.68468 2.35253,1.25017 4.55116,2.7163 6.76823,4.15093 1.73422,1.17161 3.53196,2.26757 5.16318,3.55745 1.42637,1.22012 2.60078,2.6439 3.67553,4.12393 0.94972,1.43319 2.0956,2.72779 3.32081,3.97078 1.02524,1.09738 2.04655,2.19801 3.19432,3.19236 0.69678,0.5306 1.33163,1.11984 1.97313,1.70315 0.53229,0.44834 0.97884,0.95796 1.37715,1.50641 0.33598,0.4543 0.66061,0.91521 1.01642,1.35923 0.76391,0.68972 1.3172,1.50321 1.86142,2.33736 0.44409,0.7184 1.08436,1.3162 1.7409,1.87681 0.54707,0.57361 1.1285,1.11914 1.69419,1.67761 0,0 9.81888,3.96806 9.81888,3.96806 v 0 c -0.0293,-0.45759 -0.0365,-0.88787 -0.33426,-1.28286 -0.0594,-0.11748 -0.10278,-0.24274 -0.17804,-0.35245 -0.0656,-0.0957 -0.16052,-0.17192 -0.24069,-0.25795 -0.35536,-0.38128 -0.71172,-0.75232 -1.11767,-1.0908 -0.20281,-0.26073 -0.41886,-0.52589 -0.59285,-0.80377 -0.33798,-0.5398 -0.58618,-1.11564 -1.05212,-1.58219 -0.40442,-0.40076 -0.76967,-0.83628 -1.07995,-1.2956 -0.44803,-0.54539 -0.78253,-1.16404 -1.3051,-1.65847 -0.10442,-0.10583 -0.42581,-0.43547 -0.52985,-0.52347 -0.11114,-0.094 -0.24054,-0.16911 -0.35172,-0.26309 -0.42295,-0.35754 -0.77725,-0.78336 -1.25456,-1.08848 -1.26301,-0.94258 -2.44723,-1.95843 -3.45929,-3.13095 -1.14669,-1.2465 -2.46834,-2.36719 -3.33126,-3.81301 -1.11916,-1.57067 -2.34734,-3.07196 -3.77877,-4.42321 -0.25319,-0.25408 -0.49114,-0.52142 -0.75959,-0.76227 -0.62612,-0.56175 -0.89343,-0.68457 -1.61037,-1.14368 -0.94332,-0.60407 -1.88291,-1.21331 -2.80543,-1.84343 -2.26208,-1.43439 -4.49076,-2.91386 -6.81643,-4.26371 -3.77209,-1.97784 -7.53367,-3.97227 -11.31625,-5.93351 -1.41291,-0.73258 -2.97184,-1.25053 -4.44487,-1.87163 -0.47725,-0.20123 -0.94998,-0.41116 -1.42497,-0.61675 -1.61417,-0.73753 -3.21514,-1.49665 -4.8204,-2.24998 -0.93293,-0.4378 -2.58864,-1.2245 -3.53497,-1.60508 -0.58423,-0.23496 -1.1871,-0.42967 -1.78064,-0.6445 -1.61837,-0.43567 -1.94836,-0.57244 -3.62495,-0.82933 -2.75667,-0.42236 -5.55736,-0.41323 -8.34329,-0.40442 -3.8395,0.0225 -7.68869,0.14112 -11.4776,0.75512 -1.21904,0.25403 -1.93073,0.37679 -3.12531,0.72932 -2.15551,0.6361 -4.18271,1.61354 -6.014739,2.81946 -0.494012,0.37053 -1.005162,0.723 -1.482036,1.11159 -1.583422,1.2903 -3.019188,2.75706 -4.387089,4.23276 -0.471548,0.50871 -0.960021,1.00698 -1.384217,1.54897 -0.367164,0.46911 -0.656181,0.98481 -0.984273,1.47722 -2.040913,3.38759 -3.889975,6.90724 -4.635209,10.74174 -0.07306,0.61639 -0.173865,1.23059 -0.219188,1.84917 -0.22262,3.03832 0.203983,6.07141 1.252172,8.96365 0.395374,0.90524 0.996394,2.38615 1.546767,3.23818 0.403083,0.62401 1.539028,1.95953 2.239952,2.35732 8.93305,5.0697 7.698127,4.49111 12.85109,6.67609 0.52095,0.16113 1.03538,0.34081 1.56285,0.48339 3.08394,0.83358 6.32645,1.11069 9.53221,1.1035 1.13889,-0.0285 2.62889,-0.0559 3.76521,-0.12468 2.21603,-0.13418 4.41621,-0.43691 6.61622,-0.70035 2.9803,-0.31049 5.94088,-0.73845 8.90965,-1.12736 2.66629,-0.42705 5.29864,-0.98461 7.81656,-1.91009 2.35079,-0.86154 4.64326,-1.85137 6.81549,-3.04316 0.35858,-0.21659 0.72755,-0.41963 1.07573,-0.6498 1.85698,-1.22761 3.49183,-2.70947 5.1512,-4.14226 0.84919,-0.77527 1.48814,-1.33618 2.28724,-2.1557 1.51874,-1.55755 2.91492,-3.21922 4.24624,-4.91012 1.92107,-2.46866 3.77466,-5.0045 5.1183,-7.78017 1.2877,-2.59641 2.41438,-5.24965 3.30961,-7.98092 0.15509,-0.44753 0.34177,-0.88704 0.46529,-1.3426 0.16779,-0.61879 0.29841,-1.76577 0.37643,-2.39507 0.43821,-3.53464 -0.15234,1.08795 0.3221,-2.54712 0.0566,-0.43304 0.11073,-0.86632 0.1661,-1.29949 0.32021,-2.71207 0.51204,-5.43318 0.27235,-8.1598 -0.0311,-0.45043 -0.14672,-2.23163 -0.20794,-2.68907 -0.20966,-1.56627 -0.64509,-3.107144 -1.04411,-4.639144 -0.31556,-0.929315 -0.45254,-1.399587 -0.85332,-2.307303 -0.78191,-1.770951 -1.83055,-3.42924 -2.80229,-5.116278 -1.46617,-2.316722 -2.86955,-4.687829 -4.65709,-6.816612 -1.77377,-1.861388 -3.74951,-3.552754 -5.66002,-5.296727 -0.43553,-0.369554 -1.70737,-1.486712 -2.22584,-1.775839 -4.31041,-2.403666 -8.46915,-4.813327 -13.08074,-6.616059 -2.23903,-0.922786 -4.51184,-1.760453 -6.87051,-2.403349 -0.86857,-0.229422 -1.52666,-0.419227 -2.41066,-0.590069 -1.48288,-0.286581 -3.00369,-0.389492 -4.50517,-0.558679 -2.28594,-0.22073 -4.57214,-0.445995 -6.87192,-0.509891 -2.32968,-0.09478 -4.65778,-0.175194 -6.99003,-0.192839 -2.21141,-0.09813 -4.41023,-0.292122 -6.60602,-0.549323 -1.71016,-0.195545 -3.44358,-0.36808 -5.16004,-0.123286 -1.54766,0.289669 -3.016476,0.798838 -4.524709,1.21992 -1.231137,0.334841 -2.475608,0.623534 -3.693949,0.995829 z" />
</svg>
