<?xml version="1.0" encoding="UTF-8" standalone="no"?>
<!-- Created with Inkscape (http://www.inkscape.org/) -->

<svg
   width="1000"
   height="1000"
   viewBox="60 0 164 264.58333"
   version="1.1"
   id="svg1"
   xmlns="http://www.w3.org/2000/svg"
   xmlns:svg="http://www.w3.org/2000/svg">
  <defs
     id="defs1" />
  <path
     style="fill:#000000;stroke-width:5.89765"
     d="m 160.68074,92.331851 2.00225,38.181539"
     id="path1" />
  <path
     style="fill:#000000;stroke-width:5.89765"
     d="m 161.68187,111.42262 0.50056,34.28575"
     id="path2" />
  <path
     style="fill:#000000;stroke-width:5.89765"
     d="m 163.18355,176.09837 1.00114,15.19498"
     id="path3" />
  <path
     style="fill:#000000;stroke-width:5.89765"
     d="m 163.68411,221.68332 h 21.52422"
     id="path4" />
  <path
     style="fill:#000000;stroke-width:5.89765"
     d="m 175.69763,176.09837 -5.5062,-30.39"
     id="path5" />
  <path
     style="fill:#000000;stroke-width:5.89765"
     d="M 170.19143,115.3184 V 84.928428"
     id="path6" />
  <path
     style="fill:#000000;stroke-width:0.264583"
     id="path7"
     d="m 165.35439,68.852258 c -1.63298,-1.213564 -3.69562,-1.425366 -5.65139,-1.717974 -3.06435,-0.693864 -6.1966,-0.660225 -9.31666,-0.655629 -3.44587,0.11989 -6.89219,0.128664 -10.33883,0.218633 -3.41679,0.112768 -6.8249,0.324477 -10.21766,0.746537 -0.59492,0.07601 -1.19457,0.121359 -1.78476,0.22805 -0.67464,0.121954 -1.33789,0.300286 -2.0053,0.457081 -2.18085,0.51235 -4.36041,1.075166 -6.48118,1.80313 -0.79952,0.274442 -1.58403,0.590828 -2.37604,0.88624 -5.05304,1.65952 -9.99626,3.626136 -14.84791,5.80031 -4.354934,2.107517 -8.526871,4.530683 -12.517094,7.261238 -1.735516,1.377987 -3.5341,2.702237 -5.155557,4.218353 -1.664608,1.556464 -3.195169,3.280097 -4.741519,4.951687 -1.441812,1.605201 -2.666177,3.382547 -3.94535,5.114335 -1.140076,1.543476 -2.283275,3.070671 -3.370588,4.652401 -0.319606,0.55035 -0.668705,1.08461 -0.958818,1.65107 -0.320789,0.62635 -0.586999,1.27923 -0.87158,1.92284 -0.560604,1.26788 -1.172382,2.68182 -1.632669,3.99049 -0.330626,0.94001 -1.049785,3.35528 -1.340099,4.31501 -0.06071,0.21007 -1.132282,3.90303 -1.190019,4.16159 -0.178975,0.80145 -0.283258,1.61779 -0.420524,2.42744 -0.396533,2.33889 -0.739497,4.68294 -1.07343,7.03139 -0.216728,2.17341 -0.381392,4.36337 -0.270865,6.54923 0.104609,2.06874 0.457555,4.11928 0.779659,6.16163 0.523412,2.59505 0.941083,5.24308 2.089814,7.65546 0.695875,1.46136 1.153639,2.03157 2.054704,3.36517 1.886767,2.17723 3.82611,4.46357 6.347375,5.94231 10.413587,6.10765 7.100057,4.7511 12.803492,6.87937 4.02986,1.46594 8.309744,1.61418 12.547188,1.68752 2.57404,0.0304 1.87073,0.081 4.50021,-0.13402 0.76719,-0.0627 1.53873,-0.0969 2.29904,-0.21714 2.7681,-0.43775 5.41389,-1.38701 8.04971,-2.29849 5.46237,-1.97705 10.23445,-5.07349 14.88942,-8.48106 0.74052,-0.57422 1.48322,-1.14563 2.22156,-1.72267 1.22268,-0.95556 2.97935,-2.3265 4.15516,-3.35493 1.89204,-1.65492 3.66025,-3.45182 5.42317,-5.24084 3.2732,-3.27835 6.2294,-6.84145 9.15584,-10.42547 0.47067,-0.57313 0.93379,-1.15254 1.412,-1.71939 1.51681,-1.79798 1.39318,-1.49919 2.8089,-3.41773 1.43358,-1.94276 2.75238,-3.97627 4.06897,-5.99869 2.9613,-4.91803 5.47079,-10.07681 7.98109,-15.23274 2.20348,-4.64885 3.51383,-9.634417 4.87518,-14.574679 0.8845,-2.932385 1.2793,-5.948879 1.50341,-8.991158 0.0517,-1.466578 0.15819,-2.9351 0.10734,-4.402879 -0.10506,-0.894717 -0.15344,-1.792345 -0.19254,-2.691534 0.009,-4.847392 1.9998,-0.228003 -11.59198,-6.421226 -0.1646,-0.075 -0.0444,0.359166 -0.0749,0.537464 -0.0349,0.204105 -0.0808,0.406172 -0.12121,0.609258 -0.10953,0.608719 -0.30763,1.196441 -0.4387,1.799905 -0.41935,1.930845 -0.18166,1.433428 -0.8283,3.484026 -0.47989,1.521814 -0.93104,2.554229 -1.52904,4.035057 -1.06417,2.812648 -2.46205,5.478616 -3.70356,8.213074 -0.5172,1.139142 -1.26476,2.867543 -1.76472,4.01542 -1.12056,2.691415 -2.23499,5.383392 -3.2252,8.125782 -0.25974,0.71935 -0.54503,1.43032 -0.77156,2.16082 -0.27374,0.88272 -0.48543,1.7835 -0.72815,2.67525 -1.6859,5.44965 -3.34701,10.90438 -4.55245,16.48276 -0.96318,4.57282 -1.28732,9.25173 -1.40609,13.9142 0.1588,3.4343 0.41975,6.86186 0.69245,10.28859 0.0742,0.93231 0.12245,1.86747 0.23577,2.79583 0.1311,1.07412 0.33137,2.13866 0.49705,3.20799 0.67434,4.14012 1.39549,8.28235 2.3587,12.36701 0.29094,1.2338 1.14018,4.48396 1.46389,5.73318 0.67864,2.74251 1.46802,5.45739 2.40614,8.12281 0.30429,0.86455 0.59831,1.73436 0.95877,2.57703 0.4458,1.04218 2.21872,4.56524 2.72945,5.59063 2.5276,5.19578 5.83473,9.95018 9.25744,14.5866 3.0695,3.94828 6.44439,7.63364 9.94137,11.20268 1.8761,1.774 3.43981,3.83435 5.16243,5.74626 1.23404,1.36963 2.10686,2.18837 3.42881,3.48969 1.2229,1.12937 2.17186,2.05374 3.47295,3.07739 3.75316,2.95282 11.26575,6.68766 13.39613,7.79701 0.50727,0.26415 1.11547,0.25321 1.6732,0.37981 0,0 -8.43634,-6.57662 -8.43634,-6.57662 v 0 c -4.9842,-2.21638 -3.60412,-1.70843 5.93626,3.86641 0.58053,0.33922 -1.15965,-0.68469 -1.70419,-1.0791 -0.53953,-0.39078 -1.05175,-0.8204 -1.54164,-1.27185 -0.49202,-0.45341 -0.93314,-0.95911 -1.39971,-1.43867 -2.66105,-3.03727 -5.1477,-6.23401 -8.05504,-9.04748 -3.63009,-3.55931 -7.18652,-7.19962 -10.34158,-11.19531 -3.67809,-4.55897 -7.07876,-9.35467 -9.7877,-14.56186 -1.32316,-2.60776 -2.5995,-5.2203 -3.63532,-7.95933 -0.68479,-1.8108 -1.21092,-3.5365 -1.77449,-5.38778 -0.27731,-0.91092 -0.54399,-1.82505 -0.81599,-2.73757 -1.68841,-5.9489 -3.27679,-11.94992 -4.15165,-18.08057 -0.55374,-5.29175 -1.13176,-10.60501 -1.07486,-15.93231 -0.0472,-4.65299 0.19177,-9.30747 0.93309,-13.90756 1.00087,-5.60579 2.25221,-11.17286 4.12834,-16.55909 0.57841,-1.54776 1.11126,-3.11229 1.69059,-4.6597 1.01585,-2.71337 2.20621,-5.36155 3.22307,-8.074884 1.72798,-4.125585 3.61198,-8.182589 5.45454,-12.257789 1.22956,-2.979925 2.55689,-5.915387 3.80348,-8.886573 0.0849,-0.205246 0.16952,-0.410626 0.25477,-0.615734 0.0477,-0.114765 0.25118,-0.280812 0.14409,-0.343881 -13.24121,-7.798276 -11.89187,-10.515171 -11.36227,-5.683099 0.0874,0.935061 0.24606,1.862529 0.35218,2.795593 0.21477,1.481417 0.20452,2.991643 0.32618,4.482181 0.14157,3.066926 0.026,6.132981 -0.64474,9.142643 -1.02305,4.991036 -2.19729,9.979906 -4.22439,14.674243 -0.40563,0.89759 -0.79094,1.80465 -1.21689,2.69279 -2.0312,4.23512 -4.43773,8.29835 -6.97563,12.2452 -1.05565,1.63896 -1.5057,2.38874 -2.65548,3.96835 -1.76915,2.43053 -3.76458,4.68363 -5.64097,7.02938 -2.84591,3.59302 -5.76998,7.12188 -8.90838,10.46565 -3.47505,3.77812 -7.1515,7.35725 -11.29259,10.4127 -1.59165,1.18677 -2.86228,2.17669 -4.53619,3.2525 -3.15193,2.02573 -6.54626,3.65224 -10.00547,5.07609 -0.88818,0.30629 -1.76274,0.65535 -2.66454,0.91887 -3.92248,1.14622 -8.034521,1.4142 -12.099995,1.33262 -4.190161,-0.14261 -8.326297,-0.42177 -12.283122,-1.95349 -4.364424,-1.85499 -2.87985,-1.32595 5.155924,3.39563 0.607965,0.35722 -1.225505,-0.70238 -1.800283,-1.11086 -1.023249,-0.7272 -2.372677,-1.95662 -3.236558,-2.85922 -0.483237,-0.5049 -0.920451,-1.05192 -1.380675,-1.57788 -0.874511,-1.18828 -1.433338,-1.85836 -2.132319,-3.16268 -1.236668,-2.30765 -1.783803,-4.90502 -2.255668,-7.45527 -0.755251,-4.136 -1.341644,-8.31175 -0.799272,-12.52007 0.136443,-1.32575 0.32531,-3.30055 0.519586,-4.60966 0.445963,-3.00511 1.302851,-5.92326 2.10036,-8.84876 1.175211,-4.00215 2.598394,-7.94977 4.881835,-11.47141 2.204064,-3.34831 4.467,-6.67553 7.018139,-9.770553 1.180436,-1.337178 1.744557,-2.023377 3.026841,-3.281873 2.097241,-2.058326 4.361188,-3.958024 6.720899,-5.705975 3.861518,-2.750021 7.947308,-5.16414 12.211768,-7.239757 4.78364,-2.223569 9.71931,-4.118763 14.74179,-5.732327 0.86414,-0.240321 1.73096,-0.471197 2.59242,-0.720966 1.93457,-0.560903 2.30693,-0.759423 4.275,-1.213789 1.89269,-0.436965 2.45125,-0.476293 4.3589,-0.727001 0.58268,-0.07658 1.16585,-0.149395 1.74877,-0.224092 3.38593,-0.291211 6.77502,-0.514053 10.16968,-0.678973 3.40431,-0.08807 6.80979,-0.09598 10.21141,-0.274977 3.03642,0.01564 6.06151,0.184082 9.06104,0.687041 1.41833,0.285211 2.78702,0.602451 4.11272,1.194568 0.53827,0.240418 0.32284,0.316886 0.5733,0.196961 z" />
</svg>
