<?xml version="1.0" encoding="UTF-8" standalone="no"?>
<!-- Created with Inkscape (http://www.inkscape.org/) -->

<svg
   width="1000"
   height="1000"
   viewBox="60 0 164 264.58333"
   version="1.1"
   id="svg1"
   xmlns="http://www.w3.org/2000/svg"
   xmlns:svg="http://www.w3.org/2000/svg">
  <defs
     id="defs1" />
  <path
     style="fill:#000000;stroke-width:0.264583"
     id="path1"
     d="m 97.613671,169.45894 c -1.205399,-1.47851 -1.664327,-3.37716 -2.050545,-5.20232 -0.771998,-3.86401 -0.975114,-7.79794 -1.086469,-11.72626 0.01749,-5.46379 1.097124,-10.83273 2.123612,-16.17462 0.737579,-5.04615 1.827543,-10.02578 3.078448,-14.9663 0.461223,-1.83543 0.971963,-3.65761 1.459033,-5.48601 0.15905,-0.59705 0.27894,-1.20486 0.45962,-1.79572 0.40875,-1.33669 0.92553,-2.63794 1.38383,-3.95846 0.27047,-0.66702 0.52357,-1.34135 0.81141,-2.00105 0.23368,-0.53559 1.47663,-3.11226 1.72574,-3.65794 0.8862,-1.94127 1.75702,-3.87422 2.70712,-5.786076 1.85745,-3.510351 3.7463,-7.007841 5.90135,-10.345645 1.36121,-2.078958 3.16957,-3.783285 4.75026,-5.68249 0.63524,-0.76449 1.38465,-1.428504 2.03097,-2.182427 0.81118,-0.946218 0.60116,-0.876884 1.53983,-1.842762 0.32875,-0.338283 0.69084,-0.64249 1.03626,-0.963736 1.25454,-0.987605 2.55656,-1.977502 4.03038,-2.622198 0.0671,-0.02937 1.05419,-0.37374 1.22238,-0.43261 0.40534,-0.148625 0.63777,-0.10455 0.8992,-0.460042 0.0557,-0.0757 0.1858,-0.325839 0.14846,-0.239617 -0.0653,0.150823 -0.15527,0.289735 -0.2329,0.434605 -0.42757,0.236355 -0.1885,0.199911 -0.72544,0.01013 0,0 -10.01597,-7.895622 -10.01597,-7.895622 v 0 c -0.66717,-0.243469 -0.35436,-0.257735 -0.9381,-0.04925 -1.01758,1.406221 -0.1771,0.254553 -0.1888,0.24728 -0.003,-0.0019 -0.51621,0.417806 -0.53157,0.440168 -0.27102,0.253998 -0.5169,0.534324 -0.79234,0.783529 -1.19142,1.077963 -2.5428,1.977674 -3.73981,3.049913 -1.00662,0.884997 -2.04606,1.746721 -2.95847,2.732045 -0.33907,0.366179 -0.9079,1.079037 -1.22042,1.458087 -0.22694,0.27526 -0.45579,0.548945 -0.68369,0.823416 -0.30204,0.331821 -1.16061,1.265226 -1.4535,1.624753 -1.13682,1.395478 -1.992,2.986484 -2.89834,4.532992 -2.04534,3.44864 -4.011391,6.954957 -5.735008,10.576433 -1.870996,3.812871 -3.72373,7.638604 -5.236025,11.611924 -0.250965,0.68927 -0.533715,1.36778 -0.752896,2.06781 -0.212632,0.67913 -0.363056,1.3762 -0.541147,2.06519 -0.639619,2.47457 -1.208039,4.97112 -1.625854,7.49343 -0.40786,2.35305 -0.84456,4.7036 -1.206809,7.06424 -0.452107,2.9462 -0.319662,2.44311 -0.741757,5.46229 -0.133736,0.9566 -0.28507,1.91066 -0.427606,2.866 -0.41333,2.78457 -0.894355,5.57273 -1.219769,8.36918 -0.241041,2.0714 -0.303324,3.46498 -0.413573,5.52869 -0.04719,0.88334 -0.08855,1.76698 -0.132831,2.65047 -0.185907,3.86566 -0.197051,7.77173 0.383968,11.60745 0.319675,1.91704 0.634506,3.96227 1.668177,5.64183 z" />
  <path
     style="fill:#000000;stroke-width:0.264583"
     id="path2"
     d="m 132.19354,75.601294 c 1.27632,0.154019 2.4997,0.581316 3.7542,0.830368 0.76748,0.152366 1.55041,0.213162 2.32371,0.332568 1.52362,0.167413 3.0102,0.552204 4.52808,0.754092 2.23551,0.297339 0.16904,-0.05399 2.46453,0.369541 0.42578,0.105746 0.8536,0.203605 1.27734,0.317238 1.1191,0.300098 1.64343,0.525166 2.80427,0.704286 1.56889,0.242081 3.20051,0.258607 4.78132,0.396849 3.52685,0.497663 7.08242,0.4822 10.6345,0.51077 2.89687,0.116975 5.7911,0.28906 8.68691,0.428093 1.2267,0.144828 2.51664,7.94e-4 3.7179,0.319707 0.1227,-0.09067 0.30059,0.143341 0.43605,0.08372 0.34692,-0.152697 0.5739,-0.551797 0.77088,-0.847865 0.0281,-0.05114 0.0428,-0.112298 0.0842,-0.153419 0.0167,-0.01659 -0.0752,0.156019 0.0837,0.120732 0.64431,-0.143066 -0.31329,0.0085 0.29471,-0.08052 0.17494,-0.17003 0.53368,0.05895 0.71017,-0.02593 0.0826,-0.03973 0.14143,-0.116678 0.21215,-0.175019 0.26362,-0.138917 0.517,-0.18887 0.80824,-0.145272 0.16864,0.01506 0.3402,0.0028 0.50245,0.05672 0.10543,0.01603 0.21268,0.01958 0.31917,0.02932 0.0574,0.02344 0.10044,-7.94e-4 0.1603,0.0019 0.0765,0.0073 0.1534,0.0081 0.23009,0.01378 0.0577,-0.0104 0.0258,-0.0065 0.0958,-0.0093 -3.90271,-2.163524 -7.81915,-4.302477 -11.70814,-6.49057 -0.0532,-0.02994 0.12672,-0.01738 0.18307,0.0061 0.0994,0.04149 0.20585,0.274018 0.24136,0.336799 0.38046,0.441597 0.58482,0.927251 0.74584,1.489741 0.12687,0.764297 0.3681,1.504527 0.46074,2.274044 0.17631,1.216961 0.62677,2.363338 0.916,3.556651 0.53443,2.186728 0.89422,4.408339 1.33935,6.613265 0.79913,3.171328 1.56274,6.350934 2.32029,9.532602 0.6292,3.312115 1.46293,6.575575 2.32228,9.833845 0.77176,3.21753 1.19452,6.50193 1.78059,9.75481 0.75605,3.38565 0.90395,6.84107 1.02998,10.2928 0.15493,2.50489 0.43133,5.00858 0.47427,7.51981 0.0235,1.37281 -0.0594,2.72455 -0.12207,4.09461 -0.23332,3.93179 -0.28034,7.86779 -0.35118,11.80418 -0.04,3.89363 -0.28737,7.72894 -0.79563,11.58889 0.0365,1.84824 -0.34678,3.6588 -0.5996,5.47876 -0.0418,0.30122 -0.11613,0.60111 -0.11383,0.90521 0.002,0.28929 0.0848,0.57234 0.12718,0.85851 0.99646,0.72099 1.99292,1.44197 2.98938,2.16296 0,0 4.65726,2.42065 4.65726,2.42065 v 0 c 1.02768,0.33594 2.05537,0.67188 3.08305,1.00782 0.0881,-0.21176 0.21477,-0.41133 0.26438,-0.63527 0.0657,-0.29673 0.0519,-0.60562 0.0776,-0.90846 0.0311,-0.36646 0.0591,-0.7332 0.0927,-1.09944 0.13383,-1.45575 0.279,-2.91537 0.64014,-4.33651 0.16863,-2.58456 0.28227,-5.17267 0.454,-7.75698 0.0461,-0.69329 0.12807,-1.38411 0.16357,-2.07803 0.0331,-0.64727 0.0281,-1.29593 0.0422,-1.94389 0.0276,-3.93661 0.16052,-7.87266 0.28354,-11.80733 0.0954,-3.85901 0.22946,-7.71685 -0.0357,-11.57335 -0.22224,-3.49514 -0.49515,-6.98988 -1.02988,-10.45347 -0.50054,-3.32339 -1.14406,-6.62241 -1.87158,-9.90318 -0.73011,-3.27284 -1.63082,-6.5064 -2.30138,-9.79317 -0.6342,-3.135319 -1.5687,-6.202686 -2.11326,-9.355107 -0.27227,-2.200595 -0.69616,-4.371443 -1.13205,-6.544204 -0.14369,-1.120153 -0.22589,-2.243381 -0.57723,-3.323047 -0.0638,-0.409729 -0.0938,-0.829652 -0.17413,-1.236247 -0.27729,-1.402805 0.084,0.619715 -0.20605,-0.724969 -0.0297,-0.137824 -0.0381,-0.279403 -0.0571,-0.419103 -0.0997,-0.61159 -0.12016,-1.322604 -0.43886,-1.856235 -0.10387,-0.146145 -0.1551,-0.185496 -0.18852,-0.371419 -0.0169,-0.09422 0.0654,-0.238472 -0.0173,-0.286665 -3.92094,-2.284611 -7.92088,-4.430853 -11.88131,-6.646281 -0.0829,-0.003 -0.0422,1.93e-4 -0.1219,-0.0093 -0.0635,0.006 -0.12728,0.0059 -0.19055,0.01376 -0.049,0.0024 -0.0924,-0.02389 -0.13551,5.29e-4 -0.10275,0.0078 -0.20536,0.01318 -0.30743,0.0258 -0.1724,0.05951 -0.35242,0.08171 -0.5295,0.129318 -0.33256,0.109029 -0.63941,0.276455 -0.97625,0.373406 -0.0183,-0.02566 -0.0239,-0.07129 -0.0549,-0.07698 -0.18234,-0.0335 -0.64355,0.303678 -0.83544,0.347453 -0.3386,0.188572 -0.8061,0.444257 -0.90734,0.856793 0.0653,-0.130249 0.0713,-0.381098 -0.16364,-0.185468 -0.0368,0.03583 -0.0612,0.09271 -0.11043,0.107495 -0.10082,0.0303 -0.21019,0.01257 -0.31517,0.0204 -0.83526,0.06223 -1.67234,0.09181 -2.51015,0.09375 -2.73538,0.0057 -5.47006,-0.04238 -8.2054,-0.05146 -3.52377,-0.01617 -7.0462,-0.145581 -10.54817,-0.563713 -1.58451,-0.141629 -3.16893,-0.276265 -4.74159,-0.522788 -1.28827,-0.20194 -1.19565,-0.229274 -2.47713,-0.475387 -0.4221,-0.08107 -0.84622,-0.151252 -1.26933,-0.226878 -1.12889,-0.130556 -2.27818,-0.305903 -3.41543,-0.343259 -0.28561,-0.0094 -0.5712,0.02979 -0.85693,0.02529 -0.20077,-0.0032 -1.78916,-0.108366 -1.95569,-0.119124 -0.198,0.01331 -1.45678,0.08472 -1.69179,0.148736 -0.17473,0.04759 -0.30974,0.191307 -0.47809,0.258048 -0.46459,0.184184 -0.96438,0.177699 -1.45408,0.178496 z" />
</svg>
