<?xml version="1.0" encoding="UTF-8" standalone="no"?>
<!-- Created with Inkscape (http://www.inkscape.org/) -->

<svg
   width="1000"
   height="1000"
   viewBox="0 0 264.58333 264.58333"
   version="1.1"
   id="svg1"
   xmlns="http://www.w3.org/2000/svg"
   xmlns:svg="http://www.w3.org/2000/svg">
  <defs
     id="defs1" />
  <path
     style="fill:#000000;stroke-width:0.264583"
     id="path7"
     d="m 104.25968,69.563143 c -0.27455,1.198946 -0.89265,2.251969 -1.4339,3.338827 -0.64157,1.288304 -0.75158,1.651122 -1.32119,3.06423 -0.57294,1.370142 -1.06314,2.643137 -1.783075,3.948911 -3.809703,6.909824 1.413265,-3.148761 -2.334752,4.018561 -0.802629,1.534866 -1.565373,3.090293 -2.358961,4.629856 -2.300857,4.549228 -5.134123,8.798536 -7.546237,13.282982 -0.813512,1.39388 -1.276908,2.97008 -2.079239,4.36931 -0.389017,0.67843 -0.866187,1.30293 -1.327031,1.93477 -0.446323,0.61193 -0.981924,1.15896 -1.39329,1.79491 -0.517869,0.80061 -1.411513,2.8131 -1.816182,3.68928 -1.356651,3.82633 -2.849422,7.60118 -4.321117,11.38408 -1.1542,2.86702 -2.310722,5.57037 -4.01851,8.15664 -1.200679,1.56399 -2.24277,3.22263 -3.258981,4.90765 -0.09494,0.15827 -0.181375,0.32196 -0.284814,0.47482 -0.07773,0.11486 -0.179533,0.2121 -0.257606,0.32672 -0.228587,0.33561 -0.34014,0.73545 -0.470416,1.11528 -0.11576,0.27957 -0.196043,0.60396 -0.39253,0.84169 -0.027,0.01 -0.09662,0.005 -0.08098,0.0292 0.05433,0.0836 0.148725,0.13292 0.226708,0.19501 0.212072,0.16884 0.428816,0.33173 0.643223,0.49759 0,0 7.727186,4.68835 7.727186,4.68835 v 0 c 0.228179,0.0934 0.809688,0.43324 1.173329,0.34743 0.03654,-0.009 0.009,-0.0746 0.01352,-0.11184 0.189381,-0.37807 0.417544,-0.7204 0.438703,-1.15784 0.168653,-0.66717 0.243734,-1.35365 0.48949,-1.99961 0.706353,-1.80893 1.732018,-3.45493 2.682734,-5.14229 0.438296,-0.80833 0.942216,-1.70893 1.328698,-2.5419 0.909857,-1.96099 1.612022,-4.01217 2.299621,-6.0583 0.291444,-0.91088 0.900713,-2.80194 1.170638,-3.70027 0.800926,-2.66553 1.474364,-5.36934 2.580847,-7.93417 0.243752,-0.61799 0.479843,-1.23905 0.73126,-1.85396 0.265899,-0.65032 0.601803,-1.2738 0.820574,-1.94145 1.257252,-3.83691 -0.162002,-0.72629 1.204314,-4.60713 0.267449,-0.75965 0.635291,-1.48015 0.958509,-2.2178 0.323366,-0.73799 0.654145,-1.4727 0.981218,-2.20904 0.318836,-0.72844 0.654754,-1.44964 0.956511,-2.18532 1.479695,-3.607451 0.286123,-1.0327 1.844598,-4.691938 1.033791,-2.427303 2.1921,-4.804164 3.430537,-7.132894 1.195753,-2.210176 2.487473,-4.398568 3.521203,-6.691942 2.88058,-6.390688 -1.08345,1.945447 1.77256,-4.18873 0.296,-0.635754 0.61982,-1.258176 0.92974,-1.887265 1.10585,-2.036892 2.11728,-4.124502 3.2893,-6.122381 z" />
  <path
     style="fill:#000000;stroke-width:0.264583"
     id="path8"
     d="m 83.431233,135.44427 c 1.220841,0.12204 2.418094,0.39978 3.622673,0.62463 1.567939,0.50293 3.216156,0.64615 4.81035,1.02835 2.761887,0.66217 0.498784,0.28308 2.918843,0.62932 1.61784,0.0404 3.216672,0.2941 4.823971,0.44256 0.56866,0.0525 1.14077,0.0584 1.71025,0.10107 1.4187,0.10619 2.11939,0.20126 3.54571,0.36482 0.62699,0.0817 1.256,0.14918 1.88096,0.24522 4.07371,0.62605 -0.17942,0.0744 3.98747,0.66476 2.03498,0.28832 1.98127,0.20199 4.02101,0.54372 0.65924,0.11045 1.31315,0.25061 1.96973,0.37591 0.68226,0.12686 1.35805,0.29562 2.04678,0.38059 1.61242,0.19892 3.30944,0.19694 4.92971,0.2168 2.28571,0.028 4.56876,0.0666 6.85398,0.1249 3.42949,0.13258 6.86526,0.0596 10.29324,0.21314 1.87623,0.0948 3.73384,0.39545 5.58766,0.6836 0.3091,0.048 0.72112,0.37402 0.92803,0.1394 0.18337,-0.20792 -0.27711,-0.48024 -0.41567,-0.72037 0.059,-0.0521 0.1181,-0.10427 0.17714,-0.1564 0,0 -6.67952,-4.99862 -6.67952,-4.99862 v 0 c -0.26201,-0.0978 -0.52401,-0.19558 -0.78601,-0.29337 -0.59023,-0.30197 -1.15056,-0.67141 -1.7707,-0.90591 -0.10761,-0.0407 -1.94163,-0.18991 -1.97904,-0.19331 -1.43345,-0.13015 -2.8665,-0.2753 -4.30669,-0.30985 -3.32321,-0.0289 -6.64535,0.0105 -9.96822,0.0529 -4.4564,0.0646 -8.97315,0.30402 -13.36615,-0.60401 -3.75985,-0.60135 -7.54143,-1.0129 -11.332779,-1.35385 -1.718665,-0.18177 -3.473816,-0.37383 -5.206344,-0.3365 -0.470453,0.0101 -0.936014,0.10854 -1.406374,0.12233 -0.762191,0.0223 -1.974916,-0.082 -2.737086,-0.13583 -2.349944,-0.0943 -0.03012,-0.10517 -1.860738,0.14936 -1.185283,0.1648 -2.407618,-0.11084 -3.587654,-0.18916 -1.176639,-0.23436 -2.401218,-0.61153 -3.60339,-0.36026 z" />
  <path
     style="fill:#000000;stroke-width:0.264583"
     id="path9"
     d="m 124.82088,79.500295 c 0.43863,1.123008 1.07399,2.252083 1.20049,3.473842 0.0494,0.476895 -0.10117,0.957297 -0.0783,1.436198 0.0294,0.615815 0.15828,1.222838 0.23434,1.834644 0.0799,0.642604 0.15565,1.285714 0.23348,1.928572 -0.27608,3.426254 0.91552,6.684745 1.48043,10.011034 0.14386,0.847066 0.21874,1.704412 0.32811,2.556615 0.39707,4.8318 2.08778,9.40246 3.40518,14.02825 0.23985,0.84217 0.44793,1.69306 0.67189,2.5396 0.94685,4.04336 1.99468,8.05909 3.26513,12.01275 1.28928,4.69128 2.86853,9.29404 4.3386,13.92946 1.41986,4.89993 1.95569,9.99623 2.45142,15.05685 0.34856,3.37629 0.40593,6.77252 0.70929,10.15218 0.28577,2.51265 0.88593,4.97007 1.30407,7.46054 0.32235,2.3496 0.6525,4.70028 1.06601,7.03586 0.34155,2.10325 0.95435,4.14372 1.51106,6.19563 0.52443,1.66083 1.02101,3.32744 1.37885,5.03266 0.28132,1.25798 0.31384,2.54922 0.60012,3.80525 0.17006,0.88321 0.50416,1.71894 0.7257,2.58573 0.0184,0.20871 0.15255,0.37901 0.20808,0.57767 1.75337,-1.5793 2.24629,1.02146 6.55036,3.42879 0,0 -1.4522,-1.05174 -1.4522,-1.05174 v 0 c 2.05219,1.19159 4.08306,2.42066 6.15655,3.57478 0.0232,0.0129 0.16054,-0.14807 0.16976,-0.18998 0.005,-0.0205 -0.007,-0.10431 -0.009,-0.12057 -0.0181,-0.29793 0.001,-0.61433 -0.16929,-0.87514 -0.37193,-0.8043 -0.61666,-1.65895 -0.83335,-2.51613 -0.37924,-1.21229 -0.5237,-2.45447 -0.61864,-3.71747 -0.31878,-1.77537 -0.89973,-3.48355 -1.46999,-5.1915 -0.59942,-2.05481 -1.26103,-4.09369 -1.71446,-6.18827 -0.52052,-2.31325 -0.69983,-4.6835 -1.10688,-7.01823 -0.43837,-2.48978 -1.05781,-4.9448 -1.40851,-7.45005 -0.56609,-3.52402 -1.09679,-7.05324 -1.61445,-10.58466 -0.67215,-5.21009 -1.37643,-10.38038 -2.8189,-15.44897 -0.56213,-2.00915 -0.77925,-2.86483 -1.41267,-4.82563 -0.98949,-3.06308 -2.10761,-6.08514 -3.03843,-9.16775 -1.28786,-4.35665 -2.87983,-8.60998 -4.76951,-12.74376 -0.35627,-0.90372 -0.74102,-1.79674 -1.06881,-2.71117 -1.72052,-4.79968 -2.83738,-9.80216 -4.66861,-14.566 -0.31083,-0.9501 -0.64852,-1.89183 -0.93248,-2.8503 -0.6296,-2.125126 -0.99116,-4.326121 -1.62968,-6.447897 -0.21953,-0.729511 -0.48067,-1.446167 -0.74565,-2.160428 -0.28124,-0.758098 -0.59508,-1.503699 -0.89263,-2.255549 -0.11467,-0.361305 -1.19958,-3.806344 -1.35782,-4.201155 -0.26372,-0.658 -0.65394,-1.260591 -0.91597,-1.919264 -0.41918,-1.053711 -0.56788,-2.184722 -0.78015,-3.289204 z" />
  <path
     style="fill:#000000;stroke-width:0.264583"
     id="path10"
     d="m 141.51561,127.99375 c -0.70156,-0.76138 -1.35964,-1.58872 -1.81663,-2.52431 -0.34919,-0.71488 -0.47366,-1.20963 -0.71426,-1.96992 -0.28744,-1.00404 -0.39996,-2.04362 -0.56174,-3.07177 -0.0811,-0.51511 -0.29802,-1.71324 -0.32261,-2.2325 -0.0166,-0.35106 0.0257,-0.70243 0.0385,-1.05364 -0.0221,-1.75295 0.10602,-3.53708 -0.20411,-5.27341 -0.0689,-0.38568 -0.17099,-0.76468 -0.25649,-1.14702 -0.0331,-0.35771 -0.0952,-0.71391 -0.0993,-1.07313 -0.004,-0.37525 0.10648,-0.74956 0.0738,-1.12341 -0.0417,-0.47757 -0.1924,-0.9393 -0.29494,-1.40758 -0.31075,-1.41921 -0.66312,-2.82239 -1.04561,-4.22367 -0.58092,-1.79455 -0.74677,-3.673324 -1.05246,-5.521962 -0.1495,-0.90405 -0.34348,-1.722096 -0.54153,-2.616639 -0.49396,-1.979991 -0.65541,-4.013092 -0.79825,-6.041321 -0.0184,-0.263271 -0.0209,-0.528146 -0.0553,-0.789808 -0.10259,-0.780304 -0.31478,-1.550144 -0.44709,-2.325743 -0.0733,-0.429617 -0.12322,-0.862939 -0.1922,-1.293268 -0.42156,-1.70117 -1.28298,-3.239653 -1.76711,-4.92126 -0.20533,-0.734666 -0.25979,-1.487747 -0.3168,-2.242921 -0.0177,-0.234942 0.0799,-0.51704 -0.0635,-0.703974 -1.80629,-1.634908 -1.182,-0.820909 -2.09712,-2.252332 0,0 -5.55419,-2.776386 -5.55419,-2.776386 v 0 c -1.84619,1.252773 2.48283,-1.547731 -1.97688,0.180297 -0.22222,0.0861 -0.009,0.476983 0.004,0.714942 0.0454,0.827513 0.16146,1.658673 0.32159,2.470769 0.43914,1.652638 1.1848,3.187562 1.69728,4.815443 0.42694,1.626105 0.76776,3.291155 1.54319,4.799245 0.63878,2.07382 0.85769,4.248981 1.38421,6.352828 0.60426,2.752215 1.13904,5.518669 1.76464,8.266158 0.36782,1.395402 0.75126,2.786132 1.07964,4.191572 0.1087,0.46522 0.17076,0.94267 0.31405,1.39843 0.28698,0.91275 0.79881,1.74641 0.99163,2.6937 0.26809,1.11773 0.63915,2.22162 0.86854,3.3473 0.1527,0.74933 0.19187,1.48916 0.30967,2.2436 0.0625,0.40043 0.14744,0.79703 0.22116,1.19555 0.10186,0.41368 0.22128,0.82342 0.30558,1.24103 0.36599,1.81319 0.45619,3.68412 0.98469,5.4661 0.4886,1.63623 1.14788,3.19238 2.13119,4.59816 z" />
</svg>
