<?xml version="1.0" encoding="UTF-8" standalone="no"?>
<!-- Created with Inkscape (http://www.inkscape.org/) -->

<svg
   width="1000"
   height="1000"
   viewBox="60 0 164 264.58333"
   version="1.1"
   id="svg1"
   xmlns="http://www.w3.org/2000/svg"
   xmlns:svg="http://www.w3.org/2000/svg">
  <defs
     id="defs1" />
  <path
     style="fill:#000000;stroke-width:0.264583"
     id="path1"
     d="m 108.44782,70.805534 c 1.34111,0.396846 2.71445,0.711679 4.10286,0.886227 2.08135,-0.02922 4.15177,-0.181192 6.23537,-0.115017 2.17052,0.02394 4.31409,0.391025 6.44535,0.769607 1.97749,0.333004 3.94792,0.684657 5.94459,0.886129 1.76518,0.158607 3.54054,0.204018 5.31236,0.209045 1.54851,0.01061 3.09657,0.03606 4.64461,0.07384 0.94976,0.02432 1.90007,0.04318 2.85015,0.05643 0.47383,-0.02766 0.95932,0.05704 1.43209,0.003 0.29976,-0.03429 0.59394,-0.107357 0.89252,-0.150775 0.82814,-0.149053 1.64213,-0.331129 2.48197,-0.4141 0.48447,-0.211854 0.9995,-0.365249 1.53029,-0.298759 0.12953,-0.03704 0.27424,0.04253 0.40205,0.0021 0.49711,-0.156827 1.38295,-0.878695 1.87704,-1.174626 0.468,-0.359011 1.03685,-0.350975 1.58117,-0.483449 0.21668,-0.05273 0.43221,-0.141224 0.64409,-0.2125 0.0724,-0.0167 0.14479,-0.05063 0.21963,-0.04405 -3.59647,-2.227469 -7.19294,-4.454941 -10.7894,-6.682412 -0.26228,0.194003 -0.34529,0.399087 -0.4356,0.567949 -0.37558,0.520885 -0.60719,1.121434 -0.88165,1.699001 -0.13868,0.337534 -0.40444,0.969952 -0.5146,1.302316 -0.11483,0.346493 -0.19814,0.7029 -0.31268,1.049491 -0.41958,1.269659 -0.93591,2.51002 -1.3936,3.766288 -1.29156,4.129709 -2.47066,8.290187 -3.50382,12.491736 -0.85204,3.53138 -1.47189,7.112352 -2.25175,10.659139 -0.39756,1.808086 -0.82653,3.609136 -1.23049,5.415806 -1.20032,5.20851 -2.53685,10.39234 -3.45817,15.65931 -0.45112,2.49515 -0.65258,5.02461 -0.98017,7.53596 -0.42879,3.2871 -0.25661,1.40939 -0.71909,4.62892 -0.11408,0.79416 -0.20047,1.59205 -0.30071,2.38808 -0.7438,4.89021 -1.37597,9.79487 -1.95819,14.7064 -0.41307,4.43775 -1.08657,8.85017 -1.3688,13.29905 -0.0874,3.98351 -0.39972,7.95684 -0.5573,11.93788 -0.0769,2.59132 -0.35884,5.18107 -0.29926,7.77447 -0.0421,1.96259 0.23161,3.89764 0.55862,5.82583 0.16164,1.20875 0.43171,2.39574 0.75015,3.57131 0.0987,0.50645 0.2019,1.0025 0.40134,1.47632 0.004,0.0549 0.0711,0.19978 0.0782,0.21168 0.13659,-0.48795 1.18764,-1.68384 0.98219,-0.89776 0,0 10.97543,8.21101 10.97543,8.21101 v 0 c 0.28448,0.84898 1.08362,-0.29719 1.20487,-0.86701 0.0262,-0.17428 -0.0915,-0.34126 -0.11761,-0.50922 -0.16973,-0.58489 -0.51956,-0.92668 -0.66469,-1.51659 -0.36046,-1.20828 -0.85483,-2.37653 -1.10409,-3.61765 -0.43801,-1.87935 -0.74381,-3.77017 -0.81878,-5.70284 -0.12824,-2.65994 -0.21994,-5.32184 -0.27123,-7.98424 -0.0128,-4.02602 -0.0652,-8.05895 0.22066,-12.07755 0.0839,-4.54369 0.11927,-9.08896 0.56893,-13.61681 0.5133,-4.91898 1.28668,-9.80606 1.8912,-14.71451 0.10929,-0.79203 0.23363,-1.58214 0.32787,-2.3761 0.48701,-4.10285 0.59966,-8.24824 1.28091,-12.32894 0.92316,-5.29792 1.89239,-10.58611 3.01378,-15.84641 1.1106,-5.34075 2.1704,-10.69564 3.60093,-15.963222 1.09124,-4.097361 2.17951,-8.225858 4.06473,-12.046137 0.74778,-1.965029 1.65083,-3.851508 2.68664,-5.680028 0.30856,-0.534106 0.66661,-1.016084 1.04767,-1.498899 0.10406,-0.103089 0.008,-0.0027 0.17734,-0.256204 0.0306,-0.0459 -0.0609,0.09217 -0.0872,0.140637 -0.0358,0.06581 0.1758,-0.238352 0.14856,-0.168582 -3.53253,-2.286275 -7.06505,-4.572553 -10.59758,-6.858828 -0.001,0.03549 -0.0202,0.0847 -0.0717,0.124653 -0.12462,0.12183 -0.27824,0.243129 -0.38325,0.380648 -0.28696,0.375785 -0.36786,0.765792 -0.88195,0.935728 -0.37396,0.20632 -0.68245,0.397717 -1.08509,0.541282 -0.40018,0.14269 -0.80167,0.02267 -1.20552,0.151495 -0.3946,0.24415 -0.85083,0.385837 -1.30722,0.458907 -0.74444,0.215196 -1.48684,0.433361 -2.26646,0.480965 -0.74532,0.07489 -1.49493,0.0053 -2.24335,0.03772 -0.89683,0.0136 -1.79403,0.03346 -2.69039,0.06143 -1.47349,0.04376 -2.94711,0.07619 -4.42136,0.08036 -1.6659,-0.0099 -3.33255,0.01641 -4.99673,-0.08396 -1.88142,-0.131511 -3.7383,-0.411162 -5.59869,-0.71768 -0.66729,-0.092 -1.28092,-0.186724 -1.95287,-0.239178 -1.33036,-0.103851 -2.65886,0.03709 -3.99055,0.02469 -1.87059,0.05417 -3.76737,0.106193 -5.58894,0.577273 -0.88542,0.193223 -1.77279,0.08549 -2.66284,-0.03551 z" />
  <path
     style="fill:#000000;stroke-width:0.264583"
     id="path2"
     d="m 110.7422,131.01573 c 0.84412,0.844 1.78587,1.58109 2.63906,2.41595 1.12512,0.99814 2.20789,2.04296 3.41672,2.94015 4.50187,3.09798 9.43097,5.50324 14.19627,8.15814 1.93608,1.06272 4.0302,1.74142 6.14408,2.34532 1.82121,0.39769 3.65979,0.75986 5.5107,0.99203 1.08918,0.11114 2.18567,0.0481 3.27559,0.14836 0.6542,0.0602 1.30443,0.15772 1.95673,0.2359 0.8616,0.0221 1.71355,0.15527 2.56635,0.26708 0.55557,0.0728 1.08414,0.10788 1.6164,0.28225 4.68339,1.2868 5.85571,2.88766 -9.29141,-5.56476 3.7927,1.83782 7.98657,4.61249 11.01428,6.30643 0.0485,0.0271 0.50734,-0.063 0.6455,-0.062 0.29314,0.0472 0.62744,-0.0979 0.91563,-0.0302 0.15811,0.0371 0.29069,0.14697 0.44393,0.20074 0.33318,0.15918 0.69738,0.16267 1.05197,0.23684 0.12678,0.0207 0.25022,0.0137 0.37049,0.0531 0.0329,-0.0107 0.0796,-0.003 0.0987,-0.0321 3.30049,-4.95999 -0.68971,-2.23496 -10.88017,-7.77185 -0.0618,-0.0336 -0.14322,0.0583 -0.20857,0.0323 -0.0546,-0.0217 -0.0477,-0.11075 -0.0901,-0.15138 -0.0389,-0.0372 -0.096,-0.0487 -0.144,-0.073 -0.0521,-0.0236 -0.10003,-0.0804 -0.15642,-0.0707 -0.18408,0.0316 -0.32964,0.18266 -0.50936,0.23354 -0.29981,0.0849 -0.63411,0.0868 -0.94162,0.11074 -1.50772,0.16472 -3.01601,0.0297 -4.52518,-0.0253 -2.15792,-0.17142 -4.27803,-0.67099 -6.39982,-1.08699 -2.25442,-0.39355 -4.51412,-0.70776 -6.73143,-1.28491 -2.3291,-0.62538 -4.55556,-1.66002 -6.63151,-2.87802 17.41012,10.02912 10.98288,6.61849 7.43971,3.99992 -0.81211,-0.60018 -1.59543,-1.23635 -2.37361,-1.87933 -1.30653,-1.04973 -2.54102,-2.18567 -3.79064,-3.30174 -0.61499,-0.5624 -1.25349,-1.09778 -1.8969,-1.62712 -0.0514,-0.0526 -0.10283,-0.10515 -0.15425,-0.15772 0,0 -12.20871,-4.78467 -12.20871,-4.78467 v 0 c 0.0333,0.005 0.0666,0.009 0.0999,0.0137 -0.15693,-0.15366 0.16566,0.19313 0.43953,0.45393 0.5115,0.4871 0.21411,0.21937 0.84123,0.67324 0.18969,0.13728 0.37593,0.27929 0.56389,0.41894 1.31544,1.14222 2.61864,2.29671 3.93659,3.43579 5.3717,4.09234 10.58407,7.90433 16.96498,10.70477 2.22057,1.13661 4.50818,2.21613 6.97293,2.69447 2.20163,0.42289 4.42618,0.71458 6.62501,1.15544 2.1849,0.42289 4.36253,0.92199 6.59535,1.00991 1.6397,0.10943 3.28153,0.18626 4.92541,0.1313 0.17426,-0.009 1.12457,-0.13248 1.25847,-0.0101 0.0399,0.0365 0.0187,0.11665 0.0611,0.15028 0.0412,0.0327 0.10421,0.0149 0.15631,0.0224 0.50869,0.0469 -0.14558,0.0155 0.42781,-0.0672 0.0489,-0.007 0.18776,0.0562 0.14491,0.0315 -10.05591,-5.78205 -14.04401,-3.02838 -10.46061,-7.6699 0.0203,-0.0263 0.0631,-0.0211 0.0946,-0.0317 0.17597,0.0638 0.0862,0.0115 0.006,0.008 -0.29872,-0.0196 -0.56841,-0.18489 -0.87293,-0.18223 -0.47649,-0.0421 -0.96443,0.0564 -1.43568,-0.0873 -0.13041,-0.0335 -0.21785,-0.0407 -0.32597,-0.13033 -0.0419,-0.0348 -0.14974,-0.15426 -0.10243,-0.12729 21.77611,12.41547 13.45306,8.56645 10.36287,5.92785 -4.94161,-2.76152 -7.42705,-5.7143 -12.08229,-6.26634 -1.29213,-0.0295 -2.58286,-0.14572 -3.87199,-0.23008 -1.78001,-0.19768 -3.56677,-0.2861 -5.34536,-0.49028 -1.69999,-0.23064 -3.41519,-0.41486 -5.06959,-0.88816 -2.04623,-0.62267 -4.0221,-1.42599 -5.90574,-2.44494 -0.74885,-0.36409 -1.4949,-0.73105 -2.23003,-1.12241 -0.25286,-0.13461 -1.00292,-0.55396 -0.75561,-0.40939 7.30697,4.27121 11.25669,6.47238 7.45377,4.34701 -0.17707,-0.11231 -1.39109,-0.87874 -1.57557,-1.00973 -0.89857,-0.63806 -1.67355,-1.43379 -2.56012,-2.08744 -1.19129,-0.96383 -2.44435,-1.84109 -3.61192,-2.83374 z" />
</svg>
