<?xml version="1.0" encoding="UTF-8" standalone="no"?>
<!-- Created with Inkscape (http://www.inkscape.org/) -->

<svg
   width="1000"
   height="1000"
   viewBox="60 0 164 264.58333"
   version="1.1"
   id="svg1"
   xmlns="http://www.w3.org/2000/svg"
   xmlns:svg="http://www.w3.org/2000/svg">
  <defs
     id="defs1" />
  <path
     style="fill:#000000;stroke-width:0.264583"
     id="path1"
     d="m 139.15559,65.791267 c -0.77665,-0.05172 -1.53949,0.119139 -2.31024,0.182017 -0.40295,0.03287 -0.80872,0.03268 -1.21024,0.07997 -0.91625,0.107891 -1.82012,0.303016 -2.73006,0.455207 -3.33572,0.356024 -6.6363,1.102522 -9.77838,2.28845 -0.81352,0.307054 -1.60629,0.666509 -2.40944,0.999765 -3.49957,1.501175 -7.02347,3.040745 -10.30048,4.996395 -1.48551,0.886523 -3.52512,2.300888 -4.95928,3.274319 -2.88071,2.101665 -1.79101,1.211284 -4.53247,3.605654 -1.924702,1.681036 -2.574575,2.227964 -4.361219,4.061516 -0.86279,0.885444 -3.20471,3.465152 -4.050022,4.391014 -3.359454,3.680341 -6.308254,7.69766 -9.000209,11.883326 -2.428671,3.90221 -3.512296,8.37348 -4.866701,12.71176 -0.971013,4.49463 -2.47184,8.89539 -3.052834,13.47019 -0.123306,0.97093 -0.176911,1.94944 -0.265366,2.92417 -0.520044,4.73059 -0.413496,9.48609 0.123018,14.20615 0.306821,2.20232 0.682633,4.42364 1.435126,6.52561 0.442098,1.23493 0.746342,1.76975 1.32478,2.94761 1.945716,3.5243 4.839379,6.40925 7.53442,9.363 2.539891,2.71355 5.396629,5.14593 8.505251,7.189 0.661426,0.4347 1.351632,0.82395 2.027446,1.23593 5.49465,3.23327 10.92909,6.68711 16.96053,8.83121 0.79787,0.28363 1.59817,0.56842 2.41982,0.7732 1.9016,0.47392 3.923,0.67241 5.85838,0.92067 4.16388,0.3536 8.40541,0.45924 12.546,-0.22655 1.90638,-0.31575 4.71012,-1.06782 6.56971,-1.53835 3.45035,-0.88702 6.76336,-2.19242 10.03942,-3.5731 1.10941,-0.46756 2.23353,-0.90457 3.31553,-1.43247 2.25907,-1.10218 4.0245,-2.25479 6.15785,-3.56409 3.463,-2.23013 6.75687,-4.77084 9.48802,-7.87201 1.78531,-2.02718 1.99478,-2.48379 3.52225,-4.72239 0.55766,-1.01768 2.63653,-4.77264 3.11367,-5.80211 0.5362,-1.15689 0.97324,-2.35721 1.45575,-3.53751 1.14649,-2.80447 1.84789,-4.40942 2.771,-7.29961 0.40452,-1.26653 0.73247,-2.55624 1.09871,-3.83435 1.38614,-5.49431 2.80999,-11.07942 2.96135,-16.77912 0.0254,-0.9571 -0.0377,-1.91452 -0.0566,-2.87178 -0.25478,-2.63578 -0.62073,-5.27186 -1.37491,-7.8176 -0.6942,-2.34327 -1.64171,-4.62495 -2.56324,-6.88496 -1.8579,-3.99742 -3.88505,-7.924406 -6.16103,-11.700298 -1.69315,-2.622103 -3.43125,-5.269979 -5.53344,-7.591168 -0.38674,-0.42703 -0.80432,-0.825074 -1.20649,-1.23761 -0.44996,-0.389869 -0.88535,-0.797224 -1.34988,-1.169609 -0.72844,-0.583946 -2.02611,-1.504286 -2.8452,-1.983986 -5.42636,-3.177993 -10.82262,-6.469364 -16.41068,-9.377386 -2.50916,-1.282253 -5.2676,-1.915081 -7.99677,-2.53232 -1.11941,-0.216233 -2.24818,-0.37117 -3.38316,-0.475416 -0.3342,-0.0307 -0.66804,-0.088 -1.00358,-0.08085 -0.82329,0.01754 -1.49984,0.208971 -2.2995,0.384617 -1.33343,0.513435 -0.63781,0.322609 -2.09028,0.559745 0,0 11.68057,8.161832 11.68057,8.161832 v 0 c 1.46625,-0.310589 0.66391,-0.209471 2.41523,-0.229055 0.40214,-0.0149 0.80406,-0.05067 1.20644,-0.04472 1.76582,0.02612 3.52658,0.353359 5.25272,0.689759 2.59146,0.590483 5.15385,1.323967 7.49239,2.624518 4.39812,2.350852 11.50744,6.610318 -8.16905,-4.827736 -0.50006,-0.290681 1.01151,0.562042 1.5044,0.864717 1.44534,0.887579 1.52566,1.002292 2.86248,2.023819 0.41785,0.377973 0.8528,0.737857 1.25354,1.133917 2.27523,2.248659 4.11018,4.907084 5.94867,7.507565 2.36347,3.763254 4.51023,7.653515 6.45897,11.648085 0.87593,1.73992 1.37868,2.6565 2.1226,4.47238 1.33591,3.2609 2.24,6.68053 2.75307,10.16517 0.12973,0.96998 0.30401,1.93503 0.38919,2.90993 0.49643,5.68174 -0.45955,11.57584 -1.68296,17.10416 -0.35374,1.25842 -0.66768,2.5287 -1.0612,3.77525 -1.79773,5.69472 -4.48803,11.06314 -7.74519,16.05779 -1.45263,2.08369 -1.76562,2.65725 -3.43524,4.56136 -2.63157,3.00115 -5.70294,5.56916 -8.96888,7.85048 -0.94988,0.60739 -1.87612,1.25345 -2.84964,1.82217 -5.10602,2.9829 -10.74123,4.91837 -16.42294,6.46778 -1.10668,0.25681 -2.20535,0.55103 -3.32006,0.77042 -5.14002,1.01163 -10.4321,1.21081 -15.63002,0.5719 -1.02492,-0.17254 -2.05862,-0.29929 -3.07478,-0.51762 -2.63093,-0.56531 -5.16515,-1.48138 -7.62407,-2.5618 -0.77732,-0.34154 -3.021363,-1.53809 -2.307642,-1.07824 2.624732,1.69114 5.369952,3.18751 8.054912,4.78126 -0.68528,-0.383 -1.38719,-0.73765 -2.05584,-1.14899 -1.1865,-0.7299 -2.64157,-1.81457 -3.75032,-2.65653 -1.741506,-1.32246 -3.426465,-2.7158 -4.915884,-4.32432 -2.670476,-2.78732 -5.342043,-5.64648 -7.39045,-8.93379 -0.638429,-1.2058 -0.842719,-1.52431 -1.366597,-2.77902 -0.864105,-2.06955 -1.415161,-4.25379 -1.81633,-6.45572 -0.803912,-4.71276 -1.337138,-9.48013 -0.857104,-14.2639 0.108148,-0.93837 0.194021,-1.87959 0.324448,-2.81513 0.627605,-4.50171 1.741781,-8.92204 3.180728,-13.22983 1.26909,-4.25212 2.712921,-8.48225 4.850701,-12.38747 0.361067,-0.62742 0.707015,-1.26379 1.083199,-1.88227 2.163207,-3.55647 4.76621,-6.83473 7.335259,-10.100043 1.95817,-2.204516 3.91649,-4.390509 6.08711,-6.392093 1.78753,-1.648327 2.60805,-2.270762 4.52218,-3.768833 0.72338,-0.566145 1.45365,-1.123423 2.18048,-1.685134 0.78649,-0.546901 1.55534,-1.120092 2.35948,-1.6407 4.01851,-2.601629 8.38801,-4.652843 12.86354,-6.327997 1.88914,-0.630298 2.87442,-0.992894 4.75715,-1.498973 2.43188,-0.653693 4.92253,-1.040564 7.38618,-1.549003 1.86206,-0.286456 3.80329,-0.450485 5.51115,-1.312021 z" />
  <path
     style="fill:#000000;stroke-width:0.264583"
     id="path2"
     d="m 149.24836,157.8181 c 0.28255,0.46652 0.94009,0.82798 1.05709,1.39692 0.0231,0.11233 -0.11487,0.21852 -0.0933,0.33114 0.032,0.16669 0.5387,0.982 0.59784,1.08088 0.61171,1.0243 1.07785,2.12106 1.47691,3.24251 0.35437,1.0712 0.86606,2.05888 1.46123,3.01207 0.64174,0.90662 1.19418,1.8724 1.71947,2.85015 0.43188,0.83996 1.034,1.55322 1.64473,2.26423 0.51352,0.60667 1.09959,1.14829 1.76648,1.58148 0.52231,0.36221 1.04452,0.72458 1.55695,1.1008 0.14727,0.37856 1.01808,0.58313 1.08046,0.92697 0.46148,0.59499 -0.22406,-0.64365 -0.10613,0.15078 0.005,0.39763 0.29535,0.72757 0.59268,0.96448 -2.97674,13.07841 6.27715,3.28747 9.20595,5.25269 0.30626,0.2055 -0.2492,-0.005 0.25939,0.15384 0.69982,0.28851 0.13062,0.12286 -0.086,-0.38994 -0.0242,-0.0573 0.11937,-0.0352 0.17906,-0.0529 -0.0893,-0.0988 -0.17868,-0.19765 -0.26801,-0.29647 0,0 -5.4059,-4.12501 -5.4059,-4.12501 v 0 c -0.26324,-0.14044 -0.52365,-0.2863 -0.78972,-0.42131 -0.0901,-0.0457 -0.19491,-0.0632 -0.27813,-0.12051 -0.27781,-0.19124 -0.5276,-0.42055 -0.79892,-0.62091 -0.0778,-0.0574 -0.18398,-0.0679 -0.25875,-0.131 -0.25033,-0.17588 -0.56242,-0.22326 -0.80722,-0.41823 2.72379,1.58859 5.44758,3.17718 8.17137,4.76576 -0.0592,-0.0362 -0.11843,-0.0724 -0.17764,-0.10863 -0.0474,-0.004 -0.0991,0.007 -0.14223,-0.0129 -0.14987,-0.0704 -0.22352,-0.30516 -0.4285,-0.23562 -0.14704,-0.19012 -0.30751,-0.39635 -0.43048,-0.58882 -0.0444,-0.0695 -0.0493,-0.16201 -0.10199,-0.22552 -0.0989,-0.11924 -0.28136,-0.14844 -0.36468,-0.28809 -0.52275,-0.3686 -0.88328,-0.89933 -1.48306,-1.18351 -0.48626,-0.3514 -0.88249,-0.8162 -1.42195,-1.09821 -0.12018,-0.077 -0.24036,-0.15399 -0.36055,-0.23099 -0.11033,-0.048 -0.22802,-0.0817 -0.33101,-0.14386 -0.40648,-0.24543 -0.69563,-0.65429 -1.04003,-0.96926 -0.6715,-0.67296 -1.35106,-1.31021 -1.78864,-2.16867 -0.69906,-0.91577 -1.18919,-1.96845 -1.84174,-2.91736 -0.65609,-0.91156 -1.32067,-1.83789 -1.6866,-2.91106 -0.48308,-1.20491 -0.96688,-2.40466 -1.67779,-3.49962 -0.32685,-0.51026 -0.45937,-0.77009 -0.87916,-1.21332 -0.2415,-0.25498 -0.52648,-0.46684 -0.76383,-0.72569 -0.40701,-0.4439 -0.68729,-1.0001 -1.10344,-1.43833 z" />
  <path
     style="fill:#000000;stroke-width:0.264583"
     id="path3"
     d="m 148.56465,159.41271 c 0.0326,0.13576 0.0675,0.27099 0.0978,0.40727 0.16158,0.72558 0.15432,0.54113 0.12133,1.30177 -0.0119,0.27441 -0.0949,0.55067 -0.0538,0.82224 0.1283,0.84794 0.67119,1.92878 0.99749,2.67587 1.16948,2.76909 2.3619,5.54044 3.9679,8.08794 1.2364,1.781 2.92514,3.14967 4.70125,4.35892 4.47256,2.51272 8.79076,5.60775 13.64692,7.43309 0.10448,0.22262 1.11624,0.18775 1.27352,0.31457 0.0546,0.044 0.12951,0.23368 0.0684,0.19912 -3.38192,-1.91301 -6.71752,-3.90677 -10.07627,-5.86016 0.34423,-0.0129 0.49094,-0.96274 0.23666,0.003 -0.20388,0.38475 -0.37749,0.77301 -0.46273,1.20611 -1.09429,4.35391 1.7518,1.39686 10.81229,5.01822 -0.29434,-0.47193 -0.69176,-0.77273 -1.14459,-1.08529 -1.64669,-1.56841 -3.15431,-3.27789 -4.64499,-4.99417 -2.29731,-2.56408 -4.4182,-5.27169 -6.33638,-8.12914 -1.03224,-1.6763 -1.87086,-3.46048 -2.81727,-5.18585 -0.64121,-1.08677 -1.01647,-2.28439 -1.41177,-3.47284 -0.1765,-0.57253 -0.46067,-1.10928 -0.54584,-1.70703 -0.0234,-0.0909 -0.0129,-0.28135 -0.0429,-0.0552 -3.61451,-2.20631 -7.22004,-4.42739 -10.84352,-6.61892 -0.25004,-0.15123 -0.64657,0.92825 -0.65871,1.10691 -0.01,0.14177 0.004,0.28417 0.006,0.42626 0.0411,0.18349 0.0657,0.37145 0.12323,0.55047 0.16924,0.52698 0.40689,1.02953 0.61751,1.54137 0.44078,1.07118 0.91828,2.1258 1.39303,3.18216 1.0802,2.35941 2.13391,4.72982 3.3275,7.03467 1.04724,1.99226 2.04794,4.00882 3.30952,5.87643 1.04286,1.42068 2.38631,2.58037 3.70994,3.73029 0.8284,0.56382 1.47488,1.38504 2.30316,1.94642 0.23924,0.16214 0.49899,0.29174 0.74848,0.43761 0,0 10.60211,4.23664 10.60211,4.23664 v 0 c 0.11326,-0.31024 0.071,-0.0836 -0.46574,-0.48874 -0.66225,-0.49992 -1.32932,-0.99853 -1.9226,-1.58128 -1.37251,-1.11094 -2.76021,-2.25466 -3.96907,-3.53986 -1.4663,-1.75446 -2.5015,-3.80281 -3.59576,-5.80102 -1.22975,-2.24134 -2.2757,-4.57992 -3.29032,-6.92494 -0.43571,-0.993 -0.88893,-1.97418 -1.23057,-3.00483 -0.85074,-2.56644 0.24728,0.70082 -0.36051,-1.35755 -0.0292,-0.099 -0.0856,-0.1878 -0.12842,-0.28171 -0.026,-0.0689 -2.4e-4,-0.26179 -0.0559,-0.21361 -0.14495,0.12553 -0.44476,0.57253 -0.26293,0.51166 -3.53876,-2.20745 -7.07752,-4.4149 -10.61629,-6.62235 -0.0241,0.1908 -0.002,0.346 0.0667,0.53256 0.22522,0.67316 0.40621,1.36637 0.77091,1.9827 0.55795,1.22061 0.81578,2.56602 1.53748,3.71482 1.06874,1.84207 2.10602,3.70378 3.25695,5.49554 2.01012,2.83045 4.09817,5.59704 6.33118,8.25645 0.88325,1.04074 1.74239,2.09968 2.61721,3.14737 0.35213,0.4217 0.73616,0.81639 1.08244,1.24291 0.11733,0.14453 0.21264,0.30563 0.31896,0.45844 0.21561,0.29055 0.40446,0.53157 0.73715,0.69272 0.0687,0.0333 0.15156,0.0329 0.21766,0.0711 0.1147,0.0662 0.1745,0.20598 0.28995,0.27169 1.34577,0.56067 15.04498,3.07996 10.83447,4.90105 -0.041,0.0133 -0.1312,0.0735 -0.12558,0.0307 0.0368,-0.27966 0.34077,-0.53668 0.39456,-0.81226 0.1427,-0.39702 0.52466,-0.78274 0.33006,-1.21479 -3.42805,-2.01662 -6.82867,-4.08059 -10.28413,-6.04986 -0.0574,-0.0327 -0.11391,0.0711 -0.17794,0.0875 -0.2769,0.0708 -0.60005,-0.27029 -0.86979,-0.26601 -3.91568,-1.43432 -10.33898,-6.14942 5.65653,3.61307 -1.93224,-1.1075 -3.71639,-2.45723 -5.22702,-4.10309 -1.93146,-2.51164 -3.33125,-5.21795 -4.56558,-8.13129 -0.48678,-1.1083 -0.77178,-1.88442 -1.45028,-2.90346 -0.91197,-1.36971 -2.14813,-2.503 -3.02731,-3.89856 z" />
</svg>
