<?xml version="1.0" encoding="UTF-8" standalone="no"?>
<!-- Created with Inkscape (http://www.inkscape.org/) -->

<svg
   width="1000"
   height="1000"
   viewBox="60 0 164 264.58333"
   version="1.1"
   id="svg1"
   xmlns="http://www.w3.org/2000/svg"
   xmlns:svg="http://www.w3.org/2000/svg">
  <defs
     id="defs1" />
  <path
     style="fill:#000000;stroke-width:0.264583"
     id="path5"
     d="m 172.45059,170.73328 c 0.88734,-1.31095 -0.74041,0.99832 0.83642,-0.75448 0.17623,-0.1959 0.26078,-0.45804 0.38466,-0.6906 0.17653,-0.33139 0.40127,-0.64368 0.51647,-1.00105 0.20201,-0.62666 0.29886,-2.12647 0.35473,-2.74258 0.0373,-0.51354 0.0671,-1.02768 0.11198,-1.54061 0.0713,-0.81484 0.2388,-2.15102 0.2909,-2.96799 0.10373,-1.62669 0.091,-3.26513 0.14094,-4.89414 0.064,-3.67042 0.42566,-7.3279 0.69867,-10.98694 0.32269,-4.29338 0.9972,-8.54727 1.4561,-12.82692 0.44414,-3.9853 1.07318,-7.94539 1.37935,-11.94509 0.0371,-0.68905 0.0919,-1.37737 0.1114,-2.06715 0.0443,-1.56968 0.007,-3.14086 0.0459,-4.71069 0.0627,-2.54694 0.19013,-5.09225 0.32846,-7.6359 0.19328,-5.37286 0.87452,-10.701962 1.91137,-15.972374 1.01414,-5.383147 1.60654,-10.833526 2.41168,-16.249296 0.82545,-4.445849 1.23383,-8.953349 1.986,-13.409522 0.6846,-3.578534 1.26797,-7.175431 2.06022,-10.732492 0.7181,-3.168687 1.41271,-6.33961 2.22277,-9.486053 0.57916,-2.178881 1.30484,-4.313897 1.9889,-6.460937 0.41143,-1.379424 0.67734,-2.79586 1.03506,-4.189027 0.29582,-1.376425 0.76483,-2.682323 1.48076,-3.893963 0.30466,-0.514512 0.56977,-1.037468 0.78624,-1.594049 0.2273,-0.601004 0.44901,-1.202838 0.69492,-1.797316 0.37935,-0.879799 0.83019,-1.735749 1.33572,-2.549855 0.435,-0.553141 0.71825,-1.265784 1.25656,-1.733151 0.25685,-0.280874 0.50004,-0.576594 0.77606,-0.839049 0.1513,-0.279387 0.19871,-0.586295 0.45376,-0.780757 0.12033,-0.05529 0.0727,0.03578 0.0337,0.106501 -0.25554,0.450567 0.22702,-0.409623 0.24745,-0.442896 0.0228,-0.03709 0.16135,-0.115548 0.20028,-0.144723 0.31521,-0.559087 0.58626,-1.138045 0.93246,-1.682461 0.16361,-0.203086 0.29041,-0.433919 0.45184,-0.636102 -0.0856,0.217487 0.18983,-0.315868 0.25683,-0.453575 0.0147,-0.03021 0.056,-0.122089 0.0441,-0.09064 -0.15117,0.401619 -0.0368,0.09198 0.18526,-0.01071 0.1604,-0.01542 0.62913,-0.997223 0.38529,-0.458598 0.43845,-0.646491 0.11901,-0.308163 -1.05281,-1.121296 0,0 -7.97999,-4.7219267 -7.97999,-4.7219267 v 0 c -1.38955,-0.7378083 -0.88878,-0.8608688 -1.41201,-0.6691124 -0.30667,0.4366138 -0.10359,0.247053 -0.29699,0.3753946 -0.26794,0.2305484 -0.43713,0.2737328 -0.59597,0.6885794 -0.0551,0.1825667 -0.0795,0.1024072 -0.23691,0.364295 -0.0835,0.2288278 -0.15607,0.4658921 -0.25584,0.6915041 -0.22159,0.4657815 -0.47596,0.9251434 -0.83226,1.2964504 -0.0328,0.035644 -0.45676,0.5975829 -0.36139,0.3871209 0.0377,-0.08327 0.0958,-0.15792 0.12267,-0.245319 0.0149,-0.048695 -0.0574,0.08417 -0.0861,0.126252 -0.08,0.119747 -0.1595,0.234923 -0.2304,0.3600457 -0.14494,0.227494 -0.34163,0.520302 -0.37939,0.761973 -0.23183,0.301401 -0.47416,0.592783 -0.70394,0.895773 -0.4783,0.625883 -0.72134,1.391461 -1.20652,2.017873 -0.5036,0.872803 -0.97535,1.76037 -1.43114,2.659043 -0.29416,0.616835 -0.62579,1.214839 -0.87455,1.851683 -0.12505,0.539946 -0.40402,1.027031 -0.53098,1.568398 -0.47893,1.383366 -0.96538,2.762778 -1.46155,4.138384 -0.37299,1.402411 -0.54518,2.847732 -0.90283,4.255108 -0.4868,2.248102 -1.03256,4.479024 -1.57469,6.714608 -0.72445,3.200858 -1.30286,6.429404 -2.00583,9.634693 -0.24084,1.164805 -0.51075,2.32386 -0.72718,3.493445 -0.45886,2.479596 -0.6698,4.9926 -0.98504,7.491796 -0.65496,4.525571 -1.3418,9.048004 -1.64754,13.615551 -0.63181,5.433676 -1.38965,10.852248 -2.33914,16.240201 -0.41579,2.68609 -0.9189,5.36955 -1.26692,8.065199 -0.27685,2.144389 -0.30663,3.187205 -0.44589,5.342808 -0.0584,0.903944 -0.11781,1.807831 -0.17672,2.711751 -0.0437,0.88496 -0.0873,1.76991 -0.13099,2.65486 -0.0543,0.8607 -0.11873,1.72081 -0.16278,2.58209 -0.15357,3.00265 -0.14675,6.01475 -0.4417,9.00958 -0.38043,4.00667 -0.67546,8.0215 -1.19581,12.01389 -0.48107,4.28674 -0.9697,8.57252 -1.44335,12.85958 -0.35868,3.65545 -0.77247,7.30695 -0.85996,10.98318 -2.6e-4,1.63267 -0.0644,3.26107 -0.0818,4.89317 -0.015,1.40335 0.035,1.69543 -0.001,3.09986 -0.0133,0.51977 -0.0476,1.03879 -0.0713,1.55819 -0.034,0.97203 -0.11486,1.95959 0.03,2.92983 0.0708,0.47398 0.23639,0.92903 0.33954,1.39703 0.0694,0.31486 0.0846,0.64214 0.17793,0.95074 0.0936,0.30936 0.28673,0.58264 0.37969,0.89218 0.0533,0.17762 0.0363,0.36913 0.0545,0.5537 z" />
  <path
     style="fill:#000000;stroke-width:0.264583"
     id="path1"
     d="m 147.11601,79.817618 c -0.97588,-1.017783 -1.86642,-2.12566 -2.99563,-2.98446 -0.296,-0.225111 -0.61154,-0.423284 -0.91731,-0.634926 -5.2538,-3.126611 -10.45091,-7.086746 -16.70586,-7.752231 -0.48971,-0.0521 -0.9835,-0.05337 -1.47524,-0.08006 -3.75948,-0.139886 -7.34977,1.007967 -10.85739,2.218147 -3.445,1.368565 -6.90541,2.807798 -10.11735,4.676362 -0.65741,0.38245 -1.2859,0.812573 -1.92884,1.218859 -1.76926,1.295956 -3.557676,2.657422 -5.050413,4.278471 -1.637662,1.778439 -2.971839,3.853728 -4.319002,5.850332 -1.707362,2.650432 -3.062627,5.501553 -4.092403,8.479562 -0.554731,1.604225 -0.831229,2.736525 -1.272834,4.369504 -0.959424,4.371952 -1.424834,8.845872 -1.70239,13.308862 0.0677,2.39952 0.246867,4.78619 0.559956,7.16568 0.09483,0.72069 0.141034,1.45152 0.309375,2.15867 0.402058,1.68891 1.021032,2.94603 1.700173,4.52616 0.904512,1.80046 1.946431,3.53175 3.329416,5.00934 3.586829,3.8322 11.817272,7.55519 14.487022,9.10678 1.85947,0.84258 3.81507,1.53375 5.84022,1.84801 1.10698,0.17178 1.8926,0.16995 3.01068,0.21367 2.93169,0.0367 5.86985,-0.036 8.77646,-0.45672 0.6737,-0.0975 1.34031,-0.23898 2.01047,-0.35847 2.89233,-0.62417 5.76469,-1.39709 8.5564,-2.38367 1.93919,-0.68529 2.77113,-1.08876 4.65969,-1.91251 3.21546,-1.78849 6.60218,-3.27497 9.74913,-5.18789 1.69352,-1.02943 2.58309,-1.7182 4.17729,-2.86901 1.80655,-1.36793 3.5938,-2.7814 5.17349,-4.41323 1.47323,-1.52186 2.80151,-3.18569 4.09057,-4.86216 1.57203,-2.17914 2.85599,-4.59362 3.86099,-7.08682 0.34894,-0.86567 1.10594,-3.10617 1.41103,-3.99419 1.16858,-3.81493 1.82119,-7.7665 2.22491,-11.729038 0.31436,-2.615149 -0.0397,-5.045133 -1.16532,-7.429516 -0.19205,-0.406802 -0.42817,-0.791302 -0.64225,-1.186955 -1.3542,-2.224812 -3.24537,-3.954356 -5.34393,-5.45374 -5.27699,-3.434955 -10.61644,-6.493118 -16.2277,-9.200805 -1.06215,-0.512533 -1.30778,-0.697871 -2.43778,-1.034418 -0.44739,-0.133244 -0.90787,-0.21775 -1.3618,-0.326626 -0.92953,-0.128121 -1.84906,-0.295306 -2.7936,-0.264355 -0.35592,0.01167 -0.70128,0.150185 -1.05738,0.152609 -0.44639,0.003 -0.88817,-0.0909 -1.33226,-0.136343 0,0 9.56851,7.151473 9.56851,7.151473 v 0 c 0.48089,0.08032 0.96933,0.124069 1.44265,0.24097 0.69302,0.171161 1.36272,0.426378 2.04938,0.621493 4.0898,1.162097 -0.43925,-0.22928 3.43027,0.983879 0.48208,0.1831 0.96993,0.351661 1.44624,0.549302 5.12932,2.128385 14.80933,8.589674 -6.30647,-4.048154 0.8421,0.518715 1.3401,0.798374 2.12999,1.391634 1.33729,1.0044 2.48271,2.227641 3.52892,3.52653 0.25757,0.354931 0.53754,0.694632 0.7727,1.064792 1.32072,2.078964 1.87275,4.495734 1.85141,6.940026 -0.0269,0.602385 -0.0355,1.205857 -0.0806,1.807152 -0.24708,3.294674 -0.97724,6.532663 -1.78872,9.72693 -0.20488,0.65424 -0.38828,1.3156 -0.61463,1.96271 -1.08608,3.10493 -2.58016,6.04275 -4.40851,8.77538 -0.59991,0.89719 -1.60264,2.43674 -2.27362,3.27783 -1.79924,2.25542 -3.99644,4.16562 -6.21658,5.98885 -1.39577,1.07974 -2.42215,1.90613 -3.88411,2.9046 -2.9704,2.02869 -6.13282,3.78596 -9.45328,5.1716 -0.76289,0.3202 -1.51641,0.66369 -2.28866,0.96059 -3.52859,1.35659 -7.23813,2.17388 -10.92016,2.98588 -1.48447,0.25599 -2.23235,0.41317 -3.71309,0.56219 -2.27951,0.22941 -4.57858,0.17103 -6.86125,0.0288 -1.1816,-0.11087 -1.72661,-0.12916 -2.87828,-0.3622 -1.913486,-0.38719 -3.749292,-1.08626 -5.460569,-2.0212 19.638669,11.49927 9.377849,5.93654 6.549089,3.49019 -1.58782,-1.37316 -2.84831,-3.00601 -3.887283,-4.82787 -0.84496,-1.72622 -1.261986,-2.37938 -1.785626,-4.23273 -0.821753,-2.90851 -0.969991,-6.10057 -0.971624,-9.104 -0.0076,-4.43464 0.356196,-8.85991 1.363398,-13.18956 1.106239,-4.41136 2.531405,-8.752137 5.045565,-12.58841 1.10374,-1.675525 1.453,-2.31438 2.75769,-3.854913 1.86929,-2.207189 4.08398,-4.121373 6.41097,-5.825821 0.62447,-0.386223 1.23647,-0.793388 1.87342,-1.158666 3.18818,-1.828363 6.62579,-3.218564 10.06921,-4.476996 0.66113,-0.21264 1.31489,-0.449691 1.98337,-0.637918 2.87444,-0.809371 5.88517,-1.196362 8.86758,-0.986513 1.38881,0.186429 2.73551,0.402831 4.07922,0.814348 4.0469,1.23938 9.9805,5.218838 -6.66067,-4.39311 1.60253,0.840767 3.11068,1.830576 4.18878,3.318473 z" />
  <path
     style="fill:#000000;stroke-width:0.264583"
     id="path2"
     d="m 154.23356,96.927695 c 0.4557,7.835395 -0.67734,15.629775 -1.3853,23.413565 -0.14146,2.3661 -0.417,4.74611 -0.36224,7.12124 0.0208,0.90174 0.1069,1.80078 0.15702,2.70136 0.1813,2.28745 0.4116,4.56922 0.52136,6.86199 0.0786,2.12767 -0.0198,4.25296 0.0847,6.37907 0.15818,2.17906 0.66663,4.31655 1.13356,6.44617 0.32208,1.20247 0.68972,2.39102 0.9934,3.59845 0.21716,0.49532 0.19268,1.25057 0.6115,1.6482 0.28002,0.26587 0.61357,0.46897 0.92035,0.70345 0,0 10.3165,4.62132 10.3165,4.62132 v 0 c 0.18272,0.008 0.39986,0.13058 0.54816,0.0236 0.0951,-0.0686 -0.0721,-0.2242 -0.12543,-0.32863 -0.18988,-0.372 -0.46538,-0.69781 -0.53062,-1.12995 -0.4606,-1.20656 -0.74317,-2.47879 -1.23406,-3.67619 -0.71269,-2.02646 -1.32429,-4.10208 -1.43284,-6.26191 -0.0849,-2.15369 -0.12865,-4.30881 -0.25729,-6.46167 -0.0413,-1.1923 -0.001,-2.40833 -0.0911,-3.59728 -0.0854,-1.12865 -0.36248,-2.24154 -0.50459,-3.36242 -0.39101,-3.4174 -0.83005,-6.83579 -0.97427,-10.27444 -0.12091,-3.42591 -0.18525,-6.8477 -0.11149,-10.27622 0.0572,-2.66093 0.19452,-6.45187 0.4925,-9.08669 0.15866,-1.40291 0.43654,-2.78975 0.65481,-4.18462 z" />
  <path
     style="fill:#000000;stroke-width:0.264583"
     id="path3"
     d="m 161.01329,98.477701 c -0.007,0.157951 0.006,0.317953 -0.0205,0.47385 -0.12612,0.74816 -0.25567,0.817079 -0.5488,1.577049 -0.48617,1.26047 -0.88506,2.55826 -1.30064,3.84284 -0.15793,0.51992 -0.33735,1.03379 -0.47378,1.55976 -0.19454,0.74997 -0.63399,2.95581 -0.77226,3.68685 -0.38116,2.01516 -0.72892,4.03657 -1.05633,6.06101 -0.0765,0.66902 -0.19094,1.33478 -0.22964,2.00705 -0.0497,0.8637 -0.007,1.73049 -0.0353,2.59516 -0.10717,3.28352 -0.13555,1.90233 -0.31434,5.06464 -0.11808,2.08875 -0.0867,2.31243 -0.0758,4.34821 0.031,0.68305 0.0626,1.36607 0.0931,2.04914 0.0789,1.76567 0.1593,2.56366 0.0535,4.31503 -0.0652,1.07918 -0.30104,2.58447 -0.40721,3.67254 -0.0556,0.57023 -0.0868,1.14259 -0.13015,1.71389 -0.13388,2.821 -0.0512,5.64534 -0.0976,8.46839 -0.0747,1.3002 0.12707,2.5854 0.21544,3.8771 0.0373,0.54573 0.0453,1.0931 0.0742,1.63934 0.0262,1.67939 0.61359,3.22693 1.21214,4.76824 0.60317,1.50442 1.01864,3.07402 1.46958,4.62829 0.31389,1.09302 0.65441,2.1782 0.95964,3.27376 0.27894,0.7653 0.29815,1.59073 0.49349,2.37134 0.11796,0.38142 0.20704,0.76954 0.33668,1.14744 -0.0192,0.25531 0.13312,0.34505 0.27014,0.52618 0,0 11.57994,4.94752 11.57994,4.94752 v 0 c -0.0446,-0.0538 -0.37867,-0.47006 -0.3877,-0.47305 -0.056,-0.0185 -0.1118,0.0374 -0.1677,0.0562 -0.0793,-0.0956 -0.22332,-0.22366 -0.277,-0.33307 -0.0994,-0.20274 -0.0663,-0.46676 -0.22194,-0.64941 -0.0764,-0.17504 -0.19177,-0.33287 -0.25499,-0.51309 -0.20408,-0.58173 -0.18833,-1.23688 -0.40332,-1.81812 -0.25565,-1.18999 -0.82844,-2.27874 -1.15936,-3.44887 -0.33022,-1.01392 -0.15509,-0.50627 -0.52617,-1.52269 -0.35251,-1.08085 -0.57296,-2.20613 -1.02706,-3.25382 -0.60689,-1.45554 -1.20948,-2.91667 -1.41079,-4.49462 -0.27064,-1.89008 -0.61658,-3.76987 -0.78445,-5.6747 -0.21048,-2.9018 -0.40042,-5.80518 -0.52769,-8.71205 -0.0396,-4.08842 -0.12839,-8.18262 -0.43173,-12.26021 -0.21239,-2.33533 -0.42367,-4.68309 -0.41877,-7.0308 0.007,-3.20243 0.11367,-2.01222 0.33359,-5.10789 0.0484,-0.68162 0.0529,-1.36565 0.0794,-2.04848 0.13541,-2.06294 0.33937,-4.10032 0.73736,-6.13264 0.22894,-1.16903 0.58362,-2.43208 0.86047,-3.59226 0.1241,-0.52005 0.23576,-1.04299 0.35364,-1.56448 0.69122,-2.02637 1.59375,-3.96235 2.309,-5.97943 z" />
</svg>
