<?xml version="1.0" encoding="UTF-8" standalone="no"?>
<!-- Created with Inkscape (http://www.inkscape.org/) -->

<svg
   width="1000"
   height="1000"
   viewBox="60 0 164 264.58333"
   version="1.1"
   id="svg1"
   xmlns="http://www.w3.org/2000/svg"
   xmlns:svg="http://www.w3.org/2000/svg">
  <defs
     id="defs1" />
  <path
     style="fill:#000000;stroke-width:0.264583"
     id="path2"
     d="m 178.46494,10.504709 c -1.35671,0.108319 -2.70635,-0.04367 -4.05927,0.106621 -0.39205,0.04549 -0.76284,0.210173 -1.15404,0.259252 -0.22253,0.02792 -0.44997,-0.0043 -0.67237,0.02467 -0.53025,0.06903 -1.09078,0.257899 -1.60707,0.396255 -0.21339,0.04058 -0.42416,0.09896 -0.64018,0.121737 -0.28568,0.03012 -0.57684,-0.0055 -0.861,0.03652 -0.94174,0.139357 -2.13004,0.743826 -2.97493,1.169036 -1.96134,0.937538 -3.85437,2.007819 -5.80347,2.97158 -2.46335,1.200488 -4.83163,2.581563 -7.12933,4.071784 -1.72145,1.292478 -3.46003,2.584323 -5.05268,4.036714 -0.37547,0.342397 -1.92394,1.850014 -2.31045,2.225019 -1.28552,1.345678 -2.67427,2.599422 -3.90919,3.993745 -0.64675,0.730236 -1.14486,1.421987 -1.73391,2.201158 -1.26812,1.716937 -2.5683,3.441449 -3.63797,5.293746 -0.60632,1.049949 -1.20389,2.359028 -1.72265,3.444426 -1.91578,3.893439 -3.74083,7.829986 -5.47598,11.806922 -0.25649,0.671481 -0.56654,1.324885 -0.76947,2.014448 -0.24889,0.845719 -0.38455,1.720731 -0.58256,2.579788 -0.58469,2.536677 -0.67557,2.691736 -1.14666,5.275463 -0.12572,0.689518 -0.77834,4.755798 -0.89747,5.494076 -0.49403,3.81553 -0.93144,7.654208 -1.12288,11.499445 -0.13994,4.154807 -0.0536,2.102321 -0.25655,6.157563 -0.33105,4.603906 -0.0569,9.217231 0.0861,13.820912 0.0649,2.090511 0.0985,5.490271 0.12519,7.604341 0.35398,7.70957 1.29144,15.37478 1.7486,23.07569 0.15465,3.66272 0.0334,1.89281 0.34665,5.31088 0,0 9.44322,4.71867 9.44322,4.71867 v 0 c -0.22409,-3.4319 -0.0689,-1.63098 -0.48976,-5.40061 -0.99433,-7.77276 -2.21665,-15.53624 -2.48229,-23.38041 -0.0975,-1.56799 -0.39609,-6.24513 -0.45872,-7.7688 -0.18874,-4.591878 -0.18431,-9.188828 -0.15302,-13.783312 0.12408,-5.865895 0.61036,-11.716285 1.40011,-17.530294 0.68736,-5.096894 1.65707,-10.185088 3.6393,-14.956642 1.65172,-3.989456 3.51265,-7.875408 5.53665,-11.689863 0.8729,-1.572395 1.73353,-3.162713 2.75192,-4.648369 0.57045,-0.832184 1.32813,-1.781771 1.94925,-2.580622 0.29686,-0.381794 0.5935,-0.763749 0.89025,-1.145622 1.77625,-2.103644 3.60033,-4.161901 5.50852,-6.147559 2.19526,-2.286016 4.57675,-4.378947 7.28081,-6.052262 2.30063,-1.447447 4.67098,-2.76907 7.11368,-3.962698 1.88459,-0.981971 3.71846,-2.047572 5.5524,-3.11843 1.00496,-0.475211 0.47643,-0.243371 1.47652,-0.647077 0.19817,-0.08 1.10786,-0.429347 1.28924,-0.577965 0.1282,-0.105037 0.15316,-0.29912 0.26747,-0.419112 0.11259,-0.118182 0.26693,-0.187945 0.40039,-0.281917 0.38034,-0.209207 0.8547,-0.380629 1.1789,-0.675899 0.10464,-0.09531 0.16503,-0.232033 0.267,-0.330202 0.21474,-0.206727 0.49724,-0.342785 0.75222,-0.486542 0.6018,-0.554617 1.08607,-1.218338 1.86382,-1.548221 z" />
  <path
     style="fill:#000000;stroke-width:0.264583"
     id="path4"
     d="m 127.12406,153.40308 c -0.063,0.90384 -0.14046,1.81359 -0.29326,2.70777 -0.0967,0.48071 -0.15633,0.96732 -0.15336,1.45775 -0.0232,0.30153 -0.0966,0.59759 -0.17836,0.88831 -0.0718,0.28329 0.0931,0.34976 -0.0778,-0.068 -0.032,-0.0783 -0.10584,-0.1319 -0.15875,-0.19785 -0.13367,-0.10864 -0.26251,-0.21319 -0.3726,-0.34483 -1.8e-4,-0.0551 -0.0113,-0.0335 0.0643,-0.0341 0,0 9.10367,6.56833 9.10367,6.56833 v 0 c 0.0911,-0.001 0.0645,0.0214 0.0978,-0.0368 -0.0478,-0.17652 0.18244,-0.32228 0.0508,-0.50732 -0.0603,-0.32905 -0.007,-0.64571 -0.0526,-0.97386 -0.0795,-0.35062 -0.1536,-0.70485 -0.18125,-1.06349 0.007,-0.50756 -0.0455,-1.01279 -0.0758,-1.519 -0.0405,-0.89093 0.011,-1.79634 0.20654,-2.66756 z" />
</svg>
