<?xml version="1.0" encoding="UTF-8" standalone="no"?>
<!-- Created with Inkscape (http://www.inkscape.org/) -->

<svg
   width="1000"
   height="1000"
   viewBox="60 0 164 264.58333"
   version="1.1"
   id="svg1"
   xmlns="http://www.w3.org/2000/svg"
   xmlns:svg="http://www.w3.org/2000/svg">
  <defs
     id="defs1" />
  <path
     style="fill:#000000;stroke-width:30.914"
     id="path4"
     d="m 85.447857,108.84901 c 2.869064,-3.26535 6.44628,-5.72618 9.93921,-8.18484 3.805259,-2.653958 7.496453,-5.505165 11.050123,-8.520013 0.57142,-0.443048 1.14723,-0.879943 1.71428,-1.329152 1.63036,-1.291568 2.2066,-1.857786 3.95483,-3.037399 2.46122,-1.660693 5.08174,-3.063621 7.67646,-4.473447 0.96057,-0.496092 1.91427,-1.007094 2.88171,-1.488285 2.87255,-1.42879 2.83918,-1.286135 5.65577,-2.759788 2.36982,-1.239912 4.68338,-2.604528 6.98816,-3.971063 2.04753,-1.292231 4.03032,-2.724219 5.75446,-4.467518 0.49401,-0.301029 0.82665,-1.297047 1.43345,-1.402613 0.0852,-0.01482 0.33063,0.08726 0.24434,0.09017 -3.54512,0.119838 -7.09199,0.174114 -10.63799,0.261172 2.95634,3.066062 5.19669,6.835576 7.46654,10.468856 0.50121,0.749699 0.99105,1.507911 1.50363,2.249094 1.94495,2.812393 1.59194,2.115871 3.4888,4.997736 1.43112,2.174257 2.72401,4.421804 3.96719,6.717267 1.06592,1.910058 1.8298,3.982355 2.82058,5.930496 0.97137,1.579027 2.31471,2.869557 3.50342,4.268107 1.77912,2.09628 3.29142,4.40183 4.73388,6.75882 0.90177,1.42009 1.54638,2.99741 2.41486,4.43782 0.53164,0.88172 1.37936,2.10124 1.93894,2.92507 2.26735,3.52948 4.3663,7.16288 6.39383,10.84761 1.43299,2.51197 2.52952,5.19315 3.71617,7.83363 0.29179,0.83727 0.75831,1.57076 1.16013,2.34671 0.8242,1.4024 1.53811,2.8849 2.27313,4.34412 0.56999,0.99081 1.07632,2.02004 1.62559,3.02215 0.19817,0.50229 0.56775,0.81484 0.90267,1.19639 0.24124,0.29752 0.52955,0.51194 0.77861,0.82609 0.42311,0.44852 0.8132,0.93129 1.1679,1.4408 0,0 11.22362,-0.73375 11.22362,-0.73375 v 0 c -0.35799,-0.53285 -0.7321,-1.03197 -1.09876,-1.55034 -0.19533,-0.22833 -0.55338,-0.90827 -0.77385,-0.84014 -0.12877,-0.15939 -0.29912,-0.47425 -0.46017,-0.58346 -0.0472,-0.032 -0.11963,0.0252 -0.16848,-0.004 -0.15247,-0.0908 -0.18404,-0.33697 -0.3343,-0.42631 -0.65596,-0.94624 -1.19664,-1.97955 -1.87538,-2.91031 -0.73908,-1.45866 -1.49349,-2.91858 -2.01524,-4.48164 -0.35718,-0.42153 -0.0137,0.0285 -0.33728,-0.59353 -0.29663,-0.57023 -0.84575,-0.9931 -1.03473,-1.64559 -1.56955,-2.51405 -2.68681,-5.30078 -4.24788,-7.82418 -2.06253,-3.66542 -4.08115,-7.3502 -6.29514,-10.91854 -1.42772,-2.42462 -2.7498,-4.90738 -4.1718,-7.33572 -1.37241,-2.42367 -3.01521,-4.669 -4.5763,-6.96031 -1.11409,-1.35409 -2.30844,-2.63025 -3.33535,-4.054174 -1.18265,-1.958435 -2.22039,-4.014613 -3.48063,-5.924634 -2.99556,-4.692579 -5.99257,-9.382732 -9.11721,-13.982774 -2.24483,-3.596323 -4.43473,-7.229372 -6.68455,-10.822799 -13.55485,-0.799533 -9.01463,-3.377008 -13.21385,1.103115 -1.52963,1.599853 -3.18142,3.059892 -5.02132,4.259839 -4.87372,3.108718 -10.00311,5.676264 -15.16833,8.203881 -4.81256,2.624147 -9.5593,5.377025 -13.771336,9.001507 -3.552668,2.880575 -7.048485,5.849283 -10.783422,8.470612 -3.671289,2.681647 -7.401175,5.282907 -10.909988,8.198057 z" />
</svg>
