<?xml version="1.0" encoding="UTF-8" standalone="no"?>
<!-- Created with Inkscape (http://www.inkscape.org/) -->

<svg
   width="1000"
   height="1000"
   viewBox="0 0 264.58333 264.58333"
   version="1.1"
   id="svg1"
   xmlns="http://www.w3.org/2000/svg"
   xmlns:svg="http://www.w3.org/2000/svg">
  <defs
     id="defs1" />
  <path
     style="fill:#000000;stroke-width:0.194002"
     id="path7"
     d="m 166.5111,6.2712194 c -0.74111,0.2630997 -1.51016,0.4541027 -2.2176,0.8012304 -0.9451,0.4456977 -1.88459,0.9052954 -2.82901,1.3551231 -0.30613,0.151453 -0.91059,0.445683 -1.20112,0.6097157 -0.2448,0.138212 -0.47745,0.296003 -0.72167,0.4351707 -0.85036,0.484569 -1.73901,0.9051677 -2.6178,1.3378777 -0.93888,0.497335 -1.92698,0.910078 -2.84635,1.442792 -1.06673,0.618103 -2.08205,1.338122 -3.11179,2.011677 -2.18272,1.446777 -4.25014,3.041552 -6.3079,4.649049 -2.01895,1.631151 -3.88352,3.43112 -5.76248,5.210097 -1.85286,1.837458 -3.74281,3.640499 -5.57139,5.501957 -1.73317,1.810001 -3.44176,3.641332 -5.16972,5.45569 -1.7232,1.888391 -3.39041,3.827899 -4.9755,5.827257 -1.52571,1.840071 -3.13548,3.608639 -4.53095,5.54549 -1.29674,1.819928 -2.47757,3.715599 -3.64741,5.614037 -1.00077,1.726501 -1.84091,3.532459 -2.59891,5.36981 -0.80957,2.128188 -1.45467,4.312736 -2.03758,6.508964 -0.52507,1.835498 -0.67529,3.728499 -0.84304,5.616537 -0.18415,1.631291 -0.24309,3.270922 -0.31937,4.909093 -0.01,0.266187 -0.0307,0.532217 -0.0296,0.798564 0.002,0.551497 0.0709,1.469381 0.0945,2.012258 0.0445,1.022394 0.0854,2.043291 0.14456,3.065185 0.0519,1.863958 0.4523,3.688209 0.77629,5.518417 0.34251,1.906091 0.92442,3.748789 1.59261,5.56713 0.59465,1.674511 1.20139,3.342999 1.8966,4.98081 0.68006,1.599201 1.44526,3.162472 2.21852,4.720729 0.75583,1.67818 1.60325,3.30938 2.56052,4.88716 0.80144,1.32912 1.79426,2.53713 2.78932,3.73256 1.00281,1.13092 1.93929,2.31306 3.03538,3.36169 1.27663,1.0867 2.60099,2.11774 3.94973,3.11835 1.48941,1.14774 3.10794,2.12248 4.70566,3.11909 1.24303,0.75704 2.45654,1.55981 3.70941,2.30156 3.9835,0.95351 7.18904,4.45601 11.05808,6.06904 0.0659,0.0263 0.25956,0.1134 0.19777,0.0789 -23.69851,-13.22923 -0.58635,-0.28618 0.39023,0.25282 0.0792,0.0437 0.17862,0.0349 0.26776,0.0532 0.3381,0.0813 -0.37946,-0.49933 -0.38378,-0.50784 -0.0433,-0.0851 0.0555,-0.18197 0.0833,-0.27295 0,0 -7.50893,-4.95127 -7.50893,-4.95127 v 0 c -0.0174,-0.0767 0.001,-0.17114 -0.0523,-0.22999 -0.17823,-0.19592 -0.52719,-0.45608 -0.80064,-0.61701 -3.18492,-1.90579 -1.18197,-0.67877 9.09002,5.06839 0.045,0.0252 -0.089,-0.0522 -0.13408,-0.0772 -9.54224,-5.31388 -6.20728,-3.79014 -9.67336,-5.36856 -3.40675,-1.63753 -7.72074,-4.87784 7.40357,4.21736 -1.36601,-0.7658 -2.71802,-1.55249 -4.04012,-2.38944 -1.59739,-0.98364 -3.20106,-1.96442 -4.73652,-3.03683 -1.31539,-0.98859 -2.63017,-1.97582 -3.90755,-3.01103 -1.19083,-0.97397 -2.21912,-2.09182 -3.18074,-3.27943 -1.06605,-1.17258 -2.10733,-2.37451 -3.0053,-3.67502 -1.07591,-1.54067 -2.00982,-3.1662 -2.80083,-4.8626 -0.76499,-1.58865 -1.58918,-3.14826 -2.35122,-4.7381 -0.76081,-1.671051 -1.41368,-3.382702 -2.17624,-5.053383 -0.2233,-0.573157 -0.51703,-1.307301 -0.71428,-1.891278 -0.40128,-1.187984 -0.67273,-2.414128 -1.02822,-3.614879 -0.52726,-1.820301 -0.95989,-3.668909 -1.16322,-5.55255 -0.17724,-1.921038 -0.33845,-3.845876 -0.26213,-5.776857 0.10791,-1.642371 0.0815,-3.291452 0.22376,-4.932753 0.14018,-1.862718 0.24292,-3.733896 0.67939,-5.560697 0.44276,-2.190098 1.06615,-4.331966 1.99186,-6.380534 0.7398,-1.806631 1.6443,-3.536569 2.56174,-5.26371 1.02693,-1.933508 2.24081,-3.776579 3.44992,-5.606047 1.46593,-1.874811 3.00514,-3.690839 4.52497,-5.52452 1.56173,-1.981508 3.11869,-3.967446 4.87174,-5.796757 1.73351,-1.811321 3.50932,-3.584239 5.17845,-5.45325 0.88795,-0.968594 1.79957,-1.900668 2.75899,-2.803482 0.65263,-0.614137 1.33166,-1.201564 1.98191,-1.818081 0.28654,-0.271677 0.5604,-0.555667 0.84059,-0.833494 0.88754,-0.880397 1.75544,-1.783471 2.67086,-2.636865 0.94903,-0.884727 1.02369,-0.916697 2.0396,-1.739711 0.32505,-0.26333 0.65025,-0.526492 0.97538,-0.789739 1.97799,-1.649186 4.03446,-3.204934 6.2123,-4.600287 0.65738,-0.414575 1.46066,-0.931981 2.13949,-1.318173 1.2636,-0.718875 2.58764,-1.331392 3.89309,-1.973242 1.56848,-0.768338 3.15054,-1.509169 4.73087,-2.253914 0.92294,-0.450863 1.81465,-0.962405 2.76555,-1.35644 0.69097,-0.260802 1.39789,-0.512557 2.14533,-0.553345 z" />
  <path
     style="fill:#000000;stroke-width:0.169747"
     id="path8"
     d="m 125.15009,60.177668 c 0.50601,0.0753 0.97242,-0.19061 1.4723,-0.20026 0.16741,-0.004 0.62699,0.0445 0.80079,0.0609 0.29794,-0.0351 0.58585,0.0908 0.88071,0.0908 0.0706,-2e-5 0.63367,-0.12915 0.71334,-0.13852 1.50589,-0.17691 -0.56554,0.14101 0.9323,-0.10083 0.76776,0.19332 1.49899,-0.0708 2.24833,-0.212737 0.37506,-0.071 0.753,-0.12232 1.12881,-0.18838 1.20997,-0.244707 2.4419,-0.258157 3.66782,-0.261137 1.46225,0.100177 2.92734,0.107197 4.39165,0.136137 1.49998,0.0205 2.98397,0.31011 4.47302,0.490727 1.5992,0.16286 3.16946,0.522327 4.73402,0.907947 0.21454,0.0641 0.42861,0.129997 0.6436,0.192167 0.19718,0.057 0.39804,0.0993 0.59287,0.16544 0.71321,0.24198 1.3875,0.609617 2.06715,0.942764 1.26156,0.539607 2.56729,0.944494 3.7885,1.590421 2.15582,1.351574 5.89512,3.641319 -3.93332,-2.498855 -0.25557,-0.15966 0.50152,0.337427 0.74785,0.513807 0.77707,0.556417 0.74277,0.552237 1.48001,1.173524 1.65976,1.538481 2.92406,3.503749 4.27145,5.35747 1.29714,1.676328 2.3518,3.542229 3.39921,5.410517 1.12751,2.013701 2.18395,4.073029 3.15121,6.184957 1.03166,2.291455 1.63297,4.758623 2.01838,7.268538 0.29298,1.871248 0.36778,3.764279 0.4549,5.656067 0.10099,1.962631 0.28633,3.916279 0.32778,5.882867 0.19338,2.420181 0.0522,4.849661 -0.27378,7.247081 -0.26513,1.72611 -0.82207,3.36226 -1.37748,4.99293 -0.44876,1.4147 -1.11031,2.72444 -1.70818,4.0653 -0.5348,1.28604 -1.07821,2.56593 -1.57891,3.86854 -0.0205,0.0481 -0.35744,0.82581 -0.37807,0.9182 -0.0329,0.14699 -0.0124,0.30265 -0.0279,0.45305 -0.0123,0.11897 -0.037,0.23598 -0.0555,0.35398 0,0 6.98744,3.99217 6.98744,3.99217 v 0 c -0.005,-0.0757 -0.0333,-0.15381 -0.0151,-0.22701 0.0254,-0.10256 0.10425,-0.18038 0.14038,-0.27897 0.11335,-0.30915 0.145,-0.6501 0.2762,-0.9528 0.45082,-1.30279 0.93997,-2.58713 1.49532,-3.84068 0.62294,-1.35754 1.21295,-2.73726 1.71581,-4.15435 0.61286,-1.70882 0.95834,-3.50359 1.21834,-5.31557 0.0592,-0.56745 0.20421,-1.90589 0.23928,-2.4656 0.10162,-1.62203 0.11319,-3.2557 0.14504,-4.88017 -0.10322,-1.96406 -0.16566,-3.930811 -0.31467,-5.891829 -0.11583,-1.947418 -0.14456,-3.913616 -0.54796,-5.823817 -0.20268,-1.099824 -0.20229,-1.212034 -0.49575,-2.317505 -0.48016,-1.808731 -1.1386,-3.554892 -1.7593,-5.30845 -0.89272,-2.136058 -1.90434,-4.214436 -3.03286,-6.211627 -1.04381,-1.907828 -2.11988,-3.809299 -3.40515,-5.534047 -0.95644,-1.251624 -1.89613,-2.519565 -2.82595,-3.795289 -0.23051,-0.316257 -0.44037,-0.651257 -0.6841,-0.955274 -0.21276,-0.26539 -0.4553,-0.499967 -0.68295,-0.749957 -0.70996,-0.651837 -1.4245,-1.284291 -2.22457,-1.801378 -2.7617,-1.784891 -5.53714,-3.705959 -8.42855,-5.28847 -1.25013,-0.557107 -2.54445,-0.983297 -3.78104,-1.578361 -1.04014,-0.48707 -2.11062,-0.842017 -3.23105,-1.030647 -1.51779,-0.305757 -3.04365,-0.574614 -4.58448,-0.692304 -1.49709,-0.16236 -2.99093,-0.463187 -4.49944,-0.416147 -1.33692,0.0261 -2.67791,0.0205 -4.00739,0.198507 -1.18596,0.0814 -2.37373,0.18187 -3.52851,0.510627 -0.50586,0.14061 -1.01179,0.28238 -1.51389,0.438687 -0.21363,0.0665 -0.66668,0.18226 -0.84715,0.3705 -0.0862,0.0899 -0.10986,0.231597 -0.16479,0.347397 -0.0832,0.0725 -0.16631,0.14492 -0.24947,0.21738 -0.0723,0.0777 -0.13929,0.161717 -0.21681,0.232997 -0.0328,0.0301 -0.38198,0.28 -0.40986,0.33351 -0.45573,0.874484 0.3688,-0.26539 -0.14557,0.408777 -0.11256,0.10519 -0.20952,0.232057 -0.33209,0.322707 -0.32012,0.23672 -0.74426,0.2325 -1.03551,0.528217 z" />
</svg>
