<?xml version="1.0" encoding="UTF-8" standalone="no"?>
<!-- Created with Inkscape (http://www.inkscape.org/) -->

<svg
   width="1000"
   height="1000"
   viewBox="60 0 164 264.58333"
   version="1.1"
   id="svg1"
   xmlns="http://www.w3.org/2000/svg"
   xmlns:svg="http://www.w3.org/2000/svg">
  <defs
     id="defs1" />
  <path
     id="path5"
     style="fill:#000000;stroke-width:26.4583"
     d="m 112.82309,61.504772 c -1.42866,-0.04149 -2.19343,0.395417 -3.63027,2.140438 -0.72364,0.977093 -1.3498,2.021816 -2.09083,2.986381 -2.7047,2.95333 -6.22271,4.985768 -9.762713,6.783048 -7.537143,3.690443 -15.319084,6.853932 -22.91643,10.418486 -0.45827,0.22351 -0.916793,0.446648 -1.37511,0.670243 0.03017,0.02927 0.05705,0.06607 0.08217,0.110071 0.0026,-2.96e-4 0.0052,-7.37e-4 0.0078,-0.001 h 5.16e-4 v 5.17e-4 c 0.0027,0.0038 0.0092,0.02177 0.0186,0.05168 0.04554,0.09343 0.08675,0.21296 0.134359,0.357084 0.0137,0.005 0.0292,0.02026 0.04599,0.04444 0.248117,0.04189 0.49654,0.08506 0.74104,0.09819 0.695024,1.102048 1.578231,2.090341 2.302702,3.175516 2.138658,-1.289683 4.378784,-2.41287 6.600113,-3.556372 7.385163,-3.79144 15.089168,-6.90958 22.59965,-10.439156 2.67622,-1.12327 5.17709,-2.590758 7.58714,-4.195609 1.06821,-0.711313 2.02209,-1.423542 2.9223,-2.285132 2.09854,2.024076 4.08059,4.177095 6.09317,6.27817 2.5274,2.712212 4.86799,5.58558 7.3365,8.349878 1.82799,2.081712 3.67175,4.147671 5.45445,6.268351 3.32974,4.096605 6.37949,8.400507 9.4635,12.680884 4.84021,6.1497 9.65811,12.31819 14.8084,18.21335 4.00172,4.31802 7.94832,8.68511 11.98118,12.97441 2.80199,3.05224 5.62348,6.10554 8.25014,9.31312 0.54592,0.66665 1.06596,1.3543 1.59887,2.0314 0.56024,0.684 1.12028,1.36807 1.68052,2.05207 2.53825,3.2759 5.13726,6.50673 7.51685,9.90172 0.7354,1.02568 1.49428,2.03322 2.29857,3.00551 0.18826,0.16951 0.34085,0.3699 0.49041,0.57257 l 9.88519,-0.63872 c -0.18332,-0.23945 -0.36929,-0.47685 -0.56121,-0.70952 -1.0277,-0.81287 -1.78631,-1.96065 -2.75332,-2.84375 -2.72442,-3.26446 -5.42062,-6.54955 -8.04705,-9.89345 -3.73102,-4.5837 -7.75685,-8.9185 -11.55795,-13.44414 -3.9779,-4.46945 -8.35891,-8.54499 -12.42767,-12.931 -5.23004,-5.74645 -10.08243,-11.83139 -14.63476,-18.12809 -1.79973,-2.606808 -3.60345,-5.210008 -5.33715,-7.861536 -0.34436,-0.526677 -1.90207,-2.983738 -2.36678,-3.647839 -0.30665,-0.438229 -0.64314,-0.854247 -0.9648,-1.281576 -1.71361,-2.206712 -3.54177,-4.313632 -5.4963,-6.311242 -2.54864,-2.855383 -5.14237,-5.656966 -7.87239,-8.343677 -3.35539,-3.477816 -6.74618,-6.929449 -9.89914,-10.592635 -0.19682,-0.21405 -0.30012,-0.63032 -0.59066,-0.642338 -4.09425,-0.16936 -6.1869,-0.68922 -7.61555,-0.730705 z" />
  <path
     style="fill:#000000;stroke-width:26.4583"
     id="path6"
     d="m 130.00388,134.11895 c 3.91516,-5.69668 9.08774,-10.38844 14.29373,-14.87395 7.4226,-6.26407 15.6983,-11.46768 24.36555,-15.82841 1.50436,-0.75688 3.0391,-1.45182 4.55865,-2.17773 3.14828,-1.416967 6.28671,-2.859148 9.46914,-4.198872 1.37284,-0.577947 2.72592,-1.111564 4.04573,-1.801281 1.28656,-0.954004 2.43228,-2.070876 3.56294,-3.199462 0.10003,-0.09971 0.20007,-0.199427 0.30009,-0.299141 0,0 -9.79875,-0.734933 -9.79875,-0.734933 v 0 c -0.0828,0.09707 -0.16556,0.19413 -0.24835,0.291193 -0.99151,1.101473 -2.05038,2.166398 -3.33775,2.921659 -3.83156,2.233778 -7.90314,4.041239 -11.80128,6.151507 -3.25184,1.68919 -5.93494,3.04246 -9.13827,4.88563 -6.90503,3.97312 -13.49997,8.47687 -19.83139,13.30614 -1.26897,1.05581 -2.56094,2.08456 -3.80691,3.16741 -4.26499,3.70658 -8.31391,7.66649 -12.20422,11.76177 z" />
</svg>
