<?xml version="1.0" encoding="UTF-8" standalone="no"?>
<!-- Created with Inkscape (http://www.inkscape.org/) -->

<svg
   width="1000"
   height="1000"
   viewBox="0 0 264.58333 264.58333"
   version="1.1"
   id="svg1"
   xmlns="http://www.w3.org/2000/svg"
   xmlns:svg="http://www.w3.org/2000/svg">
  <defs
     id="defs1" />
  <path
     style="fill:#000000;stroke-width:19.7542"
     id="path4"
     d="m 124.88407,67.048346 c -0.16073,1.072766 -0.51597,2.108601 -0.89037,3.123494 -0.80178,2.0374 -1.66896,4.051083 -2.7174,5.973699 -0.66042,1.315959 -1.30897,2.636902 -1.93509,3.969628 -0.85991,1.705929 -1.6811,3.428349 -2.57588,5.116885 -2.15638,3.617826 -3.94179,7.443925 -5.86494,11.190139 -1.48842,2.932332 -2.85952,5.921089 -4.22722,8.911159 -0.50145,1.27264 -1.10432,2.50105 -1.70309,3.72985 -0.71315,1.61536 -1.32398,3.27379 -2.03058,4.89146 -0.59506,1.3381 -1.10067,2.7165 -1.71294,4.04669 -0.53567,1.09822 -1.234696,2.11878 -1.902696,3.14187 -0.840193,1.40464 -1.648225,2.82636 -2.574736,4.1769 -0.372708,0.73755 -0.993459,1.3341 -1.366813,2.06537 -0.247086,0.48062 -0.458862,0.97698 -0.699463,1.46238 -0.738084,1.6053 -1.517118,3.19 -2.412888,4.71326 -0.577974,0.87204 -0.969471,1.84242 -1.465525,2.75802 -0.358695,0.43992 -0.398325,1.02762 -0.646499,1.5167 -0.164872,0.38011 -0.306971,0.75652 -0.481978,1.13663 -0.133688,0.36767 -0.185421,0.75423 -0.244197,1.13898 -0.209124,0.23863 -0.254547,0.71332 -0.279099,1.02297 -0.04343,0.43899 -0.202918,0.86136 -0.335223,1.28164 0.01294,0.32664 -0.163901,0.54847 -0.260214,0.8329 -0.09368,0.39847 -0.167405,0.80422 -0.187932,1.21367 -0.185429,0.27177 -0.25478,0.63296 -0.302037,0.95591 -0.05701,0.28333 -0.258587,0.51455 -0.331541,0.81092 -0.117053,0.22506 -0.174307,0.66578 -0.391367,0.79455 -0.184938,0.35503 -0.396546,0.67112 -0.527042,1.05116 -0.135491,0.34999 -0.395941,0.63289 -0.502533,1.00327 -0.08306,0.0693 -0.165012,0.13935 -0.2505,0.20563 0,0 7.381509,0.53713 7.381509,0.53713 v 0 c 0.09807,-0.15013 0.19322,-0.30108 0.248789,-0.47377 0.176392,-0.3139 0.350494,-0.63125 0.472425,-0.97092 0.174998,-0.31004 0.344732,-0.6227 0.546458,-0.91666 0.139044,-0.3292 0.303628,-0.64736 0.408636,-0.98965 0.148392,-0.28748 0.285369,-0.5912 0.316751,-0.91638 0.08415,-0.35555 0.243771,-0.68363 0.310398,-1.04297 0.02712,-0.3282 0.04022,-0.66485 0.182862,-0.96827 0.155798,-0.29521 0.20737,-0.60593 0.259101,-0.93149 0.101323,-0.45799 0.271928,-0.90176 0.3118,-1.37175 0.08405,-0.36255 0.227056,-0.6976 0.330889,-1.05274 0.01277,-0.31215 0.06535,-0.62043 0.197955,-0.90589 0.163172,-0.38647 0.322918,-0.77317 0.482907,-1.16098 0.16718,-0.49547 0.279888,-1.00675 0.56149,-1.45869 0.430099,-0.91762 0.810512,-1.85995 1.30685,-2.74582 0.781333,-1.59617 1.533833,-3.21842 2.534133,-4.6915 0.29763,-0.47315 0.57203,-0.96054 0.80685,-1.46867 0.39746,-0.66898 0.77301,-1.35014 1.164,-2.02274 0.84841,-1.40171 1.617,-2.85014 2.58494,-4.17599 0.6789,-1.06364 1.4692,-2.07267 1.93396,-3.25396 0.56733,-1.33614 1.01251,-2.72504 1.57676,-4.06384 0.66862,-1.63631 1.33349,-3.27372 2.15356,-4.84076 0.62198,-1.2173 1.14553,-2.48375 1.5594,-3.78794 1.101,-3.00424 2.10711,-6.047414 3.60368,-8.889081 1.07891,-2.226546 2.17148,-4.454229 3.44351,-6.578649 0.58665,-0.979765 1.52393,-2.330377 2.15069,-3.346628 0.24511,-0.397439 0.47176,-0.806065 0.70763,-1.209096 1.01121,-1.68657 2.03405,-3.371622 2.88238,-5.147865 0.64299,-1.302156 1.23428,-2.630464 1.80993,-3.964012 0.92266,-2.010314 1.85102,-4.016662 2.77184,-6.027572 0.46351,-1.04819 0.85248,-2.122249 1.1914,-3.217208 z" />
  <path
     style="fill:#000000;stroke-width:19.7542"
     id="path5"
     d="m 132.80645,66.976374 c -0.11185,0.487224 -0.19949,0.97725 -0.26833,1.472361 0.0262,0.4934 -0.0894,0.944232 -0.19233,1.41979 -0.111,0.535822 -0.16515,1.079397 -0.18879,1.625552 -0.0296,0.547101 0.004,1.095525 7.5e-4,1.64311 0.0735,0.94438 -0.0509,1.886307 -0.17493,2.820761 -0.095,0.811277 -0.25436,1.603281 -0.36203,2.412203 0.0209,1.042187 0.0954,2.081961 0.14528,3.122877 0.0211,0.549825 0.009,1.099884 0.0139,1.64979 0.18709,0.897207 0.32432,1.796985 0.36674,2.712881 0.0384,0.661387 -0.002,1.323179 -0.004,1.984694 0.13894,0.695654 0.37832,1.360036 0.52263,2.058531 0.13973,0.780603 0.18795,1.574169 0.18962,2.366234 -0.0522,0.485154 0.21665,0.864644 0.43867,1.264003 0.19242,0.540264 0.35975,1.094912 0.50269,1.651491 0.0737,0.47486 0.25288,0.92392 0.43615,1.364999 0.43322,0.605539 0.93835,1.153417 1.37519,1.758208 0.46471,0.612242 0.80263,1.312186 1.35203,1.854221 0.58119,0.4626 1.23984,0.80683 1.85105,1.22768 0.87048,0.59247 1.81066,1.05283 2.76402,1.49007 0.53876,0.25679 1.08278,0.46109 1.67202,0.54712 3.20446,0.10438 6.41282,0.0349 9.61825,0.0382 2.59016,-0.008 0.84954,-0.002 -6.82114,-0.0295 -0.0472,-1.8e-4 0.0955,-0.006 0.14179,0.004 0.13444,0.0277 0.27568,0.10297 0.40338,0.15444 0.26956,0.16628 0.58148,0.19982 0.89014,0.22052 2.66062,0.0749 5.34523,0.0125 7.98864,0.0117 0.31872,-1e-4 0.16946,0.0101 0.55388,-0.0933 1.07432,-0.10735 2.13397,-0.28409 3.19893,-0.46369 0.39343,-0.1561 0.87116,-0.0492 1.267,-0.1726 0.14828,-0.0462 0.27265,-0.14923 0.40898,-0.22381 0.26568,-0.17627 0.58872,-0.15706 0.89465,-0.14386 0.2659,-0.24373 0.60249,-0.32884 0.94798,-0.3665 0.13435,-0.24598 0.46224,-0.18904 0.64837,-0.32144 0.38786,-0.27591 -0.0868,-0.10968 0.32613,-0.22298 0.61368,-0.54898 1.32297,-0.97003 1.98805,-1.45331 0.60887,-0.27737 1.0798,-0.741914 1.62027,-1.11836 0.27831,-0.355396 0.38604,-0.646989 0.79875,-0.845599 0.35396,-0.24475 0.60372,-0.578347 0.84673,-0.930271 0.25912,-0.327478 0.55016,-0.589621 0.82247,-0.913822 0.4763,-0.38935 0.909,-0.903529 1.27498,-1.406928 0.41946,-0.339514 0.68512,-0.798493 1.00301,-1.223555 0.30785,-0.2419 0.52758,-0.572946 0.73328,-0.92508 0.28822,-0.481721 0.55846,-0.962558 0.89955,-1.411214 0.35283,-0.481799 0.7448,-0.968263 1.00992,-1.506881 0.28145,-0.490925 0.46636,-1.030715 0.65044,-1.564211 0.22205,-0.61856 0.55033,-1.184085 0.86854,-1.754822 0.3338,-0.430032 0.41659,-0.958372 0.62006,-1.44772 0.0944,-0.452731 0.29956,-0.85249 0.4286,-1.291361 0.13201,-0.392261 0.17985,-0.786393 0.31037,-1.175221 0.19076,-0.417012 0.16411,-0.888081 0.28148,-1.322615 0.11269,-0.565406 0.17088,-1.141198 0.39992,-1.673479 0.16829,-0.411208 0.2398,-0.842147 0.29116,-1.280278 0.0399,-0.345922 0.19282,-0.676967 0.28221,-1.021737 0.10458,-0.12339 0.0189,-0.642673 0.14684,-0.680105 0.20985,-0.175499 0.11373,-0.616349 0.31405,-0.768036 0.16875,-0.31578 0.27772,-0.634309 0.31781,-0.990511 0.0627,-0.08455 -0.0186,-0.219355 0.0355,-0.306919 0.0104,-0.0169 0.033,0.0448 0.0493,0.03341 0.0904,-0.06341 0.14856,-0.320301 0.17227,-0.407143 0.68913,-3.097197 -7.18609,-3.273276 -7.52642,-0.293383 -0.0344,0.654489 -0.0471,1.307157 -0.12452,1.958388 -0.1368,0.828275 -0.46969,1.598967 -0.69238,2.400661 -0.16039,0.542135 -0.22583,1.094321 -0.41065,1.625352 -0.15995,0.381957 -0.22911,0.794785 -0.25652,1.206204 -0.0217,0.520967 0.003,1.041634 0.001,1.562446 -0.11722,1.158674 -0.29396,2.308937 -0.39882,3.468929 -0.16287,1.343935 -0.20202,2.694135 -0.24762,4.044717 -0.0389,1.211507 0.0102,2.422616 0.006,3.634165 0.008,1.624142 0.0785,3.238274 0.19989,4.857553 0.0897,1.453836 0.27306,2.905466 0.51158,4.342486 0.16644,1.01781 0.24342,2.04469 0.41664,3.0613 0.29674,1.51743 0.74782,2.99641 1.12597,4.49385 0.37664,1.42408 0.73437,2.85452 1.20101,4.25205 0.30176,0.82353 0.60825,1.64564 0.91342,2.46818 0.40218,1.19054 0.80309,2.3808 1.24641,3.55685 0.43218,1.19417 0.80439,2.40914 1.23496,3.6037 0.26692,0.82648 0.56473,1.64455 0.79139,2.4835 0.39107,1.37805 1.14502,2.60531 1.73481,3.90147 1.0041,2.09996 1.79732,4.28931 2.67937,6.44111 0.64647,1.35202 1.39454,2.65435 2.13236,3.95812 0.48985,0.97561 0.92623,1.9742 1.52413,2.89034 0.30369,0.47544 0.58378,0.96353 0.97697,1.37189 0.25286,0.32968 0.50493,0.66258 0.70999,1.025 0.19745,0.27159 0.48023,0.46198 0.70532,0.71005 0.0379,0.0272 0.0758,0.0543 0.1137,0.0815 0,0 7.34622,-0.90442 7.34622,-0.90442 v 0 c -0.0361,-2e-5 -0.0723,-3e-5 -0.10839,-4e-5 -0.26653,0.0577 -0.45305,-0.32251 -0.69631,-0.40744 -0.18528,-0.1078 -0.20101,-0.28499 -0.32307,-0.45534 -0.14059,-0.19623 -0.36116,-0.31332 -0.41628,-0.57273 -0.33943,-0.43909 -0.79799,-0.77908 -1.04177,-1.3013 -0.67244,-0.86498 -1.19517,-1.82236 -1.68516,-2.80141 -0.71325,-1.30177 -1.44396,-2.59315 -2.12957,-3.90951 -1.10481,-2.0668 -2.00535,-4.23655 -2.90762,-6.39828 -0.47417,-1.2664 -0.88811,-2.54875 -1.31808,-3.82418 -0.23657,-0.86547 -0.60099,-1.69373 -0.89074,-2.54113 -0.43965,-1.19996 -0.87613,-2.4003 -1.28566,-3.6107 -0.44093,-1.16791 -0.80307,-2.35128 -1.16386,-3.54493 -0.28223,-0.83825 -0.54491,-1.68507 -0.89909,-2.49659 -0.61548,-1.3231 -1.06357,-2.72808 -1.39717,-4.14751 -0.35433,-1.47092 -0.70383,-2.94248 -0.93993,-4.43831 -0.15507,-1.02574 -0.261,-2.05749 -0.47831,-3.07342 -0.27266,-1.4115 -0.46514,-2.83332 -0.58125,-4.267547 -0.11926,-1.599456 -0.24197,-3.20031 -0.13037,-4.80501 -0.007,-1.207472 0.033,-2.414511 0.0185,-3.622061 -0.004,-1.326528 0.0452,-2.655734 0.15988,-3.977482 0.15549,-1.194327 0.40978,-2.3633 0.61522,-3.547669 -0.002,-0.499054 0.0125,-0.999711 0.0456,-1.497561 0.0399,-0.35444 0.10693,-0.700194 0.23338,-1.035398 0.16853,-0.539786 0.18251,-1.106858 0.34367,-1.649697 0.26125,-0.826944 0.50067,-1.659108 0.67699,-2.509233 0.10252,-0.632016 0.14749,-1.258977 0.223,-1.89207 1.34258,-2.17905 -0.0329,0.110848 -7.27068,-0.03067 -0.10537,-0.0021 0.10912,-0.294862 0.0921,-0.233301 -0.0109,0.03954 -0.0277,0.0772 -0.0416,0.115797 -0.15901,0.260395 -0.25793,0.524897 -0.25687,0.835212 -0.0639,0.270667 -0.18041,0.520807 -0.31538,0.763925 -0.0928,0.287968 -0.19046,0.570312 -0.32542,0.84072 -0.0607,0.253988 -0.0726,0.511475 -0.12947,0.76711 -0.094,0.377952 -0.2776,0.735092 -0.28459,1.131694 -0.0315,0.378243 -0.12338,0.74511 -0.25599,1.100616 -0.17324,0.576346 -0.2302,1.173337 -0.40125,1.75062 -0.0959,0.420798 -0.12523,0.855253 -0.29331,1.258094 -0.13147,0.384625 -0.17595,0.78787 -0.30243,1.174248 -0.16566,0.415277 -0.29462,0.836672 -0.42478,1.264088 -0.16222,0.460455 -0.31575,0.921959 -0.56545,1.344934 -0.3347,0.602024 -0.67553,1.212472 -0.89941,1.865378 -0.19903,0.49618 -0.37403,1.004999 -0.67041,1.454109 -0.30255,0.477914 -0.59055,0.966001 -0.94474,1.408276 -0.3441,0.465747 -0.64809,0.956898 -0.96685,1.440174 -0.2516,0.309427 -0.5201,0.58671 -0.74762,0.913358 -0.27899,0.419646 -0.5886,0.807059 -0.92438,1.184021 -0.42331,0.479708 -0.87849,0.926179 -1.33818,1.3671 -0.28981,0.315876 -0.59508,0.610656 -0.83613,0.969089 -0.24144,0.289244 -0.53087,0.514358 -0.84133,0.725542 -0.26439,0.27575 -0.44227,0.636352 -0.7674,0.849706 -0.49098,0.409338 -1.01972,0.75367 -1.55601,1.100874 -0.66571,0.464914 -1.30687,0.990104 -2.04885,1.326454 -0.27598,0.18565 -0.6529,0.32918 -0.9849,0.37842 -0.29438,0.10876 -0.60384,0.33435 -0.92412,0.26893 -0.3236,0.0741 -0.6114,0.21289 -0.91101,0.34956 -0.49847,0.11507 -1.02985,0.11764 -1.52664,0.26454 -1.07729,0.19448 -2.16319,0.30105 -3.25116,0.41768 -3.85814,-0.0389 9.59924,-0.0302 5.97278,6e-5 -0.28088,0.004 -0.56086,0.0168 -0.8411,0.0248 -0.0907,-0.0328 -0.57117,-0.27079 -0.59683,-0.27154 -4.69195,-0.13814 -5.07705,-0.13296 -7.71778,-0.11031 -2.54934,0.0305 -0.10581,1.9e-4 6.5991,0.005 1.23004,7.5e-4 -3.00261,0.0177 -1.75929,-5.9e-4 -0.5807,0.0335 -1.12188,-0.0784 -1.66724,-0.28878 -0.95002,-0.38862 -1.92756,-0.74996 -2.76304,-1.36108 -0.60119,-0.38243 -1.13757,-0.849738 -1.77552,-1.171919 -0.64683,-0.376476 -0.96854,-1.042915 -1.4197,-1.617522 -0.36618,-0.604805 -0.78561,-1.191172 -1.2393,-1.726842 -0.24679,-0.241137 -0.37926,-0.815527 -0.47654,-1.143364 -0.13439,-0.6061 -0.36967,-1.181544 -0.4878,-1.792155 -0.13129,-0.350833 -0.39306,-0.618144 -0.433,-0.990019 -0.0834,-0.821174 -0.19646,-1.638802 -0.3098,-2.456411 -0.0995,-0.646384 -0.15477,-1.32422 -0.38813,-1.936209 -0.0147,-0.676011 -0.1013,-1.347291 -0.13589,-2.02233 -0.0683,-0.895559 -0.0867,-1.789601 -0.22341,-2.677465 -0.009,-0.56329 -0.0578,-1.125408 -0.10911,-1.686136 -0.0757,-0.990396 -0.22245,-1.984883 -0.15278,-2.978669 0.11248,-0.812031 0.35126,-1.604036 0.34474,-2.431469 0.0831,-0.968229 0.25565,-1.9276 0.25292,-2.900791 -0.004,-0.536532 0.0215,-1.072912 0.0278,-1.609228 0.0234,-0.500052 0.0557,-1.001454 0.1766,-1.489353 0.12461,-0.49641 0.20747,-0.990171 0.21777,-1.503512 0.0426,-0.467823 0.13327,-0.930756 0.28221,-1.376736 z" />
</svg>
