<?xml version="1.0" encoding="UTF-8" standalone="no"?>
<!-- Created with Inkscape (http://www.inkscape.org/) -->

<svg
   width="1000"
   height="1000"
   viewBox="0 0 264.58333 264.58333"
   version="1.1"
   id="svg1"
   xmlns="http://www.w3.org/2000/svg"
   xmlns:svg="http://www.w3.org/2000/svg">
  <defs
     id="defs1" />
  <path
     style="fill:#000000;stroke-width:0.264583"
     id="path1"
     d="m 100.36865,71.784275 c 1.44549,0.38648 2.75404,1.119992 4.23195,1.400905 1.25435,0.238422 1.50401,0.208683 2.76373,0.273 2.97248,-0.04839 5.75761,0.649277 8.61929,1.330444 3.12316,0.606695 6.25466,1.149451 9.34599,1.908752 3.1185,0.491776 6.17839,1.249796 9.261,1.91657 2.63102,0.705824 5.30451,1.285137 7.88643,2.16425 1.23466,0.420385 2.50202,0.951007 3.71098,1.438872 2.29277,0.967553 4.64203,1.808377 6.88735,2.886237 0.96641,0.463926 2.28818,1.178187 3.23953,1.683644 2.29668,1.304377 4.69046,2.420948 7.03622,3.631377 0.70572,0.360844 1.16652,0.587566 1.85793,0.97681 0.29576,0.166502 1.17251,0.684332 0.87814,0.515385 -17.52312,-10.057112 -12.27703,-7.31478 -8.73033,-4.927267 1.44017,0.957696 2.37173,2.386671 3.20564,3.862946 0.75839,1.384305 1.15171,2.89919 1.39346,4.447389 0.25632,2.782186 -0.26814,5.522611 -0.88999,8.218901 -1.09753,3.66661 -2.52014,7.2287 -4.10835,10.70782 -1.57925,3.26465 -3.07988,6.57197 -4.75766,9.78727 -2.01241,3.83953 -4.17099,7.59843 -6.51116,11.24694 -1.67498,2.4585 -3.47488,4.838 -5.49917,7.02169 -0.27775,0.29962 -2.70531,2.76104 -3.02541,3.08617 -2.375,2.29859 -4.88954,4.46517 -7.57993,6.3869 -1.7677,1.17836 -3.59798,2.25985 -5.3675,3.43468 -1.42549,0.80461 -2.67101,1.85816 -3.95877,2.85507 -1.20196,0.90861 -2.44834,1.77799 -3.51575,2.85129 -0.30485,0.30654 -0.58395,0.63765 -0.87593,0.95648 -2.27129,2.48949 -4.80014,4.71998 -7.27992,6.99593 -1.15062,0.98713 -2.21397,2.06917 -3.33234,3.09125 -0.86906,0.79424 -1.76808,1.53726 -2.61133,2.35974 -0.66238,0.76746 -1.58869,1.47872 -1.98133,2.45013 -1.087452,2.69035 0.64663,-0.44908 -0.54399,1.59244 0,0 9.86318,5.85275 9.86318,5.85275 v 0 c 1.26117,-1.33171 -0.44783,0.3529 1.43895,-1.00688 0.82485,-0.59447 1.3516,-1.55871 2.09755,-2.23544 1.80764,-1.91308 3.70468,-3.74325 5.51298,-5.65611 2.45738,-2.34353 5.0353,-4.54938 7.56329,-6.81475 1.52554,-1.19906 3.02783,-2.42703 4.62618,-3.52971 1.26319,-0.98457 2.54225,-1.93628 3.89426,-2.79659 1.71494,-1.18657 3.31985,-2.51831 5.01732,-3.73026 2.61324,-2.05868 5.03433,-4.35973 7.27225,-6.82067 3.01281,-3.30906 6.13446,-6.56399 8.51974,-10.37484 2.33745,-3.68449 4.58731,-7.42812 6.7803,-11.19952 1.74894,-3.21577 3.31324,-6.52488 4.71444,-9.90756 1.5576,-3.55405 3.11033,-7.12319 4.39639,-10.78473 0.76379,-2.73059 1.37625,-5.53642 1.50851,-8.37632 -0.0537,-1.694874 -0.3421,-3.380614 -1.15083,-4.892284 -0.7946,-1.579526 -1.72408,-3.151429 -2.99237,-4.3965 -4.7242,-3.712215 -10.25929,-6.274924 -15.57478,-9.050451 -2.20454,-1.085752 -4.42959,-2.130004 -6.59535,-3.293189 -3.2388,-1.62446 -6.56315,-3.05104 -9.97067,-4.286356 -1.48279,-0.554164 -2.17442,-0.836028 -3.69618,-1.308801 -2.54251,-0.78989 -5.14666,-1.353801 -7.73797,-1.954022 -3.12874,-0.741108 -6.26297,-1.454153 -9.42564,-2.036532 -2.94192,-0.584989 -5.89889,-1.089163 -8.86605,-1.529334 -2.81897,-0.514811 -5.53226,-1.009536 -8.420002,-0.936072 -2.325553,0.01572 -0.163915,-0.02307 -2.099056,0.06945 -0.235305,0.01124 -0.47725,-0.03829 -0.706546,0.01574 -0.124836,0.02941 -0.194096,0.175239 -0.312563,0.224382 -0.260504,0.10807 -0.558099,0.08005 -0.829138,0.07839 z" />
</svg>
