<?xml version="1.0" encoding="UTF-8" standalone="no"?>
<!-- Created with Inkscape (http://www.inkscape.org/) -->

<svg
   width="1000"
   height="1000"
   viewBox="60 0 164 264.58333"
   version="1.1"
   id="svg1"
   xmlns="http://www.w3.org/2000/svg"
   xmlns:svg="http://www.w3.org/2000/svg">
  <defs
     id="defs1" />
  <path
     style="fill:#000000;stroke-width:0.264583"
     id="path7"
     d="m 162.3979,1.768807 c -0.99572,0.3642302 -2.02899,0.6286513 -2.97947,1.1092085 -1.26981,0.6170168 -2.53206,1.2532746 -3.80095,1.8760077 -0.41131,0.2096688 -1.22343,0.6169949 -1.61378,0.8440785 -0.3289,0.1913382 -0.64148,0.4097811 -0.9696,0.6024417 -1.14251,0.6708288 -2.33647,1.2530976 -3.51718,1.8521333 -1.26144,0.6885001 -2.58901,1.2598929 -3.82424,1.9973713 -1.43322,0.855691 -2.79736,1.852471 -4.18088,2.784928 -2.93262,2.002891 -5.71032,4.210667 -8.47504,6.436056 -2.71258,2.258134 -5.21775,4.749977 -7.74224,7.212762 -2.48943,2.54376 -5.02869,5.039865 -7.4855,7.616851 -2.32862,2.505747 -4.62422,5.041011 -6.94584,7.552791 -2.31522,2.614271 -4.55521,5.299297 -6.68487,8.067188 -2.04987,2.547379 -4.212685,4.995759 -6.087567,7.67711 -1.742242,2.519503 -3.32875,5.143846 -4.900491,7.772016 -1.344591,2.390151 -2.473367,4.890281 -3.49177,7.433876 -1.087707,2.946218 -1.954434,5.970466 -2.737601,9.010875 -0.705459,2.541043 -0.907291,5.161672 -1.132663,7.77544 -0.24742,2.258325 -0.326604,4.528209 -0.429098,6.796053 -0.01326,0.368509 -0.04132,0.736783 -0.03973,1.105524 0.0033,0.763479 0.09528,2.034175 0.127027,2.785722 0.05979,1.41539 0.11472,2.82871 0.194228,4.24341 0.06977,2.58044 0.607692,5.10591 1.042984,7.63964 0.460185,2.63877 1.242013,5.18978 2.139747,7.70706 0.798957,2.31818 1.614133,4.62802 2.548191,6.89539 0.913699,2.21391 1.941785,4.37809 2.980701,6.53531 1.015497,2.32325 2.154039,4.58144 3.440191,6.7657 1.076781,1.84 2.410681,3.51235 3.747591,5.16728 1.34733,1.56562 2.60554,3.20216 4.0782,4.65386 1.71522,1.50441 3.49458,2.93176 5.3067,4.31699 2.00111,1.58891 4.1757,2.93832 6.32234,4.318 1.67008,1.04804 3.3005,2.15938 4.98381,3.18624 5.35207,1.32002 9.65891,6.16882 14.8572,8.40186 0.0886,0.0364 0.34873,0.157 0.26572,0.10925 -31.84039,-18.3143 -0.7878,-0.39619 0.52429,0.34999 0.1064,0.0605 0.23999,0.0483 0.35976,0.0736 0.45425,0.11257 -0.50983,-0.69126 -0.51564,-0.70305 -0.0581,-0.1178 0.0746,-0.25191 0.11196,-0.37786 0,0 -10.0887,-6.85444 -10.0887,-6.85444 v 0 c -0.0234,-0.10613 0.002,-0.23693 -0.0703,-0.3184 -0.23947,-0.27123 -0.70832,-0.63139 -1.07571,-0.85418 -4.27914,-2.63834 -1.58805,-0.93967 12.21299,7.01658 0.0605,0.0349 -0.11958,-0.0722 -0.18015,-0.10691 -12.82057,-7.35643 -8.33985,-5.247 -12.99674,-7.43213 -4.57717,-2.26697 -10.37328,-6.75279 9.94714,5.83843 -1.83531,-1.06016 -3.65182,-2.14923 -5.42814,-3.3079 -2.1462,-1.36173 -4.30082,-2.7195 -6.3638,-4.20412 -1.76731,-1.36859 -3.5338,-2.73529 -5.25003,-4.16842 -1.59995,-1.34834 -2.98153,-2.89587 -4.27352,-4.53998 -1.4323,-1.6233 -2.83132,-3.28723 -4.0378,-5.08762 -1.44555,-2.13288 -2.70032,-4.38323 -3.76309,-6.7317 -1.02781,-2.19929 -2.13514,-4.35839 -3.15898,-6.55933 -1.0222,-2.31339 -1.89936,-4.68298 -2.9239,-6.99585 -0.30001,-0.79347 -0.69465,-1.80981 -0.959675,-2.61826 -0.539136,-1.64463 -0.903848,-3.34209 -1.381471,-5.0044 -0.708393,-2.52 -1.289651,-5.0792 -1.562841,-7.68689 -0.238133,-2.65947 -0.454726,-5.32419 -0.352184,-7.99742 0.144978,-2.273681 0.109426,-4.556625 0.300632,-6.828809 0.188341,-2.578719 0.326377,-5.16914 0.912792,-7.698134 0.594868,-3.031926 1.432427,-5.997085 2.676177,-8.833093 0.99396,-2.501061 2.2092,-4.895958 3.44183,-7.286974 1.37973,-2.676716 3.01065,-5.228222 4.63516,-7.760933 1.96957,-2.595457 4.03759,-5.109557 6.07957,-7.648072 2.09828,-2.743176 4.19015,-5.492491 6.54547,-8.024969 2.32908,-2.50757 4.71499,-4.961988 6.95757,-7.549425 1.19301,-1.340908 2.41783,-2.631265 3.70686,-3.881104 0.87686,-0.850201 1.78917,-1.663432 2.66282,-2.516933 0.38498,-0.376103 0.75293,-0.769255 1.12939,-1.153885 1.19246,-1.218801 2.35853,-2.469007 3.58846,-3.650438 1.27508,-1.224804 1.37539,-1.269061 2.74033,-2.408438 0.43672,-0.364556 0.87365,-0.728867 1.31048,-1.093301 2.65755,-2.283102 5.42053,-4.43685 8.3466,-6.36855 0.88322,-0.57393 1.96248,-1.290218 2.87453,-1.824854 1.69772,-0.995197 3.47665,-1.843155 5.2306,-2.73172 2.10735,-1.063672 4.23294,-2.089264 6.35621,-3.120275 1.24003,-0.624166 2.43809,-1.332336 3.71569,-1.8778297 0.92835,-0.3610496 1.87815,-0.7095733 2.88238,-0.7660397 z" />
  <path
     style="fill:#000000;stroke-width:0.264583"
     id="path8"
     d="m 106.81324,69.87052 c 0.82738,0.111898 1.59002,-0.283205 2.40739,-0.297553 0.27374,-0.0048 1.02519,0.06625 1.30938,0.09061 0.48718,-0.0522 0.95795,0.134921 1.44007,0.134778 0.11541,-3.1e-5 1.03612,-0.191902 1.16639,-0.205808 2.46232,-0.262874 -0.92472,0.209497 1.52443,-0.149834 1.25537,0.287256 2.45102,-0.105238 3.67629,-0.316103 0.61326,-0.105542 1.23125,-0.181729 1.84574,-0.279895 1.97844,-0.36359 3.9928,-0.383571 5.99733,-0.388003 2.39094,0.148844 4.78654,0.159292 7.18087,0.202282 2.45265,0.03052 4.87916,0.460764 7.31393,0.729141 2.61487,0.24198 5.18245,0.776084 7.7407,1.349076 0.35078,0.09517 0.70082,0.193133 1.05235,0.285517 0.32242,0.08473 0.65085,0.147601 0.96942,0.245817 1.16618,0.359542 2.26872,0.905809 3.38004,1.400794 2.06281,0.80178 4.19782,1.403382 6.19464,2.363131 3.52504,2.008217 9.63924,5.41042 -6.43145,-3.712911 -0.41788,-0.237231 0.82006,0.501354 1.22283,0.763426 1.27061,0.826752 1.21452,0.820544 2.42,1.743678 2.7139,2.285953 4.78119,5.206019 6.98433,7.960366 2.12097,2.490747 3.84547,5.2632 5.55813,8.039195 1.8436,2.992014 3.571,6.051862 5.15259,9.189865 1.68689,3.404741 2.67011,7.070591 3.30029,10.799951 0.47906,2.7804 0.60138,5.59316 0.74382,8.40407 0.16513,2.91619 0.46819,5.81902 0.53597,8.74108 0.31619,3.59602 0.0853,7.20584 -0.44767,10.76804 -0.43352,2.56473 -1.34418,4.99578 -2.25234,7.4187 -0.73379,2.10203 -1.8155,4.0481 -2.79309,6.0404 -0.87446,1.91086 -1.76299,3.81258 -2.58171,5.74805 -0.0335,0.0714 -0.58444,1.22702 -0.61818,1.3643 -0.0537,0.21841 -0.0203,0.4497 -0.0457,0.67316 -0.0201,0.17677 -0.0605,0.35063 -0.0907,0.52595 0,0 11.4253,5.93175 11.4253,5.93175 v 0 c -0.008,-0.11244 -0.0544,-0.22853 -0.0247,-0.33731 0.0415,-0.15238 0.17045,-0.26802 0.22954,-0.41449 0.18534,-0.45935 0.23709,-0.96596 0.45162,-1.41573 0.73714,-1.93573 1.53696,-3.84407 2.44502,-5.70664 1.01859,-2.01709 1.98332,-4.06714 2.80557,-6.17272 1.00209,-2.53904 1.567,-5.20579 1.99212,-7.8981 0.0967,-0.84314 0.3339,-2.83185 0.39125,-3.66349 0.16617,-2.41008 0.18509,-4.83745 0.23716,-7.25116 -0.16877,-2.91829 -0.27087,-5.84058 -0.51451,-8.75437 -0.18941,-2.89358 -0.23637,-5.81506 -0.89598,-8.65332 -0.33142,-1.63419 -0.33077,-1.8009 -0.81062,-3.44347 -0.78512,-2.68752 -1.86175,-5.28206 -2.87667,-7.88758 -1.45971,-3.17387 -3.11383,-6.262016 -4.95909,-9.229517 -1.70675,-2.834745 -3.46627,-5.66003 -5.56783,-8.222731 -1.56389,-1.859716 -3.1004,-3.743685 -4.62076,-5.639199 -0.37691,-0.469916 -0.72007,-0.967664 -1.1186,-1.419392 -0.34789,-0.394335 -0.74447,-0.742884 -1.1167,-1.114324 -1.16088,-0.968529 -2.32923,-1.908239 -3.63744,-2.676554 -4.51571,-2.652075 -9.05389,-5.506485 -13.78168,-7.85785 -2.04413,-0.827773 -4.16049,-1.461016 -6.18247,-2.345206 -1.70076,-0.723712 -3.45112,-1.251106 -5.28314,-1.531366 -2.48178,-0.454311 -4.97676,-0.85381 -7.49618,-1.028671 -2.44793,-0.241242 -4.89054,-0.688229 -7.35714,-0.618336 -2.18603,0.03875 -4.3787,0.0305 -6.55256,0.294952 -1.93919,0.121039 -3.88133,0.270227 -5.76954,0.758719 -0.82714,0.20892 -1.65439,0.419568 -2.47539,0.651817 -0.34931,0.09881 -1.0901,0.270819 -1.38519,0.550503 -0.14087,0.133522 -0.17964,0.344127 -0.26946,0.516194 -0.13597,0.107661 -0.27194,0.215326 -0.4079,0.32299 -0.11817,0.115398 -0.22777,0.240286 -0.35452,0.346191 -0.0536,0.04477 -0.62458,0.416052 -0.67017,0.495554 -0.74518,1.29935 0.60303,-0.394322 -0.23802,0.607388 -0.18406,0.156292 -0.34259,0.344803 -0.54301,0.479483 -0.52343,0.351732 -1.21695,0.345464 -1.69319,0.784845 z" />
</svg>
