<?xml version="1.0" encoding="UTF-8" standalone="no"?>
<!-- Created with Inkscape (http://www.inkscape.org/) -->

<svg
   width="1000"
   height="1000"
   viewBox="60 0 164 264.58333"
   version="1.1"
   id="svg1"
   xmlns="http://www.w3.org/2000/svg"
   xmlns:svg="http://www.w3.org/2000/svg">
  <defs
     id="defs1" />
  <path
     style="fill:#000000;stroke-width:0.264583"
     id="path4"
     d="m 81.665137,180.07993 c 0.0381,-0.18626 0.0871,-0.37062 0.1143,-0.55879 0.07961,-0.55078 0.112731,-1.10751 0.188714,-1.6588 0.04806,-0.34873 0.103656,-0.69638 0.155483,-1.04458 0.07619,-0.43676 0.16779,-0.87113 0.228584,-1.31031 0.0729,-0.52666 0.114863,-1.05715 0.172296,-1.58572 0.228653,-1.69334 0.16078,-3.4187 0.37846,-5.11218 0.06865,-0.53409 0.240184,-1.05257 0.295445,-1.58822 0.152844,-1.4815 0.0016,-2.34726 -0.125177,-3.85725 -0.0729,-0.75876 -0.171099,-1.51551 -0.218694,-2.27627 -0.09158,-1.46377 -0.07137,-3.27791 -0.08562,-4.74263 -0.02093,-2.15148 -0.03538,-4.30188 -0.03893,-6.45351 -0.04618,-4.3273 0.218226,-8.65655 0.539171,-12.97076 0.165431,-2.44587 0.578943,-4.86822 0.744738,-7.31391 0.09543,-1.40776 0.139679,-2.81859 0.225444,-4.22698 0.04339,-2.2101 0.288107,-4.4096 0.415428,-6.61415 0.129211,-2.23727 0.160459,-4.48272 0.167256,-6.7229 -0.07608,-2.08903 0.0089,-4.1818 -0.04263,-6.27084 -0.05115,-2.07281 -0.211542,-4.147 -0.309134,-6.218128 -0.108709,-3.056289 0.04488,-6.111544 0.08539,-9.1671 0.06861,-1.955284 0.364776,-3.891357 0.318466,-5.849422 -0.06472,-1.724059 -0.178255,-3.445703 -0.139203,-5.171493 0.06459,-0.962755 0.10218,-1.925838 0.120394,-2.890271 -0.004,-0.757846 0.0835,-1.511234 0.281808,-2.242256 0.148841,-0.616779 0.314227,-1.231548 0.40132,-1.860823 0.03643,-0.300141 0.06491,-0.5998 0.109106,-0.899036 0.03971,-0.101208 0.0088,-0.210621 0.0145,-0.318897 0.0227,-0.210782 -0.459203,-0.410297 -0.543444,-0.469542 -0.544867,-0.340336 -1.089736,-0.680673 -1.634603,-1.021009 0,0 -7.502081,-3.822472 -7.502081,-3.822472 v 0 c -0.544864,-0.214831 -1.089729,-0.429665 -1.634593,-0.644496 -0.138758,-0.04209 -0.27841,-0.08134 -0.416274,-0.126273 -0.132104,-0.04306 -0.140176,-0.07814 -0.12599,0.05161 0.0069,0.113049 -0.02106,0.226547 0.02072,0.332434 0.04349,0.284054 0.06313,0.56815 0.05872,0.855839 -0.0122,0.584904 -0.05544,1.16894 -0.200549,1.7384 -0.180795,0.829831 -0.401831,1.669322 -0.390433,2.523805 0.0028,1.007335 0.01304,2.014614 0.08309,3.020227 0.07213,1.752801 0.216527,3.496915 0.254695,5.250418 0.01466,0.576225 0.05727,1.151728 0.06212,1.728118 0.01188,1.411583 -0.123886,2.823731 -0.09861,4.235833 0.06627,3.1696 0.292878,6.332561 0.452102,9.498357 0.205631,4.194672 0.500988,8.385087 0.632724,12.583727 0.114904,4.4524 -0.02,8.89703 -0.396425,13.33639 -0.26371,3.87325 -0.6272,7.73872 -0.866762,11.61304 -0.112119,4.39862 -0.177908,8.7985 -0.314684,13.19659 0.180046,2.27948 0.387421,4.55558 0.687771,6.8231 0.225663,1.70367 0.53563,3.39557 0.755496,5.1 0.09755,0.75624 0.160901,1.5165 0.241353,2.27475 0.17485,1.87279 0.157136,2.18321 0.502343,3.99338 0.122434,0.64201 0.327565,1.2681 0.42158,1.91487 0.254264,1.74919 0.0369,3.5287 0.06903,5.28429 -0.03038,0.99947 -0.01423,2.00134 -0.08875,2.99849 -0.06827,0.91342 -0.352709,1.79046 -0.422233,2.70164 -0.01479,0.19371 0.0046,0.38853 0.0068,0.5828 z" />
  <path
     style="fill:#000000;stroke-width:0.264583"
     id="path5"
     d="m 78.819345,170.33793 c -0.01384,0.13131 0.04634,0.29535 -0.04149,0.39394 -0.130267,0.14622 -0.395327,0.10919 -0.531833,0.2496 -0.302372,0.31103 -0.164304,1.22123 -0.338932,1.51144 -0.0978,0.16253 -0.301418,0.23037 -0.452128,0.34555 -0.163139,0.10118 -0.371914,0.15173 -0.489421,0.30353 -0.145748,0.18829 -0.277883,1.90899 -0.345754,2.26984 -0.106376,0.89631 -0.158991,1.79469 -0.281178,2.68934 -0.02453,0.1594 -0.0099,0.33004 -0.07362,0.47821 -0.128688,0.29933 -0.455039,0.48246 -0.590992,0.77856 -0.128987,0.28093 -0.22365,0.99435 -0.293341,1.32477 -0.198448,1 -0.324221,2.00967 -0.37247,3.02747 -0.0052,0.95468 -0.103645,1.9054 -0.15548,2.85792 -0.01278,0.23477 0.0777,0.49518 -0.02887,0.70476 -0.102021,0.20064 -0.358265,0.2726 -0.537398,0.40889 -0.333669,0.91939 -0.378585,1.92217 -0.49012,2.8906 -0.08514,0.73234 -0.242726,1.45137 -0.309403,2.1878 -0.06085,0.77504 -0.0891,1.55151 -0.09381,2.32883 -0.04148,0.84906 -0.166097,1.69039 -0.221551,2.53888 -0.111599,0.77966 -0.136798,1.56765 -0.147445,2.35405 -0.03243,0.77316 -0.01611,1.54727 0.0093,2.32034 0.03588,1.01101 -0.0535,2.01552 -0.171812,3.01797 -0.112665,0.92698 -0.11176,1.86292 -0.179173,2.79365 0.01151,0.89734 -0.0038,1.79473 0.0064,2.69214 0.02731,0.79103 0.128119,1.57685 0.194339,2.36525 0.01873,0.24776 0.315188,1.26107 0.09028,1.43939 -0.638905,0.50654 -0.22633,-0.23887 -0.46028,0.24928 -0.03835,0.0313 -0.06918,0.0753 -0.115054,0.0939 -0.09887,0.0401 -0.17544,0.005 -0.272722,0.0208 -2.960015,0.48158 10.620679,9.00117 10.116659,5.00921 -0.0691,-0.85641 -0.126151,-1.71588 -0.11108,-2.57515 0.009,-0.24089 0.01069,-0.48216 0.02692,-0.72267 0.01638,-0.24288 0.04721,-0.48457 0.07082,-0.72685 0.03286,-0.24809 0.08055,-0.49466 0.09858,-0.74426 0.08288,-1.1472 -0.03408,-2.2914 -0.130939,-3.43304 -0.211889,-2.94199 -0.575054,-5.8674 -0.847979,-8.80368 -0.230704,-2.66098 0.0082,-5.32155 0.0727,-7.98309 -0.124563,-2.00775 0.160079,-4.00473 0.185915,-6.00784 -0.124158,-2.13158 -0.02344,-4.25302 0.285753,-6.36294 0.385871,-1.92885 0.688141,-3.86635 0.90212,-5.82182 0.392822,-1.99842 0.658374,-4.01295 0.907085,-6.03319 0.101462,-1.10855 0.339743,-2.20817 0.380053,-3.32289 0.02151,-0.59472 -0.0011,-1.19024 0.0053,-1.78531 0.08075,-1.87068 -0.04647,-3.73125 -0.21567,-5.5927 -0.208852,-1.95043 -0.328038,-3.90668 -0.373565,-5.86737 -0.03145,-1.93161 -0.158327,-3.8597 -0.218999,-5.79037 5.3e-4,-2.00865 -0.105992,-4.01379 -0.119099,-6.02225 -0.02995,-0.91402 -0.05064,-1.82828 -0.06107,-2.74273 -0.0069,-0.59964 0.02755,-1.37226 -0.151426,-1.95002 -0.142304,-0.45937 -0.393036,-0.87784 -0.589553,-1.31676 0,0 -8.659063,-4.43503 -8.659063,-4.43503 v 0 c -0.210643,0.23111 -0.489437,0.41498 -0.631926,0.69333 -0.138644,0.27084 -0.146203,0.59239 -0.180978,0.89466 -0.141306,1.22831 0.08953,2.46018 0.112472,3.68612 0.0094,2.02055 0.12282,4.03079 0.183277,6.04946 -0.05448,1.95848 0.242975,3.89351 0.265562,5.85069 0.07372,1.98491 0.157893,3.97139 0.38421,5.94613 0.157186,1.81266 0.26004,3.63804 0.218016,5.45743 -0.04893,1.68276 -0.133101,3.36765 -0.260024,5.04633 -0.237771,2.01926 -0.477015,4.04131 -0.847132,6.04135 -0.330124,1.94625 -0.520436,3.9127 -0.862246,5.85799 -0.23224,2.14707 -0.457091,4.29798 -0.391104,6.46196 0.01294,2.03502 -0.08982,4.06924 -0.0095,6.10402 0.07414,2.74983 -0.03819,5.50536 0.240133,8.2478 0.256726,2.88909 0.354164,5.78437 0.634043,8.67184 0.05518,1.03031 0.09531,1.21825 0.03856,2.21822 -0.05919,1.04307 -0.296399,2.06336 -0.389578,3.10242 -0.08587,0.84847 -0.132426,1.69822 -0.178511,2.54945 -0.14477,3.90842 11.479148,8.94409 10.165352,5.48716 -0.0494,-0.13 -0.157684,-0.23036 -0.218345,-0.35549 -0.0358,-0.0738 -0.05452,-0.15481 -0.08178,-0.23222 -0.123721,-0.69565 0.08923,0.27316 -0.405765,-0.77988 -0.226935,-0.48278 -0.02278,-1.11255 -0.226155,-1.61017 -0.09119,-0.7814 -0.240519,-1.5552 -0.34172,-2.33545 0.0088,-0.88741 -0.01172,-1.77442 0.01855,-2.66165 -0.03464,-0.92336 0.0064,-1.84668 0.07079,-2.76779 0.07558,-1.03312 0.266536,-2.05549 0.217742,-3.09355 0.02474,-0.7657 0.0358,-1.53198 0.01315,-2.29793 0.0046,-0.7809 0.01474,-1.56157 0.02863,-2.34241 0.08396,-0.86772 0.270798,-1.73103 0.248473,-2.60287 0.0021,-0.76255 -0.01455,-1.52615 0.02495,-2.28786 0.05065,-0.75328 0.14137,-1.50196 0.277106,-2.24496 -0.03466,-1.07534 0.05982,-2.16433 -0.15108,-3.22294 -0.162242,-0.32242 -0.379947,-0.62247 -0.486727,-0.96725 -0.07015,-0.22649 -0.02641,-0.47353 -0.0329,-0.71055 -0.02601,-0.94896 0.136623,-1.87847 0.172956,-2.82538 0.07109,-0.99582 0.159972,-1.98905 0.381381,-2.96503 0.01804,-0.32872 0.02561,-0.55097 0.0633,-0.88101 0.01852,-0.16227 0.07285,-0.32206 0.06754,-0.48529 -0.0093,-0.28643 -0.201745,-0.97279 -0.218461,-1.25201 -0.0097,-0.16182 0.03198,-0.32263 0.04797,-0.48395 0.125666,-0.90236 0.13993,-1.80866 0.242662,-2.71374 0.04998,-0.63249 0.281009,-1.88618 0.06579,-2.46423 -0.102484,-0.27525 -0.285451,-0.51342 -0.428178,-0.77013 -0.124169,-0.25515 -0.299749,-0.49117 -0.372512,-0.76544 -0.106159,-0.40015 0.165396,-1.19828 -0.02471,-1.7063 -0.105397,-0.28163 -0.340495,-0.50109 -0.453977,-0.77955 -0.05512,-0.13526 -0.02766,-0.29082 -0.04149,-0.43622 z" />
  <path
     style="fill:#000000;stroke-width:0.264583"
     id="path6"
     d="m 174.07823,85.612077 c -0.82081,-0.762201 -1.64451,-1.555501 -2.6221,-2.119722 -11.57837,-6.682449 -7.62239,-5.064472 -13.15422,-7.218164 -3.26019,-1.255234 -6.72237,-1.768295 -10.1804,-2.097643 -3.88957,-0.318582 -7.79102,-0.30398 -11.68599,-0.123262 -2.50801,0.155163 -5.02819,0.191167 -7.52716,0.476316 -1.06639,0.121682 -2.9731,0.435737 -4.01197,0.600091 -3.1775,0.487437 -6.36129,0.966923 -9.48545,1.738199 -2.06107,0.508826 -2.75321,0.756907 -4.77519,1.385745 -3.04921,1.098248 -6.10892,2.219759 -9.05967,3.5678 -1.732356,0.791419 -2.338294,1.155123 -4.007773,2.057966 -2.548644,1.520912 -5.072732,3.119327 -7.348453,5.034505 -1.493448,1.25684 -1.703726,1.547265 -3.056652,2.948982 -2.350968,2.79812 -4.521805,5.773039 -6.187873,9.03607 -0.315519,0.61796 -0.587058,1.2574 -0.880587,1.8861 -1.612471,4.03584 -1.694256,8.35155 -1.639477,12.63068 0.01614,3.93471 1.195229,7.6907 2.47492,11.36895 1.286817,3.42415 2.899749,6.73426 4.793091,9.86269 1.090518,1.75868 2.527166,3.23995 4.001662,4.67418 1.031851,1.00368 2.083901,1.98972 3.211803,2.88651 0.590413,0.46943 1.21157,0.89883 1.817352,1.34826 5.240099,3.51597 10.852087,6.54835 16.361607,9.56494 0.72781,0.39849 1.50624,0.70031 2.2828,0.99263 1.76434,0.66417 3.15074,0.97354 4.96991,1.44661 0.80491,0.14817 1.6034,0.33691 2.41474,0.44451 2.74666,0.36426 5.91189,0.36763 8.65748,-0.0441 0.6343,-0.0951 1.25641,-0.25874 1.88462,-0.38811 4.4392,-1.03968 8.47665,-3.15457 12.45942,-5.30236 3.54413,-1.97928 7.12625,-3.89213 10.53954,-6.09596 1.871,-1.20803 4.15544,-2.82817 5.97419,-4.09787 3.12929,-2.49775 6.25094,-5.05488 8.94855,-8.02965 1.40268,-1.5468 3.83293,-4.6617 4.99734,-6.41918 0.71169,-1.07418 1.31804,-2.21455 1.97706,-3.32183 1.52789,-2.93466 2.72683,-6.0004 3.50826,-9.21493 0.34834,-1.43294 0.72664,-3.42262 0.81679,-4.92196 0.0431,-0.71736 -0.009,-1.43728 -0.0136,-2.15592 -0.36923,-3.67152 -1.03502,-7.32487 -2.13557,-10.848873 -0.74403,-2.104126 -1.83786,-4.05887 -3.18177,-5.834264 -0.97679,-1.023953 -2.00388,-2.094325 -3.21979,-2.842757 -0.5701,-0.350917 -1.17684,-0.638498 -1.76527,-0.957747 0,0 -10.70211,-4.148563 -10.70211,-4.148563 v 0 c 0.43185,0.581731 -0.0248,0.02766 1.01406,0.809238 0.7638,0.574651 1.43242,1.270175 2.17947,1.865281 1.60875,1.604534 2.81297,3.57419 3.83785,5.591876 0.20427,0.484868 0.42726,0.962266 0.6128,1.4546 1.12133,2.975401 1.65286,6.158981 2.15974,9.282749 0.0747,0.69981 0.18926,1.39652 0.22421,2.09945 0.17924,3.60528 -0.47757,7.60465 -1.66001,11.00069 -0.38511,1.10605 -0.88069,2.17048 -1.32104,3.25572 -1.65554,3.00075 -1.91889,3.74881 -4.04989,6.49548 -3.26265,4.20528 -7.28509,7.78968 -11.63959,10.82315 -1.03532,0.67915 -2.05948,1.37563 -3.10596,2.03745 -4.49729,2.84421 -9.21139,5.31543 -14.0175,7.59264 -4.05255,1.96373 -8.12571,4.01122 -12.61173,4.77322 -1.25602,0.20751 -2.35345,0.41742 -3.62311,0.51576 -2.8838,0.22337 -5.79501,-0.006 -8.60854,-0.67245 -2.16897,-0.61176 -2.73376,-0.69932 -4.83929,-1.59049 -0.77185,-0.32669 -2.98,-1.52656 -2.27045,-1.08045 2.65072,1.66658 5.40831,3.15684 8.10465,4.74856 0.66561,0.39293 -1.35164,-0.75099 -2.01235,-1.15211 -0.64926,-0.39419 -1.2775,-0.82202 -1.91625,-1.23302 -0.5971,-0.41769 -1.20723,-0.81735 -1.7913,-1.25306 -2.67312,-1.9941 -5.155,-4.46226 -7.178991,-7.10958 -0.325575,-0.51771 -0.66683,-1.02588 -0.976723,-1.55312 -0.776808,-1.32162 -0.995973,-1.84873 -1.658157,-3.23044 -0.506018,-1.05586 -1.035761,-2.1007 -1.516486,-3.16831 -0.247303,-0.54921 -0.469749,-1.10929 -0.704622,-1.66393 -1.365406,-3.574 -2.55928,-7.23383 -2.774418,-11.08492 -0.105894,-1.77207 -0.190198,-2.4191 -0.109183,-4.21116 0.121703,-2.6921 0.62226,-5.37431 1.511287,-7.91765 0.255534,-0.61311 0.482962,-1.23871 0.766603,-1.83934 1.518121,-3.21469 3.743153,-6.05563 6.056271,-8.728057 1.208235,-1.253157 1.591751,-1.71228 2.918339,-2.843088 2.20733,-1.881563 4.66059,-3.453463 7.17111,-4.89404 4.13611,-2.214804 8.29553,-4.120978 12.78289,-5.534353 0.77187,-0.235485 1.53829,-0.489606 2.31559,-0.706454 3.91467,-1.092089 7.94451,-1.720328 11.98009,-2.151509 3.85026,-0.429086 7.705,-0.778576 11.57844,-0.915377 3.84382,-0.163406 7.69884,-0.178302 11.52915,0.24193 3.44235,0.433099 6.86299,1.072433 10.06877,2.454606 4.66272,2.103749 1.3835,0.680495 -7.96856,-4.836303 -0.35668,-0.210405 0.73786,0.377907 1.09118,0.593897 0.0613,0.03748 1.4538,1.012391 1.58466,1.11215 0.18068,0.137742 0.34862,0.291443 0.52293,0.437165 z" />
</svg>
