<?xml version="1.0" encoding="UTF-8" standalone="no"?>
<!-- Created with Inkscape (http://www.inkscape.org/) -->

<svg
   width="1000"
   height="1000"
   viewBox="60 0 164 264.58333"
   version="1.1"
   id="svg1"
   xmlns="http://www.w3.org/2000/svg"
   xmlns:svg="http://www.w3.org/2000/svg">
  <defs
     id="defs1" />
  <path
     style="fill:#000000;stroke-width:0.264583"
     id="path1"
     d="m 125.47763,67.197284 c 0.10239,1.022443 0.0654,2.055098 0.0518,3.081496 -0.0447,0.615149 -0.054,1.229929 -0.12686,1.842786 -0.0119,0.258982 0.0247,0.493855 -0.0954,0.724466 -0.14309,0.279199 -0.22393,0.593077 -0.25329,0.904288 -0.0417,0.540702 0.0177,1.063609 0.12718,1.59213 0.0898,0.469749 0.15382,0.926936 0.0783,1.399244 -0.0848,0.633465 -0.2075,1.260467 -0.31501,1.89026 -0.12097,0.716298 -0.16239,1.441746 -0.18574,2.166694 -0.037,0.579974 -0.0182,1.161208 -0.0489,1.741665 0.032,0.20031 -0.0918,0.392469 -0.0711,0.587089 -0.004,0.335785 0.006,0.642556 0.0949,0.967446 0.18672,0.396835 0.23174,0.827238 0.24398,1.260369 0.0637,0.682128 -0.0261,1.359136 -0.0914,2.037721 -0.16285,1.166185 -0.26407,2.337895 -0.35839,3.511335 -0.10661,1.343142 -0.0661,2.689741 -0.0253,4.034322 0.0582,1.864852 0.0996,3.736446 -0.006,5.600495 -0.1516,1.868 -0.22324,3.73635 -0.2521,5.61004 -0.0874,1.95515 -0.12069,3.91032 -0.0389,5.86576 0.11403,2.07759 0.12871,4.15976 0.15431,6.24003 -0.005,2.73812 -0.28969,5.4598 -0.49192,8.18604 -0.12791,2.35392 -0.38412,4.69871 -0.49753,7.05304 -0.12831,1.46045 -0.091,2.91543 0.0146,4.37533 0.0717,1.31347 0.0932,2.62522 0.20882,3.93589 0.0976,1.1643 0.18202,2.33876 0.11973,3.50733 -0.0326,0.52471 -0.0201,1.0513 -0.1062,1.57064 -0.002,0.21941 -0.0703,0.50136 -0.0858,0.70266 -0.008,0.0238 -0.0157,0.0476 -0.0235,0.0713 0,0 12.01273,4.74559 12.01273,4.74559 v 0 c -0.0181,0.0164 -0.0362,0.0329 -0.0543,0.0493 -0.17319,0.11586 -0.42812,-0.0596 -0.5815,-0.13657 -0.0416,-0.0219 -0.10412,-0.0234 -0.12477,-0.0656 -0.1139,-0.23289 0.0264,-1.15205 -0.10285,-1.41479 -0.14021,-1.22135 -0.19707,-2.45203 -0.31693,-3.67558 -0.11125,-1.30987 -0.14704,-2.6217 -0.23228,-3.93318 -0.11626,-1.46998 -0.37338,-2.93047 -0.33049,-4.41027 -0.025,-2.41029 -0.10177,-4.82132 0.0502,-7.22989 0.13008,-2.8098 0.0913,-5.6253 0.17823,-8.43682 -0.028,-2.12076 -0.10426,-4.23462 -0.27202,-6.34989 -0.13241,-1.95517 -0.15925,-3.90996 -0.14681,-5.86978 0.0515,-1.86356 0.12396,-3.72615 0.24537,-5.58663 0.0619,-1.87174 -0.0345,-3.7472 0.0685,-5.618158 0.0464,-1.308026 0.0815,-2.614822 0.10807,-3.923601 0.0436,-1.150126 0.15885,-2.294298 0.42833,-3.416144 0.0863,-0.710796 0.30648,-1.4053 0.27492,-2.12434 -0.0265,-0.509579 0.003,-1.027083 -0.0906,-1.530125 -0.0401,-0.09901 -0.0454,-0.219755 -0.1183,-0.297834 -0.0228,-0.02442 -0.0823,0.0087 -0.0981,-0.02082 -0.0376,-0.07043 0.0489,-0.224637 0.0162,-0.30734 0.024,-0.218181 -0.10725,-0.438714 -0.0749,-0.661617 -0.0319,-0.586965 -0.0196,-1.17407 -0.0397,-1.761289 0.004,-0.682265 0.008,-1.366605 0.0938,-2.044597 0.0935,-0.618929 0.29323,-1.204817 0.38534,-1.822042 0.12916,-0.606436 0.20321,-1.165016 0.0348,-1.778199 -0.066,-0.440714 -0.21223,-0.854276 -0.14186,-1.303896 0.007,-0.215019 -0.0198,-0.427206 0.0813,-0.627758 0.11417,-0.37479 0.27026,-0.719698 0.19932,-1.119071 -0.0696,-0.656214 -0.0837,-1.313889 -0.12686,-1.972061 -0.0131,-1.008563 -0.0533,-2.0246 0.0518,-3.028688 z" />
  <circle
     id="path2"
     style="fill:#000000;stroke:#000000;stroke-width:0.264583"
     cx="128.87454"
     cy="145.14658"
     r="0.21674353" />
  <path
     style="fill:#000000;stroke-width:0.264583"
     id="path3"
     d="m 125.22602,163.04135 c -0.23697,0.0252 -0.50733,-0.0483 -0.71091,0.0756 -0.22807,0.13878 -0.36304,1.82983 -0.41147,2.1835 -0.0802,0.37322 -0.1457,0.7544 -0.14987,1.13702 -0.11954,0.91633 0.55366,0.49977 1.9328,1.32594 0.20008,0.11986 0.38191,0.26785 0.57287,0.40178 0,0 4.17659,2.12623 4.17659,2.12623 v 0 c 0.1907,0.0605 0.38763,0.10399 0.5721,0.18141 1.63008,0.68422 2.03522,1.58359 1.93197,0.6522 2.6e-4,-0.39601 -0.0464,-0.79204 -0.0723,-1.18692 -0.005,-0.504 0.16253,-1.97564 -0.0191,-2.3338 -0.1457,-0.28723 -0.4023,-0.50306 -0.60344,-0.7546 z" />
  <path
     style="fill:#000000;stroke-width:0.264583"
     id="path4"
     d="m 131.82612,85.170324 c -0.05,-0.163828 -0.11432,-0.323943 -0.14994,-0.49148 -0.008,-0.03555 -0.10197,-0.880033 -0.11151,-0.936963 -0.0642,-0.383083 -0.18363,-0.751388 -0.24746,-1.134819 0.005,-0.09096 0.001,-0.182838 0.0153,-0.272873 0.0802,-0.5197 0.0593,-0.625605 0.008,-1.148159 0.012,-0.14617 -0.087,-0.488622 0.0306,-0.615797 0.0554,-0.05991 0.17215,-0.03546 0.22423,-0.09829 0.0921,-0.111154 0.0633,-0.282413 0.11133,-0.418573 0.48633,-0.272823 0.52597,0.109132 0.79755,-0.453599 0.1323,-0.220509 0.0724,-0.506114 0.2001,-0.725059 0.18035,-0.309266 0.016,0.08018 0.12144,-0.188865 0.013,-0.360082 -0.10966,-0.719331 -0.18487,-1.070673 -0.13691,-0.454623 -0.111,-0.928963 -0.17023,-1.392542 0.0495,-0.206748 -0.20256,-0.462039 -0.18253,-0.656323 0.0217,-0.210338 0.45421,0.08123 0.87504,0.205626 0.1387,0.041 0.28472,0.051 0.42709,0.07649 0.31439,0.406892 0.0734,-0.368282 0.0236,-0.504301 -0.0955,-0.340739 -0.17894,-0.68484 -0.1583,-1.042271 0.0305,-0.223107 0.11671,-0.433617 0.15151,-0.65519 -0.18669,-0.31913 -0.27443,-0.273989 0.0747,-0.257252 0.064,0.0031 0.11248,-0.0414 0.17742,-0.04264 -0.3047,-0.229471 0.0574,-0.06153 0.18142,0.0084 0.0341,-0.129741 -0.0693,-0.221509 -0.004,-0.339277 0.005,-0.03369 0.0185,-0.06712 0.0155,-0.101069 -0.0189,-0.214053 -0.05,-0.04735 -0.0583,-0.243115 -0.007,-0.158101 0.14159,-0.244176 0.0637,-0.403296 -0.13417,-0.126728 -0.33343,-0.331071 -0.0854,-0.414086 0.09,-0.0034 0.25618,0.14569 0.35449,0.02857 0.31414,-0.142139 0.0709,0.143481 -0.12369,0.573937 0.0258,0.03659 0.2389,0.113342 0.13768,0.01257 0.10051,0.06455 0.16451,0.06204 0.11883,0.136339 0.9066,-1.795311 0.9249,-0.910891 -1.47758,-2.012693 -0.23448,-0.10754 -0.45958,-0.234463 -0.68938,-0.351695 0,0 -4.05738,-1.752068 -4.05738,-1.752068 v 0 c -1.73982,-0.210187 -3.16775,0.03861 -1.68604,-1.806752 -0.0567,0.07159 -0.0125,0.05618 0.0413,0.133083 -0.12029,-0.05828 -0.25075,-0.06258 -0.36308,0.02127 -0.64516,1.127591 -0.3286,0.314502 -0.20521,0.817592 0.045,0.117099 0.16555,0.184967 0.20016,0.306247 0.0131,0.04582 -0.0224,0.10296 0.004,0.142907 0.0466,0.07173 0.17143,0.07014 0.19752,0.163967 0.20844,0.236826 0.3368,0.452904 0.33802,0.783151 0.14604,0.191265 -0.0402,0.0061 0.23458,-0.02771 0.051,-0.0063 -0.0591,0.328382 -0.0284,0.390914 0.0489,0.138549 -0.0258,0.196133 -0.004,0.338907 0.065,0.06218 0.12203,0.133887 0.19495,0.186545 0.10782,0.07786 0.20597,-0.01005 -0.0124,-0.02318 0.0664,0.06249 0.10627,0.141092 0.17234,0.203584 0.17514,0.165656 0.32966,0.222425 0.0498,0.286427 0.006,0.239549 0.006,0.476454 -0.0381,0.713566 -0.0585,0.623697 0.0592,0.975336 0.41134,1.502214 0.0378,0.09098 0.045,0.199067 0.10731,0.275352 0.0225,0.0275 0.0802,0.01257 0.0971,0.04375 0.10833,0.198797 -0.19175,0.381193 0.18893,0.534739 0.51368,0.152016 1.20426,0.317788 1.48602,0.820573 0.0932,0.166407 0.0392,0.437867 0.13821,0.606814 0.11648,0.454663 0.023,0.909527 0.09,1.369571 0.0814,0.319878 0.23754,0.637069 0.24322,0.965697 0.0135,0.32298 0.0693,0.604144 -0.13015,0.901719 -0.32427,0.531193 0.15136,0.62643 0.29787,1.135467 -0.0173,0.155128 -0.10326,0.311719 -0.0668,0.463486 0.0296,0.123241 0.1274,0.219676 0.17943,0.335251 0.10461,0.232355 0.1394,0.492943 0.2023,0.737505 0.12489,0.528243 0.0975,1.072198 0.29771,1.583669 0.21694,0.564282 0.50558,1.476338 0.40746,2.081313 -0.0198,0.12187 -0.1,0.225788 -0.14994,0.338683 z" />
  <path
     style="fill:#000000;stroke-width:0.264583"
     id="path5"
     d="m 127.92617,68.604497 c -0.0837,0.773782 0.0735,1.534705 0.13727,2.301825 0.10469,0.629917 0.0233,1.266565 0.0592,1.895586 0.15878,0.661659 0.21394,1.340151 0.33142,2.009007 -0.14779,0.310746 0.49309,0.754415 0.44072,0.986806 -0.0179,0.07924 -0.13493,0.09087 -0.19793,0.142142 -0.11529,0.191339 0.15427,0.39423 -0.0259,0.526444 0.0168,0.196808 -0.29689,0.02365 -0.161,0.111583 -2.79072,-1.51362 -6.46421,-2.787184 6.87695,3.365672 0.0794,0.03662 -0.0122,-0.174501 -0.0138,-0.261911 -0.002,-0.08979 0.002,-0.179602 0.004,-0.269401 0.30471,-0.581377 0.30841,-1.224571 0.37292,-1.863238 0.036,-0.7175 0.0417,-1.431791 -0.0807,-2.141496 -0.13066,-0.569767 -0.28631,-1.131458 -0.35695,-1.712155 -0.0565,-0.20075 -0.0125,-0.375788 0.0498,-0.564005 -0.0112,-0.238683 0.0227,-0.441161 -0.0759,-0.669287 -0.0322,0.0091 -0.0483,-0.204224 -0.0772,-0.204052 -0.0332,1.98e-4 -0.0713,0.08152 -0.0852,0.05139 -0.0469,-0.101817 0.006,-0.228661 -0.0299,-0.334968 -0.0666,-0.136945 -0.18854,-0.0013 -0.24499,-0.189703 -0.0177,-0.0019 -0.0399,0.006 -0.053,-0.006 -0.0625,-0.05714 -0.0772,-0.329464 -0.19445,-0.429098 -0.28387,-0.241279 -0.58815,-0.45747 -0.88223,-0.686205 -0.45097,-0.238524 -0.90193,-0.477049 -1.3529,-0.715576 0,0 -3.91857,-1.663107 -3.91857,-1.663107 v 0 c -0.41536,-0.196133 -0.83073,-0.392266 -1.24609,-0.588399 -0.95393,-0.617929 -0.86183,-0.748321 -1.00867,0.0013 0.0496,0.164827 0.0799,0.501102 0.12703,0.61583 0.0104,0.02521 0.0514,0.01831 0.0771,0.02747 0.029,0.0044 0.0584,0.02008 0.0869,0.01328 0.0439,-0.0105 0.0964,-0.10123 0.11993,-0.06274 0.0999,0.163399 -0.1506,0.168931 0.11843,0.355687 0.19974,0.245245 0.23849,-0.0786 0.21509,0.227751 0.0615,0.278577 0.17398,0.5432 0.18398,0.83294 0.13837,0.58025 0.26697,1.160293 0.42906,1.734817 0.11328,0.665414 0.37198,1.297374 0.23382,1.987937 -0.0106,0.645911 -0.13856,1.279715 -0.12699,1.926783 -0.0439,0.210288 -0.13227,0.578048 -0.0879,0.603297 13.12119,7.458075 9.7087,5.173184 6.87794,3.66245 0.13804,0.04343 -0.17505,-0.125838 -0.15597,-0.291983 -0.12755,-0.233477 0.0642,-0.403255 -0.0694,-0.654307 -0.0837,-0.147876 -0.20983,-0.271418 -0.27887,-0.426667 -0.024,-0.0541 -0.0374,-0.121867 -0.0156,-0.176948 0.0236,-0.05988 0.11635,-0.07414 0.13851,-0.134573 0.0366,-0.09991 -0.0826,-0.423841 -0.0997,-0.480692 -0.0628,-0.207759 -0.149,-0.409054 -0.19595,-0.620961 -0.097,-0.437597 -0.0457,-0.896964 -0.16165,-1.330968 -0.14401,-0.644819 -0.12202,-1.298668 -0.19672,-1.953334 -0.11619,-0.773756 -0.27176,-1.547434 -0.33441,-2.323682 z" />
</svg>
