<?xml version="1.0" encoding="UTF-8" standalone="no"?>
<!-- Created with Inkscape (http://www.inkscape.org/) -->

<svg
   width="1000"
   height="1000"
   viewBox="0 0 264.58333 264.58333"
   version="1.1"
   id="svg1"
   xmlns="http://www.w3.org/2000/svg"
   xmlns:svg="http://www.w3.org/2000/svg">
  <defs
     id="defs1" />
  <path
     id="path1"
     style="fill:#000000;stroke-width:26.4583"
     d="m 122.68516,65.848715 c 1.54086,-0.0065 3.0914,0.02573 4.64003,0.01912 l 0.0977,-0.0155 c 2.06517,-0.0094 -1.33733,-0.0074 -4.7377,-0.0036 z m 0,0 c -0.95988,0.0011 -1.87719,0.0023 -2.60451,0.0031 0.0595,1.93e-4 0.11927,6.51e-4 0.1788,0.001 0.44036,-0.0016 0.8805,-0.0014 1.32086,-0.0015 0.3678,-10e-7 0.73624,-0.001 1.10485,-0.0026 z m 4.7377,0.0036 c -0.0937,4.25e-4 0.33401,-4.79e-4 0.21497,0 -0.0711,-1.5e-4 -0.14183,-2.51e-4 -0.2129,-5.16e-4 z m -0.0977,0.0155 -9.68575,1.533757 c 0.073,-1.5e-4 0.14613,-2.52e-4 0.21911,-5.17e-4 2.18139,0.0093 4.36289,0.0088 6.54434,0.0062 0.19281,0.01608 0.38513,0.04395 0.57722,0.09198 0.0319,0.01069 0.46927,0.156025 0.50075,0.173633 0.0802,0.04486 0.13145,0.135092 0.21601,0.171049 0.16064,0.0683 0.38557,-0.100921 0.54312,0.01292 0.28661,0.05512 0.56361,0.08658 0.7953,0.289905 0.0764,0.06704 0.11484,0.173485 0.19792,0.232027 0.0622,0.04379 0.14598,0.04171 0.2191,0.06253 0.2779,0.07568 0.41347,0.247278 0.66508,0.359668 0.13262,0.05924 0.29203,0.02022 0.43098,0.06253 0.0827,0.02516 0.15707,0.07159 0.23565,0.107487 0.54193,0.254911 1.12587,0.488117 1.58905,0.865064 0.22184,0.03285 0.47551,0.09658 0.66455,0.227893 0.0771,0.05353 0.11836,0.154522 0.20309,0.19482 0.1091,0.05189 0.26256,-0.08891 0.35864,0.05168 0.0919,0.02645 0.15266,0.06734 0.20154,0.114722 l -2.07688,0.230477 c 0.73006,0.321538 1.42131,0.72122 2.12442,1.096574 0.46911,0.260884 0.97014,0.334743 1.42523,0.631486 0.32337,0.199368 0.64396,0.4112 0.95602,0.634069 0.11822,0.188714 0.23718,0.376934 0.36535,0.559139 l 0.34158,-0.02687 c 0.36177,0.269614 0.7478,0.508387 1.1405,0.738456 0.26222,0.39324 0.70332,0.630936 0.98547,0.979268 0.29556,0.288724 0.6286,0.551381 0.88987,0.877466 0.30606,0.319723 0.61549,0.648744 0.88263,1.00459 0.10323,0.116795 0.23699,0.450301 0.41755,0.500228 0.10435,0.02885 0.0864,-0.09113 0.20205,0.02377 0.0367,0.08565 0.0559,0.181026 0.11007,0.256832 0.0222,0.03111 0.0742,0.02284 0.10542,0.04496 0.20127,0.142576 0.25734,0.344531 0.34675,0.567924 0.20494,0.248608 0.35923,0.508318 0.50746,0.798918 0.22671,0.381166 0.48488,0.740874 0.71986,1.119311 0.19052,0.310295 0.26346,0.670994 0.45837,0.986504 0.17057,0.360659 0.22391,0.76683 0.23926,1.162202 0.0453,0.402675 0.30312,0.712308 0.41961,1.09244 0.0523,0.422619 0.0863,0.842616 0.30334,1.219047 0.17106,0.31926 0.22005,0.670573 0.30386,1.018026 0.2183,0.444987 0.33481,0.90766 0.40204,1.395264 0.0117,0.541975 0.26401,1.02906 0.40153,1.545125 0.0644,0.600152 0.17125,1.176128 0.34623,1.754415 0.26406,0.645409 0.23935,1.297452 0.16588,1.97714 -0.132,1.108687 -0.23593,2.21838 -0.30282,3.33313 -0.0322,1.060244 -0.0259,2.120439 -0.03,3.181201 -0.0269,0.978955 -0.0159,1.957335 0.0103,2.936265 0.0316,1.49973 0.0529,2.99884 0.0651,4.49898 -0.005,1.22408 -0.0626,2.44674 -0.0951,3.67008 0.0191,0.78942 -0.0196,1.57835 -0.015,2.36782 -0.0237,0.55456 -0.0231,1.10958 -0.0165,1.66451 0.0523,0.67366 0.003,1.3486 -5.2e-4,2.02263 -0.0136,0.52715 0.007,1.05449 -0.004,1.58182 -0.003,0.50199 0.005,1.00394 -0.005,1.50586 0.006,0.4315 -0.0148,0.86197 -0.003,1.29347 0.003,0.45479 -0.003,0.91001 0.006,1.36478 -0.0491,0.54688 0.0424,1.06172 0.21342,1.57924 0.16315,0.34963 0.22313,0.72831 0.24546,1.11002 0.0395,0.43478 0.0103,0.87105 0.0171,1.30639 -0.004,0.38867 -0.002,0.77719 -0.008,1.16582 0.009,0.39124 -0.006,0.78178 0.006,1.17307 0.049,0.47996 0.30096,0.88398 0.39429,1.35289 0.0945,0.44626 0.10155,0.90632 0.0884,1.36065 0.0145,0.40736 -0.0113,0.81499 -0.003,1.22216 -0.002,0.38172 8.3e-4,0.76346 -0.005,1.14515 -0.005,0.37567 -0.002,0.75185 0.009,1.12758 0.0111,0.46315 0.0104,0.92811 -0.0103,1.39113 0.0778,0.30624 -0.10986,0.16528 -0.21653,0.35657 -0.0669,0.11989 -0.0872,0.26034 -0.13332,0.38964 -0.12596,0.3877 -0.12361,0.81371 -0.12093,1.21905 -0.0217,0.40562 -0.003,0.81121 -0.007,1.21698 0.0624,0.44731 -0.12018,0.50896 -0.28991,0.88935 -0.13471,0.47343 -0.15202,0.96227 -0.1788,1.45004 0.0329,0.38193 -0.16212,0.58199 -0.3023,0.92708 -0.0564,0.51724 -0.15299,0.97522 -0.39119,1.43815 -0.0257,0.0863 -0.0349,0.17927 -0.077,0.2589 -0.0243,0.0461 -0.0857,0.0625 -0.11524,0.10542 -0.20811,0.30171 -0.29663,0.66613 -0.45269,0.9927 -0.29253,0.25244 -0.31982,0.83755 -0.50849,1.11208 -0.0174,0.0254 -0.061,0.007 -0.0915,0.0109 -0.0753,0.41411 -0.33379,0.28987 -0.46974,0.42633 -0.15556,0.15617 -0.17137,0.20651 -0.15916,0.22169 2.6e-4,2.8e-4 0.001,0.001 0.002,0.002 0.008,0.006 0.0242,0.003 0.0279,0.004 v 5.2e-4 5.2e-4 h -5.1e-4 c -0.006,0.004 -0.0428,0.0193 -0.15555,0.0765 -0.49762,0.002 -0.82528,0.2931 -1.21491,0.55448 -0.2124,0.55107 -0.5854,0.47929 -1.07539,0.51884 -0.0848,-7.9e-4 -0.17368,-0.0284 -0.25425,-0.002 -0.0152,0.005 -0.11096,0.0693 -0.21394,0.13901 -1.41258,0.0639 -2.81627,0.21616 -4.19044,0.45371 -0.41622,0.12171 -0.80235,0.34077 -1.22576,0.42892 -0.40481,-0.10479 -0.8223,0.0726 -1.15187,0.31161 -0.29799,0.24685 -0.50759,0.59547 -0.88315,0.74517 -0.19991,0.0694 -0.095,0.0553 -0.31368,0.0362 -0.14199,0.0478 -0.2373,0.15532 -0.32866,0.26561 0.28636,6.4e-4 0.59334,0.001 0.92139,0.002 -5e-4,3.7e-4 -0.001,6.6e-4 -0.002,0.001 -0.31328,0.035 -0.62998,0.0457 -0.94619,0.0295 -0.0219,0.0265 -0.0441,0.0526 -0.0667,0.078 -0.70176,0.0167 -1.40317,0.0348 -2.10374,0.0537 -0.20577,0.006 -0.51441,0.22922 -0.73536,0.27441 -0.30743,0.15559 -0.67697,-0.003 -0.98599,0.10025 -1.24197,0.0517 -2.46323,0.1092 -3.63854,0.14004 -0.19281,0.005 -0.40875,0.0862 -0.61909,0.14263 -0.33792,-0.0906 -0.67247,-0.19299 -1.01803,-0.25528 -0.28865,-0.0207 -0.64039,-0.20463 -0.80202,0.0765 l -2.9032,0.32608 c -0.93394,-4e-5 -1.86796,0 -2.80191,0 -0.5478,-2e-5 -0.13045,9.6e-4 -0.65216,-10e-4 -0.1174,8e-4 -0.46932,0.002 -0.35192,0.002 1.29861,0.003 2.47482,0.0144 3.52952,0.03 l -6.70092,0.75344 c 0.26647,0.46865 0.39209,0.21701 0.88367,0.26045 0.53401,0.0163 1.05487,0.0599 1.56064,0.25322 0.12046,0.0355 0.23619,0.10353 0.36174,0.10645 3.3617,0.0781 6.72446,0.092 10.08678,0.13643 0.033,4.1e-4 0.0631,7.6e-4 0.0909,10e-4 -2.82404,-1.5e-4 -5.64785,-5.2e-4 -8.47188,-5.2e-4 0.46847,0.002 0.93661,0.006 1.40508,0.006 0.41321,-0.002 0.82652,-0.002 1.23973,-0.002 3.51123,-0.0108 7.02345,0.0523 10.53428,-0.001 3.3186,0.29922 7.48418,1.97516 9.95339,-0.0212 0.44887,-0.0145 0.89753,-0.0297 1.34617,-0.0455 0.83395,-0.0895 1.63935,-0.28425 2.43551,-0.5519 0.36836,-0.10636 0.74277,-0.22618 1.1188,-0.30644 0.07,0.13423 0.1347,0.27071 0.19947,0.40411 0.11695,0.41371 0.31838,0.79793 0.53588,1.16737 0.0866,0.38329 0.20635,0.74235 0.36794,1.10071 0.14978,0.41232 0.2092,0.84815 0.23151,1.28416 -0.0241,0.49757 0.25364,0.91234 0.37465,1.37356 0.11337,0.47235 0.11707,0.96146 0.13901,1.44435 -0.0263,0.62275 0.0171,1.20534 0.20568,1.80093 0.19082,0.48042 0.25281,0.99496 0.40049,1.49086 0.20083,0.52384 0.2806,1.07204 0.32969,1.62678 0.0483,0.61704 0.0176,1.23491 0.047,1.8526 -0.0286,1.05273 0.20453,2.08435 0.3328,3.1259 0.0894,1.05279 0.37377,2.07355 0.50332,3.12126 0.0578,0.88843 0.16619,1.75361 0.37776,2.61948 0.21212,1.26801 0.25,2.55949 0.28319,3.84266 0.0415,1.32573 0.008,2.6522 -0.0109,3.97805 0.0895,1.07612 0.29488,2.13684 0.38964,3.21272 0.073,1.0774 0.0833,2.1567 0.0755,3.23598 0.0322,1.03543 0.004,2.07109 -0.0145,3.10627 -0.0509,0.70697 -0.006,1.41395 -0.0176,2.12132 -0.13076,0.76771 -0.25478,1.54255 -0.43666,2.30115 -0.21711,0.89256 -0.38458,1.79817 -0.46354,2.71353 0.0419,0.68736 -0.23592,1.29918 -0.35967,1.96215 -0.15283,0.55621 -0.16327,1.13046 -0.20825,1.70119 -0.0152,0.48524 0.0285,0.97618 -0.0424,1.45728 -0.17691,0.59391 -0.32151,1.18818 -0.37259,1.80661 -0.10016,0.55671 -0.25751,1.12621 -0.44855,1.66294 -0.26614,0.59377 -0.44107,1.22393 -0.51986,1.86914 0.003,0.66596 -0.0781,1.28196 -0.26355,1.92236 -0.19451,0.74894 -0.57769,1.43508 -0.86403,2.15801 -0.245,0.73915 -0.6232,1.41682 -0.95963,2.11512 -0.19945,0.49546 -0.43565,0.93573 -0.82683,1.30483 -1.01181,0.85064 -2.18887,1.47524 -3.3755,2.04328 -1.17031,0.64047 -2.46227,1.0529 -3.62769,1.68982 -0.8728,0.33926 -1.6699,0.80969 -2.51354,1.20975 -0.96806,0.28232 -1.94969,0.50282 -2.95537,0.63458 -0.74133,0.14284 -1.80353,0.25238 -2.52388,0.59945 0.44587,0.0667 0.87823,0.21825 1.29191,0.48266 -0.30415,-8.4e-4 -0.60906,0.002 -0.90124,0.009 -0.37795,-0.0465 -0.75524,-0.10024 -1.13223,-0.154 -0.55409,0.15393 -1.14045,0.10917 -1.72857,0.12868 -0.18779,0.005 -0.37547,0.009 -0.56328,0.0129 0.33702,-0.11979 0.67158,-0.22698 1.00304,-0.31264 -0.20376,-0.0232 -0.4078,-0.0443 -0.61236,-0.061 -0.54566,-0.092 -1.05446,-0.30941 -1.58131,-0.46767 -0.50027,-0.12082 -1.01776,-0.11715 -1.52911,-0.12558 -1.46747,-0.0683 -2.93432,-0.0853 -4.40131,-0.0791 -0.14063,-0.0351 -0.29275,-0.0745 -0.3514,-0.0894 -0.61426,-0.17531 -1.25316,-0.23634 -1.88775,-0.28577 -0.54304,-0.008 -0.7102,0.0836 -1.21802,-0.13695 -0.26463,-0.10171 -0.58124,-0.30351 -0.87799,-0.28783 -0.24973,0.0132 -0.15264,0.0684 -0.14211,0.0739 -0.007,-0.003 -0.0555,-0.0256 -0.22376,-0.0832 -0.32474,-0.13986 -0.61763,-0.3204 -0.95395,-0.43408 -0.41311,-0.20656 -0.85971,-0.0498 -1.28158,-0.061 -0.25776,-0.19351 -0.59975,-0.2316 -0.88057,-0.36018 -0.25216,-0.18688 -0.42927,-0.32063 -0.72606,-0.40463 -0.12362,-0.18414 -0.0532,-0.0666 -0.18966,-0.36328 l -9.899695,0.64027 c 0.180607,0.0673 0.0934,0.004 0.185518,0.26613 0.06132,0.17671 0.19891,0.56034 0.376205,0.67438 0.03682,0.0237 0.08228,-0.0497 0.125057,-0.0403 0.107225,0.0233 0.144756,0.19224 0.256315,0.20619 0.113101,0.0965 0.195542,0.22791 0.316259,0.31471 0.172246,0.12385 0.47594,-0.0286 0.590141,0.21911 0.47056,0.35982 0.68563,0.41109 1.2728,0.27698 0.3444,0.0208 0.67234,0.0101 0.96997,0.20929 0.15001,0.0807 0.25176,0.23701 0.40412,0.31316 0.22219,0.11106 0.59842,-0.0756 0.83509,0.0289 0.48957,0.16725 0.74833,0.54644 1.28882,0.45992 0.62694,-0.003 1.2529,0.0305 1.87741,0.0842 0.23529,0.0557 0.76617,0.26535 0.97256,0.27027 3.68401,0.0877 7.35305,0.14707 11.03091,0.12713 1.29596,-0.004 2.87309,0.0108 3.70884,0.0269 0.4105,-0.16468 0.82182,-0.33174 1.23042,-0.48473 2.16544,0.0544 3.76912,0.0828 4.92477,0.093 0.40281,0.31683 0.78668,0.75114 1.1467,1.33067 1.46889,-0.0118 2.93846,-0.0101 4.40593,-0.0848 0.87981,-0.0686 1.66576,-0.24411 2.44946,-0.65422 0.86872,-0.14011 1.70667,-0.44992 2.59158,-0.51005 1.04174,-0.20508 2.11261,-0.42026 3.05821,-0.91881 0.81555,-0.43175 1.6649,-0.78334 2.48202,-1.21181 1.19026,-0.53363 2.33821,-1.15463 3.5202,-1.70636 1.25967,-0.66772 2.51732,-1.36618 3.53208,-2.38796 0.40874,-0.49637 0.72148,-0.97362 0.90434,-1.59784 0.32009,-0.7243 0.66364,-1.43541 0.93224,-2.1823 0.28392,-0.76657 0.7504,-1.46048 0.89917,-2.27376 0.14679,-0.67138 0.26182,-1.34108 0.29042,-2.02933 0.0935,-0.57952 0.25629,-1.13652 0.47801,-1.68104 0.20322,-0.61176 0.43493,-1.23502 0.47749,-1.88205 0.0815,-0.58866 0.22448,-1.16285 0.36225,-1.74046 0.10243,-0.52964 0.0714,-1.0519 0.0884,-1.59009 -7.9e-4,-0.51472 0.0579,-1.02506 0.15451,-1.53065 0.17234,-0.69091 0.37295,-1.36212 0.33331,-2.08566 0.0781,-0.86583 0.19443,-1.72771 0.4532,-2.56109 0.21198,-0.83273 0.31838,-1.69347 0.46613,-2.53989 -0.0106,-0.70705 0.0343,-1.41357 -0.0145,-2.12029 -0.0162,-1.03746 -0.0399,-2.07477 -0.0134,-3.11247 -0.0205,-1.1033 -0.0243,-2.20748 -0.1018,-3.30884 -0.0761,-1.05357 -0.22563,-2.09111 -0.39274,-3.13366 -0.0172,-1.33295 -0.0474,-2.66613 -0.0444,-3.99924 -0.0208,-1.32997 -0.0693,-2.65634 -0.21239,-3.98012 -0.0808,-0.87379 -0.33773,-1.72441 -0.339,-2.61328 -0.19169,-1.02941 -0.43496,-2.05131 -0.56276,-3.08973 -0.12411,-0.99745 -0.30614,-1.99683 -0.24029,-3.00602 0.0304,-0.64175 0.007,-1.28595 -0.0171,-1.92701 -0.0409,-0.63592 -0.12235,-1.26676 -0.33331,-1.87121 -0.19394,-0.50892 -0.21201,-1.04045 -0.36432,-1.56166 -0.25467,-0.45562 -0.27857,-0.90789 -0.23513,-1.42885 0.004,-0.55906 -0.0229,-1.11675 -0.11885,-1.66863 -0.0598,-0.25065 -0.0878,-0.53385 -0.20516,-0.76636 -0.0365,-0.0723 -0.13083,-0.11386 -0.14676,-0.19327 -0.0159,-0.0792 -0.003,-0.16163 -0.004,-0.24237 -0.0458,-0.51835 -0.1124,-1.03796 -0.26304,-1.53789 -0.10702,-0.40811 -0.28572,-0.69631 -0.33848,-1.12344 -0.11612,-0.43832 -0.41598,-0.76669 -0.56482,-1.17202 -0.16153,-0.53826 -0.46333,-0.9959 -0.69711,-1.49655 -0.32606,-0.54271 -0.58211,-0.51581 -0.99323,-0.86507 -0.0602,-0.075 -0.0992,-0.17446 -0.18086,-0.22531 -0.17199,-0.10712 -0.96128,0.12535 -1.15704,-0.01 -0.41321,-0.0418 -0.8233,-0.10128 -1.23145,-0.17209 0.40454,-0.21012 0.53272,-0.5095 0.89039,-0.75396 0.0334,-0.0229 0.0806,-0.008 0.12092,-0.0119 0.41574,-0.23646 0.90504,-0.30878 1.22318,-0.70539 0.27992,-0.32715 0.60994,-0.59233 0.7922,-1.01234 0.15215,-0.43404 0.34299,-0.84551 0.55035,-1.25728 0.22097,-0.47005 0.50139,-0.90687 0.67955,-1.39578 0.16837,-0.47772 0.26003,-0.96861 0.40979,-1.44746 0.17279,-0.4101 0.35174,-0.81094 0.29508,-1.27279 0.0107,-0.35959 0.026,-0.74109 0.1912,-1.06764 0.19909,-0.42412 0.33786,-0.83508 0.28525,-1.31723 -0.006,-0.39656 0.007,-0.79301 -5.1e-4,-1.18959 0.0175,-0.29067 0.0115,-0.58816 0.14211,-0.85525 0.17989,-0.35906 0.39665,-0.69833 0.34726,-1.13481 -0.0207,-0.46301 -0.0213,-0.92798 -0.0103,-1.39113 0.0109,-0.37559 0.0146,-0.75206 0.0103,-1.12758 -0.005,-0.38096 -0.001,-0.76159 -0.002,-1.14257 0.0102,-0.41251 -0.0113,-0.82546 -0.002,-1.23818 -0.0285,-0.52159 -0.0228,-1.046 -0.0899,-1.56477 -0.0939,-0.3845 -0.11643,-0.83563 -0.39377,-1.13482 0.0119,-0.39083 -0.003,-0.78126 0.007,-1.17203 -0.005,-0.38864 -0.001,-0.77716 -0.003,-1.16582 0.008,-0.45896 -0.0185,-0.91815 -0.0212,-1.37719 -0.0391,-0.48608 -0.0758,-0.97237 -0.24959,-1.43351 -0.21185,-0.39098 -0.26277,-0.73819 -0.2217,-1.1865 0.009,-0.45477 0.003,-0.90948 0.006,-1.36426 0.0112,-0.43151 -0.009,-0.8625 -0.003,-1.29399 -0.0102,-0.50192 -0.002,-1.00387 -0.005,-1.50586 -0.0113,-0.52733 0.01,-1.05468 -0.004,-1.58183 -0.003,-0.67402 -0.0528,-1.34897 -5.1e-4,-2.02262 0.007,-0.55493 0.007,-1.10996 -0.0165,-1.66451 0.005,-0.78947 -0.0341,-1.57841 -0.015,-2.36783 -0.0326,-1.22335 -0.0899,-2.44598 -0.0951,-3.67008 0.0121,-1.5003 0.0333,-2.99957 0.0636,-4.49949 0.025,-0.9785 0.0329,-1.95627 0.006,-2.934715 -0.002,-1.045486 0.002,-2.091749 0.045,-3.136242 0.0374,-1.090264 0.11567,-2.18007 0.28887,-3.258199 0.10993,-0.790927 0.23965,-1.655019 -0.0584,-2.421041 -0.20496,-0.541631 -0.32895,-1.062032 -0.34727,-1.646928 -0.0937,-0.501763 -0.29896,-0.962048 -0.40514,-1.441256 -0.0523,-0.561213 -0.13328,-1.121473 -0.37207,-1.637109 -0.23634,-0.249695 -0.0301,-0.815109 -0.30386,-1.091406 -0.0206,-0.05465 -0.22662,-0.335395 -0.22996,-0.347783 -0.0543,-0.201467 0.006,-0.447326 -0.0749,-0.647505 -0.0321,-0.216551 -0.14692,-1.03181 -0.39894,-0.96945 -0.0596,-0.506957 -0.12763,-1.008158 -0.26717,-1.501201 -0.13549,-0.388413 -0.40655,-0.704047 -0.45423,-1.135331 -0.26075,-0.390456 -0.55912,-0.703494 -0.70849,-1.143599 -0.25293,-0.20252 -0.22531,-0.645756 -0.51676,-0.798918 -0.22219,-0.06992 -0.29251,-1.065229 -0.52555,-0.784448 -0.16462,-0.395636 -0.17004,-0.670572 -0.66094,-0.650606 -0.30533,-0.413756 -0.63886,-0.733614 -0.91157,-1.16272 -0.11897,-0.07886 -0.15394,-0.0981 -0.15917,-0.103353 v -5.17e-4 -5.16e-4 -5.17e-4 h 5.2e-4 5.2e-4 c 0.003,-6.2e-4 0.01,-0.0014 0.0134,-0.0057 1.9e-4,-2.37e-4 8.7e-4,-0.0013 0.001,-0.0015 0.008,-0.01515 -0.007,-0.06604 -0.15503,-0.244946 -0.0773,-0.09313 -0.22814,-0.103385 -0.30438,-0.197404 -0.0594,-0.07321 -0.0717,-0.1777 -0.13074,-0.251148 -0.0361,-0.04495 -0.0971,-0.06156 -0.14573,-0.0925 -0.10732,-0.06421 -0.13924,-0.08067 -0.14314,-0.08475 v -5.17e-4 h 5.2e-4 l 5.1e-4,-5.16e-4 c 0.003,-5.71e-4 0.0139,8e-5 0.0196,-0.0062 0.0116,-0.01487 -4.5e-4,-0.06615 -0.15451,-0.243913 -0.20634,-0.23808 -0.65423,-0.246767 -0.74931,-0.613916 -0.35228,-0.482285 -0.47546,-0.395848 -0.87023,-0.705384 -0.39226,-0.307578 -0.006,-0.161224 -0.41651,-0.274918 -0.32935,-0.246072 -0.66993,-0.479113 -0.99736,-0.725537 -0.1422,-0.22061 -0.27816,-0.445677 -0.42323,-0.661975 -0.29704,-0.316847 -0.42354,-0.729169 -0.75241,-1.015959 -0.29498,-0.331237 -0.69141,-0.479012 -0.99684,-0.785482 -0.39051,-0.298309 -0.83549,-0.461478 -1.27072,-0.7059 -0.54816,-0.187555 -1.07636,-0.489246 -1.59783,-0.75706 -0.40453,-0.295233 -0.88868,-0.34979 -1.31569,-0.589111 -0.45687,-0.09695 -0.79154,-0.421842 -1.20302,-0.638721 -0.41471,-0.228623 -0.84206,-0.218011 -1.28313,-0.371036 -0.50199,-0.202946 -1.02453,-0.330602 -1.56218,-0.383439 -1.96401,-0.07238 -3.9325,-0.03218 -5.90248,-0.02377 z m -4.89632,158.375045 c -0.0271,0.0109 -0.054,0.0217 -0.0811,0.0326 0.96374,-0.005 0.7861,-0.019 0.0811,-0.0326 z m -0.0811,0.0326 c -1.12024,0.005 -3.78234,-0.002 -8.95041,-0.0393 0.4215,0.063 0.82257,0.21412 1.23249,0.35553 0.97188,0.34511 2.05717,0.19178 3.05513,0.47026 1.4372,0.45542 3.04566,-0.13918 4.66279,-0.78652 z m -8.95041,-0.0393 c -0.13652,-0.0204 -0.27516,-0.0314 -0.41703,-0.03 -0.49829,0.002 -0.99706,0.0105 -1.49552,0.0155 0.67259,0.005 1.30969,0.0101 1.91255,0.0145 z m 11.57816,-0.90485 c 0.43056,0.0491 0.8597,0.10986 1.28881,0.17104 0.18141,-0.0504 0.35946,-0.12216 0.53279,-0.22427 0.0656,-0.0406 0.13536,-0.0783 0.20877,-0.11369 -0.65183,-0.0976 -1.33331,-0.0132 -2.03037,0.16692 z m 5.34645,-72.78264 c 0.009,-0.0108 0.0174,-0.0218 0.0263,-0.0326 -0.92843,-0.002 -1.64278,-0.004 -2.17764,-0.006 0.60904,0.006 1.34739,0.0164 2.04277,0.032 0.0361,0.003 0.0724,0.005 0.10852,0.007 z m -6.84816,-83.15946 c 0.25286,-0.0021 0.50348,-0.0056 0.75292,0.0067 -2.79211,3.14e-4 -4.05788,8.07e-4 -4.39665,0.001 0.42509,-3.76e-4 2.16997,-0.0021 3.64373,-0.0078 z m 18.74045,83.88086 c 0.10507,0.0517 0.21066,0.10148 0.31575,0.1416 0.0497,0.0473 0.0961,0.0977 0.14004,0.15037 -0.54428,-0.002 -1.05604,-0.004 -1.53686,-0.006 0.003,-0.003 0.006,-0.006 0.009,-0.008 0.34686,-0.14903 0.72553,-0.0234 1.0573,-0.27181 0.005,-0.002 0.01,-0.004 0.0145,-0.006 z m -18.1746,1.75648 c 0.11436,-1.7e-4 0.45749,5.2e-4 0.34313,5.2e-4 -0.1547,-1e-5 -0.30934,1e-5 -0.46405,0 0.0358,-1.2e-4 0.0755,-4.8e-4 0.12092,-5.2e-4 z" />
  <path
     style="fill:#000000;stroke-width:0.264583"
     id="path2"
     d="m 106.65561,225.53636 c 1.32291,0.16469 2.57323,0.71715 3.81782,1.17385 1.33771,0.687 2.76659,1.21243 4.231,1.55525 1.74716,0.28135 3.52495,0.0863 5.28595,0.0883 1.59424,-0.13615 3.16957,0.0922 4.74921,0.26101 1.29252,0.095 2.59141,-0.0864 3.88652,-0.1345 1.51549,-0.18909 3.04228,-0.366 4.5301,-0.7197 0.23009,-0.0477 0.46204,-0.0871 0.69027,-0.14304 0.40587,-0.11573 0.82522,-0.24024 1.23622,-0.33921 0.50482,-0.12156 1.01248,-0.1951 1.51568,-0.32442 1.07893,-0.32621 2.15084,-0.67596 3.23889,-0.97287 1.10062,-0.383 2.18076,-0.81541 3.25219,-1.2746 1.27535,-0.66359 2.58228,-1.26164 3.89299,-1.85598 1.05732,-0.44233 2.06423,-1.0027 3.12096,-1.44306 0.79181,-0.34745 1.33841,-1.0098 1.94694,-1.59242 0.69472,-0.85421 1.22931,-1.82744 1.79426,-2.77035 0.55721,-0.89666 0.87835,-1.90446 1.27283,-2.87567 0.39789,-0.77431 0.70933,-1.59245 1.15808,-2.34 0.24248,-0.26102 0.38349,-0.56614 0.53709,-0.88063 0.0477,-0.14819 0.10529,-0.25784 0.0995,-0.41422 -0.0103,-0.23997 0.0315,-0.0568 -0.10193,-0.0135 -0.0393,0.0128 0.0239,-0.0791 0.0363,-0.11849 0.10323,-0.3282 0.0536,-0.12847 0.12447,-0.52915 0.24934,-1.05734 0.5464,-2.10221 0.7973,-3.15944 0.27074,-1.16626 0.25227,-2.35668 0.2034,-3.54432 -0.049,-1.1462 -0.27773,-2.27589 -0.53622,-3.3907 -0.26762,-0.79703 -0.43481,-1.61804 -0.54466,-2.44978 -0.0161,-0.6593 0.13074,-1.29549 0.30239,-1.92588 0.16301,-0.43581 0.1566,-0.92616 0.31161,-1.35982 0.10473,-0.18454 0.21092,-0.33711 0.29754,-0.53147 -0.0229,-0.0528 0.0919,-0.29445 0.22306,-0.53169 0.29888,-0.59279 0.3504,-1.26653 0.41358,-1.91759 0.0712,-0.66659 0.0214,-1.33548 0.0179,-2.00413 0.0365,-0.77195 -0.0438,-1.5374 0.029,-2.30829 0.13697,-1.05529 0.38479,-2.09171 0.57005,-3.13889 0.20305,-1.02964 0.27793,-2.07467 0.44727,-3.1096 0.11583,-0.95513 0.0353,-1.9171 -0.0272,-2.87281 -0.0191,-0.89606 -0.22266,-1.76841 -0.38493,-2.64471 -0.18397,-0.70626 -0.22364,-1.43617 -0.36795,-2.15057 -0.15703,-0.69785 -0.18883,-1.41394 -0.29088,-2.11961 -0.2274,-0.99962 -0.3126,-2.02165 -0.45525,-3.0347 -0.1033,-0.76523 -0.12052,-1.53742 -0.14561,-2.30797 -0.0723,-0.6936 -0.1889,-1.3664 -0.3695,-2.03774 -0.23266,-0.55819 -0.36628,-1.14644 -0.54804,-1.71968 -0.18391,-0.6033 -0.44544,-1.16972 -0.57761,-1.78929 -0.0434,-0.49117 -0.0857,-0.99214 -0.24196,-1.46334 0.0253,-0.31561 -0.16264,-0.54199 -0.25892,-0.81555 -0.0602,-0.17097 -0.0926,-0.35055 -0.14573,-0.52385 -0.18984,-0.3435 -0.21303,-0.73561 -0.34323,-1.09954 -0.26173,-0.14058 -0.1161,-0.24696 -0.15588,-0.50188 -0.0112,-0.0718 -0.1114,-0.0943 -0.15866,-0.14951 -0.15695,-0.14929 -0.0948,-0.42702 -0.33757,-0.42118 -0.20927,-0.0241 -0.007,-0.52397 -0.19802,-0.57339 -0.2298,-0.0595 -0.0559,0.31111 -0.18214,-0.12119 -0.0719,-0.0649 -0.12411,-0.27772 -0.22403,-0.31709 -0.34659,-0.13658 0.10737,0.12273 -0.19961,-0.0646 -0.14009,-0.11105 -0.28316,-0.21456 -0.41131,-0.33961 -0.0209,-0.0195 -0.0346,-0.0536 -0.0627,-0.0585 -1.39297,-0.24542 1.61446,1.05059 -2.11224,-0.95096 0,0 -8.37298,-3.55947 -8.37298,-3.55947 v 0 c -0.48738,-0.23202 -1.29031,-1.13481 -1.87562,-0.60677 -0.0198,0.0178 0.0363,0.0388 0.0545,0.0583 0.13428,0.1352 0.24357,0.28823 0.38413,0.41781 0.0964,0.11667 0.0582,0.0505 0.11106,0.20061 0.0595,0.078 0.27527,0.0637 0.34997,0.1235 0.25905,-0.0259 0.0142,-0.0428 0.12334,0.22104 0.037,0.0894 0.34613,-0.0328 0.36797,-0.0184 0.0457,0.0303 0.0225,0.1073 0.0337,0.16094 0.0129,0.42632 0.16362,0.15203 0.31174,0.50634 0.26223,0.4776 -0.0659,0.10837 0.26903,0.10518 0.0309,-2.6e-4 0.0841,0.47143 0.0892,0.48862 0.0814,0.0837 0.24622,0.19147 0.30553,0.28401 0.11681,0.18228 0.10006,0.45304 0.1911,0.64545 0.0656,0.12843 0.15844,0.24593 0.19804,0.38457 0.0789,0.27625 0.041,0.54617 0.28718,0.75526 0.07,0.49351 0.34104,0.93218 0.38924,1.42508 0.059,0.67099 0.13527,1.36389 0.47874,1.95777 0.0514,0.18174 0.13575,0.35318 0.18522,0.53545 0.11405,0.42025 0.15506,0.86134 0.35996,1.25792 0.27358,0.5736 0.40305,1.16893 0.5108,1.79631 0.20441,0.75847 0.0568,1.5818 0.22481,2.35301 0.0905,0.69298 0.28623,1.38 0.33684,2.07771 0.0131,0.18118 -0.009,0.36349 -0.001,0.54496 0.006,0.14052 0.0297,0.27973 0.0446,0.4196 0.0444,0.23305 0.11773,0.46142 0.14186,0.69743 0.0488,0.47672 -0.009,0.97029 0.11087,1.44242 0.13794,0.7388 0.34328,1.45872 0.38575,2.21501 0.22808,0.80842 0.4071,1.62525 0.54419,2.45415 0.0227,0.89117 0.11055,1.77712 0.1497,2.66718 -0.11909,1.03676 -0.27986,2.06516 -0.34951,3.10702 -0.18855,1.06367 -0.4498,2.11279 -0.67991,3.1679 -0.10989,0.8028 -0.22519,1.60352 -0.15017,2.41676 -0.003,0.63463 -0.0406,1.26758 -0.0318,1.90201 -0.012,0.44058 0.005,0.91369 -0.18354,1.32189 -0.17709,0.25936 -0.39096,0.59392 -0.47564,0.85076 0.22172,-0.34025 -0.16861,0.38563 -0.15098,0.46137 -0.0193,0.0547 -0.17759,0.50111 -0.1831,0.52665 -0.0679,0.31504 0.006,0.66768 -0.11287,0.97796 -0.17627,0.74246 -0.35837,1.4732 -0.38815,2.24158 -0.0946,0.96641 0.17749,1.90735 0.4435,2.83196 0.38773,1.0165 0.60146,2.09097 0.72611,3.17042 0.0288,0.25694 0.10739,0.89091 0.1065,1.15149 -0.002,0.68692 -0.1181,1.38046 -0.17838,2.06316 -0.16661,1.0197 -0.42889,2.02817 -0.87653,2.96356 -0.14378,0.29872 -0.35746,0.63545 -0.40177,0.95521 -5.3e-4,0.11467 0.0298,0.0465 0.0642,0.13677 0.0801,0.24569 -0.15937,0.46628 -0.20153,0.70318 -0.35618,0.83192 -0.66756,1.68017 -1.0332,2.50856 -0.4043,0.91064 -0.7686,1.83878 -1.22559,2.72475 -0.47044,0.84947 -0.90871,1.7406 -1.61533,2.42541 -0.54483,0.48966 -1.04186,1.01718 -1.73774,1.29748 -0.93992,0.55904 -1.9023,1.08715 -2.89576,1.5447 -1.28205,0.61133 -2.56362,1.22659 -3.86946,1.78485 -1.07059,0.39255 -2.1342,0.80519 -3.22,1.15242 -1.0662,0.33049 -2.13249,0.66436 -3.21407,0.9406 -1.0696,0.27545 -2.10448,0.65351 -3.16208,0.9711 -1.3672,0.32317 -2.75943,0.54139 -4.15334,0.71092 -1.22552,0.0747 -2.45218,0.1749 -3.68087,0.12195 -1.44318,-0.0111 -2.88198,0.0663 -4.3185,0.20717 -1.64204,0.17158 -3.28994,0.20225 -4.90698,-0.19399 -1.22472,-0.28993 -2.37284,-0.78624 -3.56907,-1.16651 -0.64284,-0.18803 -1.28124,-0.3928 -1.94398,-0.50107 -0.763315,-0.12469 -0.37427,-0.0262 -1.085776,-0.10253 -0.141285,-0.0152 -0.280744,-0.0441 -0.421116,-0.0662 z" />
</svg>
