<?xml version="1.0" encoding="UTF-8" standalone="no"?>
<!-- Created with Inkscape (http://www.inkscape.org/) -->

<svg
   width="1000"
   height="1000"
   viewBox="60 0 164 264.58333"
   version="1.1"
   id="svg1"
   xmlns="http://www.w3.org/2000/svg"
   xmlns:svg="http://www.w3.org/2000/svg">
  <defs
     id="defs1" />
  <path
     style="fill:#000000;stroke-width:0.264583"
     id="path1"
     d="m 113.01751,73.369579 c 1.02526,0.02111 1.97322,0.394362 3.00242,0.38671 0.76012,-0.0057 1.20743,-0.103413 1.969,-0.218646 2.04189,-0.314302 4.07916,-0.646396 6.13854,-0.828339 2.18393,-0.176496 4.37565,-0.09381 6.56389,-0.08555 2.54391,-0.149085 5.08883,-0.178681 7.63566,-0.238257 1.33856,0.04243 2.66911,-0.134131 4.00256,-0.197329 1.60478,-0.07606 3.22085,-0.0481 4.82688,-0.0489 2.8861,-0.182271 5.75382,-0.0042 8.59212,0.524328 2.08074,0.428768 4.15032,0.89862 6.22257,1.365033 1.71988,0.441788 3.45263,0.825492 5.18084,1.233696 1.40053,0.340667 2.74721,0.865672 4.01669,1.547157 -18.72512,-9.836243 -11.59259,-7.316756 -8.28398,-4.464325 0.39804,0.516969 0.94627,1.090419 1.12703,1.741482 0.0428,0.15413 0.035,0.317997 0.0525,0.476996 -0.0698,1.377008 -0.97214,2.447639 -1.76898,3.498418 -1.96318,2.174219 -4.2808,3.997572 -6.54996,5.840122 -3.13216,2.529419 -6.15592,5.184881 -9.20329,7.814429 -2.95093,2.669124 -5.98701,5.237572 -8.93599,7.909163 -2.61345,2.144523 -4.94154,4.585633 -7.30403,6.993223 -2.08557,2.04767 -4.12911,4.13623 -6.19154,6.20703 -2.01014,1.99617 -3.96918,4.04089 -5.95171,6.06436 -1.90882,2.03176 -3.77756,4.10317 -5.49572,6.29926 -1.51014,1.94179 -2.98111,3.91285 -4.48223,5.86167 -1.23701,1.46386 -1.97725,3.21136 -2.71359,4.95679 -0.75993,1.59378 -1.45793,3.22057 -1.8594,4.94324 -0.17621,0.80367 -0.25849,1.67378 0.003,2.47456 0.20601,0.63054 0.67007,1.3744 1.25501,1.71195 3.8895,2.24453 7.88674,4.29695 11.83012,6.44543 5.4153,0.97927 10.91206,0.2825 16.32598,-0.30638 6.01111,-0.59996 12.02313,-1.20063 18.05361,-1.56714 4.05901,-0.21314 7.91626,0.10844 11.82581,1.19808 2.30749,0.91415 4.62791,1.78466 6.9693,2.60805 2.02963,0.79075 4.07127,1.53399 6.14542,2.19993 0.31367,0.0844 0.62489,0.17845 0.94103,0.25306 1.44173,0.34026 0.28715,0.0994 1.48127,0.1224 0.21983,0.004 0.74083,0.27546 0.6556,0.0728 -0.21416,-0.5092 -0.75563,-0.806 -1.13344,-1.209 0,0 -5.90678,-4.48794 -5.90678,-4.48794 v 0 c -0.84261,-0.50412 -1.65199,-1.06849 -2.52784,-1.51236 -0.25221,-0.12781 -0.55475,-0.11217 -0.82716,-0.1879 -0.88283,-0.24541 -1.75056,-0.55052 -2.64152,-0.77053 -2.05571,-0.66058 -4.04405,-1.49728 -6.08724,-2.19334 -2.29507,-0.79072 -4.54698,-1.71189 -6.88357,-2.37227 -3.70662,-0.6735 -7.47561,-0.59693 -11.22207,-0.31114 -5.86907,0.50216 -11.6903,1.43955 -17.55951,1.95396 -4.78665,0.42396 -9.86593,0.96244 -14.61708,-0.0594 -0.74175,-0.15954 -1.45836,-0.41927 -2.18754,-0.6289 2.86989,1.74657 5.7535,3.47081 8.60968,5.23972 0.26582,0.16464 -0.58025,-0.2455 -0.83605,-0.4253 -0.81173,-0.57053 -0.9239,-1.5037 -0.81397,-2.40921 0.36929,-1.66561 0.9771,-3.23353 1.68843,-4.78331 0.71642,-1.64427 1.48488,-3.2808 2.48772,-4.77255 1.38001,-2.01828 2.83319,-3.98163 4.34845,-5.90067 1.65414,-2.17599 3.42558,-4.26225 5.27147,-6.27783 0.744,-0.77678 1.3541,-1.43375 2.14014,-2.17217 1.33627,-1.25533 2.73236,-2.44509 3.96636,-3.80727 1.95461,-2.13324 3.89561,-4.28048 5.90963,-6.35794 2.34929,-2.37408 4.77578,-4.67132 7.1314,-7.03911 1.41884,-1.35167 1.39733,-1.35879 2.89191,-2.66866 1.53175,-1.34245 3.12829,-2.6101 4.66148,-3.949995 0.46916,-0.410011 0.91896,-0.84166 1.37844,-1.262488 2.96144,-2.704418 5.97921,-5.344869 9.18858,-7.75566 1.43389,-1.135941 2.86549,-2.273739 4.36932,-3.317213 0.44207,-0.306745 0.91444,-0.570006 1.3441,-0.893914 0.53256,-0.401481 1.08334,-1.004734 1.5476,-1.484127 1.07234,-1.222565 2.04521,-2.499079 2.36587,-4.135583 0.0209,-0.266975 0.0972,-1.045062 0.0581,-1.317979 -0.0914,-0.639009 -0.64452,-1.142429 -0.88466,-1.717056 -0.19871,-0.29831 -0.32073,-0.51842 -0.58018,-0.767538 -0.19805,-0.190164 -0.50602,-0.364998 -0.7207,-0.528394 -0.14847,-0.113004 -0.28832,-0.236908 -0.43248,-0.355359 -3.66682,-2.112719 -7.33363,-4.225438 -11.00045,-6.338158 -1.30467,-0.525737 -2.63721,-0.951177 -4.01975,-1.225171 -1.71603,-0.389895 -3.42786,-0.796819 -5.14364,-1.187405 -2.00335,-0.42677 -4.02011,-0.783632 -6.03823,-1.133372 -2.80378,-0.344853 -5.60637,-0.272283 -8.4242,-0.139115 -2.89615,0.176318 -5.79539,0.215659 -8.69372,0.339193 -2.51541,0.071 -5.03049,0.124963 -7.54267,0.279858 -2.16226,0.0396 -4.32958,-0.02003 -6.47689,0.297931 -1.91453,0.285909 -3.81181,0.688115 -5.6717,1.226145 -0.28376,0.05666 -0.56477,0.129408 -0.85127,0.169979 -0.48638,0.06888 -0.98368,0.03712 -1.46968,0.108654 -0.15488,0.02281 -0.29807,0.105571 -0.45389,0.120618 -0.26693,0.02577 -0.81568,-0.06114 -1.07645,-0.09519 z" />
</svg>
