<?xml version="1.0" encoding="UTF-8" standalone="no"?>
<!-- Created with Inkscape (http://www.inkscape.org/) -->

<svg
   width="1000"
   height="1000"
   viewBox="60 0 164 264.58333"
   version="1.1"
   id="svg1"
   xmlns="http://www.w3.org/2000/svg"
   xmlns:svg="http://www.w3.org/2000/svg">
  <defs
     id="defs1" />
  <path
     style="fill:#000000;stroke-width:30.7859"
     id="path3"
     d="m 76.100822,66.279814 c -0.150123,0.706949 -0.314115,1.409994 -0.443798,2.121971 -0.08112,0.749039 -0.163697,1.487978 -0.324323,2.22782 -0.271673,0.714978 -0.04156,1.646488 -0.393292,2.322189 -0.236114,0.637841 -0.380012,1.307585 -0.449338,1.983243 -0.166134,0.304929 0.118774,1.084269 -0.148655,1.295569 -0.316562,0.554847 -0.343808,1.276671 -0.399598,1.905309 -0.163189,0.68118 0.168833,1.558619 -0.145994,2.193243 -0.2857,0.550755 -0.368162,1.12612 -0.420412,1.738639 -0.148205,0.97011 -0.32939,1.933536 -0.445928,2.910083 -0.281693,1.181789 -0.291986,2.444637 -0.815163,3.554081 -0.390605,0.800877 -0.424784,1.614868 -0.376828,2.488817 -0.09242,1.516704 -0.34895,3.01595 -0.507153,4.526655 -0.09278,0.825647 -0.177492,1.657089 -0.151763,2.488577 0.04954,1.1568 0.08751,2.29032 -0.09457,3.43831 -0.228502,1.4933 -0.316337,3.01525 -0.328733,4.52581 -0.03222,1.66026 9.26e-4,3.30745 -0.200229,4.95857 -0.160516,1.03961 -0.376385,2.07267 -0.462262,3.12211 -0.275955,0.81442 -0.425607,1.64997 -0.453647,2.50902 -0.04289,1.13761 -0.102032,2.27464 -0.125146,3.41295 -0.01378,0.74713 -0.01338,1.49471 -0.03379,2.24168 0.01868,0.64762 -3.08e-4,1.29525 0.0059,1.94289 -0.0082,0.52412 -0.0098,1.0481 -0.02078,1.57211 0.0087,0.4589 -0.0093,0.91705 0.0047,1.37598 0.005,0.52601 -0.0015,1.05222 0.0091,1.5782 -0.02226,0.482 -0.004,0.96407 -0.0106,1.4462 0.04447,0.86464 0.352563,1.70519 0.629941,2.51978 0.22762,0.71478 0.39771,1.45231 0.457106,2.20085 0.0534,0.67495 0.373523,1.29425 0.641938,1.90651 0.249706,0.64721 0.629474,1.22463 0.976174,1.82102 0.310178,0.47635 0.599294,0.96 0.869615,1.46036 0.341456,0.50442 0.665447,1.0245 1.060146,1.4868 0.534635,0.54924 1.09914,1.07056 1.661561,1.59174 0.386726,0.4563 0.840602,0.8149 1.272636,1.20567 0.400865,0.39305 0.912268,0.53152 1.399857,0.77427 0.69355,0.31578 1.386534,0.6456 2.065224,1.00541 0.591686,0.28001 1.176337,0.59126 1.840712,0.61 0.6785,0.20435 1.339856,0.42761 2.042547,0.54155 0.746026,0.0999 1.449527,0.0481 2.174917,0.25701 0.9131,0.134 1.791155,0.34326 2.676717,0.59707 0.580846,0.25873 1.216163,0.22797 1.816877,0.35548 0.637185,0.23675 1.296908,0.40608 1.968253,0.51001 4.268573,0.27672 9.653459,2.51088 12.889539,-0.47573 0.0573,-0.008 0.12744,0.0141 0.17202,-0.0228 0.084,-0.0693 0.0894,-0.2147 0.18308,-0.2702 0.11738,-0.0695 0.27125,-0.0382 0.40229,-0.0765 0.58878,-0.17139 1.16201,-0.37529 1.75808,-0.53046 0.80743,-0.17401 1.63149,-0.26685 2.45762,-0.25191 0.41317,-0.3624 0.90324,-0.51313 1.43239,-0.56804 0.0769,0.005 0.16026,0.0435 0.23074,0.0124 0.10207,-0.0448 0.15609,-0.16119 0.24865,-0.22323 0.26163,-0.17535 0.64757,-0.30883 0.95805,-0.32554 0.073,-0.008 0.15839,0.0185 0.21918,-0.0227 0.0927,-0.0627 0.12385,-0.189 0.20614,-0.26486 0.14682,-0.13531 0.46286,-0.1617 0.5859,-0.31359 0.0734,-0.0905 0.1009,-0.20997 0.15129,-0.31496 0.40392,-0.16259 0.61908,-0.59871 1.03725,-0.69215 0.47429,-0.0966 0.80514,-0.45103 1.18598,-0.73087 0.0388,-0.029 0.0777,-0.058 0.11652,-0.087 0.041,0.0289 0.0802,0.1126 0.12301,0.0866 0.14983,-0.0907 0.14325,-0.34097 0.28886,-0.43832 0.0431,-0.0289 0.10369,-0.007 0.1556,-0.0105 0.074,-0.0569 0.14803,-0.11387 0.22205,-0.17073 0.6265,-0.20443 1.08928,-0.64511 1.6688,-0.96069 0.0765,-0.23952 0.41746,0.0278 0.53657,-0.0648 0.0859,-0.0668 0.0987,-0.1973 0.1739,-0.27585 0.12012,-0.12543 0.30815,-0.16091 0.46146,-0.2428 0.39938,-0.30769 0.94485,-0.28802 1.38282,-0.49641 0.21115,-0.10051 0.38967,-0.25833 0.58684,-0.38389 0.54358,-0.20149 0.98104,-0.42239 1.41818,-0.83614 0.62535,-0.27413 1.15773,-0.70162 1.71892,-1.08368 0.40271,-0.38031 0.79629,-0.76663 1.17388,-1.17205 0.21993,-0.1247 0.35324,-0.46659 0.58883,-0.56788 0.0528,-0.0227 0.12357,0.0397 0.17202,0.009 0.15306,-0.0971 0.2239,-0.28478 0.33972,-0.42402 0.16378,-0.13744 0.25141,-0.39542 0.43554,-0.50948 0.0557,-0.0345 0.13971,-0.003 0.19221,-0.0424 0.1645,-0.12303 0.25972,-0.31804 0.39342,-0.47384 0.37169,-0.35931 0.60502,-0.7453 0.80968,-1.21289 0.11104,-0.18893 0.25198,-0.59296 0.46375,-0.70108 0.43461,-0.22191 -0.21355,0.50705 0.32519,-0.21106 0.41702,-0.39981 0.60632,-0.93375 0.91415,-1.40842 0.4804,-0.48186 0.96655,-0.94754 1.40241,-1.47554 0.26456,-0.41578 0.69855,-0.70601 0.98728,-1.09771 0.46847,-0.63552 -0.0606,-0.11236 0.4038,-0.53706 0.33953,-0.19348 0.35012,-0.54559 0.50307,-0.85936 0.13449,-0.27589 0.32292,-0.55041 0.46403,-0.832 0.26894,-0.58605 0.7597,-1.0084 1.0642,-1.55761 0.53296,-0.3747 0.63742,-1.05397 0.93319,-1.59186 0.30822,-0.41059 0.44146,-0.89842 0.59056,-1.3818 0.007,-0.0813 -0.009,-0.16855 0.0226,-0.24386 0.0384,-0.0916 0.24213,-0.0181 0.27691,-0.11108 0.0972,-0.51927 0.0275,-0.2844 0.19024,-0.70991 0.20336,-0.6944 0.57034,-1.31892 0.831,-1.98785 0.0767,-0.68243 0.45764,-1.25834 0.61041,-1.90659 0.37013,-0.65923 0.63346,-1.3744 0.77232,-2.11666 0.15365,-0.49133 0.39617,-0.94691 0.54484,-1.46344 0.29789,-0.41832 0.46117,-0.87609 0.62011,-1.35873 0.065,-0.5816 0.13117,-1.21561 0.47205,-1.70831 0.31243,-0.75843 0.67406,-1.49177 0.97909,-2.25449 0.49521,-0.53961 0.31381,-1.53094 0.83248,-2.01528 0.31303,-0.4579 0.4294,-0.99749 0.60413,-1.51563 0.30712,-0.4637 0.2605,-1.09704 0.56811,-1.54747 0.30761,-0.50779 0.42433,-1.15669 0.49471,-1.74452 -0.003,-0.48213 0.13239,-0.79691 0.31794,-1.2192 0.23071,-0.54327 0.50305,-1.066002 0.68588,-1.649334 2.38902,-3.162254 0.40107,-0.468539 -11.4117,0.04267 -0.11535,0.005 0.0556,0.224001 0.0708,0.338132 0.0757,0.565522 0.0596,1.120472 0.0199,1.687132 -0.1645,0.99476 -0.33706,1.98795 -0.51921,2.97966 -0.0754,0.71689 0.15915,1.43471 0.33173,2.12688 0.0926,0.39454 0.10579,0.7968 0.13343,1.19846 0.0394,0.76216 0.0594,1.52536 0.072,2.28868 0.0285,0.85157 -0.0383,1.70228 -0.0464,2.55314 -0.0298,0.51673 -0.0154,1.03424 -0.004,1.55143 0.006,0.67421 0.008,1.3471 0.0168,2.02155 0.0784,0.70653 0.29401,1.38485 0.44286,2.07724 0.12387,0.66134 0.10253,1.33645 0.1129,2.00583 0.0253,0.68793 0.008,1.37625 -0.0141,2.06392 -0.0527,0.70354 0.15295,1.36833 0.34866,2.03379 0.14935,0.66171 0.19957,1.32541 0.38837,1.97891 0.21646,0.69847 0.30626,1.42378 0.37081,2.14911 0.0924,0.60037 0.29775,1.17548 0.48042,1.75323 0.0618,0.73592 0.13997,1.45178 0.29166,2.17631 0.16852,0.71596 0.29049,1.44306 0.3325,2.17756 -0.0317,0.61407 0.146,1.16431 0.38275,1.72058 0.17,0.61361 0.18252,1.25079 0.20916,1.88203 -0.0117,0.55899 -0.0562,1.10309 0.1539,1.63207 0.24572,0.48527 0.32191,1.02324 0.38174,1.55674 0.0243,0.59627 -0.007,1.18758 0.0911,1.77735 0.18633,0.53747 0.34671,1.08409 0.42378,1.64849 0.0482,0.68148 0.22321,1.34207 0.41903,1.99427 0.13067,0.70187 0.31499,1.38889 0.48646,2.08173 0.12462,0.81299 0.42558,1.57817 0.62913,2.37061 0.15039,0.58633 0.20261,1.19215 0.21088,1.79568 0.004,0.70085 0.31023,1.34224 0.43303,2.02524 0.0774,0.76661 0.17611,1.51006 0.40224,2.24932 0.224,0.71474 0.24201,1.46737 0.36632,2.20035 0.15827,0.60704 0.32478,1.21 0.40714,1.83266 0.0531,0.31525 0.0457,0.63582 0.0682,0.95436 0.051,0.69006 0.0212,1.3819 0.024,2.07289 0.10532,0.72336 0.33622,1.42054 0.44823,2.14443 0.0105,0.57792 0.21123,1.09005 0.42534,1.61624 0.20268,0.55576 0.31964,1.14436 0.49392,1.715 0.17129,0.48446 0.21186,0.99723 0.33071,1.49362 0,0 11.5347,-0.43503 11.5347,-0.43503 v 0 c -0.32545,-0.31681 -0.127,-1.02807 -0.36321,-1.42517 -0.22112,-0.61559 -0.36422,-1.20636 -0.44347,-1.85493 -0.23876,-0.44032 -0.46748,-0.79566 -0.45767,-1.31188 -0.13017,-0.65222 -0.28057,-1.30426 -0.46725,-1.94055 0.005,-0.69346 -0.0207,-1.38773 0.0301,-2.08023 0.0223,-0.39419 -0.006,-0.77983 -0.0588,-1.17177 -0.15883,-0.62031 -0.30072,-1.24373 -0.49364,-1.85451 -0.21617,-0.73554 -0.0828,-1.54953 -0.35016,-2.2852 -0.20341,-0.70714 -0.40938,-1.38104 -0.4056,-2.1313 -0.12144,-0.62511 -0.30367,-1.24475 -0.39339,-1.85658 -0.0412,-0.69198 -0.0869,-1.38303 -0.25882,-2.05831 -0.22885,-0.7883 -0.52349,-1.5469 -0.64095,-2.36042 -0.1965,-0.69549 -0.31745,-1.39012 -0.44707,-2.09685 -0.16065,-0.62 -0.44434,-1.19631 -0.38816,-1.8569 -0.0993,-0.60056 -0.23795,-1.19291 -0.43075,-1.7712 -0.25767,-0.41454 0.0375,-1.10466 -0.12282,-1.56975 -0.0316,-0.65979 -0.13075,-1.30616 -0.34218,-1.93447 -0.0279,-0.0584 -0.0403,-0.12716 -0.0835,-0.17545 -0.0155,-0.0173 -0.0622,0.0265 -0.0694,0.005 -0.10289,-0.31191 0.0705,-0.71478 -0.0316,-1.03278 -0.0175,-0.71635 -0.0795,-1.43438 -0.21526,-2.13845 -0.0929,-0.55325 -0.42675,-0.94975 -0.36964,-1.52393 -0.087,-0.78373 -0.2047,-1.56011 -0.39401,-2.32697 -0.16361,-0.70467 -0.15864,-1.414 -0.22838,-2.13157 -0.0577,-0.57667 -0.30146,-1.09442 -0.51247,-1.6304 -0.0421,-0.80591 -0.18282,-1.59517 -0.37943,-2.37793 -0.17181,-0.65307 -0.23076,-1.30479 -0.36152,-1.9663 -0.13978,-0.58625 -0.41844,-1.11851 -0.32328,-1.73578 -0.0193,-0.69235 -0.0315,-1.38508 -0.0129,-2.07766 -0.003,-0.73422 -0.0382,-1.46887 -0.095,-2.20077 -0.1002,-0.64193 -0.34933,-1.23629 -0.47498,-1.8711 0.009,-0.67445 0.0117,-1.34732 0.0167,-2.02155 0.0117,-0.517 0.0259,-1.03431 -0.003,-1.55088 -0.007,-0.85058 -0.0727,-1.7011 -0.0421,-2.55235 0.0147,-0.77672 0.0451,-1.55235 0.0628,-2.32884 -0.002,-0.47651 -0.0629,-0.9531 -0.17806,-1.41557 -0.11941,-0.5722 -0.40235,-1.13547 -0.33892,-1.72766 0.067,-1.01164 0.2389,-2.01112 0.36512,-3.01635 0.66163,-5.75635 -1.36343,-3.093225 -11.5209,-2.731771 -0.0136,0.06636 -0.0273,0.132712 -0.0409,0.199071 -0.18177,0.542933 -0.52109,1.01235 -0.69538,1.55967 -0.18863,0.48965 -0.32331,0.97076 -0.31577,1.50081 -0.0924,0.50914 -0.22422,0.98161 -0.49064,1.43119 -0.18601,0.53859 -0.30103,1.09975 -0.55071,1.61777 -0.18682,0.46634 -0.3296,0.94329 -0.60893,1.36942 -0.24545,0.72618 -0.41687,1.4737 -0.80117,2.14863 -0.27618,0.74098 -0.64587,1.44522 -0.98216,2.16028 -0.22904,0.61055 -0.41492,1.23274 -0.54749,1.87052 -0.14619,0.48195 -0.45171,0.89492 -0.59587,1.38063 -0.16207,0.5225 -0.48474,0.99268 -0.51068,1.55536 -0.17274,0.69682 -0.46743,1.33971 -0.75677,1.99497 -0.27463,0.58439 -0.40751,1.19741 -0.61133,1.80481 -0.31096,0.6502 -0.54172,1.32748 -0.83457,1.98486 -0.19514,0.41026 -0.54407,0.70133 -0.57844,1.21836 -0.10113,0.4207 -0.31883,0.78054 -0.51208,1.16531 -0.24741,0.5358 -0.55094,0.99389 -0.93324,1.44555 -0.43559,0.50919 -0.71708,1.12951 -1.06415,1.69869 -0.26147,0.51499 -0.53529,1.00874 -0.94653,1.41858 -0.41109,0.58695 -0.93066,1.08865 -1.40059,1.62879 -0.48031,0.53294 -0.99319,1.04298 -1.39519,1.6421 -0.26721,0.42864 -0.56276,0.81745 -0.9404,1.15805 -0.40959,0.28072 -0.5732,0.84823 -0.81476,1.26586 -0.20597,0.32622 -0.53899,0.56953 -0.77747,0.87703 -0.3581,0.32288 -0.71315,0.63353 -1.03937,0.99738 -0.0965,0.0731 -0.22394,0.10051 -0.31604,0.17896 -0.27044,0.2305 -0.43471,0.60175 -0.73801,0.80493 -0.38013,0.34531 -0.74989,0.71372 -1.19162,0.98071 -0.54205,0.39773 -1.13739,0.69973 -1.68314,1.09132 -0.47929,0.2333 -0.9799,0.37728 -1.41232,0.70016 -0.64804,0.29045 -1.34986,0.47046 -1.94621,0.88108 -0.18632,0.10284 -0.33835,0.29055 -0.54807,0.3274 -0.0499,0.009 -0.081,-0.0805 -0.13143,-0.0762 -0.21905,0.0187 -0.34426,0.31559 -0.54423,0.38257 -0.54363,0.36882 -1.09715,0.67607 -1.65921,1.01283 -0.58763,0.34387 0.0458,-0.0629 -0.44338,0.3621 -0.39572,0.34375 0.16619,-0.21538 -0.25522,0.0157 -0.11045,0.0605 -0.1292,0.23116 -0.25999,0.27377 -0.36868,0.25713 -0.78371,0.37902 -1.13945,0.65267 -0.35592,0.34131 -0.77802,0.59721 -1.09283,0.98185 -0.2806,-0.077 -0.43617,0.25273 -0.7001,0.30066 -0.0561,0.0105 -0.10542,-0.0587 -0.16226,-0.054 -0.0778,0.006 -0.14551,0.0565 -0.21826,0.0848 -0.47192,0.25037 -0.92877,0.41938 -1.44167,0.47027 -0.43524,0.16621 -0.893771,0.50698 -1.372503,0.36864 -0.800585,0.10934 -1.592109,0.27487 -2.360186,0.52936 -0.939686,0.31256 -1.910833,0.66349 -2.728199,1.16543 -4.514626,0.9062 15.547208,-0.0976 10.003848,-0.0432 -0.64891,0.002 -1.29987,-0.0605 -1.92756,-0.23192 -0.21877,-0.0984 -0.41495,-0.25208 -0.64582,-0.31754 -0.37511,-0.10632 -0.84904,0.0781 -1.21786,-0.11687 -0.917316,-0.20544 -1.765723,-0.58934 -2.709205,-0.64471 -0.452741,-0.0507 -0.68436,-0.26137 -1.104118,-0.36558 -0.323293,-0.0803 -0.700812,0.064 -1.02848,-0.006 -0.688279,-0.0438 -1.391608,-0.0304 -2.018719,-0.35996 -0.573678,-0.30182 -1.273931,-0.1055 -1.865813,-0.43832 -0.699602,-0.24553 -1.290517,-0.72399 -1.979705,-0.94695 -0.478116,-0.25321 -0.887655,-0.46126 -1.389006,-0.62719 -0.823182,-0.37016 0.506468,0.26558 -0.405571,-0.32933 -0.05403,-0.0352 -0.135106,0.0105 -0.192872,-0.0178 -0.281746,-0.14031 -0.450904,-0.5054 -0.718302,-0.66558 -0.527499,-0.5292 -1.073056,-1.04072 -1.623399,-1.54599 -0.407282,-0.36887 -0.641905,-0.81326 -1.016941,-1.22685 -0.316822,-0.49347 -0.525708,-1.03105 -0.890595,-1.48807 -0.366739,-0.53863 -0.717662,-1.10516 -0.995563,-1.68358 -0.249437,-0.49394 -0.483143,-1.03569 -0.576783,-1.55728 -0.148279,-0.81423 -0.339693,-1.61275 -0.578836,-2.40608 -0.217858,-0.7015 -0.487392,-1.42467 -0.501626,-2.16213 -0.0066,-0.48212 0.01165,-0.9642 -0.0106,-1.44619 0.01049,-0.52599 0.004,-1.05219 0.0091,-1.5782 0.0139,-0.45892 -0.0041,-0.91707 0.0047,-1.37597 -0.01095,-0.52411 -0.01255,-1.04821 -0.02096,-1.57243 0.0061,-0.64835 -0.01363,-1.29667 0.0028,-1.94503 -0.02349,-0.74364 -0.02806,-1.4881 -0.03662,-2.232 -0.0086,-1.10506 -0.03725,-2.21408 0.07637,-3.3153 0.139294,-0.85638 0.347866,-1.68795 0.54301,-2.53192 0.06277,-1.02824 0.147492,-2.05417 0.260778,-3.07838 0.173701,-1.68024 0.191818,-3.36002 0.199257,-5.04833 0.08333,-1.47468 0.132027,-2.94967 0.397288,-4.40734 0.140689,-1.19225 0.224448,-2.383394 0.221739,-3.584173 0.03775,-0.799815 -0.0015,-1.602084 0.047,-2.402167 0.09625,-1.531639 0.259229,-3.057389 0.481717,-4.576231 0.107566,-0.730487 0.210197,-1.453126 0.490376,-2.142911 0.329356,-1.227846 0.370925,-2.504745 0.666391,-3.741574 0.241404,-0.985084 0.468753,-1.986365 0.631731,-2.984138 0.08257,-0.5545 0.276954,-1.063923 0.435329,-1.601415 0.106844,-0.775368 0.01142,-1.562445 0.119295,-2.340444 0.07294,-0.587359 0.195162,-1.135854 0.455156,-1.670647 0.102789,-0.500036 0.07135,-1.003455 0.1126,-1.51255 0.08778,-0.615712 0.227297,-1.215417 0.45242,-1.797466 0.153276,-0.798472 0.116049,-1.621509 0.315924,-2.415132 0.14647,-0.757198 0.356519,-1.502313 0.391164,-2.276479 0.105993,-0.779075 0.330532,-1.531526 0.474048,-2.303601 z" />
  <path
     style="fill:#000000;stroke-width:27.8308"
     id="path4"
     d="m 163.71088,165.96926 c 1.02792,-1.69168 2.51823,-2.91804 3.70198,-4.46294 1.08756,-1.45877 2.18857,-2.90559 3.36102,-4.28213 0.6361,-1.0157 1.19192,-2.09446 1.78579,-3.14337 0.74979,-1.53652 1.65373,-2.97442 2.56623,-4.3967 0.93273,-1.43992 1.92687,-2.80627 2.6664,-4.38549 0.83843,-1.63684 1.60915,-3.31115 2.40065,-4.97746 0.90699,-2.10538 1.99104,-4.10214 2.99891,-6.14706 1.25508,-2.43384 2.80721,-4.64709 4.24969,-6.94173 1.11448,-1.43865 1.99473,-3.06082 2.92256,-4.64664 0.97522,-1.59489 1.95121,-3.18854 2.93281,-4.77845 0.57687,-0.98822 1.15099,-1.96983 1.71874,-2.96397 0.52575,-0.87931 0.963,-1.80343 1.45573,-2.70852 0.55062,-0.95842 1.11698,-1.90363 1.64173,-2.87987 0.70512,-1.15716 1.14269,-2.47449 1.66089,-3.73948 0.56175,-1.42219 1.08004,-2.89458 1.85095,-4.19773 0.4262,-0.57691 0.58473,-1.30918 0.90215,-1.940755 0.26473,-0.693406 0.55822,-1.386901 0.92816,-2.021876 0.85797,-2.033074 1.53077,-4.147238 2.35529,-6.198529 1.17053,-2.971533 2.53425,-5.84136 3.90826,-8.701825 0.72633,-1.516964 1.37618,-3.065648 1.9089,-4.677245 0.39317,-1.124908 0.8294,-2.228776 1.20286,-3.361587 0.35738,-0.536179 0.35287,-1.357201 0.72566,-1.86066 0.36482,-0.432994 0.3448,-1.093944 0.50601,-1.631548 0.34518,-0.45545 0.18037,-1.211197 0.49351,-1.64632 0.18849,-0.106628 0.17957,-0.287101 0.29081,-0.45009 0.0236,-0.03457 0.0742,-0.02755 0.11135,-0.04133 0.0409,-0.08214 0.0819,-0.164283 0.12278,-0.246425 0,0 -9.88699,-0.675253 -9.88699,-0.675253 v 0 c -0.24117,0.27586 -0.39965,0.632379 -0.52733,0.987315 -0.14324,0.586162 -0.25628,1.177344 -0.46625,1.742759 -0.13784,0.51335 -0.25321,1.006122 -0.52607,1.455836 -0.21781,0.67554 -0.41793,1.357216 -0.67049,2.018552 -0.2985,1.123561 -0.72772,2.198526 -1.03503,3.319432 -0.55951,1.559834 -1.23234,3.056031 -1.82193,4.601169 -1.09136,2.961261 -2.36731,5.832528 -3.61343,8.716357 -0.91253,2.043755 -1.82092,4.08935 -2.87593,6.048757 -0.37433,0.694988 -0.69915,1.420669 -1.01295,2.151296 -0.22908,0.634986 -0.4647,1.26578 -0.77691,1.85962 -0.61409,1.40951 -1.16592,2.85238 -1.74361,4.28044 -0.55024,1.24969 -1.08931,2.49681 -1.80531,3.64415 -0.49324,0.98998 -1.09528,1.90711 -1.61985,2.87641 -0.45667,0.9076 -0.98471,1.76353 -1.46826,2.65337 -0.58166,0.96562 -1.02703,2.0121 -1.61979,2.97082 -0.89381,1.61535 -1.83762,3.19815 -2.78724,4.77379 -0.96614,1.55774 -2.00738,3.05361 -2.93895,4.63786 -1.3771,2.31438 -2.72122,4.64781 -4.03134,7.011 -1.18922,1.99347 -2.3412,4.02567 -3.27723,6.17923 -0.82551,1.63819 -1.50709,3.36434 -2.42638,4.94478 -0.84554,1.44886 -1.66842,2.91102 -2.60013,4.29649 -0.92513,1.4682 -1.91154,2.89721 -2.72372,4.44671 -0.56487,1.00986 -1.12345,2.02954 -1.7765,2.97333 -1.03515,1.44001 -2.06122,2.8895 -3.15313,4.27789 -1.33088,1.52846 -2.7444,2.96799 -4.04086,4.53493 z" />
</svg>
